%TF.GenerationSoftware,KiCad,Pcbnew,9.0.9*%
%TF.CreationDate,2026-09-24T12:47:35+00:00*%
%TF.ProjectId,PCB-MAIN,5043422d-4d41-4494-9e2e-6b696361645f,rev?*%
%TF.SameCoordinates,Original*%
%TF.FileFunction,Copper,L3,Inr*%
%TF.FilePolarity,Positive*%
%FSLAX46Y46*%
G04 Gerber Fmt 4.6, Leading zero omitted, Abs format (unit mm)*
G04 Created by KiCad (PCBNEW 9.0.9) date 2026-09-24 12:47:35*
%MOMM*%
%LPD*%
G01*
G04 APERTURE LIST*
G04 Aperture macros list*
%AMRoundRect*
0 Rectangle with rounded corners*
0 $1 Rounding radius*
0 $2 $3 $4 $5 $6 $7 $8 $9 X,Y pos of 4 corners*
0 Add a 4 corners polygon primitive as box body*
4,1,4,$2,$3,$4,$5,$6,$7,$8,$9,$2,$3,0*
0 Add four circle primitives for the rounded corners*
1,1,$1+$1,$2,$3*
1,1,$1+$1,$4,$5*
1,1,$1+$1,$6,$7*
1,1,$1+$1,$8,$9*
0 Add four rect primitives between the rounded corners*
20,1,$1+$1,$2,$3,$4,$5,0*
20,1,$1+$1,$4,$5,$6,$7,0*
20,1,$1+$1,$6,$7,$8,$9,0*
20,1,$1+$1,$8,$9,$2,$3,0*%
G04 Aperture macros list end*
%TA.AperFunction,ComponentPad*%
%ADD10O,1.000000X2.100000*%
%TD*%
%TA.AperFunction,ComponentPad*%
%ADD11O,1.000000X1.800000*%
%TD*%
%TA.AperFunction,ComponentPad*%
%ADD12RoundRect,0.300000X0.450000X-0.450000X0.450000X0.450000X-0.450000X0.450000X-0.450000X-0.450000X0*%
%TD*%
%TA.AperFunction,ComponentPad*%
%ADD13C,1.500000*%
%TD*%
%TA.AperFunction,ViaPad*%
%ADD14C,0.500000*%
%TD*%
%TA.AperFunction,Conductor*%
%ADD15C,0.150000*%
%TD*%
%ADD16C,0.300000*%
%ADD17C,0.350000*%
%ADD18O,0.600000X1.700000*%
%ADD19O,0.600000X1.400000*%
G04 APERTURE END LIST*
D10*
%TO.N,USB_SHIELD*%
%TO.C,J11*%
X46320000Y-6780000D03*
D11*
X46320000Y-2600000D03*
D10*
X37680000Y-6780000D03*
D11*
X37680000Y-2600000D03*
%TD*%
D12*
%TO.N,3V8_MODEM*%
%TO.C,J_PWR*%
X8920000Y-29500000D03*
D13*
%TO.N,GND_MODEM*%
X8920000Y-26500000D03*
%TO.N,3V3_DIGITAL*%
X8920000Y-23500000D03*
%TO.N,GND_DIGITAL*%
X8920000Y-20500000D03*
%TO.N,1V8_MIC*%
X8920000Y-17500000D03*
%TO.N,GND_MIC*%
X8920000Y-14500000D03*
%TO.N,PWR_GOOD*%
X11920000Y-29500000D03*
%TO.N,FAULT*%
X11920000Y-26500000D03*
%TO.N,EN_MODEM*%
X11920000Y-23500000D03*
%TO.N,EN_AUX*%
X11920000Y-20500000D03*
%TO.N,I2C2_SCL_BUS*%
X11920000Y-17500000D03*
%TO.N,I2C2_SDA_BUS*%
X11920000Y-14500000D03*
%TD*%
D14*
%TO.N,BOOT0*%
X49200000Y-21200000D03*
X61700000Y-30700000D03*
%TO.N,EN_MODEM*%
X52200000Y-23950000D03*
%TO.N,GND_DIGITAL*%
X78225000Y-22100000D03*
X67475000Y-61475000D03*
X62725000Y-24350000D03*
X104975000Y-19850000D03*
X43100000Y-32100000D03*
X62850000Y-35975000D03*
X61475000Y-54725000D03*
X82475000Y-62725000D03*
X94850000Y-4225000D03*
X74475000Y-68975000D03*
X45350000Y-8725000D03*
X62100000Y-32225000D03*
X66224999Y-34850000D03*
X67850000Y-27225000D03*
X58725000Y-53225000D03*
X41350000Y-9725000D03*
X104600000Y-31350000D03*
X65974999Y-67475000D03*
X64224999Y-50725000D03*
X61350000Y-42975000D03*
X42975000Y-29225000D03*
X41100000Y-12725000D03*
X55850000Y-20100000D03*
X57600000Y-68975000D03*
X43100000Y-27100000D03*
X57850000Y-40225000D03*
X81225000Y-19850000D03*
X68100000Y-67975000D03*
X48225000Y-62725000D03*
X44100000Y-12725000D03*
X107100000Y-28725000D03*
X67475000Y-46975000D03*
X16600000Y-27475000D03*
X58725000Y-37725000D03*
X46975000Y-23350000D03*
X95100000Y-29725000D03*
X90725000Y-32975000D03*
X45350000Y-37725000D03*
X64474999Y-53100000D03*
X52475000Y-47725000D03*
X56975000Y-38850000D03*
X61725000Y-29475000D03*
X62600000Y-49600000D03*
X85100000Y-17350000D03*
X48100000Y-19975000D03*
X103100000Y-17975000D03*
X48350000Y-57975000D03*
X47350000Y-18725000D03*
X82475000Y-48225000D03*
X92600000Y-23850000D03*
X83850000Y-54975000D03*
X84225000Y-20975000D03*
X37850000Y-8725000D03*
X64599999Y-30975000D03*
X80475000Y-54600000D03*
X69350000Y-26225000D03*
X43350000Y-8725000D03*
X74475000Y-73975000D03*
X42350000Y-21975000D03*
X86850000Y-20850000D03*
X82475000Y-63975000D03*
X60850000Y-24475000D03*
X90600000Y-7600000D03*
X91850000Y-20475000D03*
X68100000Y-38475000D03*
X61350000Y-48225000D03*
X60100000Y-61975000D03*
X81600000Y-3225000D03*
X55725000Y-51850000D03*
X55600000Y-44225000D03*
X65974999Y-66724999D03*
X43100000Y-34600000D03*
X61350000Y-47475000D03*
X66099999Y-30600000D03*
X67475000Y-63975000D03*
X69350000Y-28975000D03*
X81850000Y-21225000D03*
X38225000Y-8225000D03*
X61600000Y-61850000D03*
X53100000Y-43475000D03*
X64224999Y-54975000D03*
X42600000Y-27725000D03*
X62850000Y-33475000D03*
X65849999Y-41725000D03*
X93100000Y-17350000D03*
X56850000Y-49600000D03*
X94100000Y-20475000D03*
X84350000Y-49475000D03*
X95100000Y-40725000D03*
X45350000Y-32975000D03*
X79350000Y-35350000D03*
X103350000Y-13475000D03*
X60850000Y-53475000D03*
X58100000Y-48225000D03*
X45350000Y-28475000D03*
X103600000Y-28475000D03*
X45850000Y-8225000D03*
X62500000Y-26750000D03*
X67475000Y-31225000D03*
X81475000Y-46100000D03*
X53975000Y-65474999D03*
X59850000Y-56975000D03*
X39600000Y-11475000D03*
X89225000Y-37225000D03*
X59100000Y-65474999D03*
X67225000Y-35225000D03*
X60975000Y-30725000D03*
X62850000Y-25225000D03*
X42600000Y-11475000D03*
X63850000Y-40225000D03*
X82100000Y-23475000D03*
X43100000Y-33350000D03*
X60350000Y-63850000D03*
X49600000Y-64974999D03*
X105475000Y-40600000D03*
X89225000Y-20975000D03*
X31975000Y-23850000D03*
X83850000Y-53725000D03*
X43100000Y-25850000D03*
X67850000Y-28475000D03*
X45100000Y-11475000D03*
X83850000Y-50975000D03*
X63350000Y-37725000D03*
X46100000Y-19975000D03*
X80475000Y-55850000D03*
X51975000Y-46100000D03*
X105475000Y-31225000D03*
X66724999Y-31975000D03*
X69850000Y-29975000D03*
X43350000Y-37725000D03*
X53975000Y-70475000D03*
X81475000Y-60600000D03*
X62850000Y-34725000D03*
X86600000Y-33725000D03*
X43100000Y-35850000D03*
%TO.N,GND_MIC*%
X7350000Y-40850000D03*
X102725000Y-55600000D03*
X8850000Y-43225000D03*
X99600000Y-53850000D03*
X89850000Y-65974999D03*
X39475000Y-61975000D03*
X37100000Y-67725000D03*
X7600000Y-38350000D03*
X101975000Y-53975000D03*
X93225000Y-65224999D03*
X48600000Y-44725000D03*
X48600000Y-45350000D03*
X90850000Y-65099999D03*
X89100000Y-67725000D03*
X9725000Y-38475000D03*
X101100000Y-51725000D03*
X51100000Y-42475000D03*
X37100000Y-61850000D03*
X44100000Y-48725000D03*
X15850000Y-25975000D03*
X39350000Y-65474999D03*
%TO.N,GND_MODEM*%
X16475000Y-73975000D03*
X65349999Y-17225000D03*
X38350000Y-54725000D03*
X20100000Y-27975000D03*
X15350000Y-15725000D03*
X61850000Y-17225000D03*
X62975000Y-17225000D03*
X15725000Y-40975000D03*
X71725000Y-11975000D03*
X19350000Y-36225000D03*
X25600000Y-39975000D03*
X23100000Y-47100000D03*
X18100000Y-57225000D03*
X35475000Y-12975000D03*
X16350000Y-33600000D03*
X8975000Y-50850000D03*
X19975000Y-17225000D03*
X15725000Y-4600000D03*
X20475000Y-59600000D03*
X20975000Y-39975000D03*
X25600000Y-35725000D03*
X19225000Y-29975000D03*
X38850000Y-57350000D03*
X28725000Y-4600000D03*
X60850000Y-14975000D03*
X14850000Y-32975000D03*
X25600000Y-34975000D03*
X30975000Y-56225000D03*
X11350000Y-40975000D03*
X11100000Y-46975000D03*
X17100000Y-17225000D03*
X21725000Y-17225000D03*
X15725000Y-33475000D03*
X20225000Y-19475000D03*
X42225000Y-64974999D03*
X31850000Y-15725000D03*
X39100000Y-57975000D03*
X15600000Y-29475000D03*
X19850000Y-39975000D03*
X25600000Y-58850000D03*
X21225000Y-67475000D03*
X7100000Y-51725000D03*
X18850000Y-17225000D03*
X26475000Y-19725000D03*
X31975000Y-62975000D03*
X34850000Y-16975000D03*
X7850000Y-52475000D03*
X31975000Y-40975000D03*
X39600000Y-30850000D03*
X71725000Y-4600000D03*
X34350000Y-27725000D03*
X31725000Y-19725000D03*
X24850000Y-47100000D03*
X11350000Y-42225000D03*
X22350000Y-35725000D03*
X21100000Y-37100000D03*
X11100000Y-53225000D03*
X11100000Y-54475000D03*
X26850000Y-37100000D03*
X17850000Y-14975000D03*
X17600000Y-39975000D03*
X22350000Y-58850000D03*
X56225000Y-29100000D03*
X24850000Y-43350000D03*
X11100000Y-49475000D03*
X27600000Y-59600000D03*
X22600000Y-68725000D03*
X15850000Y-36225000D03*
X22350000Y-32475000D03*
X23100000Y-56975000D03*
X17600000Y-30225000D03*
X30975000Y-54600000D03*
X16475000Y-68975000D03*
X18850000Y-55350000D03*
X11100000Y-55725000D03*
X58725000Y-4600000D03*
X20475000Y-44350000D03*
X32100000Y-43350000D03*
X32100000Y-44475000D03*
X39850000Y-64849999D03*
X27600000Y-44350000D03*
X31350000Y-34475000D03*
X20475000Y-46100000D03*
X23100000Y-43350000D03*
X38975000Y-53350000D03*
X24850000Y-56975000D03*
X15850000Y-44725000D03*
X19350000Y-33475000D03*
X26725000Y-39975000D03*
X11100000Y-48225000D03*
X58350000Y-15725000D03*
X25600000Y-30475000D03*
X20475000Y-57975000D03*
X23725000Y-68725000D03*
X60100000Y-17225000D03*
%TO.N,NOR_CLK_U1*%
X51975000Y-38850000D03*
X52975000Y-17975000D03*
%TO.N,NOR_CLK_U2*%
X64474999Y-22100000D03*
X79100000Y-27100000D03*
%TO.N,NOR_IO0_U1*%
X52950000Y-36450000D03*
X52975000Y-35850000D03*
X57600000Y-20100000D03*
X58700000Y-21700000D03*
%TO.N,NOR_IO0_U2*%
X75100000Y-24100000D03*
X59850000Y-21225000D03*
%TO.N,NOR_IO1_U1*%
X41475000Y-24600000D03*
X53475000Y-38850000D03*
%TO.N,NOR_IO1_U2*%
X43100000Y-24600000D03*
X69850000Y-35975000D03*
X52350000Y-33850000D03*
%TO.N,NOR_IO2_U1*%
X53975000Y-35850000D03*
X53950000Y-36450000D03*
X55950000Y-18700000D03*
X55350000Y-19475000D03*
%TO.N,NOR_IO2_U2*%
X61975000Y-22100000D03*
X78850000Y-35975000D03*
%TO.N,NOR_IO3_U1*%
X39475000Y-28475000D03*
X54725000Y-36600000D03*
%TO.N,NOR_IO3_U2*%
X69975000Y-27725000D03*
X41475000Y-27850000D03*
X54600000Y-27850000D03*
%TO.N,SD_D2_U1*%
X57200000Y-23700000D03*
X89200000Y-21700000D03*
%TO.N,GND_DIGITAL*%
X57750000Y-52550000D03*
%TO.N,CELL_USB_DP_TP*%
X8200000Y-50150000D03*
%TO.N,CELL_USB_DM_TP*%
X8700000Y-52640569D03*
%TD*%
D15*
%TO.N,EN_MODEM*%
X46450000Y-23950000D02*
X52200000Y-23950000D01*
X12200000Y-23200000D02*
X45700000Y-23200000D01*
X11950000Y-23450000D02*
X12200000Y-23200000D01*
X45700000Y-23200000D02*
X46450000Y-23950000D01*
%TO.N,NOR_IO0_U1*%
X57600000Y-20100000D02*
X52975000Y-24725000D01*
X58200000Y-22200000D02*
X57950000Y-22200000D01*
X52950000Y-26950000D02*
X52950000Y-36450000D01*
X57200000Y-22950000D02*
X56950000Y-22950000D01*
X52975000Y-24725000D02*
X52975000Y-35850000D01*
X58700000Y-21700000D02*
X58200000Y-22200000D01*
X56950000Y-22950000D02*
X52950000Y-26950000D01*
X57950000Y-22200000D02*
X57200000Y-22950000D01*
%TO.N,NOR_IO1_U1*%
X53475000Y-37975000D02*
X53475000Y-38850000D01*
X45975000Y-28225000D02*
X51725000Y-33975000D01*
X42475000Y-25600000D02*
X42475000Y-26225000D01*
X43475000Y-26475000D02*
X44850000Y-27850000D01*
X44850000Y-27850000D02*
X45725000Y-27850000D01*
X45725000Y-27850000D02*
X45725000Y-27975000D01*
X45850000Y-27975000D02*
X45850000Y-28100000D01*
X45725000Y-27975000D02*
X45850000Y-27975000D01*
X42475000Y-26225000D02*
X42725000Y-26475000D01*
X41475000Y-24600000D02*
X42475000Y-25600000D01*
X52350000Y-34850000D02*
X52350000Y-36850000D01*
X42725000Y-26475000D02*
X43475000Y-26475000D01*
X45975000Y-28100000D02*
X45975000Y-28225000D01*
X51725000Y-34225000D02*
X52350000Y-34850000D01*
X52350000Y-36850000D02*
X53475000Y-37975000D01*
X45850000Y-28100000D02*
X45975000Y-28100000D01*
X51725000Y-33975000D02*
X51725000Y-34225000D01*
%TO.N,NOR_IO1_U2*%
X43100000Y-24600000D02*
X52350000Y-33850000D01*
%TO.N,NOR_IO3_U2*%
X69850000Y-27850000D02*
X54600000Y-27850000D01*
X69975000Y-27725000D02*
X69850000Y-27850000D01*
%TO.N,SD_D2_U1*%
X88700000Y-22200000D02*
X79200000Y-22200000D01*
X79200000Y-22200000D02*
X78700000Y-22700000D01*
X89200000Y-21700000D02*
X88700000Y-22200000D01*
X58200000Y-22700000D02*
X57200000Y-23700000D01*
X78700000Y-22700000D02*
X58200000Y-22700000D01*
%TD*%
D16*
X49200000Y-21200000D03*
X61700000Y-30700000D03*
X52200000Y-23950000D03*
X78225000Y-22100000D03*
X67475000Y-61475000D03*
X62725000Y-24350000D03*
X104975000Y-19850000D03*
X43100000Y-32100000D03*
X62850000Y-35975000D03*
X61475000Y-54725000D03*
X82475000Y-62725000D03*
X94850000Y-4225000D03*
X74475000Y-68975000D03*
X45350000Y-8725000D03*
X62100000Y-32225000D03*
X66224999Y-34850000D03*
X67850000Y-27225000D03*
X58725000Y-53225000D03*
X41350000Y-9725000D03*
X104600000Y-31350000D03*
X65974999Y-67475000D03*
X64224999Y-50725000D03*
X61350000Y-42975000D03*
X42975000Y-29225000D03*
X41100000Y-12725000D03*
X55850000Y-20100000D03*
X57600000Y-68975000D03*
X43100000Y-27100000D03*
X57850000Y-40225000D03*
X81225000Y-19850000D03*
X68100000Y-67975000D03*
X48225000Y-62725000D03*
X44100000Y-12725000D03*
X107100000Y-28725000D03*
X67475000Y-46975000D03*
X16600000Y-27475000D03*
X58725000Y-37725000D03*
X46975000Y-23350000D03*
X95100000Y-29725000D03*
X90725000Y-32975000D03*
X45350000Y-37725000D03*
X64474999Y-53100000D03*
X52475000Y-47725000D03*
X56975000Y-38850000D03*
X61725000Y-29475000D03*
X62600000Y-49600000D03*
X85100000Y-17350000D03*
X48100000Y-19975000D03*
X103100000Y-17975000D03*
X48350000Y-57975000D03*
X47350000Y-18725000D03*
X82475000Y-48225000D03*
X92600000Y-23850000D03*
X83850000Y-54975000D03*
X84225000Y-20975000D03*
X37850000Y-8725000D03*
X64599999Y-30975000D03*
X80475000Y-54600000D03*
X69350000Y-26225000D03*
X43350000Y-8725000D03*
X74475000Y-73975000D03*
X42350000Y-21975000D03*
X86850000Y-20850000D03*
X82475000Y-63975000D03*
X60850000Y-24475000D03*
X90600000Y-7600000D03*
X91850000Y-20475000D03*
X68100000Y-38475000D03*
X61350000Y-48225000D03*
X60100000Y-61975000D03*
X81600000Y-3225000D03*
X55725000Y-51850000D03*
X55600000Y-44225000D03*
X65974999Y-66724999D03*
X43100000Y-34600000D03*
X61350000Y-47475000D03*
X66099999Y-30600000D03*
X67475000Y-63975000D03*
X69350000Y-28975000D03*
X81850000Y-21225000D03*
X38225000Y-8225000D03*
X61600000Y-61850000D03*
X53100000Y-43475000D03*
X64224999Y-54975000D03*
X42600000Y-27725000D03*
X62850000Y-33475000D03*
X65849999Y-41725000D03*
X93100000Y-17350000D03*
X56850000Y-49600000D03*
X94100000Y-20475000D03*
X84350000Y-49475000D03*
X95100000Y-40725000D03*
X45350000Y-32975000D03*
X79350000Y-35350000D03*
X103350000Y-13475000D03*
X60850000Y-53475000D03*
X58100000Y-48225000D03*
X45350000Y-28475000D03*
X103600000Y-28475000D03*
X45850000Y-8225000D03*
X62500000Y-26750000D03*
X67475000Y-31225000D03*
X81475000Y-46100000D03*
X53975000Y-65474999D03*
X59850000Y-56975000D03*
X39600000Y-11475000D03*
X89225000Y-37225000D03*
X59100000Y-65474999D03*
X67225000Y-35225000D03*
X60975000Y-30725000D03*
X62850000Y-25225000D03*
X42600000Y-11475000D03*
X63850000Y-40225000D03*
X82100000Y-23475000D03*
X43100000Y-33350000D03*
X60350000Y-63850000D03*
X49600000Y-64974999D03*
X105475000Y-40600000D03*
X89225000Y-20975000D03*
X31975000Y-23850000D03*
X83850000Y-53725000D03*
X43100000Y-25850000D03*
X67850000Y-28475000D03*
X45100000Y-11475000D03*
X83850000Y-50975000D03*
X63350000Y-37725000D03*
X46100000Y-19975000D03*
X80475000Y-55850000D03*
X51975000Y-46100000D03*
X105475000Y-31225000D03*
X66724999Y-31975000D03*
X69850000Y-29975000D03*
X43350000Y-37725000D03*
X53975000Y-70475000D03*
X81475000Y-60600000D03*
X62850000Y-34725000D03*
X86600000Y-33725000D03*
X43100000Y-35850000D03*
X7350000Y-40850000D03*
X102725000Y-55600000D03*
X8850000Y-43225000D03*
X99600000Y-53850000D03*
X89850000Y-65974999D03*
X39475000Y-61975000D03*
X37100000Y-67725000D03*
X7600000Y-38350000D03*
X101975000Y-53975000D03*
X93225000Y-65224999D03*
X48600000Y-44725000D03*
X48600000Y-45350000D03*
X90850000Y-65099999D03*
X89100000Y-67725000D03*
X9725000Y-38475000D03*
X101100000Y-51725000D03*
X51100000Y-42475000D03*
X37100000Y-61850000D03*
X44100000Y-48725000D03*
X15850000Y-25975000D03*
X39350000Y-65474999D03*
X16475000Y-73975000D03*
X65349999Y-17225000D03*
X38350000Y-54725000D03*
X20100000Y-27975000D03*
X15350000Y-15725000D03*
X61850000Y-17225000D03*
X62975000Y-17225000D03*
X15725000Y-40975000D03*
X71725000Y-11975000D03*
X19350000Y-36225000D03*
X25600000Y-39975000D03*
X23100000Y-47100000D03*
X18100000Y-57225000D03*
X35475000Y-12975000D03*
X16350000Y-33600000D03*
X8975000Y-50850000D03*
X19975000Y-17225000D03*
X15725000Y-4600000D03*
X20475000Y-59600000D03*
X20975000Y-39975000D03*
X25600000Y-35725000D03*
X19225000Y-29975000D03*
X38850000Y-57350000D03*
X28725000Y-4600000D03*
X60850000Y-14975000D03*
X14850000Y-32975000D03*
X25600000Y-34975000D03*
X30975000Y-56225000D03*
X11350000Y-40975000D03*
X11100000Y-46975000D03*
X17100000Y-17225000D03*
X21725000Y-17225000D03*
X15725000Y-33475000D03*
X20225000Y-19475000D03*
X42225000Y-64974999D03*
X31850000Y-15725000D03*
X39100000Y-57975000D03*
X15600000Y-29475000D03*
X19850000Y-39975000D03*
X25600000Y-58850000D03*
X21225000Y-67475000D03*
X7100000Y-51725000D03*
X18850000Y-17225000D03*
X26475000Y-19725000D03*
X31975000Y-62975000D03*
X34850000Y-16975000D03*
X7850000Y-52475000D03*
X31975000Y-40975000D03*
X39600000Y-30850000D03*
X71725000Y-4600000D03*
X34350000Y-27725000D03*
X31725000Y-19725000D03*
X24850000Y-47100000D03*
X11350000Y-42225000D03*
X22350000Y-35725000D03*
X21100000Y-37100000D03*
X11100000Y-53225000D03*
X11100000Y-54475000D03*
X26850000Y-37100000D03*
X17850000Y-14975000D03*
X17600000Y-39975000D03*
X22350000Y-58850000D03*
X56225000Y-29100000D03*
X24850000Y-43350000D03*
X11100000Y-49475000D03*
X27600000Y-59600000D03*
X22600000Y-68725000D03*
X15850000Y-36225000D03*
X22350000Y-32475000D03*
X23100000Y-56975000D03*
X17600000Y-30225000D03*
X30975000Y-54600000D03*
X16475000Y-68975000D03*
X18850000Y-55350000D03*
X11100000Y-55725000D03*
X58725000Y-4600000D03*
X20475000Y-44350000D03*
X32100000Y-43350000D03*
X32100000Y-44475000D03*
X39850000Y-64849999D03*
X27600000Y-44350000D03*
X31350000Y-34475000D03*
X20475000Y-46100000D03*
X23100000Y-43350000D03*
X38975000Y-53350000D03*
X24850000Y-56975000D03*
X15850000Y-44725000D03*
X19350000Y-33475000D03*
X26725000Y-39975000D03*
X11100000Y-48225000D03*
X58350000Y-15725000D03*
X25600000Y-30475000D03*
X20475000Y-57975000D03*
X23725000Y-68725000D03*
X60100000Y-17225000D03*
X51975000Y-38850000D03*
X52975000Y-17975000D03*
X64474999Y-22100000D03*
X79100000Y-27100000D03*
X52950000Y-36450000D03*
X52975000Y-35850000D03*
X57600000Y-20100000D03*
X58700000Y-21700000D03*
X75100000Y-24100000D03*
X59850000Y-21225000D03*
X41475000Y-24600000D03*
X53475000Y-38850000D03*
X43100000Y-24600000D03*
X69850000Y-35975000D03*
X52350000Y-33850000D03*
X53975000Y-35850000D03*
X53950000Y-36450000D03*
X55950000Y-18700000D03*
X55350000Y-19475000D03*
X61975000Y-22100000D03*
X78850000Y-35975000D03*
X39475000Y-28475000D03*
X54725000Y-36600000D03*
X69975000Y-27725000D03*
X41475000Y-27850000D03*
X54600000Y-27850000D03*
X57200000Y-23700000D03*
X89200000Y-21700000D03*
X57750000Y-52550000D03*
X8200000Y-50150000D03*
X8700000Y-52640569D03*
D17*
X44890000Y-6280000D03*
X39110000Y-6280000D03*
D18*
X46320000Y-6780000D03*
D19*
X46320000Y-2600000D03*
D18*
X37680000Y-6780000D03*
D19*
X37680000Y-2600000D03*
D17*
X8000000Y-5000000D03*
X105000000Y-70000000D03*
X5000000Y-70000000D03*
X4600000Y-27350000D03*
X4600000Y-16650000D03*
X8920000Y-29500000D03*
X8920000Y-26500000D03*
X8920000Y-23500000D03*
X8920000Y-20500000D03*
X8920000Y-17500000D03*
X8920000Y-14500000D03*
X11920000Y-29500000D03*
X11920000Y-26500000D03*
X11920000Y-23500000D03*
X11920000Y-20500000D03*
X11920000Y-17500000D03*
X11920000Y-14500000D03*
X23540000Y-11000000D03*
X23540000Y-4560000D03*
X21000000Y-11000000D03*
X21000000Y-4560000D03*
X18460000Y-11000000D03*
X18460000Y-4560000D03*
X105000000Y-5000000D03*
X66540000Y-11000000D03*
X66540000Y-4560000D03*
X64000000Y-11000000D03*
X64000000Y-4560000D03*
X61460000Y-11000000D03*
X61460000Y-4560000D03*
M02*
