%TF.GenerationSoftware,KiCad,Pcbnew,9.0.9*%
%TF.CreationDate,2026-09-24T12:47:35+00:00*%
%TF.ProjectId,PCB-MAIN,5043422d-4d41-4494-9e2e-6b696361645f,rev?*%
%TF.SameCoordinates,Original*%
%TF.FileFunction,Copper,L1,Top*%
%TF.FilePolarity,Positive*%
%FSLAX46Y46*%
G04 Gerber Fmt 4.6, Leading zero omitted, Abs format (unit mm)*
G04 Created by KiCad (PCBNEW 9.0.9) date 2026-09-24 12:47:35*
%MOMM*%
%LPD*%
G01*
G04 APERTURE LIST*
G04 Aperture macros list*
%AMRoundRect*
0 Rectangle with rounded corners*
0 $1 Rounding radius*
0 $2 $3 $4 $5 $6 $7 $8 $9 X,Y pos of 4 corners*
0 Add a 4 corners polygon primitive as box body*
4,1,4,$2,$3,$4,$5,$6,$7,$8,$9,$2,$3,0*
0 Add four circle primitives for the rounded corners*
1,1,$1+$1,$2,$3*
1,1,$1+$1,$4,$5*
1,1,$1+$1,$6,$7*
1,1,$1+$1,$8,$9*
0 Add four rect primitives between the rounded corners*
20,1,$1+$1,$2,$3,$4,$5,0*
20,1,$1+$1,$4,$5,$6,$7,0*
20,1,$1+$1,$6,$7,$8,$9,0*
20,1,$1+$1,$8,$9,$2,$3,0*%
G04 Aperture macros list end*
%TA.AperFunction,SMDPad,CuDef*%
%ADD10RoundRect,0.090000X0.135000X0.160000X-0.135000X0.160000X-0.135000X-0.160000X0.135000X-0.160000X0*%
%TD*%
%TA.AperFunction,SMDPad,CuDef*%
%ADD11R,0.400000X0.600000*%
%TD*%
%TA.AperFunction,SMDPad,CuDef*%
%ADD12R,0.600000X0.400000*%
%TD*%
%TA.AperFunction,SMDPad,CuDef*%
%ADD13R,0.700000X0.600000*%
%TD*%
%TA.AperFunction,SMDPad,CuDef*%
%ADD14RoundRect,0.090000X-0.135000X-0.160000X0.135000X-0.160000X0.135000X0.160000X-0.135000X0.160000X0*%
%TD*%
%TA.AperFunction,SMDPad,CuDef*%
%ADD15R,1.800000X1.250000*%
%TD*%
%TA.AperFunction,SMDPad,CuDef*%
%ADD16R,1.000000X0.600000*%
%TD*%
%TA.AperFunction,SMDPad,CuDef*%
%ADD17RoundRect,0.120000X0.380000X-0.180000X0.380000X0.180000X-0.380000X0.180000X-0.380000X-0.180000X0*%
%TD*%
%TA.AperFunction,SMDPad,CuDef*%
%ADD18RoundRect,0.140000X-0.210000X-0.260000X0.210000X-0.260000X0.210000X0.260000X-0.210000X0.260000X0*%
%TD*%
%TA.AperFunction,SMDPad,CuDef*%
%ADD19RoundRect,0.100000X-0.182500X-0.000010X0.182500X-0.000010X0.182500X0.000010X-0.182500X0.000010X0*%
%TD*%
%TA.AperFunction,SMDPad,CuDef*%
%ADD20RoundRect,0.100000X-0.182500X-0.100000X0.182500X-0.100000X0.182500X0.100000X-0.182500X0.100000X0*%
%TD*%
%TA.AperFunction,SMDPad,CuDef*%
%ADD21RoundRect,0.200000X-0.300000X-0.400000X0.300000X-0.400000X0.300000X0.400000X-0.300000X0.400000X0*%
%TD*%
%TA.AperFunction,SMDPad,CuDef*%
%ADD22R,1.200000X0.300000*%
%TD*%
%TA.AperFunction,SMDPad,CuDef*%
%ADD23R,0.300000X1.200000*%
%TD*%
%TA.AperFunction,SMDPad,CuDef*%
%ADD24R,2.370000X2.430000*%
%TD*%
%TA.AperFunction,SMDPad,CuDef*%
%ADD25RoundRect,0.150000X0.150000X0.425000X-0.150000X0.425000X-0.150000X-0.425000X0.150000X-0.425000X0*%
%TD*%
%TA.AperFunction,SMDPad,CuDef*%
%ADD26RoundRect,0.075000X0.075000X0.500000X-0.075000X0.500000X-0.075000X-0.500000X0.075000X-0.500000X0*%
%TD*%
%TA.AperFunction,ComponentPad*%
%ADD27O,1.000000X2.100000*%
%TD*%
%TA.AperFunction,ComponentPad*%
%ADD28O,1.000000X1.800000*%
%TD*%
%TA.AperFunction,SMDPad,CuDef*%
%ADD29RoundRect,0.250000X0.650000X-0.375000X0.650000X0.375000X-0.650000X0.375000X-0.650000X-0.375000X0*%
%TD*%
%TA.AperFunction,SMDPad,CuDef*%
%ADD30RoundRect,0.150000X0.350000X-0.150000X0.350000X0.150000X-0.350000X0.150000X-0.350000X-0.150000X0*%
%TD*%
%TA.AperFunction,SMDPad,CuDef*%
%ADD31RoundRect,0.100000X-0.235000X-0.100000X0.235000X-0.100000X0.235000X0.100000X-0.235000X0.100000X0*%
%TD*%
%TA.AperFunction,SMDPad,CuDef*%
%ADD32RoundRect,0.050000X-0.700000X-0.175000X0.700000X-0.175000X0.700000X0.175000X-0.700000X0.175000X0*%
%TD*%
%TA.AperFunction,SMDPad,CuDef*%
%ADD33R,0.300000X0.250000*%
%TD*%
%TA.AperFunction,SMDPad,CuDef*%
%ADD34R,0.256000X0.200000*%
%TD*%
%TA.AperFunction,SMDPad,CuDef*%
%ADD35RoundRect,0.050000X-0.078000X-0.050000X0.078000X-0.050000X0.078000X0.050000X-0.078000X0.050000X0*%
%TD*%
%TA.AperFunction,SMDPad,CuDef*%
%ADD36R,0.700000X1.800000*%
%TD*%
%TA.AperFunction,SMDPad,CuDef*%
%ADD37R,0.800000X1.800000*%
%TD*%
%TA.AperFunction,SMDPad,CuDef*%
%ADD38RoundRect,0.150000X-0.875000X-0.150000X0.875000X-0.150000X0.875000X0.150000X-0.875000X0.150000X0*%
%TD*%
%TA.AperFunction,SMDPad,CuDef*%
%ADD39R,0.375000X0.350000*%
%TD*%
%TA.AperFunction,SMDPad,CuDef*%
%ADD40R,0.350000X0.375000*%
%TD*%
%TA.AperFunction,SMDPad,CuDef*%
%ADD41R,0.900000X0.800000*%
%TD*%
%TA.AperFunction,SMDPad,CuDef*%
%ADD42RoundRect,0.280000X0.420000X0.920000X-0.420000X0.920000X-0.420000X-0.920000X0.420000X-0.920000X0*%
%TD*%
%TA.AperFunction,SMDPad,CuDef*%
%ADD43RoundRect,0.090000X0.160000X-0.135000X0.160000X0.135000X-0.160000X0.135000X-0.160000X-0.135000X0*%
%TD*%
%TA.AperFunction,SMDPad,CuDef*%
%ADD44RoundRect,0.100000X0.100000X-0.235000X0.100000X0.235000X-0.100000X0.235000X-0.100000X-0.235000X0*%
%TD*%
%TA.AperFunction,SMDPad,CuDef*%
%ADD45R,0.800000X1.500000*%
%TD*%
%TA.AperFunction,SMDPad,CuDef*%
%ADD46RoundRect,0.160000X0.240000X0.590000X-0.240000X0.590000X-0.240000X-0.590000X0.240000X-0.590000X0*%
%TD*%
%TA.AperFunction,SMDPad,CuDef*%
%ADD47R,1.000000X1.040000*%
%TD*%
%TA.AperFunction,SMDPad,CuDef*%
%ADD48R,1.400000X1.900000*%
%TD*%
%TA.AperFunction,SMDPad,CuDef*%
%ADD49R,1.200000X1.400000*%
%TD*%
%TA.AperFunction,SMDPad,CuDef*%
%ADD50R,1.300000X1.400000*%
%TD*%
%TA.AperFunction,SMDPad,CuDef*%
%ADD51RoundRect,0.140000X0.210000X0.260000X-0.210000X0.260000X-0.210000X-0.260000X0.210000X-0.260000X0*%
%TD*%
%TA.AperFunction,SMDPad,CuDef*%
%ADD52R,1.100000X0.700000*%
%TD*%
%TA.AperFunction,SMDPad,CuDef*%
%ADD53RoundRect,0.140000X-0.410000X-0.210000X0.410000X-0.210000X0.410000X0.210000X-0.410000X0.210000X0*%
%TD*%
%TA.AperFunction,SMDPad,CuDef*%
%ADD54RoundRect,0.140000X-0.210000X-0.410000X0.210000X-0.410000X0.210000X0.410000X-0.210000X0.410000X0*%
%TD*%
%TA.AperFunction,SMDPad,CuDef*%
%ADD55RoundRect,0.200000X-0.300000X-0.300000X0.300000X-0.300000X0.300000X0.300000X-0.300000X0.300000X0*%
%TD*%
%TA.AperFunction,SMDPad,CuDef*%
%ADD56RoundRect,0.250000X-0.375000X-0.650000X0.375000X-0.650000X0.375000X0.650000X-0.375000X0.650000X0*%
%TD*%
%TA.AperFunction,SMDPad,CuDef*%
%ADD57RoundRect,0.150000X-0.150000X-0.350000X0.150000X-0.350000X0.150000X0.350000X-0.150000X0.350000X0*%
%TD*%
%TA.AperFunction,SMDPad,CuDef*%
%ADD58R,1.050000X1.000000*%
%TD*%
%TA.AperFunction,SMDPad,CuDef*%
%ADD59R,2.200000X1.050000*%
%TD*%
%TA.AperFunction,ComponentPad*%
%ADD60RoundRect,0.300000X0.450000X-0.450000X0.450000X0.450000X-0.450000X0.450000X-0.450000X-0.450000X0*%
%TD*%
%TA.AperFunction,ComponentPad*%
%ADD61C,1.500000*%
%TD*%
%TA.AperFunction,SMDPad,CuDef*%
%ADD62RoundRect,0.100000X-0.100000X-0.250000X0.100000X-0.250000X0.100000X0.250000X-0.100000X0.250000X0*%
%TD*%
%TA.AperFunction,SMDPad,CuDef*%
%ADD63RoundRect,0.280000X-0.420000X-0.520000X0.420000X-0.520000X0.420000X0.520000X-0.420000X0.520000X0*%
%TD*%
%TA.AperFunction,SMDPad,CuDef*%
%ADD64RoundRect,0.100000X-0.235000X-0.050000X0.235000X-0.050000X0.235000X0.050000X-0.235000X0.050000X0*%
%TD*%
%TA.AperFunction,SMDPad,CuDef*%
%ADD65R,0.990000X0.300000*%
%TD*%
%TA.AperFunction,SMDPad,CuDef*%
%ADD66R,0.270000X0.700000*%
%TD*%
%TA.AperFunction,SMDPad,CuDef*%
%ADD67RoundRect,0.054000X-0.081000X-0.296000X0.081000X-0.296000X0.081000X0.296000X-0.081000X0.296000X0*%
%TD*%
%TA.AperFunction,SMDPad,CuDef*%
%ADD68R,1.450000X0.650000*%
%TD*%
%TA.AperFunction,SMDPad,CuDef*%
%ADD69RoundRect,0.100000X-0.450000X-0.200000X0.450000X-0.200000X0.450000X0.200000X-0.450000X0.200000X0*%
%TD*%
%TA.AperFunction,SMDPad,CuDef*%
%ADD70R,0.478000X0.300000*%
%TD*%
%TA.AperFunction,SMDPad,CuDef*%
%ADD71R,0.800000X1.140000*%
%TD*%
%TA.AperFunction,SMDPad,CuDef*%
%ADD72R,0.950000X2.050000*%
%TD*%
%TA.AperFunction,SMDPad,CuDef*%
%ADD73R,1.500000X2.100000*%
%TD*%
%TA.AperFunction,SMDPad,CuDef*%
%ADD74C,0.250000*%
%TD*%
%TA.AperFunction,SMDPad,CuDef*%
%ADD75RoundRect,0.075000X-0.075000X0.075000X-0.075000X-0.075000X0.075000X-0.075000X0.075000X0.075000X0*%
%TD*%
%TA.AperFunction,SMDPad,CuDef*%
%ADD76R,0.250000X0.700000*%
%TD*%
%TA.AperFunction,SMDPad,CuDef*%
%ADD77RoundRect,0.050000X-0.075000X-0.300000X0.075000X-0.300000X0.075000X0.300000X-0.075000X0.300000X0*%
%TD*%
%TA.AperFunction,SMDPad,CuDef*%
%ADD78R,1.350000X1.650000*%
%TD*%
%TA.AperFunction,SMDPad,CuDef*%
%ADD79RoundRect,0.250000X-0.650000X0.375000X-0.650000X-0.375000X0.650000X-0.375000X0.650000X0.375000X0*%
%TD*%
%TA.AperFunction,SMDPad,CuDef*%
%ADD80RoundRect,0.150000X-0.350000X0.150000X-0.350000X-0.150000X0.350000X-0.150000X0.350000X0.150000X0*%
%TD*%
%TA.AperFunction,SMDPad,CuDef*%
%ADD81RoundRect,0.075000X0.075000X0.075000X-0.075000X0.075000X-0.075000X-0.075000X0.075000X-0.075000X0*%
%TD*%
%TA.AperFunction,ViaPad*%
%ADD82C,0.500000*%
%TD*%
%TA.AperFunction,Conductor*%
%ADD83C,0.150000*%
%TD*%
%TA.AperFunction,Conductor*%
%ADD84C,0.150900*%
%TD*%
%TA.AperFunction,Conductor*%
%ADD85C,0.153700*%
%TD*%
%ADD86C,0.300000*%
%ADD87C,0.350000*%
%ADD88O,0.600000X1.700000*%
%ADD89O,0.600000X1.400000*%
G04 APERTURE END LIST*
D10*
%TO.P,R69,1*%
%TO.N,LORA_NSS_U1*%
X40825000Y-27250000D03*
%TO.P,R69,2*%
%TO.N,LORA_NSS_U10*%
X40175000Y-27250000D03*
%TD*%
D11*
%TO.P,U11,1*%
%TO.N,GND_DIGITAL*%
X106000000Y-30600000D03*
%TO.P,U11,2*%
X104900000Y-30600000D03*
%TO.P,U11,3*%
%TO.N,N/C*%
X104100000Y-30600000D03*
%TO.P,U11,4*%
X102500000Y-30600000D03*
%TO.P,U11,5*%
X102100000Y-31500000D03*
%TO.P,U11,6*%
X101700000Y-30600000D03*
%TO.P,U11,7*%
X101300000Y-31500000D03*
%TO.P,U11,8*%
X100900000Y-30600000D03*
%TO.P,U11,9*%
X100500000Y-31500000D03*
%TO.P,U11,10*%
X100100000Y-30600000D03*
%TO.P,U11,11*%
X99700000Y-31500000D03*
%TO.P,U11,12*%
X99300000Y-30600000D03*
%TO.P,U11,13*%
X98900000Y-31500000D03*
%TO.P,U11,14*%
X98500000Y-30600000D03*
D12*
%TO.P,U11,15*%
%TO.N,GND_DIGITAL*%
X95100000Y-30450000D03*
%TO.P,U11,16*%
%TO.N,N/C*%
X95100000Y-31250000D03*
%TO.P,U11,17*%
X95100000Y-32050000D03*
%TO.P,U11,18*%
X95100000Y-32850000D03*
%TO.P,U11,19*%
X96000000Y-33250000D03*
%TO.P,U11,20*%
X95100000Y-33650000D03*
%TO.P,U11,21*%
X96000000Y-34050000D03*
%TO.P,U11,22*%
%TO.N,BLE_RX_U11*%
X95100000Y-34450000D03*
%TO.P,U11,23*%
%TO.N,N/C*%
X96000000Y-34850000D03*
%TO.P,U11,24*%
%TO.N,BLE_TX_U11*%
X95100000Y-35250000D03*
%TO.P,U11,25*%
%TO.N,N/C*%
X96000000Y-35650000D03*
%TO.P,U11,26*%
X95100000Y-36050000D03*
%TO.P,U11,27*%
X96000000Y-36450000D03*
%TO.P,U11,28*%
%TO.N,3V3_DIGITAL*%
X95100000Y-36850000D03*
%TO.P,U11,29*%
%TO.N,N/C*%
X96000000Y-37250000D03*
%TO.P,U11,30*%
%TO.N,3V3_DIGITAL*%
X95100000Y-37650000D03*
%TO.P,U11,31*%
%TO.N,N/C*%
X95100000Y-38450000D03*
%TO.P,U11,32*%
X95100000Y-39250000D03*
%TO.P,U11,33*%
%TO.N,GND_DIGITAL*%
X95100000Y-40050000D03*
D11*
%TO.P,U11,34*%
%TO.N,N/C*%
X96100000Y-39900000D03*
%TO.P,U11,35*%
X96900000Y-39900000D03*
%TO.P,U11,36*%
X97300000Y-39000000D03*
%TO.P,U11,37*%
X97700000Y-39900000D03*
%TO.P,U11,38*%
X98100000Y-39000000D03*
%TO.P,U11,39*%
%TO.N,BLE_DFU_REQ*%
X98500000Y-39900000D03*
%TO.P,U11,40*%
%TO.N,NRF_RESET_N*%
X98900000Y-39000000D03*
%TO.P,U11,41*%
%TO.N,N/C*%
X99300000Y-39900000D03*
%TO.P,U11,42*%
X99700000Y-39000000D03*
%TO.P,U11,43*%
X100500000Y-39000000D03*
%TO.P,U11,44*%
X100900000Y-39900000D03*
%TO.P,U11,45*%
X101300000Y-39000000D03*
%TO.P,U11,46*%
X101700000Y-39900000D03*
%TO.P,U11,47*%
X102100000Y-39000000D03*
%TO.P,U11,48*%
X102500000Y-39900000D03*
%TO.P,U11,49*%
X102900000Y-39000000D03*
%TO.P,U11,50*%
X103700000Y-39000000D03*
%TO.P,U11,51*%
%TO.N,NRF_SWDIO*%
X104100000Y-39900000D03*
%TO.P,U11,52*%
%TO.N,N/C*%
X104500000Y-39000000D03*
%TO.P,U11,53*%
%TO.N,NRF_SWCLK*%
X104900000Y-39900000D03*
%TO.P,U11,54*%
%TO.N,N/C*%
X105300000Y-39000000D03*
%TO.P,U11,55*%
%TO.N,GND_DIGITAL*%
X106000000Y-39900000D03*
D12*
%TO.P,U11,56*%
%TO.N,N/C*%
X101700000Y-33250000D03*
%TO.P,U11,57*%
X101700000Y-34050000D03*
%TO.P,U11,58*%
X101700000Y-34850000D03*
%TO.P,U11,59*%
X101700000Y-35650000D03*
%TO.P,U11,60*%
X101700000Y-36450000D03*
%TO.P,U11,61*%
X101700000Y-37250000D03*
%TD*%
D13*
%TO.P,Q1,1*%
%TO.N,Q1_BASE*%
X14000000Y-31050000D03*
%TO.P,Q1,2*%
%TO.N,GND_MODEM*%
X14000000Y-32950000D03*
%TO.P,Q1,3*%
%TO.N,U8_PWRKEY_N*%
X16000000Y-32000000D03*
%TD*%
D14*
%TO.P,R88,1*%
%TO.N,3V3_DIGITAL*%
X89675000Y-24250000D03*
%TO.P,R88,2*%
%TO.N,SD_D2_CARD*%
X90325000Y-24250000D03*
%TD*%
D15*
%TO.P,J13,*%
%TO.N,*%
X108600000Y-18355000D03*
X108600000Y-11645000D03*
D16*
%TO.P,J13,1*%
%TO.N,TAMPER_IN_CONN*%
X103410000Y-15750000D03*
D17*
%TO.P,J13,2*%
%TO.N,GND_DIGITAL*%
X103410000Y-14250000D03*
%TD*%
D10*
%TO.P,R102,1*%
%TO.N,TEST_UART_RX_TP*%
X38825000Y-33000000D03*
%TO.P,R102,2*%
%TO.N,TEST_UART_RX_U1*%
X38175000Y-33000000D03*
%TD*%
D14*
%TO.P,R29,1*%
%TO.N,CELL_DTR_U16*%
X16925000Y-29500000D03*
%TO.P,R29,2*%
%TO.N,GND_MODEM*%
X17575000Y-29500000D03*
%TD*%
%TO.P,R7,1*%
%TO.N,3V3_DIGITAL*%
X68675000Y-31500000D03*
%TO.P,R7,2*%
%TO.N,NOR_NCS_U2*%
X69325000Y-31500000D03*
%TD*%
D18*
%TO.P,C24,1*%
%TO.N,3V3_DIGITAL*%
X68050000Y-30000000D03*
%TO.P,C24,2*%
%TO.N,GND_DIGITAL*%
X68950000Y-30000000D03*
%TD*%
D10*
%TO.P,R39,1*%
%TO.N,CELL_USB_DP_U8*%
X10325000Y-50750000D03*
%TO.P,R39,2*%
%TO.N,CELL_USB_DP_TP*%
X9675000Y-50750000D03*
%TD*%
D19*
%TO.P,U23,1*%
%TO.N,SD_D2_CARD*%
X82582500Y-20000000D03*
%TO.P,U23,2*%
%TO.N,SD_D3_CARD*%
X82582500Y-20500000D03*
D20*
%TO.P,U23,3*%
%TO.N,GND_DIGITAL*%
X82582500Y-21000000D03*
D19*
%TO.P,U23,4*%
%TO.N,SD_CMD_CARD*%
X82582500Y-21500000D03*
%TO.P,U23,5*%
%TO.N,SD_CK_CARD*%
X82582500Y-22000000D03*
%TO.P,U23,6*%
%TO.N,N/C*%
X83417500Y-22000000D03*
%TO.P,U23,7*%
X83417500Y-21500000D03*
D20*
%TO.P,U23,8*%
%TO.N,GND_DIGITAL*%
X83417500Y-21000000D03*
D19*
%TO.P,U23,9*%
%TO.N,N/C*%
X83417500Y-20500000D03*
%TO.P,U23,10*%
X83417500Y-20000000D03*
%TD*%
D14*
%TO.P,C30,1*%
%TO.N,1V8_MIC*%
X49675000Y-42500000D03*
%TO.P,C30,2*%
%TO.N,GND_MIC*%
X50325000Y-42500000D03*
%TD*%
%TO.P,R65,1*%
%TO.N,LORA_DIO1*%
X64925000Y-53750000D03*
%TO.P,R65,2*%
%TO.N,GND_DIGITAL*%
X65575000Y-53750000D03*
%TD*%
%TO.P,C77,1*%
%TO.N,USB_SHIELD*%
X41175000Y-11500000D03*
%TO.P,C77,2*%
%TO.N,GND_DIGITAL*%
X41825000Y-11500000D03*
%TD*%
%TO.P,R12,1*%
%TO.N,NOR_IO3_U1*%
X40175000Y-28500000D03*
%TO.P,R12,2*%
%TO.N,NOR_IO3_U2*%
X40825000Y-28500000D03*
%TD*%
D10*
%TO.P,R72,1*%
%TO.N,LORA_MISO_U10*%
X65575000Y-52500000D03*
%TO.P,R72,2*%
%TO.N,LORA_MISO_U1*%
X64925000Y-52500000D03*
%TD*%
D14*
%TO.P,R17,1*%
%TO.N,PDM_CLK_1V8_U7*%
X59425000Y-40250000D03*
%TO.P,R17,2*%
%TO.N,PDM_CLK_1V8_FANOUT*%
X60075000Y-40250000D03*
%TD*%
%TO.P,C65,1*%
%TO.N,GNSS_ANT_BIAS_RAW*%
X60175000Y-54250000D03*
%TO.P,C65,2*%
%TO.N,GND_DIGITAL*%
X60825000Y-54250000D03*
%TD*%
D21*
%TO.P,C19,1*%
%TO.N,3V3_DIGITAL*%
X14400000Y-27750000D03*
%TO.P,C19,2*%
%TO.N,GND_DIGITAL*%
X15600000Y-27750000D03*
%TD*%
D14*
%TO.P,R87,1*%
%TO.N,3V3_DIGITAL*%
X86175000Y-24250000D03*
%TO.P,R87,2*%
%TO.N,SD_D1_CARD*%
X86825000Y-24250000D03*
%TD*%
D22*
%TO.P,U1,1*%
%TO.N,SIM_MUX_EN*%
X44250000Y-24000000D03*
%TO.P,U1,2*%
%TO.N,SIM1_DET*%
X44250000Y-24500000D03*
%TO.P,U1,3*%
%TO.N,PDM_DATA4*%
X44250000Y-25000000D03*
%TO.P,U1,4*%
%TO.N,SIM2_DET*%
X44250000Y-25500000D03*
%TO.P,U1,5*%
%TO.N,BLE_EN*%
X44250000Y-26000000D03*
%TO.P,U1,6*%
%TO.N,3V3_DIGITAL*%
X44250000Y-26500000D03*
%TO.P,U1,7*%
%TO.N,SD_DET*%
X44250000Y-27000000D03*
%TO.P,U1,8*%
%TO.N,LSE_IN*%
X44250000Y-27500000D03*
%TO.P,U1,9*%
%TO.N,N/C*%
X44250000Y-28000000D03*
%TO.P,U1,10*%
%TO.N,GND_DIGITAL*%
X44250000Y-28500000D03*
%TO.P,U1,11*%
%TO.N,3V3_DIGITAL*%
X44250000Y-29000000D03*
%TO.P,U1,12*%
%TO.N,N/C*%
X44250000Y-29500000D03*
%TO.P,U1,13*%
X44250000Y-30000000D03*
%TO.P,U1,14*%
%TO.N,NRST*%
X44250000Y-30500000D03*
%TO.P,U1,15*%
%TO.N,TEST_UART_RX_U1*%
X44250000Y-31000000D03*
%TO.P,U1,16*%
%TO.N,TEST_UART_TX_U1*%
X44250000Y-31500000D03*
%TO.P,U1,17*%
%TO.N,LORA_DIO1*%
X44250000Y-32000000D03*
%TO.P,U1,18*%
%TO.N,N/C*%
X44250000Y-32500000D03*
%TO.P,U1,19*%
%TO.N,GND_DIGITAL*%
X44250000Y-33000000D03*
%TO.P,U1,20*%
%TO.N,3V3_DIGITAL*%
X44250000Y-33500000D03*
%TO.P,U1,21*%
X44250000Y-34000000D03*
%TO.P,U1,22*%
%TO.N,GNSS_PPS_U1*%
X44250000Y-34500000D03*
%TO.P,U1,23*%
%TO.N,N/C*%
X44250000Y-35000000D03*
%TO.P,U1,24*%
%TO.N,GNSS_TX_U1*%
X44250000Y-35500000D03*
%TO.P,U1,25*%
%TO.N,GNSS_RX_U1*%
X44250000Y-36000000D03*
D23*
%TO.P,U1,26*%
%TO.N,GND_DIGITAL*%
X46000000Y-37750000D03*
%TO.P,U1,27*%
%TO.N,3V3_DIGITAL*%
X46500000Y-37750000D03*
%TO.P,U1,28*%
%TO.N,LORA_NSS_U1*%
X47000000Y-37750000D03*
%TO.P,U1,29*%
%TO.N,LORA_SCK_U1*%
X47500000Y-37750000D03*
%TO.P,U1,30*%
%TO.N,LORA_MISO_U1*%
X48000000Y-37750000D03*
%TO.P,U1,31*%
%TO.N,LORA_MOSI_U1*%
X48500000Y-37750000D03*
%TO.P,U1,32*%
%TO.N,N/C*%
X49000000Y-37750000D03*
%TO.P,U1,33*%
%TO.N,PDM_DATA1*%
X49500000Y-37750000D03*
%TO.P,U1,34*%
%TO.N,BLE_DFU_REQ*%
X50000000Y-37750000D03*
%TO.P,U1,35*%
%TO.N,PDM_DATA3*%
X50500000Y-37750000D03*
%TO.P,U1,36*%
%TO.N,N/C*%
X51000000Y-37750000D03*
%TO.P,U1,37*%
%TO.N,PDM_CLK*%
X51500000Y-37750000D03*
%TO.P,U1,38*%
%TO.N,NOR_CLK_U1*%
X52000000Y-37750000D03*
%TO.P,U1,39*%
%TO.N,NOR_NCS_U2*%
X52500000Y-37750000D03*
%TO.P,U1,40*%
%TO.N,NOR_IO0_U1*%
X53000000Y-37750000D03*
%TO.P,U1,41*%
%TO.N,NOR_IO1_U1*%
X53500000Y-37750000D03*
%TO.P,U1,42*%
%TO.N,NOR_IO2_U1*%
X54000000Y-37750000D03*
%TO.P,U1,43*%
%TO.N,NOR_IO3_U1*%
X54500000Y-37750000D03*
%TO.P,U1,44*%
%TO.N,BLE_TX_U1*%
X55000000Y-37750000D03*
%TO.P,U1,45*%
%TO.N,BLE_RX_U1*%
X55500000Y-37750000D03*
%TO.P,U1,46*%
%TO.N,SMPS_SW*%
X56000000Y-37750000D03*
%TO.P,U1,47*%
%TO.N,3V3_DIGITAL*%
X56500000Y-37750000D03*
%TO.P,U1,48*%
%TO.N,GND_DIGITAL*%
X57000000Y-37750000D03*
%TO.P,U1,49*%
%TO.N,VCORE_1V1*%
X57500000Y-37750000D03*
%TO.P,U1,50*%
%TO.N,GND_DIGITAL*%
X58000000Y-37750000D03*
D22*
%TO.P,U1,51*%
%TO.N,3V3_DIGITAL*%
X59750000Y-36000000D03*
%TO.P,U1,52*%
%TO.N,I2C2_SCL_U1*%
X59750000Y-35500000D03*
%TO.P,U1,53*%
%TO.N,I2C2_SDA_U1*%
X59750000Y-35000000D03*
%TO.P,U1,54*%
%TO.N,LORA_TXEN*%
X59750000Y-34500000D03*
%TO.P,U1,55*%
%TO.N,LORA_RXEN*%
X59750000Y-34000000D03*
%TO.P,U1,56*%
%TO.N,LORA_BUSY*%
X59750000Y-33500000D03*
%TO.P,U1,57*%
%TO.N,LORA_RESET_N*%
X59750000Y-33000000D03*
%TO.P,U1,58*%
%TO.N,CELL_PWRKEY_CMD*%
X59750000Y-32500000D03*
%TO.P,U1,59*%
%TO.N,CELL_RESET_N_CMD*%
X59750000Y-32000000D03*
%TO.P,U1,60*%
%TO.N,CELL_STATUS_U16*%
X59750000Y-31500000D03*
%TO.P,U1,61*%
%TO.N,CELL_DTR_U16*%
X59750000Y-31000000D03*
%TO.P,U1,62*%
%TO.N,CELL_RI_U16*%
X59750000Y-30500000D03*
%TO.P,U1,63*%
%TO.N,ACCEL_INT*%
X59750000Y-30000000D03*
%TO.P,U1,64*%
%TO.N,TAMPER_IN_U1*%
X59750000Y-29500000D03*
%TO.P,U1,65*%
%TO.N,SD_D0_U1*%
X59750000Y-29000000D03*
%TO.P,U1,66*%
%TO.N,SD_D1_U1*%
X59750000Y-28500000D03*
%TO.P,U1,67*%
%TO.N,MIC_WAKE*%
X59750000Y-28000000D03*
%TO.P,U1,68*%
%TO.N,USB_VBUS_SENSE*%
X59750000Y-27500000D03*
%TO.P,U1,69*%
%TO.N,N/C*%
X59750000Y-27000000D03*
%TO.P,U1,70*%
%TO.N,USB_DM_U1*%
X59750000Y-26500000D03*
%TO.P,U1,71*%
%TO.N,USB_DP_U1*%
X59750000Y-26000000D03*
%TO.P,U1,72*%
%TO.N,SWDIO*%
X59750000Y-25500000D03*
%TO.P,U1,73*%
%TO.N,3V3_DIGITAL*%
X59750000Y-25000000D03*
%TO.P,U1,74*%
%TO.N,GND_DIGITAL*%
X59750000Y-24500000D03*
%TO.P,U1,75*%
%TO.N,3V3_DIGITAL*%
X59750000Y-24000000D03*
D23*
%TO.P,U1,76*%
%TO.N,SWCLK*%
X58000000Y-22250000D03*
%TO.P,U1,77*%
%TO.N,AAD_CFG*%
X57500000Y-22250000D03*
%TO.P,U1,78*%
%TO.N,SD_D2_U1*%
X57000000Y-22250000D03*
%TO.P,U1,79*%
%TO.N,SD_D3_U1*%
X56500000Y-22250000D03*
%TO.P,U1,80*%
%TO.N,SD_CK_U1*%
X56000000Y-22250000D03*
%TO.P,U1,81*%
%TO.N,PWR_GOOD*%
X55500000Y-22250000D03*
%TO.P,U1,82*%
%TO.N,PWR_FAULT*%
X55000000Y-22250000D03*
%TO.P,U1,83*%
%TO.N,SD_CMD_U1*%
X54500000Y-22250000D03*
%TO.P,U1,84*%
%TO.N,N/C*%
X54000000Y-22250000D03*
%TO.P,U1,85*%
%TO.N,EN_MODEM*%
X53500000Y-22250000D03*
%TO.P,U1,86*%
%TO.N,EN_AUX*%
X53000000Y-22250000D03*
%TO.P,U1,87*%
%TO.N,PDM_DATA2*%
X52500000Y-22250000D03*
%TO.P,U1,88*%
%TO.N,N/C*%
X52000000Y-22250000D03*
%TO.P,U1,89*%
X51500000Y-22250000D03*
%TO.P,U1,90*%
X51000000Y-22250000D03*
%TO.P,U1,91*%
X50500000Y-22250000D03*
%TO.P,U1,92*%
%TO.N,CELL_TX_U16*%
X50000000Y-22250000D03*
%TO.P,U1,93*%
%TO.N,CELL_RX_U16*%
X49500000Y-22250000D03*
%TO.P,U1,94*%
%TO.N,BOOT0*%
X49000000Y-22250000D03*
%TO.P,U1,95*%
%TO.N,REV_STRAP0*%
X48500000Y-22250000D03*
%TO.P,U1,96*%
%TO.N,REV_STRAP1*%
X48000000Y-22250000D03*
%TO.P,U1,97*%
%TO.N,SIM_MUX_SEL*%
X47500000Y-22250000D03*
%TO.P,U1,98*%
%TO.N,VCORE_1V1*%
X47000000Y-22250000D03*
%TO.P,U1,99*%
%TO.N,GND_DIGITAL*%
X46500000Y-22250000D03*
%TO.P,U1,100*%
%TO.N,3V3_DIGITAL*%
X46000000Y-22250000D03*
%TD*%
D14*
%TO.P,C46,1*%
%TO.N,3V8_MODEM_RF*%
X37675000Y-56750000D03*
%TO.P,C46,2*%
%TO.N,GND_MODEM*%
X38325000Y-56750000D03*
%TD*%
%TO.P,R84,1*%
%TO.N,SD_D3_U1*%
X91425000Y-23000000D03*
%TO.P,R84,2*%
%TO.N,SD_D3_CARD*%
X92075000Y-23000000D03*
%TD*%
%TO.P,R27,1*%
%TO.N,Q2_BASE*%
X15175000Y-34250000D03*
%TO.P,R27,2*%
%TO.N,GND_MODEM*%
X15825000Y-34250000D03*
%TD*%
%TO.P,R30,1*%
%TO.N,U8_VDD_EXT_1V8*%
X13425000Y-35500000D03*
%TO.P,R30,2*%
%TO.N,U8_MAIN_TXD_1V8*%
X14075000Y-35500000D03*
%TD*%
%TO.P,C40,1*%
%TO.N,3V8_MODEM_BB*%
X9675000Y-49500000D03*
%TO.P,C40,2*%
%TO.N,GND_MODEM*%
X10325000Y-49500000D03*
%TD*%
D19*
%TO.P,U24,1*%
%TO.N,SD_D0_CARD*%
X87582500Y-20000000D03*
%TO.P,U24,2*%
%TO.N,SD_D1_CARD*%
X87582500Y-20500000D03*
D20*
%TO.P,U24,3*%
%TO.N,GND_DIGITAL*%
X87582500Y-21000000D03*
D19*
%TO.P,U24,4*%
%TO.N,SD_DET*%
X87582500Y-21500000D03*
%TO.P,U24,5*%
%TO.N,N/C*%
X87582500Y-22000000D03*
%TO.P,U24,6*%
X88417500Y-22000000D03*
%TO.P,U24,7*%
X88417500Y-21500000D03*
D20*
%TO.P,U24,8*%
%TO.N,GND_DIGITAL*%
X88417500Y-21000000D03*
D19*
%TO.P,U24,9*%
%TO.N,N/C*%
X88417500Y-20500000D03*
%TO.P,U24,10*%
X88417500Y-20000000D03*
%TD*%
D14*
%TO.P,R18,1*%
%TO.N,AAD_CFG_1V8_U7*%
X64425000Y-45250000D03*
%TO.P,R18,2*%
%TO.N,AAD_CFG_1V8_FANOUT*%
X65075000Y-45250000D03*
%TD*%
%TO.P,R53,1*%
%TO.N,SIM2_RST_MUX*%
X66425000Y-16500000D03*
%TO.P,R53,2*%
%TO.N,SIM2_RST_CONN*%
X67075000Y-16500000D03*
%TD*%
D24*
%TO.P,C44,1*%
%TO.N,3V8_MODEM_RF*%
X29630000Y-29250000D03*
%TO.P,C44,2*%
%TO.N,GND_MODEM*%
X35870000Y-29250000D03*
%TD*%
D14*
%TO.P,R37,1*%
%TO.N,CELL_DBG_RXD_TP*%
X39425000Y-55500000D03*
%TO.P,R37,2*%
%TO.N,CELL_DBG_RXD_U8*%
X40075000Y-55500000D03*
%TD*%
D25*
%TO.P,J11,A1*%
%TO.N,GND_DIGITAL*%
X45200000Y-7355000D03*
%TO.P,J11,A4*%
%TO.N,USB_VBUS_CONN*%
X44400000Y-7355000D03*
D26*
%TO.P,J11,A5*%
%TO.N,USB_CC1*%
X43250000Y-7355000D03*
%TO.P,J11,A6*%
%TO.N,USB_DP_CONN*%
X42250000Y-7355000D03*
%TO.P,J11,A7*%
%TO.N,USB_DM_CONN*%
X41750000Y-7355000D03*
%TO.P,J11,A8*%
%TO.N,N/C*%
X40750000Y-7355000D03*
D25*
%TO.P,J11,A9*%
%TO.N,USB_VBUS_CONN*%
X39600000Y-7355000D03*
%TO.P,J11,A12*%
%TO.N,GND_DIGITAL*%
X38800000Y-7355000D03*
%TO.P,J11,B1*%
X38800000Y-7355000D03*
%TO.P,J11,B4*%
%TO.N,USB_VBUS_CONN*%
X39600000Y-7355000D03*
D26*
%TO.P,J11,B5*%
%TO.N,USB_CC2*%
X40250000Y-7355000D03*
%TO.P,J11,B6*%
%TO.N,USB_DP_CONN*%
X41250000Y-7355000D03*
%TO.P,J11,B7*%
%TO.N,USB_DM_CONN*%
X42750000Y-7355000D03*
%TO.P,J11,B8*%
%TO.N,N/C*%
X43750000Y-7355000D03*
D25*
%TO.P,J11,B9*%
%TO.N,USB_VBUS_CONN*%
X44400000Y-7355000D03*
%TO.P,J11,B12*%
%TO.N,GND_DIGITAL*%
X45200000Y-7355000D03*
D27*
%TO.P,J11,SHIELD*%
%TO.N,USB_SHIELD*%
X46320000Y-6780000D03*
D28*
X46320000Y-2600000D03*
D27*
X37680000Y-6780000D03*
D28*
X37680000Y-2600000D03*
%TD*%
D10*
%TO.P,R43,1*%
%TO.N,CELL_RF*%
X26075000Y-68000000D03*
%TO.P,R43,2*%
%TO.N,CELL_RF_ANT*%
X25425000Y-68000000D03*
%TD*%
D14*
%TO.P,R46,1*%
%TO.N,SIM_MUX_EN*%
X27175000Y-15750000D03*
%TO.P,R46,2*%
%TO.N,Q3_BASE*%
X27825000Y-15750000D03*
%TD*%
D29*
%TO.P,J_MIC4,*%
%TO.N,*%
X108600000Y-60355000D03*
X108600000Y-47645000D03*
D30*
%TO.P,J_MIC4,1*%
%TO.N,1V8_MIC*%
X103410000Y-57750000D03*
%TO.P,J_MIC4,2*%
%TO.N,GND_MIC*%
X103410000Y-56250000D03*
%TO.P,J_MIC4,3*%
%TO.N,PDM_CLK_1V8_FANOUT*%
X103410000Y-54750000D03*
%TO.P,J_MIC4,4*%
%TO.N,PDM_DATA4_1V8*%
X103410000Y-53250000D03*
%TO.P,J_MIC4,5*%
%TO.N,MIC_WAKE4*%
X103410000Y-51750000D03*
%TO.P,J_MIC4,6*%
%TO.N,AAD_CFG_1V8_FANOUT*%
X103410000Y-50250000D03*
%TD*%
D14*
%TO.P,C50,1*%
%TO.N,SIM1_VDD_CONN*%
X14675000Y-16500000D03*
%TO.P,C50,2*%
%TO.N,GND_MODEM*%
X15325000Y-16500000D03*
%TD*%
D31*
%TO.P,D9,1*%
%TO.N,TAMPER_IN_CONN*%
X103760000Y-20500000D03*
%TO.P,D9,2*%
%TO.N,GND_DIGITAL*%
X105240000Y-20500000D03*
%TD*%
D14*
%TO.P,R90,1*%
%TO.N,3V3_DIGITAL*%
X80675000Y-23000000D03*
%TO.P,R90,2*%
%TO.N,SD_DET*%
X81325000Y-23000000D03*
%TD*%
D10*
%TO.P,R48,1*%
%TO.N,3V3_DIGITAL*%
X15325000Y-17750000D03*
%TO.P,R48,2*%
%TO.N,SIM1_DET*%
X14675000Y-17750000D03*
%TD*%
D19*
%TO.P,U20,1*%
%TO.N,PDM_CLK_1V8_FANOUT*%
X37832500Y-61000000D03*
%TO.P,U20,2*%
%TO.N,PDM_DATA2_1V8*%
X37832500Y-61500000D03*
D20*
%TO.P,U20,3*%
%TO.N,GND_MIC*%
X37832500Y-62000000D03*
D19*
%TO.P,U20,4*%
%TO.N,MIC_WAKE2*%
X37832500Y-62500000D03*
%TO.P,U20,5*%
%TO.N,AAD_CFG_1V8_FANOUT*%
X37832500Y-63000000D03*
%TO.P,U20,6*%
%TO.N,N/C*%
X38667500Y-63000000D03*
%TO.P,U20,7*%
X38667500Y-62500000D03*
D20*
%TO.P,U20,8*%
%TO.N,GND_MIC*%
X38667500Y-62000000D03*
D19*
%TO.P,U20,9*%
%TO.N,N/C*%
X38667500Y-61500000D03*
%TO.P,U20,10*%
X38667500Y-61000000D03*
%TD*%
D14*
%TO.P,C17,1*%
%TO.N,VCORE_1V1*%
X46675000Y-19500000D03*
%TO.P,C17,2*%
%TO.N,GND_DIGITAL*%
X47325000Y-19500000D03*
%TD*%
D10*
%TO.P,R56,1*%
%TO.N,GNSS_RX_U9*%
X47575000Y-56750000D03*
%TO.P,R56,2*%
%TO.N,GNSS_RX_U1*%
X46925000Y-56750000D03*
%TD*%
D32*
%TO.P,U13,1*%
%TO.N,SIM1_RST_MUX*%
X33600000Y-14425000D03*
%TO.P,U13,2*%
%TO.N,SIM1_VDD_CONN*%
X33600000Y-15075000D03*
%TO.P,U13,3*%
%TO.N,N/C*%
X33600000Y-15725000D03*
%TO.P,U13,4*%
%TO.N,CELL_USIM_VDD_1V8*%
X33600000Y-16375000D03*
%TO.P,U13,5*%
%TO.N,GND_MODEM*%
X33600000Y-17025000D03*
%TO.P,U13,6*%
%TO.N,CELL_USIM_RST_1V8*%
X33600000Y-17675000D03*
%TO.P,U13,7*%
%TO.N,CELL_USIM_CLK_1V8*%
X33600000Y-18325000D03*
%TO.P,U13,8*%
%TO.N,3V3_DIGITAL*%
X33600000Y-18975000D03*
%TO.P,U13,9*%
%TO.N,CELL_USIM_VDD_1V8*%
X33600000Y-19625000D03*
%TO.P,U13,10*%
%TO.N,CELL_USIM_DATA_1V8*%
X33600000Y-20275000D03*
%TO.P,U13,11*%
%TO.N,SIM2_VDD_CONN*%
X33600000Y-20925000D03*
%TO.P,U13,12*%
%TO.N,CELL_USIM_VDD_1V8*%
X33600000Y-21575000D03*
%TO.P,U13,13*%
%TO.N,SIM2_RST_MUX*%
X39400000Y-21575000D03*
%TO.P,U13,14*%
%TO.N,SIM_MUX_SEL*%
X39400000Y-20925000D03*
%TO.P,U13,15*%
%TO.N,SIM2_CLK_MUX*%
X39400000Y-20275000D03*
%TO.P,U13,16*%
%TO.N,SIM2_VDD_CONN*%
X39400000Y-19625000D03*
%TO.P,U13,17*%
X39400000Y-18975000D03*
%TO.P,U13,18*%
%TO.N,SIM2_DATA_MUX*%
X39400000Y-18325000D03*
%TO.P,U13,19*%
%TO.N,SIM1_DATA_MUX*%
X39400000Y-17675000D03*
%TO.P,U13,20*%
%TO.N,U13_EN_N*%
X39400000Y-17025000D03*
%TO.P,U13,21*%
%TO.N,SIM1_VDD_CONN*%
X39400000Y-16375000D03*
%TO.P,U13,22*%
X39400000Y-15725000D03*
%TO.P,U13,23*%
%TO.N,SIM1_CLK_MUX*%
X39400000Y-15075000D03*
%TO.P,U13,24*%
%TO.N,SIM_MUX_SEL*%
X39400000Y-14425000D03*
%TD*%
D14*
%TO.P,C54,1*%
%TO.N,SIM1_RST_CONN*%
X18175000Y-16500000D03*
%TO.P,C54,2*%
%TO.N,GND_MODEM*%
X18825000Y-16500000D03*
%TD*%
%TO.P,R103,1*%
%TO.N,FAULT*%
X26675000Y-22500000D03*
%TO.P,R103,2*%
%TO.N,PWR_FAULT*%
X27325000Y-22500000D03*
%TD*%
D18*
%TO.P,C75,1*%
%TO.N,3V3_DIGITAL*%
X90050000Y-20500000D03*
%TO.P,C75,2*%
%TO.N,GND_DIGITAL*%
X90950000Y-20500000D03*
%TD*%
D33*
%TO.P,FL1,A*%
%TO.N,GNSS_RF_FILTERED*%
X56550000Y-51975000D03*
%TO.P,FL1,B*%
%TO.N,GND_DIGITAL*%
X56550000Y-51600000D03*
%TO.P,FL1,C*%
%TO.N,GNSS_RF_DC_BLOCK*%
X56800000Y-51225000D03*
%TO.P,FL1,D*%
%TO.N,GND_DIGITAL*%
X57050000Y-51600000D03*
%TO.P,FL1,E*%
X57050000Y-51975000D03*
%TD*%
D14*
%TO.P,C26,1*%
%TO.N,3V3_DIGITAL*%
X66675000Y-38500000D03*
%TO.P,C26,2*%
%TO.N,GND_DIGITAL*%
X67325000Y-38500000D03*
%TD*%
D34*
%TO.P,D5,1*%
%TO.N,LORA_RF_ANT*%
X65300000Y-68000000D03*
D35*
%TO.P,D5,2*%
%TO.N,GND_DIGITAL*%
X65700000Y-68000000D03*
%TD*%
D10*
%TO.P,R79,1*%
%TO.N,SD_CK_U1*%
X44575000Y-20750000D03*
%TO.P,R79,2*%
%TO.N,SD_CK_CARD*%
X43925000Y-20750000D03*
%TD*%
D14*
%TO.P,C33,1*%
%TO.N,U8_VDD_EXT_1V8*%
X18675000Y-29250000D03*
%TO.P,C33,2*%
%TO.N,GND_MODEM*%
X19325000Y-29250000D03*
%TD*%
%TO.P,C52,1*%
%TO.N,SIM1_DET*%
X16425000Y-16500000D03*
%TO.P,C52,2*%
%TO.N,GND_MODEM*%
X17075000Y-16500000D03*
%TD*%
%TO.P,R77,1*%
%TO.N,BLE_EN*%
X85175000Y-33750000D03*
%TO.P,R77,2*%
%TO.N,GND_DIGITAL*%
X85825000Y-33750000D03*
%TD*%
%TO.P,C62,1*%
%TO.N,3V3_DIGITAL*%
X57675000Y-65500000D03*
%TO.P,C62,2*%
%TO.N,GND_DIGITAL*%
X58325000Y-65500000D03*
%TD*%
D10*
%TO.P,R71,1*%
%TO.N,LORA_MOSI_U1*%
X40825000Y-32750000D03*
%TO.P,R71,2*%
%TO.N,LORA_MOSI_U10*%
X40175000Y-32750000D03*
%TD*%
D14*
%TO.P,R31,1*%
%TO.N,U8_VDD_EXT_1V8*%
X11675000Y-35500000D03*
%TO.P,R31,2*%
%TO.N,U8_MAIN_RI_1V8*%
X12325000Y-35500000D03*
%TD*%
%TO.P,C59,1*%
%TO.N,SIM2_DATA_CONN*%
X64675000Y-16500000D03*
%TO.P,C59,2*%
%TO.N,GND_MODEM*%
X65325000Y-16500000D03*
%TD*%
%TO.P,R34,1*%
%TO.N,CELL_STATUS_U16*%
X15175000Y-35500000D03*
%TO.P,R34,2*%
%TO.N,GND_MODEM*%
X15825000Y-35500000D03*
%TD*%
%TO.P,R9,1*%
%TO.N,NOR_IO0_U1*%
X58175000Y-20750000D03*
%TO.P,R9,2*%
%TO.N,NOR_IO0_U2*%
X58825000Y-20750000D03*
%TD*%
D19*
%TO.P,U21,1*%
%TO.N,PDM_CLK_1V8_FANOUT*%
X91582500Y-64250000D03*
%TO.P,U21,2*%
%TO.N,PDM_DATA3_1V8*%
X91582500Y-64750000D03*
D20*
%TO.P,U21,3*%
%TO.N,GND_MIC*%
X91582500Y-65250000D03*
D19*
%TO.P,U21,4*%
%TO.N,MIC_WAKE3*%
X91582500Y-65750000D03*
%TO.P,U21,5*%
%TO.N,AAD_CFG_1V8_FANOUT*%
X91582500Y-66250000D03*
%TO.P,U21,6*%
%TO.N,N/C*%
X92417500Y-66250000D03*
%TO.P,U21,7*%
X92417500Y-65750000D03*
D20*
%TO.P,U21,8*%
%TO.N,GND_MIC*%
X92417500Y-65250000D03*
D19*
%TO.P,U21,9*%
%TO.N,N/C*%
X92417500Y-64750000D03*
%TO.P,U21,10*%
X92417500Y-64250000D03*
%TD*%
D14*
%TO.P,C10,1*%
%TO.N,VREF+*%
X41925000Y-35250000D03*
%TO.P,C10,2*%
%TO.N,GND_DIGITAL*%
X42575000Y-35250000D03*
%TD*%
%TO.P,R57,1*%
%TO.N,GNSS_TX_U1*%
X63425000Y-30000000D03*
%TO.P,R57,2*%
%TO.N,GNSS_TX_U9*%
X64075000Y-30000000D03*
%TD*%
%TO.P,C71,1*%
%TO.N,3V3_DIGITAL*%
X105675000Y-28750000D03*
%TO.P,C71,2*%
%TO.N,GND_DIGITAL*%
X106325000Y-28750000D03*
%TD*%
D36*
%TO.P,U9,1*%
%TO.N,GND_DIGITAL*%
X49100000Y-62750000D03*
D37*
%TO.P,U9,2*%
%TO.N,GNSS_RX_U9*%
X50200000Y-62750000D03*
%TO.P,U9,3*%
%TO.N,GNSS_TX_U9*%
X51300000Y-62750000D03*
%TO.P,U9,4*%
%TO.N,GNSS_PPS_U9*%
X52400000Y-62750000D03*
%TO.P,U9,5*%
%TO.N,N/C*%
X53500000Y-62750000D03*
%TO.P,U9,6*%
X54600000Y-62750000D03*
%TO.P,U9,7*%
%TO.N,3V3_DIGITAL*%
X55700000Y-62750000D03*
%TO.P,U9,8*%
X56800000Y-62750000D03*
D36*
%TO.P,U9,9*%
%TO.N,N/C*%
X57900000Y-62750000D03*
%TO.P,U9,10*%
%TO.N,GND_DIGITAL*%
X57900000Y-53250000D03*
D37*
%TO.P,U9,11*%
%TO.N,GNSS_RF_FILTERED*%
X56800000Y-53250000D03*
%TO.P,U9,12*%
%TO.N,GND_DIGITAL*%
X55700000Y-53250000D03*
%TO.P,U9,13*%
%TO.N,GNSS_ANT_OFF_N*%
X54600000Y-53250000D03*
%TO.P,U9,14*%
%TO.N,GNSS_ANT_BIAS_RAW*%
X53500000Y-53250000D03*
%TO.P,U9,15*%
%TO.N,N/C*%
X52400000Y-53250000D03*
%TO.P,U9,16*%
%TO.N,GNSS_ANT_DETECT*%
X51300000Y-53250000D03*
%TO.P,U9,17*%
%TO.N,GNSS_ANT_SHORT_N*%
X50200000Y-53250000D03*
D36*
%TO.P,U9,18*%
%TO.N,N/C*%
X49100000Y-53250000D03*
%TD*%
D31*
%TO.P,D10,1*%
%TO.N,CELL_USB_VBUS*%
X37760000Y-54000000D03*
%TO.P,D10,2*%
%TO.N,GND_MODEM*%
X39240000Y-54000000D03*
%TD*%
D14*
%TO.P,C51,1*%
%TO.N,SIM2_VDD_CONN*%
X57675000Y-16500000D03*
%TO.P,C51,2*%
%TO.N,GND_MODEM*%
X58325000Y-16500000D03*
%TD*%
D10*
%TO.P,R67,1*%
%TO.N,3V3_DIGITAL*%
X65575000Y-56250000D03*
%TO.P,R67,2*%
%TO.N,LORA_RESET_N*%
X64925000Y-56250000D03*
%TD*%
D38*
%TO.P,U2,1*%
%TO.N,NOR_IO3_U2*%
X71350000Y-27055000D03*
%TO.P,U2,2*%
%TO.N,3V3_DIGITAL*%
X71350000Y-28325000D03*
%TO.P,U2,3*%
X71350000Y-29595000D03*
%TO.P,U2,4*%
%TO.N,N/C*%
X71350000Y-30865000D03*
%TO.P,U2,5*%
X71350000Y-32135000D03*
%TO.P,U2,6*%
X71350000Y-33405000D03*
%TO.P,U2,7*%
%TO.N,NOR_NCS_U2*%
X71350000Y-34675000D03*
%TO.P,U2,8*%
%TO.N,NOR_IO1_U2*%
X71350000Y-35945000D03*
%TO.P,U2,9*%
%TO.N,NOR_IO2_U2*%
X80650000Y-35945000D03*
%TO.P,U2,10*%
%TO.N,GND_DIGITAL*%
X80650000Y-34675000D03*
%TO.P,U2,11*%
%TO.N,N/C*%
X80650000Y-33405000D03*
%TO.P,U2,12*%
X80650000Y-32135000D03*
%TO.P,U2,13*%
X80650000Y-30865000D03*
%TO.P,U2,14*%
X80650000Y-29595000D03*
%TO.P,U2,15*%
%TO.N,NOR_IO0_U2*%
X80650000Y-28325000D03*
%TO.P,U2,16*%
%TO.N,NOR_CLK_U2*%
X80650000Y-27055000D03*
%TD*%
D39*
%TO.P,U3,1*%
%TO.N,I2C2_SCL_BUS*%
X65237500Y-29750000D03*
%TO.P,U3,2*%
%TO.N,3V3_DIGITAL*%
X65237500Y-30250000D03*
%TO.P,U3,3*%
%TO.N,GND_DIGITAL*%
X65237500Y-30750000D03*
%TO.P,U3,4*%
%TO.N,I2C2_SDA_BUS*%
X65237500Y-31250000D03*
D40*
%TO.P,U3,5*%
%TO.N,N/C*%
X65750000Y-31262500D03*
%TO.P,U3,6*%
%TO.N,GND_DIGITAL*%
X66250000Y-31262500D03*
D39*
%TO.P,U3,7*%
X66762500Y-31250000D03*
%TO.P,U3,8*%
X66762500Y-30750000D03*
%TO.P,U3,9*%
%TO.N,3V3_DIGITAL*%
X66762500Y-30250000D03*
%TO.P,U3,10*%
X66762500Y-29750000D03*
D40*
%TO.P,U3,11*%
%TO.N,N/C*%
X66250000Y-29737500D03*
%TO.P,U3,12*%
%TO.N,ACCEL_INT*%
X65750000Y-29737500D03*
%TD*%
D14*
%TO.P,R36,1*%
%TO.N,CELL_DBG_TXD_U8*%
X9675000Y-45750000D03*
%TO.P,R36,2*%
%TO.N,CELL_DBG_TXD_TP*%
X10325000Y-45750000D03*
%TD*%
D41*
%TO.P,U10,1*%
%TO.N,GND_DIGITAL*%
X81450000Y-64000000D03*
%TO.P,U10,2*%
X81450000Y-62730000D03*
%TO.P,U10,3*%
X81450000Y-61460000D03*
%TO.P,U10,4*%
X81450000Y-55890000D03*
%TO.P,U10,5*%
X81450000Y-54620000D03*
%TO.P,U10,6*%
%TO.N,LORA_RXEN*%
X81450000Y-53350000D03*
%TO.P,U10,7*%
%TO.N,LORA_TXEN*%
X81450000Y-52080000D03*
%TO.P,U10,8*%
%TO.N,N/C*%
X81450000Y-50810000D03*
%TO.P,U10,9*%
%TO.N,3V3_DIGITAL*%
X81450000Y-49540000D03*
%TO.P,U10,10*%
%TO.N,GND_DIGITAL*%
X81450000Y-48270000D03*
%TO.P,U10,11*%
X81450000Y-47000000D03*
%TO.P,U10,12*%
X66550000Y-47000000D03*
%TO.P,U10,13*%
%TO.N,LORA_DIO1*%
X66550000Y-48270000D03*
%TO.P,U10,14*%
%TO.N,LORA_BUSY*%
X66550000Y-49540000D03*
%TO.P,U10,15*%
%TO.N,LORA_RESET_N*%
X66550000Y-50810000D03*
%TO.P,U10,16*%
%TO.N,LORA_MISO_U10*%
X66550000Y-52080000D03*
%TO.P,U10,17*%
%TO.N,LORA_MOSI_U10*%
X66550000Y-53350000D03*
%TO.P,U10,18*%
%TO.N,LORA_SCK_U10*%
X66550000Y-54620000D03*
%TO.P,U10,19*%
%TO.N,LORA_NSS_U10*%
X66550000Y-55890000D03*
%TO.P,U10,20*%
%TO.N,GND_DIGITAL*%
X66550000Y-61460000D03*
%TO.P,U10,21*%
%TO.N,LORA_RF_MODULE*%
X66550000Y-62730000D03*
%TO.P,U10,22*%
%TO.N,GND_DIGITAL*%
X66550000Y-64000000D03*
%TD*%
D14*
%TO.P,C38,1*%
%TO.N,3V8_MODEM_BB*%
X6425000Y-51000000D03*
%TO.P,C38,2*%
%TO.N,GND_MODEM*%
X7075000Y-51000000D03*
%TD*%
D42*
%TO.P,L1,1*%
%TO.N,SMPS_SW*%
X52900000Y-19750000D03*
%TO.P,L1,2*%
%TO.N,VCORE_1V1*%
X51100000Y-19750000D03*
%TD*%
D14*
%TO.P,R25,1*%
%TO.N,Q1_BASE*%
X14175000Y-29500000D03*
%TO.P,R25,2*%
%TO.N,GND_MODEM*%
X14825000Y-29500000D03*
%TD*%
%TO.P,R101,1*%
%TO.N,TEST_UART_TX_U1*%
X38175000Y-31000000D03*
%TO.P,R101,2*%
%TO.N,TEST_UART_TX_TP*%
X38825000Y-31000000D03*
%TD*%
%TO.P,R70,1*%
%TO.N,LORA_SCK_U1*%
X63175000Y-27250000D03*
%TO.P,R70,2*%
%TO.N,LORA_SCK_U10*%
X63825000Y-27250000D03*
%TD*%
D10*
%TO.P,R40,1*%
%TO.N,CELL_USB_DM_U8*%
X10325000Y-52000000D03*
%TO.P,R40,2*%
%TO.N,CELL_USB_DM_TP*%
X9675000Y-52000000D03*
%TD*%
D43*
%TO.P,R61,1*%
%TO.N,GNSS_ANT_BIAS_RAW*%
X49000000Y-51825000D03*
%TO.P,R61,2*%
%TO.N,GNSS_ANT_GATE*%
X49000000Y-51175000D03*
%TD*%
D14*
%TO.P,C29,1*%
%TO.N,3V3_DIGITAL*%
X64425000Y-41750000D03*
%TO.P,C29,2*%
%TO.N,GND_DIGITAL*%
X65075000Y-41750000D03*
%TD*%
D10*
%TO.P,R100,1*%
%TO.N,TAMPER_IN_CONN*%
X96325000Y-28000000D03*
%TO.P,R100,2*%
%TO.N,TAMPER_IN_U1*%
X95675000Y-28000000D03*
%TD*%
D14*
%TO.P,R14,1*%
%TO.N,3V3_DIGITAL*%
X40175000Y-31500000D03*
%TO.P,R14,2*%
%TO.N,I2C2_SDA_BUS*%
X40825000Y-31500000D03*
%TD*%
D18*
%TO.P,C20,1*%
%TO.N,1V8_MIC*%
X14050000Y-26000000D03*
%TO.P,C20,2*%
%TO.N,GND_MIC*%
X14950000Y-26000000D03*
%TD*%
D24*
%TO.P,C36,1*%
%TO.N,3V8_MODEM_BB*%
X35870000Y-34500000D03*
%TO.P,C36,2*%
%TO.N,GND_MODEM*%
X29630000Y-34500000D03*
%TD*%
D14*
%TO.P,C7,1*%
%TO.N,3V3_DIGITAL*%
X41925000Y-26500000D03*
%TO.P,C7,2*%
%TO.N,GND_DIGITAL*%
X42575000Y-26500000D03*
%TD*%
%TO.P,R13,1*%
%TO.N,3V3_DIGITAL*%
X63175000Y-28500000D03*
%TO.P,R13,2*%
%TO.N,I2C2_SCL_BUS*%
X63825000Y-28500000D03*
%TD*%
%TO.P,C21,1*%
%TO.N,3V3_DIGITAL*%
X68675000Y-28250000D03*
%TO.P,C21,2*%
%TO.N,GND_DIGITAL*%
X69325000Y-28250000D03*
%TD*%
%TO.P,C69,1*%
%TO.N,LORA_RF_MODULE*%
X66675000Y-68000000D03*
%TO.P,C69,2*%
%TO.N,GND_DIGITAL*%
X67325000Y-68000000D03*
%TD*%
%TO.P,R1,1*%
%TO.N,3V3_DIGITAL*%
X61425000Y-28500000D03*
%TO.P,R1,2*%
%TO.N,NRST*%
X62075000Y-28500000D03*
%TD*%
D44*
%TO.P,D4,1*%
%TO.N,GNSS_RF_ANT_BIASED*%
X58250000Y-70740000D03*
%TO.P,D4,2*%
%TO.N,GND_DIGITAL*%
X58250000Y-69260000D03*
%TD*%
D14*
%TO.P,R76,1*%
%TO.N,3V3_DIGITAL*%
X85175000Y-32500000D03*
%TO.P,R76,2*%
%TO.N,BLE_DFU_REQ*%
X85825000Y-32500000D03*
%TD*%
%TO.P,C80,1*%
%TO.N,CELL_RF_ANT*%
X21925000Y-68000000D03*
%TO.P,C80,2*%
%TO.N,GND_MODEM*%
X22575000Y-68000000D03*
%TD*%
D44*
%TO.P,D8,1*%
%TO.N,USB_CC2*%
X38500000Y-10490000D03*
%TO.P,D8,2*%
%TO.N,GND_DIGITAL*%
X38500000Y-9010000D03*
%TD*%
D14*
%TO.P,R83,1*%
%TO.N,SD_D2_U1*%
X89675000Y-23000000D03*
%TO.P,R83,2*%
%TO.N,SD_D2_CARD*%
X90325000Y-23000000D03*
%TD*%
%TO.P,C63,1*%
%TO.N,GNSS_ANT_SHORT_N*%
X46925000Y-58000000D03*
%TO.P,C63,2*%
%TO.N,GND_DIGITAL*%
X47575000Y-58000000D03*
%TD*%
D10*
%TO.P,C76,1*%
%TO.N,SD_DET*%
X83325000Y-23000000D03*
%TO.P,C76,2*%
%TO.N,GND_DIGITAL*%
X82675000Y-23000000D03*
%TD*%
D14*
%TO.P,C34,1*%
%TO.N,3V3_DIGITAL*%
X18675000Y-28000000D03*
%TO.P,C34,2*%
%TO.N,GND_MODEM*%
X19325000Y-28000000D03*
%TD*%
%TO.P,C32,1*%
%TO.N,3V3_DIGITAL*%
X54175000Y-44250000D03*
%TO.P,C32,2*%
%TO.N,GND_DIGITAL*%
X54825000Y-44250000D03*
%TD*%
D31*
%TO.P,D11,1*%
%TO.N,3V3_DIGITAL*%
X80010000Y-20500000D03*
%TO.P,D11,2*%
%TO.N,GND_DIGITAL*%
X81490000Y-20500000D03*
%TD*%
D14*
%TO.P,C57,1*%
%TO.N,SIM2_RST_CONN*%
X61175000Y-16500000D03*
%TO.P,C57,2*%
%TO.N,GND_MODEM*%
X61825000Y-16500000D03*
%TD*%
D10*
%TO.P,R45,1*%
%TO.N,SIM_MUX_SEL*%
X36825000Y-13000000D03*
%TO.P,R45,2*%
%TO.N,GND_MODEM*%
X36175000Y-13000000D03*
%TD*%
D45*
%TO.P,J12,1*%
%TO.N,SD_D2_CARD*%
X85095000Y-6490000D03*
D46*
%TO.P,J12,2*%
%TO.N,SD_D3_CARD*%
X86195000Y-6890000D03*
%TO.P,J12,3*%
%TO.N,SD_CMD_CARD*%
X87295000Y-6490000D03*
%TO.P,J12,4*%
%TO.N,3V3_DIGITAL*%
X88395000Y-6290000D03*
%TO.P,J12,5*%
%TO.N,SD_CK_CARD*%
X89495000Y-6490000D03*
%TO.P,J12,6*%
%TO.N,GND_DIGITAL*%
X90595000Y-6290000D03*
%TO.P,J12,7*%
%TO.N,SD_D0_CARD*%
X91695000Y-6490000D03*
%TO.P,J12,8*%
%TO.N,SD_D1_CARD*%
X92795000Y-6490000D03*
D47*
%TO.P,J12,CD*%
%TO.N,SD_DET*%
X90585000Y-17720000D03*
D48*
%TO.P,J12,SHIELD*%
%TO.N,GND_DIGITAL*%
X93575000Y-4200000D03*
D49*
X92035000Y-17350000D03*
D50*
X86285000Y-17350000D03*
D48*
X80425000Y-3200000D03*
%TD*%
D10*
%TO.P,C56,1*%
%TO.N,SIM1_DATA_CONN*%
X22325000Y-16500000D03*
%TO.P,C56,2*%
%TO.N,GND_MODEM*%
X21675000Y-16500000D03*
%TD*%
D51*
%TO.P,C61,1*%
%TO.N,3V3_DIGITAL*%
X62450000Y-62750000D03*
%TO.P,C61,2*%
%TO.N,GND_DIGITAL*%
X61550000Y-62750000D03*
%TD*%
D14*
%TO.P,R5,1*%
%TO.N,HW_REV1*%
X41925000Y-25250000D03*
%TO.P,R5,2*%
%TO.N,GND_DIGITAL*%
X42575000Y-25250000D03*
%TD*%
%TO.P,C27,1*%
%TO.N,1V8_MIC*%
X56425000Y-40250000D03*
%TO.P,C27,2*%
%TO.N,GND_DIGITAL*%
X57075000Y-40250000D03*
%TD*%
D10*
%TO.P,R44,1*%
%TO.N,3V3_DIGITAL*%
X31825000Y-17750000D03*
%TO.P,R44,2*%
%TO.N,U13_EN_N*%
X31175000Y-17750000D03*
%TD*%
D14*
%TO.P,R4,1*%
%TO.N,3V3_DIGITAL*%
X56425000Y-20750000D03*
%TO.P,R4,2*%
%TO.N,HW_REV0*%
X57075000Y-20750000D03*
%TD*%
D34*
%TO.P,D3,1*%
%TO.N,CELL_RF_ANT*%
X20550000Y-68000000D03*
D35*
%TO.P,D3,2*%
%TO.N,GND_MODEM*%
X20950000Y-68000000D03*
%TD*%
D10*
%TO.P,C55,1*%
%TO.N,SIM1_CLK_CONN*%
X20575000Y-16500000D03*
%TO.P,C55,2*%
%TO.N,GND_MODEM*%
X19925000Y-16500000D03*
%TD*%
D14*
%TO.P,C31,1*%
%TO.N,1V8_MIC*%
X52425000Y-44250000D03*
%TO.P,C31,2*%
%TO.N,GND_DIGITAL*%
X53075000Y-44250000D03*
%TD*%
%TO.P,R3,1*%
%TO.N,HW_REV0*%
X61425000Y-27250000D03*
%TO.P,R3,2*%
%TO.N,GND_DIGITAL*%
X62075000Y-27250000D03*
%TD*%
%TO.P,C35,1*%
%TO.N,3V3_DIGITAL*%
X18675000Y-34250000D03*
%TO.P,C35,2*%
%TO.N,GND_MODEM*%
X19325000Y-34250000D03*
%TD*%
%TO.P,R59,1*%
%TO.N,GNSS_ANT_SWITCHED*%
X60675000Y-59750000D03*
%TO.P,R59,2*%
%TO.N,GNSS_ANT_DIV*%
X61325000Y-59750000D03*
%TD*%
%TO.P,C78,1*%
%TO.N,TAMPER_IN_U1*%
X101675000Y-18000000D03*
%TO.P,C78,2*%
%TO.N,GND_DIGITAL*%
X102325000Y-18000000D03*
%TD*%
D52*
%TO.P,U8,1*%
%TO.N,N/C*%
X14850000Y-42300000D03*
D53*
%TO.P,U8,2*%
X14850000Y-43400000D03*
%TO.P,U8,3*%
%TO.N,GND_MODEM*%
X14850000Y-44500000D03*
%TO.P,U8,4*%
%TO.N,N/C*%
X14850000Y-45600000D03*
%TO.P,U8,5*%
X14850000Y-46700000D03*
%TO.P,U8,6*%
X14850000Y-47800000D03*
%TO.P,U8,7*%
X14850000Y-48900000D03*
%TO.P,U8,8*%
%TO.N,CELL_USB_VBUS*%
X14850000Y-50000000D03*
%TO.P,U8,9*%
%TO.N,CELL_USB_DP_U8*%
X14850000Y-51100000D03*
%TO.P,U8,10*%
%TO.N,CELL_USB_DM_U8*%
X14850000Y-52200000D03*
%TO.P,U8,11*%
%TO.N,N/C*%
X14850000Y-53900000D03*
%TO.P,U8,12*%
X14850000Y-55000000D03*
%TO.P,U8,13*%
X14850000Y-56100000D03*
%TO.P,U8,14*%
X14850000Y-57200000D03*
%TO.P,U8,15*%
%TO.N,U8_PWRKEY_N*%
X14850000Y-58300000D03*
%TO.P,U8,16*%
%TO.N,N/C*%
X14850000Y-59400000D03*
%TO.P,U8,17*%
%TO.N,U8_RESET_N*%
X14850000Y-60500000D03*
%TO.P,U8,18*%
%TO.N,N/C*%
X14850000Y-61600000D03*
D54*
%TO.P,U8,19*%
X16550000Y-63000000D03*
%TO.P,U8,20*%
%TO.N,U8_STATUS_1V8*%
X17650000Y-63000000D03*
%TO.P,U8,21*%
%TO.N,N/C*%
X18750000Y-63000000D03*
%TO.P,U8,22*%
%TO.N,CELL_DBG_RXD_U8*%
X19850000Y-63000000D03*
%TO.P,U8,23*%
%TO.N,CELL_DBG_TXD_U8*%
X20950000Y-63000000D03*
%TO.P,U8,24*%
%TO.N,N/C*%
X22050000Y-63000000D03*
%TO.P,U8,25*%
X24550000Y-63000000D03*
%TO.P,U8,26*%
X25650000Y-63000000D03*
%TO.P,U8,27*%
X26750000Y-63000000D03*
%TO.P,U8,28*%
X27850000Y-63000000D03*
%TO.P,U8,29*%
%TO.N,U8_VDD_EXT_1V8*%
X28950000Y-63000000D03*
%TO.P,U8,30*%
%TO.N,U8_MAIN_DTR_1V8*%
X30050000Y-63000000D03*
%TO.P,U8,31*%
%TO.N,GND_MODEM*%
X31150000Y-63000000D03*
D53*
%TO.P,U8,32*%
%TO.N,3V8_MODEM_BB*%
X33150000Y-61600000D03*
%TO.P,U8,33*%
X33150000Y-60500000D03*
%TO.P,U8,34*%
%TO.N,U8_MAIN_RXD_1V8*%
X33150000Y-59400000D03*
%TO.P,U8,35*%
%TO.N,U8_MAIN_TXD_1V8*%
X33150000Y-58300000D03*
%TO.P,U8,36*%
%TO.N,N/C*%
X33150000Y-57200000D03*
%TO.P,U8,37*%
X33150000Y-56100000D03*
%TO.P,U8,38*%
X33150000Y-55000000D03*
%TO.P,U8,39*%
%TO.N,U8_MAIN_RI_1V8*%
X33150000Y-53900000D03*
%TO.P,U8,40*%
%TO.N,N/C*%
X33150000Y-52200000D03*
%TO.P,U8,41*%
X33150000Y-51100000D03*
%TO.P,U8,42*%
X33150000Y-50000000D03*
%TO.P,U8,43*%
%TO.N,CELL_USIM_VDD_1V8*%
X33150000Y-48900000D03*
%TO.P,U8,44*%
%TO.N,CELL_USIM_RST_1V8*%
X33150000Y-47800000D03*
%TO.P,U8,45*%
%TO.N,CELL_USIM_DATA_1V8*%
X33150000Y-46700000D03*
%TO.P,U8,46*%
%TO.N,CELL_USIM_CLK_1V8*%
X33150000Y-45600000D03*
%TO.P,U8,47*%
%TO.N,GND_MODEM*%
X33150000Y-44500000D03*
%TO.P,U8,48*%
X33150000Y-43400000D03*
%TO.P,U8,49*%
%TO.N,N/C*%
X33150000Y-42300000D03*
D54*
%TO.P,U8,50*%
%TO.N,GND_MODEM*%
X31150000Y-41000000D03*
%TO.P,U8,51*%
%TO.N,N/C*%
X30050000Y-41000000D03*
%TO.P,U8,52*%
%TO.N,3V8_MODEM_RF*%
X28950000Y-41000000D03*
%TO.P,U8,53*%
X27850000Y-41000000D03*
%TO.P,U8,54*%
%TO.N,GND_MODEM*%
X26750000Y-41000000D03*
%TO.P,U8,55*%
X25650000Y-41000000D03*
%TO.P,U8,56*%
%TO.N,N/C*%
X24550000Y-41000000D03*
%TO.P,U8,57*%
X22050000Y-41000000D03*
%TO.P,U8,58*%
%TO.N,GND_MODEM*%
X20950000Y-41000000D03*
%TO.P,U8,59*%
X19850000Y-41000000D03*
%TO.P,U8,60*%
%TO.N,CELL_RF*%
X18750000Y-41000000D03*
%TO.P,U8,61*%
%TO.N,GND_MODEM*%
X17650000Y-41000000D03*
%TO.P,U8,62*%
X16550000Y-41000000D03*
D55*
%TO.P,U8,63*%
%TO.N,N/C*%
X18050000Y-47750000D03*
%TO.P,U8,64*%
X18050000Y-49450000D03*
%TO.P,U8,65*%
X18050000Y-51150000D03*
%TO.P,U8,66*%
X18050000Y-52850000D03*
%TO.P,U8,67*%
%TO.N,GND_MODEM*%
X18050000Y-54550000D03*
%TO.P,U8,68*%
X18050000Y-56250000D03*
%TO.P,U8,69*%
X21450000Y-59650000D03*
%TO.P,U8,70*%
X23150000Y-59650000D03*
%TO.P,U8,71*%
X24850000Y-59650000D03*
%TO.P,U8,72*%
X26550000Y-59650000D03*
%TO.P,U8,73*%
X29950000Y-56250000D03*
%TO.P,U8,74*%
X29950000Y-54550000D03*
%TO.P,U8,75*%
%TO.N,CELL_USB_BOOT_1V8*%
X29950000Y-52850000D03*
%TO.P,U8,76*%
%TO.N,N/C*%
X29950000Y-51150000D03*
%TO.P,U8,77*%
X29950000Y-49450000D03*
%TO.P,U8,78*%
X29950000Y-47750000D03*
%TO.P,U8,79*%
%TO.N,GND_MODEM*%
X26550000Y-44350000D03*
%TO.P,U8,80*%
X24850000Y-44350000D03*
%TO.P,U8,81*%
X23150000Y-44350000D03*
%TO.P,U8,82*%
X21450000Y-44350000D03*
%TO.P,U8,83*%
%TO.N,N/C*%
X19750000Y-47750000D03*
%TO.P,U8,84*%
X19750000Y-49450000D03*
%TO.P,U8,85*%
X19750000Y-51150000D03*
%TO.P,U8,86*%
X19750000Y-52850000D03*
%TO.P,U8,87*%
X19750000Y-54550000D03*
%TO.P,U8,88*%
X19750000Y-56250000D03*
%TO.P,U8,89*%
%TO.N,GND_MODEM*%
X21450000Y-57950000D03*
%TO.P,U8,90*%
X23150000Y-57950000D03*
%TO.P,U8,91*%
X24850000Y-57950000D03*
%TO.P,U8,92*%
%TO.N,N/C*%
X26550000Y-57950000D03*
%TO.P,U8,93*%
X28250000Y-56250000D03*
%TO.P,U8,94*%
X28250000Y-54550000D03*
%TO.P,U8,95*%
X28250000Y-52850000D03*
%TO.P,U8,96*%
X28250000Y-51150000D03*
%TO.P,U8,97*%
X28250000Y-49450000D03*
%TO.P,U8,98*%
X28250000Y-47750000D03*
%TO.P,U8,99*%
X26550000Y-46050000D03*
%TO.P,U8,100*%
%TO.N,GND_MODEM*%
X24850000Y-46050000D03*
%TO.P,U8,101*%
X23150000Y-46050000D03*
%TO.P,U8,102*%
X21450000Y-46050000D03*
%TD*%
D56*
%TO.P,J_MIC2,*%
%TO.N,*%
X33645000Y-73600000D03*
X46355000Y-73600000D03*
D57*
%TO.P,J_MIC2,1*%
%TO.N,1V8_MIC*%
X36250000Y-68410000D03*
%TO.P,J_MIC2,2*%
%TO.N,GND_MIC*%
X37750000Y-68410000D03*
%TO.P,J_MIC2,3*%
%TO.N,PDM_CLK_1V8_FANOUT*%
X39250000Y-68410000D03*
%TO.P,J_MIC2,4*%
%TO.N,PDM_DATA2_1V8*%
X40750000Y-68410000D03*
%TO.P,J_MIC2,5*%
%TO.N,MIC_WAKE2*%
X42250000Y-68410000D03*
%TO.P,J_MIC2,6*%
%TO.N,AAD_CFG_1V8_FANOUT*%
X43750000Y-68410000D03*
%TD*%
D14*
%TO.P,C23,1*%
%TO.N,3V3_DIGITAL*%
X66425000Y-28500000D03*
%TO.P,C23,2*%
%TO.N,GND_DIGITAL*%
X67075000Y-28500000D03*
%TD*%
%TO.P,C18,1*%
%TO.N,NRST*%
X54675000Y-20750000D03*
%TO.P,C18,2*%
%TO.N,GND_DIGITAL*%
X55325000Y-20750000D03*
%TD*%
D18*
%TO.P,C72,1*%
%TO.N,3V3_DIGITAL*%
X101800000Y-28500000D03*
%TO.P,C72,2*%
%TO.N,GND_DIGITAL*%
X102700000Y-28500000D03*
%TD*%
D10*
%TO.P,R63,1*%
%TO.N,LORA_TXEN*%
X65575000Y-55000000D03*
%TO.P,R63,2*%
%TO.N,GND_DIGITAL*%
X64925000Y-55000000D03*
%TD*%
%TO.P,R92,1*%
%TO.N,USB_DM_U1*%
X63675000Y-26250000D03*
%TO.P,R92,2*%
%TO.N,USB_DM_CONN*%
X64325000Y-26250000D03*
%TD*%
%TO.P,R52,1*%
%TO.N,SIM1_DATA_MUX*%
X25075000Y-17750000D03*
%TO.P,R52,2*%
%TO.N,SIM1_DATA_CONN*%
X24425000Y-17750000D03*
%TD*%
D44*
%TO.P,D6,1*%
%TO.N,USB_VBUS_CONN*%
X46000000Y-10490000D03*
%TO.P,D6,2*%
%TO.N,GND_DIGITAL*%
X46000000Y-9010000D03*
%TD*%
D58*
%TO.P,J10,1*%
%TO.N,LORA_RF_ANT*%
X72950000Y-71500000D03*
D59*
%TO.P,J10,SHIELD*%
%TO.N,GND_DIGITAL*%
X74475000Y-70025000D03*
X74475000Y-72975000D03*
%TD*%
D14*
%TO.P,R42,1*%
%TO.N,3V8_MODEM*%
X9675000Y-57000000D03*
%TO.P,R42,2*%
%TO.N,3V8_MODEM_RF*%
X10325000Y-57000000D03*
%TD*%
D60*
%TO.P,J_PWR,1*%
%TO.N,3V8_MODEM*%
X8920000Y-29500000D03*
D61*
%TO.P,J_PWR,2*%
%TO.N,GND_MODEM*%
X8920000Y-26500000D03*
%TO.P,J_PWR,3*%
%TO.N,3V3_DIGITAL*%
X8920000Y-23500000D03*
%TO.P,J_PWR,4*%
%TO.N,GND_DIGITAL*%
X8920000Y-20500000D03*
%TO.P,J_PWR,5*%
%TO.N,1V8_MIC*%
X8920000Y-17500000D03*
%TO.P,J_PWR,6*%
%TO.N,GND_MIC*%
X8920000Y-14500000D03*
%TO.P,J_PWR,7*%
%TO.N,PWR_GOOD*%
X11920000Y-29500000D03*
%TO.P,J_PWR,8*%
%TO.N,FAULT*%
X11920000Y-26500000D03*
%TO.P,J_PWR,9*%
%TO.N,EN_MODEM*%
X11920000Y-23500000D03*
%TO.P,J_PWR,10*%
%TO.N,EN_AUX*%
X11920000Y-20500000D03*
%TO.P,J_PWR,11*%
%TO.N,I2C2_SCL_BUS*%
X11920000Y-17500000D03*
%TO.P,J_PWR,12*%
%TO.N,I2C2_SDA_BUS*%
X11920000Y-14500000D03*
%TD*%
D14*
%TO.P,C14,1*%
%TO.N,VCORE_1V1*%
X61425000Y-34750000D03*
%TO.P,C14,2*%
%TO.N,GND_DIGITAL*%
X62075000Y-34750000D03*
%TD*%
%TO.P,R94,1*%
%TO.N,USB_CC2*%
X38175000Y-11500000D03*
%TO.P,R94,2*%
%TO.N,GND_DIGITAL*%
X38825000Y-11500000D03*
%TD*%
%TO.P,R66,1*%
%TO.N,LORA_BUSY*%
X82425000Y-53750000D03*
%TO.P,R66,2*%
%TO.N,GND_DIGITAL*%
X83075000Y-53750000D03*
%TD*%
%TO.P,R64,1*%
%TO.N,LORA_RXEN*%
X82425000Y-55000000D03*
%TO.P,R64,2*%
%TO.N,GND_DIGITAL*%
X83075000Y-55000000D03*
%TD*%
%TO.P,R82,1*%
%TO.N,SD_D1_U1*%
X84425000Y-24250000D03*
%TO.P,R82,2*%
%TO.N,SD_D1_CARD*%
X85075000Y-24250000D03*
%TD*%
D10*
%TO.P,R16,1*%
%TO.N,I2C2_SDA_U1*%
X42575000Y-36500000D03*
%TO.P,R16,2*%
%TO.N,I2C2_SDA_BUS*%
X41925000Y-36500000D03*
%TD*%
D14*
%TO.P,R28,1*%
%TO.N,3V3_DIGITAL*%
X16925000Y-35500000D03*
%TO.P,R28,2*%
%TO.N,CELL_TX_U16*%
X17575000Y-35500000D03*
%TD*%
%TO.P,C53,1*%
%TO.N,SIM2_DET*%
X59425000Y-16500000D03*
%TO.P,C53,2*%
%TO.N,GND_MODEM*%
X60075000Y-16500000D03*
%TD*%
%TO.P,C64,1*%
%TO.N,GNSS_RF_ANT_BIASED*%
X58625000Y-51600000D03*
%TO.P,C64,2*%
%TO.N,GNSS_RF_DC_BLOCK*%
X57975000Y-51600000D03*
%TD*%
%TO.P,R26,1*%
%TO.N,CELL_RESET_N_CMD*%
X13425000Y-34250000D03*
%TO.P,R26,2*%
%TO.N,Q2_BASE*%
X14075000Y-34250000D03*
%TD*%
%TO.P,R15,1*%
%TO.N,I2C2_SCL_U1*%
X63175000Y-31500000D03*
%TO.P,R15,2*%
%TO.N,I2C2_SCL_BUS*%
X63825000Y-31500000D03*
%TD*%
%TO.P,R74,1*%
%TO.N,BLE_RX_U11*%
X101925000Y-41750000D03*
%TO.P,R74,2*%
%TO.N,BLE_RX_U1*%
X102575000Y-41750000D03*
%TD*%
%TO.P,C3,1*%
%TO.N,3V3_DIGITAL*%
X61425000Y-36000000D03*
%TO.P,C3,2*%
%TO.N,GND_DIGITAL*%
X62075000Y-36000000D03*
%TD*%
%TO.P,C39,1*%
%TO.N,3V8_MODEM_BB*%
X9675000Y-53250000D03*
%TO.P,C39,2*%
%TO.N,GND_MODEM*%
X10325000Y-53250000D03*
%TD*%
%TO.P,R24,1*%
%TO.N,CELL_PWRKEY_CMD*%
X11675000Y-34250000D03*
%TO.P,R24,2*%
%TO.N,Q1_BASE*%
X12325000Y-34250000D03*
%TD*%
D62*
%TO.P,D2,1*%
%TO.N,3V8_MODEM_RF*%
X9900000Y-41000000D03*
%TO.P,D2,2*%
%TO.N,GND_MODEM*%
X10600000Y-41000000D03*
%TD*%
D10*
%TO.P,C58,1*%
%TO.N,SIM2_CLK_CONN*%
X63575000Y-16500000D03*
%TO.P,C58,2*%
%TO.N,GND_MODEM*%
X62925000Y-16500000D03*
%TD*%
D63*
%TO.P,FB1,1*%
%TO.N,3V8_MODEM*%
X38100000Y-52000000D03*
%TO.P,FB1,2*%
%TO.N,3V8_MODEM_BB*%
X39900000Y-52000000D03*
%TD*%
D10*
%TO.P,C73,1*%
%TO.N,3V3_DIGITAL*%
X92075000Y-33000000D03*
%TO.P,C73,2*%
%TO.N,GND_DIGITAL*%
X91425000Y-33000000D03*
%TD*%
D14*
%TO.P,R21,1*%
%TO.N,MIC_WAKE3*%
X89175000Y-65250000D03*
%TO.P,R21,2*%
%TO.N,GND_MIC*%
X89825000Y-65250000D03*
%TD*%
%TO.P,C60,1*%
%TO.N,3V3_DIGITAL*%
X59425000Y-62750000D03*
%TO.P,C60,2*%
%TO.N,GND_DIGITAL*%
X60075000Y-62750000D03*
%TD*%
D10*
%TO.P,R91,1*%
%TO.N,USB_DP_U1*%
X63675000Y-25250000D03*
%TO.P,R91,2*%
%TO.N,USB_DP_CONN*%
X64325000Y-25250000D03*
%TD*%
D14*
%TO.P,R32,1*%
%TO.N,3V3_DIGITAL*%
X16925000Y-28250000D03*
%TO.P,R32,2*%
%TO.N,CELL_RX_U16*%
X17575000Y-28250000D03*
%TD*%
D64*
%TO.P,U18,1*%
%TO.N,1V8_MIC*%
X52760000Y-45500000D03*
%TO.P,U18,2*%
%TO.N,GND_DIGITAL*%
X52760000Y-46000000D03*
%TO.P,U18,3*%
%TO.N,MIC_WAKE_OR_1V8*%
X52760000Y-46500000D03*
%TO.P,U18,4*%
%TO.N,MIC_WAKE*%
X54240000Y-46500000D03*
%TO.P,U18,5*%
%TO.N,1V8_MIC*%
X54240000Y-46000000D03*
%TO.P,U18,6*%
%TO.N,3V3_DIGITAL*%
X54240000Y-45500000D03*
%TD*%
D14*
%TO.P,C5,1*%
%TO.N,3V3_DIGITAL*%
X45675000Y-20750000D03*
%TO.P,C5,2*%
%TO.N,GND_DIGITAL*%
X46325000Y-20750000D03*
%TD*%
D19*
%TO.P,U22,1*%
%TO.N,PDM_CLK_1V8_FANOUT*%
X100332500Y-53000000D03*
%TO.P,U22,2*%
%TO.N,PDM_DATA4_1V8*%
X100332500Y-53500000D03*
D20*
%TO.P,U22,3*%
%TO.N,GND_MIC*%
X100332500Y-54000000D03*
D19*
%TO.P,U22,4*%
%TO.N,MIC_WAKE4*%
X100332500Y-54500000D03*
%TO.P,U22,5*%
%TO.N,AAD_CFG_1V8_FANOUT*%
X100332500Y-55000000D03*
%TO.P,U22,6*%
%TO.N,N/C*%
X101167500Y-55000000D03*
%TO.P,U22,7*%
X101167500Y-54500000D03*
D20*
%TO.P,U22,8*%
%TO.N,GND_MIC*%
X101167500Y-54000000D03*
D19*
%TO.P,U22,9*%
%TO.N,N/C*%
X101167500Y-53500000D03*
%TO.P,U22,10*%
X101167500Y-53000000D03*
%TD*%
D65*
%TO.P,U14,1*%
%TO.N,SIM1_VDD_CONN*%
X21195000Y-19000000D03*
%TO.P,U14,2*%
%TO.N,GND_MODEM*%
X21195000Y-19500000D03*
%TO.P,U14,3*%
%TO.N,SIM1_RST_CONN*%
X21195000Y-20000000D03*
%TO.P,U14,4*%
%TO.N,SIM1_CLK_CONN*%
X22805000Y-20000000D03*
%TO.P,U14,5*%
%TO.N,SIM1_DATA_CONN*%
X22805000Y-19500000D03*
%TO.P,U14,6*%
%TO.N,SIM1_DET*%
X22805000Y-19000000D03*
%TD*%
D14*
%TO.P,C47,1*%
%TO.N,3V8_MODEM_RF*%
X9675000Y-47000000D03*
%TO.P,C47,2*%
%TO.N,GND_MODEM*%
X10325000Y-47000000D03*
%TD*%
%TO.P,R93,1*%
%TO.N,USB_CC1*%
X43675000Y-11500000D03*
%TO.P,R93,2*%
%TO.N,GND_DIGITAL*%
X44325000Y-11500000D03*
%TD*%
%TO.P,R20,1*%
%TO.N,MIC_WAKE2*%
X37925000Y-65500000D03*
%TO.P,R20,2*%
%TO.N,GND_MIC*%
X38575000Y-65500000D03*
%TD*%
D10*
%TO.P,R55,1*%
%TO.N,SIM2_DATA_MUX*%
X67075000Y-17750000D03*
%TO.P,R55,2*%
%TO.N,SIM2_DATA_CONN*%
X66425000Y-17750000D03*
%TD*%
D14*
%TO.P,C41,1*%
%TO.N,3V8_MODEM_BB*%
X9675000Y-54500000D03*
%TO.P,C41,2*%
%TO.N,GND_MODEM*%
X10325000Y-54500000D03*
%TD*%
%TO.P,R98,1*%
%TO.N,USB_SHIELD*%
X39675000Y-12750000D03*
%TO.P,R98,2*%
%TO.N,GND_DIGITAL*%
X40325000Y-12750000D03*
%TD*%
%TO.P,R86,1*%
%TO.N,3V3_DIGITAL*%
X84425000Y-23000000D03*
%TO.P,R86,2*%
%TO.N,SD_D0_CARD*%
X85075000Y-23000000D03*
%TD*%
%TO.P,R80,1*%
%TO.N,SD_CMD_U1*%
X82675000Y-24250000D03*
%TO.P,R80,2*%
%TO.N,SD_CMD_CARD*%
X83325000Y-24250000D03*
%TD*%
%TO.P,C16,1*%
%TO.N,VCORE_1V1*%
X61425000Y-33500000D03*
%TO.P,C16,2*%
%TO.N,GND_DIGITAL*%
X62075000Y-33500000D03*
%TD*%
D65*
%TO.P,U15,1*%
%TO.N,SIM2_VDD_CONN*%
X72695000Y-11500000D03*
%TO.P,U15,2*%
%TO.N,GND_MODEM*%
X72695000Y-12000000D03*
%TO.P,U15,3*%
%TO.N,SIM2_RST_CONN*%
X72695000Y-12500000D03*
%TO.P,U15,4*%
%TO.N,SIM2_CLK_CONN*%
X74305000Y-12500000D03*
%TO.P,U15,5*%
%TO.N,SIM2_DATA_CONN*%
X74305000Y-12000000D03*
%TO.P,U15,6*%
%TO.N,SIM2_DET*%
X74305000Y-11500000D03*
%TD*%
D18*
%TO.P,C6,1*%
%TO.N,3V3_DIGITAL*%
X41550000Y-30000000D03*
%TO.P,C6,2*%
%TO.N,GND_DIGITAL*%
X42450000Y-30000000D03*
%TD*%
D14*
%TO.P,R2,1*%
%TO.N,BOOT0*%
X61425000Y-31500000D03*
%TO.P,R2,2*%
%TO.N,GND_DIGITAL*%
X62075000Y-31500000D03*
%TD*%
D10*
%TO.P,R68,1*%
%TO.N,3V3_DIGITAL*%
X83075000Y-56250000D03*
%TO.P,R68,2*%
%TO.N,LORA_NSS_U10*%
X82425000Y-56250000D03*
%TD*%
D66*
%TO.P,U4,1*%
%TO.N,I2C2_SCL_BUS*%
X65350000Y-37365000D03*
D67*
%TO.P,U4,2*%
%TO.N,N/C*%
X66000000Y-37365000D03*
%TO.P,U4,3*%
%TO.N,3V3_DIGITAL*%
X66650000Y-37365000D03*
%TO.P,U4,4*%
%TO.N,GND_DIGITAL*%
X66650000Y-35635000D03*
%TO.P,U4,5*%
X66000000Y-35635000D03*
%TO.P,U4,6*%
%TO.N,I2C2_SDA_BUS*%
X65350000Y-35635000D03*
D68*
%TO.P,U4,EP*%
%TO.N,N/C*%
X66000000Y-36500000D03*
%TD*%
D69*
%TO.P,U6,1*%
%TO.N,N/C*%
X89200000Y-34550000D03*
%TO.P,U6,2*%
%TO.N,BLE_EN*%
X89200000Y-35500000D03*
%TO.P,U6,3*%
%TO.N,GND_DIGITAL*%
X89200000Y-36450000D03*
%TO.P,U6,4*%
%TO.N,NRF_RESET_N*%
X91800000Y-36450000D03*
%TO.P,U6,5*%
%TO.N,3V3_DIGITAL*%
X91800000Y-34550000D03*
%TD*%
D10*
%TO.P,R23,1*%
%TO.N,MIC_WAKE*%
X53825000Y-47750000D03*
%TO.P,R23,2*%
%TO.N,GND_DIGITAL*%
X53175000Y-47750000D03*
%TD*%
D14*
%TO.P,R96,1*%
%TO.N,USB_VBUS_SENSE*%
X41925000Y-22750000D03*
%TO.P,R96,2*%
%TO.N,GND_DIGITAL*%
X42575000Y-22750000D03*
%TD*%
%TO.P,R51,1*%
%TO.N,SIM1_CLK_MUX*%
X24675000Y-20750000D03*
%TO.P,R51,2*%
%TO.N,SIM1_CLK_CONN*%
X25325000Y-20750000D03*
%TD*%
D70*
%TO.P,Q4,1*%
%TO.N,GND_DIGITAL*%
X60362000Y-64500000D03*
%TO.P,Q4,2*%
%TO.N,GNSS_ANT_OFF_N*%
X60362000Y-65000000D03*
%TO.P,Q4,3*%
%TO.N,GNSS_ANT_SWITCHED*%
X60362000Y-65500000D03*
%TO.P,Q4,4*%
%TO.N,GNSS_ANT_BIAS_RAW*%
X61638000Y-65500000D03*
%TO.P,Q4,5*%
%TO.N,GNSS_ANT_GATE*%
X61638000Y-65000000D03*
%TO.P,Q4,6*%
X61638000Y-64500000D03*
%TD*%
D71*
%TO.P,J6,1*%
%TO.N,SIM1_VDD_CONN*%
X19095000Y-13930000D03*
%TO.P,J6,2*%
%TO.N,SIM1_RST_CONN*%
X21635000Y-13930000D03*
%TO.P,J6,3*%
%TO.N,SIM1_CLK_CONN*%
X24175000Y-13930000D03*
%TO.P,J6,4*%
%TO.N,GND_MODEM*%
X17825000Y-13930000D03*
%TO.P,J6,5*%
%TO.N,N/C*%
X20365000Y-13930000D03*
%TO.P,J6,6*%
%TO.N,SIM1_DATA_CONN*%
X22905000Y-13930000D03*
D72*
%TO.P,J6,7*%
%TO.N,SIM1_DET*%
X16875000Y-12905000D03*
D73*
%TO.P,J6,SHIELD*%
%TO.N,GND_MODEM*%
X27500000Y-4550000D03*
X14500000Y-4550000D03*
%TD*%
D14*
%TO.P,R97,1*%
%TO.N,USB_SHIELD*%
X42675000Y-12750000D03*
%TO.P,R97,2*%
%TO.N,GND_DIGITAL*%
X43325000Y-12750000D03*
%TD*%
%TO.P,C37,1*%
%TO.N,3V8_MODEM_BB*%
X6425000Y-52500000D03*
%TO.P,C37,2*%
%TO.N,GND_MODEM*%
X7075000Y-52500000D03*
%TD*%
%TO.P,R54,1*%
%TO.N,SIM2_CLK_MUX*%
X68175000Y-16500000D03*
%TO.P,R54,2*%
%TO.N,SIM2_CLK_CONN*%
X68825000Y-16500000D03*
%TD*%
%TO.P,R73,1*%
%TO.N,LORA_RF_MODULE*%
X66675000Y-69250000D03*
%TO.P,R73,2*%
%TO.N,LORA_RF_ANT*%
X67325000Y-69250000D03*
%TD*%
%TO.P,C74,1*%
%TO.N,3V3_DIGITAL*%
X92675000Y-20500000D03*
%TO.P,C74,2*%
%TO.N,GND_DIGITAL*%
X93325000Y-20500000D03*
%TD*%
%TO.P,R50,1*%
%TO.N,SIM1_RST_MUX*%
X23425000Y-16500000D03*
%TO.P,R50,2*%
%TO.N,SIM1_RST_CONN*%
X24075000Y-16500000D03*
%TD*%
%TO.P,C28,1*%
%TO.N,3V3_DIGITAL*%
X62425000Y-40250000D03*
%TO.P,C28,2*%
%TO.N,GND_DIGITAL*%
X63075000Y-40250000D03*
%TD*%
%TO.P,C11,1*%
%TO.N,VREF+*%
X41925000Y-31500000D03*
%TO.P,C11,2*%
%TO.N,GND_DIGITAL*%
X42575000Y-31500000D03*
%TD*%
D63*
%TO.P,R62,1*%
%TO.N,GNSS_ANT_SWITCHED*%
X52600000Y-51250000D03*
%TO.P,R62,2*%
%TO.N,GNSS_ANT_SHORT_N*%
X54400000Y-51250000D03*
%TD*%
D14*
%TO.P,R33,1*%
%TO.N,3V3_DIGITAL*%
X16925000Y-34250000D03*
%TO.P,R33,2*%
%TO.N,CELL_RI_U16*%
X17575000Y-34250000D03*
%TD*%
%TO.P,C12,1*%
%TO.N,3V3_DIGITAL*%
X61425000Y-25250000D03*
%TO.P,C12,2*%
%TO.N,GND_DIGITAL*%
X62075000Y-25250000D03*
%TD*%
%TO.P,C45,1*%
%TO.N,3V8_MODEM_RF*%
X9675000Y-55750000D03*
%TO.P,C45,2*%
%TO.N,GND_MODEM*%
X10325000Y-55750000D03*
%TD*%
D43*
%TO.P,L2,1*%
%TO.N,GNSS_ANT_SHORT_N*%
X59750000Y-70575000D03*
%TO.P,L2,2*%
%TO.N,GNSS_RF_ANT_BIASED*%
X59750000Y-69925000D03*
%TD*%
D14*
%TO.P,R38,1*%
%TO.N,CELL_USB_BOOT_TP*%
X37675000Y-59250000D03*
%TO.P,R38,2*%
%TO.N,CELL_USB_BOOT_1V8*%
X38325000Y-59250000D03*
%TD*%
%TO.P,R47,1*%
%TO.N,Q3_BASE*%
X31175000Y-16500000D03*
%TO.P,R47,2*%
%TO.N,GND_MODEM*%
X31825000Y-16500000D03*
%TD*%
D13*
%TO.P,Q2,1*%
%TO.N,Q2_BASE*%
X17000000Y-31050000D03*
%TO.P,Q2,2*%
%TO.N,GND_MODEM*%
X17000000Y-32950000D03*
%TO.P,Q2,3*%
%TO.N,U8_RESET_N*%
X19000000Y-32000000D03*
%TD*%
D14*
%TO.P,C9,1*%
%TO.N,3V3_DIGITAL*%
X41925000Y-32750000D03*
%TO.P,C9,2*%
%TO.N,GND_DIGITAL*%
X42575000Y-32750000D03*
%TD*%
D10*
%TO.P,C70,1*%
%TO.N,LORA_RF_ANT*%
X67325000Y-66750000D03*
%TO.P,C70,2*%
%TO.N,GND_DIGITAL*%
X66675000Y-66750000D03*
%TD*%
D14*
%TO.P,R41,1*%
%TO.N,U8_VDD_EXT_1V8*%
X39425000Y-56750000D03*
%TO.P,R41,2*%
%TO.N,CELL_DBG_VREF_TP*%
X40075000Y-56750000D03*
%TD*%
D10*
%TO.P,C68,1*%
%TO.N,LORA_RESET_N*%
X65575000Y-50750000D03*
%TO.P,C68,2*%
%TO.N,GND_DIGITAL*%
X64925000Y-50750000D03*
%TD*%
D14*
%TO.P,R95,1*%
%TO.N,USB_VBUS_CONN*%
X46675000Y-15000000D03*
%TO.P,R95,2*%
%TO.N,USB_VBUS_SENSE*%
X47325000Y-15000000D03*
%TD*%
%TO.P,R10,1*%
%TO.N,NOR_IO1_U1*%
X41925000Y-24000000D03*
%TO.P,R10,2*%
%TO.N,NOR_IO1_U2*%
X42575000Y-24000000D03*
%TD*%
%TO.P,C66,1*%
%TO.N,3V3_DIGITAL*%
X82425000Y-51000000D03*
%TO.P,C66,2*%
%TO.N,GND_DIGITAL*%
X83075000Y-51000000D03*
%TD*%
%TO.P,C15,1*%
%TO.N,VCORE_1V1*%
X47425000Y-20750000D03*
%TO.P,C15,2*%
%TO.N,GND_DIGITAL*%
X48075000Y-20750000D03*
%TD*%
%TO.P,R60,1*%
%TO.N,GNSS_ANT_DIV*%
X48175000Y-65000000D03*
%TO.P,R60,2*%
%TO.N,GND_DIGITAL*%
X48825000Y-65000000D03*
%TD*%
D32*
%TO.P,U16,1*%
%TO.N,U8_VDD_EXT_1V8*%
X21100000Y-29175000D03*
%TO.P,U16,2*%
X21100000Y-29825000D03*
%TO.P,U16,3*%
%TO.N,U8_MAIN_TXD_1V8*%
X21100000Y-30475000D03*
%TO.P,U16,4*%
%TO.N,U8_STATUS_1V8*%
X21100000Y-31125000D03*
%TO.P,U16,5*%
%TO.N,U8_MAIN_RI_1V8*%
X21100000Y-31775000D03*
%TO.P,U16,6*%
%TO.N,GND_MODEM*%
X21100000Y-32425000D03*
%TO.P,U16,7*%
%TO.N,U8_MAIN_RXD_1V8*%
X21100000Y-33075000D03*
%TO.P,U16,8*%
%TO.N,U8_MAIN_DTR_1V8*%
X21100000Y-33725000D03*
%TO.P,U16,9*%
%TO.N,N/C*%
X21100000Y-34375000D03*
%TO.P,U16,10*%
X21100000Y-35025000D03*
%TO.P,U16,11*%
%TO.N,GND_MODEM*%
X21100000Y-35675000D03*
%TO.P,U16,12*%
X21100000Y-36325000D03*
%TO.P,U16,13*%
X26900000Y-36325000D03*
%TO.P,U16,14*%
X26900000Y-35675000D03*
%TO.P,U16,15*%
X26900000Y-35025000D03*
%TO.P,U16,16*%
%TO.N,CELL_DTR_U16*%
X26900000Y-34375000D03*
%TO.P,U16,17*%
%TO.N,CELL_TX_U16*%
X26900000Y-33725000D03*
%TO.P,U16,18*%
%TO.N,N/C*%
X26900000Y-33075000D03*
%TO.P,U16,19*%
%TO.N,CELL_RI_U16*%
X26900000Y-32425000D03*
%TO.P,U16,20*%
%TO.N,CELL_STATUS_U16*%
X26900000Y-31775000D03*
%TO.P,U16,21*%
%TO.N,CELL_RX_U16*%
X26900000Y-31125000D03*
%TO.P,U16,22*%
%TO.N,GND_MODEM*%
X26900000Y-30475000D03*
%TO.P,U16,23*%
%TO.N,3V3_DIGITAL*%
X26900000Y-29825000D03*
%TO.P,U16,24*%
X26900000Y-29175000D03*
%TD*%
D14*
%TO.P,C4,1*%
%TO.N,3V3_DIGITAL*%
X61425000Y-24000000D03*
%TO.P,C4,2*%
%TO.N,GND_DIGITAL*%
X62075000Y-24000000D03*
%TD*%
D32*
%TO.P,U7,1*%
%TO.N,1V8_MIC*%
X56850000Y-41675000D03*
%TO.P,U7,2*%
X56850000Y-42325000D03*
%TO.P,U7,3*%
%TO.N,PDM_DATA1_1V8*%
X56850000Y-42975000D03*
%TO.P,U7,4*%
%TO.N,PDM_DATA2_1V8*%
X56850000Y-43625000D03*
%TO.P,U7,5*%
%TO.N,PDM_DATA3_1V8*%
X56850000Y-44275000D03*
%TO.P,U7,6*%
%TO.N,PDM_DATA4_1V8*%
X56850000Y-44925000D03*
%TO.P,U7,7*%
%TO.N,PDM_CLK_1V8_U7*%
X56850000Y-45575000D03*
%TO.P,U7,8*%
%TO.N,AAD_CFG_1V8_U7*%
X56850000Y-46225000D03*
%TO.P,U7,9*%
%TO.N,N/C*%
X56850000Y-46875000D03*
%TO.P,U7,10*%
X56850000Y-47525000D03*
%TO.P,U7,11*%
%TO.N,GND_DIGITAL*%
X56850000Y-48175000D03*
%TO.P,U7,12*%
X56850000Y-48825000D03*
%TO.P,U7,13*%
X62650000Y-48825000D03*
%TO.P,U7,14*%
X62650000Y-48175000D03*
%TO.P,U7,15*%
X62650000Y-47525000D03*
%TO.P,U7,16*%
%TO.N,AAD_CFG*%
X62650000Y-46875000D03*
%TO.P,U7,17*%
%TO.N,PDM_CLK*%
X62650000Y-46225000D03*
%TO.P,U7,18*%
%TO.N,PDM_DATA4*%
X62650000Y-45575000D03*
%TO.P,U7,19*%
%TO.N,PDM_DATA3*%
X62650000Y-44925000D03*
%TO.P,U7,20*%
%TO.N,PDM_DATA2*%
X62650000Y-44275000D03*
%TO.P,U7,21*%
%TO.N,PDM_DATA1*%
X62650000Y-43625000D03*
%TO.P,U7,22*%
%TO.N,GND_DIGITAL*%
X62650000Y-42975000D03*
%TO.P,U7,23*%
%TO.N,3V3_DIGITAL*%
X62650000Y-42325000D03*
%TO.P,U7,24*%
X62650000Y-41675000D03*
%TD*%
D14*
%TO.P,C43,1*%
%TO.N,3V8_MODEM_BB*%
X9675000Y-48250000D03*
%TO.P,C43,2*%
%TO.N,GND_MODEM*%
X10325000Y-48250000D03*
%TD*%
D58*
%TO.P,J8,1*%
%TO.N,CELL_RF_ANT*%
X14950000Y-71500000D03*
D59*
%TO.P,J8,SHIELD*%
%TO.N,GND_MODEM*%
X16475000Y-70025000D03*
X16475000Y-72975000D03*
%TD*%
D14*
%TO.P,C1,1*%
%TO.N,3V3_DIGITAL*%
X41925000Y-28500000D03*
%TO.P,C1,2*%
%TO.N,GND_DIGITAL*%
X42575000Y-28500000D03*
%TD*%
%TO.P,R35,1*%
%TO.N,CELL_USB_BOOT_1V8*%
X37675000Y-58000000D03*
%TO.P,R35,2*%
%TO.N,GND_MODEM*%
X38325000Y-58000000D03*
%TD*%
D74*
%TO.P,X1,1*%
%TO.N,GND_DIGITAL*%
X61250000Y-30205000D03*
%TO.P,X1,2*%
%TO.N,LSE_IN*%
X62250000Y-30205000D03*
%TO.P,X1,3*%
%TO.N,3V3_DIGITAL*%
X62250000Y-29795000D03*
%TO.P,X1,4*%
%TO.N,GND_DIGITAL*%
X61250000Y-29795000D03*
%TD*%
D75*
%TO.P,U26,1*%
%TO.N,CELL_USB_DP_TP*%
X8075000Y-51150000D03*
%TO.P,U26,2*%
%TO.N,CELL_USB_DM_TP*%
X8075000Y-51850000D03*
%TO.P,U26,3*%
%TO.N,GND_MODEM*%
X8925000Y-51500000D03*
%TD*%
D10*
%TO.P,R58,1*%
%TO.N,GNSS_PPS_U9*%
X47575000Y-59250000D03*
%TO.P,R58,2*%
%TO.N,GNSS_PPS_U1*%
X46925000Y-59250000D03*
%TD*%
D18*
%TO.P,C13,1*%
%TO.N,3V3_DIGITAL*%
X61550000Y-37750000D03*
%TO.P,C13,2*%
%TO.N,GND_DIGITAL*%
X62450000Y-37750000D03*
%TD*%
D14*
%TO.P,C49,1*%
%TO.N,3V3_DIGITAL*%
X31175000Y-19000000D03*
%TO.P,C49,2*%
%TO.N,GND_MODEM*%
X31825000Y-19000000D03*
%TD*%
%TO.P,C42,1*%
%TO.N,3V8_MODEM_BB*%
X37675000Y-55500000D03*
%TO.P,C42,2*%
%TO.N,GND_MODEM*%
X38325000Y-55500000D03*
%TD*%
%TO.P,C2,1*%
%TO.N,3V3_DIGITAL*%
X41925000Y-37750000D03*
%TO.P,C2,2*%
%TO.N,GND_DIGITAL*%
X42575000Y-37750000D03*
%TD*%
D18*
%TO.P,C67,1*%
%TO.N,3V3_DIGITAL*%
X82550000Y-49500000D03*
%TO.P,C67,2*%
%TO.N,GND_DIGITAL*%
X83450000Y-49500000D03*
%TD*%
D14*
%TO.P,R81,1*%
%TO.N,SD_D0_U1*%
X87925000Y-23000000D03*
%TO.P,R81,2*%
%TO.N,SD_D0_CARD*%
X88575000Y-23000000D03*
%TD*%
%TO.P,C8,1*%
%TO.N,3V3_DIGITAL*%
X41925000Y-34000000D03*
%TO.P,C8,2*%
%TO.N,GND_DIGITAL*%
X42575000Y-34000000D03*
%TD*%
%TO.P,C22,1*%
%TO.N,3V3_DIGITAL*%
X68675000Y-27000000D03*
%TO.P,C22,2*%
%TO.N,GND_DIGITAL*%
X69325000Y-27000000D03*
%TD*%
D44*
%TO.P,D7,1*%
%TO.N,USB_CC1*%
X44000000Y-10490000D03*
%TO.P,D7,2*%
%TO.N,GND_DIGITAL*%
X44000000Y-9010000D03*
%TD*%
D10*
%TO.P,C79,1*%
%TO.N,CELL_RF*%
X24325000Y-68000000D03*
%TO.P,C79,2*%
%TO.N,GND_MODEM*%
X23675000Y-68000000D03*
%TD*%
D14*
%TO.P,R19,1*%
%TO.N,MIC_WAKE1*%
X8175000Y-42500000D03*
%TO.P,R19,2*%
%TO.N,GND_MIC*%
X8825000Y-42500000D03*
%TD*%
D19*
%TO.P,U27,1*%
%TO.N,CELL_DBG_TXD_TP*%
X40582500Y-64000000D03*
%TO.P,U27,2*%
%TO.N,CELL_DBG_RXD_TP*%
X40582500Y-64500000D03*
D20*
%TO.P,U27,3*%
%TO.N,GND_MODEM*%
X40582500Y-65000000D03*
D19*
%TO.P,U27,4*%
%TO.N,CELL_DBG_VREF_TP*%
X40582500Y-65500000D03*
%TO.P,U27,5*%
%TO.N,CELL_USB_BOOT_TP*%
X40582500Y-66000000D03*
%TO.P,U27,6*%
%TO.N,N/C*%
X41417500Y-66000000D03*
%TO.P,U27,7*%
X41417500Y-65500000D03*
D20*
%TO.P,U27,8*%
%TO.N,GND_MODEM*%
X41417500Y-65000000D03*
D19*
%TO.P,U27,9*%
%TO.N,N/C*%
X41417500Y-64500000D03*
%TO.P,U27,10*%
X41417500Y-64000000D03*
%TD*%
D58*
%TO.P,J9,1*%
%TO.N,GNSS_RF_ANT_BIASED*%
X52450000Y-68000000D03*
D59*
%TO.P,J9,SHIELD*%
%TO.N,GND_DIGITAL*%
X53975000Y-66525000D03*
X53975000Y-69475000D03*
%TD*%
D76*
%TO.P,U5,1*%
%TO.N,GNSS_ANT_DIV*%
X61500000Y-58425000D03*
D77*
%TO.P,U5,2*%
%TO.N,GNSS_ANT_SHORT_N*%
X61000000Y-58425000D03*
%TO.P,U5,3*%
%TO.N,GNSS_ANT_BIAS_RAW*%
X60500000Y-58425000D03*
%TO.P,U5,4*%
X60500000Y-55575000D03*
%TO.P,U5,5*%
%TO.N,GND_DIGITAL*%
X61000000Y-55575000D03*
%TO.P,U5,6*%
%TO.N,GNSS_ANT_DETECT*%
X61500000Y-55575000D03*
D78*
%TO.P,U5,EP*%
%TO.N,GND_DIGITAL*%
X61000000Y-57000000D03*
%TD*%
D10*
%TO.P,R49,1*%
%TO.N,3V3_DIGITAL*%
X58325000Y-17750000D03*
%TO.P,R49,2*%
%TO.N,SIM2_DET*%
X57675000Y-17750000D03*
%TD*%
D13*
%TO.P,Q3,1*%
%TO.N,Q3_BASE*%
X26500000Y-17050000D03*
%TO.P,Q3,2*%
%TO.N,GND_MODEM*%
X26500000Y-18950000D03*
%TO.P,Q3,3*%
%TO.N,U13_EN_N*%
X28500000Y-18000000D03*
%TD*%
D14*
%TO.P,C25,1*%
%TO.N,3V3_DIGITAL*%
X66425000Y-27250000D03*
%TO.P,C25,2*%
%TO.N,GND_DIGITAL*%
X67075000Y-27250000D03*
%TD*%
%TO.P,R22,1*%
%TO.N,MIC_WAKE4*%
X99675000Y-51750000D03*
%TO.P,R22,2*%
%TO.N,GND_MIC*%
X100325000Y-51750000D03*
%TD*%
D71*
%TO.P,J7,1*%
%TO.N,SIM2_VDD_CONN*%
X62095000Y-13930000D03*
%TO.P,J7,2*%
%TO.N,SIM2_RST_CONN*%
X64635000Y-13930000D03*
%TO.P,J7,3*%
%TO.N,SIM2_CLK_CONN*%
X67175000Y-13930000D03*
%TO.P,J7,4*%
%TO.N,GND_MODEM*%
X60825000Y-13930000D03*
%TO.P,J7,5*%
%TO.N,N/C*%
X63365000Y-13930000D03*
%TO.P,J7,6*%
%TO.N,SIM2_DATA_CONN*%
X65905000Y-13930000D03*
D72*
%TO.P,J7,7*%
%TO.N,SIM2_DET*%
X59875000Y-12905000D03*
D73*
%TO.P,J7,SHIELD*%
%TO.N,GND_MODEM*%
X70500000Y-4550000D03*
X57500000Y-4550000D03*
%TD*%
D10*
%TO.P,R78,1*%
%TO.N,3V3_DIGITAL*%
X93325000Y-38000000D03*
%TO.P,R78,2*%
%TO.N,NRF_RESET_N*%
X92675000Y-38000000D03*
%TD*%
D79*
%TO.P,J_MIC1,*%
%TO.N,*%
X1400000Y-36145000D03*
X1400000Y-48855000D03*
D80*
%TO.P,J_MIC1,1*%
%TO.N,1V8_MIC*%
X6590000Y-38750000D03*
%TO.P,J_MIC1,2*%
%TO.N,GND_MIC*%
X6590000Y-40250000D03*
%TO.P,J_MIC1,3*%
%TO.N,PDM_CLK_1V8_FANOUT*%
X6590000Y-41750000D03*
%TO.P,J_MIC1,4*%
%TO.N,PDM_DATA1_1V8*%
X6590000Y-43250000D03*
%TO.P,J_MIC1,5*%
%TO.N,MIC_WAKE1*%
X6590000Y-44750000D03*
%TO.P,J_MIC1,6*%
%TO.N,AAD_CFG_1V8_FANOUT*%
X6590000Y-46250000D03*
%TD*%
D14*
%TO.P,R99,1*%
%TO.N,3V3_DIGITAL*%
X101675000Y-16750000D03*
%TO.P,R99,2*%
%TO.N,TAMPER_IN_CONN*%
X102325000Y-16750000D03*
%TD*%
%TO.P,R11,1*%
%TO.N,NOR_IO2_U1*%
X56425000Y-19500000D03*
%TO.P,R11,2*%
%TO.N,NOR_IO2_U2*%
X57075000Y-19500000D03*
%TD*%
%TO.P,R6,1*%
%TO.N,3V3_DIGITAL*%
X48675000Y-19500000D03*
%TO.P,R6,2*%
%TO.N,HW_REV1*%
X49325000Y-19500000D03*
%TD*%
D56*
%TO.P,J_MIC3,*%
%TO.N,*%
X85645000Y-73600000D03*
X98355000Y-73600000D03*
D57*
%TO.P,J_MIC3,1*%
%TO.N,1V8_MIC*%
X88250000Y-68410000D03*
%TO.P,J_MIC3,2*%
%TO.N,GND_MIC*%
X89750000Y-68410000D03*
%TO.P,J_MIC3,3*%
%TO.N,PDM_CLK_1V8_FANOUT*%
X91250000Y-68410000D03*
%TO.P,J_MIC3,4*%
%TO.N,PDM_DATA3_1V8*%
X92750000Y-68410000D03*
%TO.P,J_MIC3,5*%
%TO.N,MIC_WAKE3*%
X94250000Y-68410000D03*
%TO.P,J_MIC3,6*%
%TO.N,AAD_CFG_1V8_FANOUT*%
X95750000Y-68410000D03*
%TD*%
D14*
%TO.P,R75,1*%
%TO.N,BLE_TX_U1*%
X63175000Y-32750000D03*
%TO.P,R75,2*%
%TO.N,BLE_TX_U11*%
X63825000Y-32750000D03*
%TD*%
%TO.P,R89,1*%
%TO.N,3V3_DIGITAL*%
X86175000Y-23000000D03*
%TO.P,R89,2*%
%TO.N,SD_D3_CARD*%
X86825000Y-23000000D03*
%TD*%
D19*
%TO.P,U19,1*%
%TO.N,PDM_CLK_1V8_FANOUT*%
X8332500Y-37500000D03*
%TO.P,U19,2*%
%TO.N,PDM_DATA1_1V8*%
X8332500Y-38000000D03*
D20*
%TO.P,U19,3*%
%TO.N,GND_MIC*%
X8332500Y-38500000D03*
D19*
%TO.P,U19,4*%
%TO.N,MIC_WAKE1*%
X8332500Y-39000000D03*
%TO.P,U19,5*%
%TO.N,AAD_CFG_1V8_FANOUT*%
X8332500Y-39500000D03*
%TO.P,U19,6*%
%TO.N,N/C*%
X9167500Y-39500000D03*
%TO.P,U19,7*%
X9167500Y-39000000D03*
D20*
%TO.P,U19,8*%
%TO.N,GND_MIC*%
X9167500Y-38500000D03*
D19*
%TO.P,U19,9*%
%TO.N,N/C*%
X9167500Y-38000000D03*
%TO.P,U19,10*%
X9167500Y-37500000D03*
%TD*%
D32*
%TO.P,U17,1*%
%TO.N,MIC_WAKE1*%
X44100000Y-44050000D03*
%TO.P,U17,2*%
%TO.N,MIC_WAKE2*%
X44100000Y-44700000D03*
%TO.P,U17,3*%
%TO.N,MIC_WAKE12_OR_1V8*%
X44100000Y-45350000D03*
%TO.P,U17,4*%
%TO.N,MIC_WAKE3*%
X44100000Y-46000000D03*
%TO.P,U17,5*%
%TO.N,MIC_WAKE4*%
X44100000Y-46650000D03*
%TO.P,U17,6*%
%TO.N,MIC_WAKE34_OR_1V8*%
X44100000Y-47300000D03*
%TO.P,U17,7*%
%TO.N,GND_MIC*%
X44100000Y-47950000D03*
%TO.P,U17,8*%
%TO.N,MIC_WAKE_OR_1V8*%
X49900000Y-47950000D03*
%TO.P,U17,9*%
%TO.N,MIC_WAKE12_OR_1V8*%
X49900000Y-47300000D03*
%TO.P,U17,10*%
%TO.N,MIC_WAKE34_OR_1V8*%
X49900000Y-46650000D03*
%TO.P,U17,11*%
%TO.N,N/C*%
X49900000Y-46000000D03*
%TO.P,U17,12*%
%TO.N,GND_MIC*%
X49900000Y-45350000D03*
%TO.P,U17,13*%
X49900000Y-44700000D03*
%TO.P,U17,14*%
%TO.N,1V8_MIC*%
X49900000Y-44050000D03*
%TD*%
D62*
%TO.P,D1,1*%
%TO.N,3V8_MODEM_BB*%
X9900000Y-42250000D03*
%TO.P,D1,2*%
%TO.N,GND_MODEM*%
X10600000Y-42250000D03*
%TD*%
D14*
%TO.P,R85,1*%
%TO.N,3V3_DIGITAL*%
X93175000Y-23000000D03*
%TO.P,R85,2*%
%TO.N,SD_CMD_CARD*%
X93825000Y-23000000D03*
%TD*%
D81*
%TO.P,U25,1*%
%TO.N,USB_DP_CONN*%
X42350000Y-8825000D03*
%TO.P,U25,2*%
%TO.N,USB_DM_CONN*%
X41650000Y-8825000D03*
%TO.P,U25,3*%
%TO.N,GND_DIGITAL*%
X42000000Y-9675000D03*
%TD*%
D14*
%TO.P,C48,1*%
%TO.N,U8_PWRKEY_N*%
X18675000Y-35500000D03*
%TO.P,C48,2*%
%TO.N,GND_MODEM*%
X19325000Y-35500000D03*
%TD*%
%TO.P,R8,1*%
%TO.N,NOR_CLK_U1*%
X54175000Y-16000000D03*
%TO.P,R8,2*%
%TO.N,NOR_CLK_U2*%
X54825000Y-16000000D03*
%TD*%
D82*
%TO.N,BOOT0*%
X49200000Y-21200000D03*
X61700000Y-30700000D03*
%TO.N,EN_MODEM*%
X52200000Y-23950000D03*
%TO.N,GND_DIGITAL*%
X78225000Y-22100000D03*
X67475000Y-61475000D03*
X62725000Y-24350000D03*
X104975000Y-19850000D03*
X43100000Y-32100000D03*
X62850000Y-35975000D03*
X61475000Y-54725000D03*
X82475000Y-62725000D03*
X94850000Y-4225000D03*
X74475000Y-68975000D03*
X45350000Y-8725000D03*
X62100000Y-32225000D03*
X66224999Y-34850000D03*
X67850000Y-27225000D03*
X58725000Y-53225000D03*
X41350000Y-9725000D03*
X104600000Y-31350000D03*
X65974999Y-67475000D03*
X64224999Y-50725000D03*
X61350000Y-42975000D03*
X42975000Y-29225000D03*
X41100000Y-12725000D03*
X55850000Y-20100000D03*
X57600000Y-68975000D03*
X43100000Y-27100000D03*
X57850000Y-40225000D03*
X81225000Y-19850000D03*
X68100000Y-67975000D03*
X48225000Y-62725000D03*
X44100000Y-12725000D03*
X107100000Y-28725000D03*
X67475000Y-46975000D03*
X16600000Y-27475000D03*
X58725000Y-37725000D03*
X46975000Y-23350000D03*
X95100000Y-29725000D03*
X90725000Y-32975000D03*
X45350000Y-37725000D03*
X64474999Y-53100000D03*
X52475000Y-47725000D03*
X56975000Y-38850000D03*
X61725000Y-29475000D03*
X62600000Y-49600000D03*
X85100000Y-17350000D03*
X48100000Y-19975000D03*
X103100000Y-17975000D03*
X48350000Y-57975000D03*
X47350000Y-18725000D03*
X82475000Y-48225000D03*
X92600000Y-23850000D03*
X83850000Y-54975000D03*
X84225000Y-20975000D03*
X37850000Y-8725000D03*
X64599999Y-30975000D03*
X80475000Y-54600000D03*
X69350000Y-26225000D03*
X43350000Y-8725000D03*
X74475000Y-73975000D03*
X42350000Y-21975000D03*
X86850000Y-20850000D03*
X82475000Y-63975000D03*
X60850000Y-24475000D03*
X90600000Y-7600000D03*
X91850000Y-20475000D03*
X68100000Y-38475000D03*
X61350000Y-48225000D03*
X60100000Y-61975000D03*
X81600000Y-3225000D03*
X55725000Y-51850000D03*
X55600000Y-44225000D03*
X65974999Y-66724999D03*
X43100000Y-34600000D03*
X61350000Y-47475000D03*
X66099999Y-30600000D03*
X67475000Y-63975000D03*
X69350000Y-28975000D03*
X81850000Y-21225000D03*
X38225000Y-8225000D03*
X61600000Y-61850000D03*
X53100000Y-43475000D03*
X64224999Y-54975000D03*
X42600000Y-27725000D03*
X62850000Y-33475000D03*
X65849999Y-41725000D03*
X93100000Y-17350000D03*
X56850000Y-49600000D03*
X94100000Y-20475000D03*
X84350000Y-49475000D03*
X95100000Y-40725000D03*
X45350000Y-32975000D03*
X79350000Y-35350000D03*
X103350000Y-13475000D03*
X60850000Y-53475000D03*
X58100000Y-48225000D03*
X45350000Y-28475000D03*
X103600000Y-28475000D03*
X45850000Y-8225000D03*
X62500000Y-26750000D03*
X67475000Y-31225000D03*
X81475000Y-46100000D03*
X53975000Y-65474999D03*
X59850000Y-56975000D03*
X39600000Y-11475000D03*
X89225000Y-37225000D03*
X59100000Y-65474999D03*
X67225000Y-35225000D03*
X60975000Y-30725000D03*
X62850000Y-25225000D03*
X42600000Y-11475000D03*
X63850000Y-40225000D03*
X82100000Y-23475000D03*
X43100000Y-33350000D03*
X60350000Y-63850000D03*
X49600000Y-64974999D03*
X105475000Y-40600000D03*
X89225000Y-20975000D03*
X31975000Y-23850000D03*
X83850000Y-53725000D03*
X43100000Y-25850000D03*
X67850000Y-28475000D03*
X45100000Y-11475000D03*
X83850000Y-50975000D03*
X63350000Y-37725000D03*
X46100000Y-19975000D03*
X80475000Y-55850000D03*
X51975000Y-46100000D03*
X105475000Y-31225000D03*
X66724999Y-31975000D03*
X69850000Y-29975000D03*
X43350000Y-37725000D03*
X53975000Y-70475000D03*
X81475000Y-60600000D03*
X62850000Y-34725000D03*
X86600000Y-33725000D03*
X43100000Y-35850000D03*
%TO.N,GND_MIC*%
X7350000Y-40850000D03*
X102725000Y-55600000D03*
X8850000Y-43225000D03*
X99600000Y-53850000D03*
X89850000Y-65974999D03*
X39475000Y-61975000D03*
X37100000Y-67725000D03*
X7600000Y-38350000D03*
X101975000Y-53975000D03*
X93225000Y-65224999D03*
X48600000Y-44725000D03*
X48600000Y-45350000D03*
X90850000Y-65099999D03*
X89100000Y-67725000D03*
X9725000Y-38475000D03*
X101100000Y-51725000D03*
X51100000Y-42475000D03*
X37100000Y-61850000D03*
X44100000Y-48725000D03*
X15850000Y-25975000D03*
X39350000Y-65474999D03*
%TO.N,GND_MODEM*%
X16475000Y-73975000D03*
X65349999Y-17225000D03*
X38350000Y-54725000D03*
X20100000Y-27975000D03*
X15350000Y-15725000D03*
X61850000Y-17225000D03*
X62975000Y-17225000D03*
X15725000Y-40975000D03*
X71725000Y-11975000D03*
X19350000Y-36225000D03*
X25600000Y-39975000D03*
X23100000Y-47100000D03*
X18100000Y-57225000D03*
X35475000Y-12975000D03*
X16350000Y-33600000D03*
X8975000Y-50850000D03*
X19975000Y-17225000D03*
X15725000Y-4600000D03*
X20475000Y-59600000D03*
X20975000Y-39975000D03*
X25600000Y-35725000D03*
X19225000Y-29975000D03*
X38850000Y-57350000D03*
X28725000Y-4600000D03*
X60850000Y-14975000D03*
X14850000Y-32975000D03*
X25600000Y-34975000D03*
X30975000Y-56225000D03*
X11350000Y-40975000D03*
X11100000Y-46975000D03*
X17100000Y-17225000D03*
X21725000Y-17225000D03*
X15725000Y-33475000D03*
X20225000Y-19475000D03*
X42225000Y-64974999D03*
X31850000Y-15725000D03*
X39100000Y-57975000D03*
X15600000Y-29475000D03*
X19850000Y-39975000D03*
X25600000Y-58850000D03*
X21225000Y-67475000D03*
X7100000Y-51725000D03*
X18850000Y-17225000D03*
X26475000Y-19725000D03*
X31975000Y-62975000D03*
X34850000Y-16975000D03*
X7850000Y-52475000D03*
X31975000Y-40975000D03*
X39600000Y-30850000D03*
X71725000Y-4600000D03*
X34350000Y-27725000D03*
X31725000Y-19725000D03*
X24850000Y-47100000D03*
X11350000Y-42225000D03*
X22350000Y-35725000D03*
X21100000Y-37100000D03*
X11100000Y-53225000D03*
X11100000Y-54475000D03*
X26850000Y-37100000D03*
X17850000Y-14975000D03*
X17600000Y-39975000D03*
X22350000Y-58850000D03*
X56225000Y-29100000D03*
X24850000Y-43350000D03*
X11100000Y-49475000D03*
X27600000Y-59600000D03*
X22600000Y-68725000D03*
X15850000Y-36225000D03*
X22350000Y-32475000D03*
X23100000Y-56975000D03*
X17600000Y-30225000D03*
X30975000Y-54600000D03*
X16475000Y-68975000D03*
X18850000Y-55350000D03*
X11100000Y-55725000D03*
X58725000Y-4600000D03*
X20475000Y-44350000D03*
X32100000Y-43350000D03*
X32100000Y-44475000D03*
X39850000Y-64849999D03*
X27600000Y-44350000D03*
X31350000Y-34475000D03*
X20475000Y-46100000D03*
X23100000Y-43350000D03*
X38975000Y-53350000D03*
X24850000Y-56975000D03*
X15850000Y-44725000D03*
X19350000Y-33475000D03*
X26725000Y-39975000D03*
X11100000Y-48225000D03*
X58350000Y-15725000D03*
X25600000Y-30475000D03*
X20475000Y-57975000D03*
X23725000Y-68725000D03*
X60100000Y-17225000D03*
%TO.N,NOR_CLK_U1*%
X51975000Y-38850000D03*
X52975000Y-17975000D03*
%TO.N,NOR_CLK_U2*%
X64474999Y-22100000D03*
X79100000Y-27100000D03*
%TO.N,NOR_IO0_U1*%
X52950000Y-36450000D03*
X52975000Y-35850000D03*
X57600000Y-20100000D03*
X58700000Y-21700000D03*
%TO.N,NOR_IO0_U2*%
X75100000Y-24100000D03*
X59850000Y-21225000D03*
%TO.N,NOR_IO1_U1*%
X41475000Y-24600000D03*
X53475000Y-38850000D03*
%TO.N,NOR_IO1_U2*%
X43100000Y-24600000D03*
X69850000Y-35975000D03*
X52350000Y-33850000D03*
%TO.N,NOR_IO2_U1*%
X53975000Y-35850000D03*
X53950000Y-36450000D03*
X55950000Y-18700000D03*
X55350000Y-19475000D03*
%TO.N,NOR_IO2_U2*%
X61975000Y-22100000D03*
X78850000Y-35975000D03*
%TO.N,NOR_IO3_U1*%
X39475000Y-28475000D03*
X54725000Y-36600000D03*
%TO.N,NOR_IO3_U2*%
X69975000Y-27725000D03*
X41475000Y-27850000D03*
X54600000Y-27850000D03*
%TO.N,SD_D2_U1*%
X57200000Y-23700000D03*
X89200000Y-21700000D03*
%TO.N,GND_DIGITAL*%
X57750000Y-52550000D03*
%TO.N,CELL_USB_DP_TP*%
X8200000Y-50150000D03*
%TO.N,CELL_USB_DM_TP*%
X8700000Y-52640569D03*
%TD*%
D83*
%TO.N,BLE_RX_U1*%
X60950000Y-38450000D02*
X60450000Y-37950000D01*
X95700000Y-41200000D02*
X95450000Y-41450000D01*
X65200000Y-38700000D02*
X64950000Y-38450000D01*
X65700000Y-38700000D02*
X65200000Y-38700000D01*
X102450000Y-41700000D02*
X102450000Y-41200000D01*
X55450000Y-36700000D02*
X55450000Y-37700000D01*
X64950000Y-38450000D02*
X60950000Y-38450000D01*
X58450000Y-36700000D02*
X55450000Y-36700000D01*
X58950000Y-37200000D02*
X58450000Y-36700000D01*
X59200000Y-37200000D02*
X58950000Y-37200000D01*
X66200000Y-39200000D02*
X65700000Y-38700000D01*
X59950000Y-37950000D02*
X59200000Y-37200000D01*
X95450000Y-41450000D02*
X94700000Y-41450000D01*
X60450000Y-37950000D02*
X59950000Y-37950000D01*
X94700000Y-41450000D02*
X92450000Y-39200000D01*
X102450000Y-41200000D02*
X95700000Y-41200000D01*
X92450000Y-39200000D02*
X66200000Y-39200000D01*
%TO.N,BOOT0*%
X48950000Y-22200000D02*
X48950000Y-21200000D01*
X61450000Y-31450000D02*
X61450000Y-30950000D01*
X48950000Y-21200000D02*
X49200000Y-21200000D01*
X61700000Y-30950000D02*
X61700000Y-30700000D01*
X61450000Y-30950000D02*
X61700000Y-30950000D01*
D84*
%TO.N,CELL_RF*%
X19850000Y-57537500D02*
X19850000Y-59850000D01*
X19850000Y-59850000D02*
X20162500Y-60162500D01*
X20475000Y-60225000D02*
X21412500Y-61162500D01*
X22662500Y-62350000D02*
X22662500Y-62412500D01*
X25975000Y-68350000D02*
X25787500Y-68537500D01*
X20475000Y-56912500D02*
X19850000Y-57537500D01*
X20162500Y-60162500D02*
X20287500Y-60162500D01*
X20475000Y-56850000D02*
X20475000Y-56912500D01*
X24975000Y-68475000D02*
X24475000Y-67975000D01*
X22600000Y-62287500D02*
X22662500Y-62350000D01*
X21537500Y-61162500D02*
X22600000Y-62225000D01*
X18725000Y-47100000D02*
X18850000Y-47225000D01*
X22725000Y-62475000D02*
X22725000Y-66162499D01*
X19225000Y-53600000D02*
X19287500Y-53662500D01*
X20287500Y-60162500D02*
X20350000Y-60225000D01*
X20475000Y-53912500D02*
X20475000Y-53975000D01*
X18850000Y-53287500D02*
X19162500Y-53600000D01*
X20537500Y-54037500D02*
X20537500Y-56787500D01*
X25787500Y-68537500D02*
X25100000Y-68537500D01*
X25037500Y-68475000D02*
X24975000Y-68475000D01*
X22662500Y-62412500D02*
X22725000Y-62475000D01*
X22600000Y-62225000D02*
X22600000Y-62287500D01*
X24475000Y-67975000D02*
X24350000Y-67975000D01*
X18850000Y-47225000D02*
X18850000Y-53287500D01*
X25100000Y-68537500D02*
X25037500Y-68475000D01*
X25975000Y-68100000D02*
X25975000Y-68350000D01*
X19162500Y-53600000D02*
X19225000Y-53600000D01*
X22725000Y-66162499D02*
X24225000Y-67662500D01*
X20537500Y-56787500D02*
X20475000Y-56850000D01*
X20350000Y-60225000D02*
X20475000Y-60225000D01*
X24225000Y-67662500D02*
X24225000Y-67850000D01*
X20225000Y-53662500D02*
X20475000Y-53912500D01*
X24225000Y-67850000D02*
X24350000Y-67975000D01*
X21412500Y-61162500D02*
X21537500Y-61162500D01*
X26100000Y-67975000D02*
X25975000Y-68100000D01*
X18725000Y-40975000D02*
X18725000Y-47100000D01*
X19287500Y-53662500D02*
X20225000Y-53662500D01*
X20475000Y-53975000D02*
X20537500Y-54037500D01*
%TO.N,CELL_RF_ANT*%
X25725000Y-67475000D02*
X25850000Y-67475000D01*
X23912500Y-69287500D02*
X23850000Y-69350000D01*
X25850000Y-67475000D02*
X25912500Y-67412500D01*
X27350000Y-68037500D02*
X26975000Y-68037500D01*
X24037500Y-69287500D02*
X23912500Y-69287500D01*
X24350000Y-68975000D02*
X24037500Y-69287500D01*
X21912500Y-67975000D02*
X21662500Y-67975000D01*
X25412500Y-67787500D02*
X25725000Y-67475000D01*
X26975000Y-68037500D02*
X26100000Y-68912500D01*
X23850000Y-69350000D02*
X22475000Y-69350000D01*
X14975000Y-71475000D02*
X17350000Y-71475000D01*
X22287500Y-69287500D02*
X22037500Y-69037500D01*
X20662500Y-68350000D02*
X20600000Y-68350000D01*
X20725000Y-68412500D02*
X20662500Y-68350000D01*
X21662500Y-67975000D02*
X21287500Y-68350000D01*
X22037500Y-68975000D02*
X21350000Y-68287500D01*
X26100000Y-68912500D02*
X26037500Y-68912500D01*
X25975000Y-68975000D02*
X24350000Y-68975000D01*
X21225000Y-68350000D02*
X21162500Y-68412500D01*
X21287500Y-68350000D02*
X21225000Y-68350000D01*
X26287500Y-67475000D02*
X26412500Y-67475000D01*
X25412500Y-67975000D02*
X25412500Y-67787500D01*
X21162500Y-68412500D02*
X20725000Y-68412500D01*
X22412500Y-69287500D02*
X22287500Y-69287500D01*
X25912500Y-67412500D02*
X26225000Y-67412500D01*
X26225000Y-67412500D02*
X26287500Y-67475000D01*
X27350000Y-67912500D02*
X27350000Y-68037500D01*
X26037500Y-68912500D02*
X25975000Y-68975000D01*
X22037500Y-69037500D02*
X22037500Y-68975000D01*
X20537500Y-68287500D02*
X20537500Y-67975000D01*
X26475000Y-67537500D02*
X26537500Y-67537500D01*
X26412500Y-67475000D02*
X26475000Y-67537500D01*
X26537500Y-67537500D02*
X26912500Y-67912500D01*
X20600000Y-68350000D02*
X20537500Y-68287500D01*
X22475000Y-69350000D02*
X22412500Y-69287500D01*
X17350000Y-71475000D02*
X20537500Y-68287500D01*
X26912500Y-67912500D02*
X27350000Y-67912500D01*
D83*
%TO.N,CELL_RX_U16*%
X19700000Y-27450000D02*
X20700000Y-27450000D01*
X27950000Y-31200000D02*
X26950000Y-31200000D01*
X31200000Y-30950000D02*
X28200000Y-30950000D01*
X45450000Y-23200000D02*
X44950000Y-22700000D01*
X21450000Y-27700000D02*
X24950000Y-31200000D01*
X18450000Y-26700000D02*
X18950000Y-26700000D01*
X18950000Y-26700000D02*
X19700000Y-27450000D01*
X42950000Y-23450000D02*
X37450000Y-23450000D01*
X17450000Y-28200000D02*
X18450000Y-27200000D01*
X37450000Y-23450000D02*
X33700000Y-27200000D01*
X33700000Y-28450000D02*
X31200000Y-30950000D01*
X20950000Y-27700000D02*
X21450000Y-27700000D01*
X49450000Y-22200000D02*
X49450000Y-23200000D01*
X33700000Y-27200000D02*
X33700000Y-28450000D01*
X49450000Y-23200000D02*
X48700000Y-23950000D01*
X45700000Y-23200000D02*
X45450000Y-23200000D01*
X20700000Y-27450000D02*
X20950000Y-27700000D01*
X43450000Y-22950000D02*
X42950000Y-23450000D01*
X43950000Y-22950000D02*
X43450000Y-22950000D01*
X48700000Y-23950000D02*
X46450000Y-23950000D01*
X44950000Y-22700000D02*
X43950000Y-22700000D01*
X18450000Y-27200000D02*
X18450000Y-26700000D01*
X24950000Y-31200000D02*
X26950000Y-31200000D01*
X46450000Y-23950000D02*
X45700000Y-23200000D01*
X43950000Y-22700000D02*
X43950000Y-22950000D01*
X28200000Y-30950000D02*
X27950000Y-31200000D01*
%TO.N,EN_MODEM*%
X53200000Y-23950000D02*
X53450000Y-23700000D01*
X53450000Y-23700000D02*
X53450000Y-22200000D01*
X52200000Y-23950000D02*
X53200000Y-23950000D01*
%TO.N,GND_DIGITAL*%
X105225000Y-20475000D02*
X105225000Y-20100000D01*
X46475000Y-22975000D02*
X46725000Y-23225000D01*
X46850000Y-23225000D02*
X46975000Y-23350000D01*
X55350000Y-20725000D02*
X55350000Y-20600000D01*
X65599999Y-53725000D02*
X65599999Y-53475000D01*
X42600000Y-31475000D02*
X42600000Y-31600000D01*
X69350000Y-26975000D02*
X69350000Y-26225000D01*
X65349999Y-53225000D02*
X65224999Y-53225000D01*
X80600000Y-34725000D02*
X79975000Y-34725000D01*
X64974999Y-50725000D02*
X64224999Y-50725000D01*
X95100000Y-40100000D02*
X95100000Y-40725000D01*
X66724999Y-66724999D02*
X65974999Y-66724999D01*
X56850000Y-48850000D02*
X56850000Y-49600000D01*
X91975000Y-17350000D02*
X93100000Y-17350000D01*
X67350000Y-67975000D02*
X68100000Y-67975000D01*
X105975000Y-40100000D02*
X105475000Y-40600000D01*
X81475000Y-48225000D02*
X82475000Y-48225000D01*
X42600000Y-28475000D02*
X42600000Y-27725000D01*
X104850000Y-31100000D02*
X104600000Y-31350000D01*
X42600000Y-35350000D02*
X43100000Y-35850000D01*
X60975000Y-56975000D02*
X59850000Y-56975000D01*
X81475000Y-46975000D02*
X81475000Y-46100000D01*
X81475000Y-54600000D02*
X80475000Y-54600000D01*
X65099999Y-41725000D02*
X65849999Y-41725000D01*
X40350000Y-12725000D02*
X41100000Y-12725000D01*
X105225000Y-20100000D02*
X104975000Y-19850000D01*
X59725000Y-24475000D02*
X60850000Y-24475000D01*
X45975000Y-37725000D02*
X45350000Y-37725000D01*
X79975000Y-34725000D02*
X79350000Y-35350000D01*
X90975000Y-20475000D02*
X91850000Y-20475000D01*
X47600000Y-57975000D02*
X48350000Y-57975000D01*
X61225000Y-54850000D02*
X61350000Y-54850000D01*
X42600000Y-25225000D02*
X42600000Y-25350000D01*
X56975000Y-37725000D02*
X56975000Y-38850000D01*
X90600000Y-6350000D02*
X90600000Y-7600000D01*
X57975000Y-37725000D02*
X58725000Y-37725000D01*
X86225000Y-17350000D02*
X85100000Y-17350000D01*
X65599999Y-53475000D02*
X65349999Y-53225000D01*
X49100000Y-62725000D02*
X48225000Y-62725000D01*
X57100000Y-40225000D02*
X57850000Y-40225000D01*
X53975000Y-69475000D02*
X53975000Y-70475000D01*
X106350000Y-28725000D02*
X107100000Y-28725000D01*
X60100000Y-62725000D02*
X60100000Y-61975000D01*
X60975000Y-55100000D02*
X61225000Y-54850000D01*
X56850000Y-48225000D02*
X58100000Y-48225000D01*
X83100000Y-53725000D02*
X83850000Y-53725000D01*
X38850000Y-7600000D02*
X38225000Y-8225000D01*
X81475000Y-63975000D02*
X82475000Y-63975000D01*
X81475000Y-20100000D02*
X81225000Y-19850000D01*
X81475000Y-62725000D02*
X82475000Y-62725000D01*
X15600000Y-27725000D02*
X16350000Y-27725000D01*
X60850000Y-54225000D02*
X60850000Y-53475000D01*
X104850000Y-30600000D02*
X104850000Y-31100000D01*
X42600000Y-26600000D02*
X43100000Y-27100000D01*
X38475000Y-8975000D02*
X38100000Y-8975000D01*
X62600000Y-47475000D02*
X61350000Y-47475000D01*
X45975000Y-8975000D02*
X45600000Y-8975000D01*
X66599999Y-46975000D02*
X67475000Y-46975000D01*
X44350000Y-11475000D02*
X45100000Y-11475000D01*
X61350000Y-54850000D02*
X61475000Y-54725000D01*
X82725000Y-22975000D02*
X82600000Y-22975000D01*
X42600000Y-34100000D02*
X43100000Y-34600000D01*
X60975000Y-55600000D02*
X60975000Y-55100000D01*
X44225000Y-32975000D02*
X45350000Y-32975000D01*
X62100000Y-31475000D02*
X62100000Y-32225000D01*
X45225000Y-7350000D02*
X45225000Y-7600000D01*
X42600000Y-22725000D02*
X42600000Y-22225000D01*
X83475000Y-20975000D02*
X84225000Y-20975000D01*
X66224999Y-30725000D02*
X66099999Y-30600000D01*
X66724999Y-31225000D02*
X67475000Y-31225000D01*
X62600000Y-48225000D02*
X61350000Y-48225000D01*
X52100000Y-45975000D02*
X51975000Y-46100000D01*
X74475000Y-72975000D02*
X74475000Y-73975000D01*
X46350000Y-20725000D02*
X46350000Y-20225000D01*
X82600000Y-22975000D02*
X82100000Y-23475000D01*
X53975000Y-66474999D02*
X53975000Y-65474999D01*
X62600000Y-42975000D02*
X61350000Y-42975000D01*
X38850000Y-11475000D02*
X39600000Y-11475000D01*
X53100000Y-44225000D02*
X53100000Y-43475000D01*
X61225000Y-29850000D02*
X61350000Y-29850000D01*
X83475000Y-49475000D02*
X84350000Y-49475000D01*
X42600000Y-32725000D02*
X42600000Y-32850000D01*
X89225000Y-36475000D02*
X89225000Y-37225000D01*
X48850000Y-64974999D02*
X49600000Y-64974999D01*
X42475000Y-29725000D02*
X42975000Y-29225000D01*
X66599999Y-35600000D02*
X66849999Y-35600000D01*
X38100000Y-8975000D02*
X37850000Y-8725000D01*
X58225000Y-69225000D02*
X57850000Y-69225000D01*
X93350000Y-20475000D02*
X94100000Y-20475000D01*
X66724999Y-30725000D02*
X66724999Y-31975000D01*
X41975000Y-9725000D02*
X41350000Y-9725000D01*
X44225000Y-28475000D02*
X45350000Y-28475000D01*
X95100000Y-30475000D02*
X95100000Y-29725000D01*
X74475000Y-69975000D02*
X74475000Y-68975000D01*
X62100000Y-35975000D02*
X62850000Y-35975000D01*
X66599999Y-63975000D02*
X67475000Y-63975000D01*
X68975000Y-29975000D02*
X69850000Y-29975000D01*
X66599999Y-61475000D02*
X67475000Y-61475000D01*
X43975000Y-8975000D02*
X43600000Y-8975000D01*
X103350000Y-14225000D02*
X103350000Y-13475000D01*
X61225000Y-30475000D02*
X60975000Y-30725000D01*
X61350000Y-29850000D02*
X61725000Y-29475000D01*
X60350000Y-64474999D02*
X60350000Y-63850000D01*
X55350000Y-20600000D02*
X55850000Y-20100000D01*
X65724999Y-67725000D02*
X65974999Y-67475000D01*
X54850000Y-44225000D02*
X55600000Y-44225000D01*
X81475000Y-55850000D02*
X80475000Y-55850000D01*
X67099999Y-27225000D02*
X67850000Y-27225000D01*
X85850000Y-33725000D02*
X86600000Y-33725000D01*
X45600000Y-8975000D02*
X45350000Y-8725000D01*
X41850000Y-11475000D02*
X42600000Y-11475000D01*
X83100000Y-50975000D02*
X83850000Y-50975000D01*
X42600000Y-22225000D02*
X42350000Y-21975000D01*
X62100000Y-23975000D02*
X62350000Y-23975000D01*
X62100000Y-25225000D02*
X62850000Y-25225000D01*
X69350000Y-28225000D02*
X69350000Y-28975000D01*
X93600000Y-4225000D02*
X94850000Y-4225000D01*
X67350000Y-38475000D02*
X68100000Y-38475000D01*
X42600000Y-37725000D02*
X43350000Y-37725000D01*
X65224999Y-30725000D02*
X64849999Y-30725000D01*
X66224999Y-31225000D02*
X66224999Y-30725000D01*
X62100000Y-33475000D02*
X62850000Y-33475000D01*
X88475000Y-20975000D02*
X89225000Y-20975000D01*
X105975000Y-39850000D02*
X105975000Y-40100000D01*
X48100000Y-20725000D02*
X48100000Y-19975000D01*
X102350000Y-17975000D02*
X103100000Y-17975000D01*
X82600000Y-20975000D02*
X82100000Y-20975000D01*
X65224999Y-53225000D02*
X65099999Y-53100000D01*
X82100000Y-20975000D02*
X81850000Y-21225000D01*
X62475000Y-37725000D02*
X63350000Y-37725000D01*
X87600000Y-20975000D02*
X86975000Y-20975000D01*
X57850000Y-53225000D02*
X58725000Y-53225000D01*
X62350000Y-23975000D02*
X62725000Y-24350000D01*
X46725000Y-23225000D02*
X46850000Y-23225000D01*
X61225000Y-30225000D02*
X61225000Y-30475000D01*
X38850000Y-7350000D02*
X38850000Y-7600000D01*
X62100000Y-34725000D02*
X62850000Y-34725000D01*
X80475000Y-3225000D02*
X81600000Y-3225000D01*
X42600000Y-25350000D02*
X43100000Y-25850000D01*
X64974999Y-54975000D02*
X64224999Y-54975000D01*
X65724999Y-67975000D02*
X65724999Y-67725000D01*
X42600000Y-33975000D02*
X42600000Y-34100000D01*
X65974999Y-35600000D02*
X65974999Y-35100000D01*
X46350000Y-20225000D02*
X46100000Y-19975000D01*
X62600000Y-48850000D02*
X62600000Y-49600000D01*
X42600000Y-26475000D02*
X42600000Y-26600000D01*
X58350000Y-65474999D02*
X59100000Y-65474999D01*
X61600000Y-62725000D02*
X61600000Y-61850000D01*
X86975000Y-20975000D02*
X86850000Y-20850000D01*
X55725000Y-53225000D02*
X55725000Y-51850000D01*
X57850000Y-69225000D02*
X57600000Y-68975000D01*
X43350000Y-12725000D02*
X44100000Y-12725000D01*
X65099999Y-53100000D02*
X64474999Y-53100000D01*
X42475000Y-29975000D02*
X42475000Y-29725000D01*
X53225000Y-47725000D02*
X52475000Y-47725000D01*
X102725000Y-28475000D02*
X103600000Y-28475000D01*
X43600000Y-8975000D02*
X43350000Y-8725000D01*
X81475000Y-61475000D02*
X81475000Y-60600000D01*
X67099999Y-28475000D02*
X67850000Y-28475000D01*
X42600000Y-31600000D02*
X43100000Y-32100000D01*
X63100000Y-40225000D02*
X63850000Y-40225000D01*
X42600000Y-35225000D02*
X42600000Y-35350000D01*
X16350000Y-27725000D02*
X16600000Y-27475000D01*
X47350000Y-19475000D02*
X47350000Y-18725000D01*
X91475000Y-32975000D02*
X90725000Y-32975000D01*
X83100000Y-54975000D02*
X83850000Y-54975000D01*
X105975000Y-30600000D02*
X105975000Y-30725000D01*
X52725000Y-45975000D02*
X52100000Y-45975000D01*
X45225000Y-7600000D02*
X45850000Y-8225000D01*
X66849999Y-35600000D02*
X67225000Y-35225000D01*
X64849999Y-30725000D02*
X64599999Y-30975000D01*
X81475000Y-20475000D02*
X81475000Y-20100000D01*
X62100000Y-27225000D02*
X62500000Y-26750000D01*
X65974999Y-35100000D02*
X66224999Y-34850000D01*
X46475000Y-22225000D02*
X46475000Y-22975000D01*
X42600000Y-32850000D02*
X43100000Y-33350000D01*
X105975000Y-30725000D02*
X105475000Y-31225000D01*
%TO.N,GND_MIC*%
X49850000Y-45350000D02*
X48600000Y-45350000D01*
X49850000Y-44725000D02*
X48600000Y-44725000D01*
X50350000Y-42475000D02*
X51100000Y-42475000D01*
X89725000Y-68350000D02*
X89100000Y-67725000D01*
X37850000Y-61975000D02*
X37225000Y-61975000D01*
X14975000Y-25975000D02*
X15850000Y-25975000D01*
X37725000Y-68350000D02*
X37100000Y-67725000D01*
X91600000Y-65224999D02*
X90975000Y-65224999D01*
X44100000Y-47975000D02*
X44100000Y-48725000D01*
X38725000Y-61975000D02*
X39475000Y-61975000D01*
X8350000Y-38475000D02*
X7725000Y-38475000D01*
X100350000Y-53975000D02*
X99725000Y-53975000D01*
X6600000Y-40225000D02*
X6725000Y-40225000D01*
X101225000Y-53975000D02*
X101975000Y-53975000D01*
X37225000Y-61975000D02*
X37100000Y-61850000D01*
X92475000Y-65224999D02*
X93225000Y-65224999D01*
X9225000Y-38475000D02*
X9725000Y-38475000D01*
X6725000Y-40225000D02*
X7350000Y-40850000D01*
X99725000Y-53975000D02*
X99600000Y-53850000D01*
X38600000Y-65474999D02*
X39350000Y-65474999D01*
X103350000Y-56225000D02*
X102725000Y-55600000D01*
X89850000Y-65224999D02*
X89850000Y-65974999D01*
X7725000Y-38475000D02*
X7600000Y-38350000D01*
X8850000Y-42475000D02*
X8850000Y-43225000D01*
X100350000Y-51725000D02*
X101100000Y-51725000D01*
X90975000Y-65224999D02*
X90850000Y-65099999D01*
%TO.N,GND_MODEM*%
X14850000Y-44475000D02*
X15600000Y-44475000D01*
X27475000Y-4600000D02*
X28725000Y-4600000D01*
X33100000Y-44475000D02*
X32100000Y-44475000D01*
X24850000Y-44350000D02*
X24850000Y-43350000D01*
X26850000Y-35725000D02*
X25600000Y-35725000D01*
X16975000Y-32975000D02*
X16350000Y-33600000D01*
X39225000Y-53600000D02*
X38975000Y-53350000D01*
X24850000Y-46100000D02*
X24850000Y-47100000D01*
X70475000Y-4600000D02*
X71725000Y-4600000D01*
X65349999Y-16475000D02*
X65349999Y-17225000D01*
X21475000Y-59600000D02*
X20475000Y-59600000D01*
X15850000Y-33600000D02*
X15725000Y-33475000D01*
X19350000Y-29600000D02*
X19225000Y-29725000D01*
X10350000Y-48225000D02*
X11100000Y-48225000D01*
X17600000Y-40975000D02*
X17600000Y-39975000D01*
X38350000Y-57975000D02*
X39100000Y-57975000D01*
X31100000Y-62975000D02*
X31975000Y-62975000D01*
X24850000Y-59600000D02*
X25600000Y-58850000D01*
X26600000Y-44350000D02*
X27600000Y-44350000D01*
X21475000Y-46100000D02*
X20475000Y-46100000D01*
X20975000Y-67975000D02*
X20975000Y-67725000D01*
X15850000Y-34225000D02*
X15850000Y-33600000D01*
X14850000Y-29475000D02*
X15600000Y-29475000D01*
X17850000Y-13975000D02*
X17850000Y-14975000D01*
X10600000Y-42225000D02*
X11350000Y-42225000D01*
X14475000Y-4600000D02*
X15725000Y-4600000D01*
X58350000Y-16475000D02*
X58350000Y-15725000D01*
X29975000Y-56225000D02*
X30975000Y-56225000D01*
X31100000Y-40975000D02*
X31975000Y-40975000D01*
X19350000Y-34225000D02*
X19350000Y-33475000D01*
X7100000Y-52475000D02*
X7850000Y-52475000D01*
X35850000Y-29225000D02*
X34350000Y-27725000D01*
X17600000Y-29475000D02*
X17600000Y-30225000D01*
X18850000Y-16475000D02*
X18850000Y-17225000D01*
X19350000Y-29225000D02*
X19350000Y-29600000D01*
X38350000Y-56850000D02*
X38850000Y-57350000D01*
X21725000Y-16475000D02*
X21725000Y-17225000D01*
X62975000Y-16475000D02*
X62975000Y-17225000D01*
X38350000Y-56725000D02*
X38350000Y-56850000D01*
X40600000Y-64974999D02*
X39975000Y-64974999D01*
X23100000Y-46100000D02*
X23100000Y-47100000D01*
X26600000Y-59600000D02*
X27600000Y-59600000D01*
X57475000Y-4600000D02*
X58725000Y-4600000D01*
X41475000Y-64974999D02*
X42225000Y-64974999D01*
X39975000Y-64974999D02*
X39850000Y-64849999D01*
X31725000Y-19475000D02*
X31725000Y-19725000D01*
X21475000Y-57975000D02*
X20475000Y-57975000D01*
X23725000Y-67975000D02*
X23725000Y-68725000D01*
X38350000Y-55475000D02*
X38350000Y-54725000D01*
X33600000Y-16975000D02*
X34850000Y-16975000D01*
X61850000Y-16475000D02*
X61850000Y-17225000D01*
X15350000Y-16475000D02*
X15350000Y-15725000D01*
X10350000Y-54475000D02*
X11100000Y-54475000D01*
X19350000Y-35475000D02*
X19350000Y-36225000D01*
X36225000Y-12975000D02*
X35475000Y-12975000D01*
X19850000Y-40975000D02*
X19850000Y-39975000D01*
X20975000Y-67725000D02*
X21225000Y-67475000D01*
X19350000Y-27975000D02*
X20100000Y-27975000D01*
X15600000Y-44475000D02*
X15850000Y-44725000D01*
X20975000Y-40975000D02*
X20975000Y-39975000D01*
X72725000Y-11975000D02*
X71725000Y-11975000D01*
X23100000Y-57975000D02*
X23100000Y-56975000D01*
X7100000Y-50975000D02*
X7100000Y-51725000D01*
X33100000Y-43350000D02*
X32100000Y-43350000D01*
X10350000Y-53225000D02*
X11100000Y-53225000D01*
X23100000Y-44350000D02*
X23100000Y-43350000D01*
X21100000Y-35725000D02*
X22350000Y-35725000D01*
X21475000Y-44350000D02*
X20475000Y-44350000D01*
X16475000Y-69975000D02*
X16475000Y-68975000D01*
X16475000Y-72975000D02*
X16475000Y-73975000D01*
X10350000Y-49475000D02*
X11100000Y-49475000D01*
X31850000Y-16475000D02*
X31850000Y-15725000D01*
X29975000Y-54600000D02*
X30975000Y-54600000D01*
X26725000Y-40975000D02*
X26725000Y-39975000D01*
X39225000Y-53975000D02*
X39225000Y-53600000D01*
X17100000Y-16475000D02*
X17100000Y-17225000D01*
X18100000Y-54600000D02*
X18850000Y-55350000D01*
X23100000Y-59600000D02*
X22350000Y-58850000D01*
X10350000Y-55725000D02*
X11100000Y-55725000D01*
X29600000Y-34475000D02*
X31350000Y-34475000D01*
X26850000Y-36350000D02*
X26850000Y-37100000D01*
X10600000Y-40975000D02*
X11350000Y-40975000D01*
X31850000Y-18975000D02*
X31850000Y-19350000D01*
X60850000Y-13975000D02*
X60850000Y-14975000D01*
X15850000Y-35475000D02*
X15850000Y-36225000D01*
X22600000Y-67975000D02*
X22600000Y-68725000D01*
X26475000Y-18975000D02*
X26475000Y-19725000D01*
X13975000Y-32975000D02*
X14850000Y-32975000D01*
X26850000Y-30475000D02*
X25600000Y-30475000D01*
X31850000Y-19350000D02*
X31725000Y-19475000D01*
X26850000Y-34975000D02*
X25600000Y-34975000D01*
X60100000Y-16475000D02*
X60100000Y-17225000D01*
X8975000Y-51475000D02*
X8975000Y-50850000D01*
X21100000Y-32475000D02*
X22350000Y-32475000D01*
X19975000Y-16475000D02*
X19975000Y-17225000D01*
X21100000Y-36350000D02*
X21100000Y-37100000D01*
X19225000Y-29725000D02*
X19225000Y-29975000D01*
X25600000Y-40975000D02*
X25600000Y-39975000D01*
X18100000Y-56225000D02*
X18100000Y-57225000D01*
X16600000Y-40975000D02*
X15725000Y-40975000D01*
X10350000Y-46975000D02*
X11100000Y-46975000D01*
X21225000Y-19475000D02*
X20225000Y-19475000D01*
X24850000Y-57975000D02*
X24850000Y-56975000D01*
D84*
%TO.N,GNSS_RF_ANT_BIASED*%
X58412500Y-68475000D02*
X58412500Y-67975000D01*
X58725000Y-69600000D02*
X58787500Y-69537500D01*
X58412500Y-70037500D02*
X58725000Y-69725000D01*
X54100000Y-67975000D02*
X58412500Y-67975000D01*
X54037500Y-67912500D02*
X54100000Y-67975000D01*
X58725000Y-69725000D02*
X58725000Y-69600000D01*
X58725000Y-68787500D02*
X58412500Y-68475000D01*
X59725000Y-69912500D02*
X58912500Y-69912500D01*
X53850000Y-67975000D02*
X53912500Y-67912500D01*
X58725000Y-68912500D02*
X58725000Y-68787500D01*
X53912500Y-67912500D02*
X54037500Y-67912500D01*
X52475000Y-67975000D02*
X53850000Y-67975000D01*
X58225000Y-70725000D02*
X58412500Y-70537500D01*
X58912500Y-69912500D02*
X58725000Y-69725000D01*
X58412500Y-70537500D02*
X58412500Y-70037500D01*
X58787500Y-69537500D02*
X58787500Y-68975000D01*
X58787500Y-68975000D02*
X58725000Y-68912500D01*
%TO.N,LORA_RF_ANT*%
X67350000Y-66724999D02*
X67350000Y-66537499D01*
X67350000Y-66537499D02*
X67037499Y-66224999D01*
X66849999Y-66162499D02*
X66162499Y-66162499D01*
X65412499Y-68412500D02*
X65412499Y-69287500D01*
X67037499Y-66224999D02*
X66912499Y-66224999D01*
X67350000Y-69475000D02*
X67350000Y-69225000D01*
X65287499Y-67537500D02*
X65287499Y-68287500D01*
X65349999Y-67475000D02*
X65287499Y-67537500D01*
X66349999Y-69787500D02*
X67037499Y-69787500D01*
X65349999Y-66599999D02*
X65349999Y-67475000D01*
X66912499Y-66224999D02*
X66849999Y-66162499D01*
X65787499Y-66162499D02*
X65662499Y-66162499D01*
X66162499Y-66162499D02*
X66099999Y-66099999D01*
X65412499Y-66537499D02*
X65349999Y-66599999D01*
X68850000Y-71475000D02*
X67099999Y-69725000D01*
X65849999Y-66099999D02*
X65787499Y-66162499D01*
X72975000Y-71475000D02*
X68850000Y-71475000D01*
X65287499Y-68287500D02*
X65412499Y-68412500D01*
X65662499Y-66162499D02*
X65412499Y-66412499D01*
X66099999Y-66099999D02*
X65849999Y-66099999D01*
X65787499Y-69287500D02*
X66224999Y-69725000D01*
X67037499Y-69787500D02*
X67350000Y-69475000D01*
X65412499Y-69287500D02*
X65787499Y-69287500D01*
X66287499Y-69725000D02*
X66349999Y-69787500D01*
X65412499Y-66412499D02*
X65412499Y-66537499D01*
X66224999Y-69725000D02*
X66287499Y-69725000D01*
%TO.N,LORA_RF_MODULE*%
X68600000Y-66787499D02*
X68162500Y-66787499D01*
X68100000Y-63850000D02*
X68100000Y-66162499D01*
X68037500Y-63787500D02*
X68100000Y-63850000D01*
X68100000Y-66162499D02*
X68600000Y-66662499D01*
X66662499Y-67787500D02*
X66662499Y-67975000D01*
X66537499Y-62725000D02*
X67099999Y-62725000D01*
X67162500Y-67287500D02*
X66662499Y-67787500D01*
X67662500Y-67287500D02*
X67162500Y-67287500D01*
X66662499Y-69225000D02*
X66662499Y-67975000D01*
X68600000Y-66662499D02*
X68600000Y-66787499D01*
X68162500Y-66787499D02*
X67662500Y-67287500D01*
X68037500Y-63662500D02*
X68037500Y-63787500D01*
X67099999Y-62725000D02*
X68037500Y-63662500D01*
D83*
%TO.N,NOR_CLK_U1*%
X54225000Y-15975000D02*
X52975000Y-17225000D01*
X51975000Y-38850000D02*
X51975000Y-37725000D01*
X52975000Y-17225000D02*
X52975000Y-17975000D01*
%TO.N,NOR_CLK_U2*%
X54850000Y-15975000D02*
X56350000Y-17475000D01*
X61725000Y-21475000D02*
X62350000Y-21475000D01*
X59975000Y-20100000D02*
X60350000Y-20100000D01*
X62975000Y-22100000D02*
X64474999Y-22100000D01*
X59350000Y-19725000D02*
X59600000Y-19725000D01*
X56350000Y-17850000D02*
X57475000Y-18975000D01*
X62350000Y-21475000D02*
X62975000Y-22100000D01*
X59600000Y-19725000D02*
X59975000Y-20100000D01*
X58600000Y-18975000D02*
X59350000Y-19725000D01*
X79100000Y-27100000D02*
X80600000Y-27100000D01*
X56350000Y-17475000D02*
X56350000Y-17850000D01*
X60350000Y-20100000D02*
X61725000Y-21475000D01*
X57475000Y-18975000D02*
X58600000Y-18975000D01*
%TO.N,NOR_IO0_U1*%
X52975000Y-35850000D02*
X52975000Y-37725000D01*
X52950000Y-36450000D02*
X52950000Y-37700000D01*
X58200000Y-20700000D02*
X58200000Y-21200000D01*
X58200000Y-21200000D02*
X58450000Y-21200000D01*
X58450000Y-21450000D02*
X58700000Y-21700000D01*
X58450000Y-21200000D02*
X58450000Y-21450000D01*
X58225000Y-20725000D02*
X57600000Y-20100000D01*
%TO.N,NOR_IO0_U2*%
X59850000Y-21225000D02*
X59725000Y-21100000D01*
X79975000Y-27725000D02*
X78725000Y-27725000D01*
X59475000Y-21100000D02*
X59100000Y-20725000D01*
X78725000Y-27725000D02*
X75100000Y-24100000D01*
X59100000Y-20725000D02*
X58850000Y-20725000D01*
X59725000Y-21100000D02*
X59475000Y-21100000D01*
X80600000Y-28350000D02*
X79975000Y-27725000D01*
%TO.N,NOR_IO1_U1*%
X53475000Y-38850000D02*
X53475000Y-37725000D01*
X41975000Y-24100000D02*
X41475000Y-24600000D01*
X41975000Y-23975000D02*
X41975000Y-24100000D01*
%TO.N,NOR_IO1_U2*%
X42600000Y-23975000D02*
X43100000Y-24475000D01*
X43100000Y-24475000D02*
X43100000Y-24600000D01*
X69850000Y-35975000D02*
X71350000Y-35975000D01*
%TO.N,NOR_IO2_U1*%
X55950000Y-18950000D02*
X55950000Y-18700000D01*
X53975000Y-35850000D02*
X53975000Y-37725000D01*
X56475000Y-19475000D02*
X55350000Y-19475000D01*
X53950000Y-36450000D02*
X53950000Y-37700000D01*
X56450000Y-19450000D02*
X55950000Y-18950000D01*
%TO.N,NOR_IO2_U2*%
X59725000Y-20600000D02*
X60100000Y-20600000D01*
X61600000Y-22100000D02*
X61975000Y-22100000D01*
X57100000Y-19475000D02*
X58350000Y-19475000D01*
X59100000Y-20225000D02*
X59350000Y-20225000D01*
X58350000Y-19475000D02*
X59100000Y-20225000D01*
X60100000Y-20600000D02*
X61600000Y-22100000D01*
X59350000Y-20225000D02*
X59725000Y-20600000D01*
X78850000Y-35975000D02*
X80600000Y-35975000D01*
%TO.N,NOR_IO3_U1*%
X54475000Y-36850000D02*
X54725000Y-36600000D01*
X54475000Y-37725000D02*
X54475000Y-36850000D01*
X39475000Y-28475000D02*
X40225000Y-28475000D01*
%TO.N,NOR_IO3_U2*%
X41475000Y-27850000D02*
X40850000Y-28475000D01*
X70725000Y-27725000D02*
X69975000Y-27725000D01*
X71350000Y-27100000D02*
X70725000Y-27725000D01*
%TO.N,NOR_NCS_U2*%
X70850000Y-34725000D02*
X71350000Y-34725000D01*
X54350000Y-35225000D02*
X55350000Y-36225000D01*
X58850000Y-36475000D02*
X58975000Y-36475000D01*
X58725000Y-36225000D02*
X58850000Y-36350000D01*
X63475000Y-35975000D02*
X65224999Y-34225000D01*
X55350000Y-36225000D02*
X58725000Y-36225000D01*
X69350000Y-31475000D02*
X69975000Y-32100000D01*
X52350000Y-36850000D02*
X52350000Y-35475000D01*
X58975000Y-36475000D02*
X59100000Y-36600000D01*
X65224999Y-34225000D02*
X69600000Y-34225000D01*
X63475000Y-36350000D02*
X63475000Y-35975000D01*
X58850000Y-36350000D02*
X58850000Y-36475000D01*
X69600000Y-34225000D02*
X69975000Y-33850000D01*
X52475000Y-37725000D02*
X52475000Y-36850000D01*
X59100000Y-36600000D02*
X63225000Y-36600000D01*
X69975000Y-32100000D02*
X69975000Y-33850000D01*
X52350000Y-35475000D02*
X52600000Y-35225000D01*
X69975000Y-33850000D02*
X70850000Y-34725000D01*
X63225000Y-36600000D02*
X63475000Y-36350000D01*
X52600000Y-35225000D02*
X54350000Y-35225000D01*
X52475000Y-36850000D02*
X52350000Y-36850000D01*
%TO.N,SD_CMD_U1*%
X56950000Y-24450000D02*
X56450000Y-23950000D01*
X81200000Y-24450000D02*
X80450000Y-23700000D01*
X80450000Y-23700000D02*
X80200000Y-23700000D01*
X81700000Y-24450000D02*
X81200000Y-24450000D01*
X79950000Y-23450000D02*
X58450000Y-23450000D01*
X54700000Y-23950000D02*
X54450000Y-23700000D01*
X54450000Y-23700000D02*
X54450000Y-22200000D01*
X81950000Y-24200000D02*
X81700000Y-24450000D01*
X56450000Y-23950000D02*
X54700000Y-23950000D01*
X57450000Y-24450000D02*
X56950000Y-24450000D01*
X58450000Y-23450000D02*
X57450000Y-24450000D01*
X80200000Y-23700000D02*
X79950000Y-23450000D01*
X82700000Y-24200000D02*
X81950000Y-24200000D01*
%TO.N,SD_D2_U1*%
X57200000Y-23700000D02*
X56950000Y-23450000D01*
X89200000Y-22450000D02*
X89200000Y-21700000D01*
X89700000Y-22950000D02*
X89200000Y-22450000D01*
X56950000Y-23450000D02*
X56950000Y-22200000D01*
D84*
%TO.N,GNSS_RF_ANT_BIASED*%
X58412500Y-67975000D02*
X61950000Y-68250000D01*
X61950000Y-68250000D02*
X63200000Y-67000000D01*
X63200000Y-67000000D02*
X63200000Y-54700000D01*
X63200000Y-54700000D02*
X59500000Y-51000000D01*
X59500000Y-51000000D02*
X58625000Y-51600000D01*
%TO.N,GNSS_RF_DC_BLOCK*%
X57975000Y-51600000D02*
X57450000Y-51100000D01*
X57450000Y-51100000D02*
X56800000Y-51225000D01*
%TO.N,GNSS_RF_FILTERED*%
X56800000Y-53250000D02*
X56800000Y-52550000D01*
X56800000Y-52550000D02*
X56550000Y-51975000D01*
D83*
%TO.N,GND_DIGITAL*%
X56550000Y-51600000D02*
X55725000Y-51850000D01*
X57050000Y-51975000D02*
X57050000Y-51600000D01*
X57050000Y-51600000D02*
X57450000Y-51950000D01*
X57450000Y-51950000D02*
X57750000Y-52550000D01*
D85*
%TO.N,USB_DP_U1*%
X59750000Y-26000000D02*
X60700000Y-26000000D01*
X60700000Y-26000000D02*
X61200000Y-25850000D01*
X61200000Y-25850000D02*
X63000000Y-25850000D01*
X63000000Y-25850000D02*
X63450000Y-25400000D01*
X63450000Y-25400000D02*
X63675000Y-25250000D01*
%TO.N,USB_DM_U1*%
X59750000Y-26500000D02*
X60700000Y-26500000D01*
X60700000Y-26500000D02*
X61200000Y-26350000D01*
X61200000Y-26350000D02*
X61600000Y-26206900D01*
X61600000Y-26206900D02*
X61700000Y-26206900D01*
X61700000Y-26206900D02*
X61950000Y-26454798D01*
X61950000Y-26454798D02*
X62200000Y-26206900D01*
X62200000Y-26206900D02*
X63350000Y-26206900D01*
X63350000Y-26206900D02*
X63675000Y-26250000D01*
%TO.N,CELL_USB_DP_U8*%
X14850000Y-51100000D02*
X14150000Y-51324287D01*
X14150000Y-51324287D02*
X11025000Y-51324287D01*
X11025000Y-51324287D02*
X10325000Y-50750000D01*
%TO.N,CELL_USB_DM_U8*%
X14850000Y-52200000D02*
X14150000Y-51681187D01*
X14150000Y-51681187D02*
X11025000Y-51681187D01*
X11025000Y-51681187D02*
X10325000Y-52000000D01*
%TO.N,CELL_USB_DP_TP*%
X9675000Y-50750000D02*
X9675000Y-50150000D01*
X9675000Y-50150000D02*
X8200000Y-50150000D01*
X8200000Y-50150000D02*
X8075000Y-51150000D01*
%TO.N,CELL_USB_DM_TP*%
X9675000Y-52000000D02*
X9675000Y-52640569D01*
X9675000Y-52640569D02*
X8700000Y-52640569D01*
X8700000Y-52640569D02*
X8075000Y-51850000D01*
%TD*%
D86*
X49200000Y-21200000D03*
X61700000Y-30700000D03*
X52200000Y-23950000D03*
X78225000Y-22100000D03*
X67475000Y-61475000D03*
X62725000Y-24350000D03*
X104975000Y-19850000D03*
X43100000Y-32100000D03*
X62850000Y-35975000D03*
X61475000Y-54725000D03*
X82475000Y-62725000D03*
X94850000Y-4225000D03*
X74475000Y-68975000D03*
X45350000Y-8725000D03*
X62100000Y-32225000D03*
X66224999Y-34850000D03*
X67850000Y-27225000D03*
X58725000Y-53225000D03*
X41350000Y-9725000D03*
X104600000Y-31350000D03*
X65974999Y-67475000D03*
X64224999Y-50725000D03*
X61350000Y-42975000D03*
X42975000Y-29225000D03*
X41100000Y-12725000D03*
X55850000Y-20100000D03*
X57600000Y-68975000D03*
X43100000Y-27100000D03*
X57850000Y-40225000D03*
X81225000Y-19850000D03*
X68100000Y-67975000D03*
X48225000Y-62725000D03*
X44100000Y-12725000D03*
X107100000Y-28725000D03*
X67475000Y-46975000D03*
X16600000Y-27475000D03*
X58725000Y-37725000D03*
X46975000Y-23350000D03*
X95100000Y-29725000D03*
X90725000Y-32975000D03*
X45350000Y-37725000D03*
X64474999Y-53100000D03*
X52475000Y-47725000D03*
X56975000Y-38850000D03*
X61725000Y-29475000D03*
X62600000Y-49600000D03*
X85100000Y-17350000D03*
X48100000Y-19975000D03*
X103100000Y-17975000D03*
X48350000Y-57975000D03*
X47350000Y-18725000D03*
X82475000Y-48225000D03*
X92600000Y-23850000D03*
X83850000Y-54975000D03*
X84225000Y-20975000D03*
X37850000Y-8725000D03*
X64599999Y-30975000D03*
X80475000Y-54600000D03*
X69350000Y-26225000D03*
X43350000Y-8725000D03*
X74475000Y-73975000D03*
X42350000Y-21975000D03*
X86850000Y-20850000D03*
X82475000Y-63975000D03*
X60850000Y-24475000D03*
X90600000Y-7600000D03*
X91850000Y-20475000D03*
X68100000Y-38475000D03*
X61350000Y-48225000D03*
X60100000Y-61975000D03*
X81600000Y-3225000D03*
X55725000Y-51850000D03*
X55600000Y-44225000D03*
X65974999Y-66724999D03*
X43100000Y-34600000D03*
X61350000Y-47475000D03*
X66099999Y-30600000D03*
X67475000Y-63975000D03*
X69350000Y-28975000D03*
X81850000Y-21225000D03*
X38225000Y-8225000D03*
X61600000Y-61850000D03*
X53100000Y-43475000D03*
X64224999Y-54975000D03*
X42600000Y-27725000D03*
X62850000Y-33475000D03*
X65849999Y-41725000D03*
X93100000Y-17350000D03*
X56850000Y-49600000D03*
X94100000Y-20475000D03*
X84350000Y-49475000D03*
X95100000Y-40725000D03*
X45350000Y-32975000D03*
X79350000Y-35350000D03*
X103350000Y-13475000D03*
X60850000Y-53475000D03*
X58100000Y-48225000D03*
X45350000Y-28475000D03*
X103600000Y-28475000D03*
X45850000Y-8225000D03*
X62500000Y-26750000D03*
X67475000Y-31225000D03*
X81475000Y-46100000D03*
X53975000Y-65474999D03*
X59850000Y-56975000D03*
X39600000Y-11475000D03*
X89225000Y-37225000D03*
X59100000Y-65474999D03*
X67225000Y-35225000D03*
X60975000Y-30725000D03*
X62850000Y-25225000D03*
X42600000Y-11475000D03*
X63850000Y-40225000D03*
X82100000Y-23475000D03*
X43100000Y-33350000D03*
X60350000Y-63850000D03*
X49600000Y-64974999D03*
X105475000Y-40600000D03*
X89225000Y-20975000D03*
X31975000Y-23850000D03*
X83850000Y-53725000D03*
X43100000Y-25850000D03*
X67850000Y-28475000D03*
X45100000Y-11475000D03*
X83850000Y-50975000D03*
X63350000Y-37725000D03*
X46100000Y-19975000D03*
X80475000Y-55850000D03*
X51975000Y-46100000D03*
X105475000Y-31225000D03*
X66724999Y-31975000D03*
X69850000Y-29975000D03*
X43350000Y-37725000D03*
X53975000Y-70475000D03*
X81475000Y-60600000D03*
X62850000Y-34725000D03*
X86600000Y-33725000D03*
X43100000Y-35850000D03*
X7350000Y-40850000D03*
X102725000Y-55600000D03*
X8850000Y-43225000D03*
X99600000Y-53850000D03*
X89850000Y-65974999D03*
X39475000Y-61975000D03*
X37100000Y-67725000D03*
X7600000Y-38350000D03*
X101975000Y-53975000D03*
X93225000Y-65224999D03*
X48600000Y-44725000D03*
X48600000Y-45350000D03*
X90850000Y-65099999D03*
X89100000Y-67725000D03*
X9725000Y-38475000D03*
X101100000Y-51725000D03*
X51100000Y-42475000D03*
X37100000Y-61850000D03*
X44100000Y-48725000D03*
X15850000Y-25975000D03*
X39350000Y-65474999D03*
X16475000Y-73975000D03*
X65349999Y-17225000D03*
X38350000Y-54725000D03*
X20100000Y-27975000D03*
X15350000Y-15725000D03*
X61850000Y-17225000D03*
X62975000Y-17225000D03*
X15725000Y-40975000D03*
X71725000Y-11975000D03*
X19350000Y-36225000D03*
X25600000Y-39975000D03*
X23100000Y-47100000D03*
X18100000Y-57225000D03*
X35475000Y-12975000D03*
X16350000Y-33600000D03*
X8975000Y-50850000D03*
X19975000Y-17225000D03*
X15725000Y-4600000D03*
X20475000Y-59600000D03*
X20975000Y-39975000D03*
X25600000Y-35725000D03*
X19225000Y-29975000D03*
X38850000Y-57350000D03*
X28725000Y-4600000D03*
X60850000Y-14975000D03*
X14850000Y-32975000D03*
X25600000Y-34975000D03*
X30975000Y-56225000D03*
X11350000Y-40975000D03*
X11100000Y-46975000D03*
X17100000Y-17225000D03*
X21725000Y-17225000D03*
X15725000Y-33475000D03*
X20225000Y-19475000D03*
X42225000Y-64974999D03*
X31850000Y-15725000D03*
X39100000Y-57975000D03*
X15600000Y-29475000D03*
X19850000Y-39975000D03*
X25600000Y-58850000D03*
X21225000Y-67475000D03*
X7100000Y-51725000D03*
X18850000Y-17225000D03*
X26475000Y-19725000D03*
X31975000Y-62975000D03*
X34850000Y-16975000D03*
X7850000Y-52475000D03*
X31975000Y-40975000D03*
X39600000Y-30850000D03*
X71725000Y-4600000D03*
X34350000Y-27725000D03*
X31725000Y-19725000D03*
X24850000Y-47100000D03*
X11350000Y-42225000D03*
X22350000Y-35725000D03*
X21100000Y-37100000D03*
X11100000Y-53225000D03*
X11100000Y-54475000D03*
X26850000Y-37100000D03*
X17850000Y-14975000D03*
X17600000Y-39975000D03*
X22350000Y-58850000D03*
X56225000Y-29100000D03*
X24850000Y-43350000D03*
X11100000Y-49475000D03*
X27600000Y-59600000D03*
X22600000Y-68725000D03*
X15850000Y-36225000D03*
X22350000Y-32475000D03*
X23100000Y-56975000D03*
X17600000Y-30225000D03*
X30975000Y-54600000D03*
X16475000Y-68975000D03*
X18850000Y-55350000D03*
X11100000Y-55725000D03*
X58725000Y-4600000D03*
X20475000Y-44350000D03*
X32100000Y-43350000D03*
X32100000Y-44475000D03*
X39850000Y-64849999D03*
X27600000Y-44350000D03*
X31350000Y-34475000D03*
X20475000Y-46100000D03*
X23100000Y-43350000D03*
X38975000Y-53350000D03*
X24850000Y-56975000D03*
X15850000Y-44725000D03*
X19350000Y-33475000D03*
X26725000Y-39975000D03*
X11100000Y-48225000D03*
X58350000Y-15725000D03*
X25600000Y-30475000D03*
X20475000Y-57975000D03*
X23725000Y-68725000D03*
X60100000Y-17225000D03*
X51975000Y-38850000D03*
X52975000Y-17975000D03*
X64474999Y-22100000D03*
X79100000Y-27100000D03*
X52950000Y-36450000D03*
X52975000Y-35850000D03*
X57600000Y-20100000D03*
X58700000Y-21700000D03*
X75100000Y-24100000D03*
X59850000Y-21225000D03*
X41475000Y-24600000D03*
X53475000Y-38850000D03*
X43100000Y-24600000D03*
X69850000Y-35975000D03*
X52350000Y-33850000D03*
X53975000Y-35850000D03*
X53950000Y-36450000D03*
X55950000Y-18700000D03*
X55350000Y-19475000D03*
X61975000Y-22100000D03*
X78850000Y-35975000D03*
X39475000Y-28475000D03*
X54725000Y-36600000D03*
X69975000Y-27725000D03*
X41475000Y-27850000D03*
X54600000Y-27850000D03*
X57200000Y-23700000D03*
X89200000Y-21700000D03*
X57750000Y-52550000D03*
X8200000Y-50150000D03*
X8700000Y-52640569D03*
D87*
X44890000Y-6280000D03*
X39110000Y-6280000D03*
D88*
X46320000Y-6780000D03*
D89*
X46320000Y-2600000D03*
D88*
X37680000Y-6780000D03*
D89*
X37680000Y-2600000D03*
D87*
X8000000Y-5000000D03*
X105000000Y-70000000D03*
X5000000Y-70000000D03*
X4600000Y-27350000D03*
X4600000Y-16650000D03*
X8920000Y-29500000D03*
X8920000Y-26500000D03*
X8920000Y-23500000D03*
X8920000Y-20500000D03*
X8920000Y-17500000D03*
X8920000Y-14500000D03*
X11920000Y-29500000D03*
X11920000Y-26500000D03*
X11920000Y-23500000D03*
X11920000Y-20500000D03*
X11920000Y-17500000D03*
X11920000Y-14500000D03*
X23540000Y-11000000D03*
X23540000Y-4560000D03*
X21000000Y-11000000D03*
X21000000Y-4560000D03*
X18460000Y-11000000D03*
X18460000Y-4560000D03*
X105000000Y-5000000D03*
X66540000Y-11000000D03*
X66540000Y-4560000D03*
X64000000Y-11000000D03*
X64000000Y-4560000D03*
X61460000Y-11000000D03*
X61460000Y-4560000D03*
M02*
