%TF.GenerationSoftware,KiCad,Pcbnew,9.0.9*%
%TF.CreationDate,2026-09-24T12:47:35+00:00*%
%TF.ProjectId,PCB-MAIN,5043422d-4d41-4494-9e2e-6b696361645f,rev?*%
%TF.SameCoordinates,Original*%
%TF.FileFunction,Soldermask,Bot*%
%TF.FilePolarity,Negative*%
%FSLAX46Y46*%
G04 Gerber Fmt 4.6, Leading zero omitted, Abs format (unit mm)*
G04 Created by KiCad (PCBNEW 9.0.9) date 2026-09-24 12:47:35*
%MOMM*%
%LPD*%
G01*
G04 APERTURE LIST*
G04 Aperture macros list*
%AMRoundRect*
0 Rectangle with rounded corners*
0 $1 Rounding radius*
0 $2 $3 $4 $5 $6 $7 $8 $9 X,Y pos of 4 corners*
0 Add a 4 corners polygon primitive as box body*
4,1,4,$2,$3,$4,$5,$6,$7,$8,$9,$2,$3,0*
0 Add four circle primitives for the rounded corners*
1,1,$1+$1,$2,$3*
1,1,$1+$1,$4,$5*
1,1,$1+$1,$6,$7*
1,1,$1+$1,$8,$9*
0 Add four rect primitives between the rounded corners*
20,1,$1+$1,$2,$3,$4,$5,0*
20,1,$1+$1,$4,$5,$6,$7,0*
20,1,$1+$1,$6,$7,$8,$9,0*
20,1,$1+$1,$8,$9,$2,$3,0*%
G04 Aperture macros list end*
%ADD10C,0.650000*%
%ADD11O,1.000000X2.100000*%
%ADD12O,1.000000X1.800000*%
%ADD13C,3.000000*%
%ADD14RoundRect,0.300000X0.450000X-0.450000X0.450000X0.450000X-0.450000X0.450000X-0.450000X-0.450000X0*%
%ADD15C,1.500000*%
%ADD16C,1.200000*%
%ADD17C,2.100000*%
%ADD18C,0.350000*%
%ADD19O,0.600000X1.700000*%
%ADD20O,0.600000X1.400000*%
G04 APERTURE END LIST*
D10*
%TO.C,J11*%
X44890000Y-6280000D03*
X39110000Y-6280000D03*
D11*
X46320000Y-6780000D03*
D12*
X46320000Y-2600000D03*
D11*
X37680000Y-6780000D03*
D12*
X37680000Y-2600000D03*
%TD*%
D13*
%TO.C,J_PWR*%
X4600000Y-27350000D03*
X4600000Y-16650000D03*
D14*
X8920000Y-29500000D03*
D15*
X8920000Y-26500000D03*
X8920000Y-23500000D03*
X8920000Y-20500000D03*
X8920000Y-17500000D03*
X8920000Y-14500000D03*
X11920000Y-29500000D03*
X11920000Y-26500000D03*
X11920000Y-23500000D03*
X11920000Y-20500000D03*
X11920000Y-17500000D03*
X11920000Y-14500000D03*
%TD*%
D16*
%TO.C,J6*%
X23540000Y-11000000D03*
X23540000Y-4560000D03*
X21000000Y-11000000D03*
X21000000Y-4560000D03*
X18460000Y-11000000D03*
X18460000Y-4560000D03*
%TD*%
%TO.C,J7*%
X66540000Y-11000000D03*
X66540000Y-4560000D03*
X64000000Y-11000000D03*
X64000000Y-4560000D03*
X61460000Y-11000000D03*
X61460000Y-4560000D03*
%TD*%
D17*
%TO.C,TP_CELL_USB*%
X33000000Y-30000000D03*
X35539999Y-30000000D03*
X38079999Y-30000000D03*
X40619999Y-30000000D03*
%TD*%
%TO.C,TP_EOL*%
X33000000Y-23000000D03*
X35539999Y-23000000D03*
X38079999Y-23000000D03*
X40619999Y-23000000D03*
X43159999Y-23000000D03*
X45700000Y-23000000D03*
X48240000Y-23000000D03*
X50780000Y-23000000D03*
X53320000Y-23000000D03*
X55860000Y-23000000D03*
X58400000Y-23000000D03*
X60939999Y-23000000D03*
X63479999Y-23000000D03*
%TD*%
%TO.C,TP_BLE_SWD*%
X84000000Y-23000000D03*
X86540000Y-23000000D03*
X89079999Y-23000000D03*
X91620000Y-23000000D03*
%TD*%
%TO.C,TP_MCU_SWD*%
X69000000Y-23000000D03*
X71540000Y-23000000D03*
X74079999Y-23000000D03*
X76620000Y-23000000D03*
X79159999Y-23000000D03*
%TD*%
%TO.C,TP_CELL_DBG*%
X47000000Y-30000000D03*
X49539999Y-30000000D03*
X52079999Y-30000000D03*
X54619999Y-30000000D03*
X57159999Y-30000000D03*
%TD*%
D18*
X44890000Y-6280000D03*
X39110000Y-6280000D03*
D19*
X46320000Y-6780000D03*
D20*
X46320000Y-2600000D03*
D19*
X37680000Y-6780000D03*
D20*
X37680000Y-2600000D03*
D18*
X8000000Y-5000000D03*
X105000000Y-70000000D03*
X5000000Y-70000000D03*
X4600000Y-27350000D03*
X4600000Y-16650000D03*
X8920000Y-29500000D03*
X8920000Y-26500000D03*
X8920000Y-23500000D03*
X8920000Y-20500000D03*
X8920000Y-17500000D03*
X8920000Y-14500000D03*
X11920000Y-29500000D03*
X11920000Y-26500000D03*
X11920000Y-23500000D03*
X11920000Y-20500000D03*
X11920000Y-17500000D03*
X11920000Y-14500000D03*
X23540000Y-11000000D03*
X23540000Y-4560000D03*
X21000000Y-11000000D03*
X21000000Y-4560000D03*
X18460000Y-11000000D03*
X18460000Y-4560000D03*
X105000000Y-5000000D03*
X66540000Y-11000000D03*
X66540000Y-4560000D03*
X64000000Y-11000000D03*
X64000000Y-4560000D03*
X61460000Y-11000000D03*
X61460000Y-4560000D03*
M02*
