M48
; DRILL file KiCad 10.0.6 date 2026-09-29T22:29:41
; FORMAT={-:-/ absolute / metric / decimal}
; #@! TF.CreationDate,2026-09-29T22:29:41+03:00
; #@! TF.GenerationSoftware,Kicad,Pcbnew,10.0.6
; #@! TF.FileFunction,Plated,1,8,PTH
FMAT,2
METRIC
; #@! TA.AperFunction,Plated,PTH,ViaDrill
T1C0.150
; #@! TA.AperFunction,Plated,PTH,ViaDrill
T2C0.300
; #@! TA.AperFunction,Plated,PTH,ComponentDrill
T3C0.600
; #@! TA.AperFunction,Plated,PTH,ComponentDrill
T4C1.020
%
G90
G05
T1
X7.2Y-45.5
X8.2Y-37.95
X8.6Y-41.9
X8.7Y-35.5
X9.85Y-38.8
X10.8Y-50.0
X12.2Y-37.6
X12.5Y-50.9
X14.4Y-27.75
X15.7Y-54.5
X16.2Y-29.7
X16.8Y-39.0
X17.1Y-34.8
X18.175Y-16.0
X18.675Y-28.0
X21.195Y-20.0
X21.4Y-61.6
X23.2Y-19.0
X24.075Y-16.7
X25.1Y-22.7
X26.9Y-29.175
X29.1Y-41.4
X30.7Y-19.6
X31.1Y-15.9
X31.5Y-42.3
X31.8Y-23.2
X32.1Y-28.0
X32.2Y-61.4
X32.3Y-36.4
X32.5Y-24.2
X32.675Y-18.9
X34.3Y-33.6
X34.4Y-32.2
X34.4Y-35.9
X34.6Y-36.9
X35.3Y-27.7
X35.3Y-31.7
X35.6Y-26.3
X35.7Y-57.6
X36.5Y-55.6
X36.7Y-23.3
X37.0Y-45.5
X37.0Y-63.9
X37.2Y-31.5
X37.5Y-20.4
X37.6Y-18.1
X38.7Y-37.0
X38.7Y-59.8
X38.95Y-33.55
X39.35Y-29.9
X40.175Y-31.7
X40.582Y-64.45
X40.8Y-26.8
X40.813Y-8.617
X40.877Y-35.703
X40.9Y-55.0
X41.25Y-7.355
X41.6Y-8.7
X41.6Y-20.7
X41.75Y-30.4
X41.8Y-22.3
X41.9Y-34.5
X42.25Y-7.355
X42.4Y-8.8
X42.5Y-27.1
X42.5Y-33.45
X43.2Y-30.6
X43.2Y-60.5
X43.25Y-7.355
X43.8Y-24.5
X44.25Y-26.5
X44.25Y-29.0
X44.25Y-34.0
X44.35Y-19.5
X44.75Y-25.5
X44.75Y-27.5
X45.098Y-68.32
X45.2Y-19.25
X45.2Y-24.5
X45.2Y-42.8
X45.3Y-18.5
X45.5Y-38.4
X45.55Y-35.35
X45.607Y-20.562
X45.8Y-18.5
X45.8Y-36.3
X45.9Y-35.7
X46.3Y-34.3
X46.3Y-47.8
X46.5Y-37.7
X47.0Y-22.7
X47.0Y-26.4
X47.1Y-28.8
X47.3Y-36.6
X47.4Y-35.4
X47.5Y-21.4
X47.55Y-37.25
X47.75Y-24.75
X47.9Y-31.4
X48.05Y-21.45
X48.2Y-60.6
X48.24Y-24.75
X48.5Y-21.3
X48.6Y-15.3
X49.0Y-36.8
X49.0Y-51.825
X49.5Y-34.7
X49.678Y-55.194
X50.1Y-25.3
X50.25Y-20.55
X50.3Y-35.4
X50.5Y-40.5
X51.5Y-33.95
X51.5Y-37.8
X51.6Y-31.0
X51.8Y-39.2
X51.9Y-16.4
X52.0Y-23.4
X52.0Y-34.0
X52.0Y-43.2
X52.1Y-20.4
X52.5Y-21.9
X52.55Y-31.3
X52.6Y-19.4
X52.8Y-51.25
X52.9Y-49.4
X53.1Y-19.4
X53.1Y-47.0
X53.5Y-20.1
X54.017Y-55.183
X54.4Y-47.5
X54.7Y-47.0
X55.0Y-22.1
X55.4Y-45.6
X55.5Y-36.0
X55.9Y-21.2
X56.4Y-33.1
X56.5Y-34.5
X56.5Y-38.05
X56.5Y-43.0
X56.6Y-25.7
X56.6Y-33.9
X57.3Y-31.2
X57.4Y-19.1
X57.4Y-23.15
X57.5Y-22.1
X57.5Y-32.15
X57.5Y-37.75
X57.8Y-13.5
X57.85Y-29.0
X58.0Y-46.9
X58.0Y-47.4
X58.0Y-68.4
X58.1Y-18.5
X58.2Y-48.9
X58.3Y-29.5
X58.35Y-32.15
X58.4Y-57.3
X58.6Y-21.8
X58.8Y-25.9
X58.8Y-31.3
X58.8Y-40.8
X58.9Y-15.95
X59.0Y-20.7
X59.35Y-36.3
X59.4Y-21.2
X59.4Y-39.0
X59.5Y-19.7
X59.7Y-56.4
X59.75Y-32.5
X59.9Y-15.1
X60.0Y-58.7
X60.1Y-28.5
X60.2Y-47.4
X60.4Y-65.5
X60.6Y-21.9
X60.6Y-29.5
X60.7Y-17.1
X60.8Y-30.0
X60.8Y-34.9
X60.85Y-28.55
X61.0Y-58.425
X61.35Y-25.35
X61.5Y-21.8
X61.5Y-46.1
X61.675Y-27.898
X61.7Y-65.5
X62.0Y-28.5
X62.0Y-46.3
X62.1Y-29.0
X62.2Y-32.9
X62.25Y-30.5
X62.4Y-21.9
X63.0Y-21.9
X63.23Y-24.75
X63.4Y-35.6
X63.5Y-54.4
X63.55Y-29.65
X63.6Y-44.8
X63.7Y-59.6
X63.9Y-27.3
X64.0Y-57.1
X64.1Y-62.5
X64.3Y-28.4
X64.5Y-49.0
X64.7Y-47.9
X64.8Y-32.3
X64.925Y-53.75
X65.0Y-27.45
X65.05Y-48.27
X65.1Y-24.8
X65.237Y-29.255
X65.4Y-39.2
X65.5Y-54.9
X65.6Y-31.75
X65.75Y-29.737
X66.1Y-30.65
X66.2Y-22.4
X66.5Y-45.2
X67.0Y-43.5
X67.1Y-36.2
X67.3Y-31.8
X67.6Y-46.4
X68.0Y-56.0
X68.4Y-32.2
X68.4Y-34.6
X68.4Y-45.1
X69.2Y-41.9
X69.6Y-30.9
X69.7Y-40.2
X69.8Y-17.6
X70.3Y-16.2
X70.3Y-17.4
X70.3Y-24.0
X70.4Y-22.3
X71.1Y-49.1
X72.0Y-20.8
X72.1Y-17.6
X72.4Y-24.1
X72.7Y-30.3
X73.2Y-22.3
X73.3Y-29.1
X74.3Y-24.8
X75.5Y-21.7
X75.5Y-22.2
X75.5Y-25.2
X77.1Y-55.1
X77.2Y-21.9
X79.5Y-18.027
X80.01Y-20.5
X80.325Y-23.25
X81.5Y-22.0
X81.8Y-21.5
X81.9Y-20.5
X82.2Y-64.6
X82.582Y-21.0
X82.7Y-18.6
X82.9Y-22.45
X83.325Y-24.25
X84.4Y-24.2
X84.875Y-25.081
X84.9Y-26.3
X85.0Y-13.4
X85.9Y-26.3
X86.5Y-26.3
X86.825Y-24.25
X87.1Y-19.0
X87.6Y-23.7
X87.85Y-23.05
X89.1Y-21.8
X89.3Y-19.1
X90.325Y-23.0
X90.625Y-23.95
X94.733Y-67.6
T2
X5.62Y-40.711
X5.8Y-38.5
X5.893Y-25.195
X7.1Y-51.725
X7.35Y-40.85
X7.586Y-37.591
X7.6Y-38.35
X7.623Y-41.675
X7.85Y-52.475
X8.2Y-50.15
X8.598Y-47.757
X8.7Y-52.641
X8.85Y-43.225
X8.864Y-57.0
X8.975Y-50.85
X9.8Y-25.4
X11.1Y-46.975
X11.1Y-48.225
X11.1Y-49.475
X11.1Y-53.225
X11.1Y-54.475
X11.1Y-55.725
X11.11Y-37.498
X11.35Y-40.975
X11.35Y-42.225
X11.351Y-45.75
X11.72Y-46.384
X11.951Y-43.574
X13.427Y-36.203
X13.848Y-57.01
X14.622Y-36.12
X14.633Y-34.923
X14.836Y-31.612
X14.85Y-32.975
X15.013Y-38.376
X15.35Y-15.725
X15.6Y-29.475
X15.725Y-4.6
X15.725Y-33.475
X15.725Y-40.975
X15.85Y-25.975
X15.85Y-36.225
X15.85Y-44.725
X15.865Y-58.798
X16.001Y-32.77
X16.019Y-17.867
X16.35Y-33.6
X16.475Y-68.975
X16.475Y-73.975
X16.503Y-30.222
X16.6Y-27.475
X16.849Y-32.171
X17.052Y-50.0
X17.1Y-17.225
X17.4Y-26.9
X17.462Y-36.217
X17.6Y-30.225
X17.6Y-39.975
X17.65Y-59.589
X17.807Y-18.006
X17.85Y-14.975
X18.085Y-61.992
X18.1Y-57.225
X18.171Y-36.131
X18.459Y-31.112
X18.85Y-17.225
X18.85Y-55.35
X19.204Y-37.073
X19.225Y-29.975
X19.35Y-33.475
X19.35Y-36.225
X19.85Y-39.975
X19.878Y-32.998
X19.975Y-17.225
X20.1Y-27.975
X20.125Y-37.119
X20.225Y-19.475
X20.475Y-44.35
X20.475Y-46.1
X20.475Y-57.975
X20.475Y-59.6
X20.85Y-17.214
X20.975Y-39.975
X21.1Y-37.1
X21.225Y-67.475
X21.367Y-42.16
X21.725Y-17.225
X22.194Y-64.003
X22.285Y-37.297
X22.316Y-33.188
X22.32Y-30.475
X22.35Y-32.475
X22.35Y-35.725
X22.35Y-58.85
X22.557Y-36.548
X22.6Y-68.725
X22.643Y-27.652
X23.1Y-43.35
X23.1Y-47.1
X23.1Y-56.975
X23.393Y-30.43
X23.447Y-17.933
X23.725Y-68.725
X23.748Y-15.397
X23.997Y-20.767
X24.241Y-31.467
X24.85Y-43.35
X24.85Y-47.1
X24.85Y-56.975
X24.981Y-15.581
X25.1Y-23.9
X25.123Y-17.037
X25.6Y-30.475
X25.6Y-34.975
X25.6Y-35.725
X25.6Y-39.975
X25.6Y-58.85
X25.681Y-33.725
X26.475Y-19.725
X26.725Y-39.975
X26.85Y-37.1
X27.25Y-61.989
X27.6Y-44.35
X27.6Y-59.6
X28.4Y-39.687
X28.544Y-59.772
X28.725Y-4.6
X29.119Y-17.235
X29.119Y-32.403
X29.124Y-37.015
X30.0Y-20.587
X30.087Y-17.199
X30.511Y-27.508
X30.694Y-58.998
X30.975Y-54.6
X30.975Y-56.225
X31.135Y-24.328
X31.35Y-34.475
X31.417Y-29.25
X31.68Y-39.733
X31.725Y-19.725
X31.85Y-15.725
X31.975Y-23.85
X31.975Y-40.975
X31.975Y-62.975
X32.1Y-43.35
X32.1Y-44.475
X32.142Y-58.3
X32.144Y-53.88
X32.146Y-46.523
X32.163Y-31.109
X32.163Y-37.392
X32.231Y-34.261
X32.397Y-20.923
X32.532Y-27.592
X32.941Y-63.407
X32.981Y-24.782
X33.716Y-31.888
X33.876Y-30.993
X34.073Y-37.29
X34.152Y-48.9
X34.152Y-45.402
X34.25Y-61.6
X34.35Y-27.725
X34.476Y-23.864
X34.672Y-13.703
X34.85Y-16.975
X34.966Y-59.891
X35.018Y-21.575
X35.083Y-15.885
X35.2Y-26.9
X35.475Y-12.975
X35.828Y-56.847
X35.872Y-36.246
X35.91Y-19.896
X36.17Y-59.631
X36.46Y-50.679
X36.622Y-18.327
X36.7Y-60.6
X36.781Y-17.025
X36.99Y-19.537
X36.996Y-59.25
X37.094Y-62.585
X37.1Y-61.85
X37.1Y-67.725
X37.5Y-24.9
X37.622Y-27.443
X37.76Y-53.314
X37.85Y-8.725
X37.925Y-64.741
X38.028Y-20.116
X38.116Y-17.483
X38.175Y-15.075
X38.197Y-39.733
X38.225Y-8.225
X38.35Y-54.725
X38.375Y-33.8
X38.42Y-44.776
X38.438Y-67.213
X38.5Y-52.0
X38.85Y-57.35
X38.975Y-53.35
X39.1Y-57.975
X39.35Y-65.475
X39.432Y-61.09
X39.475Y-28.475
X39.475Y-61.975
X39.482Y-31.56
X39.564Y-27.773
X39.6Y-11.475
X39.6Y-30.85
X39.85Y-64.85
X40.204Y-61.162
X40.275Y-26.525
X40.331Y-54.789
X40.38Y-57.475
X40.474Y-11.576
X40.582Y-63.44
X40.607Y-20.275
X40.975Y-25.1
X41.1Y-12.725
X41.142Y-66.559
X41.243Y-36.32
X41.35Y-9.725
X41.352Y-33.367
X41.475Y-27.85
X42.062Y-66.662
X42.088Y-17.444
X42.225Y-64.975
X42.35Y-21.975
X42.515Y-59.332
X42.6Y-11.475
X42.6Y-27.725
X42.869Y-44.7
X42.975Y-29.225
X43.013Y-24.534
X43.1Y-25.85
X43.1Y-27.1
X43.1Y-32.1
X43.1Y-33.35
X43.1Y-34.6
X43.1Y-35.85
X43.35Y-8.725
X43.35Y-37.725
X43.926Y-19.058
X44.077Y-37.664
X44.1Y-12.725
X44.1Y-48.725
X44.2Y-43.3
X44.771Y-36.611
X44.857Y-54.132
X45.05Y-21.85
X45.1Y-11.475
X45.34Y-46.0
X45.35Y-8.725
X45.35Y-28.475
X45.35Y-32.975
X45.35Y-37.725
X45.361Y-54.636
X45.45Y-31.0
X45.77Y-25.274
X45.85Y-8.225
X45.922Y-25.976
X46.1Y-19.975
X46.222Y-59.051
X46.3Y-21.22
X46.849Y-46.74
X46.975Y-23.35
X47.085Y-32.605
X47.325Y-30.6
X47.34Y-50.469
X47.35Y-18.725
X47.371Y-38.997
X47.7Y-60.226
X47.878Y-46.282
X48.027Y-14.8
X48.052Y-33.477
X48.1Y-19.975
X48.225Y-62.725
X48.35Y-57.975
X48.6Y-44.725
X48.6Y-45.35
X48.677Y-46.972
X48.689Y-56.714
X48.694Y-25.352
X48.705Y-26.111
X48.792Y-32.441
X48.937Y-20.204
X49.0Y-35.944
X49.2Y-21.2
X49.252Y-38.977
X49.6Y-64.975
X49.65Y-20.65
X49.728Y-61.396
X49.908Y-41.397
X50.016Y-19.224
X50.308Y-36.686
X50.604Y-28.377
X50.707Y-39.904
X50.715Y-41.055
X51.1Y-42.475
X51.275Y-38.85
X51.3Y-64.117
X51.4Y-36.65
X51.475Y-35.05
X51.477Y-19.676
X51.645Y-27.235
X51.813Y-42.424
X51.975Y-46.1
X52.2Y-23.95
X52.238Y-55.46
X52.25Y-24.65
X52.4Y-33.15
X52.475Y-47.725
X52.775Y-38.85
X52.8Y-35.6
X52.848Y-39.965
X53.1Y-43.475
X53.121Y-20.846
X53.4Y-42.8
X53.428Y-55.445
X53.975Y-65.475
X53.975Y-70.475
X53.991Y-20.75
X54.014Y-43.522
X54.075Y-19.825
X54.292Y-42.774
X54.6Y-27.15
X54.6Y-54.912
X54.7Y-34.8
X54.725Y-36.6
X54.8Y-19.75
X55.0Y-38.826
X55.032Y-46.5
X55.129Y-25.641
X55.444Y-18.983
X55.5Y-24.5
X55.592Y-43.491
X55.6Y-44.225
X55.624Y-47.967
X55.725Y-51.85
X55.824Y-34.976
X55.85Y-20.1
X56.225Y-29.1
X56.45Y-24.7
X56.83Y-32.294
X56.85Y-49.6
X56.975Y-38.85
X57.226Y-34.449
X57.6Y-68.975
X57.605Y-15.79
X57.675Y-20.15
X57.75Y-52.55
X57.8Y-25.65
X57.85Y-40.225
X58.05Y-24.6
X58.063Y-44.318
X58.1Y-48.225
X58.2Y-19.15
X58.35Y-15.725
X58.4Y-26.5
X58.688Y-33.996
X58.725Y-4.6
X58.725Y-37.725
X58.725Y-53.225
X58.757Y-38.573
X58.8Y-39.6
X59.1Y-65.475
X59.16Y-42.113
X59.234Y-64.766
X59.337Y-45.109
X59.4Y-21.8
X59.511Y-43.265
X59.85Y-56.975
X60.1Y-17.225
X60.1Y-61.975
X60.35Y-63.85
X60.356Y-37.409
X60.5Y-20.95
X60.611Y-51.352
X60.664Y-45.175
X60.726Y-18.633
X60.806Y-31.999
X60.809Y-32.998
X60.85Y-14.975
X60.85Y-24.475
X60.85Y-53.475
X60.876Y-12.899
X60.975Y-30.725
X61.025Y-27.05
X61.269Y-44.57
X61.35Y-18.95
X61.35Y-42.975
X61.35Y-47.475
X61.35Y-48.225
X61.475Y-54.725
X61.596Y-32.783
X61.6Y-61.85
X61.644Y-40.492
X61.7Y-30.7
X61.725Y-29.475
X61.85Y-17.225
X61.85Y-21.05
X62.084Y-55.501
X62.1Y-32.225
X62.154Y-63.986
X62.475Y-20.7
X62.5Y-26.75
X62.546Y-61.023
X62.6Y-49.6
X62.725Y-24.35
X62.85Y-25.225
X62.85Y-33.475
X62.85Y-34.725
X62.85Y-35.975
X62.975Y-17.225
X63.178Y-15.708
X63.35Y-37.725
X63.5Y-20.95
X63.85Y-40.225
X63.904Y-36.868
X63.96Y-56.423
X64.225Y-50.725
X64.225Y-54.975
X64.364Y-60.012
X64.404Y-40.921
X64.475Y-53.1
X64.53Y-31.702
X64.6Y-30.975
X64.635Y-37.31
X64.638Y-29.301
X64.713Y-49.639
X64.828Y-45.966
X64.925Y-51.663
X65.175Y-22.05
X65.253Y-57.857
X65.35Y-17.225
X65.357Y-56.966
X65.619Y-49.572
X65.685Y-38.17
X65.686Y-51.454
X65.85Y-41.725
X65.975Y-66.725
X65.975Y-67.475
X66.225Y-34.85
X66.298Y-15.765
X66.35Y-21.4
X66.725Y-31.975
X67.225Y-35.225
X67.456Y-50.63
X67.475Y-31.225
X67.475Y-46.975
X67.475Y-61.475
X67.475Y-63.975
X67.752Y-15.765
X67.85Y-27.225
X67.85Y-28.475
X67.91Y-36.03
X68.071Y-54.386
X68.1Y-38.475
X68.1Y-67.975
X68.407Y-17.216
X68.444Y-55.568
X68.58Y-48.657
X68.801Y-15.11
X69.35Y-26.225
X69.35Y-28.975
X69.699Y-18.878
X69.85Y-29.975
X69.85Y-35.275
X69.9Y-33.95
X69.975Y-27.725
X71.35Y-35.8
X71.68Y-13.706
X71.725Y-4.6
X71.725Y-11.975
X72.316Y-21.3
X72.75Y-21.85
X72.87Y-28.465
X72.921Y-36.457
X74.475Y-68.975
X74.475Y-73.975
X74.762Y-13.564
X75.05Y-24.8
X75.1Y-24.1
X78.225Y-22.1
X78.85Y-35.975
X79.1Y-26.4
X79.1Y-27.1
X79.35Y-35.35
X80.475Y-54.6
X80.475Y-55.85
X80.493Y-49.628
X80.544Y-53.781
X81.128Y-37.155
X81.225Y-19.85
X81.358Y-23.702
X81.475Y-46.1
X81.475Y-60.6
X81.6Y-3.225
X81.938Y-59.184
X82.1Y-23.475
X82.425Y-52.326
X82.475Y-48.225
X82.475Y-62.725
X82.475Y-63.975
X82.918Y-64.528
X83.66Y-32.462
X83.683Y-18.09
X83.756Y-56.008
X83.85Y-50.975
X83.85Y-53.725
X83.85Y-54.975
X83.862Y-24.833
X84.225Y-20.975
X84.35Y-49.475
X84.425Y-25.264
X84.488Y-32.5
X85.1Y-17.35
X85.119Y-20.373
X85.387Y-21.886
X85.65Y-24.853
X86.367Y-21.5
X86.42Y-24.963
X86.6Y-33.725
X86.628Y-11.179
X86.85Y-20.85
X87.832Y-32.445
X88.104Y-10.735
X88.209Y-18.757
X88.395Y-7.539
X89.1Y-67.725
X89.2Y-17.72
X89.225Y-20.975
X89.225Y-37.225
X89.85Y-65.975
X90.453Y-22.19
X90.485Y-64.34
X90.6Y-7.6
X90.725Y-32.975
X90.825Y-63.684
X90.85Y-65.1
X90.975Y-67.212
X91.85Y-20.475
X92.103Y-24.453
X92.356Y-67.455
X92.6Y-23.85
X93.1Y-17.35
X93.225Y-65.225
X93.961Y-21.414
X94.1Y-20.475
X94.343Y-34.45
X94.343Y-36.45
X94.85Y-4.225
X95.1Y-29.725
X95.1Y-40.725
X96.05Y-40.663
X96.506Y-38.423
X96.632Y-15.476
X98.094Y-52.989
X98.998Y-53.406
X99.081Y-42.469
X99.6Y-53.85
X100.052Y-51.034
X101.1Y-51.725
X101.963Y-55.197
X101.975Y-53.975
X102.725Y-55.6
X103.1Y-17.975
X103.35Y-13.475
X103.6Y-28.475
X103.914Y-40.663
X104.368Y-53.181
X104.6Y-31.35
X104.725Y-40.652
X104.975Y-19.85
X105.475Y-31.225
X105.475Y-40.6
X107.1Y-28.725
T4
X8.92Y-14.5
X8.92Y-17.5
X8.92Y-20.5
X8.92Y-23.5
X8.92Y-26.5
X8.92Y-29.5
X11.92Y-14.5
X11.92Y-17.5
X11.92Y-20.5
X11.92Y-23.5
X11.92Y-26.5
X11.92Y-29.5
T3
X37.68Y-3.0G85X37.68Y-2.2
G05
X37.68Y-7.33G85X37.68Y-6.23
G05
X46.32Y-3.0G85X46.32Y-2.2
G05
X46.32Y-7.33G85X46.32Y-6.23
G05
M30
