0
SECTION
2
HEADER
9
$INSUNITS
70
4
0
ENDSEC
0
SECTION
2
ENTITIES
0
LINE
8
BOARD_OUTLINE
10
0.000
20
0.000
11
110.000
21
0.000
0
LINE
8
BOARD_OUTLINE
10
110.000
20
0.000
11
110.000
21
75.000
0
LINE
8
BOARD_OUTLINE
10
110.000
20
75.000
11
0.000
21
75.000
0
LINE
8
BOARD_OUTLINE
10
0.000
20
75.000
11
0.000
21
0.000
0
CIRCLE
8
MOUNTING_HOLES_D3_2
10
102.000
20
5.000
40
1.600
0
TEXT
8
LABELS
10
104.200
20
6.200
40
1.500
1
H1
0
CIRCLE
8
MOUNTING_HOLES_D3_2
10
5.000
20
5.000
40
1.600
0
TEXT
8
LABELS
10
7.200
20
6.200
40
1.500
1
H2
0
CIRCLE
8
MOUNTING_HOLES_D3_2
10
5.000
20
70.000
40
1.600
0
TEXT
8
LABELS
10
7.200
20
71.200
40
1.500
1
H3
0
CIRCLE
8
MOUNTING_HOLES_D3_2
10
105.000
20
70.000
40
1.600
0
TEXT
8
LABELS
10
107.200
20
71.200
40
1.500
1
H4
0
CIRCLE
8
POGO_D1_7
10
26.000
20
23.000
40
0.850
0
TEXT
8
LABELS
10
25.300
20
24.700
40
1.100
1
BS1
0
CIRCLE
8
POGO_D1_7
10
23.460
20
23.000
40
0.850
0
TEXT
8
LABELS
10
22.760
20
24.700
40
1.100
1
BS2
0
CIRCLE
8
POGO_D1_7
10
20.920
20
23.000
40
0.850
0
TEXT
8
LABELS
10
20.220
20
24.700
40
1.100
1
BS3
0
CIRCLE
8
POGO_D1_7
10
18.380
20
23.000
40
0.850
0
TEXT
8
LABELS
10
17.680
20
24.700
40
1.100
1
BS4
0
CIRCLE
8
POGO_D1_7
10
63.000
20
30.000
40
0.850
0
TEXT
8
LABELS
10
62.300
20
31.700
40
1.100
1
CD1
0
CIRCLE
8
POGO_D1_7
10
60.460
20
30.000
40
0.850
0
TEXT
8
LABELS
10
59.760
20
31.700
40
1.100
1
CD2
0
CIRCLE
8
POGO_D1_7
10
57.920
20
30.000
40
0.850
0
TEXT
8
LABELS
10
57.220
20
31.700
40
1.100
1
CD3
0
CIRCLE
8
POGO_D1_7
10
55.380
20
30.000
40
0.850
0
TEXT
8
LABELS
10
54.680
20
31.700
40
1.100
1
CD4
0
CIRCLE
8
POGO_D1_7
10
52.840
20
30.000
40
0.850
0
TEXT
8
LABELS
10
52.140
20
31.700
40
1.100
1
CD5
0
CIRCLE
8
POGO_D1_7
10
77.000
20
30.000
40
0.850
0
TEXT
8
LABELS
10
76.300
20
31.700
40
1.100
1
CU1
0
CIRCLE
8
POGO_D1_7
10
74.460
20
30.000
40
0.850
0
TEXT
8
LABELS
10
73.760
20
31.700
40
1.100
1
CU2
0
CIRCLE
8
POGO_D1_7
10
71.920
20
30.000
40
0.850
0
TEXT
8
LABELS
10
71.220
20
31.700
40
1.100
1
CU3
0
CIRCLE
8
POGO_D1_7
10
69.380
20
30.000
40
0.850
0
TEXT
8
LABELS
10
68.680
20
31.700
40
1.100
1
CU4
0
CIRCLE
8
POGO_D1_7
10
77.000
20
23.000
40
0.850
0
TEXT
8
LABELS
10
76.300
20
24.700
40
1.100
1
E1
0
CIRCLE
8
POGO_D1_7
10
74.460
20
23.000
40
0.850
0
TEXT
8
LABELS
10
73.760
20
24.700
40
1.100
1
E2
0
CIRCLE
8
POGO_D1_7
10
71.920
20
23.000
40
0.850
0
TEXT
8
LABELS
10
71.220
20
24.700
40
1.100
1
E3
0
CIRCLE
8
POGO_D1_7
10
69.380
20
23.000
40
0.850
0
TEXT
8
LABELS
10
68.680
20
24.700
40
1.100
1
E4
0
CIRCLE
8
POGO_D1_7
10
66.840
20
23.000
40
0.850
0
TEXT
8
LABELS
10
66.140
20
24.700
40
1.100
1
E5
0
CIRCLE
8
POGO_D1_7
10
64.300
20
23.000
40
0.850
0
TEXT
8
LABELS
10
63.600
20
24.700
40
1.100
1
E6
0
CIRCLE
8
POGO_D1_7
10
61.760
20
23.000
40
0.850
0
TEXT
8
LABELS
10
61.060
20
24.700
40
1.100
1
E7
0
CIRCLE
8
POGO_D1_7
10
59.220
20
23.000
40
0.850
0
TEXT
8
LABELS
10
58.520
20
24.700
40
1.100
1
E8
0
CIRCLE
8
POGO_D1_7
10
56.680
20
23.000
40
0.850
0
TEXT
8
LABELS
10
55.980
20
24.700
40
1.100
1
E9
0
CIRCLE
8
POGO_D1_7
10
54.140
20
23.000
40
0.850
0
TEXT
8
LABELS
10
53.440
20
24.700
40
1.100
1
E10
0
CIRCLE
8
POGO_D1_7
10
51.600
20
23.000
40
0.850
0
TEXT
8
LABELS
10
50.900
20
24.700
40
1.100
1
E11
0
CIRCLE
8
POGO_D1_7
10
49.060
20
23.000
40
0.850
0
TEXT
8
LABELS
10
48.360
20
24.700
40
1.100
1
E12
0
CIRCLE
8
POGO_D1_7
10
46.520
20
23.000
40
0.850
0
TEXT
8
LABELS
10
45.820
20
24.700
40
1.100
1
E13
0
CIRCLE
8
POGO_D1_7
10
41.000
20
23.000
40
0.850
0
TEXT
8
LABELS
10
40.300
20
24.700
40
1.100
1
MS1
0
CIRCLE
8
POGO_D1_7
10
38.460
20
23.000
40
0.850
0
TEXT
8
LABELS
10
37.760
20
24.700
40
1.100
1
MS2
0
CIRCLE
8
POGO_D1_7
10
35.920
20
23.000
40
0.850
0
TEXT
8
LABELS
10
35.220
20
24.700
40
1.100
1
MS3
0
CIRCLE
8
POGO_D1_7
10
33.380
20
23.000
40
0.850
0
TEXT
8
LABELS
10
32.680
20
24.700
40
1.100
1
MS4
0
CIRCLE
8
POGO_D1_7
10
30.840
20
23.000
40
0.850
0
TEXT
8
LABELS
10
30.140
20
24.700
40
1.100
1
MS5
0
TEXT
8
NOTES
10
2.000
20
72.000
40
2.200
1
MFG-004 BOTTOM FIXTURE VIEW - DO NOT MIRROR AGAIN
0
ENDSEC
0
EOF
