%TF.GenerationSoftware,KiCad,Pcbnew,10.0.6*%
%TF.CreationDate,2026-09-29T22:29:41+03:00*%
%TF.ProjectId,PCB-MAIN_8L_COMPLETE_105_CANDIDATE_REV_B,5043422d-4d41-4494-9e5f-384c5f434f4d,B*%
%TF.SameCoordinates,Original*%
%TF.FileFunction,Legend,Top*%
%TF.FilePolarity,Positive*%
%FSLAX46Y46*%
G04 Gerber Fmt 4.6, Leading zero omitted, Abs format (unit mm)*
G04 Created by KiCad (PCBNEW 10.0.6) date 2026-09-29 22:29:41*
%MOMM*%
%LPD*%
G01*
G04 APERTURE LIST*
G04 Aperture macros list*
%AMRoundRect*
0 Rectangle with rounded corners*
0 $1 Rounding radius*
0 $2 $3 $4 $5 $6 $7 $8 $9 X,Y pos of 4 corners*
0 Add a 4 corners polygon primitive as box body*
4,1,4,$2,$3,$4,$5,$6,$7,$8,$9,$2,$3,0*
0 Add four circle primitives for the rounded corners*
1,1,$1+$1,$2,$3*
1,1,$1+$1,$4,$5*
1,1,$1+$1,$6,$7*
1,1,$1+$1,$8,$9*
0 Add four rect primitives between the rounded corners*
20,1,$1+$1,$2,$3,$4,$5,0*
20,1,$1+$1,$4,$5,$6,$7,0*
20,1,$1+$1,$6,$7,$8,$9,0*
20,1,$1+$1,$8,$9,$2,$3,0*%
G04 Aperture macros list end*
%ADD10C,0.120000*%
%ADD11C,0.100000*%
%ADD12RoundRect,0.090000X0.135000X0.160000X-0.135000X0.160000X-0.135000X-0.160000X0.135000X-0.160000X0*%
%ADD13R,0.400000X0.600000*%
%ADD14R,0.600000X0.400000*%
%ADD15RoundRect,0.075000X-0.350000X-0.300000X0.350000X-0.300000X0.350000X0.300000X-0.350000X0.300000X0*%
%ADD16RoundRect,0.090000X-0.135000X-0.160000X0.135000X-0.160000X0.135000X0.160000X-0.135000X0.160000X0*%
%ADD17R,1.800000X1.250000*%
%ADD18R,1.000000X0.600000*%
%ADD19RoundRect,0.120000X0.380000X-0.180000X0.380000X0.180000X-0.380000X0.180000X-0.380000X-0.180000X0*%
%ADD20RoundRect,0.140000X-0.210000X-0.260000X0.210000X-0.260000X0.210000X0.260000X-0.210000X0.260000X0*%
%ADD21RoundRect,0.170000X-0.182500X-0.000010X0.182500X-0.000010X0.182500X0.000010X-0.182500X0.000010X0*%
%ADD22RoundRect,0.170000X-0.182500X-0.100000X0.182500X-0.100000X0.182500X0.100000X-0.182500X0.100000X0*%
%ADD23RoundRect,0.200000X-0.300000X-0.400000X0.300000X-0.400000X0.300000X0.400000X-0.300000X0.400000X0*%
%ADD24R,1.200000X0.300000*%
%ADD25R,0.300000X1.200000*%
%ADD26R,2.370000X2.430000*%
%ADD27C,0.650000*%
%ADD28RoundRect,0.150000X0.150000X0.405000X-0.150000X0.405000X-0.150000X-0.405000X0.150000X-0.405000X0*%
%ADD29RoundRect,0.150000X0.150000X0.425000X-0.150000X0.425000X-0.150000X-0.425000X0.150000X-0.425000X0*%
%ADD30RoundRect,0.075000X0.075000X0.500000X-0.075000X0.500000X-0.075000X-0.500000X0.075000X-0.500000X0*%
%ADD31O,1.000000X2.100000*%
%ADD32O,1.000000X1.800000*%
%ADD33RoundRect,0.250000X0.650000X-0.375000X0.650000X0.375000X-0.650000X0.375000X-0.650000X-0.375000X0*%
%ADD34RoundRect,0.150000X0.350000X-0.150000X0.350000X0.150000X-0.350000X0.150000X-0.350000X-0.150000X0*%
%ADD35RoundRect,0.150000X-0.235000X-0.100000X0.235000X-0.100000X0.235000X0.100000X-0.235000X0.100000X0*%
%ADD36RoundRect,0.100000X-0.700000X-0.175000X0.700000X-0.175000X0.700000X0.175000X-0.700000X0.175000X0*%
%ADD37R,0.300000X0.250000*%
%ADD38R,0.256000X0.200000*%
%ADD39RoundRect,0.050000X-0.078000X-0.050000X0.078000X-0.050000X0.078000X0.050000X-0.078000X0.050000X0*%
%ADD40RoundRect,0.090000X0.160000X-0.135000X0.160000X0.135000X-0.160000X0.135000X-0.160000X-0.135000X0*%
%ADD41R,0.700000X1.800000*%
%ADD42R,0.800000X1.800000*%
%ADD43RoundRect,0.150000X-0.875000X-0.150000X0.875000X-0.150000X0.875000X0.150000X-0.875000X0.150000X0*%
%ADD44RoundRect,0.050000X-0.187500X-0.175000X0.187500X-0.175000X0.187500X0.175000X-0.187500X0.175000X0*%
%ADD45RoundRect,0.050000X-0.175000X-0.187500X0.175000X-0.187500X0.175000X0.187500X-0.175000X0.187500X0*%
%ADD46R,0.900000X0.800000*%
%ADD47RoundRect,0.280000X0.420000X0.920000X-0.420000X0.920000X-0.420000X-0.920000X0.420000X-0.920000X0*%
%ADD48RoundRect,0.150000X0.100000X-0.235000X0.100000X0.235000X-0.100000X0.235000X-0.100000X-0.235000X0*%
%ADD49R,0.800000X1.500000*%
%ADD50RoundRect,0.160000X0.240000X0.590000X-0.240000X0.590000X-0.240000X-0.590000X0.240000X-0.590000X0*%
%ADD51R,1.000000X1.040000*%
%ADD52R,1.400000X1.900000*%
%ADD53R,1.200000X1.400000*%
%ADD54R,1.300000X1.400000*%
%ADD55RoundRect,0.140000X0.210000X0.260000X-0.210000X0.260000X-0.210000X-0.260000X0.210000X-0.260000X0*%
%ADD56R,1.100000X0.700000*%
%ADD57RoundRect,0.140000X-0.410000X-0.210000X0.410000X-0.210000X0.410000X0.210000X-0.410000X0.210000X0*%
%ADD58RoundRect,0.140000X-0.210000X-0.410000X0.210000X-0.410000X0.210000X0.410000X-0.210000X0.410000X0*%
%ADD59RoundRect,0.200000X-0.300000X-0.300000X0.300000X-0.300000X0.300000X0.300000X-0.300000X0.300000X0*%
%ADD60RoundRect,0.250000X-0.375000X-0.650000X0.375000X-0.650000X0.375000X0.650000X-0.375000X0.650000X0*%
%ADD61RoundRect,0.150000X-0.150000X-0.350000X0.150000X-0.350000X0.150000X0.350000X-0.150000X0.350000X0*%
%ADD62R,1.050000X1.000000*%
%ADD63R,2.200000X1.050000*%
%ADD64C,3.000000*%
%ADD65RoundRect,0.300000X0.450000X-0.450000X0.450000X0.450000X-0.450000X0.450000X-0.450000X-0.450000X0*%
%ADD66C,1.500000*%
%ADD67RoundRect,0.150000X-0.100000X-0.250000X0.100000X-0.250000X0.100000X0.250000X-0.100000X0.250000X0*%
%ADD68RoundRect,0.280000X-0.420000X-0.520000X0.420000X-0.520000X0.420000X0.520000X-0.420000X0.520000X0*%
%ADD69RoundRect,0.150000X-0.235000X-0.050000X0.235000X-0.050000X0.235000X0.050000X-0.235000X0.050000X0*%
%ADD70R,0.990000X0.300000*%
%ADD71R,0.270000X0.700000*%
%ADD72RoundRect,0.054000X-0.081000X-0.296000X0.081000X-0.296000X0.081000X0.296000X-0.081000X0.296000X0*%
%ADD73R,1.450000X0.650000*%
%ADD74RoundRect,0.170000X-0.450000X-0.200000X0.450000X-0.200000X0.450000X0.200000X-0.450000X0.200000X0*%
%ADD75R,0.478000X0.300000*%
%ADD76C,1.200000*%
%ADD77R,0.800000X1.140000*%
%ADD78R,0.890000X2.050000*%
%ADD79R,1.500000X2.100000*%
%ADD80C,0.350000*%
%ADD81RoundRect,0.075000X-0.075000X0.075000X-0.075000X-0.075000X0.075000X-0.075000X0.075000X0.075000X0*%
%ADD82R,0.250000X0.700000*%
%ADD83RoundRect,0.050000X-0.075000X-0.300000X0.075000X-0.300000X0.075000X0.300000X-0.075000X0.300000X0*%
%ADD84R,1.350000X1.650000*%
%ADD85RoundRect,0.250000X-0.650000X0.375000X-0.650000X-0.375000X0.650000X-0.375000X0.650000X0.375000X0*%
%ADD86RoundRect,0.150000X-0.350000X0.150000X-0.350000X-0.150000X0.350000X-0.150000X0.350000X0.150000X0*%
%ADD87RoundRect,0.075000X0.075000X0.075000X-0.075000X0.075000X-0.075000X-0.075000X0.075000X-0.075000X0*%
G04 APERTURE END LIST*
D10*
X17971429Y-1487664D02*
X17933333Y-1525760D01*
X17933333Y-1525760D02*
X17819048Y-1563855D01*
X17819048Y-1563855D02*
X17742857Y-1563855D01*
X17742857Y-1563855D02*
X17628571Y-1525760D01*
X17628571Y-1525760D02*
X17552381Y-1449569D01*
X17552381Y-1449569D02*
X17514286Y-1373379D01*
X17514286Y-1373379D02*
X17476190Y-1220998D01*
X17476190Y-1220998D02*
X17476190Y-1106712D01*
X17476190Y-1106712D02*
X17514286Y-954331D01*
X17514286Y-954331D02*
X17552381Y-878140D01*
X17552381Y-878140D02*
X17628571Y-801950D01*
X17628571Y-801950D02*
X17742857Y-763855D01*
X17742857Y-763855D02*
X17819048Y-763855D01*
X17819048Y-763855D02*
X17933333Y-801950D01*
X17933333Y-801950D02*
X17971429Y-840045D01*
X18276190Y-1335283D02*
X18657143Y-1335283D01*
X18200000Y-1563855D02*
X18466667Y-763855D01*
X18466667Y-763855D02*
X18733333Y-1563855D01*
X19457143Y-1563855D02*
X19190476Y-1182902D01*
X19000000Y-1563855D02*
X19000000Y-763855D01*
X19000000Y-763855D02*
X19304762Y-763855D01*
X19304762Y-763855D02*
X19380952Y-801950D01*
X19380952Y-801950D02*
X19419047Y-840045D01*
X19419047Y-840045D02*
X19457143Y-916236D01*
X19457143Y-916236D02*
X19457143Y-1030521D01*
X19457143Y-1030521D02*
X19419047Y-1106712D01*
X19419047Y-1106712D02*
X19380952Y-1144807D01*
X19380952Y-1144807D02*
X19304762Y-1182902D01*
X19304762Y-1182902D02*
X19000000Y-1182902D01*
X19800000Y-1563855D02*
X19800000Y-763855D01*
X19800000Y-763855D02*
X19990476Y-763855D01*
X19990476Y-763855D02*
X20104762Y-801950D01*
X20104762Y-801950D02*
X20180952Y-878140D01*
X20180952Y-878140D02*
X20219047Y-954331D01*
X20219047Y-954331D02*
X20257143Y-1106712D01*
X20257143Y-1106712D02*
X20257143Y-1220998D01*
X20257143Y-1220998D02*
X20219047Y-1373379D01*
X20219047Y-1373379D02*
X20180952Y-1449569D01*
X20180952Y-1449569D02*
X20104762Y-1525760D01*
X20104762Y-1525760D02*
X19990476Y-1563855D01*
X19990476Y-1563855D02*
X19800000Y-1563855D01*
X21209524Y-1144807D02*
X21476190Y-1144807D01*
X21590476Y-1563855D02*
X21209524Y-1563855D01*
X21209524Y-1563855D02*
X21209524Y-763855D01*
X21209524Y-763855D02*
X21590476Y-763855D01*
X21933334Y-1563855D02*
X21933334Y-763855D01*
X21933334Y-763855D02*
X22390477Y-1563855D01*
X22390477Y-1563855D02*
X22390477Y-763855D01*
X22657143Y-763855D02*
X23114286Y-763855D01*
X22885714Y-1563855D02*
X22885714Y-763855D01*
X23838096Y-1563855D02*
X23571429Y-1182902D01*
X23380953Y-1563855D02*
X23380953Y-763855D01*
X23380953Y-763855D02*
X23685715Y-763855D01*
X23685715Y-763855D02*
X23761905Y-801950D01*
X23761905Y-801950D02*
X23800000Y-840045D01*
X23800000Y-840045D02*
X23838096Y-916236D01*
X23838096Y-916236D02*
X23838096Y-1030521D01*
X23838096Y-1030521D02*
X23800000Y-1106712D01*
X23800000Y-1106712D02*
X23761905Y-1144807D01*
X23761905Y-1144807D02*
X23685715Y-1182902D01*
X23685715Y-1182902D02*
X23380953Y-1182902D01*
X24333334Y-1182902D02*
X24333334Y-1563855D01*
X24066667Y-763855D02*
X24333334Y-1182902D01*
X24333334Y-1182902D02*
X24600000Y-763855D01*
X60971429Y-1487664D02*
X60933333Y-1525760D01*
X60933333Y-1525760D02*
X60819048Y-1563855D01*
X60819048Y-1563855D02*
X60742857Y-1563855D01*
X60742857Y-1563855D02*
X60628571Y-1525760D01*
X60628571Y-1525760D02*
X60552381Y-1449569D01*
X60552381Y-1449569D02*
X60514286Y-1373379D01*
X60514286Y-1373379D02*
X60476190Y-1220998D01*
X60476190Y-1220998D02*
X60476190Y-1106712D01*
X60476190Y-1106712D02*
X60514286Y-954331D01*
X60514286Y-954331D02*
X60552381Y-878140D01*
X60552381Y-878140D02*
X60628571Y-801950D01*
X60628571Y-801950D02*
X60742857Y-763855D01*
X60742857Y-763855D02*
X60819048Y-763855D01*
X60819048Y-763855D02*
X60933333Y-801950D01*
X60933333Y-801950D02*
X60971429Y-840045D01*
X61276190Y-1335283D02*
X61657143Y-1335283D01*
X61200000Y-1563855D02*
X61466667Y-763855D01*
X61466667Y-763855D02*
X61733333Y-1563855D01*
X62457143Y-1563855D02*
X62190476Y-1182902D01*
X62000000Y-1563855D02*
X62000000Y-763855D01*
X62000000Y-763855D02*
X62304762Y-763855D01*
X62304762Y-763855D02*
X62380952Y-801950D01*
X62380952Y-801950D02*
X62419047Y-840045D01*
X62419047Y-840045D02*
X62457143Y-916236D01*
X62457143Y-916236D02*
X62457143Y-1030521D01*
X62457143Y-1030521D02*
X62419047Y-1106712D01*
X62419047Y-1106712D02*
X62380952Y-1144807D01*
X62380952Y-1144807D02*
X62304762Y-1182902D01*
X62304762Y-1182902D02*
X62000000Y-1182902D01*
X62800000Y-1563855D02*
X62800000Y-763855D01*
X62800000Y-763855D02*
X62990476Y-763855D01*
X62990476Y-763855D02*
X63104762Y-801950D01*
X63104762Y-801950D02*
X63180952Y-878140D01*
X63180952Y-878140D02*
X63219047Y-954331D01*
X63219047Y-954331D02*
X63257143Y-1106712D01*
X63257143Y-1106712D02*
X63257143Y-1220998D01*
X63257143Y-1220998D02*
X63219047Y-1373379D01*
X63219047Y-1373379D02*
X63180952Y-1449569D01*
X63180952Y-1449569D02*
X63104762Y-1525760D01*
X63104762Y-1525760D02*
X62990476Y-1563855D01*
X62990476Y-1563855D02*
X62800000Y-1563855D01*
X64209524Y-1144807D02*
X64476190Y-1144807D01*
X64590476Y-1563855D02*
X64209524Y-1563855D01*
X64209524Y-1563855D02*
X64209524Y-763855D01*
X64209524Y-763855D02*
X64590476Y-763855D01*
X64933334Y-1563855D02*
X64933334Y-763855D01*
X64933334Y-763855D02*
X65390477Y-1563855D01*
X65390477Y-1563855D02*
X65390477Y-763855D01*
X65657143Y-763855D02*
X66114286Y-763855D01*
X65885714Y-1563855D02*
X65885714Y-763855D01*
X66838096Y-1563855D02*
X66571429Y-1182902D01*
X66380953Y-1563855D02*
X66380953Y-763855D01*
X66380953Y-763855D02*
X66685715Y-763855D01*
X66685715Y-763855D02*
X66761905Y-801950D01*
X66761905Y-801950D02*
X66800000Y-840045D01*
X66800000Y-840045D02*
X66838096Y-916236D01*
X66838096Y-916236D02*
X66838096Y-1030521D01*
X66838096Y-1030521D02*
X66800000Y-1106712D01*
X66800000Y-1106712D02*
X66761905Y-1144807D01*
X66761905Y-1144807D02*
X66685715Y-1182902D01*
X66685715Y-1182902D02*
X66380953Y-1182902D01*
X67333334Y-1182902D02*
X67333334Y-1563855D01*
X67066667Y-763855D02*
X67333334Y-1182902D01*
X67333334Y-1182902D02*
X67600000Y-763855D01*
%TO.C,Q1*%
X13850000Y-30570000D02*
X13650000Y-30370000D01*
X14050000Y-30370000D01*
X13850000Y-30570000D01*
G36*
X13850000Y-30570000D02*
G01*
X13650000Y-30370000D01*
X14050000Y-30370000D01*
X13850000Y-30570000D01*
G37*
%TO.C,U23*%
X82320000Y-19900000D02*
X82120000Y-19650000D01*
X82520000Y-19650000D01*
X82320000Y-19900000D01*
G36*
X82320000Y-19900000D02*
G01*
X82120000Y-19650000D01*
X82520000Y-19650000D01*
X82320000Y-19900000D01*
G37*
%TO.C,U1*%
X44262500Y-23590000D02*
X43922500Y-23120000D01*
X44602500Y-23120000D01*
X44262500Y-23590000D01*
G36*
X44262500Y-23590000D02*
G01*
X43922500Y-23120000D01*
X44602500Y-23120000D01*
X44262500Y-23590000D01*
G37*
%TO.C,U24*%
X87320000Y-19900000D02*
X87120000Y-19650000D01*
X87520000Y-19650000D01*
X87320000Y-19900000D01*
G36*
X87320000Y-19900000D02*
G01*
X87120000Y-19650000D01*
X87520000Y-19650000D01*
X87320000Y-19900000D01*
G37*
%TO.C,C44*%
X28330000Y-27900000D02*
X28330000Y-30600000D01*
X28830000Y-29250000D01*
X28330000Y-27900000D01*
G36*
X28830000Y-29250000D02*
G01*
X28330000Y-30600000D01*
X28330000Y-27900000D01*
X28830000Y-29250000D01*
G37*
%TO.C,J11*%
X37330000Y-3775000D02*
X37330000Y-5475000D01*
X46670000Y-3775000D02*
X46670000Y-5475000D01*
%TO.C,J_MIC4*%
X103310000Y-47515000D02*
X103310000Y-49690000D01*
X103310000Y-58310000D02*
X102910000Y-58310000D01*
X103310000Y-60485000D02*
X103310000Y-58310000D01*
X107440000Y-47515000D02*
X103310000Y-47515000D01*
X107440000Y-60485000D02*
X103310000Y-60485000D01*
X107630000Y-49685000D02*
X109630000Y-49685000D01*
X107630000Y-58315000D02*
X107630000Y-49685000D01*
X109630000Y-49685000D02*
X109630000Y-48530000D01*
X109630000Y-58315000D02*
X107630000Y-58315000D01*
X109630000Y-59470000D02*
X109630000Y-58315000D01*
%TO.C,D9*%
X103500000Y-20040000D02*
X103320000Y-19860000D01*
X103680000Y-19860000D01*
X103500000Y-20040000D01*
G36*
X103500000Y-20040000D02*
G01*
X103320000Y-19860000D01*
X103680000Y-19860000D01*
X103500000Y-20040000D01*
G37*
%TO.C,U20*%
X37570000Y-60900000D02*
X37370000Y-60650000D01*
X37770000Y-60650000D01*
X37570000Y-60900000D01*
G36*
X37570000Y-60900000D02*
G01*
X37370000Y-60650000D01*
X37770000Y-60650000D01*
X37570000Y-60900000D01*
G37*
%TO.C,U13*%
X33660000Y-14270000D02*
X33340000Y-13920000D01*
X33980000Y-13920000D01*
X33660000Y-14270000D01*
G36*
X33660000Y-14270000D02*
G01*
X33340000Y-13920000D01*
X33980000Y-13920000D01*
X33660000Y-14270000D01*
G37*
%TO.C,D5*%
D11*
X65020000Y-67680000D02*
X65020000Y-68320000D01*
D10*
%TO.C,U21*%
X91320000Y-64150000D02*
X91120000Y-63900000D01*
X91520000Y-63900000D01*
X91320000Y-64150000D01*
G36*
X91320000Y-64150000D02*
G01*
X91120000Y-63900000D01*
X91520000Y-63900000D01*
X91320000Y-64150000D01*
G37*
%TO.C,U9*%
D11*
X48450000Y-63000000D02*
X48950000Y-63000000D01*
D10*
%TO.C,D10*%
X37500000Y-53540000D02*
X37320000Y-53360000D01*
X37680000Y-53360000D01*
X37500000Y-53540000D01*
G36*
X37500000Y-53540000D02*
G01*
X37320000Y-53360000D01*
X37680000Y-53360000D01*
X37500000Y-53540000D01*
G37*
%TO.C,U2*%
X71287500Y-26495000D02*
X70947500Y-26025000D01*
X71627500Y-26025000D01*
X71287500Y-26495000D01*
G36*
X71287500Y-26495000D02*
G01*
X70947500Y-26025000D01*
X71627500Y-26025000D01*
X71287500Y-26495000D01*
G37*
%TO.C,U10*%
X81150000Y-63550000D02*
X81150000Y-64450000D01*
%TO.C,C36*%
X37170000Y-35850000D02*
X37170000Y-33150000D01*
X36670000Y-34500000D01*
X37170000Y-35850000D01*
G36*
X37170000Y-35850000D02*
G01*
X36670000Y-34500000D01*
X37170000Y-33150000D01*
X37170000Y-35850000D01*
G37*
%TO.C,D4*%
X57790000Y-71000000D02*
X57610000Y-71180000D01*
X57610000Y-70820000D01*
X57790000Y-71000000D01*
G36*
X57790000Y-71000000D02*
G01*
X57610000Y-71180000D01*
X57610000Y-70820000D01*
X57790000Y-71000000D01*
G37*
%TO.C,D8*%
X38040000Y-10750000D02*
X37860000Y-10930000D01*
X37860000Y-10570000D01*
X38040000Y-10750000D01*
G36*
X38040000Y-10750000D02*
G01*
X37860000Y-10930000D01*
X37860000Y-10570000D01*
X38040000Y-10750000D01*
G37*
%TO.C,D11*%
X79350000Y-20040000D02*
X79170000Y-19860000D01*
X79530000Y-19860000D01*
X79350000Y-20040000D01*
G36*
X79350000Y-20040000D02*
G01*
X79170000Y-19860000D01*
X79530000Y-19860000D01*
X79350000Y-20040000D01*
G37*
%TO.C,D3*%
D11*
X20270000Y-67680000D02*
X20270000Y-68320000D01*
%TO.C,U8*%
D10*
X13900000Y-40050000D02*
X34100000Y-40050000D01*
X34100000Y-63950000D01*
X13900000Y-63950000D01*
X13900000Y-40050000D01*
%TO.C,J_MIC2*%
X33515000Y-68310000D02*
X35690000Y-68310000D01*
X33515000Y-72440000D02*
X33515000Y-68310000D01*
X34530000Y-74630000D02*
X35685000Y-74630000D01*
X35685000Y-72630000D02*
X44315000Y-72630000D01*
X35685000Y-74630000D02*
X35685000Y-72630000D01*
X35690000Y-68310000D02*
X35690000Y-67910000D01*
X44315000Y-72630000D02*
X44315000Y-74630000D01*
X44315000Y-74630000D02*
X45470000Y-74630000D01*
X46485000Y-68310000D02*
X44310000Y-68310000D01*
X46485000Y-72440000D02*
X46485000Y-68310000D01*
%TO.C,D6*%
X45540000Y-10750000D02*
X45360000Y-10930000D01*
X45360000Y-10570000D01*
X45540000Y-10750000D01*
G36*
X45540000Y-10750000D02*
G01*
X45360000Y-10930000D01*
X45360000Y-10570000D01*
X45540000Y-10750000D01*
G37*
%TO.C,D2*%
X9670000Y-40680000D02*
X9530000Y-40540000D01*
X9810000Y-40540000D01*
X9670000Y-40680000D01*
G36*
X9670000Y-40680000D02*
G01*
X9530000Y-40540000D01*
X9810000Y-40540000D01*
X9670000Y-40680000D01*
G37*
%TO.C,U18*%
X52500000Y-45330000D02*
X52300000Y-45080000D01*
X52700000Y-45080000D01*
X52500000Y-45330000D01*
G36*
X52500000Y-45330000D02*
G01*
X52300000Y-45080000D01*
X52700000Y-45080000D01*
X52500000Y-45330000D01*
G37*
%TO.C,U22*%
X100070000Y-52900000D02*
X99870000Y-52650000D01*
X100270000Y-52650000D01*
X100070000Y-52900000D01*
G36*
X100070000Y-52900000D02*
G01*
X99870000Y-52650000D01*
X100270000Y-52650000D01*
X100070000Y-52900000D01*
G37*
%TO.C,U14*%
X20720000Y-18930000D02*
X20520000Y-18730000D01*
X20920000Y-18730000D01*
X20720000Y-18930000D01*
G36*
X20720000Y-18930000D02*
G01*
X20520000Y-18730000D01*
X20920000Y-18730000D01*
X20720000Y-18930000D01*
G37*
%TO.C,U15*%
X72220000Y-11430000D02*
X72020000Y-11230000D01*
X72420000Y-11230000D01*
X72220000Y-11430000D01*
G36*
X72220000Y-11430000D02*
G01*
X72020000Y-11230000D01*
X72420000Y-11230000D01*
X72220000Y-11430000D01*
G37*
%TO.C,U4*%
D11*
X65180000Y-37400000D02*
G75*
G02*
X65020000Y-37400000I-80000J0D01*
G01*
X65020000Y-37400000D02*
G75*
G02*
X65180000Y-37400000I80000J0D01*
G01*
D10*
%TO.C,U6*%
X89020000Y-34420000D02*
X88820000Y-34220000D01*
X89220000Y-34220000D01*
X89020000Y-34420000D01*
G36*
X89020000Y-34420000D02*
G01*
X88820000Y-34220000D01*
X89220000Y-34220000D01*
X89020000Y-34420000D01*
G37*
%TO.C,Q4*%
X60120000Y-64430000D02*
X59920000Y-64230000D01*
X60320000Y-64230000D01*
X60120000Y-64430000D01*
G36*
X60120000Y-64430000D02*
G01*
X59920000Y-64230000D01*
X60320000Y-64230000D01*
X60120000Y-64430000D01*
G37*
%TO.C,Q2*%
X16850000Y-30570000D02*
X16650000Y-30370000D01*
X17050000Y-30370000D01*
X16850000Y-30570000D01*
G36*
X16850000Y-30570000D02*
G01*
X16650000Y-30370000D01*
X17050000Y-30370000D01*
X16850000Y-30570000D01*
G37*
%TO.C,U16*%
X21160000Y-29020000D02*
X20840000Y-28670000D01*
X21480000Y-28670000D01*
X21160000Y-29020000D01*
G36*
X21160000Y-29020000D02*
G01*
X20840000Y-28670000D01*
X21480000Y-28670000D01*
X21160000Y-29020000D01*
G37*
%TO.C,U7*%
X56910000Y-41520000D02*
X56590000Y-41170000D01*
X57230000Y-41170000D01*
X56910000Y-41520000D01*
G36*
X56910000Y-41520000D02*
G01*
X56590000Y-41170000D01*
X57230000Y-41170000D01*
X56910000Y-41520000D01*
G37*
%TO.C,X1*%
D11*
X60980000Y-30540000D02*
X61380000Y-30540000D01*
D10*
%TO.C,U26*%
X8070000Y-50740000D02*
X7790000Y-50740000D01*
X8070000Y-50460000D01*
X8070000Y-50740000D01*
G36*
X8070000Y-50740000D02*
G01*
X7790000Y-50740000D01*
X8070000Y-50460000D01*
X8070000Y-50740000D01*
G37*
%TO.C,D7*%
X43540000Y-10750000D02*
X43360000Y-10930000D01*
X43360000Y-10570000D01*
X43540000Y-10750000D01*
G36*
X43540000Y-10750000D02*
G01*
X43360000Y-10930000D01*
X43360000Y-10570000D01*
X43540000Y-10750000D01*
G37*
%TO.C,U27*%
X40320000Y-63900000D02*
X40120000Y-63650000D01*
X40520000Y-63650000D01*
X40320000Y-63900000D01*
G36*
X40320000Y-63900000D02*
G01*
X40120000Y-63650000D01*
X40520000Y-63650000D01*
X40320000Y-63900000D01*
G37*
%TO.C,U5*%
D11*
X61650000Y-58620000D02*
X62050000Y-58620000D01*
D10*
%TO.C,Q3*%
X26350000Y-16570000D02*
X26150000Y-16370000D01*
X26550000Y-16370000D01*
X26350000Y-16570000D01*
G36*
X26350000Y-16570000D02*
G01*
X26150000Y-16370000D01*
X26550000Y-16370000D01*
X26350000Y-16570000D01*
G37*
%TO.C,J_MIC1*%
X370000Y-37030000D02*
X370000Y-38185000D01*
X370000Y-38185000D02*
X2370000Y-38185000D01*
X370000Y-46815000D02*
X370000Y-47970000D01*
X2370000Y-38185000D02*
X2370000Y-46815000D01*
X2370000Y-46815000D02*
X370000Y-46815000D01*
X2560000Y-36015000D02*
X6690000Y-36015000D01*
X2560000Y-48985000D02*
X6690000Y-48985000D01*
X6690000Y-36015000D02*
X6690000Y-38190000D01*
X6690000Y-38190000D02*
X7090000Y-38190000D01*
X6690000Y-48985000D02*
X6690000Y-46810000D01*
%TO.C,J_MIC3*%
X85515000Y-68310000D02*
X87690000Y-68310000D01*
X85515000Y-72440000D02*
X85515000Y-68310000D01*
X86530000Y-74630000D02*
X87685000Y-74630000D01*
X87685000Y-72630000D02*
X96315000Y-72630000D01*
X87685000Y-74630000D02*
X87685000Y-72630000D01*
X87690000Y-68310000D02*
X87690000Y-67910000D01*
X96315000Y-72630000D02*
X96315000Y-74630000D01*
X96315000Y-74630000D02*
X97470000Y-74630000D01*
X98485000Y-68310000D02*
X96310000Y-68310000D01*
X98485000Y-72440000D02*
X98485000Y-68310000D01*
%TO.C,U19*%
X8070000Y-37400000D02*
X7870000Y-37150000D01*
X8270000Y-37150000D01*
X8070000Y-37400000D01*
G36*
X8070000Y-37400000D02*
G01*
X7870000Y-37150000D01*
X8270000Y-37150000D01*
X8070000Y-37400000D01*
G37*
%TO.C,U17*%
X44160000Y-43900000D02*
X43840000Y-43450000D01*
X44480000Y-43450000D01*
X44160000Y-43900000D01*
G36*
X44160000Y-43900000D02*
G01*
X43840000Y-43450000D01*
X44480000Y-43450000D01*
X44160000Y-43900000D01*
G37*
%TO.C,D1*%
X9670000Y-41930000D02*
X9530000Y-41790000D01*
X9810000Y-41790000D01*
X9670000Y-41930000D01*
G36*
X9670000Y-41930000D02*
G01*
X9530000Y-41790000D01*
X9810000Y-41790000D01*
X9670000Y-41930000D01*
G37*
%TO.C,U25*%
X42760000Y-8820000D02*
X42760000Y-8540000D01*
X43040000Y-8820000D01*
X42760000Y-8820000D01*
G36*
X43040000Y-8820000D02*
G01*
X42760000Y-8820000D01*
X42760000Y-8540000D01*
X43040000Y-8820000D01*
G37*
%TD*%
%LPC*%
D12*
%TO.C,R69*%
X40825000Y-27250000D03*
X40175000Y-27250000D03*
%TD*%
D13*
%TO.C,U11*%
X106000000Y-30600000D03*
X104900000Y-30600000D03*
X104100000Y-30600000D03*
X102500000Y-30600000D03*
X102100000Y-31500000D03*
X101700000Y-30600000D03*
X101300000Y-31500000D03*
X100900000Y-30600000D03*
X100500000Y-31500000D03*
X100100000Y-30600000D03*
X99700000Y-31500000D03*
X99300000Y-30600000D03*
X98900000Y-31500000D03*
X98500000Y-30600000D03*
D14*
X95100000Y-30450000D03*
X95100000Y-31250000D03*
X95100000Y-32050000D03*
X95100000Y-32850000D03*
X96000000Y-33250000D03*
X95100000Y-33650000D03*
X96000000Y-34050000D03*
X95100000Y-34450000D03*
X96000000Y-34850000D03*
X95100000Y-35250000D03*
X96000000Y-35650000D03*
X95100000Y-36050000D03*
X96000000Y-36450000D03*
X95100000Y-36850000D03*
X96000000Y-37250000D03*
X95100000Y-37650000D03*
X95100000Y-38450000D03*
X95100000Y-39250000D03*
X95100000Y-40050000D03*
D13*
X96100000Y-39900000D03*
X96900000Y-39900000D03*
X97300000Y-39000000D03*
X97700000Y-39900000D03*
X98100000Y-39000000D03*
X98500000Y-39900000D03*
X98900000Y-39000000D03*
X99300000Y-39900000D03*
X99700000Y-39000000D03*
X100500000Y-39000000D03*
X100900000Y-39900000D03*
X101300000Y-39000000D03*
X101700000Y-39900000D03*
X102100000Y-39000000D03*
X102500000Y-39900000D03*
X102900000Y-39000000D03*
X103700000Y-39000000D03*
X104100000Y-39900000D03*
X104500000Y-39000000D03*
X104900000Y-39900000D03*
X105300000Y-39000000D03*
X106000000Y-39900000D03*
D14*
X101700000Y-33250000D03*
X101700000Y-34050000D03*
X101700000Y-34850000D03*
X101700000Y-35650000D03*
X101700000Y-36450000D03*
X101700000Y-37250000D03*
%TD*%
D15*
%TO.C,Q1*%
X14000000Y-31050000D03*
X14000000Y-32950000D03*
X16000000Y-32000000D03*
%TD*%
D16*
%TO.C,R88*%
X89675000Y-24250000D03*
X90325000Y-24250000D03*
%TD*%
D17*
%TO.C,J13*%
X108600000Y-18355000D03*
X108600000Y-11645000D03*
D18*
X103410000Y-15750000D03*
D19*
X103410000Y-14250000D03*
%TD*%
D12*
%TO.C,R102*%
X38825000Y-33000000D03*
X38175000Y-33000000D03*
%TD*%
D16*
%TO.C,R29*%
X16925000Y-29500000D03*
X17575000Y-29500000D03*
%TD*%
%TO.C,R7*%
X68675000Y-31500000D03*
X69325000Y-31500000D03*
%TD*%
D20*
%TO.C,C24*%
X68050000Y-30000000D03*
X68950000Y-30000000D03*
%TD*%
D12*
%TO.C,R39*%
X10325000Y-50750000D03*
X9675000Y-50750000D03*
%TD*%
D21*
%TO.C,U23*%
X82582500Y-20000000D03*
X82582500Y-20500000D03*
D22*
X82582500Y-21000000D03*
D21*
X82582500Y-21500000D03*
X82582500Y-22000000D03*
X83417500Y-22000000D03*
X83417500Y-21500000D03*
D22*
X83417500Y-21000000D03*
D21*
X83417500Y-20500000D03*
X83417500Y-20000000D03*
%TD*%
D16*
%TO.C,C30*%
X49675000Y-42500000D03*
X50325000Y-42500000D03*
%TD*%
%TO.C,R65*%
X64925000Y-53750000D03*
X65575000Y-53750000D03*
%TD*%
%TO.C,C77*%
X41175000Y-11500000D03*
X41825000Y-11500000D03*
%TD*%
%TO.C,R12*%
X40175000Y-28500000D03*
X40825000Y-28500000D03*
%TD*%
D12*
%TO.C,R72*%
X65575000Y-52500000D03*
X64925000Y-52500000D03*
%TD*%
D16*
%TO.C,R17*%
X59425000Y-40250000D03*
X60075000Y-40250000D03*
%TD*%
%TO.C,C65*%
X60175000Y-54250000D03*
X60825000Y-54250000D03*
%TD*%
D23*
%TO.C,C19*%
X14400000Y-27750000D03*
X15600000Y-27750000D03*
%TD*%
D16*
%TO.C,R87*%
X86175000Y-24250000D03*
X86825000Y-24250000D03*
%TD*%
D24*
%TO.C,U1*%
X44250000Y-24000000D03*
X44250000Y-24500000D03*
X44250000Y-25000000D03*
X44250000Y-25500000D03*
X44250000Y-26000000D03*
X44250000Y-26500000D03*
X44250000Y-27000000D03*
X44250000Y-27500000D03*
X44250000Y-28000000D03*
X44250000Y-28500000D03*
X44250000Y-29000000D03*
X44250000Y-29500000D03*
X44250000Y-30000000D03*
X44250000Y-30500000D03*
X44250000Y-31000000D03*
X44250000Y-31500000D03*
X44250000Y-32000000D03*
X44250000Y-32500000D03*
X44250000Y-33000000D03*
X44250000Y-33500000D03*
X44250000Y-34000000D03*
X44250000Y-34500000D03*
X44250000Y-35000000D03*
X44250000Y-35500000D03*
X44250000Y-36000000D03*
D25*
X46000000Y-37750000D03*
X46500000Y-37750000D03*
X47000000Y-37750000D03*
X47500000Y-37750000D03*
X48000000Y-37750000D03*
X48500000Y-37750000D03*
X49000000Y-37750000D03*
X49500000Y-37750000D03*
X50000000Y-37750000D03*
X50500000Y-37750000D03*
X51000000Y-37750000D03*
X51500000Y-37750000D03*
X52000000Y-37750000D03*
X52500000Y-37750000D03*
X53000000Y-37750000D03*
X53500000Y-37750000D03*
X54000000Y-37750000D03*
X54500000Y-37750000D03*
X55000000Y-37750000D03*
X55500000Y-37750000D03*
X56000000Y-37750000D03*
X56500000Y-37750000D03*
X57000000Y-37750000D03*
X57500000Y-37750000D03*
X58000000Y-37750000D03*
D24*
X59750000Y-36000000D03*
X59750000Y-35500000D03*
X59750000Y-35000000D03*
X59750000Y-34500000D03*
X59750000Y-34000000D03*
X59750000Y-33500000D03*
X59750000Y-33000000D03*
X59750000Y-32500000D03*
X59750000Y-32000000D03*
X59750000Y-31500000D03*
X59750000Y-31000000D03*
X59750000Y-30500000D03*
X59750000Y-30000000D03*
X59750000Y-29500000D03*
X59750000Y-29000000D03*
X59750000Y-28500000D03*
X59750000Y-28000000D03*
X59750000Y-27500000D03*
X59750000Y-27000000D03*
X59750000Y-26500000D03*
X59750000Y-26000000D03*
X59750000Y-25500000D03*
X59750000Y-25000000D03*
X59750000Y-24500000D03*
X59750000Y-24000000D03*
D25*
X58000000Y-22250000D03*
X57500000Y-22250000D03*
X57000000Y-22250000D03*
X56500000Y-22250000D03*
X56000000Y-22250000D03*
X55500000Y-22250000D03*
X55000000Y-22250000D03*
X54500000Y-22250000D03*
X54000000Y-22250000D03*
X53500000Y-22250000D03*
X53000000Y-22250000D03*
X52500000Y-22250000D03*
X52000000Y-22250000D03*
X51500000Y-22250000D03*
X51000000Y-22250000D03*
X50500000Y-22250000D03*
X50000000Y-22250000D03*
X49500000Y-22250000D03*
X49000000Y-22250000D03*
X48500000Y-22250000D03*
X48000000Y-22250000D03*
X47500000Y-22250000D03*
X47000000Y-22250000D03*
X46500000Y-22250000D03*
X46000000Y-22250000D03*
%TD*%
D16*
%TO.C,C46*%
X37675000Y-56750000D03*
X38325000Y-56750000D03*
%TD*%
%TO.C,R84*%
X91425000Y-23000000D03*
X92075000Y-23000000D03*
%TD*%
%TO.C,R27*%
X15175000Y-34250000D03*
X15825000Y-34250000D03*
%TD*%
%TO.C,R30*%
X13425000Y-35500000D03*
X14075000Y-35500000D03*
%TD*%
%TO.C,C40*%
X9675000Y-49500000D03*
X10325000Y-49500000D03*
%TD*%
D21*
%TO.C,U24*%
X87582500Y-20000000D03*
X87582500Y-20500000D03*
D22*
X87582500Y-21000000D03*
D21*
X87582500Y-21500000D03*
X87582500Y-22000000D03*
X88417500Y-22000000D03*
X88417500Y-21500000D03*
D22*
X88417500Y-21000000D03*
D21*
X88417500Y-20500000D03*
X88417500Y-20000000D03*
%TD*%
D16*
%TO.C,R18*%
X64675000Y-44000000D03*
X65325000Y-44000000D03*
%TD*%
%TO.C,R53*%
X66425000Y-16500000D03*
X67075000Y-16500000D03*
%TD*%
D26*
%TO.C,C44*%
X29630000Y-29250000D03*
X35870000Y-29250000D03*
%TD*%
D16*
%TO.C,R37*%
X39425000Y-55500000D03*
X40075000Y-55500000D03*
%TD*%
D27*
%TO.C,J11*%
X44890000Y-6280000D03*
X39110000Y-6280000D03*
D28*
X45200000Y-7355000D03*
D29*
X44400000Y-7355000D03*
D30*
X43250000Y-7355000D03*
X42250000Y-7355000D03*
X41750000Y-7355000D03*
X40750000Y-7355000D03*
D29*
X39600000Y-7355000D03*
D28*
X38800000Y-7355000D03*
X38800000Y-7355000D03*
D29*
X39600000Y-7355000D03*
D30*
X40250000Y-7355000D03*
X41250000Y-7355000D03*
X42750000Y-7355000D03*
X43750000Y-7355000D03*
D29*
X44400000Y-7355000D03*
D28*
X45200000Y-7355000D03*
D31*
X46320000Y-6780000D03*
D32*
X46320000Y-2600000D03*
D31*
X37680000Y-6780000D03*
D32*
X37680000Y-2600000D03*
%TD*%
D12*
%TO.C,R43*%
X26075000Y-68000000D03*
X25425000Y-68000000D03*
%TD*%
D16*
%TO.C,R46*%
X27175000Y-15750000D03*
X27825000Y-15750000D03*
%TD*%
D33*
%TO.C,J_MIC4*%
X108600000Y-60355000D03*
X108600000Y-47645000D03*
D34*
X103410000Y-57750000D03*
X103410000Y-56250000D03*
X103410000Y-54750000D03*
X103410000Y-53250000D03*
X103410000Y-51750000D03*
X103410000Y-50250000D03*
%TD*%
D16*
%TO.C,C50*%
X14675000Y-16500000D03*
X15325000Y-16500000D03*
%TD*%
D35*
%TO.C,D9*%
X103760000Y-20500000D03*
X105240000Y-20500000D03*
%TD*%
D16*
%TO.C,R90*%
X80675000Y-23000000D03*
X81325000Y-23000000D03*
%TD*%
D12*
%TO.C,R48*%
X15325000Y-17750000D03*
X14675000Y-17750000D03*
%TD*%
D21*
%TO.C,U20*%
X37832500Y-61000000D03*
X37832500Y-61500000D03*
D22*
X37832500Y-62000000D03*
D21*
X37832500Y-62500000D03*
X37832500Y-63000000D03*
X38667500Y-63000000D03*
X38667500Y-62500000D03*
D22*
X38667500Y-62000000D03*
D21*
X38667500Y-61500000D03*
X38667500Y-61000000D03*
%TD*%
D16*
%TO.C,C17*%
X46675000Y-19500000D03*
X47325000Y-19500000D03*
%TD*%
D12*
%TO.C,R56*%
X47575000Y-56750000D03*
X46925000Y-56750000D03*
%TD*%
D36*
%TO.C,U13*%
X33600000Y-14425000D03*
X33600000Y-15075000D03*
X33600000Y-15725000D03*
X33600000Y-16375000D03*
X33600000Y-17025000D03*
X33600000Y-17675000D03*
X33600000Y-18325000D03*
X33600000Y-18975000D03*
X33600000Y-19625000D03*
X33600000Y-20275000D03*
X33600000Y-20925000D03*
X33600000Y-21575000D03*
X39400000Y-21575000D03*
X39400000Y-20925000D03*
X39400000Y-20275000D03*
X39400000Y-19625000D03*
X39400000Y-18975000D03*
X39400000Y-18325000D03*
X39400000Y-17675000D03*
X39400000Y-17025000D03*
X39400000Y-16375000D03*
X39400000Y-15725000D03*
X39400000Y-15075000D03*
X39400000Y-14425000D03*
%TD*%
D16*
%TO.C,C54*%
X18175000Y-16500000D03*
X18825000Y-16500000D03*
%TD*%
%TO.C,R103*%
X26675000Y-22500000D03*
X27325000Y-22500000D03*
%TD*%
D20*
%TO.C,C75*%
X90050000Y-20500000D03*
X90950000Y-20500000D03*
%TD*%
D37*
%TO.C,FL1*%
X56550000Y-51975000D03*
X56550000Y-51600000D03*
X56800000Y-51225000D03*
X57050000Y-51600000D03*
X57050000Y-51975000D03*
%TD*%
D16*
%TO.C,C26*%
X66675000Y-38500000D03*
X67325000Y-38500000D03*
%TD*%
D38*
%TO.C,D5*%
X65300000Y-68000000D03*
D39*
X65700000Y-68000000D03*
%TD*%
D12*
%TO.C,R79*%
X44575000Y-20750000D03*
X43925000Y-20750000D03*
%TD*%
D16*
%TO.C,C33*%
X18675000Y-29250000D03*
X19325000Y-29250000D03*
%TD*%
%TO.C,C52*%
X16425000Y-16500000D03*
X17075000Y-16500000D03*
%TD*%
%TO.C,R77*%
X85175000Y-33750000D03*
X85825000Y-33750000D03*
%TD*%
%TO.C,C62*%
X57675000Y-65500000D03*
X58325000Y-65500000D03*
%TD*%
D12*
%TO.C,R71*%
X40825000Y-32750000D03*
X40175000Y-32750000D03*
%TD*%
D16*
%TO.C,R31*%
X11675000Y-35500000D03*
X12325000Y-35500000D03*
%TD*%
%TO.C,C59*%
X64675000Y-16500000D03*
X65325000Y-16500000D03*
%TD*%
%TO.C,R34*%
X15175000Y-35500000D03*
X15825000Y-35500000D03*
%TD*%
D40*
%TO.C,R9*%
X60500000Y-20075000D03*
X60500000Y-19425000D03*
%TD*%
D21*
%TO.C,U21*%
X91582500Y-64250000D03*
X91582500Y-64750000D03*
D22*
X91582500Y-65250000D03*
D21*
X91582500Y-65750000D03*
X91582500Y-66250000D03*
X92417500Y-66250000D03*
X92417500Y-65750000D03*
D22*
X92417500Y-65250000D03*
D21*
X92417500Y-64750000D03*
X92417500Y-64250000D03*
%TD*%
D16*
%TO.C,C10*%
X41925000Y-35250000D03*
X42575000Y-35250000D03*
%TD*%
%TO.C,R57*%
X63425000Y-30000000D03*
X64075000Y-30000000D03*
%TD*%
%TO.C,C71*%
X105675000Y-28750000D03*
X106325000Y-28750000D03*
%TD*%
D41*
%TO.C,U9*%
X49100000Y-62750000D03*
D42*
X50200000Y-62750000D03*
X51300000Y-62750000D03*
X52400000Y-62750000D03*
X53500000Y-62750000D03*
X54600000Y-62750000D03*
X55700000Y-62750000D03*
X56800000Y-62750000D03*
D41*
X57900000Y-62750000D03*
X57900000Y-53250000D03*
D42*
X56800000Y-53250000D03*
X55700000Y-53250000D03*
X54600000Y-53250000D03*
X53500000Y-53250000D03*
X52400000Y-53250000D03*
X51300000Y-53250000D03*
X50200000Y-53250000D03*
D41*
X49100000Y-53250000D03*
%TD*%
D35*
%TO.C,D10*%
X37760000Y-54000000D03*
X39240000Y-54000000D03*
%TD*%
D16*
%TO.C,C51*%
X57675000Y-16500000D03*
X58325000Y-16500000D03*
%TD*%
D12*
%TO.C,R67*%
X65575000Y-56250000D03*
X64925000Y-56250000D03*
%TD*%
D43*
%TO.C,U2*%
X71350000Y-27055000D03*
X71350000Y-28325000D03*
X71350000Y-29595000D03*
X71350000Y-30865000D03*
X71350000Y-32135000D03*
X71350000Y-33405000D03*
X71350000Y-34675000D03*
X71350000Y-35945000D03*
X80650000Y-35945000D03*
X80650000Y-34675000D03*
X80650000Y-33405000D03*
X80650000Y-32135000D03*
X80650000Y-30865000D03*
X80650000Y-29595000D03*
X80650000Y-28325000D03*
X80650000Y-27055000D03*
%TD*%
D44*
%TO.C,U3*%
X65237500Y-29750000D03*
X65237500Y-30250000D03*
X65237500Y-30750000D03*
X65237500Y-31250000D03*
D45*
X65750000Y-31262500D03*
X66250000Y-31262500D03*
D44*
X66762500Y-31250000D03*
X66762500Y-30750000D03*
X66762500Y-30250000D03*
X66762500Y-29750000D03*
D45*
X66250000Y-29737500D03*
X65750000Y-29737500D03*
%TD*%
D16*
%TO.C,R36*%
X9675000Y-45750000D03*
X10325000Y-45750000D03*
%TD*%
D46*
%TO.C,U10*%
X81450000Y-64000000D03*
X81450000Y-62730000D03*
X81450000Y-61460000D03*
X81450000Y-55890000D03*
X81450000Y-54620000D03*
X81450000Y-53350000D03*
X81450000Y-52080000D03*
X81450000Y-50810000D03*
X81450000Y-49540000D03*
X81450000Y-48270000D03*
X81450000Y-47000000D03*
X66550000Y-47000000D03*
X66550000Y-48270000D03*
X66550000Y-49540000D03*
X66550000Y-50810000D03*
X66550000Y-52080000D03*
X66550000Y-53350000D03*
X66550000Y-54620000D03*
X66550000Y-55890000D03*
X66550000Y-61460000D03*
X66550000Y-62730000D03*
X66550000Y-64000000D03*
%TD*%
D16*
%TO.C,C38*%
X6425000Y-51000000D03*
X7075000Y-51000000D03*
%TD*%
D47*
%TO.C,L1*%
X54650000Y-40750000D03*
X52850000Y-40750000D03*
%TD*%
D16*
%TO.C,R25*%
X14175000Y-29500000D03*
X14825000Y-29500000D03*
%TD*%
%TO.C,R101*%
X38175000Y-31000000D03*
X38825000Y-31000000D03*
%TD*%
%TO.C,R70*%
X63175000Y-27250000D03*
X63825000Y-27250000D03*
%TD*%
D12*
%TO.C,R40*%
X10325000Y-52000000D03*
X9675000Y-52000000D03*
%TD*%
D40*
%TO.C,R61*%
X49000000Y-51825000D03*
X49000000Y-51175000D03*
%TD*%
D16*
%TO.C,C29*%
X64425000Y-41750000D03*
X65075000Y-41750000D03*
%TD*%
D12*
%TO.C,R100*%
X96325000Y-28000000D03*
X95675000Y-28000000D03*
%TD*%
D16*
%TO.C,R14*%
X40175000Y-31500000D03*
X40825000Y-31500000D03*
%TD*%
D20*
%TO.C,C20*%
X14050000Y-26000000D03*
X14950000Y-26000000D03*
%TD*%
D26*
%TO.C,C36*%
X35870000Y-34500000D03*
X29630000Y-34500000D03*
%TD*%
D16*
%TO.C,C7*%
X42425000Y-26500000D03*
X41775000Y-26500000D03*
%TD*%
%TO.C,R13*%
X63175000Y-28500000D03*
X63825000Y-28500000D03*
%TD*%
%TO.C,C21*%
X68675000Y-28250000D03*
X69325000Y-28250000D03*
%TD*%
%TO.C,C69*%
X66675000Y-68000000D03*
X67325000Y-68000000D03*
%TD*%
%TO.C,R1*%
X61425000Y-28500000D03*
X62075000Y-28500000D03*
%TD*%
D48*
%TO.C,D4*%
X58250000Y-70740000D03*
X58250000Y-69260000D03*
%TD*%
D16*
%TO.C,R76*%
X85175000Y-32500000D03*
X85825000Y-32500000D03*
%TD*%
%TO.C,C80*%
X21925000Y-68000000D03*
X22575000Y-68000000D03*
%TD*%
D48*
%TO.C,D8*%
X38500000Y-10490000D03*
X38500000Y-9010000D03*
%TD*%
D16*
%TO.C,R83*%
X89675000Y-23000000D03*
X90325000Y-23000000D03*
%TD*%
%TO.C,C63*%
X46925000Y-58000000D03*
X47575000Y-58000000D03*
%TD*%
D12*
%TO.C,C76*%
X83325000Y-23000000D03*
X82675000Y-23000000D03*
%TD*%
D16*
%TO.C,C34*%
X18675000Y-28000000D03*
X19325000Y-28000000D03*
%TD*%
%TO.C,C32*%
X54175000Y-44250000D03*
X54825000Y-44250000D03*
%TD*%
D35*
%TO.C,D11*%
X79610000Y-20500000D03*
X81090000Y-20500000D03*
%TD*%
D16*
%TO.C,C57*%
X61175000Y-16500000D03*
X61825000Y-16500000D03*
%TD*%
D12*
%TO.C,R45*%
X36825000Y-13000000D03*
X36175000Y-13000000D03*
%TD*%
D49*
%TO.C,J12*%
X85095000Y-6490000D03*
D50*
X86195000Y-6890000D03*
X87295000Y-6490000D03*
X88395000Y-6290000D03*
X89495000Y-6490000D03*
X90595000Y-6290000D03*
X91695000Y-6490000D03*
X92795000Y-6490000D03*
D51*
X90585000Y-17720000D03*
D52*
X93575000Y-4200000D03*
D53*
X92035000Y-17350000D03*
D54*
X86285000Y-17350000D03*
D52*
X80425000Y-3200000D03*
%TD*%
D12*
%TO.C,C56*%
X22325000Y-16500000D03*
X21675000Y-16500000D03*
%TD*%
D55*
%TO.C,C61*%
X62450000Y-62750000D03*
X61550000Y-62750000D03*
%TD*%
D16*
%TO.C,R5*%
X41925000Y-25250000D03*
X42575000Y-25250000D03*
%TD*%
%TO.C,C27*%
X56425000Y-40250000D03*
X57075000Y-40250000D03*
%TD*%
D12*
%TO.C,R44*%
X31825000Y-17750000D03*
X31175000Y-17750000D03*
%TD*%
D16*
%TO.C,R4*%
X56425000Y-20750000D03*
X57075000Y-20750000D03*
%TD*%
D38*
%TO.C,D3*%
X20550000Y-68000000D03*
D39*
X20950000Y-68000000D03*
%TD*%
D12*
%TO.C,C55*%
X20575000Y-16500000D03*
X19925000Y-16500000D03*
%TD*%
D16*
%TO.C,C31*%
X52425000Y-44250000D03*
X53075000Y-44250000D03*
%TD*%
%TO.C,R3*%
X61425000Y-27250000D03*
X62075000Y-27250000D03*
%TD*%
%TO.C,C35*%
X18675000Y-34250000D03*
X19325000Y-34250000D03*
%TD*%
%TO.C,R59*%
X60675000Y-59750000D03*
X61325000Y-59750000D03*
%TD*%
%TO.C,C78*%
X101675000Y-18000000D03*
X102325000Y-18000000D03*
%TD*%
D56*
%TO.C,U8*%
X14850000Y-42300000D03*
D57*
X14850000Y-43400000D03*
X14850000Y-44500000D03*
X14850000Y-45600000D03*
X14850000Y-46700000D03*
X14850000Y-47800000D03*
X14850000Y-48900000D03*
X14850000Y-50000000D03*
X14850000Y-51100000D03*
X14850000Y-52200000D03*
X14850000Y-53900000D03*
X14850000Y-55000000D03*
X14850000Y-56100000D03*
X14850000Y-57200000D03*
X14850000Y-58300000D03*
X14850000Y-59400000D03*
X14850000Y-60500000D03*
X14850000Y-61600000D03*
D58*
X16550000Y-63000000D03*
X17650000Y-63000000D03*
X18750000Y-63000000D03*
X19850000Y-63000000D03*
X20950000Y-63000000D03*
X22050000Y-63000000D03*
X24550000Y-63000000D03*
X25650000Y-63000000D03*
X26750000Y-63000000D03*
X27850000Y-63000000D03*
X28950000Y-63000000D03*
X30050000Y-63000000D03*
X31150000Y-63000000D03*
D57*
X33150000Y-61600000D03*
X33150000Y-60500000D03*
X33150000Y-59400000D03*
X33150000Y-58300000D03*
X33150000Y-57200000D03*
X33150000Y-56100000D03*
X33150000Y-55000000D03*
X33150000Y-53900000D03*
X33150000Y-52200000D03*
X33150000Y-51100000D03*
X33150000Y-50000000D03*
X33150000Y-48900000D03*
X33150000Y-47800000D03*
X33150000Y-46700000D03*
X33150000Y-45600000D03*
X33150000Y-44500000D03*
X33150000Y-43400000D03*
X33150000Y-42300000D03*
D58*
X31150000Y-41000000D03*
X30050000Y-41000000D03*
X28950000Y-41000000D03*
X27850000Y-41000000D03*
X26750000Y-41000000D03*
X25650000Y-41000000D03*
X24550000Y-41000000D03*
X22050000Y-41000000D03*
X20950000Y-41000000D03*
X19850000Y-41000000D03*
X18750000Y-41000000D03*
X17650000Y-41000000D03*
X16550000Y-41000000D03*
D59*
X18050000Y-47750000D03*
X18050000Y-49450000D03*
X18050000Y-51150000D03*
X18050000Y-52850000D03*
X18050000Y-54550000D03*
X18050000Y-56250000D03*
X21450000Y-59650000D03*
X23150000Y-59650000D03*
X24850000Y-59650000D03*
X26550000Y-59650000D03*
X29950000Y-56250000D03*
X29950000Y-54550000D03*
X29950000Y-52850000D03*
X29950000Y-51150000D03*
X29950000Y-49450000D03*
X29950000Y-47750000D03*
X26550000Y-44350000D03*
X24850000Y-44350000D03*
X23150000Y-44350000D03*
X21450000Y-44350000D03*
X19750000Y-47750000D03*
X19750000Y-49450000D03*
X19750000Y-51150000D03*
X19750000Y-52850000D03*
X19750000Y-54550000D03*
X19750000Y-56250000D03*
X21450000Y-57950000D03*
X23150000Y-57950000D03*
X24850000Y-57950000D03*
X26550000Y-57950000D03*
X28250000Y-56250000D03*
X28250000Y-54550000D03*
X28250000Y-52850000D03*
X28250000Y-51150000D03*
X28250000Y-49450000D03*
X28250000Y-47750000D03*
X26550000Y-46050000D03*
X24850000Y-46050000D03*
X23150000Y-46050000D03*
X21450000Y-46050000D03*
%TD*%
D60*
%TO.C,J_MIC2*%
X33645000Y-73600000D03*
X46355000Y-73600000D03*
D61*
X36250000Y-68410000D03*
X37750000Y-68410000D03*
X39250000Y-68410000D03*
X40750000Y-68410000D03*
X42250000Y-68410000D03*
X43750000Y-68410000D03*
%TD*%
D16*
%TO.C,C23*%
X66425000Y-28500000D03*
X67075000Y-28500000D03*
%TD*%
%TO.C,C18*%
X54675000Y-20750000D03*
X55325000Y-20750000D03*
%TD*%
D20*
%TO.C,C72*%
X101800000Y-28500000D03*
X102700000Y-28500000D03*
%TD*%
D12*
%TO.C,R63*%
X65575000Y-55000000D03*
X64925000Y-55000000D03*
%TD*%
%TO.C,R92*%
X63675000Y-26250000D03*
X64325000Y-26250000D03*
%TD*%
%TO.C,R52*%
X25075000Y-17750000D03*
X24425000Y-17750000D03*
%TD*%
D48*
%TO.C,D6*%
X46000000Y-10490000D03*
X46000000Y-9010000D03*
%TD*%
D62*
%TO.C,J10*%
X72950000Y-71500000D03*
D63*
X74475000Y-70025000D03*
X74475000Y-72975000D03*
%TD*%
D16*
%TO.C,R42*%
X9675000Y-57000000D03*
X10325000Y-57000000D03*
%TD*%
D64*
%TO.C,J_PWR1*%
X4600000Y-27350000D03*
X4600000Y-16650000D03*
D65*
X8920000Y-29500000D03*
D66*
X8920000Y-26500000D03*
X8920000Y-23500000D03*
X8920000Y-20500000D03*
X8920000Y-17500000D03*
X8920000Y-14500000D03*
X11920000Y-29500000D03*
X11920000Y-26500000D03*
X11920000Y-23500000D03*
X11920000Y-20500000D03*
X11920000Y-17500000D03*
X11920000Y-14500000D03*
%TD*%
D16*
%TO.C,C14*%
X61425000Y-34750000D03*
X62075000Y-34750000D03*
%TD*%
%TO.C,R94*%
X38175000Y-11500000D03*
X38825000Y-11500000D03*
%TD*%
%TO.C,R66*%
X82425000Y-53750000D03*
X83075000Y-53750000D03*
%TD*%
%TO.C,R64*%
X82425000Y-55000000D03*
X83075000Y-55000000D03*
%TD*%
%TO.C,R82*%
X84425000Y-24250000D03*
X85075000Y-24250000D03*
%TD*%
D12*
%TO.C,R16*%
X42575000Y-36500000D03*
X41925000Y-36500000D03*
%TD*%
D16*
%TO.C,R28*%
X16925000Y-35500000D03*
X17575000Y-35500000D03*
%TD*%
%TO.C,C53*%
X59425000Y-16500000D03*
X60075000Y-16500000D03*
%TD*%
%TO.C,C64*%
X58625000Y-51600000D03*
X57975000Y-51600000D03*
%TD*%
%TO.C,R26*%
X13425000Y-34250000D03*
X14075000Y-34250000D03*
%TD*%
%TO.C,R15*%
X63175000Y-31500000D03*
X63825000Y-31500000D03*
%TD*%
%TO.C,R74*%
X101925000Y-41750000D03*
X102575000Y-41750000D03*
%TD*%
%TO.C,C3*%
X61425000Y-36000000D03*
X62075000Y-36000000D03*
%TD*%
%TO.C,C39*%
X9675000Y-53250000D03*
X10325000Y-53250000D03*
%TD*%
%TO.C,R24*%
X11675000Y-34250000D03*
X12325000Y-34250000D03*
%TD*%
D67*
%TO.C,D2*%
X9900000Y-41000000D03*
X10600000Y-41000000D03*
%TD*%
D12*
%TO.C,C58*%
X63575000Y-16500000D03*
X62925000Y-16500000D03*
%TD*%
D68*
%TO.C,FB1*%
X38100000Y-52000000D03*
X39900000Y-52000000D03*
%TD*%
D12*
%TO.C,C73*%
X92075000Y-33000000D03*
X91425000Y-33000000D03*
%TD*%
D16*
%TO.C,R21*%
X89175000Y-65250000D03*
X89825000Y-65250000D03*
%TD*%
%TO.C,C60*%
X59425000Y-62750000D03*
X60075000Y-62750000D03*
%TD*%
D12*
%TO.C,R91*%
X63675000Y-25250000D03*
X64325000Y-25250000D03*
%TD*%
D16*
%TO.C,R32*%
X16925000Y-28250000D03*
X17575000Y-28250000D03*
%TD*%
D69*
%TO.C,U18*%
X52760000Y-45500000D03*
X52760000Y-46000000D03*
X52760000Y-46500000D03*
X54240000Y-46500000D03*
X54240000Y-46000000D03*
X54240000Y-45500000D03*
%TD*%
D16*
%TO.C,C5*%
X45675000Y-20750000D03*
X46325000Y-20750000D03*
%TD*%
D21*
%TO.C,U22*%
X100332500Y-53000000D03*
X100332500Y-53500000D03*
D22*
X100332500Y-54000000D03*
D21*
X100332500Y-54500000D03*
X100332500Y-55000000D03*
X101167500Y-55000000D03*
X101167500Y-54500000D03*
D22*
X101167500Y-54000000D03*
D21*
X101167500Y-53500000D03*
X101167500Y-53000000D03*
%TD*%
D70*
%TO.C,U14*%
X21195000Y-19000000D03*
X21195000Y-19500000D03*
X21195000Y-20000000D03*
X22805000Y-20000000D03*
X22805000Y-19500000D03*
X22805000Y-19000000D03*
%TD*%
D16*
%TO.C,C47*%
X9675000Y-47000000D03*
X10325000Y-47000000D03*
%TD*%
%TO.C,R93*%
X43675000Y-11500000D03*
X44325000Y-11500000D03*
%TD*%
%TO.C,R20*%
X37925000Y-65500000D03*
X38575000Y-65500000D03*
%TD*%
D12*
%TO.C,R55*%
X67075000Y-17750000D03*
X66425000Y-17750000D03*
%TD*%
D16*
%TO.C,C41*%
X9675000Y-54500000D03*
X10325000Y-54500000D03*
%TD*%
%TO.C,R98*%
X39675000Y-12750000D03*
X40325000Y-12750000D03*
%TD*%
%TO.C,R86*%
X84425000Y-23000000D03*
X85075000Y-23000000D03*
%TD*%
%TO.C,R80*%
X82675000Y-24250000D03*
X83325000Y-24250000D03*
%TD*%
%TO.C,C16*%
X61425000Y-33500000D03*
X62075000Y-33500000D03*
%TD*%
D70*
%TO.C,U15*%
X72695000Y-11500000D03*
X72695000Y-12000000D03*
X72695000Y-12500000D03*
X74305000Y-12500000D03*
X74305000Y-12000000D03*
X74305000Y-11500000D03*
%TD*%
D20*
%TO.C,C6*%
X41550000Y-30000000D03*
X42450000Y-30000000D03*
%TD*%
D16*
%TO.C,R2*%
X61425000Y-31500000D03*
X62075000Y-31500000D03*
%TD*%
D12*
%TO.C,R68*%
X83075000Y-56250000D03*
X82425000Y-56250000D03*
%TD*%
D71*
%TO.C,U4*%
X65350000Y-37365000D03*
D72*
X66000000Y-37365000D03*
X66650000Y-37365000D03*
X66650000Y-35635000D03*
X66000000Y-35635000D03*
X65350000Y-35635000D03*
D73*
X66000000Y-36500000D03*
%TD*%
D74*
%TO.C,U6*%
X89200000Y-34550000D03*
X89200000Y-35500000D03*
X89200000Y-36450000D03*
X91800000Y-36450000D03*
X91800000Y-34550000D03*
%TD*%
D12*
%TO.C,R23*%
X53825000Y-47750000D03*
X53175000Y-47750000D03*
%TD*%
D16*
%TO.C,R96*%
X41925000Y-22750000D03*
X42575000Y-22750000D03*
%TD*%
%TO.C,R51*%
X24675000Y-20750000D03*
X25325000Y-20750000D03*
%TD*%
D75*
%TO.C,Q4*%
X60362000Y-64500000D03*
X60362000Y-65000000D03*
X60362000Y-65500000D03*
X61638000Y-65500000D03*
X61638000Y-65000000D03*
X61638000Y-64500000D03*
%TD*%
D76*
%TO.C,J6*%
X23540000Y-11000000D03*
X23540000Y-4560000D03*
X21000000Y-11000000D03*
X21000000Y-4560000D03*
X18460000Y-11000000D03*
X18460000Y-4560000D03*
D77*
X19095000Y-13930000D03*
X21635000Y-13930000D03*
X24175000Y-13930000D03*
X17825000Y-13930000D03*
X20365000Y-13930000D03*
X22905000Y-13930000D03*
D78*
X16875000Y-12905000D03*
D79*
X27500000Y-4550000D03*
X14500000Y-4550000D03*
%TD*%
D16*
%TO.C,R97*%
X42675000Y-12750000D03*
X43325000Y-12750000D03*
%TD*%
%TO.C,C37*%
X6425000Y-52500000D03*
X7075000Y-52500000D03*
%TD*%
%TO.C,R54*%
X68175000Y-16500000D03*
X68825000Y-16500000D03*
%TD*%
%TO.C,R73*%
X66675000Y-69250000D03*
X67325000Y-69250000D03*
%TD*%
%TO.C,C74*%
X92675000Y-20500000D03*
X93325000Y-20500000D03*
%TD*%
%TO.C,R50*%
X23425000Y-16500000D03*
X24075000Y-16500000D03*
%TD*%
%TO.C,C28*%
X62425000Y-40250000D03*
X63075000Y-40250000D03*
%TD*%
%TO.C,C11*%
X41925000Y-31500000D03*
X42575000Y-31500000D03*
%TD*%
D68*
%TO.C,R62*%
X52600000Y-51250000D03*
X54400000Y-51250000D03*
%TD*%
D16*
%TO.C,R33*%
X16925000Y-34250000D03*
X17575000Y-34250000D03*
%TD*%
%TO.C,C12*%
X61425000Y-25250000D03*
X62075000Y-25250000D03*
%TD*%
%TO.C,C45*%
X9675000Y-55750000D03*
X10325000Y-55750000D03*
%TD*%
D40*
%TO.C,L2*%
X59750000Y-70575000D03*
X59750000Y-69925000D03*
%TD*%
D16*
%TO.C,R38*%
X37675000Y-59250000D03*
X38325000Y-59250000D03*
%TD*%
%TO.C,R47*%
X31175000Y-16500000D03*
X31825000Y-16500000D03*
%TD*%
D15*
%TO.C,Q2*%
X17000000Y-31050000D03*
X17000000Y-32950000D03*
X19000000Y-32000000D03*
%TD*%
D16*
%TO.C,C9*%
X41925000Y-32750000D03*
X42575000Y-32750000D03*
%TD*%
D12*
%TO.C,C70*%
X67325000Y-66750000D03*
X66675000Y-66750000D03*
%TD*%
D16*
%TO.C,R41*%
X39425000Y-56750000D03*
X40075000Y-56750000D03*
%TD*%
D12*
%TO.C,C68*%
X65575000Y-50750000D03*
X64925000Y-50750000D03*
%TD*%
D16*
%TO.C,R95*%
X46675000Y-15000000D03*
X47325000Y-15000000D03*
%TD*%
D40*
%TO.C,R10*%
X62000000Y-20075000D03*
X62000000Y-19425000D03*
%TD*%
D16*
%TO.C,C66*%
X82425000Y-51000000D03*
X83075000Y-51000000D03*
%TD*%
%TO.C,C15*%
X47425000Y-20750000D03*
X48075000Y-20750000D03*
%TD*%
%TO.C,R60*%
X48175000Y-65000000D03*
X48825000Y-65000000D03*
%TD*%
D36*
%TO.C,U16*%
X21100000Y-29175000D03*
X21100000Y-29825000D03*
X21100000Y-30475000D03*
X21100000Y-31125000D03*
X21100000Y-31775000D03*
X21100000Y-32425000D03*
X21100000Y-33075000D03*
X21100000Y-33725000D03*
X21100000Y-34375000D03*
X21100000Y-35025000D03*
X21100000Y-35675000D03*
X21100000Y-36325000D03*
X26900000Y-36325000D03*
X26900000Y-35675000D03*
X26900000Y-35025000D03*
X26900000Y-34375000D03*
X26900000Y-33725000D03*
X26900000Y-33075000D03*
X26900000Y-32425000D03*
X26900000Y-31775000D03*
X26900000Y-31125000D03*
X26900000Y-30475000D03*
X26900000Y-29825000D03*
X26900000Y-29175000D03*
%TD*%
D16*
%TO.C,C4*%
X61425000Y-24000000D03*
X62075000Y-24000000D03*
%TD*%
D36*
%TO.C,U7*%
X56850000Y-41675000D03*
X56850000Y-42325000D03*
X56850000Y-42975000D03*
X56850000Y-43625000D03*
X56850000Y-44275000D03*
X56850000Y-44925000D03*
X56850000Y-45575000D03*
X56850000Y-46225000D03*
X56850000Y-46875000D03*
X56850000Y-47525000D03*
X56850000Y-48175000D03*
X56850000Y-48825000D03*
X62650000Y-48825000D03*
X62650000Y-48175000D03*
X62650000Y-47525000D03*
X62650000Y-46875000D03*
X62650000Y-46225000D03*
X62650000Y-45575000D03*
X62650000Y-44925000D03*
X62650000Y-44275000D03*
X62650000Y-43625000D03*
X62650000Y-42975000D03*
X62650000Y-42325000D03*
X62650000Y-41675000D03*
%TD*%
D16*
%TO.C,C43*%
X9675000Y-48250000D03*
X10325000Y-48250000D03*
%TD*%
D62*
%TO.C,J8*%
X14950000Y-71500000D03*
D63*
X16475000Y-70025000D03*
X16475000Y-72975000D03*
%TD*%
D16*
%TO.C,C1*%
X41925000Y-28500000D03*
X42575000Y-28500000D03*
%TD*%
%TO.C,R35*%
X37675000Y-58000000D03*
X38325000Y-58000000D03*
%TD*%
D80*
%TO.C,X1*%
X61250000Y-30205000D03*
X62250000Y-30205000D03*
X62250000Y-29795000D03*
X61250000Y-29795000D03*
%TD*%
D81*
%TO.C,U26*%
X8075000Y-51150000D03*
X8075000Y-51850000D03*
X8925000Y-51500000D03*
%TD*%
D12*
%TO.C,R58*%
X47575000Y-59250000D03*
X46925000Y-59250000D03*
%TD*%
D20*
%TO.C,C13*%
X61550000Y-37750000D03*
X62450000Y-37750000D03*
%TD*%
D16*
%TO.C,C49*%
X31175000Y-19000000D03*
X31825000Y-19000000D03*
%TD*%
%TO.C,C42*%
X37675000Y-55500000D03*
X38325000Y-55500000D03*
%TD*%
%TO.C,C2*%
X41925000Y-37750000D03*
X42575000Y-37750000D03*
%TD*%
D20*
%TO.C,C67*%
X82550000Y-49500000D03*
X83450000Y-49500000D03*
%TD*%
D16*
%TO.C,R81*%
X87925000Y-23000000D03*
X88575000Y-23000000D03*
%TD*%
%TO.C,C8*%
X41925000Y-34000000D03*
X42575000Y-34000000D03*
%TD*%
%TO.C,C22*%
X68675000Y-27000000D03*
X69325000Y-27000000D03*
%TD*%
D48*
%TO.C,D7*%
X44000000Y-10490000D03*
X44000000Y-9010000D03*
%TD*%
D12*
%TO.C,C79*%
X24325000Y-68000000D03*
X23675000Y-68000000D03*
%TD*%
D16*
%TO.C,R19*%
X8175000Y-42500000D03*
X8825000Y-42500000D03*
%TD*%
D21*
%TO.C,U27*%
X40582500Y-64000000D03*
X40582500Y-64500000D03*
D22*
X40582500Y-65000000D03*
D21*
X40582500Y-65500000D03*
X40582500Y-66000000D03*
X41417500Y-66000000D03*
X41417500Y-65500000D03*
D22*
X41417500Y-65000000D03*
D21*
X41417500Y-64500000D03*
X41417500Y-64000000D03*
%TD*%
D62*
%TO.C,J9*%
X52450000Y-68000000D03*
D63*
X53975000Y-66525000D03*
X53975000Y-69475000D03*
%TD*%
D82*
%TO.C,U5*%
X61500000Y-58425000D03*
D83*
X61000000Y-58425000D03*
X60500000Y-58425000D03*
X60500000Y-55575000D03*
X61000000Y-55575000D03*
X61500000Y-55575000D03*
D84*
X61000000Y-57000000D03*
%TD*%
D12*
%TO.C,R49*%
X57675000Y-17750000D03*
X58325000Y-17750000D03*
%TD*%
D15*
%TO.C,Q3*%
X26500000Y-17050000D03*
X26500000Y-18950000D03*
X28500000Y-18000000D03*
%TD*%
D16*
%TO.C,C25*%
X66425000Y-27250000D03*
X67075000Y-27250000D03*
%TD*%
%TO.C,R22*%
X99675000Y-51750000D03*
X100325000Y-51750000D03*
%TD*%
D76*
%TO.C,J7*%
X66540000Y-11000000D03*
X66540000Y-4560000D03*
X64000000Y-11000000D03*
X64000000Y-4560000D03*
X61460000Y-11000000D03*
X61460000Y-4560000D03*
D77*
X62095000Y-13930000D03*
X64635000Y-13930000D03*
X67175000Y-13930000D03*
X60825000Y-13930000D03*
X63365000Y-13930000D03*
X65905000Y-13930000D03*
D78*
X59875000Y-12905000D03*
D79*
X70500000Y-4550000D03*
X57500000Y-4550000D03*
%TD*%
D12*
%TO.C,R78*%
X93325000Y-38000000D03*
X92675000Y-38000000D03*
%TD*%
D85*
%TO.C,J_MIC1*%
X1400000Y-36145000D03*
X1400000Y-48855000D03*
D86*
X6590000Y-38750000D03*
X6590000Y-40250000D03*
X6590000Y-41750000D03*
X6590000Y-43250000D03*
X6590000Y-44750000D03*
X6590000Y-46250000D03*
%TD*%
D16*
%TO.C,R99*%
X101675000Y-16750000D03*
X102325000Y-16750000D03*
%TD*%
D40*
%TO.C,R11*%
X63500000Y-20075000D03*
X63500000Y-19425000D03*
%TD*%
D16*
%TO.C,R6*%
X48675000Y-19500000D03*
X49325000Y-19500000D03*
%TD*%
D60*
%TO.C,J_MIC3*%
X85645000Y-73600000D03*
X98355000Y-73600000D03*
D61*
X88250000Y-68410000D03*
X89750000Y-68410000D03*
X91250000Y-68410000D03*
X92750000Y-68410000D03*
X94250000Y-68410000D03*
X95750000Y-68410000D03*
%TD*%
D16*
%TO.C,R75*%
X63175000Y-32750000D03*
X63825000Y-32750000D03*
%TD*%
%TO.C,R89*%
X86175000Y-23000000D03*
X86825000Y-23000000D03*
%TD*%
D21*
%TO.C,U19*%
X8332500Y-37500000D03*
X8332500Y-38000000D03*
D22*
X8332500Y-38500000D03*
D21*
X8332500Y-39000000D03*
X8332500Y-39500000D03*
X9167500Y-39500000D03*
X9167500Y-39000000D03*
D22*
X9167500Y-38500000D03*
D21*
X9167500Y-38000000D03*
X9167500Y-37500000D03*
%TD*%
D36*
%TO.C,U17*%
X44100000Y-44050000D03*
X44100000Y-44700000D03*
X44100000Y-45350000D03*
X44100000Y-46000000D03*
X44100000Y-46650000D03*
X44100000Y-47300000D03*
X44100000Y-47950000D03*
X49900000Y-47950000D03*
X49900000Y-47300000D03*
X49900000Y-46650000D03*
X49900000Y-46000000D03*
X49900000Y-45350000D03*
X49900000Y-44700000D03*
X49900000Y-44050000D03*
%TD*%
D67*
%TO.C,D1*%
X9900000Y-42250000D03*
X10600000Y-42250000D03*
%TD*%
D16*
%TO.C,R85*%
X93175000Y-23000000D03*
X93825000Y-23000000D03*
%TD*%
D87*
%TO.C,U25*%
X42350000Y-8825000D03*
X41650000Y-8825000D03*
X42000000Y-9675000D03*
%TD*%
D16*
%TO.C,C48*%
X18675000Y-35500000D03*
X19325000Y-35500000D03*
%TD*%
%TO.C,R8*%
X54175000Y-16000000D03*
X54825000Y-16000000D03*
%TD*%
%LPD*%
M02*
