%TF.GenerationSoftware,KiCad,Pcbnew,9.0.9*%
%TF.CreationDate,2026-09-25T08:11:16+00:00*%
%TF.ProjectId,PCB-PWR,5043422d-5057-4522-9e6b-696361645f70,rev?*%
%TF.SameCoordinates,Original*%
%TF.FileFunction,Legend,Top*%
%TF.FilePolarity,Positive*%
%FSLAX46Y46*%
G04 Gerber Fmt 4.6, Leading zero omitted, Abs format (unit mm)*
G04 Created by KiCad (PCBNEW 9.0.9) date 2026-09-25 08:11:16*
%MOMM*%
%LPD*%
G01*
G04 APERTURE LIST*
%ADD10C,0.120000*%
%ADD11C,0.150000*%
G04 APERTURE END LIST*
D10*
X47866667Y-17463855D02*
X47600000Y-17082902D01*
X47409524Y-17463855D02*
X47409524Y-16663855D01*
X47409524Y-16663855D02*
X47714286Y-16663855D01*
X47714286Y-16663855D02*
X47790476Y-16701950D01*
X47790476Y-16701950D02*
X47828571Y-16740045D01*
X47828571Y-16740045D02*
X47866667Y-16816236D01*
X47866667Y-16816236D02*
X47866667Y-16930521D01*
X47866667Y-16930521D02*
X47828571Y-17006712D01*
X47828571Y-17006712D02*
X47790476Y-17044807D01*
X47790476Y-17044807D02*
X47714286Y-17082902D01*
X47714286Y-17082902D02*
X47409524Y-17082902D01*
X48552381Y-16663855D02*
X48400000Y-16663855D01*
X48400000Y-16663855D02*
X48323809Y-16701950D01*
X48323809Y-16701950D02*
X48285714Y-16740045D01*
X48285714Y-16740045D02*
X48209524Y-16854331D01*
X48209524Y-16854331D02*
X48171428Y-17006712D01*
X48171428Y-17006712D02*
X48171428Y-17311474D01*
X48171428Y-17311474D02*
X48209524Y-17387664D01*
X48209524Y-17387664D02*
X48247619Y-17425760D01*
X48247619Y-17425760D02*
X48323809Y-17463855D01*
X48323809Y-17463855D02*
X48476190Y-17463855D01*
X48476190Y-17463855D02*
X48552381Y-17425760D01*
X48552381Y-17425760D02*
X48590476Y-17387664D01*
X48590476Y-17387664D02*
X48628571Y-17311474D01*
X48628571Y-17311474D02*
X48628571Y-17120998D01*
X48628571Y-17120998D02*
X48590476Y-17044807D01*
X48590476Y-17044807D02*
X48552381Y-17006712D01*
X48552381Y-17006712D02*
X48476190Y-16968617D01*
X48476190Y-16968617D02*
X48323809Y-16968617D01*
X48323809Y-16968617D02*
X48247619Y-17006712D01*
X48247619Y-17006712D02*
X48209524Y-17044807D01*
X48209524Y-17044807D02*
X48171428Y-17120998D01*
X48485714Y-40887664D02*
X48447618Y-40925760D01*
X48447618Y-40925760D02*
X48333333Y-40963855D01*
X48333333Y-40963855D02*
X48257142Y-40963855D01*
X48257142Y-40963855D02*
X48142856Y-40925760D01*
X48142856Y-40925760D02*
X48066666Y-40849569D01*
X48066666Y-40849569D02*
X48028571Y-40773379D01*
X48028571Y-40773379D02*
X47990475Y-40620998D01*
X47990475Y-40620998D02*
X47990475Y-40506712D01*
X47990475Y-40506712D02*
X48028571Y-40354331D01*
X48028571Y-40354331D02*
X48066666Y-40278140D01*
X48066666Y-40278140D02*
X48142856Y-40201950D01*
X48142856Y-40201950D02*
X48257142Y-40163855D01*
X48257142Y-40163855D02*
X48333333Y-40163855D01*
X48333333Y-40163855D02*
X48447618Y-40201950D01*
X48447618Y-40201950D02*
X48485714Y-40240045D01*
X49247618Y-40963855D02*
X48790475Y-40963855D01*
X49019047Y-40963855D02*
X49019047Y-40163855D01*
X49019047Y-40163855D02*
X48942856Y-40278140D01*
X48942856Y-40278140D02*
X48866666Y-40354331D01*
X48866666Y-40354331D02*
X48790475Y-40392426D01*
X49552380Y-40240045D02*
X49590476Y-40201950D01*
X49590476Y-40201950D02*
X49666666Y-40163855D01*
X49666666Y-40163855D02*
X49857142Y-40163855D01*
X49857142Y-40163855D02*
X49933333Y-40201950D01*
X49933333Y-40201950D02*
X49971428Y-40240045D01*
X49971428Y-40240045D02*
X50009523Y-40316236D01*
X50009523Y-40316236D02*
X50009523Y-40392426D01*
X50009523Y-40392426D02*
X49971428Y-40506712D01*
X49971428Y-40506712D02*
X49514285Y-40963855D01*
X49514285Y-40963855D02*
X50009523Y-40963855D01*
X49866667Y-45963855D02*
X49600000Y-45582902D01*
X49409524Y-45963855D02*
X49409524Y-45163855D01*
X49409524Y-45163855D02*
X49714286Y-45163855D01*
X49714286Y-45163855D02*
X49790476Y-45201950D01*
X49790476Y-45201950D02*
X49828571Y-45240045D01*
X49828571Y-45240045D02*
X49866667Y-45316236D01*
X49866667Y-45316236D02*
X49866667Y-45430521D01*
X49866667Y-45430521D02*
X49828571Y-45506712D01*
X49828571Y-45506712D02*
X49790476Y-45544807D01*
X49790476Y-45544807D02*
X49714286Y-45582902D01*
X49714286Y-45582902D02*
X49409524Y-45582902D01*
X50133333Y-45163855D02*
X50666667Y-45163855D01*
X50666667Y-45163855D02*
X50323809Y-45963855D01*
X52637664Y-41114285D02*
X52675760Y-41152381D01*
X52675760Y-41152381D02*
X52713855Y-41266666D01*
X52713855Y-41266666D02*
X52713855Y-41342857D01*
X52713855Y-41342857D02*
X52675760Y-41457143D01*
X52675760Y-41457143D02*
X52599569Y-41533333D01*
X52599569Y-41533333D02*
X52523379Y-41571428D01*
X52523379Y-41571428D02*
X52370998Y-41609524D01*
X52370998Y-41609524D02*
X52256712Y-41609524D01*
X52256712Y-41609524D02*
X52104331Y-41571428D01*
X52104331Y-41571428D02*
X52028140Y-41533333D01*
X52028140Y-41533333D02*
X51951950Y-41457143D01*
X51951950Y-41457143D02*
X51913855Y-41342857D01*
X51913855Y-41342857D02*
X51913855Y-41266666D01*
X51913855Y-41266666D02*
X51951950Y-41152381D01*
X51951950Y-41152381D02*
X51990045Y-41114285D01*
X51990045Y-40809524D02*
X51951950Y-40771428D01*
X51951950Y-40771428D02*
X51913855Y-40695238D01*
X51913855Y-40695238D02*
X51913855Y-40504762D01*
X51913855Y-40504762D02*
X51951950Y-40428571D01*
X51951950Y-40428571D02*
X51990045Y-40390476D01*
X51990045Y-40390476D02*
X52066236Y-40352381D01*
X52066236Y-40352381D02*
X52142426Y-40352381D01*
X52142426Y-40352381D02*
X52256712Y-40390476D01*
X52256712Y-40390476D02*
X52713855Y-40847619D01*
X52713855Y-40847619D02*
X52713855Y-40352381D01*
X52713855Y-39590476D02*
X52713855Y-40047619D01*
X52713855Y-39819047D02*
X51913855Y-39819047D01*
X51913855Y-39819047D02*
X52028140Y-39895238D01*
X52028140Y-39895238D02*
X52104331Y-39971428D01*
X52104331Y-39971428D02*
X52142426Y-40047619D01*
X19866667Y-24887664D02*
X19828571Y-24925760D01*
X19828571Y-24925760D02*
X19714286Y-24963855D01*
X19714286Y-24963855D02*
X19638095Y-24963855D01*
X19638095Y-24963855D02*
X19523809Y-24925760D01*
X19523809Y-24925760D02*
X19447619Y-24849569D01*
X19447619Y-24849569D02*
X19409524Y-24773379D01*
X19409524Y-24773379D02*
X19371428Y-24620998D01*
X19371428Y-24620998D02*
X19371428Y-24506712D01*
X19371428Y-24506712D02*
X19409524Y-24354331D01*
X19409524Y-24354331D02*
X19447619Y-24278140D01*
X19447619Y-24278140D02*
X19523809Y-24201950D01*
X19523809Y-24201950D02*
X19638095Y-24163855D01*
X19638095Y-24163855D02*
X19714286Y-24163855D01*
X19714286Y-24163855D02*
X19828571Y-24201950D01*
X19828571Y-24201950D02*
X19866667Y-24240045D01*
X20628571Y-24963855D02*
X20171428Y-24963855D01*
X20400000Y-24963855D02*
X20400000Y-24163855D01*
X20400000Y-24163855D02*
X20323809Y-24278140D01*
X20323809Y-24278140D02*
X20247619Y-24354331D01*
X20247619Y-24354331D02*
X20171428Y-24392426D01*
X58087664Y-11663332D02*
X58125760Y-11701428D01*
X58125760Y-11701428D02*
X58163855Y-11815713D01*
X58163855Y-11815713D02*
X58163855Y-11891904D01*
X58163855Y-11891904D02*
X58125760Y-12006190D01*
X58125760Y-12006190D02*
X58049569Y-12082380D01*
X58049569Y-12082380D02*
X57973379Y-12120475D01*
X57973379Y-12120475D02*
X57820998Y-12158571D01*
X57820998Y-12158571D02*
X57706712Y-12158571D01*
X57706712Y-12158571D02*
X57554331Y-12120475D01*
X57554331Y-12120475D02*
X57478140Y-12082380D01*
X57478140Y-12082380D02*
X57401950Y-12006190D01*
X57401950Y-12006190D02*
X57363855Y-11891904D01*
X57363855Y-11891904D02*
X57363855Y-11815713D01*
X57363855Y-11815713D02*
X57401950Y-11701428D01*
X57401950Y-11701428D02*
X57440045Y-11663332D01*
X57630521Y-10977618D02*
X58163855Y-10977618D01*
X57325760Y-11168094D02*
X57897188Y-11358571D01*
X57897188Y-11358571D02*
X57897188Y-10863332D01*
X39230476Y-54163855D02*
X39687619Y-54163855D01*
X39459047Y-54963855D02*
X39459047Y-54163855D01*
X39954286Y-54963855D02*
X39954286Y-54163855D01*
X39954286Y-54163855D02*
X40259048Y-54163855D01*
X40259048Y-54163855D02*
X40335238Y-54201950D01*
X40335238Y-54201950D02*
X40373333Y-54240045D01*
X40373333Y-54240045D02*
X40411429Y-54316236D01*
X40411429Y-54316236D02*
X40411429Y-54430521D01*
X40411429Y-54430521D02*
X40373333Y-54506712D01*
X40373333Y-54506712D02*
X40335238Y-54544807D01*
X40335238Y-54544807D02*
X40259048Y-54582902D01*
X40259048Y-54582902D02*
X39954286Y-54582902D01*
X40678095Y-54163855D02*
X41211429Y-54163855D01*
X41211429Y-54163855D02*
X40868571Y-54963855D01*
X73485714Y-15887664D02*
X73447618Y-15925760D01*
X73447618Y-15925760D02*
X73333333Y-15963855D01*
X73333333Y-15963855D02*
X73257142Y-15963855D01*
X73257142Y-15963855D02*
X73142856Y-15925760D01*
X73142856Y-15925760D02*
X73066666Y-15849569D01*
X73066666Y-15849569D02*
X73028571Y-15773379D01*
X73028571Y-15773379D02*
X72990475Y-15620998D01*
X72990475Y-15620998D02*
X72990475Y-15506712D01*
X72990475Y-15506712D02*
X73028571Y-15354331D01*
X73028571Y-15354331D02*
X73066666Y-15278140D01*
X73066666Y-15278140D02*
X73142856Y-15201950D01*
X73142856Y-15201950D02*
X73257142Y-15163855D01*
X73257142Y-15163855D02*
X73333333Y-15163855D01*
X73333333Y-15163855D02*
X73447618Y-15201950D01*
X73447618Y-15201950D02*
X73485714Y-15240045D01*
X74247618Y-15963855D02*
X73790475Y-15963855D01*
X74019047Y-15963855D02*
X74019047Y-15163855D01*
X74019047Y-15163855D02*
X73942856Y-15278140D01*
X73942856Y-15278140D02*
X73866666Y-15354331D01*
X73866666Y-15354331D02*
X73790475Y-15392426D01*
X74933333Y-15163855D02*
X74780952Y-15163855D01*
X74780952Y-15163855D02*
X74704761Y-15201950D01*
X74704761Y-15201950D02*
X74666666Y-15240045D01*
X74666666Y-15240045D02*
X74590476Y-15354331D01*
X74590476Y-15354331D02*
X74552380Y-15506712D01*
X74552380Y-15506712D02*
X74552380Y-15811474D01*
X74552380Y-15811474D02*
X74590476Y-15887664D01*
X74590476Y-15887664D02*
X74628571Y-15925760D01*
X74628571Y-15925760D02*
X74704761Y-15963855D01*
X74704761Y-15963855D02*
X74857142Y-15963855D01*
X74857142Y-15963855D02*
X74933333Y-15925760D01*
X74933333Y-15925760D02*
X74971428Y-15887664D01*
X74971428Y-15887664D02*
X75009523Y-15811474D01*
X75009523Y-15811474D02*
X75009523Y-15620998D01*
X75009523Y-15620998D02*
X74971428Y-15544807D01*
X74971428Y-15544807D02*
X74933333Y-15506712D01*
X74933333Y-15506712D02*
X74857142Y-15468617D01*
X74857142Y-15468617D02*
X74704761Y-15468617D01*
X74704761Y-15468617D02*
X74628571Y-15506712D01*
X74628571Y-15506712D02*
X74590476Y-15544807D01*
X74590476Y-15544807D02*
X74552380Y-15620998D01*
X58087664Y-39663332D02*
X58125760Y-39701428D01*
X58125760Y-39701428D02*
X58163855Y-39815713D01*
X58163855Y-39815713D02*
X58163855Y-39891904D01*
X58163855Y-39891904D02*
X58125760Y-40006190D01*
X58125760Y-40006190D02*
X58049569Y-40082380D01*
X58049569Y-40082380D02*
X57973379Y-40120475D01*
X57973379Y-40120475D02*
X57820998Y-40158571D01*
X57820998Y-40158571D02*
X57706712Y-40158571D01*
X57706712Y-40158571D02*
X57554331Y-40120475D01*
X57554331Y-40120475D02*
X57478140Y-40082380D01*
X57478140Y-40082380D02*
X57401950Y-40006190D01*
X57401950Y-40006190D02*
X57363855Y-39891904D01*
X57363855Y-39891904D02*
X57363855Y-39815713D01*
X57363855Y-39815713D02*
X57401950Y-39701428D01*
X57401950Y-39701428D02*
X57440045Y-39663332D01*
X57363855Y-38977618D02*
X57363855Y-39129999D01*
X57363855Y-39129999D02*
X57401950Y-39206190D01*
X57401950Y-39206190D02*
X57440045Y-39244285D01*
X57440045Y-39244285D02*
X57554331Y-39320475D01*
X57554331Y-39320475D02*
X57706712Y-39358571D01*
X57706712Y-39358571D02*
X58011474Y-39358571D01*
X58011474Y-39358571D02*
X58087664Y-39320475D01*
X58087664Y-39320475D02*
X58125760Y-39282380D01*
X58125760Y-39282380D02*
X58163855Y-39206190D01*
X58163855Y-39206190D02*
X58163855Y-39053809D01*
X58163855Y-39053809D02*
X58125760Y-38977618D01*
X58125760Y-38977618D02*
X58087664Y-38939523D01*
X58087664Y-38939523D02*
X58011474Y-38901428D01*
X58011474Y-38901428D02*
X57820998Y-38901428D01*
X57820998Y-38901428D02*
X57744807Y-38939523D01*
X57744807Y-38939523D02*
X57706712Y-38977618D01*
X57706712Y-38977618D02*
X57668617Y-39053809D01*
X57668617Y-39053809D02*
X57668617Y-39206190D01*
X57668617Y-39206190D02*
X57706712Y-39282380D01*
X57706712Y-39282380D02*
X57744807Y-39320475D01*
X57744807Y-39320475D02*
X57820998Y-39358571D01*
X57485714Y-48763855D02*
X57219047Y-48382902D01*
X57028571Y-48763855D02*
X57028571Y-47963855D01*
X57028571Y-47963855D02*
X57333333Y-47963855D01*
X57333333Y-47963855D02*
X57409523Y-48001950D01*
X57409523Y-48001950D02*
X57447618Y-48040045D01*
X57447618Y-48040045D02*
X57485714Y-48116236D01*
X57485714Y-48116236D02*
X57485714Y-48230521D01*
X57485714Y-48230521D02*
X57447618Y-48306712D01*
X57447618Y-48306712D02*
X57409523Y-48344807D01*
X57409523Y-48344807D02*
X57333333Y-48382902D01*
X57333333Y-48382902D02*
X57028571Y-48382902D01*
X58247618Y-48763855D02*
X57790475Y-48763855D01*
X58019047Y-48763855D02*
X58019047Y-47963855D01*
X58019047Y-47963855D02*
X57942856Y-48078140D01*
X57942856Y-48078140D02*
X57866666Y-48154331D01*
X57866666Y-48154331D02*
X57790475Y-48192426D01*
X58742857Y-47963855D02*
X58819047Y-47963855D01*
X58819047Y-47963855D02*
X58895238Y-48001950D01*
X58895238Y-48001950D02*
X58933333Y-48040045D01*
X58933333Y-48040045D02*
X58971428Y-48116236D01*
X58971428Y-48116236D02*
X59009523Y-48268617D01*
X59009523Y-48268617D02*
X59009523Y-48459093D01*
X59009523Y-48459093D02*
X58971428Y-48611474D01*
X58971428Y-48611474D02*
X58933333Y-48687664D01*
X58933333Y-48687664D02*
X58895238Y-48725760D01*
X58895238Y-48725760D02*
X58819047Y-48763855D01*
X58819047Y-48763855D02*
X58742857Y-48763855D01*
X58742857Y-48763855D02*
X58666666Y-48725760D01*
X58666666Y-48725760D02*
X58628571Y-48687664D01*
X58628571Y-48687664D02*
X58590476Y-48611474D01*
X58590476Y-48611474D02*
X58552380Y-48459093D01*
X58552380Y-48459093D02*
X58552380Y-48268617D01*
X58552380Y-48268617D02*
X58590476Y-48116236D01*
X58590476Y-48116236D02*
X58628571Y-48040045D01*
X58628571Y-48040045D02*
X58666666Y-48001950D01*
X58666666Y-48001950D02*
X58742857Y-47963855D01*
X74266667Y-48887664D02*
X74228571Y-48925760D01*
X74228571Y-48925760D02*
X74114286Y-48963855D01*
X74114286Y-48963855D02*
X74038095Y-48963855D01*
X74038095Y-48963855D02*
X73923809Y-48925760D01*
X73923809Y-48925760D02*
X73847619Y-48849569D01*
X73847619Y-48849569D02*
X73809524Y-48773379D01*
X73809524Y-48773379D02*
X73771428Y-48620998D01*
X73771428Y-48620998D02*
X73771428Y-48506712D01*
X73771428Y-48506712D02*
X73809524Y-48354331D01*
X73809524Y-48354331D02*
X73847619Y-48278140D01*
X73847619Y-48278140D02*
X73923809Y-48201950D01*
X73923809Y-48201950D02*
X74038095Y-48163855D01*
X74038095Y-48163855D02*
X74114286Y-48163855D01*
X74114286Y-48163855D02*
X74228571Y-48201950D01*
X74228571Y-48201950D02*
X74266667Y-48240045D01*
X74533333Y-48163855D02*
X75066667Y-48163855D01*
X75066667Y-48163855D02*
X74723809Y-48963855D01*
X33485714Y-24887664D02*
X33447618Y-24925760D01*
X33447618Y-24925760D02*
X33333333Y-24963855D01*
X33333333Y-24963855D02*
X33257142Y-24963855D01*
X33257142Y-24963855D02*
X33142856Y-24925760D01*
X33142856Y-24925760D02*
X33066666Y-24849569D01*
X33066666Y-24849569D02*
X33028571Y-24773379D01*
X33028571Y-24773379D02*
X32990475Y-24620998D01*
X32990475Y-24620998D02*
X32990475Y-24506712D01*
X32990475Y-24506712D02*
X33028571Y-24354331D01*
X33028571Y-24354331D02*
X33066666Y-24278140D01*
X33066666Y-24278140D02*
X33142856Y-24201950D01*
X33142856Y-24201950D02*
X33257142Y-24163855D01*
X33257142Y-24163855D02*
X33333333Y-24163855D01*
X33333333Y-24163855D02*
X33447618Y-24201950D01*
X33447618Y-24201950D02*
X33485714Y-24240045D01*
X34247618Y-24963855D02*
X33790475Y-24963855D01*
X34019047Y-24963855D02*
X34019047Y-24163855D01*
X34019047Y-24163855D02*
X33942856Y-24278140D01*
X33942856Y-24278140D02*
X33866666Y-24354331D01*
X33866666Y-24354331D02*
X33790475Y-24392426D01*
X34742857Y-24163855D02*
X34819047Y-24163855D01*
X34819047Y-24163855D02*
X34895238Y-24201950D01*
X34895238Y-24201950D02*
X34933333Y-24240045D01*
X34933333Y-24240045D02*
X34971428Y-24316236D01*
X34971428Y-24316236D02*
X35009523Y-24468617D01*
X35009523Y-24468617D02*
X35009523Y-24659093D01*
X35009523Y-24659093D02*
X34971428Y-24811474D01*
X34971428Y-24811474D02*
X34933333Y-24887664D01*
X34933333Y-24887664D02*
X34895238Y-24925760D01*
X34895238Y-24925760D02*
X34819047Y-24963855D01*
X34819047Y-24963855D02*
X34742857Y-24963855D01*
X34742857Y-24963855D02*
X34666666Y-24925760D01*
X34666666Y-24925760D02*
X34628571Y-24887664D01*
X34628571Y-24887664D02*
X34590476Y-24811474D01*
X34590476Y-24811474D02*
X34552380Y-24659093D01*
X34552380Y-24659093D02*
X34552380Y-24468617D01*
X34552380Y-24468617D02*
X34590476Y-24316236D01*
X34590476Y-24316236D02*
X34628571Y-24240045D01*
X34628571Y-24240045D02*
X34666666Y-24201950D01*
X34666666Y-24201950D02*
X34742857Y-24163855D01*
X50366667Y-17963855D02*
X50100000Y-17582902D01*
X49909524Y-17963855D02*
X49909524Y-17163855D01*
X49909524Y-17163855D02*
X50214286Y-17163855D01*
X50214286Y-17163855D02*
X50290476Y-17201950D01*
X50290476Y-17201950D02*
X50328571Y-17240045D01*
X50328571Y-17240045D02*
X50366667Y-17316236D01*
X50366667Y-17316236D02*
X50366667Y-17430521D01*
X50366667Y-17430521D02*
X50328571Y-17506712D01*
X50328571Y-17506712D02*
X50290476Y-17544807D01*
X50290476Y-17544807D02*
X50214286Y-17582902D01*
X50214286Y-17582902D02*
X49909524Y-17582902D01*
X50633333Y-17163855D02*
X51128571Y-17163855D01*
X51128571Y-17163855D02*
X50861905Y-17468617D01*
X50861905Y-17468617D02*
X50976190Y-17468617D01*
X50976190Y-17468617D02*
X51052381Y-17506712D01*
X51052381Y-17506712D02*
X51090476Y-17544807D01*
X51090476Y-17544807D02*
X51128571Y-17620998D01*
X51128571Y-17620998D02*
X51128571Y-17811474D01*
X51128571Y-17811474D02*
X51090476Y-17887664D01*
X51090476Y-17887664D02*
X51052381Y-17925760D01*
X51052381Y-17925760D02*
X50976190Y-17963855D01*
X50976190Y-17963855D02*
X50747619Y-17963855D01*
X50747619Y-17963855D02*
X50671428Y-17925760D01*
X50671428Y-17925760D02*
X50633333Y-17887664D01*
X73485714Y-36887664D02*
X73447618Y-36925760D01*
X73447618Y-36925760D02*
X73333333Y-36963855D01*
X73333333Y-36963855D02*
X73257142Y-36963855D01*
X73257142Y-36963855D02*
X73142856Y-36925760D01*
X73142856Y-36925760D02*
X73066666Y-36849569D01*
X73066666Y-36849569D02*
X73028571Y-36773379D01*
X73028571Y-36773379D02*
X72990475Y-36620998D01*
X72990475Y-36620998D02*
X72990475Y-36506712D01*
X72990475Y-36506712D02*
X73028571Y-36354331D01*
X73028571Y-36354331D02*
X73066666Y-36278140D01*
X73066666Y-36278140D02*
X73142856Y-36201950D01*
X73142856Y-36201950D02*
X73257142Y-36163855D01*
X73257142Y-36163855D02*
X73333333Y-36163855D01*
X73333333Y-36163855D02*
X73447618Y-36201950D01*
X73447618Y-36201950D02*
X73485714Y-36240045D01*
X74247618Y-36963855D02*
X73790475Y-36963855D01*
X74019047Y-36963855D02*
X74019047Y-36163855D01*
X74019047Y-36163855D02*
X73942856Y-36278140D01*
X73942856Y-36278140D02*
X73866666Y-36354331D01*
X73866666Y-36354331D02*
X73790475Y-36392426D01*
X74514285Y-36163855D02*
X75047619Y-36163855D01*
X75047619Y-36163855D02*
X74704761Y-36963855D01*
X19390476Y-28163855D02*
X19390476Y-28811474D01*
X19390476Y-28811474D02*
X19428571Y-28887664D01*
X19428571Y-28887664D02*
X19466666Y-28925760D01*
X19466666Y-28925760D02*
X19542857Y-28963855D01*
X19542857Y-28963855D02*
X19695238Y-28963855D01*
X19695238Y-28963855D02*
X19771428Y-28925760D01*
X19771428Y-28925760D02*
X19809523Y-28887664D01*
X19809523Y-28887664D02*
X19847619Y-28811474D01*
X19847619Y-28811474D02*
X19847619Y-28163855D01*
X20647618Y-28963855D02*
X20190475Y-28963855D01*
X20419047Y-28963855D02*
X20419047Y-28163855D01*
X20419047Y-28163855D02*
X20342856Y-28278140D01*
X20342856Y-28278140D02*
X20266666Y-28354331D01*
X20266666Y-28354331D02*
X20190475Y-28392426D01*
X52637664Y-13114285D02*
X52675760Y-13152381D01*
X52675760Y-13152381D02*
X52713855Y-13266666D01*
X52713855Y-13266666D02*
X52713855Y-13342857D01*
X52713855Y-13342857D02*
X52675760Y-13457143D01*
X52675760Y-13457143D02*
X52599569Y-13533333D01*
X52599569Y-13533333D02*
X52523379Y-13571428D01*
X52523379Y-13571428D02*
X52370998Y-13609524D01*
X52370998Y-13609524D02*
X52256712Y-13609524D01*
X52256712Y-13609524D02*
X52104331Y-13571428D01*
X52104331Y-13571428D02*
X52028140Y-13533333D01*
X52028140Y-13533333D02*
X51951950Y-13457143D01*
X51951950Y-13457143D02*
X51913855Y-13342857D01*
X51913855Y-13342857D02*
X51913855Y-13266666D01*
X51913855Y-13266666D02*
X51951950Y-13152381D01*
X51951950Y-13152381D02*
X51990045Y-13114285D01*
X51990045Y-12809524D02*
X51951950Y-12771428D01*
X51951950Y-12771428D02*
X51913855Y-12695238D01*
X51913855Y-12695238D02*
X51913855Y-12504762D01*
X51913855Y-12504762D02*
X51951950Y-12428571D01*
X51951950Y-12428571D02*
X51990045Y-12390476D01*
X51990045Y-12390476D02*
X52066236Y-12352381D01*
X52066236Y-12352381D02*
X52142426Y-12352381D01*
X52142426Y-12352381D02*
X52256712Y-12390476D01*
X52256712Y-12390476D02*
X52713855Y-12847619D01*
X52713855Y-12847619D02*
X52713855Y-12352381D01*
X51913855Y-11857142D02*
X51913855Y-11780952D01*
X51913855Y-11780952D02*
X51951950Y-11704761D01*
X51951950Y-11704761D02*
X51990045Y-11666666D01*
X51990045Y-11666666D02*
X52066236Y-11628571D01*
X52066236Y-11628571D02*
X52218617Y-11590476D01*
X52218617Y-11590476D02*
X52409093Y-11590476D01*
X52409093Y-11590476D02*
X52561474Y-11628571D01*
X52561474Y-11628571D02*
X52637664Y-11666666D01*
X52637664Y-11666666D02*
X52675760Y-11704761D01*
X52675760Y-11704761D02*
X52713855Y-11780952D01*
X52713855Y-11780952D02*
X52713855Y-11857142D01*
X52713855Y-11857142D02*
X52675760Y-11933333D01*
X52675760Y-11933333D02*
X52637664Y-11971428D01*
X52637664Y-11971428D02*
X52561474Y-12009523D01*
X52561474Y-12009523D02*
X52409093Y-12047619D01*
X52409093Y-12047619D02*
X52218617Y-12047619D01*
X52218617Y-12047619D02*
X52066236Y-12009523D01*
X52066236Y-12009523D02*
X51990045Y-11971428D01*
X51990045Y-11971428D02*
X51951950Y-11933333D01*
X51951950Y-11933333D02*
X51913855Y-11857142D01*
X36690476Y-54163855D02*
X37147619Y-54163855D01*
X36919047Y-54963855D02*
X36919047Y-54163855D01*
X37414286Y-54963855D02*
X37414286Y-54163855D01*
X37414286Y-54163855D02*
X37719048Y-54163855D01*
X37719048Y-54163855D02*
X37795238Y-54201950D01*
X37795238Y-54201950D02*
X37833333Y-54240045D01*
X37833333Y-54240045D02*
X37871429Y-54316236D01*
X37871429Y-54316236D02*
X37871429Y-54430521D01*
X37871429Y-54430521D02*
X37833333Y-54506712D01*
X37833333Y-54506712D02*
X37795238Y-54544807D01*
X37795238Y-54544807D02*
X37719048Y-54582902D01*
X37719048Y-54582902D02*
X37414286Y-54582902D01*
X38557143Y-54163855D02*
X38404762Y-54163855D01*
X38404762Y-54163855D02*
X38328571Y-54201950D01*
X38328571Y-54201950D02*
X38290476Y-54240045D01*
X38290476Y-54240045D02*
X38214286Y-54354331D01*
X38214286Y-54354331D02*
X38176190Y-54506712D01*
X38176190Y-54506712D02*
X38176190Y-54811474D01*
X38176190Y-54811474D02*
X38214286Y-54887664D01*
X38214286Y-54887664D02*
X38252381Y-54925760D01*
X38252381Y-54925760D02*
X38328571Y-54963855D01*
X38328571Y-54963855D02*
X38480952Y-54963855D01*
X38480952Y-54963855D02*
X38557143Y-54925760D01*
X38557143Y-54925760D02*
X38595238Y-54887664D01*
X38595238Y-54887664D02*
X38633333Y-54811474D01*
X38633333Y-54811474D02*
X38633333Y-54620998D01*
X38633333Y-54620998D02*
X38595238Y-54544807D01*
X38595238Y-54544807D02*
X38557143Y-54506712D01*
X38557143Y-54506712D02*
X38480952Y-54468617D01*
X38480952Y-54468617D02*
X38328571Y-54468617D01*
X38328571Y-54468617D02*
X38252381Y-54506712D01*
X38252381Y-54506712D02*
X38214286Y-54544807D01*
X38214286Y-54544807D02*
X38176190Y-54620998D01*
X5733333Y-26163855D02*
X5733333Y-26735283D01*
X5733333Y-26735283D02*
X5695238Y-26849569D01*
X5695238Y-26849569D02*
X5619047Y-26925760D01*
X5619047Y-26925760D02*
X5504762Y-26963855D01*
X5504762Y-26963855D02*
X5428571Y-26963855D01*
X6533333Y-26963855D02*
X6076190Y-26963855D01*
X6304762Y-26963855D02*
X6304762Y-26163855D01*
X6304762Y-26163855D02*
X6228571Y-26278140D01*
X6228571Y-26278140D02*
X6152381Y-26354331D01*
X6152381Y-26354331D02*
X6076190Y-26392426D01*
X58366667Y-20763855D02*
X58100000Y-20382902D01*
X57909524Y-20763855D02*
X57909524Y-19963855D01*
X57909524Y-19963855D02*
X58214286Y-19963855D01*
X58214286Y-19963855D02*
X58290476Y-20001950D01*
X58290476Y-20001950D02*
X58328571Y-20040045D01*
X58328571Y-20040045D02*
X58366667Y-20116236D01*
X58366667Y-20116236D02*
X58366667Y-20230521D01*
X58366667Y-20230521D02*
X58328571Y-20306712D01*
X58328571Y-20306712D02*
X58290476Y-20344807D01*
X58290476Y-20344807D02*
X58214286Y-20382902D01*
X58214286Y-20382902D02*
X57909524Y-20382902D01*
X58671428Y-20040045D02*
X58709524Y-20001950D01*
X58709524Y-20001950D02*
X58785714Y-19963855D01*
X58785714Y-19963855D02*
X58976190Y-19963855D01*
X58976190Y-19963855D02*
X59052381Y-20001950D01*
X59052381Y-20001950D02*
X59090476Y-20040045D01*
X59090476Y-20040045D02*
X59128571Y-20116236D01*
X59128571Y-20116236D02*
X59128571Y-20192426D01*
X59128571Y-20192426D02*
X59090476Y-20306712D01*
X59090476Y-20306712D02*
X58633333Y-20763855D01*
X58633333Y-20763855D02*
X59128571Y-20763855D01*
X46485714Y-30887664D02*
X46447618Y-30925760D01*
X46447618Y-30925760D02*
X46333333Y-30963855D01*
X46333333Y-30963855D02*
X46257142Y-30963855D01*
X46257142Y-30963855D02*
X46142856Y-30925760D01*
X46142856Y-30925760D02*
X46066666Y-30849569D01*
X46066666Y-30849569D02*
X46028571Y-30773379D01*
X46028571Y-30773379D02*
X45990475Y-30620998D01*
X45990475Y-30620998D02*
X45990475Y-30506712D01*
X45990475Y-30506712D02*
X46028571Y-30354331D01*
X46028571Y-30354331D02*
X46066666Y-30278140D01*
X46066666Y-30278140D02*
X46142856Y-30201950D01*
X46142856Y-30201950D02*
X46257142Y-30163855D01*
X46257142Y-30163855D02*
X46333333Y-30163855D01*
X46333333Y-30163855D02*
X46447618Y-30201950D01*
X46447618Y-30201950D02*
X46485714Y-30240045D01*
X47247618Y-30963855D02*
X46790475Y-30963855D01*
X47019047Y-30963855D02*
X47019047Y-30163855D01*
X47019047Y-30163855D02*
X46942856Y-30278140D01*
X46942856Y-30278140D02*
X46866666Y-30354331D01*
X46866666Y-30354331D02*
X46790475Y-30392426D01*
X47514285Y-30163855D02*
X48009523Y-30163855D01*
X48009523Y-30163855D02*
X47742857Y-30468617D01*
X47742857Y-30468617D02*
X47857142Y-30468617D01*
X47857142Y-30468617D02*
X47933333Y-30506712D01*
X47933333Y-30506712D02*
X47971428Y-30544807D01*
X47971428Y-30544807D02*
X48009523Y-30620998D01*
X48009523Y-30620998D02*
X48009523Y-30811474D01*
X48009523Y-30811474D02*
X47971428Y-30887664D01*
X47971428Y-30887664D02*
X47933333Y-30925760D01*
X47933333Y-30925760D02*
X47857142Y-30963855D01*
X47857142Y-30963855D02*
X47628571Y-30963855D01*
X47628571Y-30963855D02*
X47552380Y-30925760D01*
X47552380Y-30925760D02*
X47514285Y-30887664D01*
X44310476Y-54163855D02*
X44767619Y-54163855D01*
X44539047Y-54963855D02*
X44539047Y-54163855D01*
X45034286Y-54963855D02*
X45034286Y-54163855D01*
X45034286Y-54163855D02*
X45339048Y-54163855D01*
X45339048Y-54163855D02*
X45415238Y-54201950D01*
X45415238Y-54201950D02*
X45453333Y-54240045D01*
X45453333Y-54240045D02*
X45491429Y-54316236D01*
X45491429Y-54316236D02*
X45491429Y-54430521D01*
X45491429Y-54430521D02*
X45453333Y-54506712D01*
X45453333Y-54506712D02*
X45415238Y-54544807D01*
X45415238Y-54544807D02*
X45339048Y-54582902D01*
X45339048Y-54582902D02*
X45034286Y-54582902D01*
X45872381Y-54963855D02*
X46024762Y-54963855D01*
X46024762Y-54963855D02*
X46100952Y-54925760D01*
X46100952Y-54925760D02*
X46139048Y-54887664D01*
X46139048Y-54887664D02*
X46215238Y-54773379D01*
X46215238Y-54773379D02*
X46253333Y-54620998D01*
X46253333Y-54620998D02*
X46253333Y-54316236D01*
X46253333Y-54316236D02*
X46215238Y-54240045D01*
X46215238Y-54240045D02*
X46177143Y-54201950D01*
X46177143Y-54201950D02*
X46100952Y-54163855D01*
X46100952Y-54163855D02*
X45948571Y-54163855D01*
X45948571Y-54163855D02*
X45872381Y-54201950D01*
X45872381Y-54201950D02*
X45834286Y-54240045D01*
X45834286Y-54240045D02*
X45796190Y-54316236D01*
X45796190Y-54316236D02*
X45796190Y-54506712D01*
X45796190Y-54506712D02*
X45834286Y-54582902D01*
X45834286Y-54582902D02*
X45872381Y-54620998D01*
X45872381Y-54620998D02*
X45948571Y-54659093D01*
X45948571Y-54659093D02*
X46100952Y-54659093D01*
X46100952Y-54659093D02*
X46177143Y-54620998D01*
X46177143Y-54620998D02*
X46215238Y-54582902D01*
X46215238Y-54582902D02*
X46253333Y-54506712D01*
X74685714Y-39083855D02*
X74685714Y-38283855D01*
X74685714Y-38283855D02*
X75142857Y-39083855D01*
X75142857Y-39083855D02*
X75142857Y-38283855D01*
X75409523Y-38283855D02*
X75866666Y-38283855D01*
X75638094Y-39083855D02*
X75638094Y-38283855D01*
X76552380Y-39083855D02*
X76095237Y-39083855D01*
X76323809Y-39083855D02*
X76323809Y-38283855D01*
X76323809Y-38283855D02*
X76247618Y-38398140D01*
X76247618Y-38398140D02*
X76171428Y-38474331D01*
X76171428Y-38474331D02*
X76095237Y-38512426D01*
X41770476Y-54163855D02*
X42227619Y-54163855D01*
X41999047Y-54963855D02*
X41999047Y-54163855D01*
X42494286Y-54963855D02*
X42494286Y-54163855D01*
X42494286Y-54163855D02*
X42799048Y-54163855D01*
X42799048Y-54163855D02*
X42875238Y-54201950D01*
X42875238Y-54201950D02*
X42913333Y-54240045D01*
X42913333Y-54240045D02*
X42951429Y-54316236D01*
X42951429Y-54316236D02*
X42951429Y-54430521D01*
X42951429Y-54430521D02*
X42913333Y-54506712D01*
X42913333Y-54506712D02*
X42875238Y-54544807D01*
X42875238Y-54544807D02*
X42799048Y-54582902D01*
X42799048Y-54582902D02*
X42494286Y-54582902D01*
X43408571Y-54506712D02*
X43332381Y-54468617D01*
X43332381Y-54468617D02*
X43294286Y-54430521D01*
X43294286Y-54430521D02*
X43256190Y-54354331D01*
X43256190Y-54354331D02*
X43256190Y-54316236D01*
X43256190Y-54316236D02*
X43294286Y-54240045D01*
X43294286Y-54240045D02*
X43332381Y-54201950D01*
X43332381Y-54201950D02*
X43408571Y-54163855D01*
X43408571Y-54163855D02*
X43560952Y-54163855D01*
X43560952Y-54163855D02*
X43637143Y-54201950D01*
X43637143Y-54201950D02*
X43675238Y-54240045D01*
X43675238Y-54240045D02*
X43713333Y-54316236D01*
X43713333Y-54316236D02*
X43713333Y-54354331D01*
X43713333Y-54354331D02*
X43675238Y-54430521D01*
X43675238Y-54430521D02*
X43637143Y-54468617D01*
X43637143Y-54468617D02*
X43560952Y-54506712D01*
X43560952Y-54506712D02*
X43408571Y-54506712D01*
X43408571Y-54506712D02*
X43332381Y-54544807D01*
X43332381Y-54544807D02*
X43294286Y-54582902D01*
X43294286Y-54582902D02*
X43256190Y-54659093D01*
X43256190Y-54659093D02*
X43256190Y-54811474D01*
X43256190Y-54811474D02*
X43294286Y-54887664D01*
X43294286Y-54887664D02*
X43332381Y-54925760D01*
X43332381Y-54925760D02*
X43408571Y-54963855D01*
X43408571Y-54963855D02*
X43560952Y-54963855D01*
X43560952Y-54963855D02*
X43637143Y-54925760D01*
X43637143Y-54925760D02*
X43675238Y-54887664D01*
X43675238Y-54887664D02*
X43713333Y-54811474D01*
X43713333Y-54811474D02*
X43713333Y-54659093D01*
X43713333Y-54659093D02*
X43675238Y-54582902D01*
X43675238Y-54582902D02*
X43637143Y-54544807D01*
X43637143Y-54544807D02*
X43560952Y-54506712D01*
X65485714Y-47963855D02*
X65219047Y-47582902D01*
X65028571Y-47963855D02*
X65028571Y-47163855D01*
X65028571Y-47163855D02*
X65333333Y-47163855D01*
X65333333Y-47163855D02*
X65409523Y-47201950D01*
X65409523Y-47201950D02*
X65447618Y-47240045D01*
X65447618Y-47240045D02*
X65485714Y-47316236D01*
X65485714Y-47316236D02*
X65485714Y-47430521D01*
X65485714Y-47430521D02*
X65447618Y-47506712D01*
X65447618Y-47506712D02*
X65409523Y-47544807D01*
X65409523Y-47544807D02*
X65333333Y-47582902D01*
X65333333Y-47582902D02*
X65028571Y-47582902D01*
X66247618Y-47963855D02*
X65790475Y-47963855D01*
X66019047Y-47963855D02*
X66019047Y-47163855D01*
X66019047Y-47163855D02*
X65942856Y-47278140D01*
X65942856Y-47278140D02*
X65866666Y-47354331D01*
X65866666Y-47354331D02*
X65790475Y-47392426D01*
X67009523Y-47963855D02*
X66552380Y-47963855D01*
X66780952Y-47963855D02*
X66780952Y-47163855D01*
X66780952Y-47163855D02*
X66704761Y-47278140D01*
X66704761Y-47278140D02*
X66628571Y-47354331D01*
X66628571Y-47354331D02*
X66552380Y-47392426D01*
X26923809Y-29040045D02*
X26847619Y-29001950D01*
X26847619Y-29001950D02*
X26771428Y-28925760D01*
X26771428Y-28925760D02*
X26657142Y-28811474D01*
X26657142Y-28811474D02*
X26580952Y-28773379D01*
X26580952Y-28773379D02*
X26504761Y-28773379D01*
X26542857Y-28963855D02*
X26466666Y-28925760D01*
X26466666Y-28925760D02*
X26390476Y-28849569D01*
X26390476Y-28849569D02*
X26352380Y-28697188D01*
X26352380Y-28697188D02*
X26352380Y-28430521D01*
X26352380Y-28430521D02*
X26390476Y-28278140D01*
X26390476Y-28278140D02*
X26466666Y-28201950D01*
X26466666Y-28201950D02*
X26542857Y-28163855D01*
X26542857Y-28163855D02*
X26695238Y-28163855D01*
X26695238Y-28163855D02*
X26771428Y-28201950D01*
X26771428Y-28201950D02*
X26847619Y-28278140D01*
X26847619Y-28278140D02*
X26885714Y-28430521D01*
X26885714Y-28430521D02*
X26885714Y-28697188D01*
X26885714Y-28697188D02*
X26847619Y-28849569D01*
X26847619Y-28849569D02*
X26771428Y-28925760D01*
X26771428Y-28925760D02*
X26695238Y-28963855D01*
X26695238Y-28963855D02*
X26542857Y-28963855D01*
X27647618Y-28963855D02*
X27190475Y-28963855D01*
X27419047Y-28963855D02*
X27419047Y-28163855D01*
X27419047Y-28163855D02*
X27342856Y-28278140D01*
X27342856Y-28278140D02*
X27266666Y-28354331D01*
X27266666Y-28354331D02*
X27190475Y-28392426D01*
X26530476Y-54163855D02*
X26987619Y-54163855D01*
X26759047Y-54963855D02*
X26759047Y-54163855D01*
X27254286Y-54963855D02*
X27254286Y-54163855D01*
X27254286Y-54163855D02*
X27559048Y-54163855D01*
X27559048Y-54163855D02*
X27635238Y-54201950D01*
X27635238Y-54201950D02*
X27673333Y-54240045D01*
X27673333Y-54240045D02*
X27711429Y-54316236D01*
X27711429Y-54316236D02*
X27711429Y-54430521D01*
X27711429Y-54430521D02*
X27673333Y-54506712D01*
X27673333Y-54506712D02*
X27635238Y-54544807D01*
X27635238Y-54544807D02*
X27559048Y-54582902D01*
X27559048Y-54582902D02*
X27254286Y-54582902D01*
X28016190Y-54240045D02*
X28054286Y-54201950D01*
X28054286Y-54201950D02*
X28130476Y-54163855D01*
X28130476Y-54163855D02*
X28320952Y-54163855D01*
X28320952Y-54163855D02*
X28397143Y-54201950D01*
X28397143Y-54201950D02*
X28435238Y-54240045D01*
X28435238Y-54240045D02*
X28473333Y-54316236D01*
X28473333Y-54316236D02*
X28473333Y-54392426D01*
X28473333Y-54392426D02*
X28435238Y-54506712D01*
X28435238Y-54506712D02*
X27978095Y-54963855D01*
X27978095Y-54963855D02*
X28473333Y-54963855D01*
X74685714Y-47483855D02*
X74685714Y-46683855D01*
X74685714Y-46683855D02*
X75142857Y-47483855D01*
X75142857Y-47483855D02*
X75142857Y-46683855D01*
X75409523Y-46683855D02*
X75866666Y-46683855D01*
X75638094Y-47483855D02*
X75638094Y-46683855D01*
X76095237Y-46760045D02*
X76133333Y-46721950D01*
X76133333Y-46721950D02*
X76209523Y-46683855D01*
X76209523Y-46683855D02*
X76399999Y-46683855D01*
X76399999Y-46683855D02*
X76476190Y-46721950D01*
X76476190Y-46721950D02*
X76514285Y-46760045D01*
X76514285Y-46760045D02*
X76552380Y-46836236D01*
X76552380Y-46836236D02*
X76552380Y-46912426D01*
X76552380Y-46912426D02*
X76514285Y-47026712D01*
X76514285Y-47026712D02*
X76057142Y-47483855D01*
X76057142Y-47483855D02*
X76552380Y-47483855D01*
X35566667Y-29963855D02*
X35300000Y-29582902D01*
X35109524Y-29963855D02*
X35109524Y-29163855D01*
X35109524Y-29163855D02*
X35414286Y-29163855D01*
X35414286Y-29163855D02*
X35490476Y-29201950D01*
X35490476Y-29201950D02*
X35528571Y-29240045D01*
X35528571Y-29240045D02*
X35566667Y-29316236D01*
X35566667Y-29316236D02*
X35566667Y-29430521D01*
X35566667Y-29430521D02*
X35528571Y-29506712D01*
X35528571Y-29506712D02*
X35490476Y-29544807D01*
X35490476Y-29544807D02*
X35414286Y-29582902D01*
X35414286Y-29582902D02*
X35109524Y-29582902D01*
X35871428Y-29925760D02*
X35985714Y-29963855D01*
X35985714Y-29963855D02*
X36176190Y-29963855D01*
X36176190Y-29963855D02*
X36252381Y-29925760D01*
X36252381Y-29925760D02*
X36290476Y-29887664D01*
X36290476Y-29887664D02*
X36328571Y-29811474D01*
X36328571Y-29811474D02*
X36328571Y-29735283D01*
X36328571Y-29735283D02*
X36290476Y-29659093D01*
X36290476Y-29659093D02*
X36252381Y-29620998D01*
X36252381Y-29620998D02*
X36176190Y-29582902D01*
X36176190Y-29582902D02*
X36023809Y-29544807D01*
X36023809Y-29544807D02*
X35947619Y-29506712D01*
X35947619Y-29506712D02*
X35909524Y-29468617D01*
X35909524Y-29468617D02*
X35871428Y-29392426D01*
X35871428Y-29392426D02*
X35871428Y-29316236D01*
X35871428Y-29316236D02*
X35909524Y-29240045D01*
X35909524Y-29240045D02*
X35947619Y-29201950D01*
X35947619Y-29201950D02*
X36023809Y-29163855D01*
X36023809Y-29163855D02*
X36214286Y-29163855D01*
X36214286Y-29163855D02*
X36328571Y-29201950D01*
X36671429Y-29963855D02*
X36671429Y-29163855D01*
X36671429Y-29544807D02*
X37128572Y-29544807D01*
X37128572Y-29963855D02*
X37128572Y-29163855D01*
X37928571Y-29963855D02*
X37471428Y-29963855D01*
X37700000Y-29963855D02*
X37700000Y-29163855D01*
X37700000Y-29163855D02*
X37623809Y-29278140D01*
X37623809Y-29278140D02*
X37547619Y-29354331D01*
X37547619Y-29354331D02*
X37471428Y-29392426D01*
X68485714Y-43887664D02*
X68447618Y-43925760D01*
X68447618Y-43925760D02*
X68333333Y-43963855D01*
X68333333Y-43963855D02*
X68257142Y-43963855D01*
X68257142Y-43963855D02*
X68142856Y-43925760D01*
X68142856Y-43925760D02*
X68066666Y-43849569D01*
X68066666Y-43849569D02*
X68028571Y-43773379D01*
X68028571Y-43773379D02*
X67990475Y-43620998D01*
X67990475Y-43620998D02*
X67990475Y-43506712D01*
X67990475Y-43506712D02*
X68028571Y-43354331D01*
X68028571Y-43354331D02*
X68066666Y-43278140D01*
X68066666Y-43278140D02*
X68142856Y-43201950D01*
X68142856Y-43201950D02*
X68257142Y-43163855D01*
X68257142Y-43163855D02*
X68333333Y-43163855D01*
X68333333Y-43163855D02*
X68447618Y-43201950D01*
X68447618Y-43201950D02*
X68485714Y-43240045D01*
X69247618Y-43963855D02*
X68790475Y-43963855D01*
X69019047Y-43963855D02*
X69019047Y-43163855D01*
X69019047Y-43163855D02*
X68942856Y-43278140D01*
X68942856Y-43278140D02*
X68866666Y-43354331D01*
X68866666Y-43354331D02*
X68790475Y-43392426D01*
X69704761Y-43506712D02*
X69628571Y-43468617D01*
X69628571Y-43468617D02*
X69590476Y-43430521D01*
X69590476Y-43430521D02*
X69552380Y-43354331D01*
X69552380Y-43354331D02*
X69552380Y-43316236D01*
X69552380Y-43316236D02*
X69590476Y-43240045D01*
X69590476Y-43240045D02*
X69628571Y-43201950D01*
X69628571Y-43201950D02*
X69704761Y-43163855D01*
X69704761Y-43163855D02*
X69857142Y-43163855D01*
X69857142Y-43163855D02*
X69933333Y-43201950D01*
X69933333Y-43201950D02*
X69971428Y-43240045D01*
X69971428Y-43240045D02*
X70009523Y-43316236D01*
X70009523Y-43316236D02*
X70009523Y-43354331D01*
X70009523Y-43354331D02*
X69971428Y-43430521D01*
X69971428Y-43430521D02*
X69933333Y-43468617D01*
X69933333Y-43468617D02*
X69857142Y-43506712D01*
X69857142Y-43506712D02*
X69704761Y-43506712D01*
X69704761Y-43506712D02*
X69628571Y-43544807D01*
X69628571Y-43544807D02*
X69590476Y-43582902D01*
X69590476Y-43582902D02*
X69552380Y-43659093D01*
X69552380Y-43659093D02*
X69552380Y-43811474D01*
X69552380Y-43811474D02*
X69590476Y-43887664D01*
X69590476Y-43887664D02*
X69628571Y-43925760D01*
X69628571Y-43925760D02*
X69704761Y-43963855D01*
X69704761Y-43963855D02*
X69857142Y-43963855D01*
X69857142Y-43963855D02*
X69933333Y-43925760D01*
X69933333Y-43925760D02*
X69971428Y-43887664D01*
X69971428Y-43887664D02*
X70009523Y-43811474D01*
X70009523Y-43811474D02*
X70009523Y-43659093D01*
X70009523Y-43659093D02*
X69971428Y-43582902D01*
X69971428Y-43582902D02*
X69933333Y-43544807D01*
X69933333Y-43544807D02*
X69857142Y-43506712D01*
X74085714Y-55463855D02*
X73819047Y-55082902D01*
X73628571Y-55463855D02*
X73628571Y-54663855D01*
X73628571Y-54663855D02*
X73933333Y-54663855D01*
X73933333Y-54663855D02*
X74009523Y-54701950D01*
X74009523Y-54701950D02*
X74047618Y-54740045D01*
X74047618Y-54740045D02*
X74085714Y-54816236D01*
X74085714Y-54816236D02*
X74085714Y-54930521D01*
X74085714Y-54930521D02*
X74047618Y-55006712D01*
X74047618Y-55006712D02*
X74009523Y-55044807D01*
X74009523Y-55044807D02*
X73933333Y-55082902D01*
X73933333Y-55082902D02*
X73628571Y-55082902D01*
X74847618Y-55463855D02*
X74390475Y-55463855D01*
X74619047Y-55463855D02*
X74619047Y-54663855D01*
X74619047Y-54663855D02*
X74542856Y-54778140D01*
X74542856Y-54778140D02*
X74466666Y-54854331D01*
X74466666Y-54854331D02*
X74390475Y-54892426D01*
X75114285Y-54663855D02*
X75609523Y-54663855D01*
X75609523Y-54663855D02*
X75342857Y-54968617D01*
X75342857Y-54968617D02*
X75457142Y-54968617D01*
X75457142Y-54968617D02*
X75533333Y-55006712D01*
X75533333Y-55006712D02*
X75571428Y-55044807D01*
X75571428Y-55044807D02*
X75609523Y-55120998D01*
X75609523Y-55120998D02*
X75609523Y-55311474D01*
X75609523Y-55311474D02*
X75571428Y-55387664D01*
X75571428Y-55387664D02*
X75533333Y-55425760D01*
X75533333Y-55425760D02*
X75457142Y-55463855D01*
X75457142Y-55463855D02*
X75228571Y-55463855D01*
X75228571Y-55463855D02*
X75152380Y-55425760D01*
X75152380Y-55425760D02*
X75114285Y-55387664D01*
X53163855Y-14609523D02*
X53811474Y-14609523D01*
X53811474Y-14609523D02*
X53887664Y-14571428D01*
X53887664Y-14571428D02*
X53925760Y-14533333D01*
X53925760Y-14533333D02*
X53963855Y-14457142D01*
X53963855Y-14457142D02*
X53963855Y-14304761D01*
X53963855Y-14304761D02*
X53925760Y-14228571D01*
X53925760Y-14228571D02*
X53887664Y-14190476D01*
X53887664Y-14190476D02*
X53811474Y-14152380D01*
X53811474Y-14152380D02*
X53163855Y-14152380D01*
X53163855Y-13847619D02*
X53163855Y-13352381D01*
X53163855Y-13352381D02*
X53468617Y-13619047D01*
X53468617Y-13619047D02*
X53468617Y-13504762D01*
X53468617Y-13504762D02*
X53506712Y-13428571D01*
X53506712Y-13428571D02*
X53544807Y-13390476D01*
X53544807Y-13390476D02*
X53620998Y-13352381D01*
X53620998Y-13352381D02*
X53811474Y-13352381D01*
X53811474Y-13352381D02*
X53887664Y-13390476D01*
X53887664Y-13390476D02*
X53925760Y-13428571D01*
X53925760Y-13428571D02*
X53963855Y-13504762D01*
X53963855Y-13504762D02*
X53963855Y-13733333D01*
X53963855Y-13733333D02*
X53925760Y-13809524D01*
X53925760Y-13809524D02*
X53887664Y-13847619D01*
X52866667Y-19963855D02*
X52600000Y-19582902D01*
X52409524Y-19963855D02*
X52409524Y-19163855D01*
X52409524Y-19163855D02*
X52714286Y-19163855D01*
X52714286Y-19163855D02*
X52790476Y-19201950D01*
X52790476Y-19201950D02*
X52828571Y-19240045D01*
X52828571Y-19240045D02*
X52866667Y-19316236D01*
X52866667Y-19316236D02*
X52866667Y-19430521D01*
X52866667Y-19430521D02*
X52828571Y-19506712D01*
X52828571Y-19506712D02*
X52790476Y-19544807D01*
X52790476Y-19544807D02*
X52714286Y-19582902D01*
X52714286Y-19582902D02*
X52409524Y-19582902D01*
X53552381Y-19430521D02*
X53552381Y-19963855D01*
X53361905Y-19125760D02*
X53171428Y-19697188D01*
X53171428Y-19697188D02*
X53666667Y-19697188D01*
X62366666Y-43763855D02*
X61985714Y-43763855D01*
X61985714Y-43763855D02*
X61985714Y-42963855D01*
X62595237Y-43040045D02*
X62633333Y-43001950D01*
X62633333Y-43001950D02*
X62709523Y-42963855D01*
X62709523Y-42963855D02*
X62899999Y-42963855D01*
X62899999Y-42963855D02*
X62976190Y-43001950D01*
X62976190Y-43001950D02*
X63014285Y-43040045D01*
X63014285Y-43040045D02*
X63052380Y-43116236D01*
X63052380Y-43116236D02*
X63052380Y-43192426D01*
X63052380Y-43192426D02*
X63014285Y-43306712D01*
X63014285Y-43306712D02*
X62557142Y-43763855D01*
X62557142Y-43763855D02*
X63052380Y-43763855D01*
X74085714Y-56963855D02*
X73819047Y-56582902D01*
X73628571Y-56963855D02*
X73628571Y-56163855D01*
X73628571Y-56163855D02*
X73933333Y-56163855D01*
X73933333Y-56163855D02*
X74009523Y-56201950D01*
X74009523Y-56201950D02*
X74047618Y-56240045D01*
X74047618Y-56240045D02*
X74085714Y-56316236D01*
X74085714Y-56316236D02*
X74085714Y-56430521D01*
X74085714Y-56430521D02*
X74047618Y-56506712D01*
X74047618Y-56506712D02*
X74009523Y-56544807D01*
X74009523Y-56544807D02*
X73933333Y-56582902D01*
X73933333Y-56582902D02*
X73628571Y-56582902D01*
X74847618Y-56963855D02*
X74390475Y-56963855D01*
X74619047Y-56963855D02*
X74619047Y-56163855D01*
X74619047Y-56163855D02*
X74542856Y-56278140D01*
X74542856Y-56278140D02*
X74466666Y-56354331D01*
X74466666Y-56354331D02*
X74390475Y-56392426D01*
X75533333Y-56430521D02*
X75533333Y-56963855D01*
X75342857Y-56125760D02*
X75152380Y-56697188D01*
X75152380Y-56697188D02*
X75647619Y-56697188D01*
X54866667Y-47963855D02*
X54600000Y-47582902D01*
X54409524Y-47963855D02*
X54409524Y-47163855D01*
X54409524Y-47163855D02*
X54714286Y-47163855D01*
X54714286Y-47163855D02*
X54790476Y-47201950D01*
X54790476Y-47201950D02*
X54828571Y-47240045D01*
X54828571Y-47240045D02*
X54866667Y-47316236D01*
X54866667Y-47316236D02*
X54866667Y-47430521D01*
X54866667Y-47430521D02*
X54828571Y-47506712D01*
X54828571Y-47506712D02*
X54790476Y-47544807D01*
X54790476Y-47544807D02*
X54714286Y-47582902D01*
X54714286Y-47582902D02*
X54409524Y-47582902D01*
X55247619Y-47963855D02*
X55400000Y-47963855D01*
X55400000Y-47963855D02*
X55476190Y-47925760D01*
X55476190Y-47925760D02*
X55514286Y-47887664D01*
X55514286Y-47887664D02*
X55590476Y-47773379D01*
X55590476Y-47773379D02*
X55628571Y-47620998D01*
X55628571Y-47620998D02*
X55628571Y-47316236D01*
X55628571Y-47316236D02*
X55590476Y-47240045D01*
X55590476Y-47240045D02*
X55552381Y-47201950D01*
X55552381Y-47201950D02*
X55476190Y-47163855D01*
X55476190Y-47163855D02*
X55323809Y-47163855D01*
X55323809Y-47163855D02*
X55247619Y-47201950D01*
X55247619Y-47201950D02*
X55209524Y-47240045D01*
X55209524Y-47240045D02*
X55171428Y-47316236D01*
X55171428Y-47316236D02*
X55171428Y-47506712D01*
X55171428Y-47506712D02*
X55209524Y-47582902D01*
X55209524Y-47582902D02*
X55247619Y-47620998D01*
X55247619Y-47620998D02*
X55323809Y-47659093D01*
X55323809Y-47659093D02*
X55476190Y-47659093D01*
X55476190Y-47659093D02*
X55552381Y-47620998D01*
X55552381Y-47620998D02*
X55590476Y-47582902D01*
X55590476Y-47582902D02*
X55628571Y-47506712D01*
X43390476Y-21163855D02*
X43390476Y-21811474D01*
X43390476Y-21811474D02*
X43428571Y-21887664D01*
X43428571Y-21887664D02*
X43466666Y-21925760D01*
X43466666Y-21925760D02*
X43542857Y-21963855D01*
X43542857Y-21963855D02*
X43695238Y-21963855D01*
X43695238Y-21963855D02*
X43771428Y-21925760D01*
X43771428Y-21925760D02*
X43809523Y-21887664D01*
X43809523Y-21887664D02*
X43847619Y-21811474D01*
X43847619Y-21811474D02*
X43847619Y-21163855D01*
X44190475Y-21240045D02*
X44228571Y-21201950D01*
X44228571Y-21201950D02*
X44304761Y-21163855D01*
X44304761Y-21163855D02*
X44495237Y-21163855D01*
X44495237Y-21163855D02*
X44571428Y-21201950D01*
X44571428Y-21201950D02*
X44609523Y-21240045D01*
X44609523Y-21240045D02*
X44647618Y-21316236D01*
X44647618Y-21316236D02*
X44647618Y-21392426D01*
X44647618Y-21392426D02*
X44609523Y-21506712D01*
X44609523Y-21506712D02*
X44152380Y-21963855D01*
X44152380Y-21963855D02*
X44647618Y-21963855D01*
X68866667Y-36887664D02*
X68828571Y-36925760D01*
X68828571Y-36925760D02*
X68714286Y-36963855D01*
X68714286Y-36963855D02*
X68638095Y-36963855D01*
X68638095Y-36963855D02*
X68523809Y-36925760D01*
X68523809Y-36925760D02*
X68447619Y-36849569D01*
X68447619Y-36849569D02*
X68409524Y-36773379D01*
X68409524Y-36773379D02*
X68371428Y-36620998D01*
X68371428Y-36620998D02*
X68371428Y-36506712D01*
X68371428Y-36506712D02*
X68409524Y-36354331D01*
X68409524Y-36354331D02*
X68447619Y-36278140D01*
X68447619Y-36278140D02*
X68523809Y-36201950D01*
X68523809Y-36201950D02*
X68638095Y-36163855D01*
X68638095Y-36163855D02*
X68714286Y-36163855D01*
X68714286Y-36163855D02*
X68828571Y-36201950D01*
X68828571Y-36201950D02*
X68866667Y-36240045D01*
X69590476Y-36163855D02*
X69209524Y-36163855D01*
X69209524Y-36163855D02*
X69171428Y-36544807D01*
X69171428Y-36544807D02*
X69209524Y-36506712D01*
X69209524Y-36506712D02*
X69285714Y-36468617D01*
X69285714Y-36468617D02*
X69476190Y-36468617D01*
X69476190Y-36468617D02*
X69552381Y-36506712D01*
X69552381Y-36506712D02*
X69590476Y-36544807D01*
X69590476Y-36544807D02*
X69628571Y-36620998D01*
X69628571Y-36620998D02*
X69628571Y-36811474D01*
X69628571Y-36811474D02*
X69590476Y-36887664D01*
X69590476Y-36887664D02*
X69552381Y-36925760D01*
X69552381Y-36925760D02*
X69476190Y-36963855D01*
X69476190Y-36963855D02*
X69285714Y-36963855D01*
X69285714Y-36963855D02*
X69209524Y-36925760D01*
X69209524Y-36925760D02*
X69171428Y-36887664D01*
X12733333Y-27544807D02*
X12466667Y-27544807D01*
X12466667Y-27963855D02*
X12466667Y-27163855D01*
X12466667Y-27163855D02*
X12847619Y-27163855D01*
X13571428Y-27963855D02*
X13114285Y-27963855D01*
X13342857Y-27963855D02*
X13342857Y-27163855D01*
X13342857Y-27163855D02*
X13266666Y-27278140D01*
X13266666Y-27278140D02*
X13190476Y-27354331D01*
X13190476Y-27354331D02*
X13114285Y-27392426D01*
X68866667Y-8887664D02*
X68828571Y-8925760D01*
X68828571Y-8925760D02*
X68714286Y-8963855D01*
X68714286Y-8963855D02*
X68638095Y-8963855D01*
X68638095Y-8963855D02*
X68523809Y-8925760D01*
X68523809Y-8925760D02*
X68447619Y-8849569D01*
X68447619Y-8849569D02*
X68409524Y-8773379D01*
X68409524Y-8773379D02*
X68371428Y-8620998D01*
X68371428Y-8620998D02*
X68371428Y-8506712D01*
X68371428Y-8506712D02*
X68409524Y-8354331D01*
X68409524Y-8354331D02*
X68447619Y-8278140D01*
X68447619Y-8278140D02*
X68523809Y-8201950D01*
X68523809Y-8201950D02*
X68638095Y-8163855D01*
X68638095Y-8163855D02*
X68714286Y-8163855D01*
X68714286Y-8163855D02*
X68828571Y-8201950D01*
X68828571Y-8201950D02*
X68866667Y-8240045D01*
X69133333Y-8163855D02*
X69628571Y-8163855D01*
X69628571Y-8163855D02*
X69361905Y-8468617D01*
X69361905Y-8468617D02*
X69476190Y-8468617D01*
X69476190Y-8468617D02*
X69552381Y-8506712D01*
X69552381Y-8506712D02*
X69590476Y-8544807D01*
X69590476Y-8544807D02*
X69628571Y-8620998D01*
X69628571Y-8620998D02*
X69628571Y-8811474D01*
X69628571Y-8811474D02*
X69590476Y-8887664D01*
X69590476Y-8887664D02*
X69552381Y-8925760D01*
X69552381Y-8925760D02*
X69476190Y-8963855D01*
X69476190Y-8963855D02*
X69247619Y-8963855D01*
X69247619Y-8963855D02*
X69171428Y-8925760D01*
X69171428Y-8925760D02*
X69133333Y-8887664D01*
X48366667Y-20887664D02*
X48328571Y-20925760D01*
X48328571Y-20925760D02*
X48214286Y-20963855D01*
X48214286Y-20963855D02*
X48138095Y-20963855D01*
X48138095Y-20963855D02*
X48023809Y-20925760D01*
X48023809Y-20925760D02*
X47947619Y-20849569D01*
X47947619Y-20849569D02*
X47909524Y-20773379D01*
X47909524Y-20773379D02*
X47871428Y-20620998D01*
X47871428Y-20620998D02*
X47871428Y-20506712D01*
X47871428Y-20506712D02*
X47909524Y-20354331D01*
X47909524Y-20354331D02*
X47947619Y-20278140D01*
X47947619Y-20278140D02*
X48023809Y-20201950D01*
X48023809Y-20201950D02*
X48138095Y-20163855D01*
X48138095Y-20163855D02*
X48214286Y-20163855D01*
X48214286Y-20163855D02*
X48328571Y-20201950D01*
X48328571Y-20201950D02*
X48366667Y-20240045D01*
X48671428Y-20240045D02*
X48709524Y-20201950D01*
X48709524Y-20201950D02*
X48785714Y-20163855D01*
X48785714Y-20163855D02*
X48976190Y-20163855D01*
X48976190Y-20163855D02*
X49052381Y-20201950D01*
X49052381Y-20201950D02*
X49090476Y-20240045D01*
X49090476Y-20240045D02*
X49128571Y-20316236D01*
X49128571Y-20316236D02*
X49128571Y-20392426D01*
X49128571Y-20392426D02*
X49090476Y-20506712D01*
X49090476Y-20506712D02*
X48633333Y-20963855D01*
X48633333Y-20963855D02*
X49128571Y-20963855D01*
X60485714Y-19463855D02*
X60219047Y-19082902D01*
X60028571Y-19463855D02*
X60028571Y-18663855D01*
X60028571Y-18663855D02*
X60333333Y-18663855D01*
X60333333Y-18663855D02*
X60409523Y-18701950D01*
X60409523Y-18701950D02*
X60447618Y-18740045D01*
X60447618Y-18740045D02*
X60485714Y-18816236D01*
X60485714Y-18816236D02*
X60485714Y-18930521D01*
X60485714Y-18930521D02*
X60447618Y-19006712D01*
X60447618Y-19006712D02*
X60409523Y-19044807D01*
X60409523Y-19044807D02*
X60333333Y-19082902D01*
X60333333Y-19082902D02*
X60028571Y-19082902D01*
X61247618Y-19463855D02*
X60790475Y-19463855D01*
X61019047Y-19463855D02*
X61019047Y-18663855D01*
X61019047Y-18663855D02*
X60942856Y-18778140D01*
X60942856Y-18778140D02*
X60866666Y-18854331D01*
X60866666Y-18854331D02*
X60790475Y-18892426D01*
X61971428Y-18663855D02*
X61590476Y-18663855D01*
X61590476Y-18663855D02*
X61552380Y-19044807D01*
X61552380Y-19044807D02*
X61590476Y-19006712D01*
X61590476Y-19006712D02*
X61666666Y-18968617D01*
X61666666Y-18968617D02*
X61857142Y-18968617D01*
X61857142Y-18968617D02*
X61933333Y-19006712D01*
X61933333Y-19006712D02*
X61971428Y-19044807D01*
X61971428Y-19044807D02*
X62009523Y-19120998D01*
X62009523Y-19120998D02*
X62009523Y-19311474D01*
X62009523Y-19311474D02*
X61971428Y-19387664D01*
X61971428Y-19387664D02*
X61933333Y-19425760D01*
X61933333Y-19425760D02*
X61857142Y-19463855D01*
X61857142Y-19463855D02*
X61666666Y-19463855D01*
X61666666Y-19463855D02*
X61590476Y-19425760D01*
X61590476Y-19425760D02*
X61552380Y-19387664D01*
X14863855Y-33190475D02*
X14063855Y-33190475D01*
X14063855Y-33190475D02*
X14063855Y-32999999D01*
X14063855Y-32999999D02*
X14101950Y-32885713D01*
X14101950Y-32885713D02*
X14178140Y-32809523D01*
X14178140Y-32809523D02*
X14254331Y-32771428D01*
X14254331Y-32771428D02*
X14406712Y-32733332D01*
X14406712Y-32733332D02*
X14520998Y-32733332D01*
X14520998Y-32733332D02*
X14673379Y-32771428D01*
X14673379Y-32771428D02*
X14749569Y-32809523D01*
X14749569Y-32809523D02*
X14825760Y-32885713D01*
X14825760Y-32885713D02*
X14863855Y-32999999D01*
X14863855Y-32999999D02*
X14863855Y-33190475D01*
X14863855Y-31971428D02*
X14863855Y-32428571D01*
X14863855Y-32199999D02*
X14063855Y-32199999D01*
X14063855Y-32199999D02*
X14178140Y-32276190D01*
X14178140Y-32276190D02*
X14254331Y-32352380D01*
X14254331Y-32352380D02*
X14292426Y-32428571D01*
X73485714Y-41137664D02*
X73447618Y-41175760D01*
X73447618Y-41175760D02*
X73333333Y-41213855D01*
X73333333Y-41213855D02*
X73257142Y-41213855D01*
X73257142Y-41213855D02*
X73142856Y-41175760D01*
X73142856Y-41175760D02*
X73066666Y-41099569D01*
X73066666Y-41099569D02*
X73028571Y-41023379D01*
X73028571Y-41023379D02*
X72990475Y-40870998D01*
X72990475Y-40870998D02*
X72990475Y-40756712D01*
X72990475Y-40756712D02*
X73028571Y-40604331D01*
X73028571Y-40604331D02*
X73066666Y-40528140D01*
X73066666Y-40528140D02*
X73142856Y-40451950D01*
X73142856Y-40451950D02*
X73257142Y-40413855D01*
X73257142Y-40413855D02*
X73333333Y-40413855D01*
X73333333Y-40413855D02*
X73447618Y-40451950D01*
X73447618Y-40451950D02*
X73485714Y-40490045D01*
X74247618Y-41213855D02*
X73790475Y-41213855D01*
X74019047Y-41213855D02*
X74019047Y-40413855D01*
X74019047Y-40413855D02*
X73942856Y-40528140D01*
X73942856Y-40528140D02*
X73866666Y-40604331D01*
X73866666Y-40604331D02*
X73790475Y-40642426D01*
X74628571Y-41213855D02*
X74780952Y-41213855D01*
X74780952Y-41213855D02*
X74857142Y-41175760D01*
X74857142Y-41175760D02*
X74895238Y-41137664D01*
X74895238Y-41137664D02*
X74971428Y-41023379D01*
X74971428Y-41023379D02*
X75009523Y-40870998D01*
X75009523Y-40870998D02*
X75009523Y-40566236D01*
X75009523Y-40566236D02*
X74971428Y-40490045D01*
X74971428Y-40490045D02*
X74933333Y-40451950D01*
X74933333Y-40451950D02*
X74857142Y-40413855D01*
X74857142Y-40413855D02*
X74704761Y-40413855D01*
X74704761Y-40413855D02*
X74628571Y-40451950D01*
X74628571Y-40451950D02*
X74590476Y-40490045D01*
X74590476Y-40490045D02*
X74552380Y-40566236D01*
X74552380Y-40566236D02*
X74552380Y-40756712D01*
X74552380Y-40756712D02*
X74590476Y-40832902D01*
X74590476Y-40832902D02*
X74628571Y-40870998D01*
X74628571Y-40870998D02*
X74704761Y-40909093D01*
X74704761Y-40909093D02*
X74857142Y-40909093D01*
X74857142Y-40909093D02*
X74933333Y-40870998D01*
X74933333Y-40870998D02*
X74971428Y-40832902D01*
X74971428Y-40832902D02*
X75009523Y-40756712D01*
X48485714Y-12887664D02*
X48447618Y-12925760D01*
X48447618Y-12925760D02*
X48333333Y-12963855D01*
X48333333Y-12963855D02*
X48257142Y-12963855D01*
X48257142Y-12963855D02*
X48142856Y-12925760D01*
X48142856Y-12925760D02*
X48066666Y-12849569D01*
X48066666Y-12849569D02*
X48028571Y-12773379D01*
X48028571Y-12773379D02*
X47990475Y-12620998D01*
X47990475Y-12620998D02*
X47990475Y-12506712D01*
X47990475Y-12506712D02*
X48028571Y-12354331D01*
X48028571Y-12354331D02*
X48066666Y-12278140D01*
X48066666Y-12278140D02*
X48142856Y-12201950D01*
X48142856Y-12201950D02*
X48257142Y-12163855D01*
X48257142Y-12163855D02*
X48333333Y-12163855D01*
X48333333Y-12163855D02*
X48447618Y-12201950D01*
X48447618Y-12201950D02*
X48485714Y-12240045D01*
X49247618Y-12963855D02*
X48790475Y-12963855D01*
X49019047Y-12963855D02*
X49019047Y-12163855D01*
X49019047Y-12163855D02*
X48942856Y-12278140D01*
X48942856Y-12278140D02*
X48866666Y-12354331D01*
X48866666Y-12354331D02*
X48790475Y-12392426D01*
X50009523Y-12963855D02*
X49552380Y-12963855D01*
X49780952Y-12963855D02*
X49780952Y-12163855D01*
X49780952Y-12163855D02*
X49704761Y-12278140D01*
X49704761Y-12278140D02*
X49628571Y-12354331D01*
X49628571Y-12354331D02*
X49552380Y-12392426D01*
X23990476Y-54163855D02*
X24447619Y-54163855D01*
X24219047Y-54963855D02*
X24219047Y-54163855D01*
X24714286Y-54963855D02*
X24714286Y-54163855D01*
X24714286Y-54163855D02*
X25019048Y-54163855D01*
X25019048Y-54163855D02*
X25095238Y-54201950D01*
X25095238Y-54201950D02*
X25133333Y-54240045D01*
X25133333Y-54240045D02*
X25171429Y-54316236D01*
X25171429Y-54316236D02*
X25171429Y-54430521D01*
X25171429Y-54430521D02*
X25133333Y-54506712D01*
X25133333Y-54506712D02*
X25095238Y-54544807D01*
X25095238Y-54544807D02*
X25019048Y-54582902D01*
X25019048Y-54582902D02*
X24714286Y-54582902D01*
X25933333Y-54963855D02*
X25476190Y-54963855D01*
X25704762Y-54963855D02*
X25704762Y-54163855D01*
X25704762Y-54163855D02*
X25628571Y-54278140D01*
X25628571Y-54278140D02*
X25552381Y-54354331D01*
X25552381Y-54354331D02*
X25476190Y-54392426D01*
X55866667Y-17963855D02*
X55600000Y-17582902D01*
X55409524Y-17963855D02*
X55409524Y-17163855D01*
X55409524Y-17163855D02*
X55714286Y-17163855D01*
X55714286Y-17163855D02*
X55790476Y-17201950D01*
X55790476Y-17201950D02*
X55828571Y-17240045D01*
X55828571Y-17240045D02*
X55866667Y-17316236D01*
X55866667Y-17316236D02*
X55866667Y-17430521D01*
X55866667Y-17430521D02*
X55828571Y-17506712D01*
X55828571Y-17506712D02*
X55790476Y-17544807D01*
X55790476Y-17544807D02*
X55714286Y-17582902D01*
X55714286Y-17582902D02*
X55409524Y-17582902D01*
X56628571Y-17963855D02*
X56171428Y-17963855D01*
X56400000Y-17963855D02*
X56400000Y-17163855D01*
X56400000Y-17163855D02*
X56323809Y-17278140D01*
X56323809Y-17278140D02*
X56247619Y-17354331D01*
X56247619Y-17354331D02*
X56171428Y-17392426D01*
X46469523Y-54163855D02*
X46926666Y-54163855D01*
X46698094Y-54963855D02*
X46698094Y-54163855D01*
X47193333Y-54963855D02*
X47193333Y-54163855D01*
X47193333Y-54163855D02*
X47498095Y-54163855D01*
X47498095Y-54163855D02*
X47574285Y-54201950D01*
X47574285Y-54201950D02*
X47612380Y-54240045D01*
X47612380Y-54240045D02*
X47650476Y-54316236D01*
X47650476Y-54316236D02*
X47650476Y-54430521D01*
X47650476Y-54430521D02*
X47612380Y-54506712D01*
X47612380Y-54506712D02*
X47574285Y-54544807D01*
X47574285Y-54544807D02*
X47498095Y-54582902D01*
X47498095Y-54582902D02*
X47193333Y-54582902D01*
X48412380Y-54963855D02*
X47955237Y-54963855D01*
X48183809Y-54963855D02*
X48183809Y-54163855D01*
X48183809Y-54163855D02*
X48107618Y-54278140D01*
X48107618Y-54278140D02*
X48031428Y-54354331D01*
X48031428Y-54354331D02*
X47955237Y-54392426D01*
X48907619Y-54163855D02*
X48983809Y-54163855D01*
X48983809Y-54163855D02*
X49060000Y-54201950D01*
X49060000Y-54201950D02*
X49098095Y-54240045D01*
X49098095Y-54240045D02*
X49136190Y-54316236D01*
X49136190Y-54316236D02*
X49174285Y-54468617D01*
X49174285Y-54468617D02*
X49174285Y-54659093D01*
X49174285Y-54659093D02*
X49136190Y-54811474D01*
X49136190Y-54811474D02*
X49098095Y-54887664D01*
X49098095Y-54887664D02*
X49060000Y-54925760D01*
X49060000Y-54925760D02*
X48983809Y-54963855D01*
X48983809Y-54963855D02*
X48907619Y-54963855D01*
X48907619Y-54963855D02*
X48831428Y-54925760D01*
X48831428Y-54925760D02*
X48793333Y-54887664D01*
X48793333Y-54887664D02*
X48755238Y-54811474D01*
X48755238Y-54811474D02*
X48717142Y-54659093D01*
X48717142Y-54659093D02*
X48717142Y-54468617D01*
X48717142Y-54468617D02*
X48755238Y-54316236D01*
X48755238Y-54316236D02*
X48793333Y-54240045D01*
X48793333Y-54240045D02*
X48831428Y-54201950D01*
X48831428Y-54201950D02*
X48907619Y-54163855D01*
X52366667Y-47963855D02*
X52100000Y-47582902D01*
X51909524Y-47963855D02*
X51909524Y-47163855D01*
X51909524Y-47163855D02*
X52214286Y-47163855D01*
X52214286Y-47163855D02*
X52290476Y-47201950D01*
X52290476Y-47201950D02*
X52328571Y-47240045D01*
X52328571Y-47240045D02*
X52366667Y-47316236D01*
X52366667Y-47316236D02*
X52366667Y-47430521D01*
X52366667Y-47430521D02*
X52328571Y-47506712D01*
X52328571Y-47506712D02*
X52290476Y-47544807D01*
X52290476Y-47544807D02*
X52214286Y-47582902D01*
X52214286Y-47582902D02*
X51909524Y-47582902D01*
X52823809Y-47506712D02*
X52747619Y-47468617D01*
X52747619Y-47468617D02*
X52709524Y-47430521D01*
X52709524Y-47430521D02*
X52671428Y-47354331D01*
X52671428Y-47354331D02*
X52671428Y-47316236D01*
X52671428Y-47316236D02*
X52709524Y-47240045D01*
X52709524Y-47240045D02*
X52747619Y-47201950D01*
X52747619Y-47201950D02*
X52823809Y-47163855D01*
X52823809Y-47163855D02*
X52976190Y-47163855D01*
X52976190Y-47163855D02*
X53052381Y-47201950D01*
X53052381Y-47201950D02*
X53090476Y-47240045D01*
X53090476Y-47240045D02*
X53128571Y-47316236D01*
X53128571Y-47316236D02*
X53128571Y-47354331D01*
X53128571Y-47354331D02*
X53090476Y-47430521D01*
X53090476Y-47430521D02*
X53052381Y-47468617D01*
X53052381Y-47468617D02*
X52976190Y-47506712D01*
X52976190Y-47506712D02*
X52823809Y-47506712D01*
X52823809Y-47506712D02*
X52747619Y-47544807D01*
X52747619Y-47544807D02*
X52709524Y-47582902D01*
X52709524Y-47582902D02*
X52671428Y-47659093D01*
X52671428Y-47659093D02*
X52671428Y-47811474D01*
X52671428Y-47811474D02*
X52709524Y-47887664D01*
X52709524Y-47887664D02*
X52747619Y-47925760D01*
X52747619Y-47925760D02*
X52823809Y-47963855D01*
X52823809Y-47963855D02*
X52976190Y-47963855D01*
X52976190Y-47963855D02*
X53052381Y-47925760D01*
X53052381Y-47925760D02*
X53090476Y-47887664D01*
X53090476Y-47887664D02*
X53128571Y-47811474D01*
X53128571Y-47811474D02*
X53128571Y-47659093D01*
X53128571Y-47659093D02*
X53090476Y-47582902D01*
X53090476Y-47582902D02*
X53052381Y-47544807D01*
X53052381Y-47544807D02*
X52976190Y-47506712D01*
X15866667Y-25637664D02*
X15828571Y-25675760D01*
X15828571Y-25675760D02*
X15714286Y-25713855D01*
X15714286Y-25713855D02*
X15638095Y-25713855D01*
X15638095Y-25713855D02*
X15523809Y-25675760D01*
X15523809Y-25675760D02*
X15447619Y-25599569D01*
X15447619Y-25599569D02*
X15409524Y-25523379D01*
X15409524Y-25523379D02*
X15371428Y-25370998D01*
X15371428Y-25370998D02*
X15371428Y-25256712D01*
X15371428Y-25256712D02*
X15409524Y-25104331D01*
X15409524Y-25104331D02*
X15447619Y-25028140D01*
X15447619Y-25028140D02*
X15523809Y-24951950D01*
X15523809Y-24951950D02*
X15638095Y-24913855D01*
X15638095Y-24913855D02*
X15714286Y-24913855D01*
X15714286Y-24913855D02*
X15828571Y-24951950D01*
X15828571Y-24951950D02*
X15866667Y-24990045D01*
X16247619Y-25713855D02*
X16400000Y-25713855D01*
X16400000Y-25713855D02*
X16476190Y-25675760D01*
X16476190Y-25675760D02*
X16514286Y-25637664D01*
X16514286Y-25637664D02*
X16590476Y-25523379D01*
X16590476Y-25523379D02*
X16628571Y-25370998D01*
X16628571Y-25370998D02*
X16628571Y-25066236D01*
X16628571Y-25066236D02*
X16590476Y-24990045D01*
X16590476Y-24990045D02*
X16552381Y-24951950D01*
X16552381Y-24951950D02*
X16476190Y-24913855D01*
X16476190Y-24913855D02*
X16323809Y-24913855D01*
X16323809Y-24913855D02*
X16247619Y-24951950D01*
X16247619Y-24951950D02*
X16209524Y-24990045D01*
X16209524Y-24990045D02*
X16171428Y-25066236D01*
X16171428Y-25066236D02*
X16171428Y-25256712D01*
X16171428Y-25256712D02*
X16209524Y-25332902D01*
X16209524Y-25332902D02*
X16247619Y-25370998D01*
X16247619Y-25370998D02*
X16323809Y-25409093D01*
X16323809Y-25409093D02*
X16476190Y-25409093D01*
X16476190Y-25409093D02*
X16552381Y-25370998D01*
X16552381Y-25370998D02*
X16590476Y-25332902D01*
X16590476Y-25332902D02*
X16628571Y-25256712D01*
X68485714Y-15887664D02*
X68447618Y-15925760D01*
X68447618Y-15925760D02*
X68333333Y-15963855D01*
X68333333Y-15963855D02*
X68257142Y-15963855D01*
X68257142Y-15963855D02*
X68142856Y-15925760D01*
X68142856Y-15925760D02*
X68066666Y-15849569D01*
X68066666Y-15849569D02*
X68028571Y-15773379D01*
X68028571Y-15773379D02*
X67990475Y-15620998D01*
X67990475Y-15620998D02*
X67990475Y-15506712D01*
X67990475Y-15506712D02*
X68028571Y-15354331D01*
X68028571Y-15354331D02*
X68066666Y-15278140D01*
X68066666Y-15278140D02*
X68142856Y-15201950D01*
X68142856Y-15201950D02*
X68257142Y-15163855D01*
X68257142Y-15163855D02*
X68333333Y-15163855D01*
X68333333Y-15163855D02*
X68447618Y-15201950D01*
X68447618Y-15201950D02*
X68485714Y-15240045D01*
X69247618Y-15963855D02*
X68790475Y-15963855D01*
X69019047Y-15963855D02*
X69019047Y-15163855D01*
X69019047Y-15163855D02*
X68942856Y-15278140D01*
X68942856Y-15278140D02*
X68866666Y-15354331D01*
X68866666Y-15354331D02*
X68790475Y-15392426D01*
X69971428Y-15163855D02*
X69590476Y-15163855D01*
X69590476Y-15163855D02*
X69552380Y-15544807D01*
X69552380Y-15544807D02*
X69590476Y-15506712D01*
X69590476Y-15506712D02*
X69666666Y-15468617D01*
X69666666Y-15468617D02*
X69857142Y-15468617D01*
X69857142Y-15468617D02*
X69933333Y-15506712D01*
X69933333Y-15506712D02*
X69971428Y-15544807D01*
X69971428Y-15544807D02*
X70009523Y-15620998D01*
X70009523Y-15620998D02*
X70009523Y-15811474D01*
X70009523Y-15811474D02*
X69971428Y-15887664D01*
X69971428Y-15887664D02*
X69933333Y-15925760D01*
X69933333Y-15925760D02*
X69857142Y-15963855D01*
X69857142Y-15963855D02*
X69666666Y-15963855D01*
X69666666Y-15963855D02*
X69590476Y-15925760D01*
X69590476Y-15925760D02*
X69552380Y-15887664D01*
X29070476Y-54163855D02*
X29527619Y-54163855D01*
X29299047Y-54963855D02*
X29299047Y-54163855D01*
X29794286Y-54963855D02*
X29794286Y-54163855D01*
X29794286Y-54163855D02*
X30099048Y-54163855D01*
X30099048Y-54163855D02*
X30175238Y-54201950D01*
X30175238Y-54201950D02*
X30213333Y-54240045D01*
X30213333Y-54240045D02*
X30251429Y-54316236D01*
X30251429Y-54316236D02*
X30251429Y-54430521D01*
X30251429Y-54430521D02*
X30213333Y-54506712D01*
X30213333Y-54506712D02*
X30175238Y-54544807D01*
X30175238Y-54544807D02*
X30099048Y-54582902D01*
X30099048Y-54582902D02*
X29794286Y-54582902D01*
X30518095Y-54163855D02*
X31013333Y-54163855D01*
X31013333Y-54163855D02*
X30746667Y-54468617D01*
X30746667Y-54468617D02*
X30860952Y-54468617D01*
X30860952Y-54468617D02*
X30937143Y-54506712D01*
X30937143Y-54506712D02*
X30975238Y-54544807D01*
X30975238Y-54544807D02*
X31013333Y-54620998D01*
X31013333Y-54620998D02*
X31013333Y-54811474D01*
X31013333Y-54811474D02*
X30975238Y-54887664D01*
X30975238Y-54887664D02*
X30937143Y-54925760D01*
X30937143Y-54925760D02*
X30860952Y-54963855D01*
X30860952Y-54963855D02*
X30632381Y-54963855D01*
X30632381Y-54963855D02*
X30556190Y-54925760D01*
X30556190Y-54925760D02*
X30518095Y-54887664D01*
X80643855Y-38866666D02*
X81215283Y-38866666D01*
X81215283Y-38866666D02*
X81329569Y-38904761D01*
X81329569Y-38904761D02*
X81405760Y-38980952D01*
X81405760Y-38980952D02*
X81443855Y-39095237D01*
X81443855Y-39095237D02*
X81443855Y-39171428D01*
X80720045Y-38523809D02*
X80681950Y-38485713D01*
X80681950Y-38485713D02*
X80643855Y-38409523D01*
X80643855Y-38409523D02*
X80643855Y-38219047D01*
X80643855Y-38219047D02*
X80681950Y-38142856D01*
X80681950Y-38142856D02*
X80720045Y-38104761D01*
X80720045Y-38104761D02*
X80796236Y-38066666D01*
X80796236Y-38066666D02*
X80872426Y-38066666D01*
X80872426Y-38066666D02*
X80986712Y-38104761D01*
X80986712Y-38104761D02*
X81443855Y-38561904D01*
X81443855Y-38561904D02*
X81443855Y-38066666D01*
X53163855Y-42609523D02*
X53811474Y-42609523D01*
X53811474Y-42609523D02*
X53887664Y-42571428D01*
X53887664Y-42571428D02*
X53925760Y-42533333D01*
X53925760Y-42533333D02*
X53963855Y-42457142D01*
X53963855Y-42457142D02*
X53963855Y-42304761D01*
X53963855Y-42304761D02*
X53925760Y-42228571D01*
X53925760Y-42228571D02*
X53887664Y-42190476D01*
X53887664Y-42190476D02*
X53811474Y-42152380D01*
X53811474Y-42152380D02*
X53163855Y-42152380D01*
X53430521Y-41428571D02*
X53963855Y-41428571D01*
X53125760Y-41619047D02*
X53697188Y-41809524D01*
X53697188Y-41809524D02*
X53697188Y-41314285D01*
X55366667Y-19963855D02*
X55100000Y-19582902D01*
X54909524Y-19963855D02*
X54909524Y-19163855D01*
X54909524Y-19163855D02*
X55214286Y-19163855D01*
X55214286Y-19163855D02*
X55290476Y-19201950D01*
X55290476Y-19201950D02*
X55328571Y-19240045D01*
X55328571Y-19240045D02*
X55366667Y-19316236D01*
X55366667Y-19316236D02*
X55366667Y-19430521D01*
X55366667Y-19430521D02*
X55328571Y-19506712D01*
X55328571Y-19506712D02*
X55290476Y-19544807D01*
X55290476Y-19544807D02*
X55214286Y-19582902D01*
X55214286Y-19582902D02*
X54909524Y-19582902D01*
X56090476Y-19163855D02*
X55709524Y-19163855D01*
X55709524Y-19163855D02*
X55671428Y-19544807D01*
X55671428Y-19544807D02*
X55709524Y-19506712D01*
X55709524Y-19506712D02*
X55785714Y-19468617D01*
X55785714Y-19468617D02*
X55976190Y-19468617D01*
X55976190Y-19468617D02*
X56052381Y-19506712D01*
X56052381Y-19506712D02*
X56090476Y-19544807D01*
X56090476Y-19544807D02*
X56128571Y-19620998D01*
X56128571Y-19620998D02*
X56128571Y-19811474D01*
X56128571Y-19811474D02*
X56090476Y-19887664D01*
X56090476Y-19887664D02*
X56052381Y-19925760D01*
X56052381Y-19925760D02*
X55976190Y-19963855D01*
X55976190Y-19963855D02*
X55785714Y-19963855D01*
X55785714Y-19963855D02*
X55709524Y-19925760D01*
X55709524Y-19925760D02*
X55671428Y-19887664D01*
X74685714Y-50963855D02*
X74685714Y-50163855D01*
X74685714Y-50163855D02*
X75142857Y-50963855D01*
X75142857Y-50963855D02*
X75142857Y-50163855D01*
X75409523Y-50163855D02*
X75866666Y-50163855D01*
X75638094Y-50963855D02*
X75638094Y-50163855D01*
X76057142Y-50163855D02*
X76552380Y-50163855D01*
X76552380Y-50163855D02*
X76285714Y-50468617D01*
X76285714Y-50468617D02*
X76399999Y-50468617D01*
X76399999Y-50468617D02*
X76476190Y-50506712D01*
X76476190Y-50506712D02*
X76514285Y-50544807D01*
X76514285Y-50544807D02*
X76552380Y-50620998D01*
X76552380Y-50620998D02*
X76552380Y-50811474D01*
X76552380Y-50811474D02*
X76514285Y-50887664D01*
X76514285Y-50887664D02*
X76476190Y-50925760D01*
X76476190Y-50925760D02*
X76399999Y-50963855D01*
X76399999Y-50963855D02*
X76171428Y-50963855D01*
X76171428Y-50963855D02*
X76095237Y-50925760D01*
X76095237Y-50925760D02*
X76057142Y-50887664D01*
X74766667Y-52887664D02*
X74728571Y-52925760D01*
X74728571Y-52925760D02*
X74614286Y-52963855D01*
X74614286Y-52963855D02*
X74538095Y-52963855D01*
X74538095Y-52963855D02*
X74423809Y-52925760D01*
X74423809Y-52925760D02*
X74347619Y-52849569D01*
X74347619Y-52849569D02*
X74309524Y-52773379D01*
X74309524Y-52773379D02*
X74271428Y-52620998D01*
X74271428Y-52620998D02*
X74271428Y-52506712D01*
X74271428Y-52506712D02*
X74309524Y-52354331D01*
X74309524Y-52354331D02*
X74347619Y-52278140D01*
X74347619Y-52278140D02*
X74423809Y-52201950D01*
X74423809Y-52201950D02*
X74538095Y-52163855D01*
X74538095Y-52163855D02*
X74614286Y-52163855D01*
X74614286Y-52163855D02*
X74728571Y-52201950D01*
X74728571Y-52201950D02*
X74766667Y-52240045D01*
X75223809Y-52506712D02*
X75147619Y-52468617D01*
X75147619Y-52468617D02*
X75109524Y-52430521D01*
X75109524Y-52430521D02*
X75071428Y-52354331D01*
X75071428Y-52354331D02*
X75071428Y-52316236D01*
X75071428Y-52316236D02*
X75109524Y-52240045D01*
X75109524Y-52240045D02*
X75147619Y-52201950D01*
X75147619Y-52201950D02*
X75223809Y-52163855D01*
X75223809Y-52163855D02*
X75376190Y-52163855D01*
X75376190Y-52163855D02*
X75452381Y-52201950D01*
X75452381Y-52201950D02*
X75490476Y-52240045D01*
X75490476Y-52240045D02*
X75528571Y-52316236D01*
X75528571Y-52316236D02*
X75528571Y-52354331D01*
X75528571Y-52354331D02*
X75490476Y-52430521D01*
X75490476Y-52430521D02*
X75452381Y-52468617D01*
X75452381Y-52468617D02*
X75376190Y-52506712D01*
X75376190Y-52506712D02*
X75223809Y-52506712D01*
X75223809Y-52506712D02*
X75147619Y-52544807D01*
X75147619Y-52544807D02*
X75109524Y-52582902D01*
X75109524Y-52582902D02*
X75071428Y-52659093D01*
X75071428Y-52659093D02*
X75071428Y-52811474D01*
X75071428Y-52811474D02*
X75109524Y-52887664D01*
X75109524Y-52887664D02*
X75147619Y-52925760D01*
X75147619Y-52925760D02*
X75223809Y-52963855D01*
X75223809Y-52963855D02*
X75376190Y-52963855D01*
X75376190Y-52963855D02*
X75452381Y-52925760D01*
X75452381Y-52925760D02*
X75490476Y-52887664D01*
X75490476Y-52887664D02*
X75528571Y-52811474D01*
X75528571Y-52811474D02*
X75528571Y-52659093D01*
X75528571Y-52659093D02*
X75490476Y-52582902D01*
X75490476Y-52582902D02*
X75452381Y-52544807D01*
X75452381Y-52544807D02*
X75376190Y-52506712D01*
X67985714Y-47963855D02*
X67719047Y-47582902D01*
X67528571Y-47963855D02*
X67528571Y-47163855D01*
X67528571Y-47163855D02*
X67833333Y-47163855D01*
X67833333Y-47163855D02*
X67909523Y-47201950D01*
X67909523Y-47201950D02*
X67947618Y-47240045D01*
X67947618Y-47240045D02*
X67985714Y-47316236D01*
X67985714Y-47316236D02*
X67985714Y-47430521D01*
X67985714Y-47430521D02*
X67947618Y-47506712D01*
X67947618Y-47506712D02*
X67909523Y-47544807D01*
X67909523Y-47544807D02*
X67833333Y-47582902D01*
X67833333Y-47582902D02*
X67528571Y-47582902D01*
X68747618Y-47963855D02*
X68290475Y-47963855D01*
X68519047Y-47963855D02*
X68519047Y-47163855D01*
X68519047Y-47163855D02*
X68442856Y-47278140D01*
X68442856Y-47278140D02*
X68366666Y-47354331D01*
X68366666Y-47354331D02*
X68290475Y-47392426D01*
X69052380Y-47240045D02*
X69090476Y-47201950D01*
X69090476Y-47201950D02*
X69166666Y-47163855D01*
X69166666Y-47163855D02*
X69357142Y-47163855D01*
X69357142Y-47163855D02*
X69433333Y-47201950D01*
X69433333Y-47201950D02*
X69471428Y-47240045D01*
X69471428Y-47240045D02*
X69509523Y-47316236D01*
X69509523Y-47316236D02*
X69509523Y-47392426D01*
X69509523Y-47392426D02*
X69471428Y-47506712D01*
X69471428Y-47506712D02*
X69014285Y-47963855D01*
X69014285Y-47963855D02*
X69509523Y-47963855D01*
X62366666Y-15763855D02*
X61985714Y-15763855D01*
X61985714Y-15763855D02*
X61985714Y-14963855D01*
X63052380Y-15763855D02*
X62595237Y-15763855D01*
X62823809Y-15763855D02*
X62823809Y-14963855D01*
X62823809Y-14963855D02*
X62747618Y-15078140D01*
X62747618Y-15078140D02*
X62671428Y-15154331D01*
X62671428Y-15154331D02*
X62595237Y-15192426D01*
X73485714Y-8887664D02*
X73447618Y-8925760D01*
X73447618Y-8925760D02*
X73333333Y-8963855D01*
X73333333Y-8963855D02*
X73257142Y-8963855D01*
X73257142Y-8963855D02*
X73142856Y-8925760D01*
X73142856Y-8925760D02*
X73066666Y-8849569D01*
X73066666Y-8849569D02*
X73028571Y-8773379D01*
X73028571Y-8773379D02*
X72990475Y-8620998D01*
X72990475Y-8620998D02*
X72990475Y-8506712D01*
X72990475Y-8506712D02*
X73028571Y-8354331D01*
X73028571Y-8354331D02*
X73066666Y-8278140D01*
X73066666Y-8278140D02*
X73142856Y-8201950D01*
X73142856Y-8201950D02*
X73257142Y-8163855D01*
X73257142Y-8163855D02*
X73333333Y-8163855D01*
X73333333Y-8163855D02*
X73447618Y-8201950D01*
X73447618Y-8201950D02*
X73485714Y-8240045D01*
X74247618Y-8963855D02*
X73790475Y-8963855D01*
X74019047Y-8963855D02*
X74019047Y-8163855D01*
X74019047Y-8163855D02*
X73942856Y-8278140D01*
X73942856Y-8278140D02*
X73866666Y-8354331D01*
X73866666Y-8354331D02*
X73790475Y-8392426D01*
X74933333Y-8430521D02*
X74933333Y-8963855D01*
X74742857Y-8125760D02*
X74552380Y-8697188D01*
X74552380Y-8697188D02*
X75047619Y-8697188D01*
X73790476Y-44163855D02*
X73790476Y-44811474D01*
X73790476Y-44811474D02*
X73828571Y-44887664D01*
X73828571Y-44887664D02*
X73866666Y-44925760D01*
X73866666Y-44925760D02*
X73942857Y-44963855D01*
X73942857Y-44963855D02*
X74095238Y-44963855D01*
X74095238Y-44963855D02*
X74171428Y-44925760D01*
X74171428Y-44925760D02*
X74209523Y-44887664D01*
X74209523Y-44887664D02*
X74247619Y-44811474D01*
X74247619Y-44811474D02*
X74247619Y-44163855D01*
X75009523Y-44163855D02*
X74628571Y-44163855D01*
X74628571Y-44163855D02*
X74590475Y-44544807D01*
X74590475Y-44544807D02*
X74628571Y-44506712D01*
X74628571Y-44506712D02*
X74704761Y-44468617D01*
X74704761Y-44468617D02*
X74895237Y-44468617D01*
X74895237Y-44468617D02*
X74971428Y-44506712D01*
X74971428Y-44506712D02*
X75009523Y-44544807D01*
X75009523Y-44544807D02*
X75047618Y-44620998D01*
X75047618Y-44620998D02*
X75047618Y-44811474D01*
X75047618Y-44811474D02*
X75009523Y-44887664D01*
X75009523Y-44887664D02*
X74971428Y-44925760D01*
X74971428Y-44925760D02*
X74895237Y-44963855D01*
X74895237Y-44963855D02*
X74704761Y-44963855D01*
X74704761Y-44963855D02*
X74628571Y-44925760D01*
X74628571Y-44925760D02*
X74590475Y-44887664D01*
X34150476Y-54163855D02*
X34607619Y-54163855D01*
X34379047Y-54963855D02*
X34379047Y-54163855D01*
X34874286Y-54963855D02*
X34874286Y-54163855D01*
X34874286Y-54163855D02*
X35179048Y-54163855D01*
X35179048Y-54163855D02*
X35255238Y-54201950D01*
X35255238Y-54201950D02*
X35293333Y-54240045D01*
X35293333Y-54240045D02*
X35331429Y-54316236D01*
X35331429Y-54316236D02*
X35331429Y-54430521D01*
X35331429Y-54430521D02*
X35293333Y-54506712D01*
X35293333Y-54506712D02*
X35255238Y-54544807D01*
X35255238Y-54544807D02*
X35179048Y-54582902D01*
X35179048Y-54582902D02*
X34874286Y-54582902D01*
X36055238Y-54163855D02*
X35674286Y-54163855D01*
X35674286Y-54163855D02*
X35636190Y-54544807D01*
X35636190Y-54544807D02*
X35674286Y-54506712D01*
X35674286Y-54506712D02*
X35750476Y-54468617D01*
X35750476Y-54468617D02*
X35940952Y-54468617D01*
X35940952Y-54468617D02*
X36017143Y-54506712D01*
X36017143Y-54506712D02*
X36055238Y-54544807D01*
X36055238Y-54544807D02*
X36093333Y-54620998D01*
X36093333Y-54620998D02*
X36093333Y-54811474D01*
X36093333Y-54811474D02*
X36055238Y-54887664D01*
X36055238Y-54887664D02*
X36017143Y-54925760D01*
X36017143Y-54925760D02*
X35940952Y-54963855D01*
X35940952Y-54963855D02*
X35750476Y-54963855D01*
X35750476Y-54963855D02*
X35674286Y-54925760D01*
X35674286Y-54925760D02*
X35636190Y-54887664D01*
X31610476Y-54163855D02*
X32067619Y-54163855D01*
X31839047Y-54963855D02*
X31839047Y-54163855D01*
X32334286Y-54963855D02*
X32334286Y-54163855D01*
X32334286Y-54163855D02*
X32639048Y-54163855D01*
X32639048Y-54163855D02*
X32715238Y-54201950D01*
X32715238Y-54201950D02*
X32753333Y-54240045D01*
X32753333Y-54240045D02*
X32791429Y-54316236D01*
X32791429Y-54316236D02*
X32791429Y-54430521D01*
X32791429Y-54430521D02*
X32753333Y-54506712D01*
X32753333Y-54506712D02*
X32715238Y-54544807D01*
X32715238Y-54544807D02*
X32639048Y-54582902D01*
X32639048Y-54582902D02*
X32334286Y-54582902D01*
X33477143Y-54430521D02*
X33477143Y-54963855D01*
X33286667Y-54125760D02*
X33096190Y-54697188D01*
X33096190Y-54697188D02*
X33591429Y-54697188D01*
%TO.C,R6*%
X47846359Y-18120000D02*
X48153641Y-18120000D01*
X47846359Y-18880000D02*
X48153641Y-18880000D01*
%TO.C,C12*%
X48288748Y-40640000D02*
X49711252Y-40640000D01*
X48288748Y-43360000D02*
X49711252Y-43360000D01*
%TO.C,R7*%
X49846359Y-46620000D02*
X50153641Y-46620000D01*
X49846359Y-47380000D02*
X50153641Y-47380000D01*
%TO.C,C21*%
X51840000Y-42140580D02*
X51840000Y-41859420D01*
X52860000Y-42140580D02*
X52860000Y-41859420D01*
%TO.C,C1*%
X19892164Y-25640000D02*
X20107836Y-25640000D01*
X19892164Y-26360000D02*
X20107836Y-26360000D01*
%TO.C,C4*%
X57440000Y-13922164D02*
X57440000Y-14137836D01*
X58160000Y-13922164D02*
X58160000Y-14137836D01*
%TO.C,C16*%
X73288748Y-15640000D02*
X74711252Y-15640000D01*
X73288748Y-18360000D02*
X74711252Y-18360000D01*
%TO.C,C6*%
X57440000Y-41922164D02*
X57440000Y-42137836D01*
X58160000Y-41922164D02*
X58160000Y-42137836D01*
%TO.C,R10*%
X57846359Y-46620000D02*
X58153641Y-46620000D01*
X57846359Y-47380000D02*
X58153641Y-47380000D01*
%TO.C,C7*%
X74259420Y-49490000D02*
X74540580Y-49490000D01*
X74259420Y-50510000D02*
X74540580Y-50510000D01*
%TO.C,C10*%
X33288748Y-24640000D02*
X34711252Y-24640000D01*
X33288748Y-27360000D02*
X34711252Y-27360000D01*
%TO.C,R3*%
X50346359Y-18620000D02*
X50653641Y-18620000D01*
X50346359Y-19380000D02*
X50653641Y-19380000D01*
%TO.C,C17*%
X73288748Y-36640000D02*
X74711252Y-36640000D01*
X73288748Y-39360000D02*
X74711252Y-39360000D01*
%TO.C,U1*%
X18520000Y-28920000D02*
X18320000Y-28720000D01*
X18720000Y-28720000D01*
X18520000Y-28920000D01*
G36*
X18520000Y-28920000D02*
G01*
X18320000Y-28720000D01*
X18720000Y-28720000D01*
X18520000Y-28920000D01*
G37*
%TO.C,C20*%
X51840000Y-14140580D02*
X51840000Y-13859420D01*
X52860000Y-14140580D02*
X52860000Y-13859420D01*
%TO.C,J1*%
X6000000Y-32700000D02*
X5250000Y-31950000D01*
X6750000Y-31950000D01*
X6000000Y-32700000D01*
%TO.C,R2*%
X58346359Y-18620000D02*
X58653641Y-18620000D01*
X58346359Y-19380000D02*
X58653641Y-19380000D01*
%TO.C,C13*%
X42562500Y-30152500D02*
X43350000Y-30152500D01*
X42956250Y-29758750D02*
X42956250Y-30546250D01*
X43590000Y-29654437D02*
X43590000Y-30940000D01*
X43590000Y-29654437D02*
X44654437Y-28590000D01*
X43590000Y-34345563D02*
X43590000Y-33060000D01*
X43590000Y-34345563D02*
X44654437Y-35410000D01*
X44654437Y-28590000D02*
X50410000Y-28590000D01*
X44654437Y-35410000D02*
X50410000Y-35410000D01*
X50410000Y-28590000D02*
X50410000Y-30940000D01*
X50410000Y-35410000D02*
X50410000Y-33060000D01*
%TO.C,R11*%
X65846359Y-48620000D02*
X66153641Y-48620000D01*
X65846359Y-49380000D02*
X66153641Y-49380000D01*
%TO.C,Q1*%
X23880000Y-27380000D02*
X30120000Y-27380000D01*
X23880000Y-32620000D02*
X29450000Y-32620000D01*
X30120000Y-32620000D02*
X29620000Y-32620000D01*
X30120000Y-32120000D01*
X30120000Y-32620000D01*
G36*
X30120000Y-32620000D02*
G01*
X29620000Y-32620000D01*
X30120000Y-32120000D01*
X30120000Y-32620000D01*
G37*
%TO.C,RSH1*%
X33300000Y-29550000D02*
X32700000Y-29550000D01*
X33000000Y-29250000D01*
X33300000Y-29550000D01*
G36*
X33300000Y-29550000D02*
G01*
X32700000Y-29550000D01*
X33000000Y-29250000D01*
X33300000Y-29550000D01*
G37*
%TO.C,C18*%
X68288748Y-43640000D02*
X69711252Y-43640000D01*
X68288748Y-46360000D02*
X69711252Y-46360000D01*
%TO.C,R13*%
X74446359Y-56120000D02*
X74753641Y-56120000D01*
X74446359Y-56880000D02*
X74753641Y-56880000D01*
%TO.C,U3*%
X53520000Y-14900000D02*
X53520000Y-14720000D01*
X53620000Y-15000000D02*
X53520000Y-14900000D01*
%TO.C,R4*%
X52846359Y-20620000D02*
X53153641Y-20620000D01*
X52846359Y-21380000D02*
X53153641Y-21380000D01*
D11*
%TO.C,L2*%
X59200000Y-45900000D02*
X58600000Y-45900000D01*
X58600000Y-45300000D01*
X59200000Y-45900000D01*
D10*
%TO.C,R14*%
X74446359Y-57620000D02*
X74753641Y-57620000D01*
X74446359Y-58380000D02*
X74753641Y-58380000D01*
%TO.C,R9*%
X54846359Y-48620000D02*
X55153641Y-48620000D01*
X54846359Y-49380000D02*
X55153641Y-49380000D01*
%TO.C,U2*%
X41700000Y-21820000D02*
X41500000Y-21620000D01*
X41900000Y-21620000D01*
X41700000Y-21820000D01*
G36*
X41700000Y-21820000D02*
G01*
X41500000Y-21620000D01*
X41900000Y-21620000D01*
X41700000Y-21820000D01*
G37*
%TO.C,C5*%
X68288748Y-36640000D02*
X69711252Y-36640000D01*
X68288748Y-39360000D02*
X69711252Y-39360000D01*
%TO.C,F1*%
X12397936Y-28090000D02*
X13602064Y-28090000D01*
X12397936Y-29910000D02*
X13602064Y-29910000D01*
%TO.C,C3*%
X68288748Y-8640000D02*
X69711252Y-8640000D01*
X68288748Y-11360000D02*
X69711252Y-11360000D01*
%TO.C,C2*%
X48392164Y-21640000D02*
X48607836Y-21640000D01*
X48392164Y-22360000D02*
X48607836Y-22360000D01*
%TO.C,R15*%
X60846359Y-20120000D02*
X61153641Y-20120000D01*
X60846359Y-20880000D02*
X61153641Y-20880000D01*
%TO.C,D1*%
X12350000Y-37660000D02*
X12350000Y-31850000D01*
X12350000Y-37660000D02*
X16650000Y-37660000D01*
X16650000Y-37660000D02*
X16650000Y-31850000D01*
%TO.C,C19*%
X73288748Y-40890000D02*
X74711252Y-40890000D01*
X73288748Y-43610000D02*
X74711252Y-43610000D01*
%TO.C,C11*%
X48288748Y-12640000D02*
X49711252Y-12640000D01*
X48288748Y-15360000D02*
X49711252Y-15360000D01*
%TO.C,R1*%
X55846359Y-18620000D02*
X56153641Y-18620000D01*
X55846359Y-19380000D02*
X56153641Y-19380000D01*
%TO.C,R8*%
X52346359Y-48620000D02*
X52653641Y-48620000D01*
X52346359Y-49380000D02*
X52653641Y-49380000D01*
%TO.C,C9*%
X15859420Y-26240000D02*
X16140580Y-26240000D01*
X15859420Y-27260000D02*
X16140580Y-27260000D01*
%TO.C,C15*%
X68288748Y-15640000D02*
X69711252Y-15640000D01*
X68288748Y-18360000D02*
X69711252Y-18360000D01*
%TO.C,U4*%
X53520000Y-42900000D02*
X53520000Y-42720000D01*
X53620000Y-43000000D02*
X53520000Y-42900000D01*
%TO.C,R5*%
X55346359Y-20620000D02*
X55653641Y-20620000D01*
X55346359Y-21380000D02*
X55653641Y-21380000D01*
%TO.C,C8*%
X74759420Y-53490000D02*
X75040580Y-53490000D01*
X74759420Y-54510000D02*
X75040580Y-54510000D01*
%TO.C,R12*%
X68346359Y-48620000D02*
X68653641Y-48620000D01*
X68346359Y-49380000D02*
X68653641Y-49380000D01*
D11*
%TO.C,L1*%
X59200000Y-17900000D02*
X58600000Y-17900000D01*
X58600000Y-17300000D01*
X59200000Y-17900000D01*
D10*
%TO.C,C14*%
X73288748Y-8640000D02*
X74711252Y-8640000D01*
X73288748Y-11360000D02*
X74711252Y-11360000D01*
%TO.C,U5*%
X72920000Y-44920000D02*
X72720000Y-44720000D01*
X73120000Y-44720000D01*
X72920000Y-44920000D01*
G36*
X72920000Y-44920000D02*
G01*
X72720000Y-44720000D01*
X73120000Y-44720000D01*
X72920000Y-44920000D01*
G37*
%TD*%
M02*
