%TF.GenerationSoftware,KiCad,Pcbnew,10.0.6*%
%TF.CreationDate,2026-09-29T22:29:40+03:00*%
%TF.ProjectId,PCB-MAIN_8L_COMPLETE_105_CANDIDATE_REV_B,5043422d-4d41-4494-9e5f-384c5f434f4d,B*%
%TF.SameCoordinates,Original*%
%TF.FileFunction,Copper,L6,Inr*%
%TF.FilePolarity,Positive*%
%FSLAX46Y46*%
G04 Gerber Fmt 4.6, Leading zero omitted, Abs format (unit mm)*
G04 Created by KiCad (PCBNEW 10.0.6) date 2026-09-29 22:29:40*
%MOMM*%
%LPD*%
G01*
G04 APERTURE LIST*
G04 Aperture macros list*
%AMRoundRect*
0 Rectangle with rounded corners*
0 $1 Rounding radius*
0 $2 $3 $4 $5 $6 $7 $8 $9 X,Y pos of 4 corners*
0 Add a 4 corners polygon primitive as box body*
4,1,4,$2,$3,$4,$5,$6,$7,$8,$9,$2,$3,0*
0 Add four circle primitives for the rounded corners*
1,1,$1+$1,$2,$3*
1,1,$1+$1,$4,$5*
1,1,$1+$1,$6,$7*
1,1,$1+$1,$8,$9*
0 Add four rect primitives between the rounded corners*
20,1,$1+$1,$2,$3,$4,$5,0*
20,1,$1+$1,$4,$5,$6,$7,0*
20,1,$1+$1,$6,$7,$8,$9,0*
20,1,$1+$1,$8,$9,$2,$3,0*%
G04 Aperture macros list end*
%TA.AperFunction,ComponentPad*%
%ADD10O,1.000000X2.100000*%
%TD*%
%TA.AperFunction,ComponentPad*%
%ADD11O,1.000000X1.800000*%
%TD*%
%TA.AperFunction,ComponentPad*%
%ADD12RoundRect,0.300000X0.450000X-0.450000X0.450000X0.450000X-0.450000X0.450000X-0.450000X-0.450000X0*%
%TD*%
%TA.AperFunction,ComponentPad*%
%ADD13C,1.500000*%
%TD*%
%TA.AperFunction,ViaPad*%
%ADD14C,0.250000*%
%TD*%
%TA.AperFunction,ViaPad*%
%ADD15C,0.500000*%
%TD*%
%TA.AperFunction,Conductor*%
%ADD16C,0.100000*%
%TD*%
%TA.AperFunction,Conductor*%
%ADD17C,0.150000*%
%TD*%
G04 APERTURE END LIST*
D10*
%TO.N,USB_SHIELD*%
%TO.C,J11*%
X46320000Y-6780000D03*
D11*
X46320000Y-2600000D03*
D10*
X37680000Y-6780000D03*
D11*
X37680000Y-2600000D03*
%TD*%
D12*
%TO.N,3V8_MODEM*%
%TO.C,J_PWR1*%
X8920000Y-29500000D03*
D13*
%TO.N,GND_MODEM*%
X8920000Y-26500000D03*
%TO.N,3V3_DIGITAL*%
X8920000Y-23500000D03*
%TO.N,GND_DIGITAL*%
X8920000Y-20500000D03*
%TO.N,1V8_MIC*%
X8920000Y-17500000D03*
%TO.N,GND_MIC*%
X8920000Y-14500000D03*
%TO.N,PWR_GOOD*%
X11920000Y-29500000D03*
%TO.N,FAULT*%
X11920000Y-26500000D03*
%TO.N,EN_MODEM*%
X11920000Y-23500000D03*
%TO.N,EN_AUX*%
X11920000Y-20500000D03*
%TO.N,I2C2_SCL_BUS*%
X11920000Y-17500000D03*
%TO.N,I2C2_SDA_BUS*%
X11920000Y-14500000D03*
%TD*%
D14*
%TO.N,LORA_NSS_U1*%
X37200000Y-31500000D03*
X45500000Y-38400000D03*
X40800000Y-26800000D03*
X38700000Y-37000000D03*
D15*
%TO.N,LORA_NSS_U10*%
X51812600Y-42424000D03*
X68071300Y-54386200D03*
%TO.N,GND_DIGITAL*%
X78225000Y-22100000D03*
X25100000Y-23900000D03*
X67475000Y-61475000D03*
X62725000Y-24350000D03*
X104975000Y-19850000D03*
X43100000Y-32100000D03*
X62850000Y-35975000D03*
X61475000Y-54725000D03*
X82475000Y-62725000D03*
X94850000Y-4225000D03*
X74475000Y-68975000D03*
X45350000Y-8725000D03*
X62100000Y-32225000D03*
X66224999Y-34850000D03*
X67850000Y-27225000D03*
X58725000Y-53225000D03*
X41350000Y-9725000D03*
X104600000Y-31350000D03*
X65974999Y-67475000D03*
X64224999Y-50725000D03*
X49650000Y-20650000D03*
X61350000Y-42975000D03*
X42975000Y-29225000D03*
X41100000Y-12725000D03*
X55850000Y-20100000D03*
X57600000Y-68975000D03*
X58050000Y-24600000D03*
X43100000Y-27100000D03*
X79100000Y-26400000D03*
X57850000Y-40225000D03*
X81225000Y-19850000D03*
X68100000Y-67975000D03*
X48225000Y-62725000D03*
X44100000Y-12725000D03*
X107100000Y-28725000D03*
X67475000Y-46975000D03*
X16600000Y-27475000D03*
X58725000Y-37725000D03*
X46975000Y-23350000D03*
X95100000Y-29725000D03*
X90725000Y-32975000D03*
X45350000Y-37725000D03*
X64474999Y-53100000D03*
X52475000Y-47725000D03*
X56975000Y-38850000D03*
X61725000Y-29475000D03*
X62600000Y-49600000D03*
X85100000Y-17350000D03*
X48100000Y-19975000D03*
X40975000Y-25100000D03*
X103100000Y-17975000D03*
X48350000Y-57975000D03*
X47350000Y-18725000D03*
X82475000Y-48225000D03*
X92600000Y-23850000D03*
X83850000Y-54975000D03*
X84225000Y-20975000D03*
X37850000Y-8725000D03*
X64599999Y-30975000D03*
D14*
X82582500Y-21000000D03*
D15*
X80475000Y-54600000D03*
X69350000Y-26225000D03*
X43350000Y-8725000D03*
X74475000Y-73975000D03*
X42350000Y-21975000D03*
X54075000Y-19825000D03*
X86850000Y-20850000D03*
X62475000Y-20700000D03*
X82475000Y-63975000D03*
X60850000Y-24475000D03*
X90600000Y-7600000D03*
X91850000Y-20475000D03*
X68100000Y-38475000D03*
X61350000Y-48225000D03*
X60100000Y-61975000D03*
X81600000Y-3225000D03*
X55725000Y-51850000D03*
X69850000Y-35275000D03*
X55600000Y-44225000D03*
X52250000Y-24650000D03*
X65974999Y-66724999D03*
X43100000Y-34600000D03*
X61350000Y-47475000D03*
D14*
X66099999Y-30650000D03*
D15*
X67475000Y-63975000D03*
X69350000Y-28975000D03*
X38225000Y-8225000D03*
X61600000Y-61850000D03*
X53100000Y-43475000D03*
X64224999Y-54975000D03*
X42600000Y-27725000D03*
X62850000Y-33475000D03*
X65175000Y-22050000D03*
X65849999Y-41725000D03*
X60726000Y-18633000D03*
X93100000Y-17350000D03*
X56850000Y-49600000D03*
X54700000Y-34800000D03*
X51400000Y-36650000D03*
X59400000Y-21800000D03*
X94100000Y-20475000D03*
X46300000Y-21220000D03*
X84350000Y-49475000D03*
X95100000Y-40725000D03*
X45350000Y-32975000D03*
X51275000Y-38850000D03*
X79350000Y-35350000D03*
X103350000Y-13475000D03*
X60850000Y-53475000D03*
X58100000Y-48225000D03*
X45350000Y-28475000D03*
X103600000Y-28475000D03*
X45850000Y-8225000D03*
X62500000Y-26750000D03*
X67475000Y-31225000D03*
X81475000Y-46100000D03*
X53975000Y-65474999D03*
X59850000Y-56975000D03*
X39600000Y-11475000D03*
X89225000Y-37225000D03*
X59100000Y-65474999D03*
X67225000Y-35225000D03*
X75050000Y-24800000D03*
X60975000Y-30725000D03*
X62850000Y-25225000D03*
X51475000Y-35050000D03*
X52775000Y-38850000D03*
X42600000Y-11475000D03*
X63850000Y-40225000D03*
X82100000Y-23475000D03*
X43100000Y-33350000D03*
X60350000Y-63850000D03*
X49600000Y-64974999D03*
X105475000Y-40600000D03*
X55129000Y-25641000D03*
X89225000Y-20975000D03*
X31975000Y-23850000D03*
X83850000Y-53725000D03*
X43100000Y-25850000D03*
X67850000Y-28475000D03*
X54600000Y-27150000D03*
X45100000Y-11475000D03*
X83850000Y-50975000D03*
X63350000Y-37725000D03*
X46100000Y-19975000D03*
X80475000Y-55850000D03*
X72316000Y-21300000D03*
X51975000Y-46100000D03*
X52400000Y-33150000D03*
X105475000Y-31225000D03*
X66724999Y-31975000D03*
X69850000Y-29975000D03*
X40275000Y-26525000D03*
X43350000Y-37725000D03*
X53975000Y-70475000D03*
X57750000Y-52550000D03*
X81475000Y-60600000D03*
X62850000Y-34725000D03*
X86600000Y-33725000D03*
X43100000Y-35850000D03*
%TO.N,BLE_RX_U11*%
X99080500Y-42469100D03*
X94343100Y-34450000D03*
%TO.N,BLE_TX_U11*%
X72921300Y-36456900D03*
X64634600Y-37310400D03*
%TO.N,3V3_DIGITAL*%
X62546000Y-61023100D03*
D14*
X40876800Y-35703300D03*
D15*
X54013500Y-43521900D03*
X86420300Y-24962700D03*
X85650500Y-24852800D03*
X83683400Y-18089700D03*
X85387400Y-21886000D03*
D14*
X41750000Y-30400000D03*
X80010000Y-20500000D03*
X56500000Y-38050000D03*
X40175000Y-31700000D03*
X57400000Y-19100000D03*
D15*
X59160100Y-42112900D03*
X84488000Y-32500000D03*
D14*
X16200000Y-29700000D03*
D15*
X60355600Y-37409200D03*
X72870400Y-28464900D03*
D14*
X61350000Y-25350000D03*
X17100000Y-34800000D03*
D15*
X61644000Y-40491800D03*
X67910300Y-36029700D03*
D14*
X14400000Y-27750000D03*
D15*
X80493400Y-49628000D03*
D14*
X59350000Y-36300000D03*
D15*
X16019400Y-17867400D03*
D14*
X44250000Y-29000000D03*
X44250000Y-26500000D03*
X58100000Y-18500000D03*
X80325000Y-23250000D03*
X61675000Y-27898000D03*
X26900000Y-29175000D03*
D15*
X64403900Y-40920900D03*
D14*
X41900000Y-34500000D03*
D15*
X88395000Y-7539100D03*
D14*
X44250000Y-34000000D03*
D15*
X88208700Y-18757300D03*
D14*
X18675000Y-28000000D03*
X32675000Y-18900000D03*
D15*
X65357400Y-56966100D03*
D14*
X46500000Y-37700000D03*
X42500000Y-33450000D03*
X45606900Y-20562000D03*
D15*
%TO.N,BLE_DFU_REQ*%
X58756700Y-38573400D03*
X87832500Y-32445000D03*
X81127900Y-37155000D03*
X96050000Y-40662500D03*
X50308300Y-36686500D03*
%TO.N,NRF_RESET_N*%
X96505800Y-38423300D03*
X94343400Y-36450000D03*
%TO.N,NRF_SWDIO*%
X103914200Y-40662500D03*
%TO.N,NRF_SWCLK*%
X104725000Y-40651700D03*
%TO.N,GND_MODEM*%
X16475000Y-73975000D03*
X65349999Y-17225000D03*
X38350000Y-54725000D03*
X20100000Y-27975000D03*
X15350000Y-15725000D03*
X61850000Y-17225000D03*
X62975000Y-17225000D03*
X15725000Y-40975000D03*
X71725000Y-11975000D03*
X19350000Y-36225000D03*
X25600000Y-39975000D03*
X23100000Y-47100000D03*
X18100000Y-57225000D03*
X35475000Y-12975000D03*
X16350000Y-33600000D03*
X8975000Y-50850000D03*
X19975000Y-17225000D03*
X15725000Y-4600000D03*
X20475000Y-59600000D03*
X20975000Y-39975000D03*
X25600000Y-35725000D03*
X19225000Y-29975000D03*
X38850000Y-57350000D03*
X28725000Y-4600000D03*
X60850000Y-14975000D03*
X14850000Y-32975000D03*
X25600000Y-34975000D03*
X30975000Y-56225000D03*
X11350000Y-40975000D03*
X11100000Y-46975000D03*
X17100000Y-17225000D03*
X21725000Y-17225000D03*
X15725000Y-33475000D03*
X20225000Y-19475000D03*
X42225000Y-64974999D03*
X31850000Y-15725000D03*
X39100000Y-57975000D03*
X15600000Y-29475000D03*
X19850000Y-39975000D03*
X25600000Y-58850000D03*
X21225000Y-67475000D03*
X7100000Y-51725000D03*
X18850000Y-17225000D03*
X26475000Y-19725000D03*
X31975000Y-62975000D03*
X34850000Y-16975000D03*
X7850000Y-52475000D03*
X31975000Y-40975000D03*
X39600000Y-30850000D03*
X71725000Y-4600000D03*
X34350000Y-27725000D03*
X31725000Y-19725000D03*
X24850000Y-47100000D03*
X11350000Y-42225000D03*
X22350000Y-35725000D03*
X21100000Y-37100000D03*
X11100000Y-53225000D03*
X11100000Y-54475000D03*
X26850000Y-37100000D03*
X17850000Y-14975000D03*
X17600000Y-39975000D03*
X22350000Y-58850000D03*
X56225000Y-29100000D03*
X24850000Y-43350000D03*
X11100000Y-49475000D03*
X27600000Y-59600000D03*
X22600000Y-68725000D03*
X15850000Y-36225000D03*
X22350000Y-32475000D03*
X23100000Y-56975000D03*
X17600000Y-30225000D03*
X30975000Y-54600000D03*
X16475000Y-68975000D03*
X18850000Y-55350000D03*
X11100000Y-55725000D03*
X58725000Y-4600000D03*
X20475000Y-44350000D03*
X32100000Y-43350000D03*
X32100000Y-44475000D03*
X39850000Y-64849999D03*
X27600000Y-44350000D03*
X31350000Y-34475000D03*
X20475000Y-46100000D03*
X23100000Y-43350000D03*
X38975000Y-53350000D03*
X24850000Y-56975000D03*
X15850000Y-44725000D03*
X19350000Y-33475000D03*
X26725000Y-39975000D03*
X11100000Y-48225000D03*
X58350000Y-15725000D03*
X25600000Y-30475000D03*
X20475000Y-57975000D03*
X23725000Y-68725000D03*
X60100000Y-17225000D03*
%TO.N,U8_PWRKEY_N*%
X16000700Y-32769800D03*
X13847500Y-57010400D03*
X18171400Y-36130600D03*
D14*
%TO.N,SD_D2_CARD*%
X87100000Y-19000000D03*
X89300000Y-19100000D03*
X90625000Y-23950000D03*
X90325000Y-23000000D03*
%TO.N,TEST_UART_RX_TP*%
X39350000Y-29900000D03*
X42500000Y-27100000D03*
X38950000Y-33549999D03*
D15*
%TO.N,TEST_UART_RX_U1*%
X45450000Y-31000000D03*
X38375000Y-33800000D03*
%TO.N,CELL_DTR_U16*%
X24240700Y-31466700D03*
X16502800Y-30222200D03*
D14*
X58800000Y-31300000D03*
X49500000Y-34700000D03*
X32300000Y-36400000D03*
D15*
X29124000Y-37014800D03*
%TO.N,NOR_NCS_U2*%
X69900000Y-33950000D03*
X52800000Y-35600000D03*
%TO.N,CELL_USB_DP_TP*%
X8200000Y-50150000D03*
D14*
%TO.N,SD_D3_CARD*%
X85000000Y-13400000D03*
X85900000Y-26300000D03*
X81900000Y-20500000D03*
X82700000Y-18600000D03*
X87600000Y-23700000D03*
%TO.N,SD_CMD_CARD*%
X81800000Y-21500000D03*
D15*
X88103900Y-10734600D03*
D14*
X83325000Y-24250000D03*
D15*
X93961400Y-21414100D03*
D14*
%TO.N,SD_CK_CARD*%
X81500000Y-22000000D03*
D15*
X43926200Y-19057600D03*
X86627700Y-11178600D03*
D14*
X79500000Y-18027200D03*
D15*
%TO.N,1V8_MIC*%
X53400000Y-42800000D03*
X36700000Y-60600000D03*
D14*
X34300000Y-33600000D03*
D15*
X17400000Y-26900000D03*
D14*
X34600000Y-36900000D03*
D15*
X9800000Y-25400000D03*
D14*
X34400000Y-35900000D03*
D15*
X37500000Y-24900000D03*
D14*
X71100000Y-49100000D03*
X77100000Y-55100000D03*
D15*
X44200000Y-43300000D03*
D14*
X59400000Y-39000000D03*
D15*
X5800000Y-38500000D03*
X58800000Y-39600000D03*
D14*
X35300000Y-27700000D03*
X82200000Y-64600000D03*
X35300000Y-31700000D03*
D15*
X35200000Y-26900000D03*
%TO.N,GND_MIC*%
X7350000Y-40850000D03*
X102725000Y-55600000D03*
X8850000Y-43225000D03*
X99600000Y-53850000D03*
X89850000Y-65974999D03*
X39475000Y-61975000D03*
X37100000Y-67725000D03*
D14*
X9850000Y-38800000D03*
D15*
X7600000Y-38350000D03*
X101975000Y-53975000D03*
X93225000Y-65224999D03*
X48600000Y-44725000D03*
X48600000Y-45350000D03*
X90850000Y-65099999D03*
X89100000Y-67725000D03*
X101100000Y-51725000D03*
X51100000Y-42475000D03*
X37100000Y-61850000D03*
X44100000Y-48725000D03*
X15850000Y-25975000D03*
X39350000Y-65474999D03*
D14*
%TO.N,LORA_DIO1*%
X46300000Y-34300000D03*
X64925000Y-53750000D03*
X58000000Y-47400000D03*
X64500000Y-49000000D03*
X60200000Y-47400000D03*
X65050000Y-48270000D03*
X61500000Y-46100000D03*
X54700000Y-47000000D03*
D15*
%TO.N,USB_SHIELD*%
X40473900Y-11575800D03*
%TO.N,NOR_IO3_U1*%
X39475000Y-28475000D03*
X54725000Y-36600000D03*
%TO.N,NOR_IO3_U2*%
X69975000Y-27725000D03*
X41475000Y-27850000D03*
%TO.N,LORA_MISO_U1*%
X64925000Y-51662900D03*
X50715400Y-41055300D03*
%TO.N,PDM_CLK_1V8_FANOUT*%
X39432200Y-61090100D03*
X38438000Y-67213200D03*
X90825100Y-63684400D03*
X7623400Y-41674800D03*
X7585700Y-37590700D03*
X101962700Y-55196600D03*
X90975300Y-67212300D03*
D14*
%TO.N,GNSS_ANT_BIAS_RAW*%
X61700000Y-65500000D03*
X49000000Y-51825000D03*
X59700000Y-56400000D03*
X54016800Y-55183000D03*
%TO.N,SD_D1_CARD*%
X84875000Y-25081100D03*
D15*
X96631600Y-15476200D03*
X84425000Y-25263800D03*
X92102900Y-24452700D03*
D14*
X86825000Y-24250000D03*
D15*
X85118700Y-20373200D03*
D14*
%TO.N,SIM_MUX_EN*%
X45200000Y-24500000D03*
X31100000Y-15900000D03*
%TO.N,SIM1_DET*%
X43800000Y-24500000D03*
D15*
X17807300Y-18006400D03*
X23447500Y-17933200D03*
D14*
X31800000Y-23200000D03*
X23200000Y-19000000D03*
X36700000Y-23300000D03*
D15*
%TO.N,PDM_DATA4*%
X60664100Y-45174800D03*
X45769900Y-25273700D03*
X48704800Y-26111000D03*
X49000500Y-35943500D03*
D14*
%TO.N,SIM2_DET*%
X58900000Y-15950000D03*
X44750000Y-25500000D03*
D15*
%TO.N,BLE_EN*%
X51644600Y-27235500D03*
X83659700Y-32462200D03*
X45921700Y-25975500D03*
%TO.N,SD_DET*%
X81357700Y-23702100D03*
X86366800Y-21500000D03*
X55444200Y-18983500D03*
X83861600Y-24833300D03*
X51477300Y-19675600D03*
X48693800Y-25352200D03*
X89200000Y-17720000D03*
D14*
%TO.N,LSE_IN*%
X44750000Y-27500000D03*
X62250000Y-30500000D03*
%TO.N,NRST*%
X56600000Y-25700000D03*
X53500000Y-20100000D03*
D15*
X53991000Y-20750000D03*
D14*
X62000000Y-28500000D03*
D15*
X50603600Y-28377000D03*
D14*
X75500000Y-22200000D03*
X62100000Y-29000000D03*
X65100000Y-24800000D03*
D15*
%TO.N,GNSS_PPS_U1*%
X46222100Y-59051300D03*
D14*
X45900000Y-35700000D03*
%TO.N,GNSS_TX_U1*%
X63550000Y-29650000D03*
X65599999Y-31750000D03*
X45550000Y-35350000D03*
D15*
%TO.N,GNSS_RX_U1*%
X45361200Y-54636400D03*
X44856800Y-54132000D03*
X44771500Y-36611100D03*
D14*
%TO.N,LORA_SCK_U1*%
X47550000Y-37250000D03*
X65000000Y-27450000D03*
D15*
%TO.N,LORA_MOSI_U1*%
X47371000Y-38996700D03*
X49251800Y-38977300D03*
%TO.N,PDM_DATA1*%
X50707500Y-39903600D03*
X59511000Y-43265000D03*
D14*
%TO.N,PDM_DATA3*%
X50500000Y-40500000D03*
X63600000Y-44800000D03*
X58800000Y-40800000D03*
%TO.N,PDM_CLK*%
X58000000Y-46900000D03*
X51500000Y-37800000D03*
X62000000Y-46300000D03*
X51800000Y-39200000D03*
X52000000Y-43200000D03*
X55400000Y-45600000D03*
D15*
%TO.N,NOR_CLK_U1*%
X55500000Y-24500000D03*
X54800000Y-19750000D03*
%TO.N,NOR_IO0_U1*%
X56450000Y-24700000D03*
X60500000Y-20950000D03*
%TO.N,NOR_IO1_U1*%
X57800000Y-25650000D03*
X61850000Y-21050000D03*
%TO.N,NOR_IO2_U1*%
X63500000Y-20950000D03*
X58400000Y-26500000D03*
%TO.N,BLE_TX_U1*%
X63903600Y-36868500D03*
X55000000Y-38826000D03*
D14*
%TO.N,VCORE_1V1*%
X55500000Y-36000000D03*
X57500000Y-37750000D03*
X47000000Y-22700000D03*
D15*
X55824000Y-34976200D03*
D14*
X52550000Y-31300000D03*
D15*
X61595600Y-32783100D03*
D14*
X47750000Y-24750000D03*
D15*
X52848000Y-39965400D03*
D14*
%TO.N,I2C2_SCL_U1*%
X62200000Y-32900000D03*
X60800000Y-34900000D03*
%TO.N,I2C2_SDA_U1*%
X50300000Y-35400000D03*
X56500000Y-34500000D03*
X47300000Y-36600000D03*
D15*
X44076800Y-37664100D03*
D14*
%TO.N,LORA_TXEN*%
X49000000Y-36800000D03*
D15*
X68443800Y-55568100D03*
D14*
X56600000Y-33900000D03*
D15*
X63959600Y-56423500D03*
D14*
X54400000Y-47500000D03*
X65500000Y-54900000D03*
D15*
X57225800Y-34448900D03*
D14*
X53100000Y-47000000D03*
X52000000Y-34000000D03*
D15*
%TO.N,LORA_RXEN*%
X83755700Y-56007900D03*
X58687700Y-33996100D03*
X65685900Y-51454300D03*
X80544500Y-53781000D03*
%TO.N,LORA_BUSY*%
X65618800Y-49571600D03*
X82425000Y-52325700D03*
X60808900Y-32998400D03*
D14*
%TO.N,LORA_RESET_N*%
X56400000Y-33100000D03*
D15*
X67456500Y-50630200D03*
D14*
X67600000Y-46400000D03*
D15*
X65253100Y-57857400D03*
D14*
%TO.N,CELL_PWRKEY_CMD*%
X60000000Y-58700000D03*
X65400000Y-39200000D03*
X64000000Y-57100000D03*
X67100000Y-36200000D03*
X63400000Y-35600000D03*
X68400000Y-45100000D03*
X43200000Y-60500000D03*
X48200000Y-60600000D03*
X32200000Y-61400000D03*
X59750000Y-32500000D03*
D15*
X15013500Y-38375600D03*
D14*
X68000000Y-56000000D03*
D15*
%TO.N,CELL_RESET_N_CMD*%
X14836500Y-31612500D03*
X60805800Y-31998900D03*
X48792100Y-32440600D03*
X48052100Y-33477100D03*
%TO.N,CELL_STATUS_U16*%
X32231200Y-34261200D03*
D14*
X58350000Y-32150000D03*
D15*
X14621700Y-36120100D03*
D14*
X51500000Y-33950000D03*
D15*
%TO.N,CELL_RI_U16*%
X18458800Y-31111900D03*
D14*
X57500000Y-32150000D03*
D15*
X29119400Y-32402600D03*
D14*
%TO.N,ACCEL_INT*%
X60800000Y-30000000D03*
X65750000Y-29737500D03*
%TO.N,TAMPER_IN_U1*%
X64800000Y-32300000D03*
X60600000Y-29500000D03*
X69600000Y-30900000D03*
X58300000Y-29500000D03*
X57300000Y-31200000D03*
%TO.N,SD_D0_U1*%
X87850000Y-23050000D03*
X60850000Y-28550000D03*
%TO.N,SD_D1_U1*%
X82900000Y-22450000D03*
X84400000Y-24200000D03*
X60100000Y-28500000D03*
D15*
%TO.N,MIC_WAKE*%
X55032000Y-46500000D03*
X56830400Y-32294000D03*
D14*
%TO.N,USB_VBUS_SENSE*%
X57850000Y-29000000D03*
X45300000Y-18500000D03*
D15*
X48026800Y-14800200D03*
D14*
X41800000Y-22300000D03*
X44350000Y-19500000D03*
%TO.N,SWDIO*%
X58800000Y-25900000D03*
X70400000Y-22300000D03*
%TO.N,SWCLK*%
X58600000Y-21800000D03*
X73200000Y-22300000D03*
%TO.N,AAD_CFG*%
X73300000Y-29100000D03*
X66500000Y-45200000D03*
X57500000Y-22100000D03*
X75500000Y-21700000D03*
X74300000Y-24800000D03*
X59400000Y-21200000D03*
X63000000Y-21900000D03*
X72000000Y-20800000D03*
D15*
X64828000Y-45966100D03*
D14*
X67000000Y-43500000D03*
%TO.N,SD_D2_U1*%
X89100000Y-21800000D03*
X77200000Y-21900000D03*
X84900000Y-26300000D03*
X86500000Y-26300000D03*
D15*
%TO.N,SD_D3_U1*%
X90453400Y-22189900D03*
X69698700Y-18878100D03*
D14*
%TO.N,SD_CK_U1*%
X45200000Y-19250000D03*
X55900000Y-21200000D03*
D15*
%TO.N,PWR_GOOD*%
X53121200Y-20846000D03*
X5892900Y-25195400D03*
D14*
X48240000Y-24750000D03*
%TO.N,PWR_FAULT*%
X30700000Y-19600000D03*
X52600000Y-19400000D03*
X55000000Y-22100000D03*
X37600000Y-18100000D03*
X48600000Y-15300000D03*
X45800000Y-18500000D03*
D15*
%TO.N,EN_MODEM*%
X52200000Y-23950000D03*
X45050000Y-21850000D03*
%TO.N,EN_AUX*%
X48937100Y-20204000D03*
D14*
%TO.N,PDM_DATA2*%
X75500000Y-25200000D03*
X72700000Y-30300000D03*
X72100000Y-17600000D03*
X53100000Y-19400000D03*
X52500000Y-21900000D03*
X69200000Y-41900000D03*
X57800000Y-13500000D03*
X52100000Y-20400000D03*
D15*
%TO.N,CELL_TX_U16*%
X17462400Y-36217100D03*
X38197100Y-39733100D03*
X37621600Y-27443300D03*
X25681200Y-33725000D03*
X31680400Y-39733100D03*
%TO.N,BOOT0*%
X49200000Y-21200000D03*
X61700000Y-30700000D03*
D14*
%TO.N,REV_STRAP0*%
X48500000Y-21300000D03*
X59500000Y-19700000D03*
X59000000Y-20700000D03*
%TO.N,REV_STRAP1*%
X48050000Y-21450000D03*
X57400000Y-23150000D03*
%TO.N,SIM_MUX_SEL*%
X47500000Y-21400000D03*
X41600000Y-20700000D03*
D15*
%TO.N,3V8_MODEM_RF*%
X28400000Y-39686800D03*
X22643400Y-27652000D03*
D14*
X35700000Y-57600000D03*
D15*
X11109800Y-37498500D03*
D14*
X36500000Y-55600000D03*
D15*
X31416700Y-29250000D03*
D14*
X29100000Y-41400000D03*
D15*
%TO.N,U8_VDD_EXT_1V8*%
X23393200Y-30430100D03*
X16848600Y-32171000D03*
X35828300Y-56846600D03*
X47084700Y-32604800D03*
X27250500Y-61989500D03*
X28544200Y-59772200D03*
X47325000Y-30600000D03*
X13426600Y-36202600D03*
%TO.N,U8_MAIN_TXD_1V8*%
X14633000Y-34923500D03*
X22320400Y-30475000D03*
X32141600Y-58300000D03*
%TO.N,3V8_MODEM_BB*%
X34250000Y-61600000D03*
X36460000Y-50678900D03*
X35871600Y-36246200D03*
X8598100Y-47757200D03*
X11951200Y-43573600D03*
D14*
%TO.N,AAD_CFG_1V8_FANOUT*%
X21400000Y-61600000D03*
X12500000Y-50900000D03*
X45098000Y-68319600D03*
X37000000Y-63900000D03*
X63500000Y-54400000D03*
X94732500Y-67600000D03*
X58000000Y-68400000D03*
X7200000Y-45500000D03*
X10800000Y-50000000D03*
X64100000Y-62500000D03*
X15700000Y-54500000D03*
X8600000Y-41900000D03*
X64700000Y-47900000D03*
D15*
%TO.N,SIM2_RST_MUX*%
X38028300Y-20116300D03*
X68406700Y-17216000D03*
%TO.N,SIM2_RST_CONN*%
X66297800Y-15765300D03*
X63177600Y-15708500D03*
D14*
%TO.N,CELL_DBG_RXD_TP*%
X47400000Y-35400000D03*
X45800000Y-36300000D03*
X51600000Y-31000000D03*
D15*
X40380400Y-57475000D03*
D14*
X40582500Y-64450000D03*
X46300000Y-47800000D03*
D15*
%TO.N,CELL_DBG_RXD_U8*%
X22194000Y-64003200D03*
X40331400Y-54788600D03*
D14*
%TO.N,USB_CC1*%
X43250000Y-7355000D03*
X40813000Y-8617000D03*
%TO.N,USB_DP_CONN*%
X41250000Y-7355000D03*
X69800000Y-17600000D03*
X70300000Y-24000000D03*
X42400000Y-8800000D03*
X42250000Y-7355000D03*
%TO.N,USB_DM_CONN*%
X72400000Y-24100000D03*
X41600000Y-8700000D03*
X70300000Y-16200000D03*
X70300000Y-17400000D03*
D15*
%TO.N,PDM_DATA4_1V8*%
X104367600Y-53181200D03*
X98997700Y-53405600D03*
X55623800Y-47966900D03*
X64712900Y-49638900D03*
X60611400Y-51352100D03*
%TO.N,MIC_WAKE4*%
X46849100Y-46739600D03*
X100052400Y-51034400D03*
X98094300Y-52989300D03*
%TO.N,PDM_DATA2_1V8*%
X47699800Y-60226000D03*
X40203900Y-61161700D03*
X55592300Y-43490800D03*
%TO.N,MIC_WAKE2*%
X42869100Y-44700000D03*
X37925000Y-64740800D03*
X37093600Y-62585200D03*
%TO.N,GNSS_RX_U9*%
X48688900Y-56714300D03*
X49727700Y-61396000D03*
%TO.N,SIM1_RST_MUX*%
X34672000Y-13703100D03*
X23748500Y-15396600D03*
%TO.N,CELL_USIM_VDD_1V8*%
X35017700Y-21575000D03*
X36621700Y-18327000D03*
X34152300Y-48900000D03*
X35083000Y-15885400D03*
%TO.N,CELL_USIM_RST_1V8*%
X33716200Y-31887600D03*
X32532200Y-27592500D03*
X38420100Y-44776200D03*
X29119300Y-17235400D03*
X34476200Y-23863600D03*
X34072800Y-37289800D03*
D14*
%TO.N,CELL_USIM_CLK_1V8*%
X32500000Y-24200000D03*
X31500000Y-42300000D03*
D15*
X34152400Y-45401900D03*
X35909700Y-19895800D03*
D14*
X32100000Y-28000000D03*
D15*
%TO.N,CELL_USIM_DATA_1V8*%
X31134800Y-24328200D03*
X32162500Y-37392000D03*
X30511300Y-27507900D03*
X32162500Y-31109100D03*
X32146200Y-46523400D03*
X30000100Y-20586900D03*
%TO.N,SIM2_VDD_CONN*%
X57604700Y-15790300D03*
X32397300Y-20923400D03*
X60875900Y-12898600D03*
X36990400Y-19537200D03*
%TO.N,SIM2_CLK_MUX*%
X67751700Y-15765300D03*
X40607000Y-20275000D03*
%TO.N,SIM2_DATA_MUX*%
X68801000Y-15110100D03*
X42088500Y-17443500D03*
%TO.N,SIM1_DATA_MUX*%
X38115700Y-17483200D03*
X25122600Y-17036600D03*
%TO.N,U13_EN_N*%
X36780900Y-17025000D03*
X30087100Y-17199200D03*
%TO.N,SIM1_CLK_MUX*%
X23997200Y-20767000D03*
X38174900Y-15075000D03*
D14*
%TO.N,SIM1_RST_CONN*%
X24075000Y-16700000D03*
X21195000Y-20000000D03*
X18175000Y-16000000D03*
%TO.N,FAULT*%
X52000000Y-23400000D03*
X25100000Y-22700000D03*
X50100000Y-25300000D03*
X47000000Y-26400000D03*
X35600000Y-26300000D03*
D15*
%TO.N,LORA_MOSI_U10*%
X49907900Y-41397200D03*
X59336900Y-45109000D03*
X61268600Y-44570300D03*
X68580100Y-48657000D03*
%TO.N,U8_MAIN_RI_1V8*%
X19203800Y-37073000D03*
X32144300Y-53879900D03*
X22557400Y-36547900D03*
%TO.N,SIM2_DATA_CONN*%
X71680200Y-13706100D03*
X74762100Y-13563700D03*
%TO.N,NOR_IO0_U2*%
X75100000Y-24100000D03*
X61350000Y-18950000D03*
%TO.N,PDM_DATA3_1V8*%
X81938200Y-59184300D03*
X90484700Y-64340000D03*
X58062700Y-44317800D03*
X92355800Y-67454700D03*
%TO.N,MIC_WAKE3*%
X45339500Y-46000000D03*
X82918200Y-64527500D03*
%TO.N,GNSS_TX_U9*%
X64363700Y-60012400D03*
X51300000Y-64117300D03*
X64638000Y-29300600D03*
%TO.N,GNSS_ANT_OFF_N*%
X59233700Y-64765700D03*
X54600000Y-54912100D03*
%TO.N,GNSS_ANT_DETECT*%
X52238500Y-55459600D03*
X62084200Y-55500600D03*
D14*
%TO.N,GNSS_ANT_SHORT_N*%
X49677600Y-55194000D03*
X63700000Y-59600000D03*
X61000000Y-58425000D03*
D15*
%TO.N,CELL_USB_VBUS*%
X37760000Y-53314200D03*
X17051600Y-50000000D03*
X33875600Y-30993000D03*
%TO.N,NOR_IO1_U2*%
X66350000Y-21400000D03*
X71350000Y-35800000D03*
%TO.N,NOR_IO2_U2*%
X72750000Y-21850000D03*
X78850000Y-35975000D03*
%TO.N,NOR_CLK_U2*%
X58200000Y-19150000D03*
X79100000Y-27100000D03*
D14*
%TO.N,I2C2_SCL_BUS*%
X66200000Y-22400000D03*
X67300000Y-31800000D03*
X65237500Y-29255200D03*
X64300000Y-28400000D03*
D15*
X65685100Y-38170100D03*
D14*
X60600000Y-21900000D03*
X59900000Y-15100000D03*
X61500000Y-21800000D03*
X60700000Y-17100000D03*
D15*
%TO.N,I2C2_SDA_BUS*%
X64530300Y-31701700D03*
X41243400Y-36320400D03*
X41352400Y-33366800D03*
D14*
X62400000Y-21900000D03*
X63230000Y-24750000D03*
X50250000Y-20550000D03*
D15*
%TO.N,CELL_DBG_TXD_U8*%
X11720400Y-46384000D03*
X18084600Y-61992300D03*
%TO.N,CELL_DBG_TXD_TP*%
X11351000Y-45750000D03*
X32941200Y-63407400D03*
D14*
X47900000Y-31400000D03*
D15*
X40582500Y-63440000D03*
D14*
%TO.N,LORA_SCK_U10*%
X63900000Y-27300000D03*
X69700000Y-40200000D03*
X68400000Y-34600000D03*
X68400000Y-32200000D03*
D15*
%TO.N,TEST_UART_TX_TP*%
X39563700Y-27773100D03*
X39481900Y-31560400D03*
%TO.N,CELL_USB_DM_TP*%
X8700000Y-52640569D03*
%TO.N,GNSS_ANT_GATE*%
X62153700Y-63986000D03*
X47339600Y-50468800D03*
%TO.N,HW_REV1*%
X50016000Y-19224000D03*
D14*
X51900000Y-16400000D03*
D15*
X43012600Y-24534200D03*
D14*
X37500000Y-20400000D03*
D15*
%TO.N,HW_REV0*%
X61025000Y-27050000D03*
X57675000Y-20150000D03*
%TO.N,SIM1_CLK_CONN*%
X24981100Y-15581100D03*
X20850000Y-17214200D03*
D14*
%TO.N,GNSS_ANT_SWITCHED*%
X58400000Y-57300000D03*
D15*
X53428000Y-55444900D03*
D14*
X52800000Y-51250000D03*
X60400000Y-65500000D03*
D15*
%TO.N,U8_RESET_N*%
X15865200Y-58798200D03*
X19878300Y-32998400D03*
%TO.N,U8_STATUS_1V8*%
X17650000Y-59589300D03*
X22285400Y-37296700D03*
%TO.N,U8_MAIN_DTR_1V8*%
X20124900Y-37118600D03*
X21367000Y-42159500D03*
%TO.N,U8_MAIN_RXD_1V8*%
X22316200Y-33188000D03*
X30694000Y-58997900D03*
%TO.N,CELL_USB_BOOT_1V8*%
X36169800Y-59631500D03*
X34966300Y-59890600D03*
%TO.N,3V8_MODEM*%
X8863800Y-57000000D03*
X38500000Y-52000000D03*
X32980900Y-24782200D03*
D14*
%TO.N,CELL_USB_BOOT_TP*%
X40900000Y-55000000D03*
X37000000Y-45500000D03*
D15*
X41142000Y-66559500D03*
D14*
X47100000Y-28800000D03*
D15*
X36996100Y-59250000D03*
D14*
X34400000Y-32200000D03*
X43200000Y-30600000D03*
X38700000Y-59800000D03*
D15*
%TO.N,CELL_DBG_VREF_TP*%
X42515000Y-59331600D03*
X42061900Y-66662000D03*
D14*
%TO.N,PDM_DATA1_1V8*%
X52900000Y-49400000D03*
X8700000Y-35500000D03*
X58200000Y-48900000D03*
X45200000Y-42800000D03*
X8200000Y-37950000D03*
D15*
X54291700Y-42773600D03*
X5619600Y-40710600D03*
D14*
X56500000Y-43000000D03*
X16800000Y-39000000D03*
X12200000Y-37600000D03*
D15*
%TO.N,MIC_WAKE12_OR_1V8*%
X47877800Y-46281700D03*
X48677500Y-46971900D03*
%TD*%
%TO.N,3V3_DIGITAL*%
D16*
X45400000Y-36250000D02*
X43150000Y-34000000D01*
X43150000Y-34000000D02*
X43050000Y-34000000D01*
X45400000Y-36600000D02*
X45400000Y-36250000D01*
X43050000Y-34000000D02*
X42500000Y-33450000D01*
X46500000Y-37700000D02*
X45400000Y-36600000D01*
%TO.N,TEST_UART_RX_TP*%
X42150000Y-27600000D02*
X42150000Y-27500000D01*
X41000000Y-28350000D02*
X41550000Y-28350000D01*
X42100000Y-27900000D02*
X42100000Y-27650000D01*
X42100000Y-27650000D02*
X42150000Y-27600000D01*
X41550000Y-28350000D02*
X41600000Y-28300000D01*
X42150000Y-27500000D02*
X42500000Y-27150000D01*
X39350000Y-29900000D02*
X41000000Y-28350000D01*
X42500000Y-27150000D02*
X42500000Y-27100000D01*
X41700000Y-28300000D02*
X42100000Y-27900000D01*
X41600000Y-28300000D02*
X41700000Y-28300000D01*
%TO.N,SIM2_DET*%
D17*
X44550000Y-21600000D02*
X44550000Y-21650000D01*
X44750000Y-19200000D02*
X44750000Y-21400000D01*
X44800000Y-19050000D02*
X44800000Y-19150000D01*
X44750000Y-21400000D02*
X44550000Y-21600000D01*
X58550000Y-16300000D02*
X57850000Y-16300000D01*
X57850000Y-16300000D02*
X56100000Y-18050000D01*
X44500000Y-25250000D02*
X44750000Y-25500000D01*
X56100000Y-18050000D02*
X45250000Y-18050000D01*
X58900000Y-15950000D02*
X58550000Y-16300000D01*
X44850000Y-19000000D02*
X44800000Y-19050000D01*
X44900000Y-18300000D02*
X44900000Y-18400000D01*
X45100000Y-18100000D02*
X44900000Y-18300000D01*
X44550000Y-21650000D02*
X44500000Y-21700000D01*
X44800000Y-19150000D02*
X44750000Y-19200000D01*
X44900000Y-18400000D02*
X44850000Y-18450000D01*
X45250000Y-18050000D02*
X45200000Y-18100000D01*
X45200000Y-18100000D02*
X45100000Y-18100000D01*
X44850000Y-18450000D02*
X44850000Y-19000000D01*
X44500000Y-21700000D02*
X44500000Y-25250000D01*
%TO.N,LSE_IN*%
X60750000Y-31250000D02*
X60900000Y-31250000D01*
X57300000Y-27950000D02*
X57350000Y-27950000D01*
X57550000Y-28050000D02*
X60750000Y-31250000D01*
X60900000Y-31250000D02*
X60950000Y-31300000D01*
X62250000Y-30850000D02*
X62250000Y-30500000D01*
X51550000Y-27800000D02*
X57000000Y-27800000D01*
X62200000Y-30950000D02*
X62200000Y-30900000D01*
X57050000Y-27850000D02*
X57100000Y-27850000D01*
X57400000Y-28000000D02*
X57450000Y-28000000D01*
X51400000Y-27750000D02*
X51500000Y-27750000D01*
X61900000Y-31200000D02*
X61950000Y-31200000D01*
X51150000Y-27500000D02*
X51400000Y-27750000D01*
X57500000Y-28050000D02*
X57550000Y-28050000D01*
X57350000Y-27950000D02*
X57400000Y-28000000D01*
X51500000Y-27750000D02*
X51550000Y-27800000D01*
X61950000Y-31200000D02*
X62200000Y-30950000D01*
X44750000Y-27500000D02*
X51150000Y-27500000D01*
X61850000Y-31250000D02*
X61900000Y-31200000D01*
X57100000Y-27850000D02*
X57150000Y-27900000D01*
X57450000Y-28000000D02*
X57500000Y-28050000D01*
X57150000Y-27900000D02*
X57250000Y-27900000D01*
X61000000Y-31300000D02*
X61050000Y-31250000D01*
X57250000Y-27900000D02*
X57300000Y-27950000D01*
X61050000Y-31250000D02*
X61850000Y-31250000D01*
X60950000Y-31300000D02*
X61000000Y-31300000D01*
X57000000Y-27800000D02*
X57050000Y-27850000D01*
X62200000Y-30900000D02*
X62250000Y-30850000D01*
%TO.N,GNSS_TX_U1*%
D16*
X62950000Y-32650000D02*
X64900000Y-32650000D01*
X55350000Y-36300000D02*
X55400000Y-36350000D01*
X52700000Y-36050000D02*
X52750000Y-36100000D01*
X65099999Y-32500000D02*
X65099999Y-32450000D01*
X65000000Y-32600000D02*
X65099999Y-32500000D01*
X47300000Y-35050000D02*
X50800000Y-35050000D01*
X55700000Y-36300000D02*
X57050000Y-34950000D01*
X57850000Y-34500000D02*
X58750000Y-34500000D01*
X61000000Y-33450000D02*
X61050000Y-33400000D01*
X64900000Y-32650000D02*
X64950000Y-32600000D01*
X62300000Y-33250000D02*
X62350000Y-33200000D01*
X55300000Y-36300000D02*
X55350000Y-36300000D01*
X65099999Y-32450000D02*
X65150000Y-32400000D01*
X55100000Y-36100000D02*
X55300000Y-36300000D01*
X57350000Y-34900000D02*
X57450000Y-34900000D01*
X47250000Y-35100000D02*
X47300000Y-35050000D01*
X55600000Y-36350000D02*
X55650000Y-36300000D01*
X55650000Y-36300000D02*
X55700000Y-36300000D01*
X61250000Y-33250000D02*
X62300000Y-33250000D01*
X55400000Y-36350000D02*
X55600000Y-36350000D01*
X52100000Y-35550000D02*
X52600000Y-36050000D01*
X46950000Y-35350000D02*
X47200000Y-35100000D01*
X51250000Y-35500000D02*
X51350000Y-35500000D01*
X52750000Y-36100000D02*
X55100000Y-36100000D01*
X57300000Y-34950000D02*
X57350000Y-34900000D01*
X65150000Y-32200000D02*
X65599999Y-31750000D01*
X51400000Y-35550000D02*
X52100000Y-35550000D01*
X58800000Y-34450000D02*
X58900000Y-34450000D01*
X47200000Y-35100000D02*
X47250000Y-35100000D01*
X65150000Y-32400000D02*
X65150000Y-32200000D01*
X57450000Y-34900000D02*
X57850000Y-34500000D01*
X61050000Y-33400000D02*
X61100000Y-33400000D01*
X58750000Y-34500000D02*
X58800000Y-34450000D01*
X62350000Y-33200000D02*
X62400000Y-33200000D01*
X58900000Y-34450000D02*
X59850000Y-33500000D01*
X51350000Y-35500000D02*
X51400000Y-35550000D01*
X45550000Y-35350000D02*
X46950000Y-35350000D01*
X64950000Y-32600000D02*
X65000000Y-32600000D01*
X62400000Y-33200000D02*
X62950000Y-32650000D01*
X60900000Y-33450000D02*
X61000000Y-33450000D01*
X57050000Y-34950000D02*
X57300000Y-34950000D01*
X60850000Y-33500000D02*
X60900000Y-33450000D01*
X59850000Y-33500000D02*
X60850000Y-33500000D01*
X61100000Y-33400000D02*
X61250000Y-33250000D01*
X50800000Y-35050000D02*
X51250000Y-35500000D01*
X52600000Y-36050000D02*
X52700000Y-36050000D01*
%TO.N,LORA_SCK_U1*%
X67400000Y-32150000D02*
X67450000Y-32100000D01*
X64900000Y-32900000D02*
X64950000Y-32850000D01*
X59000000Y-34650000D02*
X59700000Y-33950000D01*
X67850000Y-31550000D02*
X67850000Y-31500000D01*
X65050000Y-32799999D02*
X65099999Y-32799999D01*
X66900000Y-32450000D02*
X67000000Y-32350000D01*
X67050000Y-32350000D02*
X67250000Y-32150000D01*
X54850000Y-37050000D02*
X54950000Y-37050000D01*
X54800000Y-37100000D02*
X54850000Y-37050000D01*
X57100000Y-35200000D02*
X57300000Y-35200000D01*
X63000000Y-33950000D02*
X63050000Y-33900000D01*
X55400000Y-36600000D02*
X55600000Y-36600000D01*
X51500000Y-37100000D02*
X54800000Y-37100000D01*
X67850000Y-30950000D02*
X67850000Y-30900000D01*
X63050000Y-33900000D02*
X63100000Y-33900000D01*
X55750000Y-36500000D02*
X55800000Y-36500000D01*
X67600000Y-31950000D02*
X67650000Y-31900000D01*
X57550000Y-35100000D02*
X57900000Y-34750000D01*
X55700000Y-36550000D02*
X55750000Y-36500000D01*
X67850000Y-31500000D02*
X67950000Y-31400000D01*
X58900000Y-34700000D02*
X58950000Y-34650000D01*
X67600000Y-32000000D02*
X67600000Y-31950000D01*
X57350000Y-35150000D02*
X57450000Y-35150000D01*
X58800000Y-34700000D02*
X58900000Y-34700000D01*
X67950000Y-31400000D02*
X67950000Y-31050000D01*
X59700000Y-33950000D02*
X63000000Y-33950000D01*
X51450000Y-37150000D02*
X51500000Y-37100000D01*
X57500000Y-35100000D02*
X57550000Y-35100000D01*
X49550000Y-37150000D02*
X51450000Y-37150000D01*
X67500000Y-32100000D02*
X67600000Y-32000000D01*
X64950000Y-32850000D02*
X65000000Y-32850000D01*
X65450000Y-32450000D02*
X66900000Y-32450000D01*
X67250000Y-32150000D02*
X67400000Y-32150000D01*
X49450000Y-37250000D02*
X49550000Y-37150000D01*
X67850000Y-30900000D02*
X65000000Y-28050000D01*
X58950000Y-34650000D02*
X59000000Y-34650000D01*
X58750000Y-34750000D02*
X58800000Y-34700000D01*
X67000000Y-32350000D02*
X67050000Y-32350000D01*
X57450000Y-35150000D02*
X57500000Y-35100000D01*
X55800000Y-36500000D02*
X57100000Y-35200000D01*
X67650000Y-31900000D02*
X67650000Y-31750000D01*
X65099999Y-32799999D02*
X65450000Y-32450000D01*
X67450000Y-32100000D02*
X67500000Y-32100000D01*
X47550000Y-37250000D02*
X49450000Y-37250000D01*
X55600000Y-36600000D02*
X55650000Y-36550000D01*
X55650000Y-36550000D02*
X55700000Y-36550000D01*
X65000000Y-32850000D02*
X65050000Y-32799999D01*
X57300000Y-35200000D02*
X57350000Y-35150000D01*
X67950000Y-31050000D02*
X67850000Y-30950000D01*
X57900000Y-34750000D02*
X58750000Y-34750000D01*
X54950000Y-37050000D02*
X55400000Y-36600000D01*
X65000000Y-28050000D02*
X65000000Y-27450000D01*
X64099999Y-32900000D02*
X64900000Y-32900000D01*
X67650000Y-31750000D02*
X67850000Y-31550000D01*
X63100000Y-33900000D02*
X64099999Y-32900000D01*
%TO.N,VCORE_1V1*%
D17*
X52900000Y-32100000D02*
X52900000Y-32150000D01*
X52900000Y-32150000D02*
X52950000Y-32200000D01*
X47550000Y-24400000D02*
X47750000Y-24600000D01*
X53000000Y-32299999D02*
X53000000Y-32350000D01*
X52950000Y-32200000D02*
X52950000Y-32250000D01*
X47250000Y-22850000D02*
X47550000Y-23150000D01*
X52950000Y-32250000D02*
X53000000Y-32299999D01*
X55200000Y-34550000D02*
X55200000Y-34600000D01*
X52700000Y-31650000D02*
X52700000Y-31700000D01*
X52750000Y-31750000D02*
X52750000Y-31800000D01*
X52550000Y-31300000D02*
X52550000Y-31400000D01*
X52650000Y-31600000D02*
X52700000Y-31650000D01*
X47750000Y-24600000D02*
X47750000Y-24750000D01*
X47150000Y-22850000D02*
X47250000Y-22850000D01*
X55200000Y-34600000D02*
X55250000Y-34650000D01*
X52750000Y-31800000D02*
X52800000Y-31850000D01*
X52850000Y-32000000D02*
X52850000Y-32049999D01*
X52700000Y-31700000D02*
X52750000Y-31750000D01*
X55250000Y-34650000D02*
X55250000Y-35750000D01*
X52650000Y-31550000D02*
X52650000Y-31600000D01*
X47550000Y-23150000D02*
X47550000Y-24400000D01*
X52600000Y-31500000D02*
X52650000Y-31550000D01*
X52800000Y-31850000D02*
X52800000Y-31950000D01*
X52550000Y-31400000D02*
X52600000Y-31450000D01*
X52600000Y-31450000D02*
X52600000Y-31500000D01*
X53000000Y-32350000D02*
X55200000Y-34550000D01*
X52800000Y-31950000D02*
X52850000Y-32000000D01*
X55250000Y-35750000D02*
X55500000Y-36000000D01*
X52850000Y-32049999D02*
X52900000Y-32100000D01*
X47000000Y-22700000D02*
X47150000Y-22850000D01*
%TO.N,CELL_STATUS_U16*%
D16*
X38800000Y-33250000D02*
X38850000Y-33200000D01*
X45100000Y-33400000D02*
X45150000Y-33400000D01*
X38850000Y-33200000D02*
X40850000Y-33200000D01*
X38700000Y-33299999D02*
X38750000Y-33250000D01*
X45150000Y-33400000D02*
X45200000Y-33450000D01*
X43050000Y-32850000D02*
X44550000Y-32850000D01*
X45200000Y-33450000D02*
X47350000Y-33450000D01*
X41200000Y-32900000D02*
X43000000Y-32900000D01*
X32400000Y-34200000D02*
X37300000Y-34200000D01*
X37300000Y-34200000D02*
X38150000Y-33350000D01*
X38750000Y-33250000D02*
X38800000Y-33250000D01*
X41150000Y-32950000D02*
X41200000Y-32900000D01*
X40850000Y-33200000D02*
X41100000Y-32950000D01*
X38250000Y-33350000D02*
X38300000Y-33299999D01*
X47850000Y-33900000D02*
X47900000Y-33950000D01*
X41100000Y-32950000D02*
X41150000Y-32950000D01*
X38300000Y-33299999D02*
X38700000Y-33299999D01*
X44550000Y-32850000D02*
X45100000Y-33400000D01*
X38150000Y-33350000D02*
X38250000Y-33350000D01*
X47800000Y-33900000D02*
X47850000Y-33900000D01*
X47350000Y-33450000D02*
X47800000Y-33900000D01*
X47900000Y-33950000D02*
X51500000Y-33950000D01*
X43000000Y-32900000D02*
X43050000Y-32850000D01*
%TO.N,CELL_RI_U16*%
X57500000Y-32150000D02*
X57350000Y-32150000D01*
X53550000Y-31800000D02*
X52750000Y-31000000D01*
X52150000Y-30950000D02*
X51800000Y-31300000D01*
X52650000Y-30950000D02*
X52150000Y-30950000D01*
X48100000Y-31700000D02*
X48050000Y-31700000D01*
X43150000Y-32600000D02*
X29250000Y-32600000D01*
X52700000Y-31000000D02*
X52650000Y-30950000D01*
X44100000Y-31750000D02*
X43300000Y-32549999D01*
X56900000Y-31800000D02*
X53550000Y-31800000D01*
X52750000Y-31000000D02*
X52700000Y-31000000D01*
X57350000Y-32150000D02*
X57050000Y-31850000D01*
X51800000Y-31300000D02*
X51750000Y-31300000D01*
X51700000Y-31350000D02*
X48450000Y-31350000D01*
X48050000Y-31700000D02*
X48000000Y-31750000D01*
X29250000Y-32600000D02*
X29200000Y-32549999D01*
X48000000Y-31750000D02*
X44100000Y-31750000D01*
X51750000Y-31300000D02*
X51700000Y-31350000D01*
X48450000Y-31350000D02*
X48100000Y-31700000D01*
X43200000Y-32549999D02*
X43150000Y-32600000D01*
X57050000Y-31850000D02*
X56950000Y-31850000D01*
X43300000Y-32549999D02*
X43200000Y-32549999D01*
X56950000Y-31850000D02*
X56900000Y-31800000D01*
%TO.N,ACCEL_INT*%
D17*
X65450000Y-29900000D02*
X65500000Y-29850000D01*
X65599999Y-29800000D02*
X65650000Y-29800000D01*
X65300000Y-29950000D02*
X65349999Y-29950000D01*
X65099999Y-30050000D02*
X65150000Y-30000000D01*
X65550000Y-29850000D02*
X65599999Y-29800000D01*
X61650000Y-30000000D02*
X61700000Y-30050000D01*
X65400000Y-29900000D02*
X65450000Y-29900000D01*
X60800000Y-30000000D02*
X61650000Y-30000000D01*
X65500000Y-29850000D02*
X65550000Y-29850000D01*
X65349999Y-29950000D02*
X65400000Y-29900000D01*
X61700000Y-30050000D02*
X65099999Y-30050000D01*
X65250000Y-30000000D02*
X65300000Y-29950000D01*
X65150000Y-30000000D02*
X65250000Y-30000000D01*
%TO.N,SD_D0_U1*%
X86850000Y-23500000D02*
X86900000Y-23450000D01*
X83250000Y-23850000D02*
X83300000Y-23800000D01*
X86800000Y-23500000D02*
X86850000Y-23500000D01*
X87350000Y-23250000D02*
X87400000Y-23250000D01*
X86650000Y-23600000D02*
X86700000Y-23550000D01*
X86700000Y-23550000D02*
X86750000Y-23550000D01*
X67750000Y-26700000D02*
X67800000Y-26650000D01*
X83150000Y-23850000D02*
X83250000Y-23850000D01*
X86950000Y-23450000D02*
X87000000Y-23400000D01*
X61650000Y-27450000D02*
X63150000Y-27450000D01*
X63700000Y-26900000D02*
X63800000Y-26900000D01*
X86900000Y-23450000D02*
X86950000Y-23450000D01*
X80650000Y-25650000D02*
X82250000Y-24050000D01*
X63150000Y-27450000D02*
X63700000Y-26900000D01*
X86750000Y-23550000D02*
X86800000Y-23500000D01*
X69250000Y-25700000D02*
X69300000Y-25650000D01*
X69150000Y-25700000D02*
X69250000Y-25700000D01*
X67550000Y-26750000D02*
X67600000Y-26750000D01*
X87400000Y-23250000D02*
X87450000Y-23200000D01*
X86550000Y-23650000D02*
X86600000Y-23600000D01*
X67650000Y-26700000D02*
X67750000Y-26700000D01*
X86600000Y-23600000D02*
X86650000Y-23600000D01*
X87250000Y-23300000D02*
X87300000Y-23300000D01*
X82950000Y-24050000D02*
X83150000Y-23850000D01*
X86400000Y-23700000D02*
X86450000Y-23650000D01*
X61600000Y-27500000D02*
X61650000Y-27450000D01*
X87500000Y-23200000D02*
X87550000Y-23150000D01*
X69300000Y-25650000D02*
X80650000Y-25650000D01*
X87800000Y-23050000D02*
X87850000Y-23050000D01*
X69050000Y-25750000D02*
X69100000Y-25750000D01*
X87100000Y-23400000D02*
X87150000Y-23350000D01*
X69100000Y-25750000D02*
X69150000Y-25700000D01*
X68150000Y-26650000D02*
X69050000Y-25750000D01*
X61500000Y-27500000D02*
X61600000Y-27500000D01*
X86200000Y-23800000D02*
X86250000Y-23750000D01*
X86250000Y-23750000D02*
X86300000Y-23750000D01*
X61250000Y-28150000D02*
X61250000Y-27750000D01*
X60850000Y-28550000D02*
X61250000Y-28150000D01*
X86450000Y-23650000D02*
X86550000Y-23650000D01*
X67600000Y-26750000D02*
X67650000Y-26700000D01*
X82250000Y-24050000D02*
X82950000Y-24050000D01*
X83300000Y-23800000D02*
X86200000Y-23800000D01*
X87300000Y-23300000D02*
X87350000Y-23250000D01*
X87550000Y-23150000D02*
X87650000Y-23150000D01*
X67450000Y-26850000D02*
X67550000Y-26750000D01*
X67800000Y-26650000D02*
X68150000Y-26650000D01*
X87650000Y-23150000D02*
X87700000Y-23100000D01*
X86300000Y-23750000D02*
X86350000Y-23700000D01*
X87450000Y-23200000D02*
X87500000Y-23200000D01*
X87700000Y-23100000D02*
X87750000Y-23100000D01*
X61250000Y-27750000D02*
X61500000Y-27500000D01*
X87750000Y-23100000D02*
X87800000Y-23050000D01*
X63850000Y-26850000D02*
X67450000Y-26850000D01*
X87000000Y-23400000D02*
X87100000Y-23400000D01*
X86350000Y-23700000D02*
X86400000Y-23700000D01*
X87200000Y-23350000D02*
X87250000Y-23300000D01*
X87150000Y-23350000D02*
X87200000Y-23350000D01*
X63800000Y-26900000D02*
X63850000Y-26850000D01*
%TO.N,SD_D1_U1*%
D16*
X60900000Y-26600000D02*
X60950000Y-26550000D01*
X68200000Y-26250000D02*
X68950000Y-25500000D01*
X60100000Y-28500000D02*
X60550000Y-28050000D01*
X60950000Y-26550000D02*
X62050000Y-26550000D01*
X60600000Y-26800000D02*
X60800000Y-26600000D01*
X62450000Y-26250000D02*
X68200000Y-26250000D01*
X82850000Y-22500000D02*
X82900000Y-22450000D01*
X62400000Y-26300000D02*
X62450000Y-26250000D01*
X69000000Y-25500000D02*
X69050000Y-25450000D01*
X74900000Y-23650000D02*
X75000000Y-23650000D01*
X80200000Y-22900000D02*
X80850000Y-22900000D01*
X81250000Y-22500000D02*
X82850000Y-22500000D01*
X68950000Y-25500000D02*
X69000000Y-25500000D01*
X60800000Y-26600000D02*
X60900000Y-26600000D01*
X73150000Y-25400000D02*
X74900000Y-23650000D01*
X69150000Y-25450000D02*
X69200000Y-25400000D01*
X60600000Y-26850000D02*
X60600000Y-26800000D01*
X80850000Y-22900000D02*
X81250000Y-22500000D01*
X69050000Y-25450000D02*
X69150000Y-25450000D01*
X75000000Y-23650000D02*
X75050000Y-23600000D01*
X69200000Y-25400000D02*
X73150000Y-25400000D01*
X60550000Y-28050000D02*
X60550000Y-26900000D01*
X75050000Y-23600000D02*
X79500000Y-23600000D01*
X62300000Y-26300000D02*
X62400000Y-26300000D01*
X60550000Y-26900000D02*
X60600000Y-26850000D01*
X62050000Y-26550000D02*
X62300000Y-26300000D01*
X79500000Y-23600000D02*
X80200000Y-22900000D01*
%TO.N,USB_VBUS_SENSE*%
X44300000Y-21550000D02*
X44250000Y-21600000D01*
X44450000Y-27300000D02*
X44450000Y-27350000D01*
X44600000Y-27800000D02*
X44650000Y-27850000D01*
X56900000Y-28050000D02*
X57850000Y-29000000D01*
X44450000Y-25650000D02*
X44450000Y-25700000D01*
X44350000Y-19500000D02*
X44350000Y-21450000D01*
X44650000Y-27850000D02*
X51150000Y-27850000D01*
X44450000Y-27700000D02*
X44550000Y-27800000D01*
X51150000Y-27850000D02*
X51300000Y-28000000D01*
X44450000Y-27350000D02*
X44400000Y-27400000D01*
X51450000Y-28050000D02*
X56900000Y-28050000D01*
X44450000Y-25700000D02*
X44600000Y-25850000D01*
X44400000Y-27400000D02*
X44400000Y-27600000D01*
X44250000Y-21600000D02*
X44250000Y-25350000D01*
X44450000Y-27650000D02*
X44450000Y-27700000D01*
X44400000Y-25600000D02*
X44450000Y-25650000D01*
X51400000Y-28000000D02*
X51450000Y-28050000D01*
X44400000Y-27600000D02*
X44450000Y-27650000D01*
X51300000Y-28000000D02*
X51400000Y-28000000D01*
X44600000Y-25850000D02*
X44600000Y-27150000D01*
X44250000Y-25350000D02*
X44400000Y-25500000D01*
X44300000Y-21500000D02*
X44300000Y-21550000D01*
X44550000Y-27800000D02*
X44600000Y-27800000D01*
X44400000Y-25500000D02*
X44400000Y-25600000D01*
X44600000Y-27150000D02*
X44450000Y-27300000D01*
X44350000Y-21450000D02*
X44300000Y-21500000D01*
%TO.N,SD_CK_U1*%
D17*
X55950000Y-18800000D02*
X56000000Y-18850000D01*
X56350000Y-19850000D02*
X56350000Y-19900000D01*
X56400000Y-20700000D02*
X55900000Y-21200000D01*
X49950000Y-18650000D02*
X55000000Y-18650000D01*
X55150000Y-18500000D02*
X55200000Y-18500000D01*
X49150000Y-19300000D02*
X49700000Y-18750000D01*
X47250000Y-19250000D02*
X47300000Y-19300000D01*
X55200000Y-18500000D02*
X55250000Y-18450000D01*
X47300000Y-19300000D02*
X49150000Y-19300000D01*
X55250000Y-18450000D02*
X55650000Y-18450000D01*
X49900000Y-18700000D02*
X49950000Y-18650000D01*
X56400000Y-19950000D02*
X56400000Y-20700000D01*
X55900000Y-18650000D02*
X55900000Y-18700000D01*
X55750000Y-18550000D02*
X55800000Y-18550000D01*
X56350000Y-19900000D02*
X56400000Y-19950000D01*
X55900000Y-18700000D02*
X55950000Y-18750000D01*
X49750000Y-18750000D02*
X49800000Y-18700000D01*
X56000000Y-18850000D02*
X56000000Y-19500000D01*
X55800000Y-18550000D02*
X55900000Y-18650000D01*
X45200000Y-19250000D02*
X47250000Y-19250000D01*
X55000000Y-18650000D02*
X55150000Y-18500000D01*
X56000000Y-19500000D02*
X56350000Y-19850000D01*
X49700000Y-18750000D02*
X49750000Y-18750000D01*
X55950000Y-18750000D02*
X55950000Y-18800000D01*
X55650000Y-18450000D02*
X55750000Y-18550000D01*
X49800000Y-18700000D02*
X49900000Y-18700000D01*
%TO.N,REV_STRAP1*%
D16*
X48350000Y-21600000D02*
X48400000Y-21650000D01*
X48400000Y-21650000D02*
X49100000Y-21650000D01*
X51800000Y-21700000D02*
X52300000Y-22200000D01*
X54900000Y-22450000D02*
X56700000Y-22450000D01*
X48050000Y-21450000D02*
X48150000Y-21450000D01*
X48150000Y-21450000D02*
X48300000Y-21600000D01*
X54850000Y-22400000D02*
X54900000Y-22450000D01*
X54800000Y-22400000D02*
X54850000Y-22400000D01*
X49100000Y-21650000D02*
X49150000Y-21700000D01*
X52300000Y-22200000D02*
X52350000Y-22200000D01*
X48300000Y-21600000D02*
X48350000Y-21600000D01*
X52350000Y-22200000D02*
X52400000Y-22250000D01*
X52400000Y-22250000D02*
X54650000Y-22250000D01*
X56700000Y-22450000D02*
X57400000Y-23150000D01*
X49150000Y-21700000D02*
X51800000Y-21700000D01*
X54650000Y-22250000D02*
X54800000Y-22400000D01*
%TO.N,I2C2_SCL_BUS*%
D17*
X66150000Y-29550000D02*
X65950000Y-29350000D01*
X65900000Y-29350000D02*
X65849999Y-29300000D01*
X66200000Y-29700000D02*
X66150000Y-29650000D01*
X67300000Y-31800000D02*
X66550000Y-31050000D01*
X65849999Y-29300000D02*
X65349999Y-29300000D01*
X66550000Y-30600000D02*
X66500000Y-30550000D01*
X66200000Y-30150000D02*
X66200000Y-29700000D01*
X65950000Y-29350000D02*
X65900000Y-29350000D01*
X66500000Y-30550000D02*
X66500000Y-30450000D01*
X66150000Y-29650000D02*
X66150000Y-29550000D01*
X66550000Y-31050000D02*
X66550000Y-30600000D01*
X66500000Y-30450000D02*
X66200000Y-30150000D01*
%TO.N,I2C2_SDA_BUS*%
X62400000Y-21900000D02*
X62000000Y-21900000D01*
X60850000Y-22250000D02*
X60800000Y-22300000D01*
X52550000Y-21450000D02*
X51150000Y-21450000D01*
X52700000Y-21500000D02*
X52600000Y-21500000D01*
X58350000Y-22350000D02*
X57700000Y-21700000D01*
X61700000Y-22200000D02*
X61600000Y-22200000D01*
X52850000Y-21650000D02*
X52700000Y-21500000D01*
X62000000Y-21900000D02*
X61700000Y-22200000D01*
X60700000Y-22300000D02*
X60650000Y-22350000D01*
X60650000Y-22350000D02*
X58350000Y-22350000D01*
X61550000Y-22250000D02*
X60850000Y-22250000D01*
X57550000Y-21650000D02*
X52850000Y-21650000D01*
X51150000Y-21450000D02*
X50250000Y-20550000D01*
X61600000Y-22200000D02*
X61550000Y-22250000D01*
X57600000Y-21700000D02*
X57550000Y-21650000D01*
X60800000Y-22300000D02*
X60700000Y-22300000D01*
X57700000Y-21700000D02*
X57600000Y-21700000D01*
X52600000Y-21500000D02*
X52550000Y-21450000D01*
%TD*%
M02*
