%TF.GenerationSoftware,KiCad,Pcbnew,10.0.6*%
%TF.CreationDate,2026-09-29T22:29:40+03:00*%
%TF.ProjectId,PCB-MAIN_8L_COMPLETE_105_CANDIDATE_REV_B,5043422d-4d41-4494-9e5f-384c5f434f4d,B*%
%TF.SameCoordinates,Original*%
%TF.FileFunction,Copper,L4,Inr*%
%TF.FilePolarity,Positive*%
%FSLAX46Y46*%
G04 Gerber Fmt 4.6, Leading zero omitted, Abs format (unit mm)*
G04 Created by KiCad (PCBNEW 10.0.6) date 2026-09-29 22:29:40*
%MOMM*%
%LPD*%
G01*
G04 APERTURE LIST*
G04 Aperture macros list*
%AMRoundRect*
0 Rectangle with rounded corners*
0 $1 Rounding radius*
0 $2 $3 $4 $5 $6 $7 $8 $9 X,Y pos of 4 corners*
0 Add a 4 corners polygon primitive as box body*
4,1,4,$2,$3,$4,$5,$6,$7,$8,$9,$2,$3,0*
0 Add four circle primitives for the rounded corners*
1,1,$1+$1,$2,$3*
1,1,$1+$1,$4,$5*
1,1,$1+$1,$6,$7*
1,1,$1+$1,$8,$9*
0 Add four rect primitives between the rounded corners*
20,1,$1+$1,$2,$3,$4,$5,0*
20,1,$1+$1,$4,$5,$6,$7,0*
20,1,$1+$1,$6,$7,$8,$9,0*
20,1,$1+$1,$8,$9,$2,$3,0*%
G04 Aperture macros list end*
%TA.AperFunction,ComponentPad*%
%ADD10O,1.000000X2.100000*%
%TD*%
%TA.AperFunction,ComponentPad*%
%ADD11O,1.000000X1.800000*%
%TD*%
%TA.AperFunction,ComponentPad*%
%ADD12RoundRect,0.300000X0.450000X-0.450000X0.450000X0.450000X-0.450000X0.450000X-0.450000X-0.450000X0*%
%TD*%
%TA.AperFunction,ComponentPad*%
%ADD13C,1.500000*%
%TD*%
%TA.AperFunction,ViaPad*%
%ADD14C,0.250000*%
%TD*%
%TA.AperFunction,ViaPad*%
%ADD15C,0.500000*%
%TD*%
%TA.AperFunction,Conductor*%
%ADD16C,0.150000*%
%TD*%
%TA.AperFunction,Conductor*%
%ADD17C,0.300000*%
%TD*%
%TA.AperFunction,Conductor*%
%ADD18C,0.250000*%
%TD*%
%TA.AperFunction,Conductor*%
%ADD19C,0.100000*%
%TD*%
%TA.AperFunction,Conductor*%
%ADD20C,0.200000*%
%TD*%
%TA.AperFunction,Conductor*%
%ADD21C,0.800000*%
%TD*%
%TA.AperFunction,Conductor*%
%ADD22C,0.400000*%
%TD*%
G04 APERTURE END LIST*
D10*
%TO.N,USB_SHIELD*%
%TO.C,J11*%
X46320000Y-6780000D03*
D11*
X46320000Y-2600000D03*
D10*
X37680000Y-6780000D03*
D11*
X37680000Y-2600000D03*
%TD*%
D12*
%TO.N,3V8_MODEM*%
%TO.C,J_PWR1*%
X8920000Y-29500000D03*
D13*
%TO.N,GND_MODEM*%
X8920000Y-26500000D03*
%TO.N,3V3_DIGITAL*%
X8920000Y-23500000D03*
%TO.N,GND_DIGITAL*%
X8920000Y-20500000D03*
%TO.N,1V8_MIC*%
X8920000Y-17500000D03*
%TO.N,GND_MIC*%
X8920000Y-14500000D03*
%TO.N,PWR_GOOD*%
X11920000Y-29500000D03*
%TO.N,FAULT*%
X11920000Y-26500000D03*
%TO.N,EN_MODEM*%
X11920000Y-23500000D03*
%TO.N,EN_AUX*%
X11920000Y-20500000D03*
%TO.N,I2C2_SCL_BUS*%
X11920000Y-17500000D03*
%TO.N,I2C2_SDA_BUS*%
X11920000Y-14500000D03*
%TD*%
D14*
%TO.N,LORA_NSS_U1*%
X37200000Y-31500000D03*
X45500000Y-38400000D03*
X40800000Y-26800000D03*
X38700000Y-37000000D03*
D15*
%TO.N,LORA_NSS_U10*%
X51812600Y-42424000D03*
X68071300Y-54386200D03*
%TO.N,GND_DIGITAL*%
X78225000Y-22100000D03*
X25100000Y-23900000D03*
X67475000Y-61475000D03*
X62725000Y-24350000D03*
X104975000Y-19850000D03*
X43100000Y-32100000D03*
X62850000Y-35975000D03*
X61475000Y-54725000D03*
X82475000Y-62725000D03*
X94850000Y-4225000D03*
X74475000Y-68975000D03*
X45350000Y-8725000D03*
X62100000Y-32225000D03*
X66224999Y-34850000D03*
X67850000Y-27225000D03*
X58725000Y-53225000D03*
X41350000Y-9725000D03*
X104600000Y-31350000D03*
X65974999Y-67475000D03*
X64224999Y-50725000D03*
X49650000Y-20650000D03*
X61350000Y-42975000D03*
X42975000Y-29225000D03*
X41100000Y-12725000D03*
X55850000Y-20100000D03*
X57600000Y-68975000D03*
X58050000Y-24600000D03*
X43100000Y-27100000D03*
X79100000Y-26400000D03*
X57850000Y-40225000D03*
X81225000Y-19850000D03*
X68100000Y-67975000D03*
X48225000Y-62725000D03*
X44100000Y-12725000D03*
X107100000Y-28725000D03*
X67475000Y-46975000D03*
X16600000Y-27475000D03*
X58725000Y-37725000D03*
X46975000Y-23350000D03*
X95100000Y-29725000D03*
X90725000Y-32975000D03*
X45350000Y-37725000D03*
X64474999Y-53100000D03*
X52475000Y-47725000D03*
X56975000Y-38850000D03*
X61725000Y-29475000D03*
X62600000Y-49600000D03*
X85100000Y-17350000D03*
X48100000Y-19975000D03*
X40975000Y-25100000D03*
X103100000Y-17975000D03*
X48350000Y-57975000D03*
X47350000Y-18725000D03*
X82475000Y-48225000D03*
X92600000Y-23850000D03*
X83850000Y-54975000D03*
X84225000Y-20975000D03*
X37850000Y-8725000D03*
X64599999Y-30975000D03*
D14*
X82582500Y-21000000D03*
D15*
X80475000Y-54600000D03*
X69350000Y-26225000D03*
X43350000Y-8725000D03*
X74475000Y-73975000D03*
X42350000Y-21975000D03*
X54075000Y-19825000D03*
X86850000Y-20850000D03*
X62475000Y-20700000D03*
X82475000Y-63975000D03*
X60850000Y-24475000D03*
X90600000Y-7600000D03*
X91850000Y-20475000D03*
X68100000Y-38475000D03*
X61350000Y-48225000D03*
X60100000Y-61975000D03*
X81600000Y-3225000D03*
X55725000Y-51850000D03*
X69850000Y-35275000D03*
X55600000Y-44225000D03*
X52250000Y-24650000D03*
X65974999Y-66724999D03*
X43100000Y-34600000D03*
X61350000Y-47475000D03*
D14*
X66099999Y-30650000D03*
D15*
X67475000Y-63975000D03*
X69350000Y-28975000D03*
X38225000Y-8225000D03*
X61600000Y-61850000D03*
X53100000Y-43475000D03*
X64224999Y-54975000D03*
X42600000Y-27725000D03*
X62850000Y-33475000D03*
X65175000Y-22050000D03*
X65849999Y-41725000D03*
X60726000Y-18633000D03*
X93100000Y-17350000D03*
X56850000Y-49600000D03*
X54700000Y-34800000D03*
X51400000Y-36650000D03*
X59400000Y-21800000D03*
X94100000Y-20475000D03*
X46300000Y-21220000D03*
X84350000Y-49475000D03*
X95100000Y-40725000D03*
X45350000Y-32975000D03*
X51275000Y-38850000D03*
X79350000Y-35350000D03*
X103350000Y-13475000D03*
X60850000Y-53475000D03*
X58100000Y-48225000D03*
X45350000Y-28475000D03*
X103600000Y-28475000D03*
X45850000Y-8225000D03*
X62500000Y-26750000D03*
X67475000Y-31225000D03*
X81475000Y-46100000D03*
X53975000Y-65474999D03*
X59850000Y-56975000D03*
X39600000Y-11475000D03*
X89225000Y-37225000D03*
X59100000Y-65474999D03*
X67225000Y-35225000D03*
X75050000Y-24800000D03*
X60975000Y-30725000D03*
X62850000Y-25225000D03*
X51475000Y-35050000D03*
X52775000Y-38850000D03*
X42600000Y-11475000D03*
X63850000Y-40225000D03*
X82100000Y-23475000D03*
X43100000Y-33350000D03*
X60350000Y-63850000D03*
X49600000Y-64974999D03*
X105475000Y-40600000D03*
X55129000Y-25641000D03*
X89225000Y-20975000D03*
X31975000Y-23850000D03*
X83850000Y-53725000D03*
X43100000Y-25850000D03*
X67850000Y-28475000D03*
X54600000Y-27150000D03*
X45100000Y-11475000D03*
X83850000Y-50975000D03*
X63350000Y-37725000D03*
X46100000Y-19975000D03*
X80475000Y-55850000D03*
X72316000Y-21300000D03*
X51975000Y-46100000D03*
X52400000Y-33150000D03*
X105475000Y-31225000D03*
X66724999Y-31975000D03*
X69850000Y-29975000D03*
X40275000Y-26525000D03*
X43350000Y-37725000D03*
X53975000Y-70475000D03*
X57750000Y-52550000D03*
X81475000Y-60600000D03*
X62850000Y-34725000D03*
X86600000Y-33725000D03*
X43100000Y-35850000D03*
%TO.N,BLE_RX_U11*%
X99080500Y-42469100D03*
X94343100Y-34450000D03*
%TO.N,BLE_TX_U11*%
X72921300Y-36456900D03*
X64634600Y-37310400D03*
%TO.N,3V3_DIGITAL*%
X62546000Y-61023100D03*
D14*
X40876800Y-35703300D03*
D15*
X54013500Y-43521900D03*
X86420300Y-24962700D03*
X85650500Y-24852800D03*
X83683400Y-18089700D03*
X85387400Y-21886000D03*
D14*
X41750000Y-30400000D03*
X80010000Y-20500000D03*
X56500000Y-38050000D03*
X40175000Y-31700000D03*
X57400000Y-19100000D03*
D15*
X59160100Y-42112900D03*
X84488000Y-32500000D03*
D14*
X16200000Y-29700000D03*
D15*
X60355600Y-37409200D03*
X72870400Y-28464900D03*
D14*
X61350000Y-25350000D03*
X17100000Y-34800000D03*
D15*
X61644000Y-40491800D03*
X67910300Y-36029700D03*
D14*
X14400000Y-27750000D03*
D15*
X80493400Y-49628000D03*
D14*
X59350000Y-36300000D03*
D15*
X16019400Y-17867400D03*
D14*
X44250000Y-29000000D03*
X44250000Y-26500000D03*
X58100000Y-18500000D03*
X80325000Y-23250000D03*
X61675000Y-27898000D03*
X26900000Y-29175000D03*
D15*
X64403900Y-40920900D03*
D14*
X41900000Y-34500000D03*
D15*
X88395000Y-7539100D03*
D14*
X44250000Y-34000000D03*
D15*
X88208700Y-18757300D03*
D14*
X18675000Y-28000000D03*
X32675000Y-18900000D03*
D15*
X65357400Y-56966100D03*
D14*
X46500000Y-37700000D03*
X42500000Y-33450000D03*
X45606900Y-20562000D03*
D15*
%TO.N,BLE_DFU_REQ*%
X58756700Y-38573400D03*
X87832500Y-32445000D03*
X81127900Y-37155000D03*
X96050000Y-40662500D03*
X50308300Y-36686500D03*
%TO.N,NRF_RESET_N*%
X96505800Y-38423300D03*
X94343400Y-36450000D03*
%TO.N,NRF_SWDIO*%
X103914200Y-40662500D03*
%TO.N,NRF_SWCLK*%
X104725000Y-40651700D03*
%TO.N,GND_MODEM*%
X16475000Y-73975000D03*
X65349999Y-17225000D03*
X38350000Y-54725000D03*
X20100000Y-27975000D03*
X15350000Y-15725000D03*
X61850000Y-17225000D03*
X62975000Y-17225000D03*
X15725000Y-40975000D03*
X71725000Y-11975000D03*
X19350000Y-36225000D03*
X25600000Y-39975000D03*
X23100000Y-47100000D03*
X18100000Y-57225000D03*
X35475000Y-12975000D03*
X16350000Y-33600000D03*
X8975000Y-50850000D03*
X19975000Y-17225000D03*
X15725000Y-4600000D03*
X20475000Y-59600000D03*
X20975000Y-39975000D03*
X25600000Y-35725000D03*
X19225000Y-29975000D03*
X38850000Y-57350000D03*
X28725000Y-4600000D03*
X60850000Y-14975000D03*
X14850000Y-32975000D03*
X25600000Y-34975000D03*
X30975000Y-56225000D03*
X11350000Y-40975000D03*
X11100000Y-46975000D03*
X17100000Y-17225000D03*
X21725000Y-17225000D03*
X15725000Y-33475000D03*
X20225000Y-19475000D03*
X42225000Y-64974999D03*
X31850000Y-15725000D03*
X39100000Y-57975000D03*
X15600000Y-29475000D03*
X19850000Y-39975000D03*
X25600000Y-58850000D03*
X21225000Y-67475000D03*
X7100000Y-51725000D03*
X18850000Y-17225000D03*
X26475000Y-19725000D03*
X31975000Y-62975000D03*
X34850000Y-16975000D03*
X7850000Y-52475000D03*
X31975000Y-40975000D03*
X39600000Y-30850000D03*
X71725000Y-4600000D03*
X34350000Y-27725000D03*
X31725000Y-19725000D03*
X24850000Y-47100000D03*
X11350000Y-42225000D03*
X22350000Y-35725000D03*
X21100000Y-37100000D03*
X11100000Y-53225000D03*
X11100000Y-54475000D03*
X26850000Y-37100000D03*
X17850000Y-14975000D03*
X17600000Y-39975000D03*
X22350000Y-58850000D03*
X56225000Y-29100000D03*
X24850000Y-43350000D03*
X11100000Y-49475000D03*
X27600000Y-59600000D03*
X22600000Y-68725000D03*
X15850000Y-36225000D03*
X22350000Y-32475000D03*
X23100000Y-56975000D03*
X17600000Y-30225000D03*
X30975000Y-54600000D03*
X16475000Y-68975000D03*
X18850000Y-55350000D03*
X11100000Y-55725000D03*
X58725000Y-4600000D03*
X20475000Y-44350000D03*
X32100000Y-43350000D03*
X32100000Y-44475000D03*
X39850000Y-64849999D03*
X27600000Y-44350000D03*
X31350000Y-34475000D03*
X20475000Y-46100000D03*
X23100000Y-43350000D03*
X38975000Y-53350000D03*
X24850000Y-56975000D03*
X15850000Y-44725000D03*
X19350000Y-33475000D03*
X26725000Y-39975000D03*
X11100000Y-48225000D03*
X58350000Y-15725000D03*
X25600000Y-30475000D03*
X20475000Y-57975000D03*
X23725000Y-68725000D03*
X60100000Y-17225000D03*
%TO.N,U8_PWRKEY_N*%
X16000700Y-32769800D03*
X13847500Y-57010400D03*
X18171400Y-36130600D03*
D14*
%TO.N,SD_D2_CARD*%
X87100000Y-19000000D03*
X89300000Y-19100000D03*
X90625000Y-23950000D03*
X90325000Y-23000000D03*
%TO.N,TEST_UART_RX_TP*%
X39350000Y-29900000D03*
X42500000Y-27100000D03*
X38950000Y-33549999D03*
D15*
%TO.N,TEST_UART_RX_U1*%
X45450000Y-31000000D03*
X38375000Y-33800000D03*
%TO.N,CELL_DTR_U16*%
X24240700Y-31466700D03*
X16502800Y-30222200D03*
D14*
X58800000Y-31300000D03*
X49500000Y-34700000D03*
X32300000Y-36400000D03*
D15*
X29124000Y-37014800D03*
%TO.N,NOR_NCS_U2*%
X69900000Y-33950000D03*
X52800000Y-35600000D03*
%TO.N,CELL_USB_DP_TP*%
X8200000Y-50150000D03*
D14*
%TO.N,SD_D3_CARD*%
X85000000Y-13400000D03*
X85900000Y-26300000D03*
X81900000Y-20500000D03*
X82700000Y-18600000D03*
X87600000Y-23700000D03*
%TO.N,SD_CMD_CARD*%
X81800000Y-21500000D03*
D15*
X88103900Y-10734600D03*
D14*
X83325000Y-24250000D03*
D15*
X93961400Y-21414100D03*
D14*
%TO.N,SD_CK_CARD*%
X81500000Y-22000000D03*
D15*
X43926200Y-19057600D03*
X86627700Y-11178600D03*
D14*
X79500000Y-18027200D03*
D15*
%TO.N,1V8_MIC*%
X53400000Y-42800000D03*
X36700000Y-60600000D03*
D14*
X34300000Y-33600000D03*
D15*
X17400000Y-26900000D03*
D14*
X34600000Y-36900000D03*
D15*
X9800000Y-25400000D03*
D14*
X34400000Y-35900000D03*
D15*
X37500000Y-24900000D03*
D14*
X71100000Y-49100000D03*
X77100000Y-55100000D03*
D15*
X44200000Y-43300000D03*
D14*
X59400000Y-39000000D03*
D15*
X5800000Y-38500000D03*
X58800000Y-39600000D03*
D14*
X35300000Y-27700000D03*
X82200000Y-64600000D03*
X35300000Y-31700000D03*
D15*
X35200000Y-26900000D03*
%TO.N,GND_MIC*%
X7350000Y-40850000D03*
X102725000Y-55600000D03*
X8850000Y-43225000D03*
X99600000Y-53850000D03*
X89850000Y-65974999D03*
X39475000Y-61975000D03*
X37100000Y-67725000D03*
D14*
X9850000Y-38800000D03*
D15*
X7600000Y-38350000D03*
X101975000Y-53975000D03*
X93225000Y-65224999D03*
X48600000Y-44725000D03*
X48600000Y-45350000D03*
X90850000Y-65099999D03*
X89100000Y-67725000D03*
X101100000Y-51725000D03*
X51100000Y-42475000D03*
X37100000Y-61850000D03*
X44100000Y-48725000D03*
X15850000Y-25975000D03*
X39350000Y-65474999D03*
D14*
%TO.N,LORA_DIO1*%
X46300000Y-34300000D03*
X64925000Y-53750000D03*
X58000000Y-47400000D03*
X64500000Y-49000000D03*
X60200000Y-47400000D03*
X65050000Y-48270000D03*
X61500000Y-46100000D03*
X54700000Y-47000000D03*
D15*
%TO.N,USB_SHIELD*%
X40473900Y-11575800D03*
%TO.N,NOR_IO3_U1*%
X39475000Y-28475000D03*
X54725000Y-36600000D03*
%TO.N,NOR_IO3_U2*%
X69975000Y-27725000D03*
X41475000Y-27850000D03*
%TO.N,LORA_MISO_U1*%
X64925000Y-51662900D03*
X50715400Y-41055300D03*
%TO.N,PDM_CLK_1V8_FANOUT*%
X39432200Y-61090100D03*
X38438000Y-67213200D03*
X90825100Y-63684400D03*
X7623400Y-41674800D03*
X7585700Y-37590700D03*
X101962700Y-55196600D03*
X90975300Y-67212300D03*
D14*
%TO.N,GNSS_ANT_BIAS_RAW*%
X61700000Y-65500000D03*
X49000000Y-51825000D03*
X59700000Y-56400000D03*
X54016800Y-55183000D03*
%TO.N,SD_D1_CARD*%
X84875000Y-25081100D03*
D15*
X96631600Y-15476200D03*
X84425000Y-25263800D03*
X92102900Y-24452700D03*
D14*
X86825000Y-24250000D03*
D15*
X85118700Y-20373200D03*
D14*
%TO.N,SIM_MUX_EN*%
X45200000Y-24500000D03*
X31100000Y-15900000D03*
%TO.N,SIM1_DET*%
X43800000Y-24500000D03*
D15*
X17807300Y-18006400D03*
X23447500Y-17933200D03*
D14*
X31800000Y-23200000D03*
X23200000Y-19000000D03*
X36700000Y-23300000D03*
D15*
%TO.N,PDM_DATA4*%
X60664100Y-45174800D03*
X45769900Y-25273700D03*
X48704800Y-26111000D03*
X49000500Y-35943500D03*
D14*
%TO.N,SIM2_DET*%
X58900000Y-15950000D03*
X44750000Y-25500000D03*
D15*
%TO.N,BLE_EN*%
X51644600Y-27235500D03*
X83659700Y-32462200D03*
X45921700Y-25975500D03*
%TO.N,SD_DET*%
X81357700Y-23702100D03*
X86366800Y-21500000D03*
X55444200Y-18983500D03*
X83861600Y-24833300D03*
X51477300Y-19675600D03*
X48693800Y-25352200D03*
X89200000Y-17720000D03*
D14*
%TO.N,LSE_IN*%
X44750000Y-27500000D03*
X62250000Y-30500000D03*
%TO.N,NRST*%
X56600000Y-25700000D03*
X53500000Y-20100000D03*
D15*
X53991000Y-20750000D03*
D14*
X62000000Y-28500000D03*
D15*
X50603600Y-28377000D03*
D14*
X75500000Y-22200000D03*
X62100000Y-29000000D03*
X65100000Y-24800000D03*
D15*
%TO.N,GNSS_PPS_U1*%
X46222100Y-59051300D03*
D14*
X45900000Y-35700000D03*
%TO.N,GNSS_TX_U1*%
X63550000Y-29650000D03*
X65599999Y-31750000D03*
X45550000Y-35350000D03*
D15*
%TO.N,GNSS_RX_U1*%
X45361200Y-54636400D03*
X44856800Y-54132000D03*
X44771500Y-36611100D03*
D14*
%TO.N,LORA_SCK_U1*%
X47550000Y-37250000D03*
X65000000Y-27450000D03*
D15*
%TO.N,LORA_MOSI_U1*%
X47371000Y-38996700D03*
X49251800Y-38977300D03*
%TO.N,PDM_DATA1*%
X50707500Y-39903600D03*
X59511000Y-43265000D03*
D14*
%TO.N,PDM_DATA3*%
X50500000Y-40500000D03*
X63600000Y-44800000D03*
X58800000Y-40800000D03*
%TO.N,PDM_CLK*%
X58000000Y-46900000D03*
X51500000Y-37800000D03*
X62000000Y-46300000D03*
X51800000Y-39200000D03*
X52000000Y-43200000D03*
X55400000Y-45600000D03*
D15*
%TO.N,NOR_CLK_U1*%
X55500000Y-24500000D03*
X54800000Y-19750000D03*
%TO.N,NOR_IO0_U1*%
X56450000Y-24700000D03*
X60500000Y-20950000D03*
%TO.N,NOR_IO1_U1*%
X57800000Y-25650000D03*
X61850000Y-21050000D03*
%TO.N,NOR_IO2_U1*%
X63500000Y-20950000D03*
X58400000Y-26500000D03*
%TO.N,BLE_TX_U1*%
X63903600Y-36868500D03*
X55000000Y-38826000D03*
D14*
%TO.N,VCORE_1V1*%
X55500000Y-36000000D03*
X57500000Y-37750000D03*
X47000000Y-22700000D03*
D15*
X55824000Y-34976200D03*
D14*
X52550000Y-31300000D03*
D15*
X61595600Y-32783100D03*
D14*
X47750000Y-24750000D03*
D15*
X52848000Y-39965400D03*
D14*
%TO.N,I2C2_SCL_U1*%
X62200000Y-32900000D03*
X60800000Y-34900000D03*
%TO.N,I2C2_SDA_U1*%
X50300000Y-35400000D03*
X56500000Y-34500000D03*
X47300000Y-36600000D03*
D15*
X44076800Y-37664100D03*
D14*
%TO.N,LORA_TXEN*%
X49000000Y-36800000D03*
D15*
X68443800Y-55568100D03*
D14*
X56600000Y-33900000D03*
D15*
X63959600Y-56423500D03*
D14*
X54400000Y-47500000D03*
X65500000Y-54900000D03*
D15*
X57225800Y-34448900D03*
D14*
X53100000Y-47000000D03*
X52000000Y-34000000D03*
D15*
%TO.N,LORA_RXEN*%
X83755700Y-56007900D03*
X58687700Y-33996100D03*
X65685900Y-51454300D03*
X80544500Y-53781000D03*
%TO.N,LORA_BUSY*%
X65618800Y-49571600D03*
X82425000Y-52325700D03*
X60808900Y-32998400D03*
D14*
%TO.N,LORA_RESET_N*%
X56400000Y-33100000D03*
D15*
X67456500Y-50630200D03*
D14*
X67600000Y-46400000D03*
D15*
X65253100Y-57857400D03*
D14*
%TO.N,CELL_PWRKEY_CMD*%
X60000000Y-58700000D03*
X65400000Y-39200000D03*
X64000000Y-57100000D03*
X67100000Y-36200000D03*
X63400000Y-35600000D03*
X68400000Y-45100000D03*
X43200000Y-60500000D03*
X48200000Y-60600000D03*
X32200000Y-61400000D03*
X59750000Y-32500000D03*
D15*
X15013500Y-38375600D03*
D14*
X68000000Y-56000000D03*
D15*
%TO.N,CELL_RESET_N_CMD*%
X14836500Y-31612500D03*
X60805800Y-31998900D03*
X48792100Y-32440600D03*
X48052100Y-33477100D03*
%TO.N,CELL_STATUS_U16*%
X32231200Y-34261200D03*
D14*
X58350000Y-32150000D03*
D15*
X14621700Y-36120100D03*
D14*
X51500000Y-33950000D03*
D15*
%TO.N,CELL_RI_U16*%
X18458800Y-31111900D03*
D14*
X57500000Y-32150000D03*
D15*
X29119400Y-32402600D03*
D14*
%TO.N,ACCEL_INT*%
X60800000Y-30000000D03*
X65750000Y-29737500D03*
%TO.N,TAMPER_IN_U1*%
X64800000Y-32300000D03*
X60600000Y-29500000D03*
X69600000Y-30900000D03*
X58300000Y-29500000D03*
X57300000Y-31200000D03*
%TO.N,SD_D0_U1*%
X87850000Y-23050000D03*
X60850000Y-28550000D03*
%TO.N,SD_D1_U1*%
X82900000Y-22450000D03*
X84400000Y-24200000D03*
X60100000Y-28500000D03*
D15*
%TO.N,MIC_WAKE*%
X55032000Y-46500000D03*
X56830400Y-32294000D03*
D14*
%TO.N,USB_VBUS_SENSE*%
X57850000Y-29000000D03*
X45300000Y-18500000D03*
D15*
X48026800Y-14800200D03*
D14*
X41800000Y-22300000D03*
X44350000Y-19500000D03*
%TO.N,SWDIO*%
X58800000Y-25900000D03*
X70400000Y-22300000D03*
%TO.N,SWCLK*%
X58600000Y-21800000D03*
X73200000Y-22300000D03*
%TO.N,AAD_CFG*%
X73300000Y-29100000D03*
X66500000Y-45200000D03*
X57500000Y-22100000D03*
X75500000Y-21700000D03*
X74300000Y-24800000D03*
X59400000Y-21200000D03*
X63000000Y-21900000D03*
X72000000Y-20800000D03*
D15*
X64828000Y-45966100D03*
D14*
X67000000Y-43500000D03*
%TO.N,SD_D2_U1*%
X89100000Y-21800000D03*
X77200000Y-21900000D03*
X84900000Y-26300000D03*
X86500000Y-26300000D03*
D15*
%TO.N,SD_D3_U1*%
X90453400Y-22189900D03*
X69698700Y-18878100D03*
D14*
%TO.N,SD_CK_U1*%
X45200000Y-19250000D03*
X55900000Y-21200000D03*
D15*
%TO.N,PWR_GOOD*%
X53121200Y-20846000D03*
X5892900Y-25195400D03*
D14*
X48240000Y-24750000D03*
%TO.N,PWR_FAULT*%
X30700000Y-19600000D03*
X52600000Y-19400000D03*
X55000000Y-22100000D03*
X37600000Y-18100000D03*
X48600000Y-15300000D03*
X45800000Y-18500000D03*
D15*
%TO.N,EN_MODEM*%
X52200000Y-23950000D03*
X45050000Y-21850000D03*
%TO.N,EN_AUX*%
X48937100Y-20204000D03*
D14*
%TO.N,PDM_DATA2*%
X75500000Y-25200000D03*
X72700000Y-30300000D03*
X72100000Y-17600000D03*
X53100000Y-19400000D03*
X52500000Y-21900000D03*
X69200000Y-41900000D03*
X57800000Y-13500000D03*
X52100000Y-20400000D03*
D15*
%TO.N,CELL_TX_U16*%
X17462400Y-36217100D03*
X38197100Y-39733100D03*
X37621600Y-27443300D03*
X25681200Y-33725000D03*
X31680400Y-39733100D03*
%TO.N,BOOT0*%
X49200000Y-21200000D03*
X61700000Y-30700000D03*
D14*
%TO.N,REV_STRAP0*%
X48500000Y-21300000D03*
X59500000Y-19700000D03*
X59000000Y-20700000D03*
%TO.N,REV_STRAP1*%
X48050000Y-21450000D03*
X57400000Y-23150000D03*
%TO.N,SIM_MUX_SEL*%
X47500000Y-21400000D03*
X41600000Y-20700000D03*
D15*
%TO.N,3V8_MODEM_RF*%
X28400000Y-39686800D03*
X22643400Y-27652000D03*
D14*
X35700000Y-57600000D03*
D15*
X11109800Y-37498500D03*
D14*
X36500000Y-55600000D03*
D15*
X31416700Y-29250000D03*
D14*
X29100000Y-41400000D03*
D15*
%TO.N,U8_VDD_EXT_1V8*%
X23393200Y-30430100D03*
X16848600Y-32171000D03*
X35828300Y-56846600D03*
X47084700Y-32604800D03*
X27250500Y-61989500D03*
X28544200Y-59772200D03*
X47325000Y-30600000D03*
X13426600Y-36202600D03*
%TO.N,U8_MAIN_TXD_1V8*%
X14633000Y-34923500D03*
X22320400Y-30475000D03*
X32141600Y-58300000D03*
%TO.N,3V8_MODEM_BB*%
X34250000Y-61600000D03*
X36460000Y-50678900D03*
X35871600Y-36246200D03*
X8598100Y-47757200D03*
X11951200Y-43573600D03*
D14*
%TO.N,AAD_CFG_1V8_FANOUT*%
X21400000Y-61600000D03*
X12500000Y-50900000D03*
X45098000Y-68319600D03*
X37000000Y-63900000D03*
X63500000Y-54400000D03*
X94732500Y-67600000D03*
X58000000Y-68400000D03*
X7200000Y-45500000D03*
X10800000Y-50000000D03*
X64100000Y-62500000D03*
X15700000Y-54500000D03*
X8600000Y-41900000D03*
X64700000Y-47900000D03*
D15*
%TO.N,SIM2_RST_MUX*%
X38028300Y-20116300D03*
X68406700Y-17216000D03*
%TO.N,SIM2_RST_CONN*%
X66297800Y-15765300D03*
X63177600Y-15708500D03*
D14*
%TO.N,CELL_DBG_RXD_TP*%
X47400000Y-35400000D03*
X45800000Y-36300000D03*
X51600000Y-31000000D03*
D15*
X40380400Y-57475000D03*
D14*
X40582500Y-64450000D03*
X46300000Y-47800000D03*
D15*
%TO.N,CELL_DBG_RXD_U8*%
X22194000Y-64003200D03*
X40331400Y-54788600D03*
D14*
%TO.N,USB_CC1*%
X43250000Y-7355000D03*
X40813000Y-8617000D03*
%TO.N,USB_DP_CONN*%
X41250000Y-7355000D03*
X69800000Y-17600000D03*
X70300000Y-24000000D03*
X42400000Y-8800000D03*
X42250000Y-7355000D03*
%TO.N,USB_DM_CONN*%
X72400000Y-24100000D03*
X41600000Y-8700000D03*
X70300000Y-16200000D03*
X70300000Y-17400000D03*
D15*
%TO.N,PDM_DATA4_1V8*%
X104367600Y-53181200D03*
X98997700Y-53405600D03*
X55623800Y-47966900D03*
X64712900Y-49638900D03*
X60611400Y-51352100D03*
%TO.N,MIC_WAKE4*%
X46849100Y-46739600D03*
X100052400Y-51034400D03*
X98094300Y-52989300D03*
%TO.N,PDM_DATA2_1V8*%
X47699800Y-60226000D03*
X40203900Y-61161700D03*
X55592300Y-43490800D03*
%TO.N,MIC_WAKE2*%
X42869100Y-44700000D03*
X37925000Y-64740800D03*
X37093600Y-62585200D03*
%TO.N,GNSS_RX_U9*%
X48688900Y-56714300D03*
X49727700Y-61396000D03*
%TO.N,SIM1_RST_MUX*%
X34672000Y-13703100D03*
X23748500Y-15396600D03*
%TO.N,CELL_USIM_VDD_1V8*%
X35017700Y-21575000D03*
X36621700Y-18327000D03*
X34152300Y-48900000D03*
X35083000Y-15885400D03*
%TO.N,CELL_USIM_RST_1V8*%
X33716200Y-31887600D03*
X32532200Y-27592500D03*
X38420100Y-44776200D03*
X29119300Y-17235400D03*
X34476200Y-23863600D03*
X34072800Y-37289800D03*
D14*
%TO.N,CELL_USIM_CLK_1V8*%
X32500000Y-24200000D03*
X31500000Y-42300000D03*
D15*
X34152400Y-45401900D03*
X35909700Y-19895800D03*
D14*
X32100000Y-28000000D03*
D15*
%TO.N,CELL_USIM_DATA_1V8*%
X31134800Y-24328200D03*
X32162500Y-37392000D03*
X30511300Y-27507900D03*
X32162500Y-31109100D03*
X32146200Y-46523400D03*
X30000100Y-20586900D03*
%TO.N,SIM2_VDD_CONN*%
X57604700Y-15790300D03*
X32397300Y-20923400D03*
X60875900Y-12898600D03*
X36990400Y-19537200D03*
%TO.N,SIM2_CLK_MUX*%
X67751700Y-15765300D03*
X40607000Y-20275000D03*
%TO.N,SIM2_DATA_MUX*%
X68801000Y-15110100D03*
X42088500Y-17443500D03*
%TO.N,SIM1_DATA_MUX*%
X38115700Y-17483200D03*
X25122600Y-17036600D03*
%TO.N,U13_EN_N*%
X36780900Y-17025000D03*
X30087100Y-17199200D03*
%TO.N,SIM1_CLK_MUX*%
X23997200Y-20767000D03*
X38174900Y-15075000D03*
D14*
%TO.N,SIM1_RST_CONN*%
X24075000Y-16700000D03*
X21195000Y-20000000D03*
X18175000Y-16000000D03*
%TO.N,FAULT*%
X52000000Y-23400000D03*
X25100000Y-22700000D03*
X50100000Y-25300000D03*
X47000000Y-26400000D03*
X35600000Y-26300000D03*
D15*
%TO.N,LORA_MOSI_U10*%
X49907900Y-41397200D03*
X59336900Y-45109000D03*
X61268600Y-44570300D03*
X68580100Y-48657000D03*
%TO.N,U8_MAIN_RI_1V8*%
X19203800Y-37073000D03*
X32144300Y-53879900D03*
X22557400Y-36547900D03*
%TO.N,SIM2_DATA_CONN*%
X71680200Y-13706100D03*
X74762100Y-13563700D03*
%TO.N,NOR_IO0_U2*%
X75100000Y-24100000D03*
X61350000Y-18950000D03*
%TO.N,PDM_DATA3_1V8*%
X81938200Y-59184300D03*
X90484700Y-64340000D03*
X58062700Y-44317800D03*
X92355800Y-67454700D03*
%TO.N,MIC_WAKE3*%
X45339500Y-46000000D03*
X82918200Y-64527500D03*
%TO.N,GNSS_TX_U9*%
X64363700Y-60012400D03*
X51300000Y-64117300D03*
X64638000Y-29300600D03*
%TO.N,GNSS_ANT_OFF_N*%
X59233700Y-64765700D03*
X54600000Y-54912100D03*
%TO.N,GNSS_ANT_DETECT*%
X52238500Y-55459600D03*
X62084200Y-55500600D03*
D14*
%TO.N,GNSS_ANT_SHORT_N*%
X49677600Y-55194000D03*
X63700000Y-59600000D03*
X61000000Y-58425000D03*
D15*
%TO.N,CELL_USB_VBUS*%
X37760000Y-53314200D03*
X17051600Y-50000000D03*
X33875600Y-30993000D03*
%TO.N,NOR_IO1_U2*%
X66350000Y-21400000D03*
X71350000Y-35800000D03*
%TO.N,NOR_IO2_U2*%
X72750000Y-21850000D03*
X78850000Y-35975000D03*
%TO.N,NOR_CLK_U2*%
X58200000Y-19150000D03*
X79100000Y-27100000D03*
D14*
%TO.N,I2C2_SCL_BUS*%
X66200000Y-22400000D03*
X67300000Y-31800000D03*
X65237500Y-29255200D03*
X64300000Y-28400000D03*
D15*
X65685100Y-38170100D03*
D14*
X60600000Y-21900000D03*
X59900000Y-15100000D03*
X61500000Y-21800000D03*
X60700000Y-17100000D03*
D15*
%TO.N,I2C2_SDA_BUS*%
X64530300Y-31701700D03*
X41243400Y-36320400D03*
X41352400Y-33366800D03*
D14*
X62400000Y-21900000D03*
X63230000Y-24750000D03*
X50250000Y-20550000D03*
D15*
%TO.N,CELL_DBG_TXD_U8*%
X11720400Y-46384000D03*
X18084600Y-61992300D03*
%TO.N,CELL_DBG_TXD_TP*%
X11351000Y-45750000D03*
X32941200Y-63407400D03*
D14*
X47900000Y-31400000D03*
D15*
X40582500Y-63440000D03*
D14*
%TO.N,LORA_SCK_U10*%
X63900000Y-27300000D03*
X69700000Y-40200000D03*
X68400000Y-34600000D03*
X68400000Y-32200000D03*
D15*
%TO.N,TEST_UART_TX_TP*%
X39563700Y-27773100D03*
X39481900Y-31560400D03*
%TO.N,CELL_USB_DM_TP*%
X8700000Y-52640569D03*
%TO.N,GNSS_ANT_GATE*%
X62153700Y-63986000D03*
X47339600Y-50468800D03*
%TO.N,HW_REV1*%
X50016000Y-19224000D03*
D14*
X51900000Y-16400000D03*
D15*
X43012600Y-24534200D03*
D14*
X37500000Y-20400000D03*
D15*
%TO.N,HW_REV0*%
X61025000Y-27050000D03*
X57675000Y-20150000D03*
%TO.N,SIM1_CLK_CONN*%
X24981100Y-15581100D03*
X20850000Y-17214200D03*
D14*
%TO.N,GNSS_ANT_SWITCHED*%
X58400000Y-57300000D03*
D15*
X53428000Y-55444900D03*
D14*
X52800000Y-51250000D03*
X60400000Y-65500000D03*
D15*
%TO.N,U8_RESET_N*%
X15865200Y-58798200D03*
X19878300Y-32998400D03*
%TO.N,U8_STATUS_1V8*%
X17650000Y-59589300D03*
X22285400Y-37296700D03*
%TO.N,U8_MAIN_DTR_1V8*%
X20124900Y-37118600D03*
X21367000Y-42159500D03*
%TO.N,U8_MAIN_RXD_1V8*%
X22316200Y-33188000D03*
X30694000Y-58997900D03*
%TO.N,CELL_USB_BOOT_1V8*%
X36169800Y-59631500D03*
X34966300Y-59890600D03*
%TO.N,3V8_MODEM*%
X8863800Y-57000000D03*
X38500000Y-52000000D03*
X32980900Y-24782200D03*
D14*
%TO.N,CELL_USB_BOOT_TP*%
X40900000Y-55000000D03*
X37000000Y-45500000D03*
D15*
X41142000Y-66559500D03*
D14*
X47100000Y-28800000D03*
D15*
X36996100Y-59250000D03*
D14*
X34400000Y-32200000D03*
X43200000Y-30600000D03*
X38700000Y-59800000D03*
D15*
%TO.N,CELL_DBG_VREF_TP*%
X42515000Y-59331600D03*
X42061900Y-66662000D03*
D14*
%TO.N,PDM_DATA1_1V8*%
X52900000Y-49400000D03*
X8700000Y-35500000D03*
X58200000Y-48900000D03*
X45200000Y-42800000D03*
X8200000Y-37950000D03*
D15*
X54291700Y-42773600D03*
X5619600Y-40710600D03*
D14*
X56500000Y-43000000D03*
X16800000Y-39000000D03*
X12200000Y-37600000D03*
D15*
%TO.N,MIC_WAKE12_OR_1V8*%
X47877800Y-46281700D03*
X48677500Y-46971900D03*
%TD*%
%TO.N,LORA_NSS_U1*%
D16*
X37100000Y-27700000D02*
X37200000Y-27800000D01*
X38100000Y-27100000D02*
X37900000Y-26900000D01*
X37100000Y-27200000D02*
X37100000Y-27300000D01*
X37200000Y-27800000D02*
X37200000Y-31500000D01*
X37100000Y-27300000D02*
X37000000Y-27400000D01*
X40500000Y-27100000D02*
X38100000Y-27100000D01*
X40800000Y-26800000D02*
X40500000Y-27100000D01*
X37900000Y-26900000D02*
X37400000Y-26900000D01*
X37100000Y-27600000D02*
X37100000Y-27700000D01*
X37000000Y-27400000D02*
X37000000Y-27500000D01*
X37000000Y-27500000D02*
X37100000Y-27600000D01*
X37400000Y-26900000D02*
X37100000Y-27200000D01*
%TO.N,BLE_RX_U11*%
X99080500Y-39187400D02*
X94343100Y-34450000D01*
X99080500Y-42469100D02*
X99080500Y-39187400D01*
%TO.N,3V3_DIGITAL*%
D17*
X85760400Y-24962700D02*
X86420300Y-24962700D01*
X26900000Y-29175000D02*
X31400000Y-26100000D01*
D18*
X57600000Y-38250000D02*
X57000000Y-38250000D01*
D17*
X16019400Y-17991200D02*
X16019400Y-17867400D01*
D18*
X57850000Y-38150000D02*
X57600000Y-38250000D01*
D17*
X31400000Y-26100000D02*
X32800000Y-26000000D01*
D16*
X41750000Y-30400000D02*
X40175000Y-31700000D01*
D18*
X42500000Y-28850000D02*
X44200000Y-26650000D01*
D17*
X62546000Y-59695000D02*
X62546000Y-61023100D01*
X31700000Y-21000000D02*
X31800000Y-20600000D01*
X85387400Y-31600600D02*
X85387400Y-24852800D01*
D18*
X58000000Y-18500000D02*
X58100000Y-18500000D01*
D17*
X85650500Y-24852800D02*
X85760400Y-24962700D01*
D18*
X41900000Y-34500000D02*
X42450000Y-33950000D01*
D17*
X80933900Y-36054100D02*
X84488000Y-32500000D01*
X12010600Y-22000000D02*
X16019400Y-17991200D01*
X85720400Y-21553000D02*
X85720400Y-19669400D01*
D19*
X42500000Y-33450000D02*
X43000000Y-33950000D01*
D18*
X17500000Y-32000000D02*
X16300000Y-30800000D01*
X58300000Y-37300000D02*
X58000000Y-37650000D01*
X17500000Y-32300000D02*
X17500000Y-32000000D01*
D17*
X87540100Y-18088700D02*
X87301100Y-18088700D01*
D18*
X58000000Y-37650000D02*
X58000000Y-37950000D01*
D17*
X67910300Y-33425000D02*
X72870400Y-28464900D01*
D18*
X44200000Y-26650000D02*
X44250000Y-26500000D01*
D17*
X85720400Y-19669400D02*
X84140700Y-18089700D01*
X56225500Y-47837400D02*
X56225500Y-45733900D01*
D18*
X43550000Y-33950000D02*
X44250000Y-34000000D01*
D17*
X31800000Y-20600000D02*
X32400000Y-19900000D01*
X85387400Y-21886000D02*
X85720400Y-21553000D01*
X85387400Y-24852800D02*
X85387400Y-21886000D01*
X87540100Y-18088700D02*
X88705600Y-16923200D01*
X40876800Y-35703300D02*
X40175000Y-31700000D01*
X32800000Y-26000000D02*
X33300000Y-25600000D01*
X65274900Y-56966100D02*
X65274900Y-56886800D01*
X64403900Y-40920900D02*
X67910300Y-37414500D01*
X61644000Y-38697600D02*
X61644000Y-40491800D01*
X8920000Y-23500000D02*
X10420000Y-22000000D01*
X65274900Y-56966100D02*
X62546000Y-59695000D01*
X33800000Y-24600000D02*
X31700000Y-21000000D01*
X54394300Y-43521900D02*
X55803300Y-42112900D01*
X85387400Y-24852800D02*
X85650500Y-24852800D01*
D18*
X42650000Y-33950000D02*
X43550000Y-33950000D01*
D17*
X32400000Y-19900000D02*
X32675000Y-18900000D01*
D18*
X58000000Y-37950000D02*
X57850000Y-38150000D01*
D17*
X10420000Y-22000000D02*
X12010600Y-22000000D01*
X67910300Y-37414500D02*
X67910300Y-36029700D01*
X84140700Y-18089700D02*
X83683400Y-18089700D01*
X60355600Y-37409200D02*
X61644000Y-38697600D01*
X54013500Y-43521900D02*
X54394300Y-43521900D01*
D18*
X42450000Y-33950000D02*
X42650000Y-33950000D01*
D17*
X44250000Y-29000000D02*
X44250000Y-26500000D01*
D18*
X41750000Y-30400000D02*
X42500000Y-28850000D01*
D17*
X88705600Y-16923200D02*
X88705600Y-7849700D01*
X73344700Y-28464900D02*
X80933900Y-36054100D01*
D18*
X17400000Y-32500000D02*
X17400000Y-32400000D01*
X15900000Y-30500000D02*
X15900000Y-30000000D01*
X57000000Y-38250000D02*
X56500000Y-38050000D01*
D16*
X61675000Y-27898000D02*
X61350000Y-25350000D01*
D17*
X84488000Y-32500000D02*
X85387400Y-31600600D01*
X65357400Y-56966100D02*
X65274900Y-56966100D01*
X55803300Y-42112900D02*
X59160100Y-42112900D01*
X33300000Y-25600000D02*
X33700000Y-25200000D01*
X65274900Y-56886800D02*
X56225500Y-47837400D01*
X87540100Y-18088700D02*
X88208700Y-18757300D01*
D18*
X57400000Y-19100000D02*
X58000000Y-18500000D01*
X59350000Y-36300000D02*
X58300000Y-37300000D01*
D17*
X80493400Y-49628000D02*
X80493400Y-36494600D01*
X80493400Y-36494600D02*
X80933900Y-36054100D01*
D18*
X17400000Y-32400000D02*
X17500000Y-32300000D01*
D17*
X72870400Y-28464900D02*
X73344700Y-28464900D01*
D18*
X16300000Y-30800000D02*
X16200000Y-30800000D01*
D17*
X87301100Y-18088700D02*
X85720400Y-19669400D01*
D18*
X16200000Y-30800000D02*
X15900000Y-30500000D01*
D17*
X33700000Y-25200000D02*
X33800000Y-24600000D01*
D18*
X15900000Y-30000000D02*
X16200000Y-29700000D01*
D17*
X88705600Y-7849700D02*
X88395000Y-7539100D01*
X56225500Y-45733900D02*
X54013500Y-43521900D01*
D18*
X17100000Y-34800000D02*
X17100000Y-32800000D01*
D17*
X67910300Y-36029700D02*
X67910300Y-33425000D01*
D18*
X17100000Y-32800000D02*
X17400000Y-32500000D01*
%TO.N,BLE_DFU_REQ*%
D16*
X50308300Y-38658400D02*
X50308300Y-36686500D01*
X87832500Y-32445000D02*
X96050000Y-40662500D01*
X87832500Y-32445000D02*
X85837900Y-32445000D01*
X58756700Y-38573400D02*
X56818100Y-40512000D01*
X52161900Y-40512000D02*
X50308300Y-38658400D01*
X56818100Y-40512000D02*
X52161900Y-40512000D01*
X85837900Y-32445000D02*
X81127900Y-37155000D01*
%TO.N,NRF_RESET_N*%
X96505800Y-38423300D02*
X94532500Y-36450000D01*
X94532500Y-36450000D02*
X94343400Y-36450000D01*
%TO.N,GND_MODEM*%
D17*
X57775000Y-23975000D02*
X58125000Y-21425000D01*
X56225000Y-29100000D02*
X57525000Y-24225000D01*
X58125000Y-21425000D02*
X60100000Y-17225000D01*
X57525000Y-24225000D02*
X57775000Y-23975000D01*
%TO.N,SD_D2_CARD*%
D16*
X89300000Y-20200000D02*
X89500000Y-20400000D01*
X89900000Y-22400000D02*
X90200000Y-22700000D01*
X89800000Y-20800000D02*
X89800000Y-21900000D01*
X90200000Y-22800000D02*
X90300000Y-22900000D01*
X89500000Y-20400000D02*
X89500000Y-20500000D01*
X89300000Y-19100000D02*
X89300000Y-20200000D01*
X90300000Y-22900000D02*
X90300000Y-23300000D01*
X90200000Y-22700000D02*
X90200000Y-22800000D01*
X90300000Y-23300000D02*
X90325000Y-23000000D01*
X89500000Y-20500000D02*
X89800000Y-20800000D01*
X90325000Y-23000000D02*
X90625000Y-23950000D01*
X89800000Y-21900000D02*
X89900000Y-22000000D01*
X89900000Y-22000000D02*
X89900000Y-22400000D01*
%TO.N,TEST_UART_RX_TP*%
D19*
X38950000Y-32049999D02*
X39000000Y-32000000D01*
X39450000Y-30350000D02*
X39350000Y-29900000D01*
X39150000Y-30750000D02*
X39150000Y-30650000D01*
X39150000Y-30650000D02*
X39450000Y-30350000D01*
X39000000Y-32000000D02*
X39000000Y-31450000D01*
X39100000Y-30800000D02*
X39150000Y-30750000D01*
X39000000Y-31450000D02*
X39050000Y-31400000D01*
X39050000Y-31350000D02*
X39100000Y-31300000D01*
X39100000Y-31300000D02*
X39100000Y-30800000D01*
X38950000Y-33549999D02*
X38950000Y-32049999D01*
X39050000Y-31400000D02*
X39050000Y-31350000D01*
%TO.N,TEST_UART_RX_U1*%
D16*
X43475000Y-35100000D02*
X44800000Y-34600000D01*
X44800000Y-34600000D02*
X44800000Y-33800000D01*
X40975000Y-36900000D02*
X41675000Y-36800000D01*
X41675000Y-36800000D02*
X42875000Y-35200000D01*
X42875000Y-35200000D02*
X43475000Y-35100000D01*
X38375000Y-33800000D02*
X40975000Y-36900000D01*
X44750000Y-32500000D02*
X45450000Y-31000000D01*
X44800000Y-33800000D02*
X44750000Y-32500000D01*
%TO.N,CELL_DTR_U16*%
X58400000Y-31600000D02*
X58500000Y-31600000D01*
X52400000Y-31900000D02*
X56400000Y-31900000D01*
X56500000Y-31800000D02*
X56600000Y-31800000D01*
X52300000Y-32000000D02*
X52400000Y-31900000D01*
X52200000Y-32000000D02*
X52300000Y-32000000D01*
X58500000Y-31600000D02*
X58800000Y-31300000D01*
X49500000Y-34700000D02*
X52200000Y-32000000D01*
X56600000Y-31800000D02*
X56700000Y-31700000D01*
X56400000Y-31900000D02*
X56500000Y-31800000D01*
X56700000Y-31700000D02*
X58300000Y-31700000D01*
X58300000Y-31700000D02*
X58400000Y-31600000D01*
%TO.N,SD_D3_CARD*%
X87300000Y-24000000D02*
X87600000Y-23700000D01*
X86900000Y-25300000D02*
X86900000Y-25200000D01*
X87300000Y-24400000D02*
X87300000Y-24000000D01*
X86900000Y-25200000D02*
X87000000Y-25100000D01*
X85900000Y-26300000D02*
X86900000Y-25300000D01*
X87000000Y-25100000D02*
X87000000Y-24700000D01*
X87000000Y-24700000D02*
X87300000Y-24400000D01*
%TO.N,SD_CMD_CARD*%
D20*
X81800000Y-21500000D02*
X83325000Y-24250000D01*
%TO.N,SD_CK_CARD*%
X81500000Y-22000000D02*
X79500000Y-18027200D01*
%TO.N,1V8_MIC*%
D18*
X59300000Y-40600000D02*
X59300000Y-41000000D01*
X59300000Y-39900000D02*
X59400000Y-39800000D01*
X7800000Y-26200000D02*
X7900000Y-26100000D01*
X8200000Y-25600000D02*
X8300000Y-25600000D01*
X58800000Y-40100000D02*
X59300000Y-40600000D01*
X54300000Y-42100000D02*
X54200000Y-42200000D01*
X8600000Y-25400000D02*
X9800000Y-25400000D01*
X8500000Y-25500000D02*
X8600000Y-25400000D01*
X7900000Y-26100000D02*
X7900000Y-26000000D01*
X55600000Y-41600000D02*
X55100000Y-42100000D01*
X35300000Y-27700000D02*
X35300000Y-31700000D01*
X7900000Y-26000000D02*
X8000000Y-25900000D01*
X5800000Y-38500000D02*
X5800000Y-35100000D01*
X58800000Y-39600000D02*
X58800000Y-40100000D01*
X59400000Y-39800000D02*
X59400000Y-39000000D01*
X54000000Y-42200000D02*
X53400000Y-42800000D01*
X8000000Y-25900000D02*
X8000000Y-25800000D01*
X8300000Y-25600000D02*
X8400000Y-25500000D01*
X58700000Y-41600000D02*
X55600000Y-41600000D01*
X54200000Y-42200000D02*
X54000000Y-42200000D01*
X8400000Y-25500000D02*
X8500000Y-25500000D01*
X7800000Y-33100000D02*
X7800000Y-26200000D01*
X5800000Y-35100000D02*
X7800000Y-33100000D01*
X55100000Y-42100000D02*
X54300000Y-42100000D01*
X59300000Y-40600000D02*
X59300000Y-39900000D01*
X8000000Y-25800000D02*
X8200000Y-25600000D01*
X59300000Y-41000000D02*
X58700000Y-41600000D01*
%TO.N,LORA_DIO1*%
D16*
X54600000Y-46900000D02*
X54100000Y-46900000D01*
X64825000Y-50850000D02*
X64725000Y-50450000D01*
X46700000Y-37400000D02*
X46600000Y-37300000D01*
X48100000Y-40600000D02*
X48100000Y-40500000D01*
X60200000Y-47400000D02*
X58000000Y-47400000D01*
X46600000Y-37200000D02*
X46500000Y-37100000D01*
X48200000Y-40700000D02*
X48100000Y-40600000D01*
X48300000Y-41100000D02*
X48300000Y-40900000D01*
X48100000Y-40500000D02*
X46800000Y-39200000D01*
X48300000Y-40900000D02*
X48200000Y-40800000D01*
X64225000Y-49950000D02*
X64125000Y-49450000D01*
X54100000Y-46900000D02*
X48300000Y-41100000D01*
X48200000Y-40800000D02*
X48200000Y-40700000D01*
X64425000Y-51350000D02*
X64825000Y-50850000D01*
X46400000Y-36800000D02*
X46300000Y-36700000D01*
X46500000Y-37100000D02*
X46500000Y-37000000D01*
X64725000Y-50450000D02*
X64225000Y-49950000D01*
D19*
X46850000Y-37550000D02*
X46850000Y-39150000D01*
D16*
X46400000Y-36900000D02*
X46400000Y-36800000D01*
X46500000Y-37000000D02*
X46400000Y-36900000D01*
X54700000Y-47000000D02*
X54600000Y-46900000D01*
D19*
X46750000Y-37450000D02*
X46850000Y-37550000D01*
D16*
X64125000Y-49450000D02*
X65050000Y-48270000D01*
X64325000Y-51750000D02*
X64425000Y-51350000D01*
X65025000Y-52950000D02*
X64325000Y-51750000D01*
X46300000Y-36700000D02*
X46300000Y-34300000D01*
X64925000Y-53750000D02*
X65025000Y-52950000D01*
X46600000Y-37300000D02*
X46600000Y-37200000D01*
%TO.N,USB_SHIELD*%
D18*
X38380000Y-6080000D02*
X38380000Y-5550000D01*
X45620000Y-6080000D02*
X46320000Y-6780000D01*
X38380000Y-5550000D02*
X45620000Y-5550000D01*
X45620000Y-5550000D02*
X45620000Y-6080000D01*
D16*
X40473900Y-9573900D02*
X40473900Y-11575800D01*
X46320000Y-2600000D02*
X46320000Y-6780000D01*
D18*
X37680000Y-6780000D02*
X38380000Y-6080000D01*
D16*
X37680000Y-2600000D02*
X37680000Y-6780000D01*
X37680000Y-6780000D02*
X40473900Y-9573900D01*
%TO.N,GNSS_ANT_BIAS_RAW*%
D17*
X53900000Y-55025000D02*
X54016800Y-55183000D01*
X49000000Y-51825000D02*
X53900000Y-55025000D01*
%TO.N,SIM_MUX_EN*%
D16*
X34700000Y-18600000D02*
X34600000Y-18600000D01*
X35500000Y-19000000D02*
X35400000Y-18900000D01*
X33600000Y-18100000D02*
X33500000Y-18100000D01*
X38200000Y-19600000D02*
X38100000Y-19500000D01*
X33400000Y-18000000D02*
X33300000Y-18000000D01*
X44400000Y-23700000D02*
X42500000Y-23700000D01*
X38300000Y-19600000D02*
X38200000Y-19600000D01*
X33200000Y-17900000D02*
X33100000Y-17900000D01*
X35200000Y-18900000D02*
X35100000Y-18800000D01*
X35400000Y-18900000D02*
X35200000Y-18900000D01*
X45200000Y-24500000D02*
X44400000Y-23700000D01*
X37200000Y-19000000D02*
X35500000Y-19000000D01*
X33300000Y-18000000D02*
X33200000Y-17900000D01*
X33500000Y-18100000D02*
X33400000Y-18000000D01*
X33100000Y-17900000D02*
X31100000Y-15900000D01*
X33700000Y-18200000D02*
X33600000Y-18100000D01*
X34800000Y-18700000D02*
X34700000Y-18600000D01*
X39700000Y-20900000D02*
X39600000Y-20900000D01*
X38100000Y-19500000D02*
X37700000Y-19500000D01*
X37700000Y-19500000D02*
X37200000Y-19000000D01*
X35100000Y-18800000D02*
X35000000Y-18800000D01*
X34500000Y-18500000D02*
X34400000Y-18500000D01*
X34600000Y-18600000D02*
X34500000Y-18500000D01*
X33800000Y-18200000D02*
X33700000Y-18200000D01*
X34000000Y-18300000D02*
X33900000Y-18300000D01*
X42500000Y-23700000D02*
X39700000Y-20900000D01*
X34300000Y-18400000D02*
X34100000Y-18400000D01*
X34100000Y-18400000D02*
X34000000Y-18300000D01*
X33900000Y-18300000D02*
X33800000Y-18200000D01*
X34900000Y-18700000D02*
X34800000Y-18700000D01*
X35000000Y-18800000D02*
X34900000Y-18700000D01*
X34400000Y-18500000D02*
X34300000Y-18400000D01*
X39600000Y-20900000D02*
X38300000Y-19600000D01*
%TO.N,SIM1_DET*%
X30800000Y-22600000D02*
X30700000Y-22600000D01*
X27300000Y-21000000D02*
X27200000Y-21000000D01*
X28400000Y-21500000D02*
X28300000Y-21500000D01*
X28300000Y-21500000D02*
X28200000Y-21400000D01*
X26300000Y-20600000D02*
X26200000Y-20500000D01*
X30900000Y-22700000D02*
X30800000Y-22600000D01*
X41800000Y-25100000D02*
X41300000Y-24600000D01*
X27500000Y-21200000D02*
X27300000Y-21000000D01*
X26900000Y-20800000D02*
X26700000Y-20800000D01*
X26400000Y-20600000D02*
X26300000Y-20600000D01*
X23500000Y-19300000D02*
X23200000Y-19000000D01*
X41100000Y-24500000D02*
X37900000Y-24500000D01*
X26500000Y-20700000D02*
X26400000Y-20600000D01*
X24800000Y-19900000D02*
X24700000Y-19800000D01*
X25000000Y-20000000D02*
X24900000Y-19900000D01*
X26700000Y-20800000D02*
X26600000Y-20700000D01*
X28200000Y-21400000D02*
X28100000Y-21400000D01*
X25900000Y-20400000D02*
X25800000Y-20300000D01*
X25400000Y-20200000D02*
X25300000Y-20100000D01*
X27700000Y-21200000D02*
X27500000Y-21200000D01*
X43200000Y-25100000D02*
X41800000Y-25100000D01*
X25100000Y-20000000D02*
X25000000Y-20000000D01*
X28800000Y-21700000D02*
X28700000Y-21700000D01*
X29100000Y-21800000D02*
X28900000Y-21800000D01*
X25200000Y-20100000D02*
X25100000Y-20000000D01*
X29900000Y-22200000D02*
X29800000Y-22200000D01*
X31300000Y-22800000D02*
X31100000Y-22800000D01*
X29200000Y-21900000D02*
X29100000Y-21800000D01*
X28000000Y-21300000D02*
X27800000Y-21300000D01*
X41300000Y-24600000D02*
X41200000Y-24600000D01*
X28100000Y-21400000D02*
X28000000Y-21300000D01*
X30700000Y-22600000D02*
X30600000Y-22500000D01*
X29600000Y-22100000D02*
X29500000Y-22000000D01*
X28900000Y-21800000D02*
X28800000Y-21700000D01*
X30500000Y-22500000D02*
X30400000Y-22400000D01*
X24200000Y-19600000D02*
X24100000Y-19600000D01*
X30300000Y-22400000D02*
X30200000Y-22300000D01*
X25800000Y-20300000D02*
X25600000Y-20300000D01*
X23900000Y-19500000D02*
X23800000Y-19400000D01*
X31800000Y-23200000D02*
X31500000Y-22900000D01*
X24300000Y-19700000D02*
X24200000Y-19600000D01*
X26600000Y-20700000D02*
X26500000Y-20700000D01*
X30600000Y-22500000D02*
X30500000Y-22500000D01*
X29700000Y-22100000D02*
X29600000Y-22100000D01*
X29500000Y-22000000D02*
X29400000Y-22000000D01*
X23600000Y-19300000D02*
X23500000Y-19300000D01*
X25600000Y-20300000D02*
X25500000Y-20200000D01*
X27100000Y-20900000D02*
X27000000Y-20900000D01*
X43800000Y-24500000D02*
X43200000Y-25100000D01*
X24400000Y-19700000D02*
X24300000Y-19700000D01*
X24500000Y-19800000D02*
X24400000Y-19700000D01*
X31000000Y-22700000D02*
X30900000Y-22700000D01*
X26000000Y-20400000D02*
X25900000Y-20400000D01*
X25300000Y-20100000D02*
X25200000Y-20100000D01*
X24000000Y-19500000D02*
X23900000Y-19500000D01*
X27000000Y-20900000D02*
X26900000Y-20800000D01*
X37900000Y-24500000D02*
X36700000Y-23300000D01*
X28700000Y-21700000D02*
X28600000Y-21600000D01*
X25500000Y-20200000D02*
X25400000Y-20200000D01*
X27800000Y-21300000D02*
X27700000Y-21200000D01*
X31400000Y-22900000D02*
X31300000Y-22800000D01*
X31500000Y-22900000D02*
X31400000Y-22900000D01*
X28500000Y-21600000D02*
X28400000Y-21500000D01*
X24900000Y-19900000D02*
X24800000Y-19900000D01*
X41200000Y-24600000D02*
X41100000Y-24500000D01*
X23800000Y-19400000D02*
X23700000Y-19400000D01*
X30200000Y-22300000D02*
X30000000Y-22300000D01*
X24100000Y-19600000D02*
X24000000Y-19500000D01*
X30400000Y-22400000D02*
X30300000Y-22400000D01*
X29300000Y-21900000D02*
X29200000Y-21900000D01*
X31100000Y-22800000D02*
X31000000Y-22700000D01*
X26200000Y-20500000D02*
X26100000Y-20500000D01*
X23700000Y-19400000D02*
X23600000Y-19300000D01*
X29800000Y-22200000D02*
X29700000Y-22100000D01*
X27200000Y-21000000D02*
X27100000Y-20900000D01*
X26100000Y-20500000D02*
X26000000Y-20400000D01*
X30000000Y-22300000D02*
X29900000Y-22200000D01*
X28600000Y-21600000D02*
X28500000Y-21600000D01*
X24700000Y-19800000D02*
X24500000Y-19800000D01*
X29400000Y-22000000D02*
X29300000Y-21900000D01*
%TO.N,BLE_EN*%
X54040600Y-29631500D02*
X51644600Y-27235500D01*
X63429600Y-23812300D02*
X62302000Y-23812300D01*
X62302000Y-23812300D02*
X56482800Y-29631500D01*
X65315600Y-25698300D02*
X63429600Y-23812300D01*
X83659700Y-32462200D02*
X76895800Y-25698300D01*
X56482800Y-29631500D02*
X54040600Y-29631500D01*
X76895800Y-25698300D02*
X65315600Y-25698300D01*
%TO.N,SD_DET*%
X74312600Y-16657000D02*
X57770700Y-16657000D01*
X86366800Y-21500000D02*
X86292600Y-21425800D01*
X87081100Y-19835100D02*
X87980300Y-19835100D01*
X82488900Y-24833300D02*
X83861600Y-24833300D01*
X81357700Y-23702100D02*
X82488900Y-24833300D01*
X51477300Y-22568700D02*
X48693800Y-25352200D01*
X86292600Y-21425800D02*
X86292600Y-20623600D01*
X81357700Y-23702100D02*
X74312600Y-16657000D01*
X51477300Y-19675600D02*
X51477300Y-22568700D01*
X57770700Y-16657000D02*
X55444200Y-18983500D01*
X87980300Y-19835100D02*
X89200000Y-18615400D01*
X89200000Y-18615400D02*
X89200000Y-17720000D01*
X86292600Y-20623600D02*
X87081100Y-19835100D01*
%TO.N,NRST*%
X52300000Y-22400000D02*
X52500000Y-22400000D01*
X54900000Y-24600000D02*
X55000000Y-24700000D01*
X55000000Y-24700000D02*
X55000000Y-24800000D01*
X72800000Y-24700000D02*
X72900000Y-24700000D01*
X53500000Y-20100000D02*
X53900000Y-20500000D01*
X53800000Y-21400000D02*
X53900000Y-21400000D01*
X52700000Y-22300000D02*
X53400000Y-21600000D01*
X65100000Y-24800000D02*
X72700000Y-24800000D01*
X55300000Y-25100000D02*
X55400000Y-25100000D01*
X53900000Y-20500000D02*
X53900000Y-22500000D01*
X53500000Y-21600000D02*
X53600000Y-21500000D01*
X50603600Y-28377000D02*
X50603600Y-24137400D01*
X53600000Y-21500000D02*
X53700000Y-21500000D01*
X55400000Y-25100000D02*
X56000000Y-25700000D01*
X55000000Y-24800000D02*
X55300000Y-25100000D01*
X52500000Y-22400000D02*
X52600000Y-22300000D01*
X72900000Y-24700000D02*
X73000000Y-24600000D01*
X50600000Y-24100000D02*
X52300000Y-22400000D01*
X53400000Y-21600000D02*
X53500000Y-21600000D01*
X53700000Y-21500000D02*
X53800000Y-21400000D01*
X52600000Y-22300000D02*
X52700000Y-22300000D01*
X56000000Y-25700000D02*
X56600000Y-25700000D01*
X72700000Y-24800000D02*
X72800000Y-24700000D01*
X73000000Y-24600000D02*
X73100000Y-24600000D01*
X73100000Y-24600000D02*
X75500000Y-22200000D01*
X53900000Y-22500000D02*
X54900000Y-23500000D01*
X54900000Y-23500000D02*
X54900000Y-24600000D01*
%TO.N,GNSS_TX_U1*%
D19*
X65599999Y-30400000D02*
X66050000Y-29950000D01*
X65599999Y-31750000D02*
X65599999Y-30400000D01*
X64500000Y-28850000D02*
X64450000Y-28850000D01*
X64849999Y-28850000D02*
X64750000Y-28850000D01*
X64700000Y-28800000D02*
X64550000Y-28800000D01*
X64349999Y-28900000D02*
X63600000Y-29650000D01*
X66099999Y-29600000D02*
X65450000Y-28950000D01*
X64550000Y-28800000D02*
X64500000Y-28850000D01*
X66050000Y-29950000D02*
X66050000Y-29900000D01*
X64900000Y-28900000D02*
X64849999Y-28850000D01*
X65349999Y-28900000D02*
X64900000Y-28900000D01*
X66050000Y-29900000D02*
X66099999Y-29850000D01*
X64400000Y-28900000D02*
X64349999Y-28900000D01*
X65450000Y-28950000D02*
X65400000Y-28950000D01*
X64450000Y-28850000D02*
X64400000Y-28900000D01*
X65400000Y-28950000D02*
X65349999Y-28900000D01*
X64750000Y-28850000D02*
X64700000Y-28800000D01*
X66099999Y-29850000D02*
X66099999Y-29600000D01*
X63600000Y-29650000D02*
X63550000Y-29650000D01*
%TO.N,GNSS_RX_U1*%
D16*
X44771500Y-54046700D02*
X44771500Y-36611100D01*
X44856800Y-54132000D02*
X44771500Y-54046700D01*
%TO.N,PDM_DATA3*%
X52000000Y-40900000D02*
X58700000Y-40900000D01*
X51600000Y-40500000D02*
X52000000Y-40900000D01*
X50500000Y-40500000D02*
X51600000Y-40500000D01*
X58700000Y-40900000D02*
X58800000Y-40800000D01*
%TO.N,PDM_CLK*%
X52000000Y-43200000D02*
X52800000Y-44000000D01*
X51500000Y-37800000D02*
X51900000Y-38200000D01*
X51900000Y-38200000D02*
X51900000Y-39100000D01*
X53000000Y-44000000D02*
X53100000Y-44100000D01*
X53900000Y-44100000D02*
X55400000Y-45600000D01*
X61300000Y-46800000D02*
X61400000Y-46800000D01*
X58000000Y-46900000D02*
X61200000Y-46900000D01*
X53100000Y-44100000D02*
X53900000Y-44100000D01*
X61200000Y-46900000D02*
X61300000Y-46800000D01*
X61500000Y-46700000D02*
X61600000Y-46700000D01*
X52800000Y-44000000D02*
X53000000Y-44000000D01*
X51900000Y-39100000D02*
X51800000Y-39200000D01*
X61600000Y-46700000D02*
X62000000Y-46300000D01*
X61400000Y-46800000D02*
X61500000Y-46700000D01*
%TO.N,NOR_CLK_U1*%
X55100000Y-20600000D02*
X55000000Y-20500000D01*
X54900000Y-20200000D02*
X54800000Y-20100000D01*
X54900000Y-20300000D02*
X54900000Y-20200000D01*
X55500000Y-21500000D02*
X55400000Y-21400000D01*
X55300000Y-21200000D02*
X55300000Y-21000000D01*
X55400000Y-21400000D02*
X55400000Y-21300000D01*
X55500000Y-24400000D02*
X55500000Y-21500000D01*
X55100000Y-20700000D02*
X55100000Y-20600000D01*
X55000000Y-20500000D02*
X55000000Y-20400000D01*
X55000000Y-20400000D02*
X54900000Y-20300000D01*
X55400000Y-21300000D02*
X55300000Y-21200000D01*
X54800000Y-19900000D02*
X54700000Y-19800000D01*
X55200000Y-20900000D02*
X55200000Y-20800000D01*
X55300000Y-21000000D02*
X55200000Y-20900000D01*
X55200000Y-20800000D02*
X55100000Y-20700000D01*
X54800000Y-20100000D02*
X54800000Y-19900000D01*
%TO.N,VCORE_1V1*%
X48200000Y-26350000D02*
X48250000Y-26400000D01*
X52450000Y-31150000D02*
X52500000Y-31200000D01*
X54800000Y-35950000D02*
X54750000Y-35900000D01*
D17*
X55446900Y-34976200D02*
X55824000Y-34976200D01*
D16*
X48250000Y-26450000D02*
X50050000Y-28250000D01*
X50050000Y-28250000D02*
X50050000Y-28500000D01*
X47800000Y-24800000D02*
X47800000Y-24850000D01*
X54900000Y-36000000D02*
X54850000Y-35950000D01*
D17*
X52848000Y-39965400D02*
X53400200Y-39413200D01*
D16*
X54650000Y-35900000D02*
X54600000Y-35850000D01*
X52500000Y-31250000D02*
X52550000Y-31300000D01*
X50100000Y-28650000D02*
X52350000Y-30900000D01*
X47850000Y-24950000D02*
X48150000Y-25250000D01*
X52400000Y-31050000D02*
X52450000Y-31100000D01*
X50100000Y-28550000D02*
X50100000Y-28650000D01*
X47800000Y-24850000D02*
X47850000Y-24900000D01*
X52400000Y-31000000D02*
X52400000Y-31050000D01*
X52500000Y-31200000D02*
X52500000Y-31250000D01*
X52350000Y-30900000D02*
X52350000Y-30950000D01*
X54750000Y-35900000D02*
X54650000Y-35900000D01*
X54850000Y-35950000D02*
X54800000Y-35950000D01*
X48250000Y-26400000D02*
X48250000Y-26450000D01*
X47750000Y-24750000D02*
X47800000Y-24800000D01*
D17*
X57500000Y-37750000D02*
X55824000Y-34976200D01*
D16*
X52450000Y-31100000D02*
X52450000Y-31150000D01*
D17*
X53400200Y-37022900D02*
X55446900Y-34976200D01*
D16*
X48150000Y-26250000D02*
X48200000Y-26300000D01*
X48200000Y-26300000D02*
X48200000Y-26350000D01*
X50050000Y-28500000D02*
X50100000Y-28550000D01*
X55500000Y-36000000D02*
X54900000Y-36000000D01*
X47850000Y-24900000D02*
X47850000Y-24950000D01*
X48150000Y-25250000D02*
X48150000Y-26250000D01*
X52350000Y-30950000D02*
X52400000Y-31000000D01*
D17*
X53400200Y-39413200D02*
X53400200Y-37022900D01*
%TO.N,I2C2_SCL_U1*%
D16*
X60800000Y-34900000D02*
X62200000Y-33500000D01*
X62200000Y-33500000D02*
X62200000Y-32900000D01*
%TO.N,I2C2_SDA_U1*%
X50300000Y-35400000D02*
X51200000Y-34500000D01*
X54200000Y-34500000D02*
X54400000Y-34300000D01*
X54400000Y-34300000D02*
X54500000Y-34300000D01*
X54500000Y-34300000D02*
X54600000Y-34200000D01*
X54600000Y-34200000D02*
X56200000Y-34200000D01*
X51200000Y-34500000D02*
X54200000Y-34500000D01*
X56200000Y-34200000D02*
X56500000Y-34500000D01*
%TO.N,LORA_TXEN*%
X54500000Y-33800000D02*
X56500000Y-33800000D01*
X53900000Y-47200000D02*
X53800000Y-47200000D01*
X54200000Y-47300000D02*
X54000000Y-47300000D01*
X54300000Y-33900000D02*
X54400000Y-33900000D01*
X53800000Y-47200000D02*
X53600000Y-47000000D01*
X54000000Y-47300000D02*
X53900000Y-47200000D01*
X54400000Y-33900000D02*
X54500000Y-33800000D01*
X56500000Y-33800000D02*
X56600000Y-33900000D01*
X52000000Y-34000000D02*
X54200000Y-34000000D01*
X53600000Y-47000000D02*
X53100000Y-47000000D01*
X54400000Y-47500000D02*
X54200000Y-47300000D01*
X54200000Y-34000000D02*
X54300000Y-33900000D01*
%TO.N,LORA_RXEN*%
X80544500Y-53781000D02*
X82771400Y-56007900D01*
X65685900Y-51454300D02*
X66176200Y-50964000D01*
X62469900Y-37778300D02*
X58687700Y-33996100D01*
X66176200Y-50964000D02*
X66176200Y-48059100D01*
X82771400Y-56007900D02*
X83755700Y-56007900D01*
X66176200Y-48059100D02*
X62469900Y-44352800D01*
X62469900Y-44352800D02*
X62469900Y-37778300D01*
%TO.N,LORA_BUSY*%
X59500000Y-32100000D02*
X58900000Y-32700000D01*
X59700000Y-32000000D02*
X59600000Y-32100000D01*
X65618800Y-48175600D02*
X65618800Y-49571600D01*
X59900000Y-32100000D02*
X59800000Y-32000000D01*
X58900000Y-32700000D02*
X58900000Y-33000000D01*
X59600000Y-32100000D02*
X59500000Y-32100000D01*
X58153300Y-34490800D02*
X59828900Y-36166400D01*
X59828900Y-42385700D02*
X65618800Y-48175600D01*
X58153300Y-33780200D02*
X58153300Y-34490800D01*
X59828900Y-36166400D02*
X59828900Y-42385700D01*
X59800000Y-32000000D02*
X59700000Y-32000000D01*
X60800000Y-32900000D02*
X60000000Y-32100000D01*
X58935100Y-32998400D02*
X58153300Y-33780200D01*
X60000000Y-32100000D02*
X59900000Y-32100000D01*
%TO.N,LORA_RESET_N*%
X66132600Y-51954100D02*
X67456500Y-50630200D01*
X66132600Y-56977900D02*
X66132600Y-51954100D01*
X65253100Y-57857400D02*
X66132600Y-56977900D01*
%TO.N,CELL_PWRKEY_CMD*%
X66300000Y-38200000D02*
X66200000Y-38300000D01*
X68400000Y-54900000D02*
X68300000Y-54900000D01*
X68300000Y-54900000D02*
X67900000Y-55300000D01*
X15400000Y-39900000D02*
X15400000Y-39800000D01*
X68600000Y-54500000D02*
X68600000Y-54600000D01*
X68700000Y-49300000D02*
X68700000Y-54400000D01*
X68700000Y-54400000D02*
X68600000Y-54500000D01*
X15200000Y-39400000D02*
X15100000Y-39300000D01*
X67900000Y-55900000D02*
X68000000Y-56000000D01*
X30300000Y-59900000D02*
X16400000Y-46000000D01*
X69100000Y-48900000D02*
X68700000Y-49300000D01*
X69100000Y-48400000D02*
X69100000Y-48500000D01*
X69200000Y-48700000D02*
X69100000Y-48800000D01*
X60800000Y-35400000D02*
X63200000Y-35400000D01*
X32200000Y-61400000D02*
X30800000Y-60000000D01*
X16400000Y-42000000D02*
X16300000Y-41900000D01*
X67900000Y-55300000D02*
X67900000Y-55900000D01*
X30800000Y-60000000D02*
X30500000Y-60000000D01*
X61600000Y-57100000D02*
X60000000Y-58700000D01*
X15100000Y-39200000D02*
X15000000Y-39100000D01*
X68500000Y-54800000D02*
X68400000Y-54900000D01*
X59800000Y-32600000D02*
X59800000Y-33700000D01*
X67100000Y-36200000D02*
X66300000Y-37000000D01*
X68400000Y-45100000D02*
X68400000Y-47700000D01*
X63200000Y-35400000D02*
X63400000Y-35600000D01*
X68400000Y-47700000D02*
X69100000Y-48400000D01*
X30500000Y-60000000D02*
X30400000Y-59900000D01*
X68500000Y-54700000D02*
X68500000Y-54800000D01*
X16300000Y-40800000D02*
X15400000Y-39900000D01*
X66300000Y-37000000D02*
X66300000Y-38200000D01*
X64000000Y-57100000D02*
X61600000Y-57100000D01*
X30400000Y-59900000D02*
X30300000Y-59900000D01*
X69100000Y-48500000D02*
X69200000Y-48600000D01*
X15300000Y-39700000D02*
X15300000Y-39600000D01*
X15100000Y-39300000D02*
X15100000Y-39200000D01*
X60600000Y-35300000D02*
X60700000Y-35300000D01*
X69100000Y-48800000D02*
X69100000Y-48900000D01*
X47200000Y-60500000D02*
X43200000Y-60500000D01*
X47900000Y-60800000D02*
X47500000Y-60800000D01*
X47500000Y-60800000D02*
X47200000Y-60500000D01*
X60100000Y-34800000D02*
X60600000Y-35300000D01*
X16400000Y-46000000D02*
X16400000Y-42000000D01*
X15200000Y-39500000D02*
X15200000Y-39400000D01*
X60700000Y-35300000D02*
X60800000Y-35400000D01*
X15000000Y-39100000D02*
X15000000Y-38500000D01*
X48200000Y-60600000D02*
X48100000Y-60600000D01*
X69200000Y-48600000D02*
X69200000Y-48700000D01*
X15400000Y-39800000D02*
X15300000Y-39700000D01*
X66200000Y-38300000D02*
X66200000Y-38400000D01*
X59800000Y-33700000D02*
X60100000Y-34000000D01*
X48100000Y-60600000D02*
X47900000Y-60800000D01*
X16300000Y-41900000D02*
X16300000Y-40800000D01*
X15300000Y-39600000D02*
X15200000Y-39500000D01*
X66200000Y-38400000D02*
X65400000Y-39200000D01*
X68600000Y-54600000D02*
X68500000Y-54700000D01*
X60100000Y-34000000D02*
X60100000Y-34800000D01*
%TO.N,CELL_STATUS_U16*%
D19*
X55300000Y-33549999D02*
X55350000Y-33500000D01*
X58250000Y-32200000D02*
X58300000Y-32150000D01*
X56550000Y-33400000D02*
X56600000Y-33400000D01*
X56600000Y-33400000D02*
X57500000Y-32500000D01*
X55350000Y-33500000D02*
X55400000Y-33500000D01*
X55400000Y-33500000D02*
X55450000Y-33450000D01*
X57950000Y-32299999D02*
X58000000Y-32299999D01*
X58050000Y-32250000D02*
X58150000Y-32250000D01*
X51500000Y-33950000D02*
X51550000Y-33950000D01*
X57850000Y-32350000D02*
X57900000Y-32350000D01*
X51800000Y-33700000D02*
X51850000Y-33700000D01*
X58200000Y-32200000D02*
X58250000Y-32200000D01*
X58000000Y-32299999D02*
X58050000Y-32250000D01*
X51850000Y-33700000D02*
X51900000Y-33650000D01*
X57600000Y-32500000D02*
X57650000Y-32450000D01*
X55450000Y-33450000D02*
X56500000Y-33450000D01*
X57800000Y-32400000D02*
X57850000Y-32350000D01*
X56500000Y-33450000D02*
X56550000Y-33400000D01*
X57650000Y-32450000D02*
X57700000Y-32450000D01*
X58300000Y-32150000D02*
X58350000Y-32150000D01*
X57750000Y-32400000D02*
X57800000Y-32400000D01*
X54300000Y-33650000D02*
X54400000Y-33549999D01*
X58150000Y-32250000D02*
X58200000Y-32200000D01*
X51550000Y-33950000D02*
X51800000Y-33700000D01*
X57700000Y-32450000D02*
X57750000Y-32400000D01*
X54400000Y-33549999D02*
X55300000Y-33549999D01*
X57900000Y-32350000D02*
X57950000Y-32299999D01*
X57500000Y-32500000D02*
X57600000Y-32500000D01*
X51900000Y-33650000D02*
X54300000Y-33650000D01*
%TO.N,TAMPER_IN_U1*%
D16*
X60600000Y-29500000D02*
X58300000Y-29500000D01*
X58700000Y-30900000D02*
X58800000Y-30800000D01*
X64400000Y-32300000D02*
X64800000Y-32300000D01*
X60300000Y-30800000D02*
X60800000Y-31300000D01*
X60800000Y-31300000D02*
X63300000Y-31300000D01*
X64200000Y-32200000D02*
X64300000Y-32200000D01*
X64300000Y-32200000D02*
X64400000Y-32300000D01*
X58300000Y-31200000D02*
X58600000Y-30900000D01*
X58800000Y-30800000D02*
X60300000Y-30800000D01*
X58600000Y-30900000D02*
X58700000Y-30900000D01*
X57300000Y-31200000D02*
X58300000Y-31200000D01*
X63300000Y-31300000D02*
X64200000Y-32200000D01*
%TO.N,SD_D1_U1*%
D19*
X84400000Y-24150000D02*
X84400000Y-24200000D01*
X82900000Y-22450000D02*
X84200000Y-23750000D01*
X84250000Y-23900000D02*
X84300000Y-23950000D01*
X84350000Y-24100000D02*
X84400000Y-24150000D01*
X84200000Y-23800000D02*
X84250000Y-23850000D01*
X84200000Y-23750000D02*
X84200000Y-23800000D01*
X84300000Y-24000000D02*
X84350000Y-24050000D01*
X84300000Y-23950000D02*
X84300000Y-24000000D01*
X84250000Y-23850000D02*
X84250000Y-23900000D01*
X84350000Y-24050000D02*
X84350000Y-24100000D01*
%TO.N,MIC_WAKE*%
D16*
X48713700Y-40952900D02*
X48713700Y-37775500D01*
X49527200Y-36962000D02*
X49527200Y-35272500D01*
X52505700Y-32294000D02*
X56830400Y-32294000D01*
X54260800Y-46500000D02*
X48713700Y-40952900D01*
X48713700Y-37775500D02*
X49527200Y-36962000D01*
X55032000Y-46500000D02*
X54260800Y-46500000D01*
X49527200Y-35272500D02*
X52505700Y-32294000D01*
%TO.N,USB_VBUS_SENSE*%
X45300000Y-18500000D02*
X42400000Y-21400000D01*
X42400000Y-21400000D02*
X42200000Y-21400000D01*
X42100000Y-21500000D02*
X42000000Y-21500000D01*
X41800000Y-21700000D02*
X41800000Y-22300000D01*
X42000000Y-21500000D02*
X41800000Y-21700000D01*
X42200000Y-21400000D02*
X42100000Y-21500000D01*
%TO.N,SWDIO*%
X60700000Y-23900000D02*
X61700000Y-23900000D01*
X58800000Y-25900000D02*
X60300000Y-24400000D01*
X61700000Y-23900000D02*
X62200000Y-23400000D01*
X60300000Y-24400000D02*
X60300000Y-24200000D01*
X60500000Y-24000000D02*
X60600000Y-24000000D01*
X60600000Y-24000000D02*
X60700000Y-23900000D01*
X60300000Y-24200000D02*
X60500000Y-24000000D01*
X69300000Y-23400000D02*
X70400000Y-22300000D01*
X62200000Y-23400000D02*
X69300000Y-23400000D01*
%TO.N,SWCLK*%
X71900000Y-22000000D02*
X72000000Y-22100000D01*
X59100000Y-22300000D02*
X59200000Y-22300000D01*
X61500000Y-22400000D02*
X61800000Y-22700000D01*
X71700000Y-21900000D02*
X71800000Y-22000000D01*
X64600000Y-23000000D02*
X69100000Y-23000000D01*
X70200000Y-21900000D02*
X70300000Y-21900000D01*
X70300000Y-21900000D02*
X70400000Y-21800000D01*
X69100000Y-23000000D02*
X70200000Y-21900000D01*
X64300000Y-22800000D02*
X64400000Y-22900000D01*
X72500000Y-22400000D02*
X73100000Y-22400000D01*
X72000000Y-22100000D02*
X72200000Y-22100000D01*
X62000000Y-22800000D02*
X64300000Y-22800000D01*
X70400000Y-21800000D02*
X71500000Y-21800000D01*
X71500000Y-21800000D02*
X71600000Y-21900000D01*
X64500000Y-22900000D02*
X64600000Y-23000000D01*
X59200000Y-22300000D02*
X59300000Y-22400000D01*
X72200000Y-22100000D02*
X72500000Y-22400000D01*
X59300000Y-22400000D02*
X61500000Y-22400000D01*
X61900000Y-22700000D02*
X62000000Y-22800000D01*
X71600000Y-21900000D02*
X71700000Y-21900000D01*
X64400000Y-22900000D02*
X64500000Y-22900000D01*
X73100000Y-22400000D02*
X73200000Y-22300000D01*
X61800000Y-22700000D02*
X61900000Y-22700000D01*
X71800000Y-22000000D02*
X71900000Y-22000000D01*
X58600000Y-21800000D02*
X59100000Y-22300000D01*
%TO.N,AAD_CFG*%
X71000000Y-32100000D02*
X70900000Y-32200000D01*
X70500000Y-33000000D02*
X70500000Y-34100000D01*
X74900000Y-23500000D02*
X74600000Y-23800000D01*
X75700000Y-21800000D02*
X75900000Y-22000000D01*
X70900000Y-32300000D02*
X70800000Y-32400000D01*
X76000000Y-22200000D02*
X75900000Y-22300000D01*
X65500000Y-21500000D02*
X66200000Y-20800000D01*
X71500000Y-30900000D02*
X71500000Y-31000000D01*
X64500000Y-21900000D02*
X64900000Y-21500000D01*
X70700000Y-32700000D02*
X70600000Y-32800000D01*
X71200000Y-31500000D02*
X71200000Y-31600000D01*
X70700000Y-32600000D02*
X70700000Y-32700000D01*
X70200000Y-40200000D02*
X70100000Y-40300000D01*
X74400000Y-24600000D02*
X74300000Y-24700000D01*
X71500000Y-31000000D02*
X71400000Y-31100000D01*
X75500000Y-21700000D02*
X75600000Y-21800000D01*
X64900000Y-21500000D02*
X65500000Y-21500000D01*
X70800000Y-32400000D02*
X70800000Y-32500000D01*
X71400000Y-31100000D02*
X71400000Y-31200000D01*
X74600000Y-23900000D02*
X74500000Y-24000000D01*
X70800000Y-32500000D02*
X70700000Y-32600000D01*
X70400000Y-34200000D02*
X70400000Y-35500000D01*
X65500000Y-45800000D02*
X65400000Y-45900000D01*
X71300000Y-31300000D02*
X71300000Y-31400000D01*
X75900000Y-22400000D02*
X74900000Y-23400000D01*
X71400000Y-31200000D02*
X71300000Y-31300000D01*
X70100000Y-40400000D02*
X67000000Y-43500000D01*
X70400000Y-35500000D02*
X70200000Y-35700000D01*
X74500000Y-24400000D02*
X74400000Y-24500000D01*
X75600000Y-21800000D02*
X75700000Y-21800000D01*
X65800000Y-45700000D02*
X65700000Y-45800000D01*
X66500000Y-45200000D02*
X66100000Y-45600000D01*
X75900000Y-22100000D02*
X76000000Y-22200000D01*
X75900000Y-22300000D02*
X75900000Y-22400000D01*
X70500000Y-34100000D02*
X70400000Y-34200000D01*
X71300000Y-31400000D02*
X71200000Y-31500000D01*
X66000000Y-45600000D02*
X65900000Y-45700000D01*
X66100000Y-45600000D02*
X66000000Y-45600000D01*
X65200000Y-46000000D02*
X64900000Y-46000000D01*
X70200000Y-35700000D02*
X70200000Y-40200000D01*
X66200000Y-20800000D02*
X72000000Y-20800000D01*
X74900000Y-23400000D02*
X74900000Y-23500000D01*
X74300000Y-24700000D02*
X74300000Y-24800000D01*
X70100000Y-40300000D02*
X70100000Y-40400000D01*
X65400000Y-45900000D02*
X65300000Y-45900000D01*
X74500000Y-24000000D02*
X74500000Y-24400000D01*
X65900000Y-45700000D02*
X65800000Y-45700000D01*
X65700000Y-45800000D02*
X65500000Y-45800000D01*
X73300000Y-29100000D02*
X71500000Y-30900000D01*
X74400000Y-24500000D02*
X74400000Y-24600000D01*
X63000000Y-21900000D02*
X64500000Y-21900000D01*
X75900000Y-22000000D02*
X75900000Y-22100000D01*
X71100000Y-31800000D02*
X71000000Y-31900000D01*
X74600000Y-23800000D02*
X74600000Y-23900000D01*
X65300000Y-45900000D02*
X65200000Y-46000000D01*
X71100000Y-31700000D02*
X71100000Y-31800000D01*
X70600000Y-32900000D02*
X70500000Y-33000000D01*
X70900000Y-32200000D02*
X70900000Y-32300000D01*
X71200000Y-31600000D02*
X71100000Y-31700000D01*
X71000000Y-31900000D02*
X71000000Y-32100000D01*
X70600000Y-32800000D02*
X70600000Y-32900000D01*
%TO.N,SD_D2_U1*%
X78100000Y-22700000D02*
X79200000Y-22700000D01*
X81200000Y-24300000D02*
X81400000Y-24300000D01*
X89100000Y-23700000D02*
X89100000Y-21800000D01*
X84400000Y-25800000D02*
X84900000Y-26300000D01*
X86500000Y-26300000D02*
X89100000Y-23700000D01*
X77900000Y-22600000D02*
X78000000Y-22600000D01*
X83400000Y-25200000D02*
X83500000Y-25300000D01*
X84200000Y-25800000D02*
X84400000Y-25800000D01*
X83800000Y-25400000D02*
X84200000Y-25800000D01*
X78000000Y-22600000D02*
X78100000Y-22700000D01*
X80600000Y-23700000D02*
X81200000Y-24300000D01*
X81400000Y-24300000D02*
X82300000Y-25200000D01*
X83700000Y-25400000D02*
X83800000Y-25400000D01*
X83500000Y-25300000D02*
X83600000Y-25300000D01*
X80200000Y-23700000D02*
X80600000Y-23700000D01*
X83600000Y-25300000D02*
X83700000Y-25400000D01*
X79200000Y-22700000D02*
X80200000Y-23700000D01*
X77200000Y-21900000D02*
X77900000Y-22600000D01*
X82300000Y-25200000D02*
X83400000Y-25200000D01*
%TO.N,PWR_GOOD*%
X12725800Y-12144100D02*
X10420100Y-14449800D01*
X8870000Y-16000000D02*
X5892900Y-18977100D01*
X53121200Y-20574600D02*
X51695500Y-19148900D01*
X44419300Y-12144100D02*
X12725800Y-12144100D01*
X51695500Y-19148900D02*
X51424100Y-19148900D01*
X51424100Y-19148900D02*
X44419300Y-12144100D01*
X5892900Y-18977100D02*
X5892900Y-25195400D01*
X8970200Y-16000000D02*
X8870000Y-16000000D01*
X10420100Y-14550100D02*
X8970200Y-16000000D01*
X50540000Y-21750000D02*
X50900000Y-18624800D01*
X53121200Y-20846000D02*
X53121200Y-20574600D01*
X48240000Y-24750000D02*
X50540000Y-21750000D01*
X10420100Y-14449800D02*
X10420100Y-14550100D01*
%TO.N,PWR_FAULT*%
X45300000Y-18000000D02*
X38300000Y-18000000D01*
X45800000Y-18500000D02*
X45700000Y-18400000D01*
X38300000Y-18000000D02*
X38200000Y-18100000D01*
X45500000Y-18100000D02*
X45400000Y-18100000D01*
X45700000Y-18400000D02*
X45700000Y-18300000D01*
X45700000Y-18300000D02*
X45500000Y-18100000D01*
X38200000Y-18100000D02*
X37600000Y-18100000D01*
X52600000Y-19400000D02*
X48600000Y-15400000D01*
X45400000Y-18100000D02*
X45300000Y-18000000D01*
X48600000Y-15400000D02*
X48600000Y-15300000D01*
%TO.N,EN_AUX*%
X19079100Y-14503200D02*
X18061500Y-15520800D01*
X18061500Y-15520800D02*
X16899200Y-15520800D01*
X47714000Y-17846600D02*
X47309100Y-17846600D01*
X48228400Y-18813000D02*
X48228400Y-18361000D01*
X47309100Y-17846600D02*
X43965700Y-14503200D01*
X48228400Y-18361000D02*
X47714000Y-17846600D01*
X48937100Y-20204000D02*
X48937100Y-19521700D01*
X43965700Y-14503200D02*
X19079100Y-14503200D01*
X16899200Y-15520800D02*
X11920000Y-20500000D01*
X48937100Y-19521700D02*
X48228400Y-18813000D01*
%TO.N,PDM_DATA2*%
X76300000Y-22000000D02*
X76400000Y-22100000D01*
X76300000Y-22400000D02*
X76300000Y-22500000D01*
X76200000Y-21700000D02*
X76200000Y-21800000D01*
X52500000Y-21900000D02*
X52500000Y-20800000D01*
X71800000Y-31300000D02*
X71700000Y-31400000D01*
X70700000Y-35800000D02*
X70600000Y-35900000D01*
X70500000Y-40400000D02*
X70500000Y-40500000D01*
X70800000Y-35600000D02*
X70700000Y-35700000D01*
X70600000Y-35900000D02*
X70600000Y-40300000D01*
X76300000Y-22500000D02*
X76200000Y-22600000D01*
X71700000Y-31400000D02*
X71700000Y-31500000D01*
X53100000Y-18200000D02*
X57800000Y-13500000D01*
X71400000Y-32200000D02*
X71300000Y-32300000D01*
X70700000Y-35700000D02*
X70700000Y-35800000D01*
X70800000Y-34300000D02*
X70800000Y-35600000D01*
X53100000Y-19400000D02*
X53100000Y-18200000D01*
X70400000Y-40600000D02*
X70400000Y-40700000D01*
X76200000Y-21800000D02*
X76300000Y-21900000D01*
X76400000Y-22300000D02*
X76300000Y-22400000D01*
X71600000Y-31600000D02*
X71600000Y-31700000D01*
X71200000Y-32600000D02*
X71100000Y-32700000D01*
X72100000Y-17600000D02*
X76200000Y-21700000D01*
X71500000Y-31900000D02*
X71400000Y-32000000D01*
X71100000Y-32700000D02*
X71100000Y-32800000D01*
X75700000Y-24200000D02*
X75600000Y-24300000D01*
X76400000Y-22100000D02*
X76400000Y-22300000D01*
X72700000Y-30300000D02*
X71800000Y-31200000D01*
X52500000Y-20800000D02*
X52100000Y-20400000D01*
X76300000Y-21900000D02*
X76300000Y-22000000D01*
X75700000Y-23200000D02*
X75700000Y-24200000D01*
X70600000Y-40300000D02*
X70500000Y-40400000D01*
X71000000Y-33000000D02*
X70900000Y-33100000D01*
X71300000Y-32400000D02*
X71200000Y-32500000D01*
X70400000Y-40700000D02*
X69200000Y-41900000D01*
X76200000Y-22700000D02*
X75700000Y-23200000D01*
X75600000Y-24300000D02*
X75600000Y-25000000D01*
X71300000Y-32300000D02*
X71300000Y-32400000D01*
X71600000Y-31700000D02*
X71500000Y-31800000D01*
X71400000Y-32000000D02*
X71400000Y-32200000D01*
X71500000Y-31800000D02*
X71500000Y-31900000D01*
X70900000Y-33100000D02*
X70900000Y-34200000D01*
X75500000Y-25100000D02*
X75500000Y-25200000D01*
X71100000Y-32800000D02*
X71000000Y-32900000D01*
X75600000Y-25000000D02*
X75500000Y-25100000D01*
X70900000Y-34200000D02*
X70800000Y-34300000D01*
X71700000Y-31500000D02*
X71600000Y-31600000D01*
X70500000Y-40500000D02*
X70400000Y-40600000D01*
X71200000Y-32500000D02*
X71200000Y-32600000D01*
X71800000Y-31200000D02*
X71800000Y-31300000D01*
X76200000Y-22600000D02*
X76200000Y-22700000D01*
X71000000Y-32900000D02*
X71000000Y-33000000D01*
%TO.N,CELL_TX_U16*%
X24458900Y-30940000D02*
X24022600Y-30940000D01*
X24022600Y-30940000D02*
X23793400Y-31169200D01*
X21192500Y-32989700D02*
X18678300Y-35503900D01*
X18678300Y-35503900D02*
X17941700Y-35503900D01*
X25681200Y-33725000D02*
X25681200Y-32162300D01*
X23793400Y-31169200D02*
X22889200Y-31169200D01*
X37621600Y-33872500D02*
X38197100Y-34448000D01*
X28108100Y-40373500D02*
X27592500Y-39857900D01*
X38197100Y-34448000D02*
X38197100Y-39733100D01*
X37621600Y-27443300D02*
X37621600Y-33872500D01*
X17462400Y-35983200D02*
X17462400Y-36217100D01*
X21192500Y-32865900D02*
X21192500Y-32989700D01*
X31680400Y-39733100D02*
X31040000Y-40373500D01*
X17941700Y-35503900D02*
X17462400Y-35983200D01*
X27592500Y-37085200D02*
X26406000Y-35898700D01*
X31040000Y-40373500D02*
X28108100Y-40373500D01*
X26406000Y-34449800D02*
X25681200Y-33725000D01*
X25681200Y-32162300D02*
X24458900Y-30940000D01*
X22889200Y-31169200D02*
X21192500Y-32865900D01*
X26406000Y-35898700D02*
X26406000Y-34449800D01*
X27592500Y-39857900D02*
X27592500Y-37085200D01*
%TO.N,3V8_MODEM_RF*%
D21*
X28269200Y-36629700D02*
X28267700Y-36628200D01*
X12574800Y-36033500D02*
X11109800Y-37498500D01*
D22*
X36500000Y-55600000D02*
X36500000Y-57200000D01*
X35800000Y-57600000D02*
X35700000Y-57600000D01*
X36300000Y-57400000D02*
X36200000Y-57400000D01*
X36500000Y-57200000D02*
X36300000Y-57400000D01*
X35900000Y-57500000D02*
X35800000Y-57600000D01*
D21*
X15240700Y-28612700D02*
X12574800Y-31278600D01*
X28267700Y-36628200D02*
X28267700Y-32049900D01*
X28269200Y-39556000D02*
X28269200Y-36629700D01*
D22*
X36200000Y-57400000D02*
X36100000Y-57500000D01*
D21*
X22643400Y-27652000D02*
X21422900Y-28872500D01*
X21422900Y-28872500D02*
X16352600Y-28872500D01*
D22*
X36100000Y-57500000D02*
X35900000Y-57500000D01*
D21*
X12574800Y-31278600D02*
X12574800Y-36033500D01*
X31067600Y-29250000D02*
X31416700Y-29250000D01*
X28400000Y-39686800D02*
X28269200Y-39556000D01*
X16092800Y-28612700D02*
X15240700Y-28612700D01*
X16352600Y-28872500D02*
X16092800Y-28612700D01*
X28267700Y-32049900D02*
X31067600Y-29250000D01*
%TO.N,U8_VDD_EXT_1V8*%
D17*
X15084100Y-32215800D02*
X15135200Y-32164700D01*
X28544200Y-60695800D02*
X28544200Y-59772200D01*
X13777500Y-48516500D02*
X13777500Y-36553500D01*
X16842300Y-32164700D02*
X16848600Y-32171000D01*
X14714000Y-32215800D02*
X15084100Y-32215800D01*
X13426600Y-33503200D02*
X14714000Y-32215800D01*
X13777500Y-36553500D02*
X13426600Y-36202600D01*
X27250500Y-61989500D02*
X13777500Y-48516500D01*
X15135200Y-32164700D02*
X16842300Y-32164700D01*
X13426600Y-36202600D02*
X13426600Y-33503200D01*
X27250500Y-61989500D02*
X28544200Y-60695800D01*
%TO.N,U8_MAIN_TXD_1V8*%
D16*
X16265900Y-36649800D02*
X17763500Y-35152200D01*
X16778700Y-39682500D02*
X16778700Y-45827600D01*
X16778700Y-45827600D02*
X30496500Y-59545400D01*
X20716900Y-32078500D02*
X22320400Y-30475000D01*
X16265900Y-39169700D02*
X16778700Y-39682500D01*
X15148400Y-35438900D02*
X14633000Y-34923500D01*
X16265900Y-36776800D02*
X16265900Y-36649800D01*
X16265900Y-36776800D02*
X16265900Y-39169700D01*
X30896200Y-59545400D02*
X32141600Y-58300000D01*
X18469400Y-35152200D02*
X20716900Y-32904700D01*
X15576600Y-36776800D02*
X15148400Y-36348600D01*
X20716900Y-32904700D02*
X20716900Y-32078500D01*
X30496500Y-59545400D02*
X30896200Y-59545400D01*
X17763500Y-35152200D02*
X18469400Y-35152200D01*
X15148400Y-36348600D02*
X15148400Y-35438900D01*
X16265900Y-36776800D02*
X15576600Y-36776800D01*
%TO.N,3V8_MODEM_BB*%
D21*
X34250000Y-61600000D02*
X33612900Y-60962900D01*
X35650900Y-36466900D02*
X35650900Y-50458200D01*
X36460000Y-50678900D02*
X35871600Y-50678900D01*
X35871600Y-36246200D02*
X35650900Y-36466900D01*
X33612900Y-60962900D02*
X33612900Y-52937600D01*
X35650900Y-50458200D02*
X35871600Y-50678900D01*
X33612900Y-52937600D02*
X35871600Y-50678900D01*
%TO.N,AAD_CFG_1V8_FANOUT*%
D16*
X62300000Y-64500000D02*
X62200000Y-64600000D01*
X61900000Y-64700000D02*
X61800000Y-64700000D01*
X62400000Y-64500000D02*
X62300000Y-64500000D01*
X60600000Y-65900000D02*
X60500000Y-65900000D01*
X61800000Y-64700000D02*
X60600000Y-65900000D01*
X64100000Y-62500000D02*
X62700000Y-63900000D01*
X62000000Y-64600000D02*
X61900000Y-64700000D01*
X60500000Y-65900000D02*
X58000000Y-68400000D01*
X62200000Y-64600000D02*
X62000000Y-64600000D01*
X62700000Y-63900000D02*
X62700000Y-64200000D01*
X62700000Y-64200000D02*
X62400000Y-64500000D01*
X64700000Y-47900000D02*
X63500000Y-49100000D01*
X63500000Y-49100000D02*
X63500000Y-54400000D01*
%TO.N,CELL_DBG_RXD_TP*%
X49700000Y-33100000D02*
X47400000Y-35400000D01*
X46000000Y-38400000D02*
X46000000Y-46100000D01*
X40050000Y-63600000D02*
X40050000Y-63100000D01*
X46300000Y-46400000D02*
X46300000Y-47800000D01*
X45800000Y-37400000D02*
X45900000Y-37500000D01*
X45900000Y-37500000D02*
X45900000Y-38300000D01*
X46000000Y-46100000D02*
X46300000Y-46400000D01*
X45800000Y-36300000D02*
X45800000Y-37400000D01*
X51600000Y-31000000D02*
X49700000Y-32900000D01*
X40050000Y-63100000D02*
X40750000Y-61300000D01*
X40750000Y-61300000D02*
X40380400Y-57475000D01*
X45900000Y-38300000D02*
X46000000Y-38400000D01*
X40582500Y-64450000D02*
X40050000Y-63600000D01*
X49700000Y-32900000D02*
X49700000Y-33100000D01*
%TO.N,CELL_DBG_RXD_U8*%
X40267900Y-54788600D02*
X35531900Y-59524600D01*
X35531900Y-62062500D02*
X33591200Y-64003200D01*
X40331400Y-54788600D02*
X40267900Y-54788600D01*
X35531900Y-59524600D02*
X35531900Y-62062500D01*
X33591200Y-64003200D02*
X22194000Y-64003200D01*
%TO.N,USB_DP_CONN*%
X73300000Y-22700000D02*
X73200000Y-22800000D01*
X73300000Y-21800000D02*
X73600000Y-22100000D01*
X73600000Y-22200000D02*
X73700000Y-22300000D01*
X73200000Y-22800000D02*
X71500000Y-22800000D01*
X73600000Y-22500000D02*
X73400000Y-22700000D01*
X73300000Y-21600000D02*
X73300000Y-21800000D01*
X72900000Y-21200000D02*
X73300000Y-21600000D01*
X72900000Y-21100000D02*
X72900000Y-21200000D01*
X69800000Y-18000000D02*
X72900000Y-21100000D01*
X73400000Y-22700000D02*
X73300000Y-22700000D01*
X69800000Y-17600000D02*
X69800000Y-18000000D01*
X73700000Y-22300000D02*
X73600000Y-22400000D01*
X71500000Y-22800000D02*
X70300000Y-24000000D01*
X73600000Y-22400000D02*
X73600000Y-22500000D01*
X73600000Y-22100000D02*
X73600000Y-22200000D01*
%TO.N,USB_DM_CONN*%
X73600000Y-21400000D02*
X73700000Y-21500000D01*
X61200000Y-12400000D02*
X63900000Y-15100000D01*
X73400000Y-23100000D02*
X72400000Y-24100000D01*
X74000000Y-22500000D02*
X74000000Y-22600000D01*
X73500000Y-23100000D02*
X73400000Y-23100000D01*
X73900000Y-21800000D02*
X73900000Y-21900000D01*
X47800000Y-9300000D02*
X50800000Y-12300000D01*
X42200000Y-9300000D02*
X47800000Y-9300000D01*
X73200000Y-20900000D02*
X73600000Y-21300000D01*
X74000000Y-22600000D02*
X73900000Y-22700000D01*
X74100000Y-22400000D02*
X74000000Y-22500000D01*
X70300000Y-17400000D02*
X70300000Y-17900000D01*
X64700000Y-15200000D02*
X68000000Y-15200000D01*
X73900000Y-22700000D02*
X73900000Y-22800000D01*
X64600000Y-15100000D02*
X64700000Y-15200000D01*
X69000000Y-16200000D02*
X70300000Y-16200000D01*
X73600000Y-23000000D02*
X73500000Y-23100000D01*
X50800000Y-12300000D02*
X61000000Y-12300000D01*
X70300000Y-17900000D02*
X73200000Y-20800000D01*
X41600000Y-8700000D02*
X42200000Y-9300000D01*
X73900000Y-22800000D02*
X73700000Y-23000000D01*
X74100000Y-22200000D02*
X74100000Y-22400000D01*
X68000000Y-15200000D02*
X69000000Y-16200000D01*
X73900000Y-21900000D02*
X74000000Y-22000000D01*
X61100000Y-12400000D02*
X61200000Y-12400000D01*
X73700000Y-21600000D02*
X73900000Y-21800000D01*
X74000000Y-22100000D02*
X74100000Y-22200000D01*
X73700000Y-23000000D02*
X73600000Y-23000000D01*
X73200000Y-20800000D02*
X73200000Y-20900000D01*
X63900000Y-15100000D02*
X64600000Y-15100000D01*
X73600000Y-21300000D02*
X73600000Y-21400000D01*
X61000000Y-12300000D02*
X61100000Y-12400000D01*
X73700000Y-21500000D02*
X73700000Y-21600000D01*
X74000000Y-22000000D02*
X74000000Y-22100000D01*
%TO.N,MIC_WAKE4*%
X98094300Y-52990900D02*
X98094300Y-52989300D01*
X59206100Y-56376000D02*
X59206100Y-58512800D01*
X62727100Y-62033800D02*
X89051400Y-62033800D01*
X98095900Y-52990900D02*
X98094300Y-52990900D01*
X48695200Y-48585700D02*
X51415800Y-48585700D01*
X46849100Y-46739600D02*
X48695200Y-48585700D01*
X89051400Y-62033800D02*
X98094300Y-52990900D01*
X51415800Y-48585700D02*
X59206100Y-56376000D01*
X59206100Y-58512800D02*
X62727100Y-62033800D01*
X100052400Y-51034400D02*
X98095900Y-52990900D01*
%TO.N,MIC_WAKE2*%
X37925000Y-63416600D02*
X37925000Y-64740800D01*
X37093600Y-62585200D02*
X37925000Y-63416600D01*
X36510800Y-67949200D02*
X36833400Y-68271800D01*
X37925000Y-64740800D02*
X36510800Y-66155000D01*
X38159400Y-68271800D02*
X41987100Y-64444100D01*
X41987100Y-45582000D02*
X42869100Y-44700000D01*
X36833400Y-68271800D02*
X38159400Y-68271800D01*
X41987100Y-64444100D02*
X41987100Y-45582000D01*
X36510800Y-66155000D02*
X36510800Y-67949200D01*
%TO.N,GNSS_RX_U9*%
X49727700Y-57753100D02*
X48688900Y-56714300D01*
X49727700Y-61396000D02*
X49727700Y-57753100D01*
%TO.N,CELL_USIM_VDD_1V8*%
D17*
X35077900Y-26144000D02*
X35077900Y-21635200D01*
X35083000Y-16257900D02*
X36621700Y-17796600D01*
X33114500Y-28107400D02*
X35077900Y-26144000D01*
X35083000Y-15885400D02*
X35083000Y-16257900D01*
X33114500Y-47862200D02*
X33114500Y-28107400D01*
X36621700Y-17796600D02*
X36621700Y-18327000D01*
X34152300Y-48900000D02*
X33114500Y-47862200D01*
X35077900Y-21635200D02*
X35017700Y-21575000D01*
%TO.N,CELL_USIM_CLK_1V8*%
D16*
X31400000Y-41200000D02*
X31400000Y-40800000D01*
X30800000Y-34700000D02*
X30800000Y-31000000D01*
X31700000Y-22000000D02*
X31700000Y-21900000D01*
X34400000Y-19200000D02*
X34500000Y-19300000D01*
X33900000Y-19000000D02*
X34000000Y-19000000D01*
X31200000Y-19800000D02*
X31100000Y-19700000D01*
X32300000Y-22900000D02*
X32100000Y-22700000D01*
X30900000Y-30900000D02*
X30900000Y-30800000D01*
X31700000Y-19100000D02*
X31800000Y-19100000D01*
X32500000Y-18500000D02*
X32600000Y-18400000D01*
X32100000Y-22700000D02*
X32100000Y-22600000D01*
X35000000Y-19500000D02*
X35100000Y-19500000D01*
X31500000Y-41300000D02*
X31400000Y-41200000D01*
X32100000Y-22600000D02*
X32000000Y-22500000D01*
X31800000Y-19100000D02*
X32400000Y-18500000D01*
X31200000Y-19500000D02*
X31500000Y-19200000D01*
X31500000Y-19200000D02*
X31600000Y-19200000D01*
X34100000Y-19100000D02*
X34200000Y-19100000D01*
X33100000Y-18600000D02*
X33200000Y-18700000D01*
X34200000Y-19100000D02*
X34300000Y-19200000D01*
X33800000Y-18900000D02*
X33900000Y-19000000D01*
X31900000Y-22300000D02*
X31900000Y-22200000D01*
X32100000Y-29500000D02*
X32100000Y-28000000D01*
X30800000Y-31000000D02*
X30900000Y-30900000D01*
X32400000Y-23200000D02*
X32400000Y-23100000D01*
X32000000Y-29700000D02*
X32000000Y-29600000D01*
X35700000Y-19800000D02*
X35800000Y-19900000D01*
X34700000Y-19400000D02*
X34900000Y-19400000D01*
X35100000Y-19500000D02*
X35200000Y-19600000D01*
X31400000Y-21500000D02*
X31400000Y-21400000D01*
X34600000Y-19300000D02*
X34700000Y-19400000D01*
X33300000Y-18700000D02*
X33400000Y-18800000D01*
X33500000Y-18800000D02*
X33600000Y-18900000D01*
X33400000Y-18800000D02*
X33500000Y-18800000D01*
X32600000Y-24100000D02*
X32600000Y-23400000D01*
X32400000Y-23100000D02*
X32300000Y-23000000D01*
X31400000Y-21400000D02*
X31300000Y-21300000D01*
X32300000Y-23000000D02*
X32300000Y-22900000D01*
X31600000Y-19200000D02*
X31700000Y-19100000D01*
X32000000Y-22400000D02*
X31900000Y-22300000D01*
X32500000Y-24200000D02*
X32600000Y-24100000D01*
X35300000Y-19600000D02*
X35400000Y-19700000D01*
X32800000Y-18400000D02*
X33000000Y-18600000D01*
X32300000Y-38300000D02*
X31600000Y-37600000D01*
X34300000Y-19200000D02*
X34400000Y-19200000D01*
X32400000Y-18500000D02*
X32500000Y-18500000D01*
X34500000Y-19300000D02*
X34600000Y-19300000D01*
X31600000Y-37600000D02*
X31600000Y-35500000D01*
X31200000Y-21100000D02*
X31200000Y-19800000D01*
X32000000Y-29600000D02*
X32100000Y-29500000D01*
X34000000Y-19000000D02*
X34100000Y-19100000D01*
X35400000Y-19700000D02*
X35500000Y-19700000D01*
X31300000Y-21200000D02*
X31200000Y-21100000D01*
X35500000Y-19700000D02*
X35600000Y-19800000D01*
X32600000Y-23400000D02*
X32400000Y-23200000D01*
X32600000Y-18400000D02*
X32800000Y-18400000D01*
X32200000Y-39900000D02*
X32300000Y-39800000D01*
X33600000Y-18900000D02*
X33800000Y-18900000D01*
X31600000Y-35500000D02*
X30800000Y-34700000D01*
X31700000Y-21900000D02*
X31600000Y-21800000D01*
X35600000Y-19800000D02*
X35700000Y-19800000D01*
X34900000Y-19400000D02*
X35000000Y-19500000D01*
X31100000Y-19700000D02*
X31200000Y-19600000D01*
X32200000Y-40000000D02*
X32200000Y-39900000D01*
X31200000Y-19600000D02*
X31200000Y-19500000D01*
X33200000Y-18700000D02*
X33300000Y-18700000D01*
X31400000Y-40800000D02*
X32200000Y-40000000D01*
X31600000Y-21800000D02*
X31600000Y-21700000D01*
X32300000Y-39800000D02*
X32300000Y-38300000D01*
X32000000Y-22500000D02*
X32000000Y-22400000D01*
X35200000Y-19600000D02*
X35300000Y-19600000D01*
X30900000Y-30800000D02*
X32000000Y-29700000D01*
X31300000Y-21300000D02*
X31300000Y-21200000D01*
X33000000Y-18600000D02*
X33100000Y-18600000D01*
X31500000Y-42300000D02*
X31500000Y-41300000D01*
X31600000Y-21700000D02*
X31400000Y-21500000D01*
X31900000Y-22200000D02*
X31700000Y-22000000D01*
%TO.N,SIM2_VDD_CONN*%
D17*
X36990300Y-19537200D02*
X36990400Y-19537200D01*
X57604700Y-15547000D02*
X57604700Y-15790300D01*
X60875900Y-12898600D02*
X60253100Y-12898600D01*
X32397300Y-20923400D02*
X35841000Y-20923400D01*
X60253100Y-12898600D02*
X57604700Y-15547000D01*
X35841000Y-20923400D02*
X36990300Y-19774100D01*
X36990300Y-19774100D02*
X36990300Y-19537200D01*
%TO.N,SIM1_RST_CONN*%
D16*
X21195000Y-20000000D02*
X23000000Y-17600000D01*
X23000000Y-17600000D02*
X24075000Y-16700000D01*
X18175000Y-16000000D02*
X24075000Y-16700000D01*
%TO.N,FAULT*%
X45000000Y-26600000D02*
X44400000Y-26000000D01*
X47000000Y-26400000D02*
X46300000Y-26400000D01*
X44400000Y-26000000D02*
X43700000Y-26000000D01*
X43700000Y-26000000D02*
X43300000Y-26400000D01*
X43300000Y-26400000D02*
X40900000Y-26400000D01*
X40500000Y-26000000D02*
X40400000Y-26000000D01*
X40400000Y-26000000D02*
X40300000Y-25900000D01*
X40300000Y-25900000D02*
X36000000Y-25900000D01*
X46000000Y-26500000D02*
X45900000Y-26600000D01*
X40900000Y-26400000D02*
X40500000Y-26000000D01*
X36000000Y-25900000D02*
X35600000Y-26300000D01*
X45900000Y-26600000D02*
X45000000Y-26600000D01*
X46300000Y-26400000D02*
X46200000Y-26500000D01*
X46200000Y-26500000D02*
X46000000Y-26500000D01*
%TO.N,MIC_WAKE3*%
X75215500Y-72230200D02*
X82918200Y-64527500D01*
X45888000Y-46548500D02*
X45888000Y-57640900D01*
X57889300Y-72230200D02*
X75215500Y-72230200D01*
X45888000Y-57640900D02*
X49130300Y-60883200D01*
X49130300Y-63471200D02*
X57889300Y-72230200D01*
X45339500Y-46000000D02*
X45888000Y-46548500D01*
X49130300Y-60883200D02*
X49130300Y-63471200D01*
%TO.N,GNSS_TX_U9*%
X63319800Y-40581800D02*
X68018200Y-45280200D01*
X65233000Y-29895600D02*
X65233000Y-37784800D01*
X64638000Y-29300600D02*
X65233000Y-29895600D01*
X67544400Y-53090400D02*
X67544400Y-56831700D01*
X63319800Y-39698000D02*
X63319800Y-40581800D01*
X68018200Y-45280200D02*
X68018200Y-52616600D01*
X67544400Y-56831700D02*
X64363700Y-60012400D01*
X68018200Y-52616600D02*
X67544400Y-53090400D01*
X65233000Y-37784800D02*
X63319800Y-39698000D01*
%TO.N,GNSS_ANT_OFF_N*%
X59233700Y-64765700D02*
X54600000Y-60132000D01*
X54600000Y-60132000D02*
X54600000Y-54912100D01*
%TO.N,CELL_USB_VBUS*%
D17*
X34364600Y-60139700D02*
X34364600Y-56709600D01*
X19656300Y-50000000D02*
X32018700Y-62362400D01*
X32018700Y-62362400D02*
X34552900Y-62362400D01*
X35010900Y-60786000D02*
X34364600Y-60139700D01*
X34552900Y-62362400D02*
X35010900Y-61904400D01*
X35010900Y-61904400D02*
X35010900Y-60786000D01*
X34364600Y-56709600D02*
X37760000Y-53314200D01*
X17051600Y-50000000D02*
X19656300Y-50000000D01*
X33875600Y-30993000D02*
X37571200Y-34688600D01*
X37571200Y-34688600D02*
X37571200Y-53125400D01*
X37571200Y-53125400D02*
X37760000Y-53314200D01*
%TO.N,I2C2_SCL_BUS*%
D16*
X60200000Y-18200000D02*
X60200000Y-18100000D01*
X65650000Y-34850000D02*
X65700000Y-38150000D01*
X62100000Y-22400000D02*
X64500000Y-22400000D01*
X66650000Y-30450000D02*
X66650000Y-30950000D01*
X60300000Y-17900000D02*
X60400000Y-17800000D01*
X64500000Y-22400000D02*
X64700000Y-22600000D01*
X60300000Y-18000000D02*
X60300000Y-17900000D01*
X60000000Y-18500000D02*
X60100000Y-18400000D01*
X59900000Y-19800000D02*
X60000000Y-19700000D01*
X60000000Y-19700000D02*
X60000000Y-18500000D01*
X61500000Y-21800000D02*
X62100000Y-22400000D01*
X60400000Y-17700000D02*
X60600000Y-17500000D01*
X60600000Y-17400000D02*
X60700000Y-17300000D01*
X66650000Y-30950000D02*
X66800000Y-31100000D01*
X65700000Y-38150000D02*
X65685100Y-38170100D01*
X66800000Y-31300000D02*
X67300000Y-31800000D01*
X66650000Y-30450000D02*
X66650000Y-31300000D01*
X66650000Y-31300000D02*
X66250000Y-31700000D01*
X60100000Y-18300000D02*
X60200000Y-18200000D01*
X60100000Y-18400000D02*
X60100000Y-18300000D01*
X66000000Y-22600000D02*
X66200000Y-22400000D01*
X60600000Y-21900000D02*
X59900000Y-21200000D01*
X66150000Y-32000000D02*
X65650000Y-34850000D01*
X65237500Y-29255200D02*
X65250000Y-29250000D01*
X60400000Y-17800000D02*
X60400000Y-17700000D01*
X66250000Y-31700000D02*
X66150000Y-32000000D01*
X60200000Y-18100000D02*
X60300000Y-18000000D01*
X60700000Y-17300000D02*
X60700000Y-17100000D01*
X59900000Y-21200000D02*
X59900000Y-19800000D01*
X64700000Y-22600000D02*
X66000000Y-22600000D01*
X60600000Y-17500000D02*
X60600000Y-17400000D01*
X66800000Y-31100000D02*
X66800000Y-31300000D01*
%TO.N,I2C2_SDA_BUS*%
X47103200Y-18198300D02*
X47568300Y-18198300D01*
X50200000Y-20800000D02*
X50150000Y-20850000D01*
X41352400Y-33102600D02*
X41352400Y-33366800D01*
X43912100Y-13547300D02*
X35261100Y-13547300D01*
X47855000Y-23927600D02*
X50191000Y-21591600D01*
X44468500Y-20833000D02*
X47103200Y-18198300D01*
X45720800Y-21016600D02*
X45720800Y-22890700D01*
X45720800Y-22890700D02*
X46757700Y-23927600D01*
X63230000Y-24750000D02*
X63430000Y-25250000D01*
X63430000Y-25250000D02*
X62833000Y-30004400D01*
X50191000Y-21591600D02*
X50191000Y-20207300D01*
X46318300Y-20501700D02*
X46235700Y-20501700D01*
X50200000Y-20600000D02*
X50200000Y-20800000D01*
X47553300Y-26224400D02*
X44468500Y-23139600D01*
X46235700Y-20501700D02*
X45720800Y-21016600D01*
X35261100Y-13547300D02*
X34890200Y-13176400D01*
X44468500Y-23139600D02*
X44468500Y-20833000D01*
X47876700Y-18943300D02*
X46318300Y-20501700D01*
X47876700Y-18506700D02*
X47876700Y-18943300D01*
X50250000Y-20550000D02*
X50200000Y-20600000D01*
X48580100Y-18596400D02*
X48580100Y-18215300D01*
X13243600Y-13176400D02*
X11920000Y-14500000D01*
X47568300Y-18198300D02*
X47876700Y-18506700D01*
X46757700Y-23927600D02*
X47855000Y-23927600D01*
X47553300Y-30004400D02*
X47553300Y-26224400D01*
X50191000Y-20207300D02*
X48580100Y-18596400D01*
X64530300Y-31701700D02*
X62833000Y-30004400D01*
X44450600Y-30004400D02*
X41352400Y-33102600D01*
X48580100Y-18215300D02*
X43912100Y-13547300D01*
X41352400Y-36211400D02*
X41352400Y-33366800D01*
X47553300Y-30004400D02*
X44450600Y-30004400D01*
X50150000Y-20850000D02*
X50150000Y-21550000D01*
X34890200Y-13176400D02*
X13243600Y-13176400D01*
X41243400Y-36320400D02*
X41352400Y-36211400D01*
%TO.N,CELL_DBG_TXD_U8*%
X11720400Y-55628100D02*
X18084600Y-61992300D01*
X11720400Y-46384000D02*
X11720400Y-55628100D01*
%TO.N,CELL_DBG_TXD_TP*%
X32846500Y-63502100D02*
X32941200Y-63407400D01*
X27747100Y-63502100D02*
X32846500Y-63502100D01*
X19376800Y-55131800D02*
X27747100Y-63502100D01*
X12999800Y-47551500D02*
X12999900Y-47551500D01*
X12649100Y-47200800D02*
X12999800Y-47551500D01*
X11351000Y-45750000D02*
X11890900Y-45750000D01*
X19376700Y-55131800D02*
X19376800Y-55131800D01*
X12649100Y-46508200D02*
X12649100Y-47200800D01*
X46474000Y-31749900D02*
X47900000Y-31400000D01*
X46474000Y-31749900D02*
X46474000Y-33430600D01*
X46474000Y-33430600D02*
X41468000Y-38436600D01*
X11890900Y-45750000D02*
X12649100Y-46508200D01*
X41468000Y-62554500D02*
X40582500Y-63440000D01*
X41468000Y-38436600D02*
X41468000Y-62554500D01*
X19376700Y-55123200D02*
X19376700Y-55131800D01*
X12999900Y-47551500D02*
X12999900Y-48746400D01*
X12999900Y-48746400D02*
X19376700Y-55123200D01*
%TO.N,LORA_SCK_U10*%
X68900000Y-38300000D02*
X68800000Y-38200000D01*
X68400000Y-35800000D02*
X68400000Y-34600000D01*
X69400000Y-39500000D02*
X69400000Y-39400000D01*
X69100000Y-38800000D02*
X69100000Y-38700000D01*
X68100000Y-31200000D02*
X68000000Y-31100000D01*
X68800000Y-38200000D02*
X68800000Y-38100000D01*
X64100000Y-27400000D02*
X64000000Y-27300000D01*
X68600000Y-37700000D02*
X68600000Y-37600000D01*
X69700000Y-40000000D02*
X69600000Y-39900000D01*
X64200000Y-27400000D02*
X64100000Y-27400000D01*
X69700000Y-40200000D02*
X69700000Y-40000000D01*
X69100000Y-38700000D02*
X69000000Y-38600000D01*
X68600000Y-37600000D02*
X68500000Y-37500000D01*
X69300000Y-39200000D02*
X69200000Y-39100000D01*
X68400000Y-32200000D02*
X68100000Y-31900000D01*
X69300000Y-39300000D02*
X69300000Y-39200000D01*
X68700000Y-37800000D02*
X68600000Y-37700000D01*
X68500000Y-35900000D02*
X68400000Y-35800000D01*
X68700000Y-38000000D02*
X68700000Y-37800000D01*
X64300000Y-27500000D02*
X64200000Y-27400000D01*
X69400000Y-39400000D02*
X69300000Y-39300000D01*
X68800000Y-38100000D02*
X68700000Y-38000000D01*
X64500000Y-27500000D02*
X64300000Y-27500000D01*
X69000000Y-38600000D02*
X69000000Y-38500000D01*
X69600000Y-39900000D02*
X69600000Y-39800000D01*
X69500000Y-39700000D02*
X69500000Y-39600000D01*
X68000000Y-31100000D02*
X68000000Y-31000000D01*
X69200000Y-39100000D02*
X69200000Y-38900000D01*
X68500000Y-37500000D02*
X68500000Y-35900000D01*
X69500000Y-39600000D02*
X69400000Y-39500000D01*
X68100000Y-31900000D02*
X68100000Y-31200000D01*
X64000000Y-27300000D02*
X63900000Y-27300000D01*
X69600000Y-39800000D02*
X69500000Y-39700000D01*
X69000000Y-38500000D02*
X68900000Y-38400000D01*
X68900000Y-38400000D02*
X68900000Y-38300000D01*
X69200000Y-38900000D02*
X69100000Y-38800000D01*
X68000000Y-31000000D02*
X64500000Y-27500000D01*
%TO.N,TEST_UART_TX_TP*%
X39655300Y-31560400D02*
X39481900Y-31560400D01*
X40185000Y-28394400D02*
X40185000Y-31030700D01*
X40185000Y-31030700D02*
X39655300Y-31560400D01*
X39563700Y-27773100D02*
X40185000Y-28394400D01*
%TO.N,GNSS_ANT_GATE*%
X58811800Y-58754500D02*
X58811800Y-56479200D01*
X60974000Y-60916700D02*
X58811800Y-58754500D01*
X58811800Y-56479200D02*
X52065300Y-49732700D01*
X60974000Y-62806300D02*
X60974000Y-60916700D01*
X48075700Y-49732700D02*
X47339600Y-50468800D01*
X62153700Y-63986000D02*
X60974000Y-62806300D01*
X52065300Y-49732700D02*
X48075700Y-49732700D01*
%TO.N,HW_REV1*%
X37500000Y-20400000D02*
X38100000Y-21000000D01*
X41100000Y-23700000D02*
X41200000Y-23700000D01*
X41800000Y-24000000D02*
X41900000Y-24100000D01*
X38400000Y-21000000D02*
X41100000Y-23700000D01*
X41400000Y-23800000D02*
X41500000Y-23900000D01*
X42100000Y-24200000D02*
X42300000Y-24200000D01*
X42400000Y-24300000D02*
X42500000Y-24300000D01*
X42300000Y-24200000D02*
X42400000Y-24300000D01*
X42000000Y-24100000D02*
X42100000Y-24200000D01*
X42500000Y-24300000D02*
X42600000Y-24400000D01*
X41200000Y-23700000D02*
X41300000Y-23800000D01*
X42800000Y-24500000D02*
X42900000Y-24500000D01*
X41700000Y-24000000D02*
X41800000Y-24000000D01*
X41900000Y-24100000D02*
X42000000Y-24100000D01*
X41300000Y-23800000D02*
X41400000Y-23800000D01*
X38100000Y-21000000D02*
X38400000Y-21000000D01*
X41600000Y-23900000D02*
X41700000Y-24000000D01*
X41500000Y-23900000D02*
X41600000Y-23900000D01*
X42700000Y-24400000D02*
X42800000Y-24500000D01*
X42600000Y-24400000D02*
X42700000Y-24400000D01*
%TO.N,U8_MAIN_RXD_1V8*%
X21742200Y-33762000D02*
X21742200Y-41788200D01*
X21742200Y-41788200D02*
X21896800Y-41942800D01*
X22316200Y-33188000D02*
X21742200Y-33762000D01*
X21896800Y-50200700D02*
X30694000Y-58997900D01*
X21896800Y-41942800D02*
X21896800Y-50200700D01*
%TO.N,3V8_MODEM*%
D21*
X32583200Y-25179900D02*
X32980900Y-24782200D01*
X9868400Y-46617000D02*
X8644000Y-45392600D01*
X27709700Y-25179900D02*
X32583200Y-25179900D01*
X9500000Y-31110300D02*
X9500000Y-37700000D01*
X7311400Y-39902500D02*
X8662500Y-38551400D01*
X8920000Y-29500000D02*
X8920000Y-28147200D01*
X6479600Y-40491000D02*
X7068100Y-39902500D01*
X8920000Y-29500000D02*
X8920000Y-30852800D01*
X10272800Y-27132700D02*
X10272800Y-26163100D01*
X7068100Y-39902500D02*
X7311400Y-39902500D01*
X8863800Y-57000000D02*
X9868400Y-55995400D01*
X9258300Y-28147200D02*
X10272800Y-27132700D01*
X8662500Y-31110300D02*
X9500000Y-31110300D01*
X8662500Y-31110300D02*
X8920000Y-30852800D01*
X27530200Y-25000400D02*
X27709700Y-25179900D01*
X8128800Y-45392600D02*
X6479600Y-43743400D01*
X6479600Y-43743400D02*
X6479600Y-40491000D01*
X10272800Y-26163100D02*
X11435500Y-25000400D01*
X9868400Y-55995400D02*
X9868400Y-46617000D01*
X8920000Y-28147200D02*
X9258300Y-28147200D01*
X8644000Y-45392600D02*
X8128800Y-45392600D01*
X11435500Y-25000400D02*
X27530200Y-25000400D01*
X9500000Y-37700000D02*
X8662500Y-38551400D01*
%TO.N,CELL_USB_BOOT_TP*%
D16*
X34700000Y-33400000D02*
X34700000Y-33500000D01*
X39700000Y-56200000D02*
X39700000Y-58100000D01*
X39600000Y-58200000D02*
X39600000Y-58300000D01*
X36670400Y-68629800D02*
X36154100Y-68113500D01*
X39071700Y-68629800D02*
X36670400Y-68629800D01*
X36600000Y-45100000D02*
X37000000Y-45500000D01*
X44300000Y-29600000D02*
X43300000Y-30600000D01*
X34700000Y-33500000D02*
X34800000Y-33600000D01*
X39600000Y-58300000D02*
X38700000Y-59200000D01*
X46300000Y-29600000D02*
X44300000Y-29600000D01*
X34800000Y-33600000D02*
X34800000Y-34200000D01*
X38700000Y-59200000D02*
X38700000Y-59800000D01*
X36600000Y-36000000D02*
X36600000Y-45100000D01*
X43300000Y-30600000D02*
X43200000Y-30600000D01*
X47100000Y-28800000D02*
X46300000Y-29600000D01*
X36154100Y-60392100D02*
X36996100Y-59550100D01*
X36996100Y-59550100D02*
X36996100Y-59250000D01*
X39700000Y-58100000D02*
X39600000Y-58200000D01*
X34400000Y-32200000D02*
X34400000Y-33100000D01*
X34800000Y-34200000D02*
X36600000Y-36000000D01*
X36154100Y-68113500D02*
X36154100Y-60392100D01*
X40900000Y-55000000D02*
X39700000Y-56200000D01*
X34400000Y-33100000D02*
X34700000Y-33400000D01*
X41142000Y-66559500D02*
X39071700Y-68629800D01*
%TO.N,CELL_DBG_VREF_TP*%
X42515000Y-59331600D02*
X42771200Y-59587800D01*
X42771200Y-59587800D02*
X42771200Y-65952700D01*
X42771200Y-65952700D02*
X42061900Y-66662000D01*
%TO.N,PDM_DATA1_1V8*%
X6500000Y-39200000D02*
X5100000Y-39200000D01*
X8700000Y-37000000D02*
X8600000Y-37100000D01*
X8400000Y-37600000D02*
X8400000Y-37700000D01*
X58100000Y-48800000D02*
X58200000Y-48900000D01*
X57900000Y-48800000D02*
X58100000Y-48800000D01*
X8400000Y-37700000D02*
X8300000Y-37800000D01*
X56500000Y-45400000D02*
X56700000Y-45600000D01*
X56700000Y-47600000D02*
X57900000Y-48800000D01*
X5100000Y-40710600D02*
X5619600Y-40710600D01*
X8600000Y-37200000D02*
X8500000Y-37300000D01*
X8300000Y-37800000D02*
X8300000Y-37900000D01*
X8500000Y-37500000D02*
X8400000Y-37600000D01*
X8200000Y-37950000D02*
X8200000Y-37000000D01*
X56700000Y-45600000D02*
X56700000Y-47600000D01*
X8500000Y-37300000D02*
X8500000Y-37500000D01*
X8300000Y-37900000D02*
X8200000Y-37950000D01*
X5100000Y-39200000D02*
X5100000Y-40710600D01*
X56500000Y-43000000D02*
X56500000Y-45400000D01*
X8600000Y-37100000D02*
X8600000Y-37200000D01*
X6500000Y-37000000D02*
X6500000Y-39200000D01*
X8700000Y-35500000D02*
X8700000Y-37000000D01*
X8200000Y-37000000D02*
X6500000Y-37000000D01*
%TD*%
M02*
