M48
; DRILL file {KiCad 9.0.9} date 2026-09-25T12:06:13+0000
; FORMAT={-:-/ absolute / metric / decimal}
; #@! TF.CreationDate,2026-09-25T12:06:13+00:00
; #@! TF.GenerationSoftware,Kicad,Pcbnew,9.0.9
; #@! TF.FileFunction,MixedPlating,1,4
FMAT,2
METRIC
; #@! TA.AperFunction,Plated,PTH,ViaDrill
T1C0.300
; #@! TA.AperFunction,Plated,PTH,ComponentDrill
T2C1.020
; #@! TA.AperFunction,NonPlated,NPTH,ComponentDrill
T3C0.940
; #@! TA.AperFunction,NonPlated,NPTH,ComponentDrill
T4C3.000
; #@! TA.AperFunction,NonPlated,NPTH,ComponentDrill
T5C3.400
%
G90
G05
T1
X3.45Y-10.45
X3.45Y-13.95
X3.45Y-17.45
X3.45Y-20.95
X3.45Y-24.45
X3.45Y-34.95
X3.45Y-38.45
X3.45Y-41.95
X3.45Y-45.45
X3.45Y-48.95
X6.95Y-10.45
X6.95Y-13.95
X6.95Y-17.45
X6.95Y-20.95
X6.95Y-24.45
X6.95Y-27.95
X6.95Y-34.95
X6.95Y-38.45
X6.95Y-41.95
X6.95Y-45.45
X6.95Y-48.95
X10.45Y-3.45
X10.45Y-6.95
X10.45Y-10.45
X10.45Y-13.95
X10.45Y-17.45
X10.45Y-20.95
X10.45Y-24.45
X10.45Y-34.95
X10.45Y-38.45
X10.45Y-41.95
X10.45Y-45.45
X10.45Y-48.95
X10.45Y-52.45
X10.45Y-55.95
X13.95Y-3.45
X13.95Y-6.95
X13.95Y-10.45
X13.95Y-13.95
X13.95Y-17.45
X13.95Y-20.95
X13.95Y-41.95
X13.95Y-45.45
X13.95Y-48.95
X13.95Y-52.45
X13.95Y-55.95
X17.45Y-3.45
X17.45Y-6.95
X17.45Y-10.45
X17.45Y-13.95
X17.45Y-17.45
X17.45Y-20.95
X17.45Y-41.95
X17.45Y-45.45
X17.45Y-48.95
X17.45Y-52.45
X17.45Y-55.95
X17.646Y-24.648
X19.65Y-30.75
X20.0Y-30.0
X20.35Y-29.25
X20.95Y-3.45
X20.95Y-6.95
X20.95Y-10.45
X20.95Y-13.95
X20.95Y-17.45
X20.95Y-20.95
X22.9Y-31.4
X22.9Y-32.4
X23.646Y-55.8
X23.9Y-33.3
X24.45Y-3.45
X24.45Y-6.95
X24.45Y-10.45
X24.45Y-13.95
X24.45Y-17.45
X24.45Y-20.95
X24.45Y-24.45
X24.9Y-33.3
X25.9Y-33.3
X26.9Y-33.3
X27.9Y-33.3
X27.95Y-3.45
X27.95Y-6.95
X27.95Y-10.45
X27.95Y-13.95
X27.95Y-17.45
X27.95Y-20.95
X27.95Y-24.45
X27.95Y-41.95
X27.95Y-45.45
X27.95Y-48.95
X27.95Y-52.45
X28.504Y-55.036
X31.35Y-27.0
X31.35Y-28.0
X31.35Y-29.0
X31.35Y-30.0
X31.35Y-31.0
X31.45Y-3.45
X31.45Y-6.95
X31.45Y-10.45
X31.45Y-13.95
X31.45Y-17.45
X31.45Y-20.95
X31.45Y-38.45
X31.45Y-41.95
X31.45Y-45.45
X31.45Y-48.95
X33.0Y-28.3
X33.362Y-52.933
X33.9Y-28.3
X34.748Y-24.245
X34.95Y-3.45
X34.95Y-6.95
X34.95Y-10.45
X34.95Y-13.95
X34.95Y-17.45
X34.95Y-20.95
X35.18Y-31.68
X36.811Y-29.73
X38.45Y-3.45
X38.45Y-6.95
X38.45Y-10.45
X38.45Y-34.95
X38.45Y-38.45
X38.45Y-41.95
X38.45Y-45.45
X38.45Y-48.95
X41.841Y-20.867
X41.95Y-3.45
X41.95Y-6.95
X41.95Y-10.45
X42.766Y-19.667
X42.78Y-54.633
X43.2Y-22.2
X43.2Y-24.8
X43.353Y-51.939
X43.357Y-49.474
X43.9Y-23.5
X44.0Y-28.5
X44.4Y-21.5
X44.45Y-22.5
X44.9Y-23.5
X45.32Y-54.6
X45.45Y-3.45
X45.45Y-6.95
X45.45Y-10.45
X46.684Y-18.565
X46.994Y-54.925
X47.15Y-51.898
X47.3Y-23.0
X47.7Y-24.0
X47.86Y-52.9
X48.843Y-19.304
X48.95Y-3.45
X48.95Y-6.95
X48.95Y-10.45
X48.98Y-21.14
X49.35Y-15.15
X49.372Y-18.295
X50.475Y-14.0
X50.475Y-42.0
X51.018Y-46.229
X51.314Y-47.333
X51.625Y-19.615
X52.0Y-32.0
X52.35Y-13.225
X52.35Y-41.225
X52.45Y-3.45
X52.45Y-6.95
X53.01Y-48.13
X53.175Y-12.2
X53.6Y-39.5
X53.843Y-21.804
X53.939Y-18.801
X54.415Y-10.7
X54.415Y-38.7
X54.49Y-49.9
X54.99Y-21.9
X55.0Y-13.925
X55.0Y-14.525
X55.0Y-41.925
X55.0Y-42.525
X55.585Y-11.2
X55.585Y-39.2
X55.95Y-3.45
X55.95Y-6.95
X56.287Y-50.347
X56.51Y-19.9
X56.6Y-11.8
X56.6Y-39.8
X57.49Y-47.9
X59.01Y-19.9
X59.296Y-47.2
X59.45Y-3.45
X59.45Y-6.95
X59.857Y-21.133
X60.496Y-36.561
X61.51Y-21.4
X62.95Y-3.45
X62.95Y-6.95
X64.5Y-35.0
X66.281Y-38.314
X66.45Y-3.45
X66.51Y-47.9
X69.648Y-48.362
X69.748Y-15.245
X69.748Y-43.245
X69.95Y-3.45
X69.95Y-13.95
X70.75Y-46.0
X71.202Y-11.755
X72.0Y-40.1
X73.0Y-40.1
X73.45Y-3.45
X73.45Y-13.95
X73.45Y-24.45
X73.75Y-48.75
X73.85Y-42.15
X73.85Y-52.95
X74.15Y-43.55
X74.172Y-46.546
X74.35Y-48.15
X74.4Y-42.75
X74.547Y-52.553
X74.55Y-49.05
X74.884Y-44.315
X74.926Y-54.854
X76.336Y-40.079
X76.445Y-50.526
X76.65Y-39.15
X76.9Y-53.9
X76.95Y-3.45
X76.95Y-6.95
X76.95Y-13.95
X76.95Y-24.45
X76.95Y-27.95
X76.95Y-51.15
X77.375Y-10.0
X77.375Y-17.0
X77.55Y-50.55
X80.45Y-10.45
X80.45Y-13.95
X80.45Y-17.45
X80.45Y-27.95
X80.45Y-31.45
X83.95Y-10.45
X83.95Y-13.95
X83.95Y-17.45
X83.95Y-20.95
X83.95Y-48.95
X83.95Y-55.95
X87.45Y-3.45
X87.45Y-6.95
X87.45Y-10.45
X87.45Y-13.95
X87.45Y-17.45
X87.45Y-20.95
X87.45Y-24.45
X87.45Y-27.95
X87.45Y-31.45
X87.45Y-34.95
X87.45Y-38.45
X87.45Y-45.45
X87.45Y-48.95
X87.45Y-55.95
T2
X6.0Y-28.0
X6.0Y-31.0
X78.08Y-40.0
X78.08Y-43.0
X78.08Y-46.0
X78.08Y-49.0
X78.08Y-52.0
X78.08Y-55.0
X81.08Y-40.0
X81.08Y-43.0
X81.08Y-46.0
X81.08Y-49.0
X81.08Y-52.0
X81.08Y-55.0
T3
X3.0Y-28.0
X9.0Y-28.0
T4
X85.4Y-42.15
X85.4Y-52.85
T5
X5.0Y-5.0
X5.0Y-55.0
X68.0Y-55.0
X82.0Y-5.0
M30
