M48
; DRILL file {KiCad 9.0.9} date 2026-09-24T12:47:36+0000
; FORMAT={-:-/ absolute / metric / decimal}
; #@! TF.CreationDate,2026-09-24T12:47:36+00:00
; #@! TF.GenerationSoftware,Kicad,Pcbnew,9.0.9
; #@! TF.FileFunction,MixedPlating,1,6
FMAT,2
METRIC
; #@! TA.AperFunction,Plated,PTH,ViaDrill
T1C0.300
; #@! TA.AperFunction,Plated,PTH,ComponentDrill
T2C0.600
; #@! TA.AperFunction,Plated,PTH,ComponentDrill
T3C1.020
; #@! TA.AperFunction,NonPlated,NPTH,ComponentDrill
T4C0.650
; #@! TA.AperFunction,NonPlated,NPTH,ComponentDrill
T5C1.200
; #@! TA.AperFunction,NonPlated,NPTH,ComponentDrill
T6C3.000
; #@! TA.AperFunction,NonPlated,NPTH,ComponentDrill
T7C3.200
%
G90
G05
T1
X7.1Y-51.725
X7.35Y-40.85
X7.6Y-38.35
X7.85Y-52.475
X8.2Y-50.15
X8.7Y-52.641
X8.85Y-43.225
X8.975Y-50.85
X9.725Y-38.475
X11.1Y-46.975
X11.1Y-48.225
X11.1Y-49.475
X11.1Y-53.225
X11.1Y-54.475
X11.1Y-55.725
X11.35Y-40.975
X11.35Y-42.225
X14.85Y-32.975
X15.35Y-15.725
X15.6Y-29.475
X15.725Y-4.6
X15.725Y-33.475
X15.725Y-40.975
X15.85Y-25.975
X15.85Y-36.225
X15.85Y-44.725
X16.35Y-33.6
X16.475Y-68.975
X16.475Y-73.975
X16.6Y-27.475
X17.1Y-17.225
X17.6Y-30.225
X17.6Y-39.975
X17.85Y-14.975
X18.1Y-57.225
X18.85Y-17.225
X18.85Y-55.35
X19.225Y-29.975
X19.35Y-33.475
X19.35Y-36.225
X19.85Y-39.975
X19.975Y-17.225
X20.1Y-27.975
X20.225Y-19.475
X20.475Y-44.35
X20.475Y-46.1
X20.475Y-57.975
X20.475Y-59.6
X20.975Y-39.975
X21.1Y-37.1
X21.225Y-67.475
X21.725Y-17.225
X22.35Y-32.475
X22.35Y-35.725
X22.35Y-58.85
X22.6Y-68.725
X23.1Y-43.35
X23.1Y-47.1
X23.1Y-56.975
X23.725Y-68.725
X24.85Y-43.35
X24.85Y-47.1
X24.85Y-56.975
X25.6Y-30.475
X25.6Y-34.975
X25.6Y-35.725
X25.6Y-39.975
X25.6Y-58.85
X26.475Y-19.725
X26.725Y-39.975
X26.85Y-37.1
X27.6Y-44.35
X27.6Y-59.6
X28.725Y-4.6
X30.975Y-54.6
X30.975Y-56.225
X31.35Y-34.475
X31.725Y-19.725
X31.85Y-15.725
X31.975Y-23.85
X31.975Y-40.975
X31.975Y-62.975
X32.1Y-43.35
X32.1Y-44.475
X34.35Y-27.725
X34.85Y-16.975
X35.475Y-12.975
X37.1Y-61.85
X37.1Y-67.725
X37.85Y-8.725
X38.225Y-8.225
X38.35Y-54.725
X38.85Y-57.35
X38.975Y-53.35
X39.1Y-57.975
X39.35Y-65.475
X39.475Y-28.475
X39.475Y-61.975
X39.6Y-11.475
X39.6Y-30.85
X39.85Y-64.85
X41.1Y-12.725
X41.35Y-9.725
X41.475Y-24.6
X41.475Y-27.85
X42.225Y-64.975
X42.35Y-21.975
X42.6Y-11.475
X42.6Y-27.725
X42.975Y-29.225
X43.1Y-24.6
X43.1Y-25.85
X43.1Y-27.1
X43.1Y-32.1
X43.1Y-33.35
X43.1Y-34.6
X43.1Y-35.85
X43.35Y-8.725
X43.35Y-37.725
X44.1Y-12.725
X44.1Y-48.725
X45.1Y-11.475
X45.35Y-8.725
X45.35Y-28.475
X45.35Y-32.975
X45.35Y-37.725
X45.85Y-8.225
X46.1Y-19.975
X46.975Y-23.35
X47.35Y-18.725
X48.1Y-19.975
X48.225Y-62.725
X48.35Y-57.975
X48.6Y-44.725
X48.6Y-45.35
X49.2Y-21.2
X49.6Y-64.975
X51.1Y-42.475
X51.975Y-38.85
X51.975Y-46.1
X52.2Y-23.95
X52.35Y-33.85
X52.475Y-47.725
X52.95Y-36.45
X52.975Y-17.975
X52.975Y-35.85
X53.1Y-43.475
X53.475Y-38.85
X53.95Y-36.45
X53.975Y-35.85
X53.975Y-65.475
X53.975Y-70.475
X54.6Y-27.85
X54.725Y-36.6
X55.35Y-19.475
X55.6Y-44.225
X55.725Y-51.85
X55.85Y-20.1
X55.95Y-18.7
X56.225Y-29.1
X56.85Y-49.6
X56.975Y-38.85
X57.2Y-23.7
X57.6Y-20.1
X57.6Y-68.975
X57.75Y-52.55
X57.85Y-40.225
X58.1Y-48.225
X58.35Y-15.725
X58.7Y-21.7
X58.725Y-4.6
X58.725Y-37.725
X58.725Y-53.225
X59.1Y-65.475
X59.85Y-21.225
X59.85Y-56.975
X60.1Y-17.225
X60.1Y-61.975
X60.35Y-63.85
X60.85Y-14.975
X60.85Y-24.475
X60.85Y-53.475
X60.975Y-30.725
X61.35Y-42.975
X61.35Y-47.475
X61.35Y-48.225
X61.475Y-54.725
X61.6Y-61.85
X61.7Y-30.7
X61.725Y-29.475
X61.85Y-17.225
X61.975Y-22.1
X62.1Y-32.225
X62.5Y-26.75
X62.6Y-49.6
X62.725Y-24.35
X62.85Y-25.225
X62.85Y-33.475
X62.85Y-34.725
X62.85Y-35.975
X62.975Y-17.225
X63.35Y-37.725
X63.85Y-40.225
X64.225Y-50.725
X64.225Y-54.975
X64.475Y-22.1
X64.475Y-53.1
X64.6Y-30.975
X65.35Y-17.225
X65.85Y-41.725
X65.975Y-66.725
X65.975Y-67.475
X66.1Y-30.6
X66.225Y-34.85
X66.725Y-31.975
X67.225Y-35.225
X67.475Y-31.225
X67.475Y-46.975
X67.475Y-61.475
X67.475Y-63.975
X67.85Y-27.225
X67.85Y-28.475
X68.1Y-38.475
X68.1Y-67.975
X69.35Y-26.225
X69.35Y-28.975
X69.85Y-29.975
X69.85Y-35.975
X69.975Y-27.725
X71.725Y-4.6
X71.725Y-11.975
X74.475Y-68.975
X74.475Y-73.975
X75.1Y-24.1
X78.225Y-22.1
X78.85Y-35.975
X79.1Y-27.1
X79.35Y-35.35
X80.475Y-54.6
X80.475Y-55.85
X81.225Y-19.85
X81.475Y-46.1
X81.475Y-60.6
X81.6Y-3.225
X81.85Y-21.225
X82.1Y-23.475
X82.475Y-48.225
X82.475Y-62.725
X82.475Y-63.975
X83.85Y-50.975
X83.85Y-53.725
X83.85Y-54.975
X84.225Y-20.975
X84.35Y-49.475
X85.1Y-17.35
X86.6Y-33.725
X86.85Y-20.85
X89.1Y-67.725
X89.2Y-21.7
X89.225Y-20.975
X89.225Y-37.225
X89.85Y-65.975
X90.6Y-7.6
X90.725Y-32.975
X90.85Y-65.1
X91.85Y-20.475
X92.6Y-23.85
X93.1Y-17.35
X93.225Y-65.225
X94.1Y-20.475
X94.85Y-4.225
X95.1Y-29.725
X95.1Y-40.725
X99.6Y-53.85
X101.1Y-51.725
X101.975Y-53.975
X102.725Y-55.6
X103.1Y-17.975
X103.35Y-13.475
X103.6Y-28.475
X104.6Y-31.35
X104.975Y-19.85
X105.475Y-31.225
X105.475Y-40.6
X107.1Y-28.725
T3
X8.92Y-14.5
X8.92Y-17.5
X8.92Y-20.5
X8.92Y-23.5
X8.92Y-26.5
X8.92Y-29.5
X11.92Y-14.5
X11.92Y-17.5
X11.92Y-20.5
X11.92Y-23.5
X11.92Y-26.5
X11.92Y-29.5
T4
X39.11Y-6.28
X44.89Y-6.28
T5
X18.46Y-4.56
X18.46Y-11.0
X21.0Y-4.56
X21.0Y-11.0
X23.54Y-4.56
X23.54Y-11.0
X61.46Y-4.56
X61.46Y-11.0
X64.0Y-4.56
X64.0Y-11.0
X66.54Y-4.56
X66.54Y-11.0
T6
X4.6Y-16.65
X4.6Y-27.35
T7
X5.0Y-70.0
X8.0Y-5.0
X105.0Y-5.0
X105.0Y-70.0
T2
X37.68Y-3.0G85X37.68Y-2.2
G05
X37.68Y-7.33G85X37.68Y-6.23
G05
X46.32Y-3.0G85X46.32Y-2.2
G05
X46.32Y-7.33G85X46.32Y-6.23
G05
M30
