M48
; DRILL file KiCad 10.0.6 date 2026-09-29T22:29:41
; FORMAT={-:-/ absolute / metric / decimal}
; #@! TF.CreationDate,2026-09-29T22:29:41+03:00
; #@! TF.GenerationSoftware,Kicad,Pcbnew,10.0.6
; #@! TF.FileFunction,NonPlated,1,8,NPTH
FMAT,2
METRIC
; #@! TA.AperFunction,NonPlated,NPTH,ComponentDrill
T1C0.650
; #@! TA.AperFunction,NonPlated,NPTH,ComponentDrill
T2C1.200
; #@! TA.AperFunction,NonPlated,NPTH,ComponentDrill
T3C3.000
; #@! TA.AperFunction,NonPlated,NPTH,ComponentDrill
T4C3.200
%
G90
G05
T1
X39.11Y-6.28
X44.89Y-6.28
T2
X18.46Y-4.56
X18.46Y-11.0
X21.0Y-4.56
X21.0Y-11.0
X23.54Y-4.56
X23.54Y-11.0
X61.46Y-4.56
X61.46Y-11.0
X64.0Y-4.56
X64.0Y-11.0
X66.54Y-4.56
X66.54Y-11.0
T3
X4.6Y-16.65
X4.6Y-27.35
T4
X5.0Y-70.0
X8.0Y-5.0
X105.0Y-5.0
X105.0Y-70.0
M30
