%TF.GenerationSoftware,KiCad,Pcbnew,9.0.9*%
%TF.CreationDate,2026-09-25T14:10:19+00:00*%
%TF.ProjectId,PCB-PWR,5043422d-5057-4522-9e6b-696361645f70,rev?*%
%TF.SameCoordinates,Original*%
%TF.FileFunction,Legend,Top*%
%TF.FilePolarity,Positive*%
%FSLAX46Y46*%
G04 Gerber Fmt 4.6, Leading zero omitted, Abs format (unit mm)*
G04 Created by KiCad (PCBNEW 9.0.9) date 2026-09-25 14:10:19*
%MOMM*%
%LPD*%
G01*
G04 APERTURE LIST*
G04 Aperture macros list*
%AMRoundRect*
0 Rectangle with rounded corners*
0 $1 Rounding radius*
0 $2 $3 $4 $5 $6 $7 $8 $9 X,Y pos of 4 corners*
0 Add a 4 corners polygon primitive as box body*
4,1,4,$2,$3,$4,$5,$6,$7,$8,$9,$2,$3,0*
0 Add four circle primitives for the rounded corners*
1,1,$1+$1,$2,$3*
1,1,$1+$1,$4,$5*
1,1,$1+$1,$6,$7*
1,1,$1+$1,$8,$9*
0 Add four rect primitives between the rounded corners*
20,1,$1+$1,$2,$3,$4,$5,0*
20,1,$1+$1,$4,$5,$6,$7,0*
20,1,$1+$1,$6,$7,$8,$9,0*
20,1,$1+$1,$8,$9,$2,$3,0*%
%AMFreePoly0*
4,1,17,-0.027000,0.214000,0.037000,0.161000,0.069000,0.150000,1.150000,0.150000,1.200000,0.100000,1.200000,-0.100000,1.150000,-0.150000,0.069000,-0.150000,0.037000,-0.161000,-0.027000,-0.214000,-0.059000,-0.225000,-1.150000,-0.225000,-1.200000,-0.175000,-1.200000,0.175000,-1.150000,0.225000,-0.059000,0.225000,-0.027000,0.214000,-0.027000,0.214000,$1*%
G04 Aperture macros list end*
%ADD10C,0.150000*%
%ADD11C,0.120000*%
%ADD12RoundRect,0.135000X-0.135000X-0.185000X0.135000X-0.185000X0.135000X0.185000X-0.135000X0.185000X0*%
%ADD13RoundRect,0.250000X-0.325000X-1.100000X0.325000X-1.100000X0.325000X1.100000X-0.325000X1.100000X0*%
%ADD14RoundRect,0.225000X0.250000X-0.225000X0.250000X0.225000X-0.250000X0.225000X-0.250000X-0.225000X0*%
%ADD15RoundRect,0.140000X-0.140000X-0.170000X0.140000X-0.170000X0.140000X0.170000X-0.140000X0.170000X0*%
%ADD16RoundRect,0.140000X-0.170000X0.140000X-0.170000X-0.140000X0.170000X-0.140000X0.170000X0.140000X0*%
%ADD17C,1.900000*%
%ADD18C,3.400000*%
%ADD19RoundRect,0.225000X-0.225000X-0.250000X0.225000X-0.250000X0.225000X0.250000X-0.225000X0.250000X0*%
%ADD20RoundRect,0.123334X-0.496666X-0.246666X0.496666X-0.246666X0.496666X0.246666X-0.496666X0.246666X0*%
%ADD21C,0.940000*%
%ADD22RoundRect,0.300000X-0.450000X-0.450000X0.450000X-0.450000X0.450000X0.450000X-0.450000X0.450000X0*%
%ADD23C,1.500000*%
%ADD24RoundRect,0.250000X-1.500000X-0.550000X1.500000X-0.550000X1.500000X0.550000X-1.500000X0.550000X0*%
%ADD25R,1.372000X0.710000*%
%ADD26R,4.440000X0.710000*%
%ADD27R,3.850000X0.560000*%
%ADD28R,2.290000X2.030000*%
%ADD29R,1.700000X0.760000*%
%ADD30FreePoly0,90.000000*%
%ADD31RoundRect,0.128985X0.093515X-0.221015X0.093515X0.221015X-0.093515X0.221015X-0.093515X-0.221015X0*%
%ADD32RoundRect,0.140000X0.257500X-0.035000X0.257500X0.035000X-0.257500X0.035000X-0.257500X-0.035000X0*%
%ADD33RoundRect,0.140000X0.235000X-0.035000X0.235000X0.035000X-0.235000X0.035000X-0.235000X-0.035000X0*%
%ADD34RoundRect,0.133333X0.191667X-0.066667X0.191667X0.066667X-0.191667X0.066667X-0.191667X-0.066667X0*%
%ADD35RoundRect,0.150000X0.000010X-0.250000X0.000010X0.250000X-0.000010X0.250000X-0.000010X-0.250000X0*%
%ADD36RoundRect,0.140000X0.035000X-0.235000X0.035000X0.235000X-0.035000X0.235000X-0.035000X-0.235000X0*%
%ADD37R,1.580000X6.500000*%
%ADD38RoundRect,0.133333X-0.641667X-0.066667X0.641667X-0.066667X0.641667X0.066667X-0.641667X0.066667X0*%
%ADD39RoundRect,0.250000X-0.375000X-0.625000X0.375000X-0.625000X0.375000X0.625000X-0.375000X0.625000X0*%
%ADD40RoundRect,0.250000X0.900000X-1.000000X0.900000X1.000000X-0.900000X1.000000X-0.900000X-1.000000X0*%
%ADD41C,3.000000*%
%ADD42RoundRect,0.300000X-0.450000X0.450000X-0.450000X-0.450000X0.450000X-0.450000X0.450000X0.450000X0*%
G04 APERTURE END LIST*
D10*
X47833333Y-17554819D02*
X47500000Y-17078628D01*
X47261905Y-17554819D02*
X47261905Y-16554819D01*
X47261905Y-16554819D02*
X47642857Y-16554819D01*
X47642857Y-16554819D02*
X47738095Y-16602438D01*
X47738095Y-16602438D02*
X47785714Y-16650057D01*
X47785714Y-16650057D02*
X47833333Y-16745295D01*
X47833333Y-16745295D02*
X47833333Y-16888152D01*
X47833333Y-16888152D02*
X47785714Y-16983390D01*
X47785714Y-16983390D02*
X47738095Y-17031009D01*
X47738095Y-17031009D02*
X47642857Y-17078628D01*
X47642857Y-17078628D02*
X47261905Y-17078628D01*
X48690476Y-16554819D02*
X48500000Y-16554819D01*
X48500000Y-16554819D02*
X48404762Y-16602438D01*
X48404762Y-16602438D02*
X48357143Y-16650057D01*
X48357143Y-16650057D02*
X48261905Y-16792914D01*
X48261905Y-16792914D02*
X48214286Y-16983390D01*
X48214286Y-16983390D02*
X48214286Y-17364342D01*
X48214286Y-17364342D02*
X48261905Y-17459580D01*
X48261905Y-17459580D02*
X48309524Y-17507200D01*
X48309524Y-17507200D02*
X48404762Y-17554819D01*
X48404762Y-17554819D02*
X48595238Y-17554819D01*
X48595238Y-17554819D02*
X48690476Y-17507200D01*
X48690476Y-17507200D02*
X48738095Y-17459580D01*
X48738095Y-17459580D02*
X48785714Y-17364342D01*
X48785714Y-17364342D02*
X48785714Y-17126247D01*
X48785714Y-17126247D02*
X48738095Y-17031009D01*
X48738095Y-17031009D02*
X48690476Y-16983390D01*
X48690476Y-16983390D02*
X48595238Y-16935771D01*
X48595238Y-16935771D02*
X48404762Y-16935771D01*
X48404762Y-16935771D02*
X48309524Y-16983390D01*
X48309524Y-16983390D02*
X48261905Y-17031009D01*
X48261905Y-17031009D02*
X48214286Y-17126247D01*
X48357142Y-39905980D02*
X48309523Y-39953600D01*
X48309523Y-39953600D02*
X48166666Y-40001219D01*
X48166666Y-40001219D02*
X48071428Y-40001219D01*
X48071428Y-40001219D02*
X47928571Y-39953600D01*
X47928571Y-39953600D02*
X47833333Y-39858361D01*
X47833333Y-39858361D02*
X47785714Y-39763123D01*
X47785714Y-39763123D02*
X47738095Y-39572647D01*
X47738095Y-39572647D02*
X47738095Y-39429790D01*
X47738095Y-39429790D02*
X47785714Y-39239314D01*
X47785714Y-39239314D02*
X47833333Y-39144076D01*
X47833333Y-39144076D02*
X47928571Y-39048838D01*
X47928571Y-39048838D02*
X48071428Y-39001219D01*
X48071428Y-39001219D02*
X48166666Y-39001219D01*
X48166666Y-39001219D02*
X48309523Y-39048838D01*
X48309523Y-39048838D02*
X48357142Y-39096457D01*
X49309523Y-40001219D02*
X48738095Y-40001219D01*
X49023809Y-40001219D02*
X49023809Y-39001219D01*
X49023809Y-39001219D02*
X48928571Y-39144076D01*
X48928571Y-39144076D02*
X48833333Y-39239314D01*
X48833333Y-39239314D02*
X48738095Y-39286933D01*
X49690476Y-39096457D02*
X49738095Y-39048838D01*
X49738095Y-39048838D02*
X49833333Y-39001219D01*
X49833333Y-39001219D02*
X50071428Y-39001219D01*
X50071428Y-39001219D02*
X50166666Y-39048838D01*
X50166666Y-39048838D02*
X50214285Y-39096457D01*
X50214285Y-39096457D02*
X50261904Y-39191695D01*
X50261904Y-39191695D02*
X50261904Y-39286933D01*
X50261904Y-39286933D02*
X50214285Y-39429790D01*
X50214285Y-39429790D02*
X49642857Y-40001219D01*
X49642857Y-40001219D02*
X50261904Y-40001219D01*
X49833333Y-46054819D02*
X49500000Y-45578628D01*
X49261905Y-46054819D02*
X49261905Y-45054819D01*
X49261905Y-45054819D02*
X49642857Y-45054819D01*
X49642857Y-45054819D02*
X49738095Y-45102438D01*
X49738095Y-45102438D02*
X49785714Y-45150057D01*
X49785714Y-45150057D02*
X49833333Y-45245295D01*
X49833333Y-45245295D02*
X49833333Y-45388152D01*
X49833333Y-45388152D02*
X49785714Y-45483390D01*
X49785714Y-45483390D02*
X49738095Y-45531009D01*
X49738095Y-45531009D02*
X49642857Y-45578628D01*
X49642857Y-45578628D02*
X49261905Y-45578628D01*
X50166667Y-45054819D02*
X50833333Y-45054819D01*
X50833333Y-45054819D02*
X50404762Y-46054819D01*
X51707142Y-39856330D02*
X51659523Y-39903950D01*
X51659523Y-39903950D02*
X51516666Y-39951569D01*
X51516666Y-39951569D02*
X51421428Y-39951569D01*
X51421428Y-39951569D02*
X51278571Y-39903950D01*
X51278571Y-39903950D02*
X51183333Y-39808711D01*
X51183333Y-39808711D02*
X51135714Y-39713473D01*
X51135714Y-39713473D02*
X51088095Y-39522997D01*
X51088095Y-39522997D02*
X51088095Y-39380140D01*
X51088095Y-39380140D02*
X51135714Y-39189664D01*
X51135714Y-39189664D02*
X51183333Y-39094426D01*
X51183333Y-39094426D02*
X51278571Y-38999188D01*
X51278571Y-38999188D02*
X51421428Y-38951569D01*
X51421428Y-38951569D02*
X51516666Y-38951569D01*
X51516666Y-38951569D02*
X51659523Y-38999188D01*
X51659523Y-38999188D02*
X51707142Y-39046807D01*
X52088095Y-39046807D02*
X52135714Y-38999188D01*
X52135714Y-38999188D02*
X52230952Y-38951569D01*
X52230952Y-38951569D02*
X52469047Y-38951569D01*
X52469047Y-38951569D02*
X52564285Y-38999188D01*
X52564285Y-38999188D02*
X52611904Y-39046807D01*
X52611904Y-39046807D02*
X52659523Y-39142045D01*
X52659523Y-39142045D02*
X52659523Y-39237283D01*
X52659523Y-39237283D02*
X52611904Y-39380140D01*
X52611904Y-39380140D02*
X52040476Y-39951569D01*
X52040476Y-39951569D02*
X52659523Y-39951569D01*
X53611904Y-39951569D02*
X53040476Y-39951569D01*
X53326190Y-39951569D02*
X53326190Y-38951569D01*
X53326190Y-38951569D02*
X53230952Y-39094426D01*
X53230952Y-39094426D02*
X53135714Y-39189664D01*
X53135714Y-39189664D02*
X53040476Y-39237283D01*
X19833333Y-24959580D02*
X19785714Y-25007200D01*
X19785714Y-25007200D02*
X19642857Y-25054819D01*
X19642857Y-25054819D02*
X19547619Y-25054819D01*
X19547619Y-25054819D02*
X19404762Y-25007200D01*
X19404762Y-25007200D02*
X19309524Y-24911961D01*
X19309524Y-24911961D02*
X19261905Y-24816723D01*
X19261905Y-24816723D02*
X19214286Y-24626247D01*
X19214286Y-24626247D02*
X19214286Y-24483390D01*
X19214286Y-24483390D02*
X19261905Y-24292914D01*
X19261905Y-24292914D02*
X19309524Y-24197676D01*
X19309524Y-24197676D02*
X19404762Y-24102438D01*
X19404762Y-24102438D02*
X19547619Y-24054819D01*
X19547619Y-24054819D02*
X19642857Y-24054819D01*
X19642857Y-24054819D02*
X19785714Y-24102438D01*
X19785714Y-24102438D02*
X19833333Y-24150057D01*
X20785714Y-25054819D02*
X20214286Y-25054819D01*
X20500000Y-25054819D02*
X20500000Y-24054819D01*
X20500000Y-24054819D02*
X20404762Y-24197676D01*
X20404762Y-24197676D02*
X20309524Y-24292914D01*
X20309524Y-24292914D02*
X20214286Y-24340533D01*
X58159580Y-11696666D02*
X58207200Y-11744285D01*
X58207200Y-11744285D02*
X58254819Y-11887142D01*
X58254819Y-11887142D02*
X58254819Y-11982380D01*
X58254819Y-11982380D02*
X58207200Y-12125237D01*
X58207200Y-12125237D02*
X58111961Y-12220475D01*
X58111961Y-12220475D02*
X58016723Y-12268094D01*
X58016723Y-12268094D02*
X57826247Y-12315713D01*
X57826247Y-12315713D02*
X57683390Y-12315713D01*
X57683390Y-12315713D02*
X57492914Y-12268094D01*
X57492914Y-12268094D02*
X57397676Y-12220475D01*
X57397676Y-12220475D02*
X57302438Y-12125237D01*
X57302438Y-12125237D02*
X57254819Y-11982380D01*
X57254819Y-11982380D02*
X57254819Y-11887142D01*
X57254819Y-11887142D02*
X57302438Y-11744285D01*
X57302438Y-11744285D02*
X57350057Y-11696666D01*
X57588152Y-10839523D02*
X58254819Y-10839523D01*
X57207200Y-11077618D02*
X57921485Y-11315713D01*
X57921485Y-11315713D02*
X57921485Y-10696666D01*
X38978095Y-53451219D02*
X39549523Y-53451219D01*
X39263809Y-54451219D02*
X39263809Y-53451219D01*
X39882857Y-54451219D02*
X39882857Y-53451219D01*
X39882857Y-53451219D02*
X40263809Y-53451219D01*
X40263809Y-53451219D02*
X40359047Y-53498838D01*
X40359047Y-53498838D02*
X40406666Y-53546457D01*
X40406666Y-53546457D02*
X40454285Y-53641695D01*
X40454285Y-53641695D02*
X40454285Y-53784552D01*
X40454285Y-53784552D02*
X40406666Y-53879790D01*
X40406666Y-53879790D02*
X40359047Y-53927409D01*
X40359047Y-53927409D02*
X40263809Y-53975028D01*
X40263809Y-53975028D02*
X39882857Y-53975028D01*
X40787619Y-53451219D02*
X41454285Y-53451219D01*
X41454285Y-53451219D02*
X41025714Y-54451219D01*
X73357142Y-14905980D02*
X73309523Y-14953600D01*
X73309523Y-14953600D02*
X73166666Y-15001219D01*
X73166666Y-15001219D02*
X73071428Y-15001219D01*
X73071428Y-15001219D02*
X72928571Y-14953600D01*
X72928571Y-14953600D02*
X72833333Y-14858361D01*
X72833333Y-14858361D02*
X72785714Y-14763123D01*
X72785714Y-14763123D02*
X72738095Y-14572647D01*
X72738095Y-14572647D02*
X72738095Y-14429790D01*
X72738095Y-14429790D02*
X72785714Y-14239314D01*
X72785714Y-14239314D02*
X72833333Y-14144076D01*
X72833333Y-14144076D02*
X72928571Y-14048838D01*
X72928571Y-14048838D02*
X73071428Y-14001219D01*
X73071428Y-14001219D02*
X73166666Y-14001219D01*
X73166666Y-14001219D02*
X73309523Y-14048838D01*
X73309523Y-14048838D02*
X73357142Y-14096457D01*
X74309523Y-15001219D02*
X73738095Y-15001219D01*
X74023809Y-15001219D02*
X74023809Y-14001219D01*
X74023809Y-14001219D02*
X73928571Y-14144076D01*
X73928571Y-14144076D02*
X73833333Y-14239314D01*
X73833333Y-14239314D02*
X73738095Y-14286933D01*
X75166666Y-14001219D02*
X74976190Y-14001219D01*
X74976190Y-14001219D02*
X74880952Y-14048838D01*
X74880952Y-14048838D02*
X74833333Y-14096457D01*
X74833333Y-14096457D02*
X74738095Y-14239314D01*
X74738095Y-14239314D02*
X74690476Y-14429790D01*
X74690476Y-14429790D02*
X74690476Y-14810742D01*
X74690476Y-14810742D02*
X74738095Y-14905980D01*
X74738095Y-14905980D02*
X74785714Y-14953600D01*
X74785714Y-14953600D02*
X74880952Y-15001219D01*
X74880952Y-15001219D02*
X75071428Y-15001219D01*
X75071428Y-15001219D02*
X75166666Y-14953600D01*
X75166666Y-14953600D02*
X75214285Y-14905980D01*
X75214285Y-14905980D02*
X75261904Y-14810742D01*
X75261904Y-14810742D02*
X75261904Y-14572647D01*
X75261904Y-14572647D02*
X75214285Y-14477409D01*
X75214285Y-14477409D02*
X75166666Y-14429790D01*
X75166666Y-14429790D02*
X75071428Y-14382171D01*
X75071428Y-14382171D02*
X74880952Y-14382171D01*
X74880952Y-14382171D02*
X74785714Y-14429790D01*
X74785714Y-14429790D02*
X74738095Y-14477409D01*
X74738095Y-14477409D02*
X74690476Y-14572647D01*
X58159580Y-39696666D02*
X58207200Y-39744285D01*
X58207200Y-39744285D02*
X58254819Y-39887142D01*
X58254819Y-39887142D02*
X58254819Y-39982380D01*
X58254819Y-39982380D02*
X58207200Y-40125237D01*
X58207200Y-40125237D02*
X58111961Y-40220475D01*
X58111961Y-40220475D02*
X58016723Y-40268094D01*
X58016723Y-40268094D02*
X57826247Y-40315713D01*
X57826247Y-40315713D02*
X57683390Y-40315713D01*
X57683390Y-40315713D02*
X57492914Y-40268094D01*
X57492914Y-40268094D02*
X57397676Y-40220475D01*
X57397676Y-40220475D02*
X57302438Y-40125237D01*
X57302438Y-40125237D02*
X57254819Y-39982380D01*
X57254819Y-39982380D02*
X57254819Y-39887142D01*
X57254819Y-39887142D02*
X57302438Y-39744285D01*
X57302438Y-39744285D02*
X57350057Y-39696666D01*
X57254819Y-38839523D02*
X57254819Y-39029999D01*
X57254819Y-39029999D02*
X57302438Y-39125237D01*
X57302438Y-39125237D02*
X57350057Y-39172856D01*
X57350057Y-39172856D02*
X57492914Y-39268094D01*
X57492914Y-39268094D02*
X57683390Y-39315713D01*
X57683390Y-39315713D02*
X58064342Y-39315713D01*
X58064342Y-39315713D02*
X58159580Y-39268094D01*
X58159580Y-39268094D02*
X58207200Y-39220475D01*
X58207200Y-39220475D02*
X58254819Y-39125237D01*
X58254819Y-39125237D02*
X58254819Y-38934761D01*
X58254819Y-38934761D02*
X58207200Y-38839523D01*
X58207200Y-38839523D02*
X58159580Y-38791904D01*
X58159580Y-38791904D02*
X58064342Y-38744285D01*
X58064342Y-38744285D02*
X57826247Y-38744285D01*
X57826247Y-38744285D02*
X57731009Y-38791904D01*
X57731009Y-38791904D02*
X57683390Y-38839523D01*
X57683390Y-38839523D02*
X57635771Y-38934761D01*
X57635771Y-38934761D02*
X57635771Y-39125237D01*
X57635771Y-39125237D02*
X57683390Y-39220475D01*
X57683390Y-39220475D02*
X57731009Y-39268094D01*
X57731009Y-39268094D02*
X57826247Y-39315713D01*
X57357142Y-48854819D02*
X57023809Y-48378628D01*
X56785714Y-48854819D02*
X56785714Y-47854819D01*
X56785714Y-47854819D02*
X57166666Y-47854819D01*
X57166666Y-47854819D02*
X57261904Y-47902438D01*
X57261904Y-47902438D02*
X57309523Y-47950057D01*
X57309523Y-47950057D02*
X57357142Y-48045295D01*
X57357142Y-48045295D02*
X57357142Y-48188152D01*
X57357142Y-48188152D02*
X57309523Y-48283390D01*
X57309523Y-48283390D02*
X57261904Y-48331009D01*
X57261904Y-48331009D02*
X57166666Y-48378628D01*
X57166666Y-48378628D02*
X56785714Y-48378628D01*
X58309523Y-48854819D02*
X57738095Y-48854819D01*
X58023809Y-48854819D02*
X58023809Y-47854819D01*
X58023809Y-47854819D02*
X57928571Y-47997676D01*
X57928571Y-47997676D02*
X57833333Y-48092914D01*
X57833333Y-48092914D02*
X57738095Y-48140533D01*
X58928571Y-47854819D02*
X59023809Y-47854819D01*
X59023809Y-47854819D02*
X59119047Y-47902438D01*
X59119047Y-47902438D02*
X59166666Y-47950057D01*
X59166666Y-47950057D02*
X59214285Y-48045295D01*
X59214285Y-48045295D02*
X59261904Y-48235771D01*
X59261904Y-48235771D02*
X59261904Y-48473866D01*
X59261904Y-48473866D02*
X59214285Y-48664342D01*
X59214285Y-48664342D02*
X59166666Y-48759580D01*
X59166666Y-48759580D02*
X59119047Y-48807200D01*
X59119047Y-48807200D02*
X59023809Y-48854819D01*
X59023809Y-48854819D02*
X58928571Y-48854819D01*
X58928571Y-48854819D02*
X58833333Y-48807200D01*
X58833333Y-48807200D02*
X58785714Y-48759580D01*
X58785714Y-48759580D02*
X58738095Y-48664342D01*
X58738095Y-48664342D02*
X58690476Y-48473866D01*
X58690476Y-48473866D02*
X58690476Y-48235771D01*
X58690476Y-48235771D02*
X58738095Y-48045295D01*
X58738095Y-48045295D02*
X58785714Y-47950057D01*
X58785714Y-47950057D02*
X58833333Y-47902438D01*
X58833333Y-47902438D02*
X58928571Y-47854819D01*
X72425980Y-50416667D02*
X72473600Y-50464286D01*
X72473600Y-50464286D02*
X72521219Y-50607143D01*
X72521219Y-50607143D02*
X72521219Y-50702381D01*
X72521219Y-50702381D02*
X72473600Y-50845238D01*
X72473600Y-50845238D02*
X72378361Y-50940476D01*
X72378361Y-50940476D02*
X72283123Y-50988095D01*
X72283123Y-50988095D02*
X72092647Y-51035714D01*
X72092647Y-51035714D02*
X71949790Y-51035714D01*
X71949790Y-51035714D02*
X71759314Y-50988095D01*
X71759314Y-50988095D02*
X71664076Y-50940476D01*
X71664076Y-50940476D02*
X71568838Y-50845238D01*
X71568838Y-50845238D02*
X71521219Y-50702381D01*
X71521219Y-50702381D02*
X71521219Y-50607143D01*
X71521219Y-50607143D02*
X71568838Y-50464286D01*
X71568838Y-50464286D02*
X71616457Y-50416667D01*
X71521219Y-50083333D02*
X71521219Y-49416667D01*
X71521219Y-49416667D02*
X72521219Y-49845238D01*
X33357142Y-23905980D02*
X33309523Y-23953600D01*
X33309523Y-23953600D02*
X33166666Y-24001219D01*
X33166666Y-24001219D02*
X33071428Y-24001219D01*
X33071428Y-24001219D02*
X32928571Y-23953600D01*
X32928571Y-23953600D02*
X32833333Y-23858361D01*
X32833333Y-23858361D02*
X32785714Y-23763123D01*
X32785714Y-23763123D02*
X32738095Y-23572647D01*
X32738095Y-23572647D02*
X32738095Y-23429790D01*
X32738095Y-23429790D02*
X32785714Y-23239314D01*
X32785714Y-23239314D02*
X32833333Y-23144076D01*
X32833333Y-23144076D02*
X32928571Y-23048838D01*
X32928571Y-23048838D02*
X33071428Y-23001219D01*
X33071428Y-23001219D02*
X33166666Y-23001219D01*
X33166666Y-23001219D02*
X33309523Y-23048838D01*
X33309523Y-23048838D02*
X33357142Y-23096457D01*
X34309523Y-24001219D02*
X33738095Y-24001219D01*
X34023809Y-24001219D02*
X34023809Y-23001219D01*
X34023809Y-23001219D02*
X33928571Y-23144076D01*
X33928571Y-23144076D02*
X33833333Y-23239314D01*
X33833333Y-23239314D02*
X33738095Y-23286933D01*
X34928571Y-23001219D02*
X35023809Y-23001219D01*
X35023809Y-23001219D02*
X35119047Y-23048838D01*
X35119047Y-23048838D02*
X35166666Y-23096457D01*
X35166666Y-23096457D02*
X35214285Y-23191695D01*
X35214285Y-23191695D02*
X35261904Y-23382171D01*
X35261904Y-23382171D02*
X35261904Y-23620266D01*
X35261904Y-23620266D02*
X35214285Y-23810742D01*
X35214285Y-23810742D02*
X35166666Y-23905980D01*
X35166666Y-23905980D02*
X35119047Y-23953600D01*
X35119047Y-23953600D02*
X35023809Y-24001219D01*
X35023809Y-24001219D02*
X34928571Y-24001219D01*
X34928571Y-24001219D02*
X34833333Y-23953600D01*
X34833333Y-23953600D02*
X34785714Y-23905980D01*
X34785714Y-23905980D02*
X34738095Y-23810742D01*
X34738095Y-23810742D02*
X34690476Y-23620266D01*
X34690476Y-23620266D02*
X34690476Y-23382171D01*
X34690476Y-23382171D02*
X34738095Y-23191695D01*
X34738095Y-23191695D02*
X34785714Y-23096457D01*
X34785714Y-23096457D02*
X34833333Y-23048838D01*
X34833333Y-23048838D02*
X34928571Y-23001219D01*
X50333333Y-18054819D02*
X50000000Y-17578628D01*
X49761905Y-18054819D02*
X49761905Y-17054819D01*
X49761905Y-17054819D02*
X50142857Y-17054819D01*
X50142857Y-17054819D02*
X50238095Y-17102438D01*
X50238095Y-17102438D02*
X50285714Y-17150057D01*
X50285714Y-17150057D02*
X50333333Y-17245295D01*
X50333333Y-17245295D02*
X50333333Y-17388152D01*
X50333333Y-17388152D02*
X50285714Y-17483390D01*
X50285714Y-17483390D02*
X50238095Y-17531009D01*
X50238095Y-17531009D02*
X50142857Y-17578628D01*
X50142857Y-17578628D02*
X49761905Y-17578628D01*
X50666667Y-17054819D02*
X51285714Y-17054819D01*
X51285714Y-17054819D02*
X50952381Y-17435771D01*
X50952381Y-17435771D02*
X51095238Y-17435771D01*
X51095238Y-17435771D02*
X51190476Y-17483390D01*
X51190476Y-17483390D02*
X51238095Y-17531009D01*
X51238095Y-17531009D02*
X51285714Y-17626247D01*
X51285714Y-17626247D02*
X51285714Y-17864342D01*
X51285714Y-17864342D02*
X51238095Y-17959580D01*
X51238095Y-17959580D02*
X51190476Y-18007200D01*
X51190476Y-18007200D02*
X51095238Y-18054819D01*
X51095238Y-18054819D02*
X50809524Y-18054819D01*
X50809524Y-18054819D02*
X50714286Y-18007200D01*
X50714286Y-18007200D02*
X50666667Y-17959580D01*
X73357142Y-35905980D02*
X73309523Y-35953600D01*
X73309523Y-35953600D02*
X73166666Y-36001219D01*
X73166666Y-36001219D02*
X73071428Y-36001219D01*
X73071428Y-36001219D02*
X72928571Y-35953600D01*
X72928571Y-35953600D02*
X72833333Y-35858361D01*
X72833333Y-35858361D02*
X72785714Y-35763123D01*
X72785714Y-35763123D02*
X72738095Y-35572647D01*
X72738095Y-35572647D02*
X72738095Y-35429790D01*
X72738095Y-35429790D02*
X72785714Y-35239314D01*
X72785714Y-35239314D02*
X72833333Y-35144076D01*
X72833333Y-35144076D02*
X72928571Y-35048838D01*
X72928571Y-35048838D02*
X73071428Y-35001219D01*
X73071428Y-35001219D02*
X73166666Y-35001219D01*
X73166666Y-35001219D02*
X73309523Y-35048838D01*
X73309523Y-35048838D02*
X73357142Y-35096457D01*
X74309523Y-36001219D02*
X73738095Y-36001219D01*
X74023809Y-36001219D02*
X74023809Y-35001219D01*
X74023809Y-35001219D02*
X73928571Y-35144076D01*
X73928571Y-35144076D02*
X73833333Y-35239314D01*
X73833333Y-35239314D02*
X73738095Y-35286933D01*
X74642857Y-35001219D02*
X75309523Y-35001219D01*
X75309523Y-35001219D02*
X74880952Y-36001219D01*
X21454819Y-27681904D02*
X22264342Y-27681904D01*
X22264342Y-27681904D02*
X22359580Y-27634285D01*
X22359580Y-27634285D02*
X22407200Y-27586666D01*
X22407200Y-27586666D02*
X22454819Y-27491428D01*
X22454819Y-27491428D02*
X22454819Y-27300952D01*
X22454819Y-27300952D02*
X22407200Y-27205714D01*
X22407200Y-27205714D02*
X22359580Y-27158095D01*
X22359580Y-27158095D02*
X22264342Y-27110476D01*
X22264342Y-27110476D02*
X21454819Y-27110476D01*
X22454819Y-26110476D02*
X22454819Y-26681904D01*
X22454819Y-26396190D02*
X21454819Y-26396190D01*
X21454819Y-26396190D02*
X21597676Y-26491428D01*
X21597676Y-26491428D02*
X21692914Y-26586666D01*
X21692914Y-26586666D02*
X21740533Y-26681904D01*
X51707142Y-11856330D02*
X51659523Y-11903950D01*
X51659523Y-11903950D02*
X51516666Y-11951569D01*
X51516666Y-11951569D02*
X51421428Y-11951569D01*
X51421428Y-11951569D02*
X51278571Y-11903950D01*
X51278571Y-11903950D02*
X51183333Y-11808711D01*
X51183333Y-11808711D02*
X51135714Y-11713473D01*
X51135714Y-11713473D02*
X51088095Y-11522997D01*
X51088095Y-11522997D02*
X51088095Y-11380140D01*
X51088095Y-11380140D02*
X51135714Y-11189664D01*
X51135714Y-11189664D02*
X51183333Y-11094426D01*
X51183333Y-11094426D02*
X51278571Y-10999188D01*
X51278571Y-10999188D02*
X51421428Y-10951569D01*
X51421428Y-10951569D02*
X51516666Y-10951569D01*
X51516666Y-10951569D02*
X51659523Y-10999188D01*
X51659523Y-10999188D02*
X51707142Y-11046807D01*
X52088095Y-11046807D02*
X52135714Y-10999188D01*
X52135714Y-10999188D02*
X52230952Y-10951569D01*
X52230952Y-10951569D02*
X52469047Y-10951569D01*
X52469047Y-10951569D02*
X52564285Y-10999188D01*
X52564285Y-10999188D02*
X52611904Y-11046807D01*
X52611904Y-11046807D02*
X52659523Y-11142045D01*
X52659523Y-11142045D02*
X52659523Y-11237283D01*
X52659523Y-11237283D02*
X52611904Y-11380140D01*
X52611904Y-11380140D02*
X52040476Y-11951569D01*
X52040476Y-11951569D02*
X52659523Y-11951569D01*
X53278571Y-10951569D02*
X53373809Y-10951569D01*
X53373809Y-10951569D02*
X53469047Y-10999188D01*
X53469047Y-10999188D02*
X53516666Y-11046807D01*
X53516666Y-11046807D02*
X53564285Y-11142045D01*
X53564285Y-11142045D02*
X53611904Y-11332521D01*
X53611904Y-11332521D02*
X53611904Y-11570616D01*
X53611904Y-11570616D02*
X53564285Y-11761092D01*
X53564285Y-11761092D02*
X53516666Y-11856330D01*
X53516666Y-11856330D02*
X53469047Y-11903950D01*
X53469047Y-11903950D02*
X53373809Y-11951569D01*
X53373809Y-11951569D02*
X53278571Y-11951569D01*
X53278571Y-11951569D02*
X53183333Y-11903950D01*
X53183333Y-11903950D02*
X53135714Y-11856330D01*
X53135714Y-11856330D02*
X53088095Y-11761092D01*
X53088095Y-11761092D02*
X53040476Y-11570616D01*
X53040476Y-11570616D02*
X53040476Y-11332521D01*
X53040476Y-11332521D02*
X53088095Y-11142045D01*
X53088095Y-11142045D02*
X53135714Y-11046807D01*
X53135714Y-11046807D02*
X53183333Y-10999188D01*
X53183333Y-10999188D02*
X53278571Y-10951569D01*
X37154819Y-54454761D02*
X37154819Y-53883333D01*
X38154819Y-54169047D02*
X37154819Y-54169047D01*
X38154819Y-53549999D02*
X37154819Y-53549999D01*
X37154819Y-53549999D02*
X37154819Y-53169047D01*
X37154819Y-53169047D02*
X37202438Y-53073809D01*
X37202438Y-53073809D02*
X37250057Y-53026190D01*
X37250057Y-53026190D02*
X37345295Y-52978571D01*
X37345295Y-52978571D02*
X37488152Y-52978571D01*
X37488152Y-52978571D02*
X37583390Y-53026190D01*
X37583390Y-53026190D02*
X37631009Y-53073809D01*
X37631009Y-53073809D02*
X37678628Y-53169047D01*
X37678628Y-53169047D02*
X37678628Y-53549999D01*
X37154819Y-52121428D02*
X37154819Y-52311904D01*
X37154819Y-52311904D02*
X37202438Y-52407142D01*
X37202438Y-52407142D02*
X37250057Y-52454761D01*
X37250057Y-52454761D02*
X37392914Y-52549999D01*
X37392914Y-52549999D02*
X37583390Y-52597618D01*
X37583390Y-52597618D02*
X37964342Y-52597618D01*
X37964342Y-52597618D02*
X38059580Y-52549999D01*
X38059580Y-52549999D02*
X38107200Y-52502380D01*
X38107200Y-52502380D02*
X38154819Y-52407142D01*
X38154819Y-52407142D02*
X38154819Y-52216666D01*
X38154819Y-52216666D02*
X38107200Y-52121428D01*
X38107200Y-52121428D02*
X38059580Y-52073809D01*
X38059580Y-52073809D02*
X37964342Y-52026190D01*
X37964342Y-52026190D02*
X37726247Y-52026190D01*
X37726247Y-52026190D02*
X37631009Y-52073809D01*
X37631009Y-52073809D02*
X37583390Y-52121428D01*
X37583390Y-52121428D02*
X37535771Y-52216666D01*
X37535771Y-52216666D02*
X37535771Y-52407142D01*
X37535771Y-52407142D02*
X37583390Y-52502380D01*
X37583390Y-52502380D02*
X37631009Y-52549999D01*
X37631009Y-52549999D02*
X37726247Y-52597618D01*
X5666666Y-22801219D02*
X5666666Y-23515504D01*
X5666666Y-23515504D02*
X5619047Y-23658361D01*
X5619047Y-23658361D02*
X5523809Y-23753600D01*
X5523809Y-23753600D02*
X5380952Y-23801219D01*
X5380952Y-23801219D02*
X5285714Y-23801219D01*
X6666666Y-23801219D02*
X6095238Y-23801219D01*
X6380952Y-23801219D02*
X6380952Y-22801219D01*
X6380952Y-22801219D02*
X6285714Y-22944076D01*
X6285714Y-22944076D02*
X6190476Y-23039314D01*
X6190476Y-23039314D02*
X6095238Y-23086933D01*
X58333333Y-20854819D02*
X58000000Y-20378628D01*
X57761905Y-20854819D02*
X57761905Y-19854819D01*
X57761905Y-19854819D02*
X58142857Y-19854819D01*
X58142857Y-19854819D02*
X58238095Y-19902438D01*
X58238095Y-19902438D02*
X58285714Y-19950057D01*
X58285714Y-19950057D02*
X58333333Y-20045295D01*
X58333333Y-20045295D02*
X58333333Y-20188152D01*
X58333333Y-20188152D02*
X58285714Y-20283390D01*
X58285714Y-20283390D02*
X58238095Y-20331009D01*
X58238095Y-20331009D02*
X58142857Y-20378628D01*
X58142857Y-20378628D02*
X57761905Y-20378628D01*
X58714286Y-19950057D02*
X58761905Y-19902438D01*
X58761905Y-19902438D02*
X58857143Y-19854819D01*
X58857143Y-19854819D02*
X59095238Y-19854819D01*
X59095238Y-19854819D02*
X59190476Y-19902438D01*
X59190476Y-19902438D02*
X59238095Y-19950057D01*
X59238095Y-19950057D02*
X59285714Y-20045295D01*
X59285714Y-20045295D02*
X59285714Y-20140533D01*
X59285714Y-20140533D02*
X59238095Y-20283390D01*
X59238095Y-20283390D02*
X58666667Y-20854819D01*
X58666667Y-20854819D02*
X59285714Y-20854819D01*
X46357142Y-27786330D02*
X46309523Y-27833950D01*
X46309523Y-27833950D02*
X46166666Y-27881569D01*
X46166666Y-27881569D02*
X46071428Y-27881569D01*
X46071428Y-27881569D02*
X45928571Y-27833950D01*
X45928571Y-27833950D02*
X45833333Y-27738711D01*
X45833333Y-27738711D02*
X45785714Y-27643473D01*
X45785714Y-27643473D02*
X45738095Y-27452997D01*
X45738095Y-27452997D02*
X45738095Y-27310140D01*
X45738095Y-27310140D02*
X45785714Y-27119664D01*
X45785714Y-27119664D02*
X45833333Y-27024426D01*
X45833333Y-27024426D02*
X45928571Y-26929188D01*
X45928571Y-26929188D02*
X46071428Y-26881569D01*
X46071428Y-26881569D02*
X46166666Y-26881569D01*
X46166666Y-26881569D02*
X46309523Y-26929188D01*
X46309523Y-26929188D02*
X46357142Y-26976807D01*
X47309523Y-27881569D02*
X46738095Y-27881569D01*
X47023809Y-27881569D02*
X47023809Y-26881569D01*
X47023809Y-26881569D02*
X46928571Y-27024426D01*
X46928571Y-27024426D02*
X46833333Y-27119664D01*
X46833333Y-27119664D02*
X46738095Y-27167283D01*
X47642857Y-26881569D02*
X48261904Y-26881569D01*
X48261904Y-26881569D02*
X47928571Y-27262521D01*
X47928571Y-27262521D02*
X48071428Y-27262521D01*
X48071428Y-27262521D02*
X48166666Y-27310140D01*
X48166666Y-27310140D02*
X48214285Y-27357759D01*
X48214285Y-27357759D02*
X48261904Y-27452997D01*
X48261904Y-27452997D02*
X48261904Y-27691092D01*
X48261904Y-27691092D02*
X48214285Y-27786330D01*
X48214285Y-27786330D02*
X48166666Y-27833950D01*
X48166666Y-27833950D02*
X48071428Y-27881569D01*
X48071428Y-27881569D02*
X47785714Y-27881569D01*
X47785714Y-27881569D02*
X47690476Y-27833950D01*
X47690476Y-27833950D02*
X47642857Y-27786330D01*
X44058095Y-53451219D02*
X44629523Y-53451219D01*
X44343809Y-54451219D02*
X44343809Y-53451219D01*
X44962857Y-54451219D02*
X44962857Y-53451219D01*
X44962857Y-53451219D02*
X45343809Y-53451219D01*
X45343809Y-53451219D02*
X45439047Y-53498838D01*
X45439047Y-53498838D02*
X45486666Y-53546457D01*
X45486666Y-53546457D02*
X45534285Y-53641695D01*
X45534285Y-53641695D02*
X45534285Y-53784552D01*
X45534285Y-53784552D02*
X45486666Y-53879790D01*
X45486666Y-53879790D02*
X45439047Y-53927409D01*
X45439047Y-53927409D02*
X45343809Y-53975028D01*
X45343809Y-53975028D02*
X44962857Y-53975028D01*
X46010476Y-54451219D02*
X46200952Y-54451219D01*
X46200952Y-54451219D02*
X46296190Y-54403600D01*
X46296190Y-54403600D02*
X46343809Y-54355980D01*
X46343809Y-54355980D02*
X46439047Y-54213123D01*
X46439047Y-54213123D02*
X46486666Y-54022647D01*
X46486666Y-54022647D02*
X46486666Y-53641695D01*
X46486666Y-53641695D02*
X46439047Y-53546457D01*
X46439047Y-53546457D02*
X46391428Y-53498838D01*
X46391428Y-53498838D02*
X46296190Y-53451219D01*
X46296190Y-53451219D02*
X46105714Y-53451219D01*
X46105714Y-53451219D02*
X46010476Y-53498838D01*
X46010476Y-53498838D02*
X45962857Y-53546457D01*
X45962857Y-53546457D02*
X45915238Y-53641695D01*
X45915238Y-53641695D02*
X45915238Y-53879790D01*
X45915238Y-53879790D02*
X45962857Y-53975028D01*
X45962857Y-53975028D02*
X46010476Y-54022647D01*
X46010476Y-54022647D02*
X46105714Y-54070266D01*
X46105714Y-54070266D02*
X46296190Y-54070266D01*
X46296190Y-54070266D02*
X46391428Y-54022647D01*
X46391428Y-54022647D02*
X46439047Y-53975028D01*
X46439047Y-53975028D02*
X46486666Y-53879790D01*
X77554819Y-38706905D02*
X76554819Y-38706905D01*
X76554819Y-38706905D02*
X77554819Y-38135477D01*
X77554819Y-38135477D02*
X76554819Y-38135477D01*
X76554819Y-37802143D02*
X76554819Y-37230715D01*
X77554819Y-37516429D02*
X76554819Y-37516429D01*
X77554819Y-36373572D02*
X77554819Y-36945000D01*
X77554819Y-36659286D02*
X76554819Y-36659286D01*
X76554819Y-36659286D02*
X76697676Y-36754524D01*
X76697676Y-36754524D02*
X76792914Y-36849762D01*
X76792914Y-36849762D02*
X76840533Y-36945000D01*
X42234819Y-54454761D02*
X42234819Y-53883333D01*
X43234819Y-54169047D02*
X42234819Y-54169047D01*
X43234819Y-53549999D02*
X42234819Y-53549999D01*
X42234819Y-53549999D02*
X42234819Y-53169047D01*
X42234819Y-53169047D02*
X42282438Y-53073809D01*
X42282438Y-53073809D02*
X42330057Y-53026190D01*
X42330057Y-53026190D02*
X42425295Y-52978571D01*
X42425295Y-52978571D02*
X42568152Y-52978571D01*
X42568152Y-52978571D02*
X42663390Y-53026190D01*
X42663390Y-53026190D02*
X42711009Y-53073809D01*
X42711009Y-53073809D02*
X42758628Y-53169047D01*
X42758628Y-53169047D02*
X42758628Y-53549999D01*
X42663390Y-52407142D02*
X42615771Y-52502380D01*
X42615771Y-52502380D02*
X42568152Y-52549999D01*
X42568152Y-52549999D02*
X42472914Y-52597618D01*
X42472914Y-52597618D02*
X42425295Y-52597618D01*
X42425295Y-52597618D02*
X42330057Y-52549999D01*
X42330057Y-52549999D02*
X42282438Y-52502380D01*
X42282438Y-52502380D02*
X42234819Y-52407142D01*
X42234819Y-52407142D02*
X42234819Y-52216666D01*
X42234819Y-52216666D02*
X42282438Y-52121428D01*
X42282438Y-52121428D02*
X42330057Y-52073809D01*
X42330057Y-52073809D02*
X42425295Y-52026190D01*
X42425295Y-52026190D02*
X42472914Y-52026190D01*
X42472914Y-52026190D02*
X42568152Y-52073809D01*
X42568152Y-52073809D02*
X42615771Y-52121428D01*
X42615771Y-52121428D02*
X42663390Y-52216666D01*
X42663390Y-52216666D02*
X42663390Y-52407142D01*
X42663390Y-52407142D02*
X42711009Y-52502380D01*
X42711009Y-52502380D02*
X42758628Y-52549999D01*
X42758628Y-52549999D02*
X42853866Y-52597618D01*
X42853866Y-52597618D02*
X43044342Y-52597618D01*
X43044342Y-52597618D02*
X43139580Y-52549999D01*
X43139580Y-52549999D02*
X43187200Y-52502380D01*
X43187200Y-52502380D02*
X43234819Y-52407142D01*
X43234819Y-52407142D02*
X43234819Y-52216666D01*
X43234819Y-52216666D02*
X43187200Y-52121428D01*
X43187200Y-52121428D02*
X43139580Y-52073809D01*
X43139580Y-52073809D02*
X43044342Y-52026190D01*
X43044342Y-52026190D02*
X42853866Y-52026190D01*
X42853866Y-52026190D02*
X42758628Y-52073809D01*
X42758628Y-52073809D02*
X42711009Y-52121428D01*
X42711009Y-52121428D02*
X42663390Y-52216666D01*
X65357142Y-48054819D02*
X65023809Y-47578628D01*
X64785714Y-48054819D02*
X64785714Y-47054819D01*
X64785714Y-47054819D02*
X65166666Y-47054819D01*
X65166666Y-47054819D02*
X65261904Y-47102438D01*
X65261904Y-47102438D02*
X65309523Y-47150057D01*
X65309523Y-47150057D02*
X65357142Y-47245295D01*
X65357142Y-47245295D02*
X65357142Y-47388152D01*
X65357142Y-47388152D02*
X65309523Y-47483390D01*
X65309523Y-47483390D02*
X65261904Y-47531009D01*
X65261904Y-47531009D02*
X65166666Y-47578628D01*
X65166666Y-47578628D02*
X64785714Y-47578628D01*
X66309523Y-48054819D02*
X65738095Y-48054819D01*
X66023809Y-48054819D02*
X66023809Y-47054819D01*
X66023809Y-47054819D02*
X65928571Y-47197676D01*
X65928571Y-47197676D02*
X65833333Y-47292914D01*
X65833333Y-47292914D02*
X65738095Y-47340533D01*
X67261904Y-48054819D02*
X66690476Y-48054819D01*
X66976190Y-48054819D02*
X66976190Y-47054819D01*
X66976190Y-47054819D02*
X66880952Y-47197676D01*
X66880952Y-47197676D02*
X66785714Y-47292914D01*
X66785714Y-47292914D02*
X66690476Y-47340533D01*
X26904761Y-26776807D02*
X26809523Y-26729188D01*
X26809523Y-26729188D02*
X26714285Y-26633950D01*
X26714285Y-26633950D02*
X26571428Y-26491092D01*
X26571428Y-26491092D02*
X26476190Y-26443473D01*
X26476190Y-26443473D02*
X26380952Y-26443473D01*
X26428571Y-26681569D02*
X26333333Y-26633950D01*
X26333333Y-26633950D02*
X26238095Y-26538711D01*
X26238095Y-26538711D02*
X26190476Y-26348235D01*
X26190476Y-26348235D02*
X26190476Y-26014902D01*
X26190476Y-26014902D02*
X26238095Y-25824426D01*
X26238095Y-25824426D02*
X26333333Y-25729188D01*
X26333333Y-25729188D02*
X26428571Y-25681569D01*
X26428571Y-25681569D02*
X26619047Y-25681569D01*
X26619047Y-25681569D02*
X26714285Y-25729188D01*
X26714285Y-25729188D02*
X26809523Y-25824426D01*
X26809523Y-25824426D02*
X26857142Y-26014902D01*
X26857142Y-26014902D02*
X26857142Y-26348235D01*
X26857142Y-26348235D02*
X26809523Y-26538711D01*
X26809523Y-26538711D02*
X26714285Y-26633950D01*
X26714285Y-26633950D02*
X26619047Y-26681569D01*
X26619047Y-26681569D02*
X26428571Y-26681569D01*
X27809523Y-26681569D02*
X27238095Y-26681569D01*
X27523809Y-26681569D02*
X27523809Y-25681569D01*
X27523809Y-25681569D02*
X27428571Y-25824426D01*
X27428571Y-25824426D02*
X27333333Y-25919664D01*
X27333333Y-25919664D02*
X27238095Y-25967283D01*
X26278095Y-53451219D02*
X26849523Y-53451219D01*
X26563809Y-54451219D02*
X26563809Y-53451219D01*
X27182857Y-54451219D02*
X27182857Y-53451219D01*
X27182857Y-53451219D02*
X27563809Y-53451219D01*
X27563809Y-53451219D02*
X27659047Y-53498838D01*
X27659047Y-53498838D02*
X27706666Y-53546457D01*
X27706666Y-53546457D02*
X27754285Y-53641695D01*
X27754285Y-53641695D02*
X27754285Y-53784552D01*
X27754285Y-53784552D02*
X27706666Y-53879790D01*
X27706666Y-53879790D02*
X27659047Y-53927409D01*
X27659047Y-53927409D02*
X27563809Y-53975028D01*
X27563809Y-53975028D02*
X27182857Y-53975028D01*
X28135238Y-53546457D02*
X28182857Y-53498838D01*
X28182857Y-53498838D02*
X28278095Y-53451219D01*
X28278095Y-53451219D02*
X28516190Y-53451219D01*
X28516190Y-53451219D02*
X28611428Y-53498838D01*
X28611428Y-53498838D02*
X28659047Y-53546457D01*
X28659047Y-53546457D02*
X28706666Y-53641695D01*
X28706666Y-53641695D02*
X28706666Y-53736933D01*
X28706666Y-53736933D02*
X28659047Y-53879790D01*
X28659047Y-53879790D02*
X28087619Y-54451219D01*
X28087619Y-54451219D02*
X28706666Y-54451219D01*
X73707143Y-52073069D02*
X73707143Y-51073069D01*
X73707143Y-51073069D02*
X74278571Y-52073069D01*
X74278571Y-52073069D02*
X74278571Y-51073069D01*
X74611905Y-51073069D02*
X75183333Y-51073069D01*
X74897619Y-52073069D02*
X74897619Y-51073069D01*
X75469048Y-51168307D02*
X75516667Y-51120688D01*
X75516667Y-51120688D02*
X75611905Y-51073069D01*
X75611905Y-51073069D02*
X75850000Y-51073069D01*
X75850000Y-51073069D02*
X75945238Y-51120688D01*
X75945238Y-51120688D02*
X75992857Y-51168307D01*
X75992857Y-51168307D02*
X76040476Y-51263545D01*
X76040476Y-51263545D02*
X76040476Y-51358783D01*
X76040476Y-51358783D02*
X75992857Y-51501640D01*
X75992857Y-51501640D02*
X75421429Y-52073069D01*
X75421429Y-52073069D02*
X76040476Y-52073069D01*
X37333333Y-28531569D02*
X37000000Y-28055378D01*
X36761905Y-28531569D02*
X36761905Y-27531569D01*
X36761905Y-27531569D02*
X37142857Y-27531569D01*
X37142857Y-27531569D02*
X37238095Y-27579188D01*
X37238095Y-27579188D02*
X37285714Y-27626807D01*
X37285714Y-27626807D02*
X37333333Y-27722045D01*
X37333333Y-27722045D02*
X37333333Y-27864902D01*
X37333333Y-27864902D02*
X37285714Y-27960140D01*
X37285714Y-27960140D02*
X37238095Y-28007759D01*
X37238095Y-28007759D02*
X37142857Y-28055378D01*
X37142857Y-28055378D02*
X36761905Y-28055378D01*
X37714286Y-28483950D02*
X37857143Y-28531569D01*
X37857143Y-28531569D02*
X38095238Y-28531569D01*
X38095238Y-28531569D02*
X38190476Y-28483950D01*
X38190476Y-28483950D02*
X38238095Y-28436330D01*
X38238095Y-28436330D02*
X38285714Y-28341092D01*
X38285714Y-28341092D02*
X38285714Y-28245854D01*
X38285714Y-28245854D02*
X38238095Y-28150616D01*
X38238095Y-28150616D02*
X38190476Y-28102997D01*
X38190476Y-28102997D02*
X38095238Y-28055378D01*
X38095238Y-28055378D02*
X37904762Y-28007759D01*
X37904762Y-28007759D02*
X37809524Y-27960140D01*
X37809524Y-27960140D02*
X37761905Y-27912521D01*
X37761905Y-27912521D02*
X37714286Y-27817283D01*
X37714286Y-27817283D02*
X37714286Y-27722045D01*
X37714286Y-27722045D02*
X37761905Y-27626807D01*
X37761905Y-27626807D02*
X37809524Y-27579188D01*
X37809524Y-27579188D02*
X37904762Y-27531569D01*
X37904762Y-27531569D02*
X38142857Y-27531569D01*
X38142857Y-27531569D02*
X38285714Y-27579188D01*
X38714286Y-28531569D02*
X38714286Y-27531569D01*
X38714286Y-28007759D02*
X39285714Y-28007759D01*
X39285714Y-28531569D02*
X39285714Y-27531569D01*
X40285714Y-28531569D02*
X39714286Y-28531569D01*
X40000000Y-28531569D02*
X40000000Y-27531569D01*
X40000000Y-27531569D02*
X39904762Y-27674426D01*
X39904762Y-27674426D02*
X39809524Y-27769664D01*
X39809524Y-27769664D02*
X39714286Y-27817283D01*
X68357142Y-42905980D02*
X68309523Y-42953600D01*
X68309523Y-42953600D02*
X68166666Y-43001219D01*
X68166666Y-43001219D02*
X68071428Y-43001219D01*
X68071428Y-43001219D02*
X67928571Y-42953600D01*
X67928571Y-42953600D02*
X67833333Y-42858361D01*
X67833333Y-42858361D02*
X67785714Y-42763123D01*
X67785714Y-42763123D02*
X67738095Y-42572647D01*
X67738095Y-42572647D02*
X67738095Y-42429790D01*
X67738095Y-42429790D02*
X67785714Y-42239314D01*
X67785714Y-42239314D02*
X67833333Y-42144076D01*
X67833333Y-42144076D02*
X67928571Y-42048838D01*
X67928571Y-42048838D02*
X68071428Y-42001219D01*
X68071428Y-42001219D02*
X68166666Y-42001219D01*
X68166666Y-42001219D02*
X68309523Y-42048838D01*
X68309523Y-42048838D02*
X68357142Y-42096457D01*
X69309523Y-43001219D02*
X68738095Y-43001219D01*
X69023809Y-43001219D02*
X69023809Y-42001219D01*
X69023809Y-42001219D02*
X68928571Y-42144076D01*
X68928571Y-42144076D02*
X68833333Y-42239314D01*
X68833333Y-42239314D02*
X68738095Y-42286933D01*
X69880952Y-42429790D02*
X69785714Y-42382171D01*
X69785714Y-42382171D02*
X69738095Y-42334552D01*
X69738095Y-42334552D02*
X69690476Y-42239314D01*
X69690476Y-42239314D02*
X69690476Y-42191695D01*
X69690476Y-42191695D02*
X69738095Y-42096457D01*
X69738095Y-42096457D02*
X69785714Y-42048838D01*
X69785714Y-42048838D02*
X69880952Y-42001219D01*
X69880952Y-42001219D02*
X70071428Y-42001219D01*
X70071428Y-42001219D02*
X70166666Y-42048838D01*
X70166666Y-42048838D02*
X70214285Y-42096457D01*
X70214285Y-42096457D02*
X70261904Y-42191695D01*
X70261904Y-42191695D02*
X70261904Y-42239314D01*
X70261904Y-42239314D02*
X70214285Y-42334552D01*
X70214285Y-42334552D02*
X70166666Y-42382171D01*
X70166666Y-42382171D02*
X70071428Y-42429790D01*
X70071428Y-42429790D02*
X69880952Y-42429790D01*
X69880952Y-42429790D02*
X69785714Y-42477409D01*
X69785714Y-42477409D02*
X69738095Y-42525028D01*
X69738095Y-42525028D02*
X69690476Y-42620266D01*
X69690476Y-42620266D02*
X69690476Y-42810742D01*
X69690476Y-42810742D02*
X69738095Y-42905980D01*
X69738095Y-42905980D02*
X69785714Y-42953600D01*
X69785714Y-42953600D02*
X69880952Y-43001219D01*
X69880952Y-43001219D02*
X70071428Y-43001219D01*
X70071428Y-43001219D02*
X70166666Y-42953600D01*
X70166666Y-42953600D02*
X70214285Y-42905980D01*
X70214285Y-42905980D02*
X70261904Y-42810742D01*
X70261904Y-42810742D02*
X70261904Y-42620266D01*
X70261904Y-42620266D02*
X70214285Y-42525028D01*
X70214285Y-42525028D02*
X70166666Y-42477409D01*
X70166666Y-42477409D02*
X70071428Y-42429790D01*
X73101569Y-55892857D02*
X72625378Y-56226190D01*
X73101569Y-56464285D02*
X72101569Y-56464285D01*
X72101569Y-56464285D02*
X72101569Y-56083333D01*
X72101569Y-56083333D02*
X72149188Y-55988095D01*
X72149188Y-55988095D02*
X72196807Y-55940476D01*
X72196807Y-55940476D02*
X72292045Y-55892857D01*
X72292045Y-55892857D02*
X72434902Y-55892857D01*
X72434902Y-55892857D02*
X72530140Y-55940476D01*
X72530140Y-55940476D02*
X72577759Y-55988095D01*
X72577759Y-55988095D02*
X72625378Y-56083333D01*
X72625378Y-56083333D02*
X72625378Y-56464285D01*
X73101569Y-54940476D02*
X73101569Y-55511904D01*
X73101569Y-55226190D02*
X72101569Y-55226190D01*
X72101569Y-55226190D02*
X72244426Y-55321428D01*
X72244426Y-55321428D02*
X72339664Y-55416666D01*
X72339664Y-55416666D02*
X72387283Y-55511904D01*
X72101569Y-54607142D02*
X72101569Y-53988095D01*
X72101569Y-53988095D02*
X72482521Y-54321428D01*
X72482521Y-54321428D02*
X72482521Y-54178571D01*
X72482521Y-54178571D02*
X72530140Y-54083333D01*
X72530140Y-54083333D02*
X72577759Y-54035714D01*
X72577759Y-54035714D02*
X72672997Y-53988095D01*
X72672997Y-53988095D02*
X72911092Y-53988095D01*
X72911092Y-53988095D02*
X73006330Y-54035714D01*
X73006330Y-54035714D02*
X73053950Y-54083333D01*
X73053950Y-54083333D02*
X73101569Y-54178571D01*
X73101569Y-54178571D02*
X73101569Y-54464285D01*
X73101569Y-54464285D02*
X73053950Y-54559523D01*
X73053950Y-54559523D02*
X73006330Y-54607142D01*
X52738095Y-15808419D02*
X52738095Y-16617942D01*
X52738095Y-16617942D02*
X52785714Y-16713180D01*
X52785714Y-16713180D02*
X52833333Y-16760800D01*
X52833333Y-16760800D02*
X52928571Y-16808419D01*
X52928571Y-16808419D02*
X53119047Y-16808419D01*
X53119047Y-16808419D02*
X53214285Y-16760800D01*
X53214285Y-16760800D02*
X53261904Y-16713180D01*
X53261904Y-16713180D02*
X53309523Y-16617942D01*
X53309523Y-16617942D02*
X53309523Y-15808419D01*
X53690476Y-15808419D02*
X54309523Y-15808419D01*
X54309523Y-15808419D02*
X53976190Y-16189371D01*
X53976190Y-16189371D02*
X54119047Y-16189371D01*
X54119047Y-16189371D02*
X54214285Y-16236990D01*
X54214285Y-16236990D02*
X54261904Y-16284609D01*
X54261904Y-16284609D02*
X54309523Y-16379847D01*
X54309523Y-16379847D02*
X54309523Y-16617942D01*
X54309523Y-16617942D02*
X54261904Y-16713180D01*
X54261904Y-16713180D02*
X54214285Y-16760800D01*
X54214285Y-16760800D02*
X54119047Y-16808419D01*
X54119047Y-16808419D02*
X53833333Y-16808419D01*
X53833333Y-16808419D02*
X53738095Y-16760800D01*
X53738095Y-16760800D02*
X53690476Y-16713180D01*
X52833333Y-20054819D02*
X52500000Y-19578628D01*
X52261905Y-20054819D02*
X52261905Y-19054819D01*
X52261905Y-19054819D02*
X52642857Y-19054819D01*
X52642857Y-19054819D02*
X52738095Y-19102438D01*
X52738095Y-19102438D02*
X52785714Y-19150057D01*
X52785714Y-19150057D02*
X52833333Y-19245295D01*
X52833333Y-19245295D02*
X52833333Y-19388152D01*
X52833333Y-19388152D02*
X52785714Y-19483390D01*
X52785714Y-19483390D02*
X52738095Y-19531009D01*
X52738095Y-19531009D02*
X52642857Y-19578628D01*
X52642857Y-19578628D02*
X52261905Y-19578628D01*
X53690476Y-19388152D02*
X53690476Y-20054819D01*
X53452381Y-19007200D02*
X53214286Y-19721485D01*
X53214286Y-19721485D02*
X53833333Y-19721485D01*
X62333333Y-43854819D02*
X61857143Y-43854819D01*
X61857143Y-43854819D02*
X61857143Y-42854819D01*
X62619048Y-42950057D02*
X62666667Y-42902438D01*
X62666667Y-42902438D02*
X62761905Y-42854819D01*
X62761905Y-42854819D02*
X63000000Y-42854819D01*
X63000000Y-42854819D02*
X63095238Y-42902438D01*
X63095238Y-42902438D02*
X63142857Y-42950057D01*
X63142857Y-42950057D02*
X63190476Y-43045295D01*
X63190476Y-43045295D02*
X63190476Y-43140533D01*
X63190476Y-43140533D02*
X63142857Y-43283390D01*
X63142857Y-43283390D02*
X62571429Y-43854819D01*
X62571429Y-43854819D02*
X63190476Y-43854819D01*
X76639523Y-57204819D02*
X76306190Y-56728628D01*
X76068095Y-57204819D02*
X76068095Y-56204819D01*
X76068095Y-56204819D02*
X76449047Y-56204819D01*
X76449047Y-56204819D02*
X76544285Y-56252438D01*
X76544285Y-56252438D02*
X76591904Y-56300057D01*
X76591904Y-56300057D02*
X76639523Y-56395295D01*
X76639523Y-56395295D02*
X76639523Y-56538152D01*
X76639523Y-56538152D02*
X76591904Y-56633390D01*
X76591904Y-56633390D02*
X76544285Y-56681009D01*
X76544285Y-56681009D02*
X76449047Y-56728628D01*
X76449047Y-56728628D02*
X76068095Y-56728628D01*
X77591904Y-57204819D02*
X77020476Y-57204819D01*
X77306190Y-57204819D02*
X77306190Y-56204819D01*
X77306190Y-56204819D02*
X77210952Y-56347676D01*
X77210952Y-56347676D02*
X77115714Y-56442914D01*
X77115714Y-56442914D02*
X77020476Y-56490533D01*
X78449047Y-56538152D02*
X78449047Y-57204819D01*
X78210952Y-56157200D02*
X77972857Y-56871485D01*
X77972857Y-56871485D02*
X78591904Y-56871485D01*
X54833333Y-48054819D02*
X54500000Y-47578628D01*
X54261905Y-48054819D02*
X54261905Y-47054819D01*
X54261905Y-47054819D02*
X54642857Y-47054819D01*
X54642857Y-47054819D02*
X54738095Y-47102438D01*
X54738095Y-47102438D02*
X54785714Y-47150057D01*
X54785714Y-47150057D02*
X54833333Y-47245295D01*
X54833333Y-47245295D02*
X54833333Y-47388152D01*
X54833333Y-47388152D02*
X54785714Y-47483390D01*
X54785714Y-47483390D02*
X54738095Y-47531009D01*
X54738095Y-47531009D02*
X54642857Y-47578628D01*
X54642857Y-47578628D02*
X54261905Y-47578628D01*
X55309524Y-48054819D02*
X55500000Y-48054819D01*
X55500000Y-48054819D02*
X55595238Y-48007200D01*
X55595238Y-48007200D02*
X55642857Y-47959580D01*
X55642857Y-47959580D02*
X55738095Y-47816723D01*
X55738095Y-47816723D02*
X55785714Y-47626247D01*
X55785714Y-47626247D02*
X55785714Y-47245295D01*
X55785714Y-47245295D02*
X55738095Y-47150057D01*
X55738095Y-47150057D02*
X55690476Y-47102438D01*
X55690476Y-47102438D02*
X55595238Y-47054819D01*
X55595238Y-47054819D02*
X55404762Y-47054819D01*
X55404762Y-47054819D02*
X55309524Y-47102438D01*
X55309524Y-47102438D02*
X55261905Y-47150057D01*
X55261905Y-47150057D02*
X55214286Y-47245295D01*
X55214286Y-47245295D02*
X55214286Y-47483390D01*
X55214286Y-47483390D02*
X55261905Y-47578628D01*
X55261905Y-47578628D02*
X55309524Y-47626247D01*
X55309524Y-47626247D02*
X55404762Y-47673866D01*
X55404762Y-47673866D02*
X55595238Y-47673866D01*
X55595238Y-47673866D02*
X55690476Y-47626247D01*
X55690476Y-47626247D02*
X55738095Y-47578628D01*
X55738095Y-47578628D02*
X55785714Y-47483390D01*
X43238095Y-21054819D02*
X43238095Y-21864342D01*
X43238095Y-21864342D02*
X43285714Y-21959580D01*
X43285714Y-21959580D02*
X43333333Y-22007200D01*
X43333333Y-22007200D02*
X43428571Y-22054819D01*
X43428571Y-22054819D02*
X43619047Y-22054819D01*
X43619047Y-22054819D02*
X43714285Y-22007200D01*
X43714285Y-22007200D02*
X43761904Y-21959580D01*
X43761904Y-21959580D02*
X43809523Y-21864342D01*
X43809523Y-21864342D02*
X43809523Y-21054819D01*
X44238095Y-21150057D02*
X44285714Y-21102438D01*
X44285714Y-21102438D02*
X44380952Y-21054819D01*
X44380952Y-21054819D02*
X44619047Y-21054819D01*
X44619047Y-21054819D02*
X44714285Y-21102438D01*
X44714285Y-21102438D02*
X44761904Y-21150057D01*
X44761904Y-21150057D02*
X44809523Y-21245295D01*
X44809523Y-21245295D02*
X44809523Y-21340533D01*
X44809523Y-21340533D02*
X44761904Y-21483390D01*
X44761904Y-21483390D02*
X44190476Y-22054819D01*
X44190476Y-22054819D02*
X44809523Y-22054819D01*
X68833333Y-35905980D02*
X68785714Y-35953600D01*
X68785714Y-35953600D02*
X68642857Y-36001219D01*
X68642857Y-36001219D02*
X68547619Y-36001219D01*
X68547619Y-36001219D02*
X68404762Y-35953600D01*
X68404762Y-35953600D02*
X68309524Y-35858361D01*
X68309524Y-35858361D02*
X68261905Y-35763123D01*
X68261905Y-35763123D02*
X68214286Y-35572647D01*
X68214286Y-35572647D02*
X68214286Y-35429790D01*
X68214286Y-35429790D02*
X68261905Y-35239314D01*
X68261905Y-35239314D02*
X68309524Y-35144076D01*
X68309524Y-35144076D02*
X68404762Y-35048838D01*
X68404762Y-35048838D02*
X68547619Y-35001219D01*
X68547619Y-35001219D02*
X68642857Y-35001219D01*
X68642857Y-35001219D02*
X68785714Y-35048838D01*
X68785714Y-35048838D02*
X68833333Y-35096457D01*
X69738095Y-35001219D02*
X69261905Y-35001219D01*
X69261905Y-35001219D02*
X69214286Y-35477409D01*
X69214286Y-35477409D02*
X69261905Y-35429790D01*
X69261905Y-35429790D02*
X69357143Y-35382171D01*
X69357143Y-35382171D02*
X69595238Y-35382171D01*
X69595238Y-35382171D02*
X69690476Y-35429790D01*
X69690476Y-35429790D02*
X69738095Y-35477409D01*
X69738095Y-35477409D02*
X69785714Y-35572647D01*
X69785714Y-35572647D02*
X69785714Y-35810742D01*
X69785714Y-35810742D02*
X69738095Y-35905980D01*
X69738095Y-35905980D02*
X69690476Y-35953600D01*
X69690476Y-35953600D02*
X69595238Y-36001219D01*
X69595238Y-36001219D02*
X69357143Y-36001219D01*
X69357143Y-36001219D02*
X69261905Y-35953600D01*
X69261905Y-35953600D02*
X69214286Y-35905980D01*
X12666666Y-26947409D02*
X12333333Y-26947409D01*
X12333333Y-27471219D02*
X12333333Y-26471219D01*
X12333333Y-26471219D02*
X12809523Y-26471219D01*
X13714285Y-27471219D02*
X13142857Y-27471219D01*
X13428571Y-27471219D02*
X13428571Y-26471219D01*
X13428571Y-26471219D02*
X13333333Y-26614076D01*
X13333333Y-26614076D02*
X13238095Y-26709314D01*
X13238095Y-26709314D02*
X13142857Y-26756933D01*
X68833333Y-7905980D02*
X68785714Y-7953600D01*
X68785714Y-7953600D02*
X68642857Y-8001219D01*
X68642857Y-8001219D02*
X68547619Y-8001219D01*
X68547619Y-8001219D02*
X68404762Y-7953600D01*
X68404762Y-7953600D02*
X68309524Y-7858361D01*
X68309524Y-7858361D02*
X68261905Y-7763123D01*
X68261905Y-7763123D02*
X68214286Y-7572647D01*
X68214286Y-7572647D02*
X68214286Y-7429790D01*
X68214286Y-7429790D02*
X68261905Y-7239314D01*
X68261905Y-7239314D02*
X68309524Y-7144076D01*
X68309524Y-7144076D02*
X68404762Y-7048838D01*
X68404762Y-7048838D02*
X68547619Y-7001219D01*
X68547619Y-7001219D02*
X68642857Y-7001219D01*
X68642857Y-7001219D02*
X68785714Y-7048838D01*
X68785714Y-7048838D02*
X68833333Y-7096457D01*
X69166667Y-7001219D02*
X69785714Y-7001219D01*
X69785714Y-7001219D02*
X69452381Y-7382171D01*
X69452381Y-7382171D02*
X69595238Y-7382171D01*
X69595238Y-7382171D02*
X69690476Y-7429790D01*
X69690476Y-7429790D02*
X69738095Y-7477409D01*
X69738095Y-7477409D02*
X69785714Y-7572647D01*
X69785714Y-7572647D02*
X69785714Y-7810742D01*
X69785714Y-7810742D02*
X69738095Y-7905980D01*
X69738095Y-7905980D02*
X69690476Y-7953600D01*
X69690476Y-7953600D02*
X69595238Y-8001219D01*
X69595238Y-8001219D02*
X69309524Y-8001219D01*
X69309524Y-8001219D02*
X69214286Y-7953600D01*
X69214286Y-7953600D02*
X69166667Y-7905980D01*
X48333333Y-20959580D02*
X48285714Y-21007200D01*
X48285714Y-21007200D02*
X48142857Y-21054819D01*
X48142857Y-21054819D02*
X48047619Y-21054819D01*
X48047619Y-21054819D02*
X47904762Y-21007200D01*
X47904762Y-21007200D02*
X47809524Y-20911961D01*
X47809524Y-20911961D02*
X47761905Y-20816723D01*
X47761905Y-20816723D02*
X47714286Y-20626247D01*
X47714286Y-20626247D02*
X47714286Y-20483390D01*
X47714286Y-20483390D02*
X47761905Y-20292914D01*
X47761905Y-20292914D02*
X47809524Y-20197676D01*
X47809524Y-20197676D02*
X47904762Y-20102438D01*
X47904762Y-20102438D02*
X48047619Y-20054819D01*
X48047619Y-20054819D02*
X48142857Y-20054819D01*
X48142857Y-20054819D02*
X48285714Y-20102438D01*
X48285714Y-20102438D02*
X48333333Y-20150057D01*
X48714286Y-20150057D02*
X48761905Y-20102438D01*
X48761905Y-20102438D02*
X48857143Y-20054819D01*
X48857143Y-20054819D02*
X49095238Y-20054819D01*
X49095238Y-20054819D02*
X49190476Y-20102438D01*
X49190476Y-20102438D02*
X49238095Y-20150057D01*
X49238095Y-20150057D02*
X49285714Y-20245295D01*
X49285714Y-20245295D02*
X49285714Y-20340533D01*
X49285714Y-20340533D02*
X49238095Y-20483390D01*
X49238095Y-20483390D02*
X48666667Y-21054819D01*
X48666667Y-21054819D02*
X49285714Y-21054819D01*
X60607142Y-19461569D02*
X60273809Y-18985378D01*
X60035714Y-19461569D02*
X60035714Y-18461569D01*
X60035714Y-18461569D02*
X60416666Y-18461569D01*
X60416666Y-18461569D02*
X60511904Y-18509188D01*
X60511904Y-18509188D02*
X60559523Y-18556807D01*
X60559523Y-18556807D02*
X60607142Y-18652045D01*
X60607142Y-18652045D02*
X60607142Y-18794902D01*
X60607142Y-18794902D02*
X60559523Y-18890140D01*
X60559523Y-18890140D02*
X60511904Y-18937759D01*
X60511904Y-18937759D02*
X60416666Y-18985378D01*
X60416666Y-18985378D02*
X60035714Y-18985378D01*
X61559523Y-19461569D02*
X60988095Y-19461569D01*
X61273809Y-19461569D02*
X61273809Y-18461569D01*
X61273809Y-18461569D02*
X61178571Y-18604426D01*
X61178571Y-18604426D02*
X61083333Y-18699664D01*
X61083333Y-18699664D02*
X60988095Y-18747283D01*
X62464285Y-18461569D02*
X61988095Y-18461569D01*
X61988095Y-18461569D02*
X61940476Y-18937759D01*
X61940476Y-18937759D02*
X61988095Y-18890140D01*
X61988095Y-18890140D02*
X62083333Y-18842521D01*
X62083333Y-18842521D02*
X62321428Y-18842521D01*
X62321428Y-18842521D02*
X62416666Y-18890140D01*
X62416666Y-18890140D02*
X62464285Y-18937759D01*
X62464285Y-18937759D02*
X62511904Y-19032997D01*
X62511904Y-19032997D02*
X62511904Y-19271092D01*
X62511904Y-19271092D02*
X62464285Y-19366330D01*
X62464285Y-19366330D02*
X62416666Y-19413950D01*
X62416666Y-19413950D02*
X62321428Y-19461569D01*
X62321428Y-19461569D02*
X62083333Y-19461569D01*
X62083333Y-19461569D02*
X61988095Y-19413950D01*
X61988095Y-19413950D02*
X61940476Y-19366330D01*
X11681569Y-33260595D02*
X10681569Y-33260595D01*
X10681569Y-33260595D02*
X10681569Y-33022500D01*
X10681569Y-33022500D02*
X10729188Y-32879643D01*
X10729188Y-32879643D02*
X10824426Y-32784405D01*
X10824426Y-32784405D02*
X10919664Y-32736786D01*
X10919664Y-32736786D02*
X11110140Y-32689167D01*
X11110140Y-32689167D02*
X11252997Y-32689167D01*
X11252997Y-32689167D02*
X11443473Y-32736786D01*
X11443473Y-32736786D02*
X11538711Y-32784405D01*
X11538711Y-32784405D02*
X11633950Y-32879643D01*
X11633950Y-32879643D02*
X11681569Y-33022500D01*
X11681569Y-33022500D02*
X11681569Y-33260595D01*
X11681569Y-31736786D02*
X11681569Y-32308214D01*
X11681569Y-32022500D02*
X10681569Y-32022500D01*
X10681569Y-32022500D02*
X10824426Y-32117738D01*
X10824426Y-32117738D02*
X10919664Y-32212976D01*
X10919664Y-32212976D02*
X10967283Y-32308214D01*
X69304761Y-41109580D02*
X69257142Y-41157200D01*
X69257142Y-41157200D02*
X69114285Y-41204819D01*
X69114285Y-41204819D02*
X69019047Y-41204819D01*
X69019047Y-41204819D02*
X68876190Y-41157200D01*
X68876190Y-41157200D02*
X68780952Y-41061961D01*
X68780952Y-41061961D02*
X68733333Y-40966723D01*
X68733333Y-40966723D02*
X68685714Y-40776247D01*
X68685714Y-40776247D02*
X68685714Y-40633390D01*
X68685714Y-40633390D02*
X68733333Y-40442914D01*
X68733333Y-40442914D02*
X68780952Y-40347676D01*
X68780952Y-40347676D02*
X68876190Y-40252438D01*
X68876190Y-40252438D02*
X69019047Y-40204819D01*
X69019047Y-40204819D02*
X69114285Y-40204819D01*
X69114285Y-40204819D02*
X69257142Y-40252438D01*
X69257142Y-40252438D02*
X69304761Y-40300057D01*
X70257142Y-41204819D02*
X69685714Y-41204819D01*
X69971428Y-41204819D02*
X69971428Y-40204819D01*
X69971428Y-40204819D02*
X69876190Y-40347676D01*
X69876190Y-40347676D02*
X69780952Y-40442914D01*
X69780952Y-40442914D02*
X69685714Y-40490533D01*
X70733333Y-41204819D02*
X70923809Y-41204819D01*
X70923809Y-41204819D02*
X71019047Y-41157200D01*
X71019047Y-41157200D02*
X71066666Y-41109580D01*
X71066666Y-41109580D02*
X71161904Y-40966723D01*
X71161904Y-40966723D02*
X71209523Y-40776247D01*
X71209523Y-40776247D02*
X71209523Y-40395295D01*
X71209523Y-40395295D02*
X71161904Y-40300057D01*
X71161904Y-40300057D02*
X71114285Y-40252438D01*
X71114285Y-40252438D02*
X71019047Y-40204819D01*
X71019047Y-40204819D02*
X70828571Y-40204819D01*
X70828571Y-40204819D02*
X70733333Y-40252438D01*
X70733333Y-40252438D02*
X70685714Y-40300057D01*
X70685714Y-40300057D02*
X70638095Y-40395295D01*
X70638095Y-40395295D02*
X70638095Y-40633390D01*
X70638095Y-40633390D02*
X70685714Y-40728628D01*
X70685714Y-40728628D02*
X70733333Y-40776247D01*
X70733333Y-40776247D02*
X70828571Y-40823866D01*
X70828571Y-40823866D02*
X71019047Y-40823866D01*
X71019047Y-40823866D02*
X71114285Y-40776247D01*
X71114285Y-40776247D02*
X71161904Y-40728628D01*
X71161904Y-40728628D02*
X71209523Y-40633390D01*
X48357142Y-11905980D02*
X48309523Y-11953600D01*
X48309523Y-11953600D02*
X48166666Y-12001219D01*
X48166666Y-12001219D02*
X48071428Y-12001219D01*
X48071428Y-12001219D02*
X47928571Y-11953600D01*
X47928571Y-11953600D02*
X47833333Y-11858361D01*
X47833333Y-11858361D02*
X47785714Y-11763123D01*
X47785714Y-11763123D02*
X47738095Y-11572647D01*
X47738095Y-11572647D02*
X47738095Y-11429790D01*
X47738095Y-11429790D02*
X47785714Y-11239314D01*
X47785714Y-11239314D02*
X47833333Y-11144076D01*
X47833333Y-11144076D02*
X47928571Y-11048838D01*
X47928571Y-11048838D02*
X48071428Y-11001219D01*
X48071428Y-11001219D02*
X48166666Y-11001219D01*
X48166666Y-11001219D02*
X48309523Y-11048838D01*
X48309523Y-11048838D02*
X48357142Y-11096457D01*
X49309523Y-12001219D02*
X48738095Y-12001219D01*
X49023809Y-12001219D02*
X49023809Y-11001219D01*
X49023809Y-11001219D02*
X48928571Y-11144076D01*
X48928571Y-11144076D02*
X48833333Y-11239314D01*
X48833333Y-11239314D02*
X48738095Y-11286933D01*
X50261904Y-12001219D02*
X49690476Y-12001219D01*
X49976190Y-12001219D02*
X49976190Y-11001219D01*
X49976190Y-11001219D02*
X49880952Y-11144076D01*
X49880952Y-11144076D02*
X49785714Y-11239314D01*
X49785714Y-11239314D02*
X49690476Y-11286933D01*
X23238095Y-53281569D02*
X23809523Y-53281569D01*
X23523809Y-54281569D02*
X23523809Y-53281569D01*
X24142857Y-54281569D02*
X24142857Y-53281569D01*
X24142857Y-53281569D02*
X24523809Y-53281569D01*
X24523809Y-53281569D02*
X24619047Y-53329188D01*
X24619047Y-53329188D02*
X24666666Y-53376807D01*
X24666666Y-53376807D02*
X24714285Y-53472045D01*
X24714285Y-53472045D02*
X24714285Y-53614902D01*
X24714285Y-53614902D02*
X24666666Y-53710140D01*
X24666666Y-53710140D02*
X24619047Y-53757759D01*
X24619047Y-53757759D02*
X24523809Y-53805378D01*
X24523809Y-53805378D02*
X24142857Y-53805378D01*
X25666666Y-54281569D02*
X25095238Y-54281569D01*
X25380952Y-54281569D02*
X25380952Y-53281569D01*
X25380952Y-53281569D02*
X25285714Y-53424426D01*
X25285714Y-53424426D02*
X25190476Y-53519664D01*
X25190476Y-53519664D02*
X25095238Y-53567283D01*
X55833333Y-18054819D02*
X55500000Y-17578628D01*
X55261905Y-18054819D02*
X55261905Y-17054819D01*
X55261905Y-17054819D02*
X55642857Y-17054819D01*
X55642857Y-17054819D02*
X55738095Y-17102438D01*
X55738095Y-17102438D02*
X55785714Y-17150057D01*
X55785714Y-17150057D02*
X55833333Y-17245295D01*
X55833333Y-17245295D02*
X55833333Y-17388152D01*
X55833333Y-17388152D02*
X55785714Y-17483390D01*
X55785714Y-17483390D02*
X55738095Y-17531009D01*
X55738095Y-17531009D02*
X55642857Y-17578628D01*
X55642857Y-17578628D02*
X55261905Y-17578628D01*
X56785714Y-18054819D02*
X56214286Y-18054819D01*
X56500000Y-18054819D02*
X56500000Y-17054819D01*
X56500000Y-17054819D02*
X56404762Y-17197676D01*
X56404762Y-17197676D02*
X56309524Y-17292914D01*
X56309524Y-17292914D02*
X56214286Y-17340533D01*
X47121905Y-53281569D02*
X47693333Y-53281569D01*
X47407619Y-54281569D02*
X47407619Y-53281569D01*
X48026667Y-54281569D02*
X48026667Y-53281569D01*
X48026667Y-53281569D02*
X48407619Y-53281569D01*
X48407619Y-53281569D02*
X48502857Y-53329188D01*
X48502857Y-53329188D02*
X48550476Y-53376807D01*
X48550476Y-53376807D02*
X48598095Y-53472045D01*
X48598095Y-53472045D02*
X48598095Y-53614902D01*
X48598095Y-53614902D02*
X48550476Y-53710140D01*
X48550476Y-53710140D02*
X48502857Y-53757759D01*
X48502857Y-53757759D02*
X48407619Y-53805378D01*
X48407619Y-53805378D02*
X48026667Y-53805378D01*
X49550476Y-54281569D02*
X48979048Y-54281569D01*
X49264762Y-54281569D02*
X49264762Y-53281569D01*
X49264762Y-53281569D02*
X49169524Y-53424426D01*
X49169524Y-53424426D02*
X49074286Y-53519664D01*
X49074286Y-53519664D02*
X48979048Y-53567283D01*
X50169524Y-53281569D02*
X50264762Y-53281569D01*
X50264762Y-53281569D02*
X50360000Y-53329188D01*
X50360000Y-53329188D02*
X50407619Y-53376807D01*
X50407619Y-53376807D02*
X50455238Y-53472045D01*
X50455238Y-53472045D02*
X50502857Y-53662521D01*
X50502857Y-53662521D02*
X50502857Y-53900616D01*
X50502857Y-53900616D02*
X50455238Y-54091092D01*
X50455238Y-54091092D02*
X50407619Y-54186330D01*
X50407619Y-54186330D02*
X50360000Y-54233950D01*
X50360000Y-54233950D02*
X50264762Y-54281569D01*
X50264762Y-54281569D02*
X50169524Y-54281569D01*
X50169524Y-54281569D02*
X50074286Y-54233950D01*
X50074286Y-54233950D02*
X50026667Y-54186330D01*
X50026667Y-54186330D02*
X49979048Y-54091092D01*
X49979048Y-54091092D02*
X49931429Y-53900616D01*
X49931429Y-53900616D02*
X49931429Y-53662521D01*
X49931429Y-53662521D02*
X49979048Y-53472045D01*
X49979048Y-53472045D02*
X50026667Y-53376807D01*
X50026667Y-53376807D02*
X50074286Y-53329188D01*
X50074286Y-53329188D02*
X50169524Y-53281569D01*
X52333333Y-48054819D02*
X52000000Y-47578628D01*
X51761905Y-48054819D02*
X51761905Y-47054819D01*
X51761905Y-47054819D02*
X52142857Y-47054819D01*
X52142857Y-47054819D02*
X52238095Y-47102438D01*
X52238095Y-47102438D02*
X52285714Y-47150057D01*
X52285714Y-47150057D02*
X52333333Y-47245295D01*
X52333333Y-47245295D02*
X52333333Y-47388152D01*
X52333333Y-47388152D02*
X52285714Y-47483390D01*
X52285714Y-47483390D02*
X52238095Y-47531009D01*
X52238095Y-47531009D02*
X52142857Y-47578628D01*
X52142857Y-47578628D02*
X51761905Y-47578628D01*
X52904762Y-47483390D02*
X52809524Y-47435771D01*
X52809524Y-47435771D02*
X52761905Y-47388152D01*
X52761905Y-47388152D02*
X52714286Y-47292914D01*
X52714286Y-47292914D02*
X52714286Y-47245295D01*
X52714286Y-47245295D02*
X52761905Y-47150057D01*
X52761905Y-47150057D02*
X52809524Y-47102438D01*
X52809524Y-47102438D02*
X52904762Y-47054819D01*
X52904762Y-47054819D02*
X53095238Y-47054819D01*
X53095238Y-47054819D02*
X53190476Y-47102438D01*
X53190476Y-47102438D02*
X53238095Y-47150057D01*
X53238095Y-47150057D02*
X53285714Y-47245295D01*
X53285714Y-47245295D02*
X53285714Y-47292914D01*
X53285714Y-47292914D02*
X53238095Y-47388152D01*
X53238095Y-47388152D02*
X53190476Y-47435771D01*
X53190476Y-47435771D02*
X53095238Y-47483390D01*
X53095238Y-47483390D02*
X52904762Y-47483390D01*
X52904762Y-47483390D02*
X52809524Y-47531009D01*
X52809524Y-47531009D02*
X52761905Y-47578628D01*
X52761905Y-47578628D02*
X52714286Y-47673866D01*
X52714286Y-47673866D02*
X52714286Y-47864342D01*
X52714286Y-47864342D02*
X52761905Y-47959580D01*
X52761905Y-47959580D02*
X52809524Y-48007200D01*
X52809524Y-48007200D02*
X52904762Y-48054819D01*
X52904762Y-48054819D02*
X53095238Y-48054819D01*
X53095238Y-48054819D02*
X53190476Y-48007200D01*
X53190476Y-48007200D02*
X53238095Y-47959580D01*
X53238095Y-47959580D02*
X53285714Y-47864342D01*
X53285714Y-47864342D02*
X53285714Y-47673866D01*
X53285714Y-47673866D02*
X53238095Y-47578628D01*
X53238095Y-47578628D02*
X53190476Y-47531009D01*
X53190476Y-47531009D02*
X53095238Y-47483390D01*
X15833333Y-25356330D02*
X15785714Y-25403950D01*
X15785714Y-25403950D02*
X15642857Y-25451569D01*
X15642857Y-25451569D02*
X15547619Y-25451569D01*
X15547619Y-25451569D02*
X15404762Y-25403950D01*
X15404762Y-25403950D02*
X15309524Y-25308711D01*
X15309524Y-25308711D02*
X15261905Y-25213473D01*
X15261905Y-25213473D02*
X15214286Y-25022997D01*
X15214286Y-25022997D02*
X15214286Y-24880140D01*
X15214286Y-24880140D02*
X15261905Y-24689664D01*
X15261905Y-24689664D02*
X15309524Y-24594426D01*
X15309524Y-24594426D02*
X15404762Y-24499188D01*
X15404762Y-24499188D02*
X15547619Y-24451569D01*
X15547619Y-24451569D02*
X15642857Y-24451569D01*
X15642857Y-24451569D02*
X15785714Y-24499188D01*
X15785714Y-24499188D02*
X15833333Y-24546807D01*
X16309524Y-25451569D02*
X16500000Y-25451569D01*
X16500000Y-25451569D02*
X16595238Y-25403950D01*
X16595238Y-25403950D02*
X16642857Y-25356330D01*
X16642857Y-25356330D02*
X16738095Y-25213473D01*
X16738095Y-25213473D02*
X16785714Y-25022997D01*
X16785714Y-25022997D02*
X16785714Y-24642045D01*
X16785714Y-24642045D02*
X16738095Y-24546807D01*
X16738095Y-24546807D02*
X16690476Y-24499188D01*
X16690476Y-24499188D02*
X16595238Y-24451569D01*
X16595238Y-24451569D02*
X16404762Y-24451569D01*
X16404762Y-24451569D02*
X16309524Y-24499188D01*
X16309524Y-24499188D02*
X16261905Y-24546807D01*
X16261905Y-24546807D02*
X16214286Y-24642045D01*
X16214286Y-24642045D02*
X16214286Y-24880140D01*
X16214286Y-24880140D02*
X16261905Y-24975378D01*
X16261905Y-24975378D02*
X16309524Y-25022997D01*
X16309524Y-25022997D02*
X16404762Y-25070616D01*
X16404762Y-25070616D02*
X16595238Y-25070616D01*
X16595238Y-25070616D02*
X16690476Y-25022997D01*
X16690476Y-25022997D02*
X16738095Y-24975378D01*
X16738095Y-24975378D02*
X16785714Y-24880140D01*
X68357142Y-14905980D02*
X68309523Y-14953600D01*
X68309523Y-14953600D02*
X68166666Y-15001219D01*
X68166666Y-15001219D02*
X68071428Y-15001219D01*
X68071428Y-15001219D02*
X67928571Y-14953600D01*
X67928571Y-14953600D02*
X67833333Y-14858361D01*
X67833333Y-14858361D02*
X67785714Y-14763123D01*
X67785714Y-14763123D02*
X67738095Y-14572647D01*
X67738095Y-14572647D02*
X67738095Y-14429790D01*
X67738095Y-14429790D02*
X67785714Y-14239314D01*
X67785714Y-14239314D02*
X67833333Y-14144076D01*
X67833333Y-14144076D02*
X67928571Y-14048838D01*
X67928571Y-14048838D02*
X68071428Y-14001219D01*
X68071428Y-14001219D02*
X68166666Y-14001219D01*
X68166666Y-14001219D02*
X68309523Y-14048838D01*
X68309523Y-14048838D02*
X68357142Y-14096457D01*
X69309523Y-15001219D02*
X68738095Y-15001219D01*
X69023809Y-15001219D02*
X69023809Y-14001219D01*
X69023809Y-14001219D02*
X68928571Y-14144076D01*
X68928571Y-14144076D02*
X68833333Y-14239314D01*
X68833333Y-14239314D02*
X68738095Y-14286933D01*
X70214285Y-14001219D02*
X69738095Y-14001219D01*
X69738095Y-14001219D02*
X69690476Y-14477409D01*
X69690476Y-14477409D02*
X69738095Y-14429790D01*
X69738095Y-14429790D02*
X69833333Y-14382171D01*
X69833333Y-14382171D02*
X70071428Y-14382171D01*
X70071428Y-14382171D02*
X70166666Y-14429790D01*
X70166666Y-14429790D02*
X70214285Y-14477409D01*
X70214285Y-14477409D02*
X70261904Y-14572647D01*
X70261904Y-14572647D02*
X70261904Y-14810742D01*
X70261904Y-14810742D02*
X70214285Y-14905980D01*
X70214285Y-14905980D02*
X70166666Y-14953600D01*
X70166666Y-14953600D02*
X70071428Y-15001219D01*
X70071428Y-15001219D02*
X69833333Y-15001219D01*
X69833333Y-15001219D02*
X69738095Y-14953600D01*
X69738095Y-14953600D02*
X69690476Y-14905980D01*
X29318095Y-53281569D02*
X29889523Y-53281569D01*
X29603809Y-54281569D02*
X29603809Y-53281569D01*
X30222857Y-54281569D02*
X30222857Y-53281569D01*
X30222857Y-53281569D02*
X30603809Y-53281569D01*
X30603809Y-53281569D02*
X30699047Y-53329188D01*
X30699047Y-53329188D02*
X30746666Y-53376807D01*
X30746666Y-53376807D02*
X30794285Y-53472045D01*
X30794285Y-53472045D02*
X30794285Y-53614902D01*
X30794285Y-53614902D02*
X30746666Y-53710140D01*
X30746666Y-53710140D02*
X30699047Y-53757759D01*
X30699047Y-53757759D02*
X30603809Y-53805378D01*
X30603809Y-53805378D02*
X30222857Y-53805378D01*
X31127619Y-53281569D02*
X31746666Y-53281569D01*
X31746666Y-53281569D02*
X31413333Y-53662521D01*
X31413333Y-53662521D02*
X31556190Y-53662521D01*
X31556190Y-53662521D02*
X31651428Y-53710140D01*
X31651428Y-53710140D02*
X31699047Y-53757759D01*
X31699047Y-53757759D02*
X31746666Y-53852997D01*
X31746666Y-53852997D02*
X31746666Y-54091092D01*
X31746666Y-54091092D02*
X31699047Y-54186330D01*
X31699047Y-54186330D02*
X31651428Y-54233950D01*
X31651428Y-54233950D02*
X31556190Y-54281569D01*
X31556190Y-54281569D02*
X31270476Y-54281569D01*
X31270476Y-54281569D02*
X31175238Y-54233950D01*
X31175238Y-54233950D02*
X31127619Y-54186330D01*
X81331666Y-34521219D02*
X81331666Y-35235504D01*
X81331666Y-35235504D02*
X81284047Y-35378361D01*
X81284047Y-35378361D02*
X81188809Y-35473600D01*
X81188809Y-35473600D02*
X81045952Y-35521219D01*
X81045952Y-35521219D02*
X80950714Y-35521219D01*
X81760238Y-34616457D02*
X81807857Y-34568838D01*
X81807857Y-34568838D02*
X81903095Y-34521219D01*
X81903095Y-34521219D02*
X82141190Y-34521219D01*
X82141190Y-34521219D02*
X82236428Y-34568838D01*
X82236428Y-34568838D02*
X82284047Y-34616457D01*
X82284047Y-34616457D02*
X82331666Y-34711695D01*
X82331666Y-34711695D02*
X82331666Y-34806933D01*
X82331666Y-34806933D02*
X82284047Y-34949790D01*
X82284047Y-34949790D02*
X81712619Y-35521219D01*
X81712619Y-35521219D02*
X82331666Y-35521219D01*
X52738095Y-43808419D02*
X52738095Y-44617942D01*
X52738095Y-44617942D02*
X52785714Y-44713180D01*
X52785714Y-44713180D02*
X52833333Y-44760800D01*
X52833333Y-44760800D02*
X52928571Y-44808419D01*
X52928571Y-44808419D02*
X53119047Y-44808419D01*
X53119047Y-44808419D02*
X53214285Y-44760800D01*
X53214285Y-44760800D02*
X53261904Y-44713180D01*
X53261904Y-44713180D02*
X53309523Y-44617942D01*
X53309523Y-44617942D02*
X53309523Y-43808419D01*
X54214285Y-44141752D02*
X54214285Y-44808419D01*
X53976190Y-43760800D02*
X53738095Y-44475085D01*
X53738095Y-44475085D02*
X54357142Y-44475085D01*
X55333333Y-22948069D02*
X55000000Y-22471878D01*
X54761905Y-22948069D02*
X54761905Y-21948069D01*
X54761905Y-21948069D02*
X55142857Y-21948069D01*
X55142857Y-21948069D02*
X55238095Y-21995688D01*
X55238095Y-21995688D02*
X55285714Y-22043307D01*
X55285714Y-22043307D02*
X55333333Y-22138545D01*
X55333333Y-22138545D02*
X55333333Y-22281402D01*
X55333333Y-22281402D02*
X55285714Y-22376640D01*
X55285714Y-22376640D02*
X55238095Y-22424259D01*
X55238095Y-22424259D02*
X55142857Y-22471878D01*
X55142857Y-22471878D02*
X54761905Y-22471878D01*
X56238095Y-21948069D02*
X55761905Y-21948069D01*
X55761905Y-21948069D02*
X55714286Y-22424259D01*
X55714286Y-22424259D02*
X55761905Y-22376640D01*
X55761905Y-22376640D02*
X55857143Y-22329021D01*
X55857143Y-22329021D02*
X56095238Y-22329021D01*
X56095238Y-22329021D02*
X56190476Y-22376640D01*
X56190476Y-22376640D02*
X56238095Y-22424259D01*
X56238095Y-22424259D02*
X56285714Y-22519497D01*
X56285714Y-22519497D02*
X56285714Y-22757592D01*
X56285714Y-22757592D02*
X56238095Y-22852830D01*
X56238095Y-22852830D02*
X56190476Y-22900450D01*
X56190476Y-22900450D02*
X56095238Y-22948069D01*
X56095238Y-22948069D02*
X55857143Y-22948069D01*
X55857143Y-22948069D02*
X55761905Y-22900450D01*
X55761905Y-22900450D02*
X55714286Y-22852830D01*
X72675980Y-52666667D02*
X72723600Y-52714286D01*
X72723600Y-52714286D02*
X72771219Y-52857143D01*
X72771219Y-52857143D02*
X72771219Y-52952381D01*
X72771219Y-52952381D02*
X72723600Y-53095238D01*
X72723600Y-53095238D02*
X72628361Y-53190476D01*
X72628361Y-53190476D02*
X72533123Y-53238095D01*
X72533123Y-53238095D02*
X72342647Y-53285714D01*
X72342647Y-53285714D02*
X72199790Y-53285714D01*
X72199790Y-53285714D02*
X72009314Y-53238095D01*
X72009314Y-53238095D02*
X71914076Y-53190476D01*
X71914076Y-53190476D02*
X71818838Y-53095238D01*
X71818838Y-53095238D02*
X71771219Y-52952381D01*
X71771219Y-52952381D02*
X71771219Y-52857143D01*
X71771219Y-52857143D02*
X71818838Y-52714286D01*
X71818838Y-52714286D02*
X71866457Y-52666667D01*
X72199790Y-52095238D02*
X72152171Y-52190476D01*
X72152171Y-52190476D02*
X72104552Y-52238095D01*
X72104552Y-52238095D02*
X72009314Y-52285714D01*
X72009314Y-52285714D02*
X71961695Y-52285714D01*
X71961695Y-52285714D02*
X71866457Y-52238095D01*
X71866457Y-52238095D02*
X71818838Y-52190476D01*
X71818838Y-52190476D02*
X71771219Y-52095238D01*
X71771219Y-52095238D02*
X71771219Y-51904762D01*
X71771219Y-51904762D02*
X71818838Y-51809524D01*
X71818838Y-51809524D02*
X71866457Y-51761905D01*
X71866457Y-51761905D02*
X71961695Y-51714286D01*
X71961695Y-51714286D02*
X72009314Y-51714286D01*
X72009314Y-51714286D02*
X72104552Y-51761905D01*
X72104552Y-51761905D02*
X72152171Y-51809524D01*
X72152171Y-51809524D02*
X72199790Y-51904762D01*
X72199790Y-51904762D02*
X72199790Y-52095238D01*
X72199790Y-52095238D02*
X72247409Y-52190476D01*
X72247409Y-52190476D02*
X72295028Y-52238095D01*
X72295028Y-52238095D02*
X72390266Y-52285714D01*
X72390266Y-52285714D02*
X72580742Y-52285714D01*
X72580742Y-52285714D02*
X72675980Y-52238095D01*
X72675980Y-52238095D02*
X72723600Y-52190476D01*
X72723600Y-52190476D02*
X72771219Y-52095238D01*
X72771219Y-52095238D02*
X72771219Y-51904762D01*
X72771219Y-51904762D02*
X72723600Y-51809524D01*
X72723600Y-51809524D02*
X72675980Y-51761905D01*
X72675980Y-51761905D02*
X72580742Y-51714286D01*
X72580742Y-51714286D02*
X72390266Y-51714286D01*
X72390266Y-51714286D02*
X72295028Y-51761905D01*
X72295028Y-51761905D02*
X72247409Y-51809524D01*
X72247409Y-51809524D02*
X72199790Y-51904762D01*
X68607142Y-47961569D02*
X68273809Y-47485378D01*
X68035714Y-47961569D02*
X68035714Y-46961569D01*
X68035714Y-46961569D02*
X68416666Y-46961569D01*
X68416666Y-46961569D02*
X68511904Y-47009188D01*
X68511904Y-47009188D02*
X68559523Y-47056807D01*
X68559523Y-47056807D02*
X68607142Y-47152045D01*
X68607142Y-47152045D02*
X68607142Y-47294902D01*
X68607142Y-47294902D02*
X68559523Y-47390140D01*
X68559523Y-47390140D02*
X68511904Y-47437759D01*
X68511904Y-47437759D02*
X68416666Y-47485378D01*
X68416666Y-47485378D02*
X68035714Y-47485378D01*
X69559523Y-47961569D02*
X68988095Y-47961569D01*
X69273809Y-47961569D02*
X69273809Y-46961569D01*
X69273809Y-46961569D02*
X69178571Y-47104426D01*
X69178571Y-47104426D02*
X69083333Y-47199664D01*
X69083333Y-47199664D02*
X68988095Y-47247283D01*
X69940476Y-47056807D02*
X69988095Y-47009188D01*
X69988095Y-47009188D02*
X70083333Y-46961569D01*
X70083333Y-46961569D02*
X70321428Y-46961569D01*
X70321428Y-46961569D02*
X70416666Y-47009188D01*
X70416666Y-47009188D02*
X70464285Y-47056807D01*
X70464285Y-47056807D02*
X70511904Y-47152045D01*
X70511904Y-47152045D02*
X70511904Y-47247283D01*
X70511904Y-47247283D02*
X70464285Y-47390140D01*
X70464285Y-47390140D02*
X69892857Y-47961569D01*
X69892857Y-47961569D02*
X70511904Y-47961569D01*
X62333333Y-15854819D02*
X61857143Y-15854819D01*
X61857143Y-15854819D02*
X61857143Y-14854819D01*
X63190476Y-15854819D02*
X62619048Y-15854819D01*
X62904762Y-15854819D02*
X62904762Y-14854819D01*
X62904762Y-14854819D02*
X62809524Y-14997676D01*
X62809524Y-14997676D02*
X62714286Y-15092914D01*
X62714286Y-15092914D02*
X62619048Y-15140533D01*
X73357142Y-7905980D02*
X73309523Y-7953600D01*
X73309523Y-7953600D02*
X73166666Y-8001219D01*
X73166666Y-8001219D02*
X73071428Y-8001219D01*
X73071428Y-8001219D02*
X72928571Y-7953600D01*
X72928571Y-7953600D02*
X72833333Y-7858361D01*
X72833333Y-7858361D02*
X72785714Y-7763123D01*
X72785714Y-7763123D02*
X72738095Y-7572647D01*
X72738095Y-7572647D02*
X72738095Y-7429790D01*
X72738095Y-7429790D02*
X72785714Y-7239314D01*
X72785714Y-7239314D02*
X72833333Y-7144076D01*
X72833333Y-7144076D02*
X72928571Y-7048838D01*
X72928571Y-7048838D02*
X73071428Y-7001219D01*
X73071428Y-7001219D02*
X73166666Y-7001219D01*
X73166666Y-7001219D02*
X73309523Y-7048838D01*
X73309523Y-7048838D02*
X73357142Y-7096457D01*
X74309523Y-8001219D02*
X73738095Y-8001219D01*
X74023809Y-8001219D02*
X74023809Y-7001219D01*
X74023809Y-7001219D02*
X73928571Y-7144076D01*
X73928571Y-7144076D02*
X73833333Y-7239314D01*
X73833333Y-7239314D02*
X73738095Y-7286933D01*
X75166666Y-7334552D02*
X75166666Y-8001219D01*
X74928571Y-6953600D02*
X74690476Y-7667885D01*
X74690476Y-7667885D02*
X75309523Y-7667885D01*
X33898095Y-53451219D02*
X34469523Y-53451219D01*
X34183809Y-54451219D02*
X34183809Y-53451219D01*
X34802857Y-54451219D02*
X34802857Y-53451219D01*
X34802857Y-53451219D02*
X35183809Y-53451219D01*
X35183809Y-53451219D02*
X35279047Y-53498838D01*
X35279047Y-53498838D02*
X35326666Y-53546457D01*
X35326666Y-53546457D02*
X35374285Y-53641695D01*
X35374285Y-53641695D02*
X35374285Y-53784552D01*
X35374285Y-53784552D02*
X35326666Y-53879790D01*
X35326666Y-53879790D02*
X35279047Y-53927409D01*
X35279047Y-53927409D02*
X35183809Y-53975028D01*
X35183809Y-53975028D02*
X34802857Y-53975028D01*
X36279047Y-53451219D02*
X35802857Y-53451219D01*
X35802857Y-53451219D02*
X35755238Y-53927409D01*
X35755238Y-53927409D02*
X35802857Y-53879790D01*
X35802857Y-53879790D02*
X35898095Y-53832171D01*
X35898095Y-53832171D02*
X36136190Y-53832171D01*
X36136190Y-53832171D02*
X36231428Y-53879790D01*
X36231428Y-53879790D02*
X36279047Y-53927409D01*
X36279047Y-53927409D02*
X36326666Y-54022647D01*
X36326666Y-54022647D02*
X36326666Y-54260742D01*
X36326666Y-54260742D02*
X36279047Y-54355980D01*
X36279047Y-54355980D02*
X36231428Y-54403600D01*
X36231428Y-54403600D02*
X36136190Y-54451219D01*
X36136190Y-54451219D02*
X35898095Y-54451219D01*
X35898095Y-54451219D02*
X35802857Y-54403600D01*
X35802857Y-54403600D02*
X35755238Y-54355980D01*
X31358095Y-51431569D02*
X31929523Y-51431569D01*
X31643809Y-52431569D02*
X31643809Y-51431569D01*
X32262857Y-52431569D02*
X32262857Y-51431569D01*
X32262857Y-51431569D02*
X32643809Y-51431569D01*
X32643809Y-51431569D02*
X32739047Y-51479188D01*
X32739047Y-51479188D02*
X32786666Y-51526807D01*
X32786666Y-51526807D02*
X32834285Y-51622045D01*
X32834285Y-51622045D02*
X32834285Y-51764902D01*
X32834285Y-51764902D02*
X32786666Y-51860140D01*
X32786666Y-51860140D02*
X32739047Y-51907759D01*
X32739047Y-51907759D02*
X32643809Y-51955378D01*
X32643809Y-51955378D02*
X32262857Y-51955378D01*
X33691428Y-51764902D02*
X33691428Y-52431569D01*
X33453333Y-51383950D02*
X33215238Y-52098235D01*
X33215238Y-52098235D02*
X33834285Y-52098235D01*
D11*
%TO.C,R6*%
X47846359Y-18120000D02*
X48153641Y-18120000D01*
X47846359Y-18880000D02*
X48153641Y-18880000D01*
%TO.C,C12*%
X48288748Y-40640000D02*
X49711252Y-40640000D01*
X48288748Y-43360000D02*
X49711252Y-43360000D01*
%TO.C,R7*%
X49846359Y-46620000D02*
X50153641Y-46620000D01*
X49846359Y-47380000D02*
X50153641Y-47380000D01*
%TO.C,C21*%
X51840000Y-42140580D02*
X51840000Y-41859420D01*
X52860000Y-42140580D02*
X52860000Y-41859420D01*
%TO.C,C1*%
X19892164Y-25640000D02*
X20107836Y-25640000D01*
X19892164Y-26360000D02*
X20107836Y-26360000D01*
%TO.C,C4*%
X57440000Y-13922164D02*
X57440000Y-14137836D01*
X58160000Y-13922164D02*
X58160000Y-14137836D01*
%TO.C,C16*%
X73288748Y-15640000D02*
X74711252Y-15640000D01*
X73288748Y-18360000D02*
X74711252Y-18360000D01*
%TO.C,C6*%
X57440000Y-41922164D02*
X57440000Y-42137836D01*
X58160000Y-41922164D02*
X58160000Y-42137836D01*
%TO.C,R10*%
X57846359Y-46620000D02*
X58153641Y-46620000D01*
X57846359Y-47380000D02*
X58153641Y-47380000D01*
%TO.C,C7*%
X74259420Y-49490000D02*
X74540580Y-49490000D01*
X74259420Y-50510000D02*
X74540580Y-50510000D01*
%TO.C,C10*%
X33288748Y-24640000D02*
X34711252Y-24640000D01*
X33288748Y-27360000D02*
X34711252Y-27360000D01*
%TO.C,R3*%
X50346359Y-18620000D02*
X50653641Y-18620000D01*
X50346359Y-19380000D02*
X50653641Y-19380000D01*
%TO.C,C17*%
X73288748Y-36640000D02*
X74711252Y-36640000D01*
X73288748Y-39360000D02*
X74711252Y-39360000D01*
%TO.C,U1*%
X18520000Y-28920000D02*
X18320000Y-28720000D01*
X18720000Y-28720000D01*
X18520000Y-28920000D01*
G36*
X18520000Y-28920000D02*
G01*
X18320000Y-28720000D01*
X18720000Y-28720000D01*
X18520000Y-28920000D01*
G37*
%TO.C,C20*%
X51840000Y-14140580D02*
X51840000Y-13859420D01*
X52860000Y-14140580D02*
X52860000Y-13859420D01*
%TO.C,J1*%
X6000000Y-32700000D02*
X5250000Y-31950000D01*
X6750000Y-31950000D01*
X6000000Y-32700000D01*
%TO.C,R2*%
X58346359Y-18620000D02*
X58653641Y-18620000D01*
X58346359Y-19380000D02*
X58653641Y-19380000D01*
%TO.C,C13*%
X42562500Y-30152500D02*
X43350000Y-30152500D01*
X42956250Y-29758750D02*
X42956250Y-30546250D01*
X43590000Y-29654437D02*
X43590000Y-30940000D01*
X43590000Y-29654437D02*
X44654437Y-28590000D01*
X43590000Y-34345563D02*
X43590000Y-33060000D01*
X43590000Y-34345563D02*
X44654437Y-35410000D01*
X44654437Y-28590000D02*
X50410000Y-28590000D01*
X44654437Y-35410000D02*
X50410000Y-35410000D01*
X50410000Y-28590000D02*
X50410000Y-30940000D01*
X50410000Y-35410000D02*
X50410000Y-33060000D01*
%TO.C,R11*%
X65846359Y-48620000D02*
X66153641Y-48620000D01*
X65846359Y-49380000D02*
X66153641Y-49380000D01*
%TO.C,Q1*%
X23880000Y-27380000D02*
X30120000Y-27380000D01*
X23880000Y-32620000D02*
X29450000Y-32620000D01*
X30120000Y-32620000D02*
X29620000Y-32620000D01*
X30120000Y-32120000D01*
X30120000Y-32620000D01*
G36*
X30120000Y-32620000D02*
G01*
X29620000Y-32620000D01*
X30120000Y-32120000D01*
X30120000Y-32620000D01*
G37*
%TO.C,RSH1*%
X33300000Y-29550000D02*
X32700000Y-29550000D01*
X33000000Y-29250000D01*
X33300000Y-29550000D01*
G36*
X33300000Y-29550000D02*
G01*
X32700000Y-29550000D01*
X33000000Y-29250000D01*
X33300000Y-29550000D01*
G37*
%TO.C,C18*%
X68288748Y-43640000D02*
X69711252Y-43640000D01*
X68288748Y-46360000D02*
X69711252Y-46360000D01*
%TO.C,R13*%
X74446359Y-56120000D02*
X74753641Y-56120000D01*
X74446359Y-56880000D02*
X74753641Y-56880000D01*
%TO.C,U3*%
X53520000Y-14900000D02*
X53520000Y-14720000D01*
X53620000Y-15000000D02*
X53520000Y-14900000D01*
%TO.C,R4*%
X52846359Y-20620000D02*
X53153641Y-20620000D01*
X52846359Y-21380000D02*
X53153641Y-21380000D01*
D10*
%TO.C,L2*%
X59200000Y-45900000D02*
X58600000Y-45900000D01*
X58600000Y-45300000D01*
X59200000Y-45900000D01*
D11*
%TO.C,R14*%
X74446359Y-57620000D02*
X74753641Y-57620000D01*
X74446359Y-58380000D02*
X74753641Y-58380000D01*
%TO.C,R9*%
X54846359Y-48620000D02*
X55153641Y-48620000D01*
X54846359Y-49380000D02*
X55153641Y-49380000D01*
%TO.C,U2*%
X41700000Y-21820000D02*
X41500000Y-21620000D01*
X41900000Y-21620000D01*
X41700000Y-21820000D01*
G36*
X41700000Y-21820000D02*
G01*
X41500000Y-21620000D01*
X41900000Y-21620000D01*
X41700000Y-21820000D01*
G37*
%TO.C,C5*%
X68288748Y-36640000D02*
X69711252Y-36640000D01*
X68288748Y-39360000D02*
X69711252Y-39360000D01*
%TO.C,F1*%
X12397936Y-28090000D02*
X13602064Y-28090000D01*
X12397936Y-29910000D02*
X13602064Y-29910000D01*
%TO.C,C3*%
X68288748Y-8640000D02*
X69711252Y-8640000D01*
X68288748Y-11360000D02*
X69711252Y-11360000D01*
%TO.C,C2*%
X48392164Y-21640000D02*
X48607836Y-21640000D01*
X48392164Y-22360000D02*
X48607836Y-22360000D01*
%TO.C,R15*%
X60846359Y-20120000D02*
X61153641Y-20120000D01*
X60846359Y-20880000D02*
X61153641Y-20880000D01*
%TO.C,D1*%
X12350000Y-37660000D02*
X12350000Y-31850000D01*
X12350000Y-37660000D02*
X16650000Y-37660000D01*
X16650000Y-37660000D02*
X16650000Y-31850000D01*
%TO.C,C19*%
X73288748Y-40890000D02*
X74711252Y-40890000D01*
X73288748Y-43610000D02*
X74711252Y-43610000D01*
%TO.C,C11*%
X48288748Y-12640000D02*
X49711252Y-12640000D01*
X48288748Y-15360000D02*
X49711252Y-15360000D01*
%TO.C,R1*%
X55846359Y-18620000D02*
X56153641Y-18620000D01*
X55846359Y-19380000D02*
X56153641Y-19380000D01*
%TO.C,R8*%
X52346359Y-48620000D02*
X52653641Y-48620000D01*
X52346359Y-49380000D02*
X52653641Y-49380000D01*
%TO.C,C9*%
X15859420Y-26240000D02*
X16140580Y-26240000D01*
X15859420Y-27260000D02*
X16140580Y-27260000D01*
%TO.C,C15*%
X68288748Y-15640000D02*
X69711252Y-15640000D01*
X68288748Y-18360000D02*
X69711252Y-18360000D01*
%TO.C,U4*%
X53520000Y-42900000D02*
X53520000Y-42720000D01*
X53620000Y-43000000D02*
X53520000Y-42900000D01*
%TO.C,R5*%
X55346359Y-20620000D02*
X55653641Y-20620000D01*
X55346359Y-21380000D02*
X55653641Y-21380000D01*
%TO.C,C8*%
X74759420Y-53490000D02*
X75040580Y-53490000D01*
X74759420Y-54510000D02*
X75040580Y-54510000D01*
%TO.C,R12*%
X68346359Y-48620000D02*
X68653641Y-48620000D01*
X68346359Y-49380000D02*
X68653641Y-49380000D01*
D10*
%TO.C,L1*%
X59200000Y-17900000D02*
X58600000Y-17900000D01*
X58600000Y-17300000D01*
X59200000Y-17900000D01*
D11*
%TO.C,C14*%
X73288748Y-8640000D02*
X74711252Y-8640000D01*
X73288748Y-11360000D02*
X74711252Y-11360000D01*
%TO.C,U5*%
X72920000Y-44920000D02*
X72720000Y-44720000D01*
X73120000Y-44720000D01*
X72920000Y-44920000D01*
G36*
X72920000Y-44920000D02*
G01*
X72720000Y-44720000D01*
X73120000Y-44720000D01*
X72920000Y-44920000D01*
G37*
%TD*%
%LPC*%
D12*
%TO.C,R6*%
X47490000Y-18500000D03*
X48510000Y-18500000D03*
%TD*%
D13*
%TO.C,C12*%
X47525000Y-42000000D03*
X50475000Y-42000000D03*
%TD*%
D12*
%TO.C,R7*%
X49490000Y-47000000D03*
X50510000Y-47000000D03*
%TD*%
D14*
%TO.C,C21*%
X52350000Y-42775000D03*
X52350000Y-41225000D03*
%TD*%
D15*
%TO.C,C1*%
X19520000Y-26000000D03*
X20480000Y-26000000D03*
%TD*%
D16*
%TO.C,C4*%
X57800000Y-13550000D03*
X57800000Y-14510000D03*
%TD*%
D17*
%TO.C,TP7*%
X40240000Y-56000000D03*
%TD*%
D18*
%TO.C,H3*%
X68000000Y-55000000D03*
%TD*%
D13*
%TO.C,C16*%
X72525000Y-17000000D03*
X75475000Y-17000000D03*
%TD*%
D16*
%TO.C,C6*%
X57800000Y-41550000D03*
X57800000Y-42510000D03*
%TD*%
D12*
%TO.C,R10*%
X57490000Y-47000000D03*
X58510000Y-47000000D03*
%TD*%
D19*
%TO.C,C7*%
X73625000Y-50000000D03*
X75175000Y-50000000D03*
%TD*%
D13*
%TO.C,C10*%
X32525000Y-26000000D03*
X35475000Y-26000000D03*
%TD*%
D18*
%TO.C,H2*%
X82000000Y-5000000D03*
%TD*%
D12*
%TO.C,R3*%
X49990000Y-19000000D03*
X51010000Y-19000000D03*
%TD*%
D13*
%TO.C,C17*%
X72525000Y-38000000D03*
X75475000Y-38000000D03*
%TD*%
D20*
%TO.C,U1*%
X18700000Y-29050000D03*
X18700000Y-30000000D03*
X18700000Y-30950000D03*
X21300000Y-30950000D03*
X21300000Y-30000000D03*
X21300000Y-29050000D03*
%TD*%
D14*
%TO.C,C20*%
X52350000Y-14775000D03*
X52350000Y-13225000D03*
%TD*%
D17*
%TO.C,TP6*%
X37700000Y-56000000D03*
%TD*%
D21*
%TO.C,J1*%
X3000000Y-28000000D03*
X9000000Y-28000000D03*
D22*
X6000000Y-31000000D03*
D23*
X6000000Y-28000000D03*
%TD*%
D18*
%TO.C,H4*%
X5000000Y-55000000D03*
%TD*%
D12*
%TO.C,R2*%
X57990000Y-19000000D03*
X59010000Y-19000000D03*
%TD*%
D24*
%TO.C,C13*%
X44300000Y-32000000D03*
X49700000Y-32000000D03*
%TD*%
D17*
%TO.C,TP9*%
X45320000Y-56000000D03*
%TD*%
%TO.C,TP8*%
X42780000Y-56000000D03*
%TD*%
D12*
%TO.C,R11*%
X65490000Y-49000000D03*
X66510000Y-49000000D03*
%TD*%
D25*
%TO.C,Q1*%
X29770000Y-31905000D03*
X29770000Y-30635000D03*
X29770000Y-29365000D03*
X29770000Y-28095000D03*
D26*
X25764000Y-28095000D03*
D27*
X26059000Y-28730000D03*
X26059000Y-30000000D03*
X26059000Y-31270000D03*
D26*
X25764000Y-29365000D03*
X25764000Y-30635000D03*
X25764000Y-31905000D03*
%TD*%
D17*
%TO.C,TP2*%
X27540000Y-56000000D03*
%TD*%
D28*
%TO.C,RSH1*%
X33515000Y-30365000D03*
X39485000Y-31635000D03*
D29*
X33220000Y-32270000D03*
X39780000Y-29730000D03*
%TD*%
D13*
%TO.C,C18*%
X67525000Y-45000000D03*
X70475000Y-45000000D03*
%TD*%
D12*
%TO.C,R13*%
X74090000Y-56500000D03*
X75110000Y-56500000D03*
%TD*%
D30*
%TO.C,U3*%
X55000000Y-14000000D03*
D31*
X54072500Y-14900000D03*
D32*
X53897500Y-14725000D03*
D31*
X55927500Y-14900000D03*
D32*
X56102500Y-14725000D03*
D33*
X56125000Y-14075000D03*
D34*
X56175000Y-13300000D03*
D35*
X56000000Y-13100000D03*
D36*
X55525000Y-13125000D03*
X54475000Y-13125000D03*
D34*
X53825000Y-13300000D03*
D35*
X54000000Y-13100000D03*
D33*
X53875000Y-14075000D03*
%TD*%
D18*
%TO.C,H1*%
X5000000Y-5000000D03*
%TD*%
D12*
%TO.C,R4*%
X52490000Y-21000000D03*
X53510000Y-21000000D03*
%TD*%
D37*
%TO.C,L2*%
X60240000Y-42000000D03*
X64760000Y-42000000D03*
%TD*%
D12*
%TO.C,R14*%
X74090000Y-58000000D03*
X75110000Y-58000000D03*
%TD*%
%TO.C,R9*%
X54490000Y-49000000D03*
X55510000Y-49000000D03*
%TD*%
D38*
%TO.C,U2*%
X41800000Y-22000000D03*
X41800000Y-22500000D03*
X41800000Y-23000000D03*
X41800000Y-23500000D03*
X41800000Y-24000000D03*
X46200000Y-24000000D03*
X46200000Y-23500000D03*
X46200000Y-23000000D03*
X46200000Y-22500000D03*
X46200000Y-22000000D03*
%TD*%
D13*
%TO.C,C5*%
X67525000Y-38000000D03*
X70475000Y-38000000D03*
%TD*%
D39*
%TO.C,F1*%
X11600000Y-29000000D03*
X14400000Y-29000000D03*
%TD*%
D13*
%TO.C,C3*%
X67525000Y-10000000D03*
X70475000Y-10000000D03*
%TD*%
D15*
%TO.C,C2*%
X48020000Y-22000000D03*
X48980000Y-22000000D03*
%TD*%
D12*
%TO.C,R15*%
X60490000Y-20500000D03*
X61510000Y-20500000D03*
%TD*%
D40*
%TO.C,D1*%
X14500000Y-36150000D03*
X14500000Y-31850000D03*
%TD*%
D13*
%TO.C,C19*%
X72525000Y-42250000D03*
X75475000Y-42250000D03*
%TD*%
%TO.C,C11*%
X47525000Y-14000000D03*
X50475000Y-14000000D03*
%TD*%
D17*
%TO.C,TP1*%
X25000000Y-56000000D03*
%TD*%
D12*
%TO.C,R1*%
X55490000Y-19000000D03*
X56510000Y-19000000D03*
%TD*%
D17*
%TO.C,TP10*%
X47860000Y-56000000D03*
%TD*%
D12*
%TO.C,R8*%
X51990000Y-49000000D03*
X53010000Y-49000000D03*
%TD*%
D19*
%TO.C,C9*%
X15225000Y-26750000D03*
X16775000Y-26750000D03*
%TD*%
D13*
%TO.C,C15*%
X67525000Y-17000000D03*
X70475000Y-17000000D03*
%TD*%
D17*
%TO.C,TP3*%
X30080000Y-56000000D03*
%TD*%
D41*
%TO.C,J2*%
X85400000Y-42150000D03*
X85400000Y-52850000D03*
D42*
X81080000Y-40000000D03*
D23*
X81080000Y-43000000D03*
X81080000Y-46000000D03*
X81080000Y-49000000D03*
X81080000Y-52000000D03*
X81080000Y-55000000D03*
X78080000Y-40000000D03*
X78080000Y-43000000D03*
X78080000Y-46000000D03*
X78080000Y-49000000D03*
X78080000Y-52000000D03*
X78080000Y-55000000D03*
%TD*%
D30*
%TO.C,U4*%
X55000000Y-42000000D03*
D31*
X54072500Y-42900000D03*
D32*
X53897500Y-42725000D03*
D31*
X55927500Y-42900000D03*
D32*
X56102500Y-42725000D03*
D33*
X56125000Y-42075000D03*
D34*
X56175000Y-41300000D03*
D35*
X56000000Y-41100000D03*
D36*
X55525000Y-41125000D03*
X54475000Y-41125000D03*
D34*
X53825000Y-41300000D03*
D35*
X54000000Y-41100000D03*
D33*
X53875000Y-42075000D03*
%TD*%
D12*
%TO.C,R5*%
X54990000Y-21000000D03*
X56010000Y-21000000D03*
%TD*%
D19*
%TO.C,C8*%
X74125000Y-54000000D03*
X75675000Y-54000000D03*
%TD*%
D12*
%TO.C,R12*%
X67990000Y-49000000D03*
X69010000Y-49000000D03*
%TD*%
D37*
%TO.C,L1*%
X60240000Y-14000000D03*
X64760000Y-14000000D03*
%TD*%
D13*
%TO.C,C14*%
X72525000Y-10000000D03*
X75475000Y-10000000D03*
%TD*%
D20*
%TO.C,U5*%
X73100000Y-45050000D03*
X73100000Y-46000000D03*
X73100000Y-46950000D03*
X75700000Y-46950000D03*
X75700000Y-45050000D03*
%TD*%
D17*
%TO.C,TP5*%
X35160000Y-56000000D03*
%TD*%
%TO.C,TP4*%
X32620000Y-56000000D03*
%TD*%
%LPD*%
M02*
