%TF.GenerationSoftware,KiCad,Pcbnew,9.0.9*%
%TF.CreationDate,2026-09-24T12:47:40+00:00*%
%TF.ProjectId,PCB-PWR,5043422d-5057-4522-9e6b-696361645f70,rev?*%
%TF.SameCoordinates,Original*%
%TF.FileFunction,Copper,L1,Top*%
%TF.FilePolarity,Positive*%
%FSLAX46Y46*%
G04 Gerber Fmt 4.6, Leading zero omitted, Abs format (unit mm)*
G04 Created by KiCad (PCBNEW 9.0.9) date 2026-09-24 12:47:40*
%MOMM*%
%LPD*%
G01*
G04 APERTURE LIST*
G04 Aperture macros list*
%AMRoundRect*
0 Rectangle with rounded corners*
0 $1 Rounding radius*
0 $2 $3 $4 $5 $6 $7 $8 $9 X,Y pos of 4 corners*
0 Add a 4 corners polygon primitive as box body*
4,1,4,$2,$3,$4,$5,$6,$7,$8,$9,$2,$3,0*
0 Add four circle primitives for the rounded corners*
1,1,$1+$1,$2,$3*
1,1,$1+$1,$4,$5*
1,1,$1+$1,$6,$7*
1,1,$1+$1,$8,$9*
0 Add four rect primitives between the rounded corners*
20,1,$1+$1,$2,$3,$4,$5,0*
20,1,$1+$1,$4,$5,$6,$7,0*
20,1,$1+$1,$6,$7,$8,$9,0*
20,1,$1+$1,$8,$9,$2,$3,0*%
G04 Aperture macros list end*
%TA.AperFunction,EtchedComponent*%
%ADD10C,0.000000*%
%TD*%
%TA.AperFunction,SMDPad,CuDef*%
%ADD11RoundRect,0.135000X-0.135000X-0.185000X0.135000X-0.185000X0.135000X0.185000X-0.135000X0.185000X0*%
%TD*%
%TA.AperFunction,SMDPad,CuDef*%
%ADD12RoundRect,0.225000X0.250000X-0.225000X0.250000X0.225000X-0.250000X0.225000X-0.250000X-0.225000X0*%
%TD*%
%TA.AperFunction,SMDPad,CuDef*%
%ADD13RoundRect,0.250000X-0.325000X-1.100000X0.325000X-1.100000X0.325000X1.100000X-0.325000X1.100000X0*%
%TD*%
%TA.AperFunction,SMDPad,CuDef*%
%ADD14RoundRect,0.140000X-0.140000X-0.170000X0.140000X-0.170000X0.140000X0.170000X-0.140000X0.170000X0*%
%TD*%
%TA.AperFunction,SMDPad,CuDef*%
%ADD15RoundRect,0.140000X-0.170000X0.140000X-0.170000X-0.140000X0.170000X-0.140000X0.170000X0.140000X0*%
%TD*%
%TA.AperFunction,SMDPad,CuDef*%
%ADD16C,1.700000*%
%TD*%
%TA.AperFunction,SMDPad,CuDef*%
%ADD17RoundRect,0.225000X-0.225000X-0.250000X0.225000X-0.250000X0.225000X0.250000X-0.225000X0.250000X0*%
%TD*%
%TA.AperFunction,SMDPad,CuDef*%
%ADD18RoundRect,0.100000X-0.450000X-0.200000X0.450000X-0.200000X0.450000X0.200000X-0.450000X0.200000X0*%
%TD*%
%TA.AperFunction,ComponentPad*%
%ADD19RoundRect,0.300000X-0.450000X-0.450000X0.450000X-0.450000X0.450000X0.450000X-0.450000X0.450000X0*%
%TD*%
%TA.AperFunction,ComponentPad*%
%ADD20C,1.500000*%
%TD*%
%TA.AperFunction,SMDPad,CuDef*%
%ADD21RoundRect,0.250000X-1.500000X-0.550000X1.500000X-0.550000X1.500000X0.550000X-1.500000X0.550000X0*%
%TD*%
%TA.AperFunction,SMDPad,CuDef*%
%ADD22C,0.500000*%
%TD*%
%TA.AperFunction,SMDPad,CuDef*%
%ADD23R,1.372000X0.710000*%
%TD*%
%TA.AperFunction,SMDPad,CuDef*%
%ADD24R,4.440000X0.710000*%
%TD*%
%TA.AperFunction,SMDPad,CuDef*%
%ADD25R,3.850000X0.560000*%
%TD*%
%TA.AperFunction,SMDPad,CuDef*%
%ADD26R,2.290000X2.030000*%
%TD*%
%TA.AperFunction,SMDPad,CuDef*%
%ADD27R,1.700000X0.760000*%
%TD*%
%TA.AperFunction,SMDPad,CuDef*%
%ADD28RoundRect,0.100000X0.072500X-0.200000X0.072500X0.200000X-0.072500X0.200000X-0.072500X-0.200000X0*%
%TD*%
%TA.AperFunction,SMDPad,CuDef*%
%ADD29RoundRect,0.100000X0.247500X-0.025000X0.247500X0.025000X-0.247500X0.025000X-0.247500X-0.025000X0*%
%TD*%
%TA.AperFunction,SMDPad,CuDef*%
%ADD30RoundRect,0.200000X0.075000X-1.050000X0.075000X1.050000X-0.075000X1.050000X-0.075000X-1.050000X0*%
%TD*%
%TA.AperFunction,SMDPad,CuDef*%
%ADD31RoundRect,0.100000X0.225000X-0.025000X0.225000X0.025000X-0.225000X0.025000X-0.225000X-0.025000X0*%
%TD*%
%TA.AperFunction,SMDPad,CuDef*%
%ADD32RoundRect,0.100000X0.175000X-0.050000X0.175000X0.050000X-0.175000X0.050000X-0.175000X-0.050000X0*%
%TD*%
%TA.AperFunction,SMDPad,CuDef*%
%ADD33RoundRect,0.100000X0.000010X-0.250000X0.000010X0.250000X-0.000010X0.250000X-0.000010X-0.250000X0*%
%TD*%
%TA.AperFunction,SMDPad,CuDef*%
%ADD34RoundRect,0.100000X0.025000X-0.225000X0.025000X0.225000X-0.025000X0.225000X-0.025000X-0.225000X0*%
%TD*%
%TA.AperFunction,SMDPad,CuDef*%
%ADD35R,1.580000X6.500000*%
%TD*%
%TA.AperFunction,SMDPad,CuDef*%
%ADD36RoundRect,0.100000X-0.625000X-0.050000X0.625000X-0.050000X0.625000X0.050000X-0.625000X0.050000X0*%
%TD*%
%TA.AperFunction,SMDPad,CuDef*%
%ADD37RoundRect,0.250000X-0.375000X-0.625000X0.375000X-0.625000X0.375000X0.625000X-0.375000X0.625000X0*%
%TD*%
%TA.AperFunction,SMDPad,CuDef*%
%ADD38RoundRect,0.250000X0.900000X-1.000000X0.900000X1.000000X-0.900000X1.000000X-0.900000X-1.000000X0*%
%TD*%
%TA.AperFunction,ComponentPad*%
%ADD39RoundRect,0.300000X-0.450000X0.450000X-0.450000X-0.450000X0.450000X-0.450000X0.450000X0.450000X0*%
%TD*%
%TA.AperFunction,ViaPad*%
%ADD40C,0.600000*%
%TD*%
%TA.AperFunction,Conductor*%
%ADD41C,0.500000*%
%TD*%
%TA.AperFunction,Conductor*%
%ADD42C,4.000000*%
%TD*%
%TA.AperFunction,Conductor*%
%ADD43C,2.100000*%
%TD*%
%TA.AperFunction,Conductor*%
%ADD44C,1.000000*%
%TD*%
%TA.AperFunction,Conductor*%
%ADD45C,2.000000*%
%TD*%
%TA.AperFunction,Conductor*%
%ADD46C,1.500000*%
%TD*%
%TA.AperFunction,Conductor*%
%ADD47C,0.250000*%
%TD*%
%TA.AperFunction,Conductor*%
%ADD48C,3.000000*%
%TD*%
%ADD49C,0.300000*%
%ADD50C,0.350000*%
G04 APERTURE END LIST*
D10*
%TA.AperFunction,EtchedComponent*%
%TO.C,NT1*%
G36*
X79500000Y-38250000D02*
G01*
X78500000Y-38250000D01*
X78500000Y-37750000D01*
X79500000Y-37750000D01*
X79500000Y-38250000D01*
G37*
%TD.AperFunction*%
%TA.AperFunction,EtchedComponent*%
%TO.C,NT2*%
G36*
X79500000Y-41250000D02*
G01*
X78500000Y-41250000D01*
X78500000Y-40750000D01*
X79500000Y-40750000D01*
X79500000Y-41250000D01*
G37*
%TD.AperFunction*%
%TA.AperFunction,EtchedComponent*%
%TO.C,NT3*%
G36*
X79500000Y-44250000D02*
G01*
X78500000Y-44250000D01*
X78500000Y-43750000D01*
X79500000Y-43750000D01*
X79500000Y-44250000D01*
G37*
%TD.AperFunction*%
%TD*%
D11*
%TO.P,R6,1*%
%TO.N,EN_MODEM*%
X47490000Y-18500000D03*
%TO.P,R6,2*%
%TO.N,GND_PWR*%
X48510000Y-18500000D03*
%TD*%
D12*
%TO.P,C20,1*%
%TO.N,VBAT_SYS*%
X52350000Y-14775000D03*
%TO.P,C20,2*%
%TO.N,GND_PWR*%
X52350000Y-13225000D03*
%TD*%
%TO.P,C21,1*%
%TO.N,VBAT_SYS*%
X52350000Y-42775000D03*
%TO.P,C21,2*%
%TO.N,GND_PWR*%
X52350000Y-41225000D03*
%TD*%
D13*
%TO.P,C12,1*%
%TO.N,VBAT_SYS*%
X47525000Y-42000000D03*
%TO.P,C12,2*%
%TO.N,GND_PWR*%
X50475000Y-42000000D03*
%TD*%
D11*
%TO.P,R7,1*%
%TO.N,RT_3V3*%
X49490000Y-47000000D03*
%TO.P,R7,2*%
%TO.N,GND_PWR*%
X50510000Y-47000000D03*
%TD*%
D14*
%TO.P,C1,1*%
%TO.N,LM74700_VCAP*%
X19520000Y-26000000D03*
%TO.P,C1,2*%
%TO.N,VBAT_FUSED*%
X20480000Y-26000000D03*
%TD*%
D15*
%TO.P,C4,1*%
%TO.N,BOOT_3V8*%
X57800000Y-13550000D03*
%TO.P,C4,2*%
%TO.N,SW_3V8*%
X57800000Y-14510000D03*
%TD*%
D16*
%TO.P,TP7,1*%
%TO.N,1V8_MIC*%
X40240000Y-56000000D03*
%TD*%
D13*
%TO.P,C16,1*%
%TO.N,3V8_MODEM*%
X72525000Y-17000000D03*
%TO.P,C16,2*%
%TO.N,GND_PWR*%
X75475000Y-17000000D03*
%TD*%
D15*
%TO.P,C6,1*%
%TO.N,BOOT_3V3*%
X57800000Y-41550000D03*
%TO.P,C6,2*%
%TO.N,SW_3V3*%
X57800000Y-42510000D03*
%TD*%
D11*
%TO.P,R10,1*%
%TO.N,3V3_DIGITAL*%
X57490000Y-47000000D03*
%TO.P,R10,2*%
%TO.N,PWR_GOOD*%
X58510000Y-47000000D03*
%TD*%
D17*
%TO.P,C7,1*%
%TO.N,3V3_DIGITAL*%
X75225000Y-50000000D03*
%TO.P,C7,2*%
%TO.N,GND_PWR*%
X76775000Y-50000000D03*
%TD*%
D13*
%TO.P,C10,1*%
%TO.N,VBAT_PROTECTED*%
X32525000Y-26000000D03*
%TO.P,C10,2*%
%TO.N,GND_PWR*%
X35475000Y-26000000D03*
%TD*%
D11*
%TO.P,R3,1*%
%TO.N,RT_3V8*%
X49990000Y-19000000D03*
%TO.P,R3,2*%
%TO.N,GND_PWR*%
X51010000Y-19000000D03*
%TD*%
D13*
%TO.P,C17,1*%
%TO.N,3V3_DIGITAL*%
X72525000Y-38000000D03*
%TO.P,C17,2*%
%TO.N,GND_PWR*%
X75475000Y-38000000D03*
%TD*%
D18*
%TO.P,U1,1*%
%TO.N,LM74700_VCAP*%
X18700000Y-29050000D03*
%TO.P,U1,2*%
%TO.N,GND_PWR*%
X18700000Y-30000000D03*
%TO.P,U1,3*%
%TO.N,VBAT_FUSED*%
X18700000Y-30950000D03*
%TO.P,U1,4*%
%TO.N,VBAT_PROTECTED*%
X21300000Y-30950000D03*
%TO.P,U1,5*%
%TO.N,REV_GATE*%
X21300000Y-30000000D03*
%TO.P,U1,6*%
%TO.N,VBAT_FUSED*%
X21300000Y-29050000D03*
%TD*%
D16*
%TO.P,TP6,1*%
%TO.N,PWR_GOOD*%
X37700000Y-56000000D03*
%TD*%
D19*
%TO.P,J1,1*%
%TO.N,VBAT_RAW*%
X6000000Y-31000000D03*
D20*
%TO.P,J1,2*%
%TO.N,GND_PWR*%
X6000000Y-28000000D03*
%TD*%
D11*
%TO.P,R2,1*%
%TO.N,FB_3V8*%
X57990000Y-19000000D03*
%TO.P,R2,2*%
%TO.N,GND_PWR*%
X59010000Y-19000000D03*
%TD*%
D21*
%TO.P,C13,1*%
%TO.N,VBAT_SYS*%
X44300000Y-32000000D03*
%TO.P,C13,2*%
%TO.N,GND_PWR*%
X49700000Y-32000000D03*
%TD*%
D16*
%TO.P,TP9,1*%
%TO.N,I2C2_SCL*%
X45320000Y-56000000D03*
%TD*%
D22*
%TO.P,NT1,1*%
%TO.N,GND_MODEM*%
X78500000Y-38000000D03*
%TO.P,NT1,2*%
%TO.N,GND_PWR*%
X79500000Y-38000000D03*
%TD*%
D16*
%TO.P,TP8,1*%
%TO.N,FAULT*%
X42780000Y-56000000D03*
%TD*%
D11*
%TO.P,R11,1*%
%TO.N,EN_AUX*%
X65490000Y-49000000D03*
%TO.P,R11,2*%
%TO.N,GND_PWR*%
X66510000Y-49000000D03*
%TD*%
D23*
%TO.P,Q1,1*%
%TO.N,VBAT_FUSED*%
X29770000Y-31905000D03*
%TO.P,Q1,2*%
X29770000Y-30635000D03*
%TO.P,Q1,3*%
X29770000Y-29365000D03*
%TO.P,Q1,4*%
%TO.N,REV_GATE*%
X29770000Y-28095000D03*
D24*
%TO.P,Q1,5*%
%TO.N,VBAT_PROTECTED*%
X25764000Y-28095000D03*
D25*
X26059000Y-28730000D03*
X26059000Y-30000000D03*
X26059000Y-31270000D03*
D24*
%TO.P,Q1,6*%
X25764000Y-29365000D03*
%TO.P,Q1,7*%
X25764000Y-30635000D03*
%TO.P,Q1,8*%
X25764000Y-31905000D03*
%TD*%
D16*
%TO.P,TP2,1*%
%TO.N,SHUNT_SOURCE_SENSE*%
X27540000Y-56000000D03*
%TD*%
D22*
%TO.P,NT2,1*%
%TO.N,GND_DIGITAL*%
X78500000Y-41000000D03*
%TO.P,NT2,2*%
%TO.N,GND_PWR*%
X79500000Y-41000000D03*
%TD*%
D26*
%TO.P,RSH1,1*%
%TO.N,VBAT_PROTECTED*%
X33515000Y-30365000D03*
%TO.P,RSH1,2*%
%TO.N,VBAT_SYS*%
X39485000Y-31635000D03*
D27*
%TO.P,RSH1,3*%
%TO.N,SHUNT_SOURCE_SENSE*%
X33220000Y-32270000D03*
%TO.P,RSH1,4*%
%TO.N,SHUNT_LOAD_SENSE*%
X39780000Y-29730000D03*
%TD*%
D13*
%TO.P,C18,1*%
%TO.N,3V3_DIGITAL*%
X67525000Y-45000000D03*
%TO.P,C18,2*%
%TO.N,GND_PWR*%
X70475000Y-45000000D03*
%TD*%
D11*
%TO.P,R13,1*%
%TO.N,3V3_DIGITAL*%
X70490000Y-51000000D03*
%TO.P,R13,2*%
%TO.N,I2C2_SCL*%
X71510000Y-51000000D03*
%TD*%
D28*
%TO.P,U3,1*%
%TO.N,VBAT_SYS*%
X54072500Y-14900000D03*
D29*
X53897500Y-14725000D03*
D30*
%TO.P,U3,2*%
%TO.N,GND_PWR*%
X55000000Y-14000000D03*
D28*
%TO.P,U3,3*%
%TO.N,SW_3V8*%
X55927500Y-14900000D03*
D29*
X56102500Y-14725000D03*
D31*
%TO.P,U3,4*%
%TO.N,BOOT_3V8*%
X56125000Y-14075000D03*
D32*
%TO.P,U3,5*%
%TO.N,PG_3V8*%
X56175000Y-13300000D03*
D33*
X56000000Y-13100000D03*
D34*
%TO.P,U3,6*%
%TO.N,FB_3V8*%
X55525000Y-13125000D03*
%TO.P,U3,7*%
%TO.N,MODE_3V8*%
X54475000Y-13125000D03*
D32*
%TO.P,U3,8*%
%TO.N,RT_3V8*%
X53825000Y-13300000D03*
D33*
X54000000Y-13100000D03*
D31*
%TO.P,U3,9*%
%TO.N,EN_MODEM*%
X53875000Y-14075000D03*
%TD*%
D11*
%TO.P,R4,1*%
%TO.N,MODE_3V8*%
X52490000Y-21000000D03*
%TO.P,R4,2*%
%TO.N,GND_PWR*%
X53510000Y-21000000D03*
%TD*%
D35*
%TO.P,L2,1*%
%TO.N,SW_3V3*%
X60240000Y-42000000D03*
%TO.P,L2,2*%
%TO.N,3V3_DIGITAL*%
X64760000Y-42000000D03*
%TD*%
D11*
%TO.P,R14,1*%
%TO.N,3V3_DIGITAL*%
X72990000Y-51000000D03*
%TO.P,R14,2*%
%TO.N,I2C2_SDA*%
X74010000Y-51000000D03*
%TD*%
%TO.P,R9,1*%
%TO.N,MODE_3V3*%
X54490000Y-49000000D03*
%TO.P,R9,2*%
%TO.N,RT_3V3*%
X55510000Y-49000000D03*
%TD*%
D36*
%TO.P,U2,1*%
%TO.N,GND_PWR*%
X41800000Y-22000000D03*
%TO.P,U2,2*%
X41800000Y-22500000D03*
%TO.P,U2,3*%
%TO.N,FAULT*%
X41800000Y-23000000D03*
%TO.P,U2,4*%
%TO.N,I2C2_SDA*%
X41800000Y-23500000D03*
%TO.P,U2,5*%
%TO.N,I2C2_SCL*%
X41800000Y-24000000D03*
%TO.P,U2,6*%
%TO.N,3V3_DIGITAL*%
X46200000Y-24000000D03*
%TO.P,U2,7*%
%TO.N,GND_PWR*%
X46200000Y-23500000D03*
%TO.P,U2,8*%
%TO.N,VBAT_SYS*%
X46200000Y-23000000D03*
%TO.P,U2,9*%
%TO.N,SHUNT_LOAD_SENSE*%
X46200000Y-22500000D03*
%TO.P,U2,10*%
%TO.N,SHUNT_SOURCE_SENSE*%
X46200000Y-22000000D03*
%TD*%
D13*
%TO.P,C5,1*%
%TO.N,3V3_DIGITAL*%
X67525000Y-38000000D03*
%TO.P,C5,2*%
%TO.N,GND_PWR*%
X70475000Y-38000000D03*
%TD*%
D37*
%TO.P,F1,1*%
%TO.N,VBAT_RAW*%
X11600000Y-29000000D03*
%TO.P,F1,2*%
%TO.N,VBAT_FUSED*%
X14400000Y-29000000D03*
%TD*%
D13*
%TO.P,C3,1*%
%TO.N,3V8_MODEM*%
X67525000Y-10000000D03*
%TO.P,C3,2*%
%TO.N,GND_PWR*%
X70475000Y-10000000D03*
%TD*%
D14*
%TO.P,C2,1*%
%TO.N,3V3_DIGITAL*%
X48020000Y-22000000D03*
%TO.P,C2,2*%
%TO.N,GND_PWR*%
X48980000Y-22000000D03*
%TD*%
D11*
%TO.P,R15,1*%
%TO.N,PG_3V8*%
X60490000Y-20500000D03*
%TO.P,R15,2*%
%TO.N,3V3_DIGITAL*%
X61510000Y-20500000D03*
%TD*%
D38*
%TO.P,D1,1*%
%TO.N,VBAT_FUSED*%
X14500000Y-36150000D03*
%TO.P,D1,2*%
%TO.N,GND_PWR*%
X14500000Y-31850000D03*
%TD*%
D13*
%TO.P,C19,1*%
%TO.N,3V3_DIGITAL*%
X72525000Y-42250000D03*
%TO.P,C19,2*%
%TO.N,GND_PWR*%
X75475000Y-42250000D03*
%TD*%
%TO.P,C11,1*%
%TO.N,VBAT_SYS*%
X47525000Y-14000000D03*
%TO.P,C11,2*%
%TO.N,GND_PWR*%
X50475000Y-14000000D03*
%TD*%
D16*
%TO.P,TP1,1*%
%TO.N,VBAT_PROTECTED*%
X25000000Y-56000000D03*
%TD*%
D11*
%TO.P,R1,1*%
%TO.N,3V8_MODEM*%
X55490000Y-19000000D03*
%TO.P,R1,2*%
%TO.N,FB_3V8*%
X56510000Y-19000000D03*
%TD*%
D16*
%TO.P,TP10,1*%
%TO.N,I2C2_SDA*%
X47860000Y-56000000D03*
%TD*%
D11*
%TO.P,R8,1*%
%TO.N,MODE_3V3*%
X51990000Y-49000000D03*
%TO.P,R8,2*%
%TO.N,GND_PWR*%
X53010000Y-49000000D03*
%TD*%
D17*
%TO.P,C9,1*%
%TO.N,VBAT_FUSED*%
X15225000Y-26750000D03*
%TO.P,C9,2*%
%TO.N,GND_PWR*%
X16775000Y-26750000D03*
%TD*%
D13*
%TO.P,C15,1*%
%TO.N,3V8_MODEM*%
X67525000Y-17000000D03*
%TO.P,C15,2*%
%TO.N,GND_PWR*%
X70475000Y-17000000D03*
%TD*%
D16*
%TO.P,TP3,1*%
%TO.N,SHUNT_LOAD_SENSE*%
X30080000Y-56000000D03*
%TD*%
D39*
%TO.P,J2,1*%
%TO.N,3V8_MODEM*%
X90000000Y-56000000D03*
D20*
%TO.P,J2,2*%
%TO.N,GND_MODEM*%
X90000000Y-59000000D03*
%TO.P,J2,3*%
%TO.N,3V3_DIGITAL*%
X90000000Y-62000000D03*
%TO.P,J2,4*%
%TO.N,GND_DIGITAL*%
X90000000Y-65000000D03*
%TO.P,J2,5*%
%TO.N,1V8_MIC*%
X90000000Y-68000000D03*
%TO.P,J2,6*%
%TO.N,GND_MIC*%
X90000000Y-71000000D03*
%TO.P,J2,7*%
%TO.N,PWR_GOOD*%
X87000000Y-56000000D03*
%TO.P,J2,8*%
%TO.N,FAULT*%
X87000000Y-59000000D03*
%TO.P,J2,9*%
%TO.N,EN_MODEM*%
X87000000Y-62000000D03*
%TO.P,J2,10*%
%TO.N,EN_AUX*%
X87000000Y-65000000D03*
%TO.P,J2,11*%
%TO.N,I2C2_SCL*%
X87000000Y-68000000D03*
%TO.P,J2,12*%
%TO.N,I2C2_SDA*%
X87000000Y-71000000D03*
%TD*%
D28*
%TO.P,U4,1*%
%TO.N,VBAT_SYS*%
X54072500Y-42900000D03*
D29*
X53897500Y-42725000D03*
D30*
%TO.P,U4,2*%
%TO.N,GND_PWR*%
X55000000Y-42000000D03*
D28*
%TO.P,U4,3*%
%TO.N,SW_3V3*%
X55927500Y-42900000D03*
D29*
X56102500Y-42725000D03*
D31*
%TO.P,U4,4*%
%TO.N,BOOT_3V3*%
X56125000Y-42075000D03*
D32*
%TO.P,U4,5*%
%TO.N,PWR_GOOD*%
X56175000Y-41300000D03*
D33*
X56000000Y-41100000D03*
D34*
%TO.P,U4,6*%
%TO.N,3V3_DIGITAL*%
X55525000Y-41125000D03*
%TO.P,U4,7*%
%TO.N,MODE_3V3*%
X54475000Y-41125000D03*
D32*
%TO.P,U4,8*%
%TO.N,RT_3V3*%
X53825000Y-41300000D03*
D33*
X54000000Y-41100000D03*
D31*
%TO.P,U4,9*%
%TO.N,VBAT_SYS*%
X53875000Y-42075000D03*
%TD*%
D11*
%TO.P,R5,1*%
%TO.N,MODE_3V8*%
X54990000Y-21000000D03*
%TO.P,R5,2*%
%TO.N,RT_3V8*%
X56010000Y-21000000D03*
%TD*%
D22*
%TO.P,NT3,1*%
%TO.N,GND_MIC*%
X78500000Y-44000000D03*
%TO.P,NT3,2*%
%TO.N,GND_PWR*%
X79500000Y-44000000D03*
%TD*%
D17*
%TO.P,C8,1*%
%TO.N,1V8_MIC*%
X75225000Y-54000000D03*
%TO.P,C8,2*%
%TO.N,GND_PWR*%
X76775000Y-54000000D03*
%TD*%
D11*
%TO.P,R12,1*%
%TO.N,3V3_DIGITAL*%
X67990000Y-49000000D03*
%TO.P,R12,2*%
%TO.N,FAULT*%
X69010000Y-49000000D03*
%TD*%
D35*
%TO.P,L1,1*%
%TO.N,SW_3V8*%
X60240000Y-14000000D03*
%TO.P,L1,2*%
%TO.N,3V8_MODEM*%
X64760000Y-14000000D03*
%TD*%
D13*
%TO.P,C14,1*%
%TO.N,3V8_MODEM*%
X72525000Y-10000000D03*
%TO.P,C14,2*%
%TO.N,GND_PWR*%
X75475000Y-10000000D03*
%TD*%
D18*
%TO.P,U5,1*%
%TO.N,3V3_DIGITAL*%
X74700000Y-45050000D03*
%TO.P,U5,2*%
%TO.N,GND_PWR*%
X74700000Y-46000000D03*
%TO.P,U5,3*%
%TO.N,EN_AUX*%
X74700000Y-46950000D03*
%TO.P,U5,4*%
%TO.N,N/C*%
X77300000Y-46950000D03*
%TO.P,U5,5*%
%TO.N,1V8_MIC*%
X77300000Y-45050000D03*
%TD*%
D16*
%TO.P,TP5,1*%
%TO.N,PG_3V8*%
X35160000Y-56000000D03*
%TD*%
%TO.P,TP4,1*%
%TO.N,3V8_MODEM*%
X32619999Y-56000000D03*
%TD*%
D40*
%TO.N,GND_PWR*%
X50475000Y-14000000D03*
X52350000Y-13225000D03*
X55000000Y-13925000D03*
X55000000Y-14525000D03*
X50475000Y-42000000D03*
X52350000Y-41225000D03*
X55000000Y-41925000D03*
X55000000Y-42525000D03*
%TD*%
D41*
%TO.N,LM74700_VCAP*%
X18700000Y-29050000D02*
X19520000Y-26000000D01*
D42*
%TO.N,VBAT_RAW*%
X7700000Y-31250000D02*
X10600000Y-31250000D01*
D41*
%TO.N,REV_GATE*%
X21300000Y-30000000D02*
X22600000Y-30000000D01*
X22600000Y-30000000D02*
X22600000Y-27000000D01*
X22600000Y-27000000D02*
X29770000Y-27000000D01*
X29770000Y-27000000D02*
X29770000Y-28095000D01*
%TO.N,BOOT_3V8*%
X56450000Y-13950000D02*
X56900000Y-13950000D01*
X56900000Y-13950000D02*
X57100000Y-13550000D01*
X57100000Y-13550000D02*
X57490000Y-13550000D01*
%TO.N,BOOT_3V3*%
X56450000Y-41950000D02*
X56900000Y-41950000D01*
X56900000Y-41950000D02*
X57100000Y-41550000D01*
X57100000Y-41550000D02*
X57490000Y-41550000D01*
D43*
%TO.N,SW_3V8*%
X56800000Y-15780000D02*
X59450000Y-15780000D01*
%TO.N,SW_3V3*%
X56800000Y-43780000D02*
X59450000Y-43780000D01*
D44*
%TO.N,VBAT_SYS*%
X47525000Y-14000000D02*
X47525000Y-16700000D01*
D45*
X47525000Y-16700000D02*
X50800000Y-16700000D01*
D46*
X50800000Y-16700000D02*
X51400000Y-16700000D01*
D44*
X51400000Y-16700000D02*
X52350000Y-14775000D01*
D41*
X52350000Y-14775000D02*
X53900000Y-14750000D01*
D44*
%TO.N,GND_PWR*%
X50475000Y-14000000D02*
X52350000Y-13225000D01*
%TO.N,VBAT_SYS*%
X47525000Y-42000000D02*
X47525000Y-44700000D01*
D45*
X47525000Y-44700000D02*
X50800000Y-44700000D01*
D46*
X50800000Y-44700000D02*
X51400000Y-44700000D01*
D44*
X51400000Y-44700000D02*
X52350000Y-42775000D01*
D41*
X52350000Y-42775000D02*
X53900000Y-42750000D01*
D44*
%TO.N,GND_PWR*%
X50475000Y-42000000D02*
X52350000Y-41225000D01*
D47*
%TO.N,VBAT_SYS*%
X53900000Y-42750000D02*
X53875000Y-42075000D01*
D44*
X40000000Y-31800000D02*
X43000000Y-31800000D01*
D42*
X43000000Y-31800000D02*
X44000000Y-31800000D01*
D48*
X44000000Y-31800000D02*
X44000000Y-42000000D01*
X44000000Y-42000000D02*
X47525000Y-42000000D01*
X44000000Y-31800000D02*
X44000000Y-27000000D01*
X44000000Y-27000000D02*
X39000000Y-27000000D01*
X39000000Y-27000000D02*
X39000000Y-14000000D01*
X39000000Y-14000000D02*
X47525000Y-14000000D01*
%TO.N,3V8_MODEM*%
X64760000Y-12000000D02*
X67525000Y-10000000D01*
X64760000Y-17000000D02*
X67525000Y-17000000D01*
X67525000Y-10000000D02*
X67525000Y-6800000D01*
X67525000Y-6800000D02*
X72525000Y-6800000D01*
X72525000Y-6800000D02*
X72525000Y-7400000D01*
D41*
X72525000Y-7400000D02*
X72525000Y-10000000D01*
D48*
X67525000Y-17000000D02*
X67525000Y-20200000D01*
X67525000Y-20200000D02*
X72525000Y-20200000D01*
X72525000Y-20200000D02*
X72525000Y-19600000D01*
D41*
X72525000Y-19600000D02*
X72525000Y-17000000D01*
%TD*%
D49*
X50475000Y-14000000D03*
X52350000Y-13225000D03*
X55000000Y-13925000D03*
X55000000Y-14525000D03*
X50475000Y-42000000D03*
X52350000Y-41225000D03*
X55000000Y-41925000D03*
X55000000Y-42525000D03*
D50*
X5000000Y-5000000D03*
X82000000Y-5000000D03*
X68000000Y-55000000D03*
X5000000Y-55000000D03*
X3000000Y-28000000D03*
X9000000Y-28000000D03*
X6000000Y-31000000D03*
X6000000Y-28000000D03*
X94320000Y-58150000D03*
X94320000Y-68850000D03*
X90000000Y-56000000D03*
X90000000Y-59000000D03*
X90000000Y-62000000D03*
X90000000Y-65000000D03*
X90000000Y-68000000D03*
X90000000Y-71000000D03*
X87000000Y-56000000D03*
X87000000Y-59000000D03*
X87000000Y-62000000D03*
X87000000Y-65000000D03*
X87000000Y-68000000D03*
X87000000Y-71000000D03*
M02*
