%TF.GenerationSoftware,KiCad,Pcbnew,9.0.9*%
%TF.CreationDate,2026-09-24T12:47:41+00:00*%
%TF.ProjectId,PCB-PWR,5043422d-5057-4522-9e6b-696361645f70,rev?*%
%TF.SameCoordinates,Original*%
%TF.FileFunction,Soldermask,Bot*%
%TF.FilePolarity,Negative*%
%FSLAX46Y46*%
G04 Gerber Fmt 4.6, Leading zero omitted, Abs format (unit mm)*
G04 Created by KiCad (PCBNEW 9.0.9) date 2026-09-24 12:47:41*
%MOMM*%
%LPD*%
G01*
G04 APERTURE LIST*
G04 Aperture macros list*
%AMRoundRect*
0 Rectangle with rounded corners*
0 $1 Rounding radius*
0 $2 $3 $4 $5 $6 $7 $8 $9 X,Y pos of 4 corners*
0 Add a 4 corners polygon primitive as box body*
4,1,4,$2,$3,$4,$5,$6,$7,$8,$9,$2,$3,0*
0 Add four circle primitives for the rounded corners*
1,1,$1+$1,$2,$3*
1,1,$1+$1,$4,$5*
1,1,$1+$1,$6,$7*
1,1,$1+$1,$8,$9*
0 Add four rect primitives between the rounded corners*
20,1,$1+$1,$2,$3,$4,$5,0*
20,1,$1+$1,$4,$5,$6,$7,0*
20,1,$1+$1,$6,$7,$8,$9,0*
20,1,$1+$1,$8,$9,$2,$3,0*%
G04 Aperture macros list end*
%ADD10C,3.400000*%
%ADD11C,0.940000*%
%ADD12RoundRect,0.300000X-0.450000X-0.450000X0.450000X-0.450000X0.450000X0.450000X-0.450000X0.450000X0*%
%ADD13C,1.500000*%
%ADD14C,3.000000*%
%ADD15RoundRect,0.300000X-0.450000X0.450000X-0.450000X-0.450000X0.450000X-0.450000X0.450000X0.450000X0*%
%ADD16C,0.350000*%
G04 APERTURE END LIST*
D10*
%TO.C,H1*%
X5000000Y-5000000D03*
%TD*%
%TO.C,H2*%
X82000000Y-5000000D03*
%TD*%
%TO.C,H3*%
X68000000Y-55000000D03*
%TD*%
%TO.C,H4*%
X5000000Y-55000000D03*
%TD*%
D11*
%TO.C,J1*%
X3000000Y-28000000D03*
X9000000Y-28000000D03*
D12*
X6000000Y-31000000D03*
D13*
X6000000Y-28000000D03*
%TD*%
D14*
%TO.C,J2*%
X94320000Y-58150000D03*
X94320000Y-68850000D03*
D15*
X90000000Y-56000000D03*
D13*
X90000000Y-59000000D03*
X90000000Y-62000000D03*
X90000000Y-65000000D03*
X90000000Y-68000000D03*
X90000000Y-71000000D03*
X87000000Y-56000000D03*
X87000000Y-59000000D03*
X87000000Y-62000000D03*
X87000000Y-65000000D03*
X87000000Y-68000000D03*
X87000000Y-71000000D03*
%TD*%
D16*
X5000000Y-5000000D03*
X82000000Y-5000000D03*
X68000000Y-55000000D03*
X5000000Y-55000000D03*
X3000000Y-28000000D03*
X9000000Y-28000000D03*
X6000000Y-31000000D03*
X6000000Y-28000000D03*
X94320000Y-58150000D03*
X94320000Y-68850000D03*
X90000000Y-56000000D03*
X90000000Y-59000000D03*
X90000000Y-62000000D03*
X90000000Y-65000000D03*
X90000000Y-68000000D03*
X90000000Y-71000000D03*
X87000000Y-56000000D03*
X87000000Y-59000000D03*
X87000000Y-62000000D03*
X87000000Y-65000000D03*
X87000000Y-68000000D03*
X87000000Y-71000000D03*
M02*
