%TF.GenerationSoftware,KiCad,Pcbnew,9.0.9*%
%TF.CreationDate,2026-09-24T12:47:40+00:00*%
%TF.ProjectId,PCB-PWR,5043422d-5057-4522-9e6b-696361645f70,rev?*%
%TF.SameCoordinates,Original*%
%TF.FileFunction,Copper,L4,Bot*%
%TF.FilePolarity,Positive*%
%FSLAX46Y46*%
G04 Gerber Fmt 4.6, Leading zero omitted, Abs format (unit mm)*
G04 Created by KiCad (PCBNEW 9.0.9) date 2026-09-24 12:47:40*
%MOMM*%
%LPD*%
G01*
G04 APERTURE LIST*
G04 Aperture macros list*
%AMRoundRect*
0 Rectangle with rounded corners*
0 $1 Rounding radius*
0 $2 $3 $4 $5 $6 $7 $8 $9 X,Y pos of 4 corners*
0 Add a 4 corners polygon primitive as box body*
4,1,4,$2,$3,$4,$5,$6,$7,$8,$9,$2,$3,0*
0 Add four circle primitives for the rounded corners*
1,1,$1+$1,$2,$3*
1,1,$1+$1,$4,$5*
1,1,$1+$1,$6,$7*
1,1,$1+$1,$8,$9*
0 Add four rect primitives between the rounded corners*
20,1,$1+$1,$2,$3,$4,$5,0*
20,1,$1+$1,$4,$5,$6,$7,0*
20,1,$1+$1,$6,$7,$8,$9,0*
20,1,$1+$1,$8,$9,$2,$3,0*%
G04 Aperture macros list end*
%TA.AperFunction,ComponentPad*%
%ADD10RoundRect,0.300000X-0.450000X-0.450000X0.450000X-0.450000X0.450000X0.450000X-0.450000X0.450000X0*%
%TD*%
%TA.AperFunction,ComponentPad*%
%ADD11C,1.500000*%
%TD*%
%TA.AperFunction,ComponentPad*%
%ADD12RoundRect,0.300000X-0.450000X0.450000X-0.450000X-0.450000X0.450000X-0.450000X0.450000X0.450000X0*%
%TD*%
%TA.AperFunction,ViaPad*%
%ADD13C,0.600000*%
%TD*%
%ADD14C,0.300000*%
%ADD15C,0.350000*%
G04 APERTURE END LIST*
D10*
%TO.P,J1,1*%
%TO.N,VBAT_RAW*%
X6000000Y-31000000D03*
D11*
%TO.P,J1,2*%
%TO.N,GND_PWR*%
X6000000Y-28000000D03*
%TD*%
D12*
%TO.P,J2,1*%
%TO.N,3V8_MODEM*%
X90000000Y-56000000D03*
D11*
%TO.P,J2,2*%
%TO.N,GND_MODEM*%
X90000000Y-59000000D03*
%TO.P,J2,3*%
%TO.N,3V3_DIGITAL*%
X90000000Y-62000000D03*
%TO.P,J2,4*%
%TO.N,GND_DIGITAL*%
X90000000Y-65000000D03*
%TO.P,J2,5*%
%TO.N,1V8_MIC*%
X90000000Y-68000000D03*
%TO.P,J2,6*%
%TO.N,GND_MIC*%
X90000000Y-71000000D03*
%TO.P,J2,7*%
%TO.N,PWR_GOOD*%
X87000000Y-56000000D03*
%TO.P,J2,8*%
%TO.N,FAULT*%
X87000000Y-59000000D03*
%TO.P,J2,9*%
%TO.N,EN_MODEM*%
X87000000Y-62000000D03*
%TO.P,J2,10*%
%TO.N,EN_AUX*%
X87000000Y-65000000D03*
%TO.P,J2,11*%
%TO.N,I2C2_SCL*%
X87000000Y-68000000D03*
%TO.P,J2,12*%
%TO.N,I2C2_SDA*%
X87000000Y-71000000D03*
%TD*%
D13*
%TO.N,GND_PWR*%
X50475000Y-14000000D03*
X52350000Y-13225000D03*
X55000000Y-13925000D03*
X55000000Y-14525000D03*
X50475000Y-42000000D03*
X52350000Y-41225000D03*
X55000000Y-41925000D03*
X55000000Y-42525000D03*
%TD*%
D14*
X50475000Y-14000000D03*
X52350000Y-13225000D03*
X55000000Y-13925000D03*
X55000000Y-14525000D03*
X50475000Y-42000000D03*
X52350000Y-41225000D03*
X55000000Y-41925000D03*
X55000000Y-42525000D03*
D15*
X5000000Y-5000000D03*
X82000000Y-5000000D03*
X68000000Y-55000000D03*
X5000000Y-55000000D03*
X3000000Y-28000000D03*
X9000000Y-28000000D03*
X6000000Y-31000000D03*
X6000000Y-28000000D03*
X94320000Y-58150000D03*
X94320000Y-68850000D03*
X90000000Y-56000000D03*
X90000000Y-59000000D03*
X90000000Y-62000000D03*
X90000000Y-65000000D03*
X90000000Y-68000000D03*
X90000000Y-71000000D03*
X87000000Y-56000000D03*
X87000000Y-59000000D03*
X87000000Y-62000000D03*
X87000000Y-65000000D03*
X87000000Y-68000000D03*
X87000000Y-71000000D03*
M02*
