%TF.GenerationSoftware,KiCad,Pcbnew,9.0.9*%
%TF.CreationDate,2026-09-25T12:06:13+00:00*%
%TF.ProjectId,PCB-PWR,5043422d-5057-4522-9e6b-696361645f70,rev?*%
%TF.SameCoordinates,Original*%
%TF.FileFunction,Legend,Top*%
%TF.FilePolarity,Positive*%
%FSLAX46Y46*%
G04 Gerber Fmt 4.6, Leading zero omitted, Abs format (unit mm)*
G04 Created by KiCad (PCBNEW 9.0.9) date 2026-09-25 12:06:13*
%MOMM*%
%LPD*%
G01*
G04 APERTURE LIST*
G04 Aperture macros list*
%AMRoundRect*
0 Rectangle with rounded corners*
0 $1 Rounding radius*
0 $2 $3 $4 $5 $6 $7 $8 $9 X,Y pos of 4 corners*
0 Add a 4 corners polygon primitive as box body*
4,1,4,$2,$3,$4,$5,$6,$7,$8,$9,$2,$3,0*
0 Add four circle primitives for the rounded corners*
1,1,$1+$1,$2,$3*
1,1,$1+$1,$4,$5*
1,1,$1+$1,$6,$7*
1,1,$1+$1,$8,$9*
0 Add four rect primitives between the rounded corners*
20,1,$1+$1,$2,$3,$4,$5,0*
20,1,$1+$1,$4,$5,$6,$7,0*
20,1,$1+$1,$6,$7,$8,$9,0*
20,1,$1+$1,$8,$9,$2,$3,0*%
%AMFreePoly0*
4,1,17,-0.027000,0.214000,0.037000,0.161000,0.069000,0.150000,1.150000,0.150000,1.200000,0.100000,1.200000,-0.100000,1.150000,-0.150000,0.069000,-0.150000,0.037000,-0.161000,-0.027000,-0.214000,-0.059000,-0.225000,-1.150000,-0.225000,-1.200000,-0.175000,-1.200000,0.175000,-1.150000,0.225000,-0.059000,0.225000,-0.027000,0.214000,-0.027000,0.214000,$1*%
G04 Aperture macros list end*
%ADD10C,0.120000*%
%ADD11C,0.150000*%
%ADD12RoundRect,0.135000X-0.135000X-0.185000X0.135000X-0.185000X0.135000X0.185000X-0.135000X0.185000X0*%
%ADD13RoundRect,0.250000X-0.325000X-1.100000X0.325000X-1.100000X0.325000X1.100000X-0.325000X1.100000X0*%
%ADD14RoundRect,0.225000X0.250000X-0.225000X0.250000X0.225000X-0.250000X0.225000X-0.250000X-0.225000X0*%
%ADD15RoundRect,0.140000X-0.140000X-0.170000X0.140000X-0.170000X0.140000X0.170000X-0.140000X0.170000X0*%
%ADD16RoundRect,0.140000X-0.170000X0.140000X-0.170000X-0.140000X0.170000X-0.140000X0.170000X0.140000X0*%
%ADD17C,2.100000*%
%ADD18C,3.400000*%
%ADD19RoundRect,0.225000X-0.225000X-0.250000X0.225000X-0.250000X0.225000X0.250000X-0.225000X0.250000X0*%
%ADD20RoundRect,0.123334X-0.496666X-0.246666X0.496666X-0.246666X0.496666X0.246666X-0.496666X0.246666X0*%
%ADD21C,0.940000*%
%ADD22RoundRect,0.300000X-0.450000X-0.450000X0.450000X-0.450000X0.450000X0.450000X-0.450000X0.450000X0*%
%ADD23C,1.500000*%
%ADD24RoundRect,0.250000X-1.500000X-0.550000X1.500000X-0.550000X1.500000X0.550000X-1.500000X0.550000X0*%
%ADD25R,1.372000X0.710000*%
%ADD26R,4.440000X0.710000*%
%ADD27R,3.850000X0.560000*%
%ADD28R,2.290000X2.030000*%
%ADD29R,1.700000X0.760000*%
%ADD30FreePoly0,90.000000*%
%ADD31RoundRect,0.128985X0.093515X-0.221015X0.093515X0.221015X-0.093515X0.221015X-0.093515X-0.221015X0*%
%ADD32RoundRect,0.140000X0.257500X-0.035000X0.257500X0.035000X-0.257500X0.035000X-0.257500X-0.035000X0*%
%ADD33RoundRect,0.140000X0.235000X-0.035000X0.235000X0.035000X-0.235000X0.035000X-0.235000X-0.035000X0*%
%ADD34RoundRect,0.133333X0.191667X-0.066667X0.191667X0.066667X-0.191667X0.066667X-0.191667X-0.066667X0*%
%ADD35RoundRect,0.150000X0.000010X-0.250000X0.000010X0.250000X-0.000010X0.250000X-0.000010X-0.250000X0*%
%ADD36RoundRect,0.140000X0.035000X-0.235000X0.035000X0.235000X-0.035000X0.235000X-0.035000X-0.235000X0*%
%ADD37R,1.580000X6.500000*%
%ADD38RoundRect,0.133333X-0.641667X-0.066667X0.641667X-0.066667X0.641667X0.066667X-0.641667X0.066667X0*%
%ADD39RoundRect,0.250000X-0.375000X-0.625000X0.375000X-0.625000X0.375000X0.625000X-0.375000X0.625000X0*%
%ADD40RoundRect,0.250000X0.900000X-1.000000X0.900000X1.000000X-0.900000X1.000000X-0.900000X-1.000000X0*%
%ADD41C,3.000000*%
%ADD42RoundRect,0.300000X-0.450000X0.450000X-0.450000X-0.450000X0.450000X-0.450000X0.450000X0.450000X0*%
G04 APERTURE END LIST*
D10*
X47866667Y-17463855D02*
X47600000Y-17082902D01*
X47409524Y-17463855D02*
X47409524Y-16663855D01*
X47409524Y-16663855D02*
X47714286Y-16663855D01*
X47714286Y-16663855D02*
X47790476Y-16701950D01*
X47790476Y-16701950D02*
X47828571Y-16740045D01*
X47828571Y-16740045D02*
X47866667Y-16816236D01*
X47866667Y-16816236D02*
X47866667Y-16930521D01*
X47866667Y-16930521D02*
X47828571Y-17006712D01*
X47828571Y-17006712D02*
X47790476Y-17044807D01*
X47790476Y-17044807D02*
X47714286Y-17082902D01*
X47714286Y-17082902D02*
X47409524Y-17082902D01*
X48552381Y-16663855D02*
X48400000Y-16663855D01*
X48400000Y-16663855D02*
X48323809Y-16701950D01*
X48323809Y-16701950D02*
X48285714Y-16740045D01*
X48285714Y-16740045D02*
X48209524Y-16854331D01*
X48209524Y-16854331D02*
X48171428Y-17006712D01*
X48171428Y-17006712D02*
X48171428Y-17311474D01*
X48171428Y-17311474D02*
X48209524Y-17387664D01*
X48209524Y-17387664D02*
X48247619Y-17425760D01*
X48247619Y-17425760D02*
X48323809Y-17463855D01*
X48323809Y-17463855D02*
X48476190Y-17463855D01*
X48476190Y-17463855D02*
X48552381Y-17425760D01*
X48552381Y-17425760D02*
X48590476Y-17387664D01*
X48590476Y-17387664D02*
X48628571Y-17311474D01*
X48628571Y-17311474D02*
X48628571Y-17120998D01*
X48628571Y-17120998D02*
X48590476Y-17044807D01*
X48590476Y-17044807D02*
X48552381Y-17006712D01*
X48552381Y-17006712D02*
X48476190Y-16968617D01*
X48476190Y-16968617D02*
X48323809Y-16968617D01*
X48323809Y-16968617D02*
X48247619Y-17006712D01*
X48247619Y-17006712D02*
X48209524Y-17044807D01*
X48209524Y-17044807D02*
X48171428Y-17120998D01*
X48485714Y-39834064D02*
X48447618Y-39872160D01*
X48447618Y-39872160D02*
X48333333Y-39910255D01*
X48333333Y-39910255D02*
X48257142Y-39910255D01*
X48257142Y-39910255D02*
X48142856Y-39872160D01*
X48142856Y-39872160D02*
X48066666Y-39795969D01*
X48066666Y-39795969D02*
X48028571Y-39719779D01*
X48028571Y-39719779D02*
X47990475Y-39567398D01*
X47990475Y-39567398D02*
X47990475Y-39453112D01*
X47990475Y-39453112D02*
X48028571Y-39300731D01*
X48028571Y-39300731D02*
X48066666Y-39224540D01*
X48066666Y-39224540D02*
X48142856Y-39148350D01*
X48142856Y-39148350D02*
X48257142Y-39110255D01*
X48257142Y-39110255D02*
X48333333Y-39110255D01*
X48333333Y-39110255D02*
X48447618Y-39148350D01*
X48447618Y-39148350D02*
X48485714Y-39186445D01*
X49247618Y-39910255D02*
X48790475Y-39910255D01*
X49019047Y-39910255D02*
X49019047Y-39110255D01*
X49019047Y-39110255D02*
X48942856Y-39224540D01*
X48942856Y-39224540D02*
X48866666Y-39300731D01*
X48866666Y-39300731D02*
X48790475Y-39338826D01*
X49552380Y-39186445D02*
X49590476Y-39148350D01*
X49590476Y-39148350D02*
X49666666Y-39110255D01*
X49666666Y-39110255D02*
X49857142Y-39110255D01*
X49857142Y-39110255D02*
X49933333Y-39148350D01*
X49933333Y-39148350D02*
X49971428Y-39186445D01*
X49971428Y-39186445D02*
X50009523Y-39262636D01*
X50009523Y-39262636D02*
X50009523Y-39338826D01*
X50009523Y-39338826D02*
X49971428Y-39453112D01*
X49971428Y-39453112D02*
X49514285Y-39910255D01*
X49514285Y-39910255D02*
X50009523Y-39910255D01*
X49866667Y-45963855D02*
X49600000Y-45582902D01*
X49409524Y-45963855D02*
X49409524Y-45163855D01*
X49409524Y-45163855D02*
X49714286Y-45163855D01*
X49714286Y-45163855D02*
X49790476Y-45201950D01*
X49790476Y-45201950D02*
X49828571Y-45240045D01*
X49828571Y-45240045D02*
X49866667Y-45316236D01*
X49866667Y-45316236D02*
X49866667Y-45430521D01*
X49866667Y-45430521D02*
X49828571Y-45506712D01*
X49828571Y-45506712D02*
X49790476Y-45544807D01*
X49790476Y-45544807D02*
X49714286Y-45582902D01*
X49714286Y-45582902D02*
X49409524Y-45582902D01*
X50133333Y-45163855D02*
X50666667Y-45163855D01*
X50666667Y-45163855D02*
X50323809Y-45963855D01*
X51835714Y-39954064D02*
X51797618Y-39992160D01*
X51797618Y-39992160D02*
X51683333Y-40030255D01*
X51683333Y-40030255D02*
X51607142Y-40030255D01*
X51607142Y-40030255D02*
X51492856Y-39992160D01*
X51492856Y-39992160D02*
X51416666Y-39915969D01*
X51416666Y-39915969D02*
X51378571Y-39839779D01*
X51378571Y-39839779D02*
X51340475Y-39687398D01*
X51340475Y-39687398D02*
X51340475Y-39573112D01*
X51340475Y-39573112D02*
X51378571Y-39420731D01*
X51378571Y-39420731D02*
X51416666Y-39344540D01*
X51416666Y-39344540D02*
X51492856Y-39268350D01*
X51492856Y-39268350D02*
X51607142Y-39230255D01*
X51607142Y-39230255D02*
X51683333Y-39230255D01*
X51683333Y-39230255D02*
X51797618Y-39268350D01*
X51797618Y-39268350D02*
X51835714Y-39306445D01*
X52140475Y-39306445D02*
X52178571Y-39268350D01*
X52178571Y-39268350D02*
X52254761Y-39230255D01*
X52254761Y-39230255D02*
X52445237Y-39230255D01*
X52445237Y-39230255D02*
X52521428Y-39268350D01*
X52521428Y-39268350D02*
X52559523Y-39306445D01*
X52559523Y-39306445D02*
X52597618Y-39382636D01*
X52597618Y-39382636D02*
X52597618Y-39458826D01*
X52597618Y-39458826D02*
X52559523Y-39573112D01*
X52559523Y-39573112D02*
X52102380Y-40030255D01*
X52102380Y-40030255D02*
X52597618Y-40030255D01*
X53359523Y-40030255D02*
X52902380Y-40030255D01*
X53130952Y-40030255D02*
X53130952Y-39230255D01*
X53130952Y-39230255D02*
X53054761Y-39344540D01*
X53054761Y-39344540D02*
X52978571Y-39420731D01*
X52978571Y-39420731D02*
X52902380Y-39458826D01*
X19866667Y-24887664D02*
X19828571Y-24925760D01*
X19828571Y-24925760D02*
X19714286Y-24963855D01*
X19714286Y-24963855D02*
X19638095Y-24963855D01*
X19638095Y-24963855D02*
X19523809Y-24925760D01*
X19523809Y-24925760D02*
X19447619Y-24849569D01*
X19447619Y-24849569D02*
X19409524Y-24773379D01*
X19409524Y-24773379D02*
X19371428Y-24620998D01*
X19371428Y-24620998D02*
X19371428Y-24506712D01*
X19371428Y-24506712D02*
X19409524Y-24354331D01*
X19409524Y-24354331D02*
X19447619Y-24278140D01*
X19447619Y-24278140D02*
X19523809Y-24201950D01*
X19523809Y-24201950D02*
X19638095Y-24163855D01*
X19638095Y-24163855D02*
X19714286Y-24163855D01*
X19714286Y-24163855D02*
X19828571Y-24201950D01*
X19828571Y-24201950D02*
X19866667Y-24240045D01*
X20628571Y-24963855D02*
X20171428Y-24963855D01*
X20400000Y-24963855D02*
X20400000Y-24163855D01*
X20400000Y-24163855D02*
X20323809Y-24278140D01*
X20323809Y-24278140D02*
X20247619Y-24354331D01*
X20247619Y-24354331D02*
X20171428Y-24392426D01*
X58087664Y-11663332D02*
X58125760Y-11701428D01*
X58125760Y-11701428D02*
X58163855Y-11815713D01*
X58163855Y-11815713D02*
X58163855Y-11891904D01*
X58163855Y-11891904D02*
X58125760Y-12006190D01*
X58125760Y-12006190D02*
X58049569Y-12082380D01*
X58049569Y-12082380D02*
X57973379Y-12120475D01*
X57973379Y-12120475D02*
X57820998Y-12158571D01*
X57820998Y-12158571D02*
X57706712Y-12158571D01*
X57706712Y-12158571D02*
X57554331Y-12120475D01*
X57554331Y-12120475D02*
X57478140Y-12082380D01*
X57478140Y-12082380D02*
X57401950Y-12006190D01*
X57401950Y-12006190D02*
X57363855Y-11891904D01*
X57363855Y-11891904D02*
X57363855Y-11815713D01*
X57363855Y-11815713D02*
X57401950Y-11701428D01*
X57401950Y-11701428D02*
X57440045Y-11663332D01*
X57630521Y-10977618D02*
X58163855Y-10977618D01*
X57325760Y-11168094D02*
X57897188Y-11358571D01*
X57897188Y-11358571D02*
X57897188Y-10863332D01*
X39230476Y-53560255D02*
X39687619Y-53560255D01*
X39459047Y-54360255D02*
X39459047Y-53560255D01*
X39954286Y-54360255D02*
X39954286Y-53560255D01*
X39954286Y-53560255D02*
X40259048Y-53560255D01*
X40259048Y-53560255D02*
X40335238Y-53598350D01*
X40335238Y-53598350D02*
X40373333Y-53636445D01*
X40373333Y-53636445D02*
X40411429Y-53712636D01*
X40411429Y-53712636D02*
X40411429Y-53826921D01*
X40411429Y-53826921D02*
X40373333Y-53903112D01*
X40373333Y-53903112D02*
X40335238Y-53941207D01*
X40335238Y-53941207D02*
X40259048Y-53979302D01*
X40259048Y-53979302D02*
X39954286Y-53979302D01*
X40678095Y-53560255D02*
X41211429Y-53560255D01*
X41211429Y-53560255D02*
X40868571Y-54360255D01*
X73485714Y-14834064D02*
X73447618Y-14872160D01*
X73447618Y-14872160D02*
X73333333Y-14910255D01*
X73333333Y-14910255D02*
X73257142Y-14910255D01*
X73257142Y-14910255D02*
X73142856Y-14872160D01*
X73142856Y-14872160D02*
X73066666Y-14795969D01*
X73066666Y-14795969D02*
X73028571Y-14719779D01*
X73028571Y-14719779D02*
X72990475Y-14567398D01*
X72990475Y-14567398D02*
X72990475Y-14453112D01*
X72990475Y-14453112D02*
X73028571Y-14300731D01*
X73028571Y-14300731D02*
X73066666Y-14224540D01*
X73066666Y-14224540D02*
X73142856Y-14148350D01*
X73142856Y-14148350D02*
X73257142Y-14110255D01*
X73257142Y-14110255D02*
X73333333Y-14110255D01*
X73333333Y-14110255D02*
X73447618Y-14148350D01*
X73447618Y-14148350D02*
X73485714Y-14186445D01*
X74247618Y-14910255D02*
X73790475Y-14910255D01*
X74019047Y-14910255D02*
X74019047Y-14110255D01*
X74019047Y-14110255D02*
X73942856Y-14224540D01*
X73942856Y-14224540D02*
X73866666Y-14300731D01*
X73866666Y-14300731D02*
X73790475Y-14338826D01*
X74933333Y-14110255D02*
X74780952Y-14110255D01*
X74780952Y-14110255D02*
X74704761Y-14148350D01*
X74704761Y-14148350D02*
X74666666Y-14186445D01*
X74666666Y-14186445D02*
X74590476Y-14300731D01*
X74590476Y-14300731D02*
X74552380Y-14453112D01*
X74552380Y-14453112D02*
X74552380Y-14757874D01*
X74552380Y-14757874D02*
X74590476Y-14834064D01*
X74590476Y-14834064D02*
X74628571Y-14872160D01*
X74628571Y-14872160D02*
X74704761Y-14910255D01*
X74704761Y-14910255D02*
X74857142Y-14910255D01*
X74857142Y-14910255D02*
X74933333Y-14872160D01*
X74933333Y-14872160D02*
X74971428Y-14834064D01*
X74971428Y-14834064D02*
X75009523Y-14757874D01*
X75009523Y-14757874D02*
X75009523Y-14567398D01*
X75009523Y-14567398D02*
X74971428Y-14491207D01*
X74971428Y-14491207D02*
X74933333Y-14453112D01*
X74933333Y-14453112D02*
X74857142Y-14415017D01*
X74857142Y-14415017D02*
X74704761Y-14415017D01*
X74704761Y-14415017D02*
X74628571Y-14453112D01*
X74628571Y-14453112D02*
X74590476Y-14491207D01*
X74590476Y-14491207D02*
X74552380Y-14567398D01*
X58087664Y-39663332D02*
X58125760Y-39701428D01*
X58125760Y-39701428D02*
X58163855Y-39815713D01*
X58163855Y-39815713D02*
X58163855Y-39891904D01*
X58163855Y-39891904D02*
X58125760Y-40006190D01*
X58125760Y-40006190D02*
X58049569Y-40082380D01*
X58049569Y-40082380D02*
X57973379Y-40120475D01*
X57973379Y-40120475D02*
X57820998Y-40158571D01*
X57820998Y-40158571D02*
X57706712Y-40158571D01*
X57706712Y-40158571D02*
X57554331Y-40120475D01*
X57554331Y-40120475D02*
X57478140Y-40082380D01*
X57478140Y-40082380D02*
X57401950Y-40006190D01*
X57401950Y-40006190D02*
X57363855Y-39891904D01*
X57363855Y-39891904D02*
X57363855Y-39815713D01*
X57363855Y-39815713D02*
X57401950Y-39701428D01*
X57401950Y-39701428D02*
X57440045Y-39663332D01*
X57363855Y-38977618D02*
X57363855Y-39129999D01*
X57363855Y-39129999D02*
X57401950Y-39206190D01*
X57401950Y-39206190D02*
X57440045Y-39244285D01*
X57440045Y-39244285D02*
X57554331Y-39320475D01*
X57554331Y-39320475D02*
X57706712Y-39358571D01*
X57706712Y-39358571D02*
X58011474Y-39358571D01*
X58011474Y-39358571D02*
X58087664Y-39320475D01*
X58087664Y-39320475D02*
X58125760Y-39282380D01*
X58125760Y-39282380D02*
X58163855Y-39206190D01*
X58163855Y-39206190D02*
X58163855Y-39053809D01*
X58163855Y-39053809D02*
X58125760Y-38977618D01*
X58125760Y-38977618D02*
X58087664Y-38939523D01*
X58087664Y-38939523D02*
X58011474Y-38901428D01*
X58011474Y-38901428D02*
X57820998Y-38901428D01*
X57820998Y-38901428D02*
X57744807Y-38939523D01*
X57744807Y-38939523D02*
X57706712Y-38977618D01*
X57706712Y-38977618D02*
X57668617Y-39053809D01*
X57668617Y-39053809D02*
X57668617Y-39206190D01*
X57668617Y-39206190D02*
X57706712Y-39282380D01*
X57706712Y-39282380D02*
X57744807Y-39320475D01*
X57744807Y-39320475D02*
X57820998Y-39358571D01*
X57485714Y-48763855D02*
X57219047Y-48382902D01*
X57028571Y-48763855D02*
X57028571Y-47963855D01*
X57028571Y-47963855D02*
X57333333Y-47963855D01*
X57333333Y-47963855D02*
X57409523Y-48001950D01*
X57409523Y-48001950D02*
X57447618Y-48040045D01*
X57447618Y-48040045D02*
X57485714Y-48116236D01*
X57485714Y-48116236D02*
X57485714Y-48230521D01*
X57485714Y-48230521D02*
X57447618Y-48306712D01*
X57447618Y-48306712D02*
X57409523Y-48344807D01*
X57409523Y-48344807D02*
X57333333Y-48382902D01*
X57333333Y-48382902D02*
X57028571Y-48382902D01*
X58247618Y-48763855D02*
X57790475Y-48763855D01*
X58019047Y-48763855D02*
X58019047Y-47963855D01*
X58019047Y-47963855D02*
X57942856Y-48078140D01*
X57942856Y-48078140D02*
X57866666Y-48154331D01*
X57866666Y-48154331D02*
X57790475Y-48192426D01*
X58742857Y-47963855D02*
X58819047Y-47963855D01*
X58819047Y-47963855D02*
X58895238Y-48001950D01*
X58895238Y-48001950D02*
X58933333Y-48040045D01*
X58933333Y-48040045D02*
X58971428Y-48116236D01*
X58971428Y-48116236D02*
X59009523Y-48268617D01*
X59009523Y-48268617D02*
X59009523Y-48459093D01*
X59009523Y-48459093D02*
X58971428Y-48611474D01*
X58971428Y-48611474D02*
X58933333Y-48687664D01*
X58933333Y-48687664D02*
X58895238Y-48725760D01*
X58895238Y-48725760D02*
X58819047Y-48763855D01*
X58819047Y-48763855D02*
X58742857Y-48763855D01*
X58742857Y-48763855D02*
X58666666Y-48725760D01*
X58666666Y-48725760D02*
X58628571Y-48687664D01*
X58628571Y-48687664D02*
X58590476Y-48611474D01*
X58590476Y-48611474D02*
X58552380Y-48459093D01*
X58552380Y-48459093D02*
X58552380Y-48268617D01*
X58552380Y-48268617D02*
X58590476Y-48116236D01*
X58590476Y-48116236D02*
X58628571Y-48040045D01*
X58628571Y-48040045D02*
X58666666Y-48001950D01*
X58666666Y-48001950D02*
X58742857Y-47963855D01*
X72354064Y-50383333D02*
X72392160Y-50421429D01*
X72392160Y-50421429D02*
X72430255Y-50535714D01*
X72430255Y-50535714D02*
X72430255Y-50611905D01*
X72430255Y-50611905D02*
X72392160Y-50726191D01*
X72392160Y-50726191D02*
X72315969Y-50802381D01*
X72315969Y-50802381D02*
X72239779Y-50840476D01*
X72239779Y-50840476D02*
X72087398Y-50878572D01*
X72087398Y-50878572D02*
X71973112Y-50878572D01*
X71973112Y-50878572D02*
X71820731Y-50840476D01*
X71820731Y-50840476D02*
X71744540Y-50802381D01*
X71744540Y-50802381D02*
X71668350Y-50726191D01*
X71668350Y-50726191D02*
X71630255Y-50611905D01*
X71630255Y-50611905D02*
X71630255Y-50535714D01*
X71630255Y-50535714D02*
X71668350Y-50421429D01*
X71668350Y-50421429D02*
X71706445Y-50383333D01*
X71630255Y-50116667D02*
X71630255Y-49583333D01*
X71630255Y-49583333D02*
X72430255Y-49926191D01*
X33485714Y-23834064D02*
X33447618Y-23872160D01*
X33447618Y-23872160D02*
X33333333Y-23910255D01*
X33333333Y-23910255D02*
X33257142Y-23910255D01*
X33257142Y-23910255D02*
X33142856Y-23872160D01*
X33142856Y-23872160D02*
X33066666Y-23795969D01*
X33066666Y-23795969D02*
X33028571Y-23719779D01*
X33028571Y-23719779D02*
X32990475Y-23567398D01*
X32990475Y-23567398D02*
X32990475Y-23453112D01*
X32990475Y-23453112D02*
X33028571Y-23300731D01*
X33028571Y-23300731D02*
X33066666Y-23224540D01*
X33066666Y-23224540D02*
X33142856Y-23148350D01*
X33142856Y-23148350D02*
X33257142Y-23110255D01*
X33257142Y-23110255D02*
X33333333Y-23110255D01*
X33333333Y-23110255D02*
X33447618Y-23148350D01*
X33447618Y-23148350D02*
X33485714Y-23186445D01*
X34247618Y-23910255D02*
X33790475Y-23910255D01*
X34019047Y-23910255D02*
X34019047Y-23110255D01*
X34019047Y-23110255D02*
X33942856Y-23224540D01*
X33942856Y-23224540D02*
X33866666Y-23300731D01*
X33866666Y-23300731D02*
X33790475Y-23338826D01*
X34742857Y-23110255D02*
X34819047Y-23110255D01*
X34819047Y-23110255D02*
X34895238Y-23148350D01*
X34895238Y-23148350D02*
X34933333Y-23186445D01*
X34933333Y-23186445D02*
X34971428Y-23262636D01*
X34971428Y-23262636D02*
X35009523Y-23415017D01*
X35009523Y-23415017D02*
X35009523Y-23605493D01*
X35009523Y-23605493D02*
X34971428Y-23757874D01*
X34971428Y-23757874D02*
X34933333Y-23834064D01*
X34933333Y-23834064D02*
X34895238Y-23872160D01*
X34895238Y-23872160D02*
X34819047Y-23910255D01*
X34819047Y-23910255D02*
X34742857Y-23910255D01*
X34742857Y-23910255D02*
X34666666Y-23872160D01*
X34666666Y-23872160D02*
X34628571Y-23834064D01*
X34628571Y-23834064D02*
X34590476Y-23757874D01*
X34590476Y-23757874D02*
X34552380Y-23605493D01*
X34552380Y-23605493D02*
X34552380Y-23415017D01*
X34552380Y-23415017D02*
X34590476Y-23262636D01*
X34590476Y-23262636D02*
X34628571Y-23186445D01*
X34628571Y-23186445D02*
X34666666Y-23148350D01*
X34666666Y-23148350D02*
X34742857Y-23110255D01*
X50366667Y-17963855D02*
X50100000Y-17582902D01*
X49909524Y-17963855D02*
X49909524Y-17163855D01*
X49909524Y-17163855D02*
X50214286Y-17163855D01*
X50214286Y-17163855D02*
X50290476Y-17201950D01*
X50290476Y-17201950D02*
X50328571Y-17240045D01*
X50328571Y-17240045D02*
X50366667Y-17316236D01*
X50366667Y-17316236D02*
X50366667Y-17430521D01*
X50366667Y-17430521D02*
X50328571Y-17506712D01*
X50328571Y-17506712D02*
X50290476Y-17544807D01*
X50290476Y-17544807D02*
X50214286Y-17582902D01*
X50214286Y-17582902D02*
X49909524Y-17582902D01*
X50633333Y-17163855D02*
X51128571Y-17163855D01*
X51128571Y-17163855D02*
X50861905Y-17468617D01*
X50861905Y-17468617D02*
X50976190Y-17468617D01*
X50976190Y-17468617D02*
X51052381Y-17506712D01*
X51052381Y-17506712D02*
X51090476Y-17544807D01*
X51090476Y-17544807D02*
X51128571Y-17620998D01*
X51128571Y-17620998D02*
X51128571Y-17811474D01*
X51128571Y-17811474D02*
X51090476Y-17887664D01*
X51090476Y-17887664D02*
X51052381Y-17925760D01*
X51052381Y-17925760D02*
X50976190Y-17963855D01*
X50976190Y-17963855D02*
X50747619Y-17963855D01*
X50747619Y-17963855D02*
X50671428Y-17925760D01*
X50671428Y-17925760D02*
X50633333Y-17887664D01*
X73485714Y-35834064D02*
X73447618Y-35872160D01*
X73447618Y-35872160D02*
X73333333Y-35910255D01*
X73333333Y-35910255D02*
X73257142Y-35910255D01*
X73257142Y-35910255D02*
X73142856Y-35872160D01*
X73142856Y-35872160D02*
X73066666Y-35795969D01*
X73066666Y-35795969D02*
X73028571Y-35719779D01*
X73028571Y-35719779D02*
X72990475Y-35567398D01*
X72990475Y-35567398D02*
X72990475Y-35453112D01*
X72990475Y-35453112D02*
X73028571Y-35300731D01*
X73028571Y-35300731D02*
X73066666Y-35224540D01*
X73066666Y-35224540D02*
X73142856Y-35148350D01*
X73142856Y-35148350D02*
X73257142Y-35110255D01*
X73257142Y-35110255D02*
X73333333Y-35110255D01*
X73333333Y-35110255D02*
X73447618Y-35148350D01*
X73447618Y-35148350D02*
X73485714Y-35186445D01*
X74247618Y-35910255D02*
X73790475Y-35910255D01*
X74019047Y-35910255D02*
X74019047Y-35110255D01*
X74019047Y-35110255D02*
X73942856Y-35224540D01*
X73942856Y-35224540D02*
X73866666Y-35300731D01*
X73866666Y-35300731D02*
X73790475Y-35338826D01*
X74514285Y-35110255D02*
X75047619Y-35110255D01*
X75047619Y-35110255D02*
X74704761Y-35910255D01*
X19390476Y-26930255D02*
X19390476Y-27577874D01*
X19390476Y-27577874D02*
X19428571Y-27654064D01*
X19428571Y-27654064D02*
X19466666Y-27692160D01*
X19466666Y-27692160D02*
X19542857Y-27730255D01*
X19542857Y-27730255D02*
X19695238Y-27730255D01*
X19695238Y-27730255D02*
X19771428Y-27692160D01*
X19771428Y-27692160D02*
X19809523Y-27654064D01*
X19809523Y-27654064D02*
X19847619Y-27577874D01*
X19847619Y-27577874D02*
X19847619Y-26930255D01*
X20647618Y-27730255D02*
X20190475Y-27730255D01*
X20419047Y-27730255D02*
X20419047Y-26930255D01*
X20419047Y-26930255D02*
X20342856Y-27044540D01*
X20342856Y-27044540D02*
X20266666Y-27120731D01*
X20266666Y-27120731D02*
X20190475Y-27158826D01*
X51835714Y-11954064D02*
X51797618Y-11992160D01*
X51797618Y-11992160D02*
X51683333Y-12030255D01*
X51683333Y-12030255D02*
X51607142Y-12030255D01*
X51607142Y-12030255D02*
X51492856Y-11992160D01*
X51492856Y-11992160D02*
X51416666Y-11915969D01*
X51416666Y-11915969D02*
X51378571Y-11839779D01*
X51378571Y-11839779D02*
X51340475Y-11687398D01*
X51340475Y-11687398D02*
X51340475Y-11573112D01*
X51340475Y-11573112D02*
X51378571Y-11420731D01*
X51378571Y-11420731D02*
X51416666Y-11344540D01*
X51416666Y-11344540D02*
X51492856Y-11268350D01*
X51492856Y-11268350D02*
X51607142Y-11230255D01*
X51607142Y-11230255D02*
X51683333Y-11230255D01*
X51683333Y-11230255D02*
X51797618Y-11268350D01*
X51797618Y-11268350D02*
X51835714Y-11306445D01*
X52140475Y-11306445D02*
X52178571Y-11268350D01*
X52178571Y-11268350D02*
X52254761Y-11230255D01*
X52254761Y-11230255D02*
X52445237Y-11230255D01*
X52445237Y-11230255D02*
X52521428Y-11268350D01*
X52521428Y-11268350D02*
X52559523Y-11306445D01*
X52559523Y-11306445D02*
X52597618Y-11382636D01*
X52597618Y-11382636D02*
X52597618Y-11458826D01*
X52597618Y-11458826D02*
X52559523Y-11573112D01*
X52559523Y-11573112D02*
X52102380Y-12030255D01*
X52102380Y-12030255D02*
X52597618Y-12030255D01*
X53092857Y-11230255D02*
X53169047Y-11230255D01*
X53169047Y-11230255D02*
X53245238Y-11268350D01*
X53245238Y-11268350D02*
X53283333Y-11306445D01*
X53283333Y-11306445D02*
X53321428Y-11382636D01*
X53321428Y-11382636D02*
X53359523Y-11535017D01*
X53359523Y-11535017D02*
X53359523Y-11725493D01*
X53359523Y-11725493D02*
X53321428Y-11877874D01*
X53321428Y-11877874D02*
X53283333Y-11954064D01*
X53283333Y-11954064D02*
X53245238Y-11992160D01*
X53245238Y-11992160D02*
X53169047Y-12030255D01*
X53169047Y-12030255D02*
X53092857Y-12030255D01*
X53092857Y-12030255D02*
X53016666Y-11992160D01*
X53016666Y-11992160D02*
X52978571Y-11954064D01*
X52978571Y-11954064D02*
X52940476Y-11877874D01*
X52940476Y-11877874D02*
X52902380Y-11725493D01*
X52902380Y-11725493D02*
X52902380Y-11535017D01*
X52902380Y-11535017D02*
X52940476Y-11382636D01*
X52940476Y-11382636D02*
X52978571Y-11306445D01*
X52978571Y-11306445D02*
X53016666Y-11268350D01*
X53016666Y-11268350D02*
X53092857Y-11230255D01*
X36690476Y-53560255D02*
X37147619Y-53560255D01*
X36919047Y-54360255D02*
X36919047Y-53560255D01*
X37414286Y-54360255D02*
X37414286Y-53560255D01*
X37414286Y-53560255D02*
X37719048Y-53560255D01*
X37719048Y-53560255D02*
X37795238Y-53598350D01*
X37795238Y-53598350D02*
X37833333Y-53636445D01*
X37833333Y-53636445D02*
X37871429Y-53712636D01*
X37871429Y-53712636D02*
X37871429Y-53826921D01*
X37871429Y-53826921D02*
X37833333Y-53903112D01*
X37833333Y-53903112D02*
X37795238Y-53941207D01*
X37795238Y-53941207D02*
X37719048Y-53979302D01*
X37719048Y-53979302D02*
X37414286Y-53979302D01*
X38557143Y-53560255D02*
X38404762Y-53560255D01*
X38404762Y-53560255D02*
X38328571Y-53598350D01*
X38328571Y-53598350D02*
X38290476Y-53636445D01*
X38290476Y-53636445D02*
X38214286Y-53750731D01*
X38214286Y-53750731D02*
X38176190Y-53903112D01*
X38176190Y-53903112D02*
X38176190Y-54207874D01*
X38176190Y-54207874D02*
X38214286Y-54284064D01*
X38214286Y-54284064D02*
X38252381Y-54322160D01*
X38252381Y-54322160D02*
X38328571Y-54360255D01*
X38328571Y-54360255D02*
X38480952Y-54360255D01*
X38480952Y-54360255D02*
X38557143Y-54322160D01*
X38557143Y-54322160D02*
X38595238Y-54284064D01*
X38595238Y-54284064D02*
X38633333Y-54207874D01*
X38633333Y-54207874D02*
X38633333Y-54017398D01*
X38633333Y-54017398D02*
X38595238Y-53941207D01*
X38595238Y-53941207D02*
X38557143Y-53903112D01*
X38557143Y-53903112D02*
X38480952Y-53865017D01*
X38480952Y-53865017D02*
X38328571Y-53865017D01*
X38328571Y-53865017D02*
X38252381Y-53903112D01*
X38252381Y-53903112D02*
X38214286Y-53941207D01*
X38214286Y-53941207D02*
X38176190Y-54017398D01*
X5733333Y-22910255D02*
X5733333Y-23481683D01*
X5733333Y-23481683D02*
X5695238Y-23595969D01*
X5695238Y-23595969D02*
X5619047Y-23672160D01*
X5619047Y-23672160D02*
X5504762Y-23710255D01*
X5504762Y-23710255D02*
X5428571Y-23710255D01*
X6533333Y-23710255D02*
X6076190Y-23710255D01*
X6304762Y-23710255D02*
X6304762Y-22910255D01*
X6304762Y-22910255D02*
X6228571Y-23024540D01*
X6228571Y-23024540D02*
X6152381Y-23100731D01*
X6152381Y-23100731D02*
X6076190Y-23138826D01*
X58366667Y-20763855D02*
X58100000Y-20382902D01*
X57909524Y-20763855D02*
X57909524Y-19963855D01*
X57909524Y-19963855D02*
X58214286Y-19963855D01*
X58214286Y-19963855D02*
X58290476Y-20001950D01*
X58290476Y-20001950D02*
X58328571Y-20040045D01*
X58328571Y-20040045D02*
X58366667Y-20116236D01*
X58366667Y-20116236D02*
X58366667Y-20230521D01*
X58366667Y-20230521D02*
X58328571Y-20306712D01*
X58328571Y-20306712D02*
X58290476Y-20344807D01*
X58290476Y-20344807D02*
X58214286Y-20382902D01*
X58214286Y-20382902D02*
X57909524Y-20382902D01*
X58671428Y-20040045D02*
X58709524Y-20001950D01*
X58709524Y-20001950D02*
X58785714Y-19963855D01*
X58785714Y-19963855D02*
X58976190Y-19963855D01*
X58976190Y-19963855D02*
X59052381Y-20001950D01*
X59052381Y-20001950D02*
X59090476Y-20040045D01*
X59090476Y-20040045D02*
X59128571Y-20116236D01*
X59128571Y-20116236D02*
X59128571Y-20192426D01*
X59128571Y-20192426D02*
X59090476Y-20306712D01*
X59090476Y-20306712D02*
X58633333Y-20763855D01*
X58633333Y-20763855D02*
X59128571Y-20763855D01*
X46485714Y-27884064D02*
X46447618Y-27922160D01*
X46447618Y-27922160D02*
X46333333Y-27960255D01*
X46333333Y-27960255D02*
X46257142Y-27960255D01*
X46257142Y-27960255D02*
X46142856Y-27922160D01*
X46142856Y-27922160D02*
X46066666Y-27845969D01*
X46066666Y-27845969D02*
X46028571Y-27769779D01*
X46028571Y-27769779D02*
X45990475Y-27617398D01*
X45990475Y-27617398D02*
X45990475Y-27503112D01*
X45990475Y-27503112D02*
X46028571Y-27350731D01*
X46028571Y-27350731D02*
X46066666Y-27274540D01*
X46066666Y-27274540D02*
X46142856Y-27198350D01*
X46142856Y-27198350D02*
X46257142Y-27160255D01*
X46257142Y-27160255D02*
X46333333Y-27160255D01*
X46333333Y-27160255D02*
X46447618Y-27198350D01*
X46447618Y-27198350D02*
X46485714Y-27236445D01*
X47247618Y-27960255D02*
X46790475Y-27960255D01*
X47019047Y-27960255D02*
X47019047Y-27160255D01*
X47019047Y-27160255D02*
X46942856Y-27274540D01*
X46942856Y-27274540D02*
X46866666Y-27350731D01*
X46866666Y-27350731D02*
X46790475Y-27388826D01*
X47514285Y-27160255D02*
X48009523Y-27160255D01*
X48009523Y-27160255D02*
X47742857Y-27465017D01*
X47742857Y-27465017D02*
X47857142Y-27465017D01*
X47857142Y-27465017D02*
X47933333Y-27503112D01*
X47933333Y-27503112D02*
X47971428Y-27541207D01*
X47971428Y-27541207D02*
X48009523Y-27617398D01*
X48009523Y-27617398D02*
X48009523Y-27807874D01*
X48009523Y-27807874D02*
X47971428Y-27884064D01*
X47971428Y-27884064D02*
X47933333Y-27922160D01*
X47933333Y-27922160D02*
X47857142Y-27960255D01*
X47857142Y-27960255D02*
X47628571Y-27960255D01*
X47628571Y-27960255D02*
X47552380Y-27922160D01*
X47552380Y-27922160D02*
X47514285Y-27884064D01*
X44310476Y-53560255D02*
X44767619Y-53560255D01*
X44539047Y-54360255D02*
X44539047Y-53560255D01*
X45034286Y-54360255D02*
X45034286Y-53560255D01*
X45034286Y-53560255D02*
X45339048Y-53560255D01*
X45339048Y-53560255D02*
X45415238Y-53598350D01*
X45415238Y-53598350D02*
X45453333Y-53636445D01*
X45453333Y-53636445D02*
X45491429Y-53712636D01*
X45491429Y-53712636D02*
X45491429Y-53826921D01*
X45491429Y-53826921D02*
X45453333Y-53903112D01*
X45453333Y-53903112D02*
X45415238Y-53941207D01*
X45415238Y-53941207D02*
X45339048Y-53979302D01*
X45339048Y-53979302D02*
X45034286Y-53979302D01*
X45872381Y-54360255D02*
X46024762Y-54360255D01*
X46024762Y-54360255D02*
X46100952Y-54322160D01*
X46100952Y-54322160D02*
X46139048Y-54284064D01*
X46139048Y-54284064D02*
X46215238Y-54169779D01*
X46215238Y-54169779D02*
X46253333Y-54017398D01*
X46253333Y-54017398D02*
X46253333Y-53712636D01*
X46253333Y-53712636D02*
X46215238Y-53636445D01*
X46215238Y-53636445D02*
X46177143Y-53598350D01*
X46177143Y-53598350D02*
X46100952Y-53560255D01*
X46100952Y-53560255D02*
X45948571Y-53560255D01*
X45948571Y-53560255D02*
X45872381Y-53598350D01*
X45872381Y-53598350D02*
X45834286Y-53636445D01*
X45834286Y-53636445D02*
X45796190Y-53712636D01*
X45796190Y-53712636D02*
X45796190Y-53903112D01*
X45796190Y-53903112D02*
X45834286Y-53979302D01*
X45834286Y-53979302D02*
X45872381Y-54017398D01*
X45872381Y-54017398D02*
X45948571Y-54055493D01*
X45948571Y-54055493D02*
X46100952Y-54055493D01*
X46100952Y-54055493D02*
X46177143Y-54017398D01*
X46177143Y-54017398D02*
X46215238Y-53979302D01*
X46215238Y-53979302D02*
X46253333Y-53903112D01*
X77463855Y-38779523D02*
X76663855Y-38779523D01*
X76663855Y-38779523D02*
X77463855Y-38322380D01*
X77463855Y-38322380D02*
X76663855Y-38322380D01*
X76663855Y-38055714D02*
X76663855Y-37598571D01*
X77463855Y-37827143D02*
X76663855Y-37827143D01*
X77463855Y-36912857D02*
X77463855Y-37370000D01*
X77463855Y-37141428D02*
X76663855Y-37141428D01*
X76663855Y-37141428D02*
X76778140Y-37217619D01*
X76778140Y-37217619D02*
X76854331Y-37293809D01*
X76854331Y-37293809D02*
X76892426Y-37370000D01*
X41770476Y-53560255D02*
X42227619Y-53560255D01*
X41999047Y-54360255D02*
X41999047Y-53560255D01*
X42494286Y-54360255D02*
X42494286Y-53560255D01*
X42494286Y-53560255D02*
X42799048Y-53560255D01*
X42799048Y-53560255D02*
X42875238Y-53598350D01*
X42875238Y-53598350D02*
X42913333Y-53636445D01*
X42913333Y-53636445D02*
X42951429Y-53712636D01*
X42951429Y-53712636D02*
X42951429Y-53826921D01*
X42951429Y-53826921D02*
X42913333Y-53903112D01*
X42913333Y-53903112D02*
X42875238Y-53941207D01*
X42875238Y-53941207D02*
X42799048Y-53979302D01*
X42799048Y-53979302D02*
X42494286Y-53979302D01*
X43408571Y-53903112D02*
X43332381Y-53865017D01*
X43332381Y-53865017D02*
X43294286Y-53826921D01*
X43294286Y-53826921D02*
X43256190Y-53750731D01*
X43256190Y-53750731D02*
X43256190Y-53712636D01*
X43256190Y-53712636D02*
X43294286Y-53636445D01*
X43294286Y-53636445D02*
X43332381Y-53598350D01*
X43332381Y-53598350D02*
X43408571Y-53560255D01*
X43408571Y-53560255D02*
X43560952Y-53560255D01*
X43560952Y-53560255D02*
X43637143Y-53598350D01*
X43637143Y-53598350D02*
X43675238Y-53636445D01*
X43675238Y-53636445D02*
X43713333Y-53712636D01*
X43713333Y-53712636D02*
X43713333Y-53750731D01*
X43713333Y-53750731D02*
X43675238Y-53826921D01*
X43675238Y-53826921D02*
X43637143Y-53865017D01*
X43637143Y-53865017D02*
X43560952Y-53903112D01*
X43560952Y-53903112D02*
X43408571Y-53903112D01*
X43408571Y-53903112D02*
X43332381Y-53941207D01*
X43332381Y-53941207D02*
X43294286Y-53979302D01*
X43294286Y-53979302D02*
X43256190Y-54055493D01*
X43256190Y-54055493D02*
X43256190Y-54207874D01*
X43256190Y-54207874D02*
X43294286Y-54284064D01*
X43294286Y-54284064D02*
X43332381Y-54322160D01*
X43332381Y-54322160D02*
X43408571Y-54360255D01*
X43408571Y-54360255D02*
X43560952Y-54360255D01*
X43560952Y-54360255D02*
X43637143Y-54322160D01*
X43637143Y-54322160D02*
X43675238Y-54284064D01*
X43675238Y-54284064D02*
X43713333Y-54207874D01*
X43713333Y-54207874D02*
X43713333Y-54055493D01*
X43713333Y-54055493D02*
X43675238Y-53979302D01*
X43675238Y-53979302D02*
X43637143Y-53941207D01*
X43637143Y-53941207D02*
X43560952Y-53903112D01*
X65485714Y-47963855D02*
X65219047Y-47582902D01*
X65028571Y-47963855D02*
X65028571Y-47163855D01*
X65028571Y-47163855D02*
X65333333Y-47163855D01*
X65333333Y-47163855D02*
X65409523Y-47201950D01*
X65409523Y-47201950D02*
X65447618Y-47240045D01*
X65447618Y-47240045D02*
X65485714Y-47316236D01*
X65485714Y-47316236D02*
X65485714Y-47430521D01*
X65485714Y-47430521D02*
X65447618Y-47506712D01*
X65447618Y-47506712D02*
X65409523Y-47544807D01*
X65409523Y-47544807D02*
X65333333Y-47582902D01*
X65333333Y-47582902D02*
X65028571Y-47582902D01*
X66247618Y-47963855D02*
X65790475Y-47963855D01*
X66019047Y-47963855D02*
X66019047Y-47163855D01*
X66019047Y-47163855D02*
X65942856Y-47278140D01*
X65942856Y-47278140D02*
X65866666Y-47354331D01*
X65866666Y-47354331D02*
X65790475Y-47392426D01*
X67009523Y-47963855D02*
X66552380Y-47963855D01*
X66780952Y-47963855D02*
X66780952Y-47163855D01*
X66780952Y-47163855D02*
X66704761Y-47278140D01*
X66704761Y-47278140D02*
X66628571Y-47354331D01*
X66628571Y-47354331D02*
X66552380Y-47392426D01*
X26923809Y-26836445D02*
X26847619Y-26798350D01*
X26847619Y-26798350D02*
X26771428Y-26722160D01*
X26771428Y-26722160D02*
X26657142Y-26607874D01*
X26657142Y-26607874D02*
X26580952Y-26569779D01*
X26580952Y-26569779D02*
X26504761Y-26569779D01*
X26542857Y-26760255D02*
X26466666Y-26722160D01*
X26466666Y-26722160D02*
X26390476Y-26645969D01*
X26390476Y-26645969D02*
X26352380Y-26493588D01*
X26352380Y-26493588D02*
X26352380Y-26226921D01*
X26352380Y-26226921D02*
X26390476Y-26074540D01*
X26390476Y-26074540D02*
X26466666Y-25998350D01*
X26466666Y-25998350D02*
X26542857Y-25960255D01*
X26542857Y-25960255D02*
X26695238Y-25960255D01*
X26695238Y-25960255D02*
X26771428Y-25998350D01*
X26771428Y-25998350D02*
X26847619Y-26074540D01*
X26847619Y-26074540D02*
X26885714Y-26226921D01*
X26885714Y-26226921D02*
X26885714Y-26493588D01*
X26885714Y-26493588D02*
X26847619Y-26645969D01*
X26847619Y-26645969D02*
X26771428Y-26722160D01*
X26771428Y-26722160D02*
X26695238Y-26760255D01*
X26695238Y-26760255D02*
X26542857Y-26760255D01*
X27647618Y-26760255D02*
X27190475Y-26760255D01*
X27419047Y-26760255D02*
X27419047Y-25960255D01*
X27419047Y-25960255D02*
X27342856Y-26074540D01*
X27342856Y-26074540D02*
X27266666Y-26150731D01*
X27266666Y-26150731D02*
X27190475Y-26188826D01*
X26530476Y-53560255D02*
X26987619Y-53560255D01*
X26759047Y-54360255D02*
X26759047Y-53560255D01*
X27254286Y-54360255D02*
X27254286Y-53560255D01*
X27254286Y-53560255D02*
X27559048Y-53560255D01*
X27559048Y-53560255D02*
X27635238Y-53598350D01*
X27635238Y-53598350D02*
X27673333Y-53636445D01*
X27673333Y-53636445D02*
X27711429Y-53712636D01*
X27711429Y-53712636D02*
X27711429Y-53826921D01*
X27711429Y-53826921D02*
X27673333Y-53903112D01*
X27673333Y-53903112D02*
X27635238Y-53941207D01*
X27635238Y-53941207D02*
X27559048Y-53979302D01*
X27559048Y-53979302D02*
X27254286Y-53979302D01*
X28016190Y-53636445D02*
X28054286Y-53598350D01*
X28054286Y-53598350D02*
X28130476Y-53560255D01*
X28130476Y-53560255D02*
X28320952Y-53560255D01*
X28320952Y-53560255D02*
X28397143Y-53598350D01*
X28397143Y-53598350D02*
X28435238Y-53636445D01*
X28435238Y-53636445D02*
X28473333Y-53712636D01*
X28473333Y-53712636D02*
X28473333Y-53788826D01*
X28473333Y-53788826D02*
X28435238Y-53903112D01*
X28435238Y-53903112D02*
X27978095Y-54360255D01*
X27978095Y-54360255D02*
X28473333Y-54360255D01*
X72330952Y-48883855D02*
X72330952Y-48083855D01*
X72330952Y-48083855D02*
X72788095Y-48883855D01*
X72788095Y-48883855D02*
X72788095Y-48083855D01*
X73054761Y-48083855D02*
X73511904Y-48083855D01*
X73283332Y-48883855D02*
X73283332Y-48083855D01*
X73740475Y-48160045D02*
X73778571Y-48121950D01*
X73778571Y-48121950D02*
X73854761Y-48083855D01*
X73854761Y-48083855D02*
X74045237Y-48083855D01*
X74045237Y-48083855D02*
X74121428Y-48121950D01*
X74121428Y-48121950D02*
X74159523Y-48160045D01*
X74159523Y-48160045D02*
X74197618Y-48236236D01*
X74197618Y-48236236D02*
X74197618Y-48312426D01*
X74197618Y-48312426D02*
X74159523Y-48426712D01*
X74159523Y-48426712D02*
X73702380Y-48883855D01*
X73702380Y-48883855D02*
X74197618Y-48883855D01*
X35566667Y-29963855D02*
X35300000Y-29582902D01*
X35109524Y-29963855D02*
X35109524Y-29163855D01*
X35109524Y-29163855D02*
X35414286Y-29163855D01*
X35414286Y-29163855D02*
X35490476Y-29201950D01*
X35490476Y-29201950D02*
X35528571Y-29240045D01*
X35528571Y-29240045D02*
X35566667Y-29316236D01*
X35566667Y-29316236D02*
X35566667Y-29430521D01*
X35566667Y-29430521D02*
X35528571Y-29506712D01*
X35528571Y-29506712D02*
X35490476Y-29544807D01*
X35490476Y-29544807D02*
X35414286Y-29582902D01*
X35414286Y-29582902D02*
X35109524Y-29582902D01*
X35871428Y-29925760D02*
X35985714Y-29963855D01*
X35985714Y-29963855D02*
X36176190Y-29963855D01*
X36176190Y-29963855D02*
X36252381Y-29925760D01*
X36252381Y-29925760D02*
X36290476Y-29887664D01*
X36290476Y-29887664D02*
X36328571Y-29811474D01*
X36328571Y-29811474D02*
X36328571Y-29735283D01*
X36328571Y-29735283D02*
X36290476Y-29659093D01*
X36290476Y-29659093D02*
X36252381Y-29620998D01*
X36252381Y-29620998D02*
X36176190Y-29582902D01*
X36176190Y-29582902D02*
X36023809Y-29544807D01*
X36023809Y-29544807D02*
X35947619Y-29506712D01*
X35947619Y-29506712D02*
X35909524Y-29468617D01*
X35909524Y-29468617D02*
X35871428Y-29392426D01*
X35871428Y-29392426D02*
X35871428Y-29316236D01*
X35871428Y-29316236D02*
X35909524Y-29240045D01*
X35909524Y-29240045D02*
X35947619Y-29201950D01*
X35947619Y-29201950D02*
X36023809Y-29163855D01*
X36023809Y-29163855D02*
X36214286Y-29163855D01*
X36214286Y-29163855D02*
X36328571Y-29201950D01*
X36671429Y-29963855D02*
X36671429Y-29163855D01*
X36671429Y-29544807D02*
X37128572Y-29544807D01*
X37128572Y-29963855D02*
X37128572Y-29163855D01*
X37928571Y-29963855D02*
X37471428Y-29963855D01*
X37700000Y-29963855D02*
X37700000Y-29163855D01*
X37700000Y-29163855D02*
X37623809Y-29278140D01*
X37623809Y-29278140D02*
X37547619Y-29354331D01*
X37547619Y-29354331D02*
X37471428Y-29392426D01*
X68485714Y-42834064D02*
X68447618Y-42872160D01*
X68447618Y-42872160D02*
X68333333Y-42910255D01*
X68333333Y-42910255D02*
X68257142Y-42910255D01*
X68257142Y-42910255D02*
X68142856Y-42872160D01*
X68142856Y-42872160D02*
X68066666Y-42795969D01*
X68066666Y-42795969D02*
X68028571Y-42719779D01*
X68028571Y-42719779D02*
X67990475Y-42567398D01*
X67990475Y-42567398D02*
X67990475Y-42453112D01*
X67990475Y-42453112D02*
X68028571Y-42300731D01*
X68028571Y-42300731D02*
X68066666Y-42224540D01*
X68066666Y-42224540D02*
X68142856Y-42148350D01*
X68142856Y-42148350D02*
X68257142Y-42110255D01*
X68257142Y-42110255D02*
X68333333Y-42110255D01*
X68333333Y-42110255D02*
X68447618Y-42148350D01*
X68447618Y-42148350D02*
X68485714Y-42186445D01*
X69247618Y-42910255D02*
X68790475Y-42910255D01*
X69019047Y-42910255D02*
X69019047Y-42110255D01*
X69019047Y-42110255D02*
X68942856Y-42224540D01*
X68942856Y-42224540D02*
X68866666Y-42300731D01*
X68866666Y-42300731D02*
X68790475Y-42338826D01*
X69704761Y-42453112D02*
X69628571Y-42415017D01*
X69628571Y-42415017D02*
X69590476Y-42376921D01*
X69590476Y-42376921D02*
X69552380Y-42300731D01*
X69552380Y-42300731D02*
X69552380Y-42262636D01*
X69552380Y-42262636D02*
X69590476Y-42186445D01*
X69590476Y-42186445D02*
X69628571Y-42148350D01*
X69628571Y-42148350D02*
X69704761Y-42110255D01*
X69704761Y-42110255D02*
X69857142Y-42110255D01*
X69857142Y-42110255D02*
X69933333Y-42148350D01*
X69933333Y-42148350D02*
X69971428Y-42186445D01*
X69971428Y-42186445D02*
X70009523Y-42262636D01*
X70009523Y-42262636D02*
X70009523Y-42300731D01*
X70009523Y-42300731D02*
X69971428Y-42376921D01*
X69971428Y-42376921D02*
X69933333Y-42415017D01*
X69933333Y-42415017D02*
X69857142Y-42453112D01*
X69857142Y-42453112D02*
X69704761Y-42453112D01*
X69704761Y-42453112D02*
X69628571Y-42491207D01*
X69628571Y-42491207D02*
X69590476Y-42529302D01*
X69590476Y-42529302D02*
X69552380Y-42605493D01*
X69552380Y-42605493D02*
X69552380Y-42757874D01*
X69552380Y-42757874D02*
X69590476Y-42834064D01*
X69590476Y-42834064D02*
X69628571Y-42872160D01*
X69628571Y-42872160D02*
X69704761Y-42910255D01*
X69704761Y-42910255D02*
X69857142Y-42910255D01*
X69857142Y-42910255D02*
X69933333Y-42872160D01*
X69933333Y-42872160D02*
X69971428Y-42834064D01*
X69971428Y-42834064D02*
X70009523Y-42757874D01*
X70009523Y-42757874D02*
X70009523Y-42605493D01*
X70009523Y-42605493D02*
X69971428Y-42529302D01*
X69971428Y-42529302D02*
X69933333Y-42491207D01*
X69933333Y-42491207D02*
X69857142Y-42453112D01*
X73180255Y-55514285D02*
X72799302Y-55780952D01*
X73180255Y-55971428D02*
X72380255Y-55971428D01*
X72380255Y-55971428D02*
X72380255Y-55666666D01*
X72380255Y-55666666D02*
X72418350Y-55590476D01*
X72418350Y-55590476D02*
X72456445Y-55552381D01*
X72456445Y-55552381D02*
X72532636Y-55514285D01*
X72532636Y-55514285D02*
X72646921Y-55514285D01*
X72646921Y-55514285D02*
X72723112Y-55552381D01*
X72723112Y-55552381D02*
X72761207Y-55590476D01*
X72761207Y-55590476D02*
X72799302Y-55666666D01*
X72799302Y-55666666D02*
X72799302Y-55971428D01*
X73180255Y-54752381D02*
X73180255Y-55209524D01*
X73180255Y-54980952D02*
X72380255Y-54980952D01*
X72380255Y-54980952D02*
X72494540Y-55057143D01*
X72494540Y-55057143D02*
X72570731Y-55133333D01*
X72570731Y-55133333D02*
X72608826Y-55209524D01*
X72380255Y-54485714D02*
X72380255Y-53990476D01*
X72380255Y-53990476D02*
X72685017Y-54257142D01*
X72685017Y-54257142D02*
X72685017Y-54142857D01*
X72685017Y-54142857D02*
X72723112Y-54066666D01*
X72723112Y-54066666D02*
X72761207Y-54028571D01*
X72761207Y-54028571D02*
X72837398Y-53990476D01*
X72837398Y-53990476D02*
X73027874Y-53990476D01*
X73027874Y-53990476D02*
X73104064Y-54028571D01*
X73104064Y-54028571D02*
X73142160Y-54066666D01*
X73142160Y-54066666D02*
X73180255Y-54142857D01*
X73180255Y-54142857D02*
X73180255Y-54371428D01*
X73180255Y-54371428D02*
X73142160Y-54447619D01*
X73142160Y-54447619D02*
X73104064Y-54485714D01*
X52890476Y-15917455D02*
X52890476Y-16565074D01*
X52890476Y-16565074D02*
X52928571Y-16641264D01*
X52928571Y-16641264D02*
X52966666Y-16679360D01*
X52966666Y-16679360D02*
X53042857Y-16717455D01*
X53042857Y-16717455D02*
X53195238Y-16717455D01*
X53195238Y-16717455D02*
X53271428Y-16679360D01*
X53271428Y-16679360D02*
X53309523Y-16641264D01*
X53309523Y-16641264D02*
X53347619Y-16565074D01*
X53347619Y-16565074D02*
X53347619Y-15917455D01*
X53652380Y-15917455D02*
X54147618Y-15917455D01*
X54147618Y-15917455D02*
X53880952Y-16222217D01*
X53880952Y-16222217D02*
X53995237Y-16222217D01*
X53995237Y-16222217D02*
X54071428Y-16260312D01*
X54071428Y-16260312D02*
X54109523Y-16298407D01*
X54109523Y-16298407D02*
X54147618Y-16374598D01*
X54147618Y-16374598D02*
X54147618Y-16565074D01*
X54147618Y-16565074D02*
X54109523Y-16641264D01*
X54109523Y-16641264D02*
X54071428Y-16679360D01*
X54071428Y-16679360D02*
X53995237Y-16717455D01*
X53995237Y-16717455D02*
X53766666Y-16717455D01*
X53766666Y-16717455D02*
X53690475Y-16679360D01*
X53690475Y-16679360D02*
X53652380Y-16641264D01*
X52866667Y-19963855D02*
X52600000Y-19582902D01*
X52409524Y-19963855D02*
X52409524Y-19163855D01*
X52409524Y-19163855D02*
X52714286Y-19163855D01*
X52714286Y-19163855D02*
X52790476Y-19201950D01*
X52790476Y-19201950D02*
X52828571Y-19240045D01*
X52828571Y-19240045D02*
X52866667Y-19316236D01*
X52866667Y-19316236D02*
X52866667Y-19430521D01*
X52866667Y-19430521D02*
X52828571Y-19506712D01*
X52828571Y-19506712D02*
X52790476Y-19544807D01*
X52790476Y-19544807D02*
X52714286Y-19582902D01*
X52714286Y-19582902D02*
X52409524Y-19582902D01*
X53552381Y-19430521D02*
X53552381Y-19963855D01*
X53361905Y-19125760D02*
X53171428Y-19697188D01*
X53171428Y-19697188D02*
X53666667Y-19697188D01*
X62366666Y-43763855D02*
X61985714Y-43763855D01*
X61985714Y-43763855D02*
X61985714Y-42963855D01*
X62595237Y-43040045D02*
X62633333Y-43001950D01*
X62633333Y-43001950D02*
X62709523Y-42963855D01*
X62709523Y-42963855D02*
X62899999Y-42963855D01*
X62899999Y-42963855D02*
X62976190Y-43001950D01*
X62976190Y-43001950D02*
X63014285Y-43040045D01*
X63014285Y-43040045D02*
X63052380Y-43116236D01*
X63052380Y-43116236D02*
X63052380Y-43192426D01*
X63052380Y-43192426D02*
X63014285Y-43306712D01*
X63014285Y-43306712D02*
X62557142Y-43763855D01*
X62557142Y-43763855D02*
X63052380Y-43763855D01*
X76747455Y-57014285D02*
X76366502Y-57280952D01*
X76747455Y-57471428D02*
X75947455Y-57471428D01*
X75947455Y-57471428D02*
X75947455Y-57166666D01*
X75947455Y-57166666D02*
X75985550Y-57090476D01*
X75985550Y-57090476D02*
X76023645Y-57052381D01*
X76023645Y-57052381D02*
X76099836Y-57014285D01*
X76099836Y-57014285D02*
X76214121Y-57014285D01*
X76214121Y-57014285D02*
X76290312Y-57052381D01*
X76290312Y-57052381D02*
X76328407Y-57090476D01*
X76328407Y-57090476D02*
X76366502Y-57166666D01*
X76366502Y-57166666D02*
X76366502Y-57471428D01*
X76747455Y-56252381D02*
X76747455Y-56709524D01*
X76747455Y-56480952D02*
X75947455Y-56480952D01*
X75947455Y-56480952D02*
X76061740Y-56557143D01*
X76061740Y-56557143D02*
X76137931Y-56633333D01*
X76137931Y-56633333D02*
X76176026Y-56709524D01*
X76214121Y-55566666D02*
X76747455Y-55566666D01*
X75909360Y-55757142D02*
X76480788Y-55947619D01*
X76480788Y-55947619D02*
X76480788Y-55452380D01*
X54866667Y-47963855D02*
X54600000Y-47582902D01*
X54409524Y-47963855D02*
X54409524Y-47163855D01*
X54409524Y-47163855D02*
X54714286Y-47163855D01*
X54714286Y-47163855D02*
X54790476Y-47201950D01*
X54790476Y-47201950D02*
X54828571Y-47240045D01*
X54828571Y-47240045D02*
X54866667Y-47316236D01*
X54866667Y-47316236D02*
X54866667Y-47430521D01*
X54866667Y-47430521D02*
X54828571Y-47506712D01*
X54828571Y-47506712D02*
X54790476Y-47544807D01*
X54790476Y-47544807D02*
X54714286Y-47582902D01*
X54714286Y-47582902D02*
X54409524Y-47582902D01*
X55247619Y-47963855D02*
X55400000Y-47963855D01*
X55400000Y-47963855D02*
X55476190Y-47925760D01*
X55476190Y-47925760D02*
X55514286Y-47887664D01*
X55514286Y-47887664D02*
X55590476Y-47773379D01*
X55590476Y-47773379D02*
X55628571Y-47620998D01*
X55628571Y-47620998D02*
X55628571Y-47316236D01*
X55628571Y-47316236D02*
X55590476Y-47240045D01*
X55590476Y-47240045D02*
X55552381Y-47201950D01*
X55552381Y-47201950D02*
X55476190Y-47163855D01*
X55476190Y-47163855D02*
X55323809Y-47163855D01*
X55323809Y-47163855D02*
X55247619Y-47201950D01*
X55247619Y-47201950D02*
X55209524Y-47240045D01*
X55209524Y-47240045D02*
X55171428Y-47316236D01*
X55171428Y-47316236D02*
X55171428Y-47506712D01*
X55171428Y-47506712D02*
X55209524Y-47582902D01*
X55209524Y-47582902D02*
X55247619Y-47620998D01*
X55247619Y-47620998D02*
X55323809Y-47659093D01*
X55323809Y-47659093D02*
X55476190Y-47659093D01*
X55476190Y-47659093D02*
X55552381Y-47620998D01*
X55552381Y-47620998D02*
X55590476Y-47582902D01*
X55590476Y-47582902D02*
X55628571Y-47506712D01*
X43390476Y-21163855D02*
X43390476Y-21811474D01*
X43390476Y-21811474D02*
X43428571Y-21887664D01*
X43428571Y-21887664D02*
X43466666Y-21925760D01*
X43466666Y-21925760D02*
X43542857Y-21963855D01*
X43542857Y-21963855D02*
X43695238Y-21963855D01*
X43695238Y-21963855D02*
X43771428Y-21925760D01*
X43771428Y-21925760D02*
X43809523Y-21887664D01*
X43809523Y-21887664D02*
X43847619Y-21811474D01*
X43847619Y-21811474D02*
X43847619Y-21163855D01*
X44190475Y-21240045D02*
X44228571Y-21201950D01*
X44228571Y-21201950D02*
X44304761Y-21163855D01*
X44304761Y-21163855D02*
X44495237Y-21163855D01*
X44495237Y-21163855D02*
X44571428Y-21201950D01*
X44571428Y-21201950D02*
X44609523Y-21240045D01*
X44609523Y-21240045D02*
X44647618Y-21316236D01*
X44647618Y-21316236D02*
X44647618Y-21392426D01*
X44647618Y-21392426D02*
X44609523Y-21506712D01*
X44609523Y-21506712D02*
X44152380Y-21963855D01*
X44152380Y-21963855D02*
X44647618Y-21963855D01*
X68866667Y-35834064D02*
X68828571Y-35872160D01*
X68828571Y-35872160D02*
X68714286Y-35910255D01*
X68714286Y-35910255D02*
X68638095Y-35910255D01*
X68638095Y-35910255D02*
X68523809Y-35872160D01*
X68523809Y-35872160D02*
X68447619Y-35795969D01*
X68447619Y-35795969D02*
X68409524Y-35719779D01*
X68409524Y-35719779D02*
X68371428Y-35567398D01*
X68371428Y-35567398D02*
X68371428Y-35453112D01*
X68371428Y-35453112D02*
X68409524Y-35300731D01*
X68409524Y-35300731D02*
X68447619Y-35224540D01*
X68447619Y-35224540D02*
X68523809Y-35148350D01*
X68523809Y-35148350D02*
X68638095Y-35110255D01*
X68638095Y-35110255D02*
X68714286Y-35110255D01*
X68714286Y-35110255D02*
X68828571Y-35148350D01*
X68828571Y-35148350D02*
X68866667Y-35186445D01*
X69590476Y-35110255D02*
X69209524Y-35110255D01*
X69209524Y-35110255D02*
X69171428Y-35491207D01*
X69171428Y-35491207D02*
X69209524Y-35453112D01*
X69209524Y-35453112D02*
X69285714Y-35415017D01*
X69285714Y-35415017D02*
X69476190Y-35415017D01*
X69476190Y-35415017D02*
X69552381Y-35453112D01*
X69552381Y-35453112D02*
X69590476Y-35491207D01*
X69590476Y-35491207D02*
X69628571Y-35567398D01*
X69628571Y-35567398D02*
X69628571Y-35757874D01*
X69628571Y-35757874D02*
X69590476Y-35834064D01*
X69590476Y-35834064D02*
X69552381Y-35872160D01*
X69552381Y-35872160D02*
X69476190Y-35910255D01*
X69476190Y-35910255D02*
X69285714Y-35910255D01*
X69285714Y-35910255D02*
X69209524Y-35872160D01*
X69209524Y-35872160D02*
X69171428Y-35834064D01*
X12733333Y-26961207D02*
X12466667Y-26961207D01*
X12466667Y-27380255D02*
X12466667Y-26580255D01*
X12466667Y-26580255D02*
X12847619Y-26580255D01*
X13571428Y-27380255D02*
X13114285Y-27380255D01*
X13342857Y-27380255D02*
X13342857Y-26580255D01*
X13342857Y-26580255D02*
X13266666Y-26694540D01*
X13266666Y-26694540D02*
X13190476Y-26770731D01*
X13190476Y-26770731D02*
X13114285Y-26808826D01*
X68866667Y-7834064D02*
X68828571Y-7872160D01*
X68828571Y-7872160D02*
X68714286Y-7910255D01*
X68714286Y-7910255D02*
X68638095Y-7910255D01*
X68638095Y-7910255D02*
X68523809Y-7872160D01*
X68523809Y-7872160D02*
X68447619Y-7795969D01*
X68447619Y-7795969D02*
X68409524Y-7719779D01*
X68409524Y-7719779D02*
X68371428Y-7567398D01*
X68371428Y-7567398D02*
X68371428Y-7453112D01*
X68371428Y-7453112D02*
X68409524Y-7300731D01*
X68409524Y-7300731D02*
X68447619Y-7224540D01*
X68447619Y-7224540D02*
X68523809Y-7148350D01*
X68523809Y-7148350D02*
X68638095Y-7110255D01*
X68638095Y-7110255D02*
X68714286Y-7110255D01*
X68714286Y-7110255D02*
X68828571Y-7148350D01*
X68828571Y-7148350D02*
X68866667Y-7186445D01*
X69133333Y-7110255D02*
X69628571Y-7110255D01*
X69628571Y-7110255D02*
X69361905Y-7415017D01*
X69361905Y-7415017D02*
X69476190Y-7415017D01*
X69476190Y-7415017D02*
X69552381Y-7453112D01*
X69552381Y-7453112D02*
X69590476Y-7491207D01*
X69590476Y-7491207D02*
X69628571Y-7567398D01*
X69628571Y-7567398D02*
X69628571Y-7757874D01*
X69628571Y-7757874D02*
X69590476Y-7834064D01*
X69590476Y-7834064D02*
X69552381Y-7872160D01*
X69552381Y-7872160D02*
X69476190Y-7910255D01*
X69476190Y-7910255D02*
X69247619Y-7910255D01*
X69247619Y-7910255D02*
X69171428Y-7872160D01*
X69171428Y-7872160D02*
X69133333Y-7834064D01*
X48366667Y-20887664D02*
X48328571Y-20925760D01*
X48328571Y-20925760D02*
X48214286Y-20963855D01*
X48214286Y-20963855D02*
X48138095Y-20963855D01*
X48138095Y-20963855D02*
X48023809Y-20925760D01*
X48023809Y-20925760D02*
X47947619Y-20849569D01*
X47947619Y-20849569D02*
X47909524Y-20773379D01*
X47909524Y-20773379D02*
X47871428Y-20620998D01*
X47871428Y-20620998D02*
X47871428Y-20506712D01*
X47871428Y-20506712D02*
X47909524Y-20354331D01*
X47909524Y-20354331D02*
X47947619Y-20278140D01*
X47947619Y-20278140D02*
X48023809Y-20201950D01*
X48023809Y-20201950D02*
X48138095Y-20163855D01*
X48138095Y-20163855D02*
X48214286Y-20163855D01*
X48214286Y-20163855D02*
X48328571Y-20201950D01*
X48328571Y-20201950D02*
X48366667Y-20240045D01*
X48671428Y-20240045D02*
X48709524Y-20201950D01*
X48709524Y-20201950D02*
X48785714Y-20163855D01*
X48785714Y-20163855D02*
X48976190Y-20163855D01*
X48976190Y-20163855D02*
X49052381Y-20201950D01*
X49052381Y-20201950D02*
X49090476Y-20240045D01*
X49090476Y-20240045D02*
X49128571Y-20316236D01*
X49128571Y-20316236D02*
X49128571Y-20392426D01*
X49128571Y-20392426D02*
X49090476Y-20506712D01*
X49090476Y-20506712D02*
X48633333Y-20963855D01*
X48633333Y-20963855D02*
X49128571Y-20963855D01*
X60485714Y-19463855D02*
X60219047Y-19082902D01*
X60028571Y-19463855D02*
X60028571Y-18663855D01*
X60028571Y-18663855D02*
X60333333Y-18663855D01*
X60333333Y-18663855D02*
X60409523Y-18701950D01*
X60409523Y-18701950D02*
X60447618Y-18740045D01*
X60447618Y-18740045D02*
X60485714Y-18816236D01*
X60485714Y-18816236D02*
X60485714Y-18930521D01*
X60485714Y-18930521D02*
X60447618Y-19006712D01*
X60447618Y-19006712D02*
X60409523Y-19044807D01*
X60409523Y-19044807D02*
X60333333Y-19082902D01*
X60333333Y-19082902D02*
X60028571Y-19082902D01*
X61247618Y-19463855D02*
X60790475Y-19463855D01*
X61019047Y-19463855D02*
X61019047Y-18663855D01*
X61019047Y-18663855D02*
X60942856Y-18778140D01*
X60942856Y-18778140D02*
X60866666Y-18854331D01*
X60866666Y-18854331D02*
X60790475Y-18892426D01*
X61971428Y-18663855D02*
X61590476Y-18663855D01*
X61590476Y-18663855D02*
X61552380Y-19044807D01*
X61552380Y-19044807D02*
X61590476Y-19006712D01*
X61590476Y-19006712D02*
X61666666Y-18968617D01*
X61666666Y-18968617D02*
X61857142Y-18968617D01*
X61857142Y-18968617D02*
X61933333Y-19006712D01*
X61933333Y-19006712D02*
X61971428Y-19044807D01*
X61971428Y-19044807D02*
X62009523Y-19120998D01*
X62009523Y-19120998D02*
X62009523Y-19311474D01*
X62009523Y-19311474D02*
X61971428Y-19387664D01*
X61971428Y-19387664D02*
X61933333Y-19425760D01*
X61933333Y-19425760D02*
X61857142Y-19463855D01*
X61857142Y-19463855D02*
X61666666Y-19463855D01*
X61666666Y-19463855D02*
X61590476Y-19425760D01*
X61590476Y-19425760D02*
X61552380Y-19387664D01*
X11760255Y-33112976D02*
X10960255Y-33112976D01*
X10960255Y-33112976D02*
X10960255Y-32922500D01*
X10960255Y-32922500D02*
X10998350Y-32808214D01*
X10998350Y-32808214D02*
X11074540Y-32732024D01*
X11074540Y-32732024D02*
X11150731Y-32693929D01*
X11150731Y-32693929D02*
X11303112Y-32655833D01*
X11303112Y-32655833D02*
X11417398Y-32655833D01*
X11417398Y-32655833D02*
X11569779Y-32693929D01*
X11569779Y-32693929D02*
X11645969Y-32732024D01*
X11645969Y-32732024D02*
X11722160Y-32808214D01*
X11722160Y-32808214D02*
X11760255Y-32922500D01*
X11760255Y-32922500D02*
X11760255Y-33112976D01*
X11760255Y-31893929D02*
X11760255Y-32351072D01*
X11760255Y-32122500D02*
X10960255Y-32122500D01*
X10960255Y-32122500D02*
X11074540Y-32198691D01*
X11074540Y-32198691D02*
X11150731Y-32274881D01*
X11150731Y-32274881D02*
X11188826Y-32351072D01*
X69748809Y-41037664D02*
X69710713Y-41075760D01*
X69710713Y-41075760D02*
X69596428Y-41113855D01*
X69596428Y-41113855D02*
X69520237Y-41113855D01*
X69520237Y-41113855D02*
X69405951Y-41075760D01*
X69405951Y-41075760D02*
X69329761Y-40999569D01*
X69329761Y-40999569D02*
X69291666Y-40923379D01*
X69291666Y-40923379D02*
X69253570Y-40770998D01*
X69253570Y-40770998D02*
X69253570Y-40656712D01*
X69253570Y-40656712D02*
X69291666Y-40504331D01*
X69291666Y-40504331D02*
X69329761Y-40428140D01*
X69329761Y-40428140D02*
X69405951Y-40351950D01*
X69405951Y-40351950D02*
X69520237Y-40313855D01*
X69520237Y-40313855D02*
X69596428Y-40313855D01*
X69596428Y-40313855D02*
X69710713Y-40351950D01*
X69710713Y-40351950D02*
X69748809Y-40390045D01*
X70510713Y-41113855D02*
X70053570Y-41113855D01*
X70282142Y-41113855D02*
X70282142Y-40313855D01*
X70282142Y-40313855D02*
X70205951Y-40428140D01*
X70205951Y-40428140D02*
X70129761Y-40504331D01*
X70129761Y-40504331D02*
X70053570Y-40542426D01*
X70891666Y-41113855D02*
X71044047Y-41113855D01*
X71044047Y-41113855D02*
X71120237Y-41075760D01*
X71120237Y-41075760D02*
X71158333Y-41037664D01*
X71158333Y-41037664D02*
X71234523Y-40923379D01*
X71234523Y-40923379D02*
X71272618Y-40770998D01*
X71272618Y-40770998D02*
X71272618Y-40466236D01*
X71272618Y-40466236D02*
X71234523Y-40390045D01*
X71234523Y-40390045D02*
X71196428Y-40351950D01*
X71196428Y-40351950D02*
X71120237Y-40313855D01*
X71120237Y-40313855D02*
X70967856Y-40313855D01*
X70967856Y-40313855D02*
X70891666Y-40351950D01*
X70891666Y-40351950D02*
X70853571Y-40390045D01*
X70853571Y-40390045D02*
X70815475Y-40466236D01*
X70815475Y-40466236D02*
X70815475Y-40656712D01*
X70815475Y-40656712D02*
X70853571Y-40732902D01*
X70853571Y-40732902D02*
X70891666Y-40770998D01*
X70891666Y-40770998D02*
X70967856Y-40809093D01*
X70967856Y-40809093D02*
X71120237Y-40809093D01*
X71120237Y-40809093D02*
X71196428Y-40770998D01*
X71196428Y-40770998D02*
X71234523Y-40732902D01*
X71234523Y-40732902D02*
X71272618Y-40656712D01*
X48485714Y-11834064D02*
X48447618Y-11872160D01*
X48447618Y-11872160D02*
X48333333Y-11910255D01*
X48333333Y-11910255D02*
X48257142Y-11910255D01*
X48257142Y-11910255D02*
X48142856Y-11872160D01*
X48142856Y-11872160D02*
X48066666Y-11795969D01*
X48066666Y-11795969D02*
X48028571Y-11719779D01*
X48028571Y-11719779D02*
X47990475Y-11567398D01*
X47990475Y-11567398D02*
X47990475Y-11453112D01*
X47990475Y-11453112D02*
X48028571Y-11300731D01*
X48028571Y-11300731D02*
X48066666Y-11224540D01*
X48066666Y-11224540D02*
X48142856Y-11148350D01*
X48142856Y-11148350D02*
X48257142Y-11110255D01*
X48257142Y-11110255D02*
X48333333Y-11110255D01*
X48333333Y-11110255D02*
X48447618Y-11148350D01*
X48447618Y-11148350D02*
X48485714Y-11186445D01*
X49247618Y-11910255D02*
X48790475Y-11910255D01*
X49019047Y-11910255D02*
X49019047Y-11110255D01*
X49019047Y-11110255D02*
X48942856Y-11224540D01*
X48942856Y-11224540D02*
X48866666Y-11300731D01*
X48866666Y-11300731D02*
X48790475Y-11338826D01*
X50009523Y-11910255D02*
X49552380Y-11910255D01*
X49780952Y-11910255D02*
X49780952Y-11110255D01*
X49780952Y-11110255D02*
X49704761Y-11224540D01*
X49704761Y-11224540D02*
X49628571Y-11300731D01*
X49628571Y-11300731D02*
X49552380Y-11338826D01*
X23990476Y-53560255D02*
X24447619Y-53560255D01*
X24219047Y-54360255D02*
X24219047Y-53560255D01*
X24714286Y-54360255D02*
X24714286Y-53560255D01*
X24714286Y-53560255D02*
X25019048Y-53560255D01*
X25019048Y-53560255D02*
X25095238Y-53598350D01*
X25095238Y-53598350D02*
X25133333Y-53636445D01*
X25133333Y-53636445D02*
X25171429Y-53712636D01*
X25171429Y-53712636D02*
X25171429Y-53826921D01*
X25171429Y-53826921D02*
X25133333Y-53903112D01*
X25133333Y-53903112D02*
X25095238Y-53941207D01*
X25095238Y-53941207D02*
X25019048Y-53979302D01*
X25019048Y-53979302D02*
X24714286Y-53979302D01*
X25933333Y-54360255D02*
X25476190Y-54360255D01*
X25704762Y-54360255D02*
X25704762Y-53560255D01*
X25704762Y-53560255D02*
X25628571Y-53674540D01*
X25628571Y-53674540D02*
X25552381Y-53750731D01*
X25552381Y-53750731D02*
X25476190Y-53788826D01*
X55866667Y-17963855D02*
X55600000Y-17582902D01*
X55409524Y-17963855D02*
X55409524Y-17163855D01*
X55409524Y-17163855D02*
X55714286Y-17163855D01*
X55714286Y-17163855D02*
X55790476Y-17201950D01*
X55790476Y-17201950D02*
X55828571Y-17240045D01*
X55828571Y-17240045D02*
X55866667Y-17316236D01*
X55866667Y-17316236D02*
X55866667Y-17430521D01*
X55866667Y-17430521D02*
X55828571Y-17506712D01*
X55828571Y-17506712D02*
X55790476Y-17544807D01*
X55790476Y-17544807D02*
X55714286Y-17582902D01*
X55714286Y-17582902D02*
X55409524Y-17582902D01*
X56628571Y-17963855D02*
X56171428Y-17963855D01*
X56400000Y-17963855D02*
X56400000Y-17163855D01*
X56400000Y-17163855D02*
X56323809Y-17278140D01*
X56323809Y-17278140D02*
X56247619Y-17354331D01*
X56247619Y-17354331D02*
X56171428Y-17392426D01*
X46719523Y-53560255D02*
X47176666Y-53560255D01*
X46948094Y-54360255D02*
X46948094Y-53560255D01*
X47443333Y-54360255D02*
X47443333Y-53560255D01*
X47443333Y-53560255D02*
X47748095Y-53560255D01*
X47748095Y-53560255D02*
X47824285Y-53598350D01*
X47824285Y-53598350D02*
X47862380Y-53636445D01*
X47862380Y-53636445D02*
X47900476Y-53712636D01*
X47900476Y-53712636D02*
X47900476Y-53826921D01*
X47900476Y-53826921D02*
X47862380Y-53903112D01*
X47862380Y-53903112D02*
X47824285Y-53941207D01*
X47824285Y-53941207D02*
X47748095Y-53979302D01*
X47748095Y-53979302D02*
X47443333Y-53979302D01*
X48662380Y-54360255D02*
X48205237Y-54360255D01*
X48433809Y-54360255D02*
X48433809Y-53560255D01*
X48433809Y-53560255D02*
X48357618Y-53674540D01*
X48357618Y-53674540D02*
X48281428Y-53750731D01*
X48281428Y-53750731D02*
X48205237Y-53788826D01*
X49157619Y-53560255D02*
X49233809Y-53560255D01*
X49233809Y-53560255D02*
X49310000Y-53598350D01*
X49310000Y-53598350D02*
X49348095Y-53636445D01*
X49348095Y-53636445D02*
X49386190Y-53712636D01*
X49386190Y-53712636D02*
X49424285Y-53865017D01*
X49424285Y-53865017D02*
X49424285Y-54055493D01*
X49424285Y-54055493D02*
X49386190Y-54207874D01*
X49386190Y-54207874D02*
X49348095Y-54284064D01*
X49348095Y-54284064D02*
X49310000Y-54322160D01*
X49310000Y-54322160D02*
X49233809Y-54360255D01*
X49233809Y-54360255D02*
X49157619Y-54360255D01*
X49157619Y-54360255D02*
X49081428Y-54322160D01*
X49081428Y-54322160D02*
X49043333Y-54284064D01*
X49043333Y-54284064D02*
X49005238Y-54207874D01*
X49005238Y-54207874D02*
X48967142Y-54055493D01*
X48967142Y-54055493D02*
X48967142Y-53865017D01*
X48967142Y-53865017D02*
X49005238Y-53712636D01*
X49005238Y-53712636D02*
X49043333Y-53636445D01*
X49043333Y-53636445D02*
X49081428Y-53598350D01*
X49081428Y-53598350D02*
X49157619Y-53560255D01*
X52366667Y-47963855D02*
X52100000Y-47582902D01*
X51909524Y-47963855D02*
X51909524Y-47163855D01*
X51909524Y-47163855D02*
X52214286Y-47163855D01*
X52214286Y-47163855D02*
X52290476Y-47201950D01*
X52290476Y-47201950D02*
X52328571Y-47240045D01*
X52328571Y-47240045D02*
X52366667Y-47316236D01*
X52366667Y-47316236D02*
X52366667Y-47430521D01*
X52366667Y-47430521D02*
X52328571Y-47506712D01*
X52328571Y-47506712D02*
X52290476Y-47544807D01*
X52290476Y-47544807D02*
X52214286Y-47582902D01*
X52214286Y-47582902D02*
X51909524Y-47582902D01*
X52823809Y-47506712D02*
X52747619Y-47468617D01*
X52747619Y-47468617D02*
X52709524Y-47430521D01*
X52709524Y-47430521D02*
X52671428Y-47354331D01*
X52671428Y-47354331D02*
X52671428Y-47316236D01*
X52671428Y-47316236D02*
X52709524Y-47240045D01*
X52709524Y-47240045D02*
X52747619Y-47201950D01*
X52747619Y-47201950D02*
X52823809Y-47163855D01*
X52823809Y-47163855D02*
X52976190Y-47163855D01*
X52976190Y-47163855D02*
X53052381Y-47201950D01*
X53052381Y-47201950D02*
X53090476Y-47240045D01*
X53090476Y-47240045D02*
X53128571Y-47316236D01*
X53128571Y-47316236D02*
X53128571Y-47354331D01*
X53128571Y-47354331D02*
X53090476Y-47430521D01*
X53090476Y-47430521D02*
X53052381Y-47468617D01*
X53052381Y-47468617D02*
X52976190Y-47506712D01*
X52976190Y-47506712D02*
X52823809Y-47506712D01*
X52823809Y-47506712D02*
X52747619Y-47544807D01*
X52747619Y-47544807D02*
X52709524Y-47582902D01*
X52709524Y-47582902D02*
X52671428Y-47659093D01*
X52671428Y-47659093D02*
X52671428Y-47811474D01*
X52671428Y-47811474D02*
X52709524Y-47887664D01*
X52709524Y-47887664D02*
X52747619Y-47925760D01*
X52747619Y-47925760D02*
X52823809Y-47963855D01*
X52823809Y-47963855D02*
X52976190Y-47963855D01*
X52976190Y-47963855D02*
X53052381Y-47925760D01*
X53052381Y-47925760D02*
X53090476Y-47887664D01*
X53090476Y-47887664D02*
X53128571Y-47811474D01*
X53128571Y-47811474D02*
X53128571Y-47659093D01*
X53128571Y-47659093D02*
X53090476Y-47582902D01*
X53090476Y-47582902D02*
X53052381Y-47544807D01*
X53052381Y-47544807D02*
X52976190Y-47506712D01*
X15866667Y-25637664D02*
X15828571Y-25675760D01*
X15828571Y-25675760D02*
X15714286Y-25713855D01*
X15714286Y-25713855D02*
X15638095Y-25713855D01*
X15638095Y-25713855D02*
X15523809Y-25675760D01*
X15523809Y-25675760D02*
X15447619Y-25599569D01*
X15447619Y-25599569D02*
X15409524Y-25523379D01*
X15409524Y-25523379D02*
X15371428Y-25370998D01*
X15371428Y-25370998D02*
X15371428Y-25256712D01*
X15371428Y-25256712D02*
X15409524Y-25104331D01*
X15409524Y-25104331D02*
X15447619Y-25028140D01*
X15447619Y-25028140D02*
X15523809Y-24951950D01*
X15523809Y-24951950D02*
X15638095Y-24913855D01*
X15638095Y-24913855D02*
X15714286Y-24913855D01*
X15714286Y-24913855D02*
X15828571Y-24951950D01*
X15828571Y-24951950D02*
X15866667Y-24990045D01*
X16247619Y-25713855D02*
X16400000Y-25713855D01*
X16400000Y-25713855D02*
X16476190Y-25675760D01*
X16476190Y-25675760D02*
X16514286Y-25637664D01*
X16514286Y-25637664D02*
X16590476Y-25523379D01*
X16590476Y-25523379D02*
X16628571Y-25370998D01*
X16628571Y-25370998D02*
X16628571Y-25066236D01*
X16628571Y-25066236D02*
X16590476Y-24990045D01*
X16590476Y-24990045D02*
X16552381Y-24951950D01*
X16552381Y-24951950D02*
X16476190Y-24913855D01*
X16476190Y-24913855D02*
X16323809Y-24913855D01*
X16323809Y-24913855D02*
X16247619Y-24951950D01*
X16247619Y-24951950D02*
X16209524Y-24990045D01*
X16209524Y-24990045D02*
X16171428Y-25066236D01*
X16171428Y-25066236D02*
X16171428Y-25256712D01*
X16171428Y-25256712D02*
X16209524Y-25332902D01*
X16209524Y-25332902D02*
X16247619Y-25370998D01*
X16247619Y-25370998D02*
X16323809Y-25409093D01*
X16323809Y-25409093D02*
X16476190Y-25409093D01*
X16476190Y-25409093D02*
X16552381Y-25370998D01*
X16552381Y-25370998D02*
X16590476Y-25332902D01*
X16590476Y-25332902D02*
X16628571Y-25256712D01*
X68485714Y-14834064D02*
X68447618Y-14872160D01*
X68447618Y-14872160D02*
X68333333Y-14910255D01*
X68333333Y-14910255D02*
X68257142Y-14910255D01*
X68257142Y-14910255D02*
X68142856Y-14872160D01*
X68142856Y-14872160D02*
X68066666Y-14795969D01*
X68066666Y-14795969D02*
X68028571Y-14719779D01*
X68028571Y-14719779D02*
X67990475Y-14567398D01*
X67990475Y-14567398D02*
X67990475Y-14453112D01*
X67990475Y-14453112D02*
X68028571Y-14300731D01*
X68028571Y-14300731D02*
X68066666Y-14224540D01*
X68066666Y-14224540D02*
X68142856Y-14148350D01*
X68142856Y-14148350D02*
X68257142Y-14110255D01*
X68257142Y-14110255D02*
X68333333Y-14110255D01*
X68333333Y-14110255D02*
X68447618Y-14148350D01*
X68447618Y-14148350D02*
X68485714Y-14186445D01*
X69247618Y-14910255D02*
X68790475Y-14910255D01*
X69019047Y-14910255D02*
X69019047Y-14110255D01*
X69019047Y-14110255D02*
X68942856Y-14224540D01*
X68942856Y-14224540D02*
X68866666Y-14300731D01*
X68866666Y-14300731D02*
X68790475Y-14338826D01*
X69971428Y-14110255D02*
X69590476Y-14110255D01*
X69590476Y-14110255D02*
X69552380Y-14491207D01*
X69552380Y-14491207D02*
X69590476Y-14453112D01*
X69590476Y-14453112D02*
X69666666Y-14415017D01*
X69666666Y-14415017D02*
X69857142Y-14415017D01*
X69857142Y-14415017D02*
X69933333Y-14453112D01*
X69933333Y-14453112D02*
X69971428Y-14491207D01*
X69971428Y-14491207D02*
X70009523Y-14567398D01*
X70009523Y-14567398D02*
X70009523Y-14757874D01*
X70009523Y-14757874D02*
X69971428Y-14834064D01*
X69971428Y-14834064D02*
X69933333Y-14872160D01*
X69933333Y-14872160D02*
X69857142Y-14910255D01*
X69857142Y-14910255D02*
X69666666Y-14910255D01*
X69666666Y-14910255D02*
X69590476Y-14872160D01*
X69590476Y-14872160D02*
X69552380Y-14834064D01*
X29070476Y-53560255D02*
X29527619Y-53560255D01*
X29299047Y-54360255D02*
X29299047Y-53560255D01*
X29794286Y-54360255D02*
X29794286Y-53560255D01*
X29794286Y-53560255D02*
X30099048Y-53560255D01*
X30099048Y-53560255D02*
X30175238Y-53598350D01*
X30175238Y-53598350D02*
X30213333Y-53636445D01*
X30213333Y-53636445D02*
X30251429Y-53712636D01*
X30251429Y-53712636D02*
X30251429Y-53826921D01*
X30251429Y-53826921D02*
X30213333Y-53903112D01*
X30213333Y-53903112D02*
X30175238Y-53941207D01*
X30175238Y-53941207D02*
X30099048Y-53979302D01*
X30099048Y-53979302D02*
X29794286Y-53979302D01*
X30518095Y-53560255D02*
X31013333Y-53560255D01*
X31013333Y-53560255D02*
X30746667Y-53865017D01*
X30746667Y-53865017D02*
X30860952Y-53865017D01*
X30860952Y-53865017D02*
X30937143Y-53903112D01*
X30937143Y-53903112D02*
X30975238Y-53941207D01*
X30975238Y-53941207D02*
X31013333Y-54017398D01*
X31013333Y-54017398D02*
X31013333Y-54207874D01*
X31013333Y-54207874D02*
X30975238Y-54284064D01*
X30975238Y-54284064D02*
X30937143Y-54322160D01*
X30937143Y-54322160D02*
X30860952Y-54360255D01*
X30860952Y-54360255D02*
X30632381Y-54360255D01*
X30632381Y-54360255D02*
X30556190Y-54322160D01*
X30556190Y-54322160D02*
X30518095Y-54284064D01*
X81398333Y-34630255D02*
X81398333Y-35201683D01*
X81398333Y-35201683D02*
X81360238Y-35315969D01*
X81360238Y-35315969D02*
X81284047Y-35392160D01*
X81284047Y-35392160D02*
X81169762Y-35430255D01*
X81169762Y-35430255D02*
X81093571Y-35430255D01*
X81741190Y-34706445D02*
X81779286Y-34668350D01*
X81779286Y-34668350D02*
X81855476Y-34630255D01*
X81855476Y-34630255D02*
X82045952Y-34630255D01*
X82045952Y-34630255D02*
X82122143Y-34668350D01*
X82122143Y-34668350D02*
X82160238Y-34706445D01*
X82160238Y-34706445D02*
X82198333Y-34782636D01*
X82198333Y-34782636D02*
X82198333Y-34858826D01*
X82198333Y-34858826D02*
X82160238Y-34973112D01*
X82160238Y-34973112D02*
X81703095Y-35430255D01*
X81703095Y-35430255D02*
X82198333Y-35430255D01*
X52890476Y-43917455D02*
X52890476Y-44565074D01*
X52890476Y-44565074D02*
X52928571Y-44641264D01*
X52928571Y-44641264D02*
X52966666Y-44679360D01*
X52966666Y-44679360D02*
X53042857Y-44717455D01*
X53042857Y-44717455D02*
X53195238Y-44717455D01*
X53195238Y-44717455D02*
X53271428Y-44679360D01*
X53271428Y-44679360D02*
X53309523Y-44641264D01*
X53309523Y-44641264D02*
X53347619Y-44565074D01*
X53347619Y-44565074D02*
X53347619Y-43917455D01*
X54071428Y-44184121D02*
X54071428Y-44717455D01*
X53880952Y-43879360D02*
X53690475Y-44450788D01*
X53690475Y-44450788D02*
X54185714Y-44450788D01*
X55366667Y-22687455D02*
X55100000Y-22306502D01*
X54909524Y-22687455D02*
X54909524Y-21887455D01*
X54909524Y-21887455D02*
X55214286Y-21887455D01*
X55214286Y-21887455D02*
X55290476Y-21925550D01*
X55290476Y-21925550D02*
X55328571Y-21963645D01*
X55328571Y-21963645D02*
X55366667Y-22039836D01*
X55366667Y-22039836D02*
X55366667Y-22154121D01*
X55366667Y-22154121D02*
X55328571Y-22230312D01*
X55328571Y-22230312D02*
X55290476Y-22268407D01*
X55290476Y-22268407D02*
X55214286Y-22306502D01*
X55214286Y-22306502D02*
X54909524Y-22306502D01*
X56090476Y-21887455D02*
X55709524Y-21887455D01*
X55709524Y-21887455D02*
X55671428Y-22268407D01*
X55671428Y-22268407D02*
X55709524Y-22230312D01*
X55709524Y-22230312D02*
X55785714Y-22192217D01*
X55785714Y-22192217D02*
X55976190Y-22192217D01*
X55976190Y-22192217D02*
X56052381Y-22230312D01*
X56052381Y-22230312D02*
X56090476Y-22268407D01*
X56090476Y-22268407D02*
X56128571Y-22344598D01*
X56128571Y-22344598D02*
X56128571Y-22535074D01*
X56128571Y-22535074D02*
X56090476Y-22611264D01*
X56090476Y-22611264D02*
X56052381Y-22649360D01*
X56052381Y-22649360D02*
X55976190Y-22687455D01*
X55976190Y-22687455D02*
X55785714Y-22687455D01*
X55785714Y-22687455D02*
X55709524Y-22649360D01*
X55709524Y-22649360D02*
X55671428Y-22611264D01*
X74135255Y-52914285D02*
X73335255Y-52914285D01*
X73335255Y-52914285D02*
X74135255Y-52457142D01*
X74135255Y-52457142D02*
X73335255Y-52457142D01*
X73335255Y-52190476D02*
X73335255Y-51733333D01*
X74135255Y-51961905D02*
X73335255Y-51961905D01*
X73335255Y-51542857D02*
X73335255Y-51047619D01*
X73335255Y-51047619D02*
X73640017Y-51314285D01*
X73640017Y-51314285D02*
X73640017Y-51200000D01*
X73640017Y-51200000D02*
X73678112Y-51123809D01*
X73678112Y-51123809D02*
X73716207Y-51085714D01*
X73716207Y-51085714D02*
X73792398Y-51047619D01*
X73792398Y-51047619D02*
X73982874Y-51047619D01*
X73982874Y-51047619D02*
X74059064Y-51085714D01*
X74059064Y-51085714D02*
X74097160Y-51123809D01*
X74097160Y-51123809D02*
X74135255Y-51200000D01*
X74135255Y-51200000D02*
X74135255Y-51428571D01*
X74135255Y-51428571D02*
X74097160Y-51504762D01*
X74097160Y-51504762D02*
X74059064Y-51542857D01*
X72604064Y-52633333D02*
X72642160Y-52671429D01*
X72642160Y-52671429D02*
X72680255Y-52785714D01*
X72680255Y-52785714D02*
X72680255Y-52861905D01*
X72680255Y-52861905D02*
X72642160Y-52976191D01*
X72642160Y-52976191D02*
X72565969Y-53052381D01*
X72565969Y-53052381D02*
X72489779Y-53090476D01*
X72489779Y-53090476D02*
X72337398Y-53128572D01*
X72337398Y-53128572D02*
X72223112Y-53128572D01*
X72223112Y-53128572D02*
X72070731Y-53090476D01*
X72070731Y-53090476D02*
X71994540Y-53052381D01*
X71994540Y-53052381D02*
X71918350Y-52976191D01*
X71918350Y-52976191D02*
X71880255Y-52861905D01*
X71880255Y-52861905D02*
X71880255Y-52785714D01*
X71880255Y-52785714D02*
X71918350Y-52671429D01*
X71918350Y-52671429D02*
X71956445Y-52633333D01*
X72223112Y-52176191D02*
X72185017Y-52252381D01*
X72185017Y-52252381D02*
X72146921Y-52290476D01*
X72146921Y-52290476D02*
X72070731Y-52328572D01*
X72070731Y-52328572D02*
X72032636Y-52328572D01*
X72032636Y-52328572D02*
X71956445Y-52290476D01*
X71956445Y-52290476D02*
X71918350Y-52252381D01*
X71918350Y-52252381D02*
X71880255Y-52176191D01*
X71880255Y-52176191D02*
X71880255Y-52023810D01*
X71880255Y-52023810D02*
X71918350Y-51947619D01*
X71918350Y-51947619D02*
X71956445Y-51909524D01*
X71956445Y-51909524D02*
X72032636Y-51871429D01*
X72032636Y-51871429D02*
X72070731Y-51871429D01*
X72070731Y-51871429D02*
X72146921Y-51909524D01*
X72146921Y-51909524D02*
X72185017Y-51947619D01*
X72185017Y-51947619D02*
X72223112Y-52023810D01*
X72223112Y-52023810D02*
X72223112Y-52176191D01*
X72223112Y-52176191D02*
X72261207Y-52252381D01*
X72261207Y-52252381D02*
X72299302Y-52290476D01*
X72299302Y-52290476D02*
X72375493Y-52328572D01*
X72375493Y-52328572D02*
X72527874Y-52328572D01*
X72527874Y-52328572D02*
X72604064Y-52290476D01*
X72604064Y-52290476D02*
X72642160Y-52252381D01*
X72642160Y-52252381D02*
X72680255Y-52176191D01*
X72680255Y-52176191D02*
X72680255Y-52023810D01*
X72680255Y-52023810D02*
X72642160Y-51947619D01*
X72642160Y-51947619D02*
X72604064Y-51909524D01*
X72604064Y-51909524D02*
X72527874Y-51871429D01*
X72527874Y-51871429D02*
X72375493Y-51871429D01*
X72375493Y-51871429D02*
X72299302Y-51909524D01*
X72299302Y-51909524D02*
X72261207Y-51947619D01*
X72261207Y-51947619D02*
X72223112Y-52023810D01*
X68235714Y-48040255D02*
X67969047Y-47659302D01*
X67778571Y-48040255D02*
X67778571Y-47240255D01*
X67778571Y-47240255D02*
X68083333Y-47240255D01*
X68083333Y-47240255D02*
X68159523Y-47278350D01*
X68159523Y-47278350D02*
X68197618Y-47316445D01*
X68197618Y-47316445D02*
X68235714Y-47392636D01*
X68235714Y-47392636D02*
X68235714Y-47506921D01*
X68235714Y-47506921D02*
X68197618Y-47583112D01*
X68197618Y-47583112D02*
X68159523Y-47621207D01*
X68159523Y-47621207D02*
X68083333Y-47659302D01*
X68083333Y-47659302D02*
X67778571Y-47659302D01*
X68997618Y-48040255D02*
X68540475Y-48040255D01*
X68769047Y-48040255D02*
X68769047Y-47240255D01*
X68769047Y-47240255D02*
X68692856Y-47354540D01*
X68692856Y-47354540D02*
X68616666Y-47430731D01*
X68616666Y-47430731D02*
X68540475Y-47468826D01*
X69302380Y-47316445D02*
X69340476Y-47278350D01*
X69340476Y-47278350D02*
X69416666Y-47240255D01*
X69416666Y-47240255D02*
X69607142Y-47240255D01*
X69607142Y-47240255D02*
X69683333Y-47278350D01*
X69683333Y-47278350D02*
X69721428Y-47316445D01*
X69721428Y-47316445D02*
X69759523Y-47392636D01*
X69759523Y-47392636D02*
X69759523Y-47468826D01*
X69759523Y-47468826D02*
X69721428Y-47583112D01*
X69721428Y-47583112D02*
X69264285Y-48040255D01*
X69264285Y-48040255D02*
X69759523Y-48040255D01*
X62366666Y-15763855D02*
X61985714Y-15763855D01*
X61985714Y-15763855D02*
X61985714Y-14963855D01*
X63052380Y-15763855D02*
X62595237Y-15763855D01*
X62823809Y-15763855D02*
X62823809Y-14963855D01*
X62823809Y-14963855D02*
X62747618Y-15078140D01*
X62747618Y-15078140D02*
X62671428Y-15154331D01*
X62671428Y-15154331D02*
X62595237Y-15192426D01*
X73485714Y-7834064D02*
X73447618Y-7872160D01*
X73447618Y-7872160D02*
X73333333Y-7910255D01*
X73333333Y-7910255D02*
X73257142Y-7910255D01*
X73257142Y-7910255D02*
X73142856Y-7872160D01*
X73142856Y-7872160D02*
X73066666Y-7795969D01*
X73066666Y-7795969D02*
X73028571Y-7719779D01*
X73028571Y-7719779D02*
X72990475Y-7567398D01*
X72990475Y-7567398D02*
X72990475Y-7453112D01*
X72990475Y-7453112D02*
X73028571Y-7300731D01*
X73028571Y-7300731D02*
X73066666Y-7224540D01*
X73066666Y-7224540D02*
X73142856Y-7148350D01*
X73142856Y-7148350D02*
X73257142Y-7110255D01*
X73257142Y-7110255D02*
X73333333Y-7110255D01*
X73333333Y-7110255D02*
X73447618Y-7148350D01*
X73447618Y-7148350D02*
X73485714Y-7186445D01*
X74247618Y-7910255D02*
X73790475Y-7910255D01*
X74019047Y-7910255D02*
X74019047Y-7110255D01*
X74019047Y-7110255D02*
X73942856Y-7224540D01*
X73942856Y-7224540D02*
X73866666Y-7300731D01*
X73866666Y-7300731D02*
X73790475Y-7338826D01*
X74933333Y-7376921D02*
X74933333Y-7910255D01*
X74742857Y-7072160D02*
X74552380Y-7643588D01*
X74552380Y-7643588D02*
X75047619Y-7643588D01*
X70760255Y-48109523D02*
X71407874Y-48109523D01*
X71407874Y-48109523D02*
X71484064Y-48071428D01*
X71484064Y-48071428D02*
X71522160Y-48033333D01*
X71522160Y-48033333D02*
X71560255Y-47957142D01*
X71560255Y-47957142D02*
X71560255Y-47804761D01*
X71560255Y-47804761D02*
X71522160Y-47728571D01*
X71522160Y-47728571D02*
X71484064Y-47690476D01*
X71484064Y-47690476D02*
X71407874Y-47652380D01*
X71407874Y-47652380D02*
X70760255Y-47652380D01*
X70760255Y-46890476D02*
X70760255Y-47271428D01*
X70760255Y-47271428D02*
X71141207Y-47309524D01*
X71141207Y-47309524D02*
X71103112Y-47271428D01*
X71103112Y-47271428D02*
X71065017Y-47195238D01*
X71065017Y-47195238D02*
X71065017Y-47004762D01*
X71065017Y-47004762D02*
X71103112Y-46928571D01*
X71103112Y-46928571D02*
X71141207Y-46890476D01*
X71141207Y-46890476D02*
X71217398Y-46852381D01*
X71217398Y-46852381D02*
X71407874Y-46852381D01*
X71407874Y-46852381D02*
X71484064Y-46890476D01*
X71484064Y-46890476D02*
X71522160Y-46928571D01*
X71522160Y-46928571D02*
X71560255Y-47004762D01*
X71560255Y-47004762D02*
X71560255Y-47195238D01*
X71560255Y-47195238D02*
X71522160Y-47271428D01*
X71522160Y-47271428D02*
X71484064Y-47309524D01*
X34150476Y-53560255D02*
X34607619Y-53560255D01*
X34379047Y-54360255D02*
X34379047Y-53560255D01*
X34874286Y-54360255D02*
X34874286Y-53560255D01*
X34874286Y-53560255D02*
X35179048Y-53560255D01*
X35179048Y-53560255D02*
X35255238Y-53598350D01*
X35255238Y-53598350D02*
X35293333Y-53636445D01*
X35293333Y-53636445D02*
X35331429Y-53712636D01*
X35331429Y-53712636D02*
X35331429Y-53826921D01*
X35331429Y-53826921D02*
X35293333Y-53903112D01*
X35293333Y-53903112D02*
X35255238Y-53941207D01*
X35255238Y-53941207D02*
X35179048Y-53979302D01*
X35179048Y-53979302D02*
X34874286Y-53979302D01*
X36055238Y-53560255D02*
X35674286Y-53560255D01*
X35674286Y-53560255D02*
X35636190Y-53941207D01*
X35636190Y-53941207D02*
X35674286Y-53903112D01*
X35674286Y-53903112D02*
X35750476Y-53865017D01*
X35750476Y-53865017D02*
X35940952Y-53865017D01*
X35940952Y-53865017D02*
X36017143Y-53903112D01*
X36017143Y-53903112D02*
X36055238Y-53941207D01*
X36055238Y-53941207D02*
X36093333Y-54017398D01*
X36093333Y-54017398D02*
X36093333Y-54207874D01*
X36093333Y-54207874D02*
X36055238Y-54284064D01*
X36055238Y-54284064D02*
X36017143Y-54322160D01*
X36017143Y-54322160D02*
X35940952Y-54360255D01*
X35940952Y-54360255D02*
X35750476Y-54360255D01*
X35750476Y-54360255D02*
X35674286Y-54322160D01*
X35674286Y-54322160D02*
X35636190Y-54284064D01*
X31610476Y-53560255D02*
X32067619Y-53560255D01*
X31839047Y-54360255D02*
X31839047Y-53560255D01*
X32334286Y-54360255D02*
X32334286Y-53560255D01*
X32334286Y-53560255D02*
X32639048Y-53560255D01*
X32639048Y-53560255D02*
X32715238Y-53598350D01*
X32715238Y-53598350D02*
X32753333Y-53636445D01*
X32753333Y-53636445D02*
X32791429Y-53712636D01*
X32791429Y-53712636D02*
X32791429Y-53826921D01*
X32791429Y-53826921D02*
X32753333Y-53903112D01*
X32753333Y-53903112D02*
X32715238Y-53941207D01*
X32715238Y-53941207D02*
X32639048Y-53979302D01*
X32639048Y-53979302D02*
X32334286Y-53979302D01*
X33477143Y-53826921D02*
X33477143Y-54360255D01*
X33286667Y-53522160D02*
X33096190Y-54093588D01*
X33096190Y-54093588D02*
X33591429Y-54093588D01*
%TO.C,R6*%
X47846359Y-18120000D02*
X48153641Y-18120000D01*
X47846359Y-18880000D02*
X48153641Y-18880000D01*
%TO.C,C12*%
X48288748Y-40640000D02*
X49711252Y-40640000D01*
X48288748Y-43360000D02*
X49711252Y-43360000D01*
%TO.C,R7*%
X49846359Y-46620000D02*
X50153641Y-46620000D01*
X49846359Y-47380000D02*
X50153641Y-47380000D01*
%TO.C,C21*%
X51840000Y-42140580D02*
X51840000Y-41859420D01*
X52860000Y-42140580D02*
X52860000Y-41859420D01*
%TO.C,C1*%
X19892164Y-25640000D02*
X20107836Y-25640000D01*
X19892164Y-26360000D02*
X20107836Y-26360000D01*
%TO.C,C4*%
X57440000Y-13922164D02*
X57440000Y-14137836D01*
X58160000Y-13922164D02*
X58160000Y-14137836D01*
%TO.C,C16*%
X73288748Y-15640000D02*
X74711252Y-15640000D01*
X73288748Y-18360000D02*
X74711252Y-18360000D01*
%TO.C,C6*%
X57440000Y-41922164D02*
X57440000Y-42137836D01*
X58160000Y-41922164D02*
X58160000Y-42137836D01*
%TO.C,R10*%
X57846359Y-46620000D02*
X58153641Y-46620000D01*
X57846359Y-47380000D02*
X58153641Y-47380000D01*
%TO.C,C7*%
X74259420Y-49490000D02*
X74540580Y-49490000D01*
X74259420Y-50510000D02*
X74540580Y-50510000D01*
%TO.C,C10*%
X33288748Y-24640000D02*
X34711252Y-24640000D01*
X33288748Y-27360000D02*
X34711252Y-27360000D01*
%TO.C,R3*%
X50346359Y-18620000D02*
X50653641Y-18620000D01*
X50346359Y-19380000D02*
X50653641Y-19380000D01*
%TO.C,C17*%
X73288748Y-36640000D02*
X74711252Y-36640000D01*
X73288748Y-39360000D02*
X74711252Y-39360000D01*
%TO.C,U1*%
X18520000Y-28920000D02*
X18320000Y-28720000D01*
X18720000Y-28720000D01*
X18520000Y-28920000D01*
G36*
X18520000Y-28920000D02*
G01*
X18320000Y-28720000D01*
X18720000Y-28720000D01*
X18520000Y-28920000D01*
G37*
%TO.C,C20*%
X51840000Y-14140580D02*
X51840000Y-13859420D01*
X52860000Y-14140580D02*
X52860000Y-13859420D01*
%TO.C,J1*%
X6000000Y-32700000D02*
X5250000Y-31950000D01*
X6750000Y-31950000D01*
X6000000Y-32700000D01*
%TO.C,R2*%
X58346359Y-18620000D02*
X58653641Y-18620000D01*
X58346359Y-19380000D02*
X58653641Y-19380000D01*
%TO.C,C13*%
X42562500Y-30152500D02*
X43350000Y-30152500D01*
X42956250Y-29758750D02*
X42956250Y-30546250D01*
X43590000Y-29654437D02*
X43590000Y-30940000D01*
X43590000Y-29654437D02*
X44654437Y-28590000D01*
X43590000Y-34345563D02*
X43590000Y-33060000D01*
X43590000Y-34345563D02*
X44654437Y-35410000D01*
X44654437Y-28590000D02*
X50410000Y-28590000D01*
X44654437Y-35410000D02*
X50410000Y-35410000D01*
X50410000Y-28590000D02*
X50410000Y-30940000D01*
X50410000Y-35410000D02*
X50410000Y-33060000D01*
%TO.C,R11*%
X65846359Y-48620000D02*
X66153641Y-48620000D01*
X65846359Y-49380000D02*
X66153641Y-49380000D01*
%TO.C,Q1*%
X23880000Y-27380000D02*
X30120000Y-27380000D01*
X23880000Y-32620000D02*
X29450000Y-32620000D01*
X30120000Y-32620000D02*
X29620000Y-32620000D01*
X30120000Y-32120000D01*
X30120000Y-32620000D01*
G36*
X30120000Y-32620000D02*
G01*
X29620000Y-32620000D01*
X30120000Y-32120000D01*
X30120000Y-32620000D01*
G37*
%TO.C,RSH1*%
X33300000Y-29550000D02*
X32700000Y-29550000D01*
X33000000Y-29250000D01*
X33300000Y-29550000D01*
G36*
X33300000Y-29550000D02*
G01*
X32700000Y-29550000D01*
X33000000Y-29250000D01*
X33300000Y-29550000D01*
G37*
%TO.C,C18*%
X68288748Y-43640000D02*
X69711252Y-43640000D01*
X68288748Y-46360000D02*
X69711252Y-46360000D01*
%TO.C,R13*%
X74446359Y-56120000D02*
X74753641Y-56120000D01*
X74446359Y-56880000D02*
X74753641Y-56880000D01*
%TO.C,U3*%
X53520000Y-14900000D02*
X53520000Y-14720000D01*
X53620000Y-15000000D02*
X53520000Y-14900000D01*
%TO.C,R4*%
X52846359Y-20620000D02*
X53153641Y-20620000D01*
X52846359Y-21380000D02*
X53153641Y-21380000D01*
D11*
%TO.C,L2*%
X59200000Y-45900000D02*
X58600000Y-45900000D01*
X58600000Y-45300000D01*
X59200000Y-45900000D01*
D10*
%TO.C,R14*%
X74446359Y-57620000D02*
X74753641Y-57620000D01*
X74446359Y-58380000D02*
X74753641Y-58380000D01*
%TO.C,R9*%
X54846359Y-48620000D02*
X55153641Y-48620000D01*
X54846359Y-49380000D02*
X55153641Y-49380000D01*
%TO.C,U2*%
X41700000Y-21820000D02*
X41500000Y-21620000D01*
X41900000Y-21620000D01*
X41700000Y-21820000D01*
G36*
X41700000Y-21820000D02*
G01*
X41500000Y-21620000D01*
X41900000Y-21620000D01*
X41700000Y-21820000D01*
G37*
%TO.C,C5*%
X68288748Y-36640000D02*
X69711252Y-36640000D01*
X68288748Y-39360000D02*
X69711252Y-39360000D01*
%TO.C,F1*%
X12397936Y-28090000D02*
X13602064Y-28090000D01*
X12397936Y-29910000D02*
X13602064Y-29910000D01*
%TO.C,C3*%
X68288748Y-8640000D02*
X69711252Y-8640000D01*
X68288748Y-11360000D02*
X69711252Y-11360000D01*
%TO.C,C2*%
X48392164Y-21640000D02*
X48607836Y-21640000D01*
X48392164Y-22360000D02*
X48607836Y-22360000D01*
%TO.C,R15*%
X60846359Y-20120000D02*
X61153641Y-20120000D01*
X60846359Y-20880000D02*
X61153641Y-20880000D01*
%TO.C,D1*%
X12350000Y-37660000D02*
X12350000Y-31850000D01*
X12350000Y-37660000D02*
X16650000Y-37660000D01*
X16650000Y-37660000D02*
X16650000Y-31850000D01*
%TO.C,C19*%
X73288748Y-40890000D02*
X74711252Y-40890000D01*
X73288748Y-43610000D02*
X74711252Y-43610000D01*
%TO.C,C11*%
X48288748Y-12640000D02*
X49711252Y-12640000D01*
X48288748Y-15360000D02*
X49711252Y-15360000D01*
%TO.C,R1*%
X55846359Y-18620000D02*
X56153641Y-18620000D01*
X55846359Y-19380000D02*
X56153641Y-19380000D01*
%TO.C,R8*%
X52346359Y-48620000D02*
X52653641Y-48620000D01*
X52346359Y-49380000D02*
X52653641Y-49380000D01*
%TO.C,C9*%
X15859420Y-26240000D02*
X16140580Y-26240000D01*
X15859420Y-27260000D02*
X16140580Y-27260000D01*
%TO.C,C15*%
X68288748Y-15640000D02*
X69711252Y-15640000D01*
X68288748Y-18360000D02*
X69711252Y-18360000D01*
%TO.C,U4*%
X53520000Y-42900000D02*
X53520000Y-42720000D01*
X53620000Y-43000000D02*
X53520000Y-42900000D01*
%TO.C,R5*%
X55346359Y-20620000D02*
X55653641Y-20620000D01*
X55346359Y-21380000D02*
X55653641Y-21380000D01*
%TO.C,C8*%
X74759420Y-53490000D02*
X75040580Y-53490000D01*
X74759420Y-54510000D02*
X75040580Y-54510000D01*
%TO.C,R12*%
X68346359Y-48620000D02*
X68653641Y-48620000D01*
X68346359Y-49380000D02*
X68653641Y-49380000D01*
D11*
%TO.C,L1*%
X59200000Y-17900000D02*
X58600000Y-17900000D01*
X58600000Y-17300000D01*
X59200000Y-17900000D01*
D10*
%TO.C,C14*%
X73288748Y-8640000D02*
X74711252Y-8640000D01*
X73288748Y-11360000D02*
X74711252Y-11360000D01*
%TO.C,U5*%
X72920000Y-44920000D02*
X72720000Y-44720000D01*
X73120000Y-44720000D01*
X72920000Y-44920000D01*
G36*
X72920000Y-44920000D02*
G01*
X72720000Y-44720000D01*
X73120000Y-44720000D01*
X72920000Y-44920000D01*
G37*
%TD*%
%LPC*%
D12*
%TO.C,R6*%
X47490000Y-18500000D03*
X48510000Y-18500000D03*
%TD*%
D13*
%TO.C,C12*%
X47525000Y-42000000D03*
X50475000Y-42000000D03*
%TD*%
D12*
%TO.C,R7*%
X49490000Y-47000000D03*
X50510000Y-47000000D03*
%TD*%
D14*
%TO.C,C21*%
X52350000Y-42775000D03*
X52350000Y-41225000D03*
%TD*%
D15*
%TO.C,C1*%
X19520000Y-26000000D03*
X20480000Y-26000000D03*
%TD*%
D16*
%TO.C,C4*%
X57800000Y-13550000D03*
X57800000Y-14510000D03*
%TD*%
D17*
%TO.C,TP7*%
X40240000Y-56000000D03*
%TD*%
D18*
%TO.C,H3*%
X68000000Y-55000000D03*
%TD*%
D13*
%TO.C,C16*%
X72525000Y-17000000D03*
X75475000Y-17000000D03*
%TD*%
D16*
%TO.C,C6*%
X57800000Y-41550000D03*
X57800000Y-42510000D03*
%TD*%
D12*
%TO.C,R10*%
X57490000Y-47000000D03*
X58510000Y-47000000D03*
%TD*%
D19*
%TO.C,C7*%
X73625000Y-50000000D03*
X75175000Y-50000000D03*
%TD*%
D13*
%TO.C,C10*%
X32525000Y-26000000D03*
X35475000Y-26000000D03*
%TD*%
D18*
%TO.C,H2*%
X82000000Y-5000000D03*
%TD*%
D12*
%TO.C,R3*%
X49990000Y-19000000D03*
X51010000Y-19000000D03*
%TD*%
D13*
%TO.C,C17*%
X72525000Y-38000000D03*
X75475000Y-38000000D03*
%TD*%
D20*
%TO.C,U1*%
X18700000Y-29050000D03*
X18700000Y-30000000D03*
X18700000Y-30950000D03*
X21300000Y-30950000D03*
X21300000Y-30000000D03*
X21300000Y-29050000D03*
%TD*%
D14*
%TO.C,C20*%
X52350000Y-14775000D03*
X52350000Y-13225000D03*
%TD*%
D17*
%TO.C,TP6*%
X37700000Y-56000000D03*
%TD*%
D21*
%TO.C,J1*%
X3000000Y-28000000D03*
X9000000Y-28000000D03*
D22*
X6000000Y-31000000D03*
D23*
X6000000Y-28000000D03*
%TD*%
D18*
%TO.C,H4*%
X5000000Y-55000000D03*
%TD*%
D12*
%TO.C,R2*%
X57990000Y-19000000D03*
X59010000Y-19000000D03*
%TD*%
D24*
%TO.C,C13*%
X44300000Y-32000000D03*
X49700000Y-32000000D03*
%TD*%
D17*
%TO.C,TP9*%
X45320000Y-56000000D03*
%TD*%
%TO.C,TP8*%
X42780000Y-56000000D03*
%TD*%
D12*
%TO.C,R11*%
X65490000Y-49000000D03*
X66510000Y-49000000D03*
%TD*%
D25*
%TO.C,Q1*%
X29770000Y-31905000D03*
X29770000Y-30635000D03*
X29770000Y-29365000D03*
X29770000Y-28095000D03*
D26*
X25764000Y-28095000D03*
D27*
X26059000Y-28730000D03*
X26059000Y-30000000D03*
X26059000Y-31270000D03*
D26*
X25764000Y-29365000D03*
X25764000Y-30635000D03*
X25764000Y-31905000D03*
%TD*%
D17*
%TO.C,TP2*%
X27540000Y-56000000D03*
%TD*%
D28*
%TO.C,RSH1*%
X33515000Y-30365000D03*
X39485000Y-31635000D03*
D29*
X33220000Y-32270000D03*
X39780000Y-29730000D03*
%TD*%
D13*
%TO.C,C18*%
X67525000Y-45000000D03*
X70475000Y-45000000D03*
%TD*%
D12*
%TO.C,R13*%
X74090000Y-56500000D03*
X75110000Y-56500000D03*
%TD*%
D30*
%TO.C,U3*%
X55000000Y-14000000D03*
D31*
X54072500Y-14900000D03*
D32*
X53897500Y-14725000D03*
D31*
X55927500Y-14900000D03*
D32*
X56102500Y-14725000D03*
D33*
X56125000Y-14075000D03*
D34*
X56175000Y-13300000D03*
D35*
X56000000Y-13100000D03*
D36*
X55525000Y-13125000D03*
X54475000Y-13125000D03*
D34*
X53825000Y-13300000D03*
D35*
X54000000Y-13100000D03*
D33*
X53875000Y-14075000D03*
%TD*%
D18*
%TO.C,H1*%
X5000000Y-5000000D03*
%TD*%
D12*
%TO.C,R4*%
X52490000Y-21000000D03*
X53510000Y-21000000D03*
%TD*%
D37*
%TO.C,L2*%
X60240000Y-42000000D03*
X64760000Y-42000000D03*
%TD*%
D12*
%TO.C,R14*%
X74090000Y-58000000D03*
X75110000Y-58000000D03*
%TD*%
%TO.C,R9*%
X54490000Y-49000000D03*
X55510000Y-49000000D03*
%TD*%
D38*
%TO.C,U2*%
X41800000Y-22000000D03*
X41800000Y-22500000D03*
X41800000Y-23000000D03*
X41800000Y-23500000D03*
X41800000Y-24000000D03*
X46200000Y-24000000D03*
X46200000Y-23500000D03*
X46200000Y-23000000D03*
X46200000Y-22500000D03*
X46200000Y-22000000D03*
%TD*%
D13*
%TO.C,C5*%
X67525000Y-38000000D03*
X70475000Y-38000000D03*
%TD*%
D39*
%TO.C,F1*%
X11600000Y-29000000D03*
X14400000Y-29000000D03*
%TD*%
D13*
%TO.C,C3*%
X67525000Y-10000000D03*
X70475000Y-10000000D03*
%TD*%
D15*
%TO.C,C2*%
X48020000Y-22000000D03*
X48980000Y-22000000D03*
%TD*%
D12*
%TO.C,R15*%
X60490000Y-20500000D03*
X61510000Y-20500000D03*
%TD*%
D40*
%TO.C,D1*%
X14500000Y-36150000D03*
X14500000Y-31850000D03*
%TD*%
D13*
%TO.C,C19*%
X72525000Y-42250000D03*
X75475000Y-42250000D03*
%TD*%
%TO.C,C11*%
X47525000Y-14000000D03*
X50475000Y-14000000D03*
%TD*%
D17*
%TO.C,TP1*%
X25000000Y-56000000D03*
%TD*%
D12*
%TO.C,R1*%
X55490000Y-19000000D03*
X56510000Y-19000000D03*
%TD*%
D17*
%TO.C,TP10*%
X47860000Y-56000000D03*
%TD*%
D12*
%TO.C,R8*%
X51990000Y-49000000D03*
X53010000Y-49000000D03*
%TD*%
D19*
%TO.C,C9*%
X15225000Y-26750000D03*
X16775000Y-26750000D03*
%TD*%
D13*
%TO.C,C15*%
X67525000Y-17000000D03*
X70475000Y-17000000D03*
%TD*%
D17*
%TO.C,TP3*%
X30080000Y-56000000D03*
%TD*%
D41*
%TO.C,J2*%
X85400000Y-42150000D03*
X85400000Y-52850000D03*
D42*
X81080000Y-40000000D03*
D23*
X81080000Y-43000000D03*
X81080000Y-46000000D03*
X81080000Y-49000000D03*
X81080000Y-52000000D03*
X81080000Y-55000000D03*
X78080000Y-40000000D03*
X78080000Y-43000000D03*
X78080000Y-46000000D03*
X78080000Y-49000000D03*
X78080000Y-52000000D03*
X78080000Y-55000000D03*
%TD*%
D30*
%TO.C,U4*%
X55000000Y-42000000D03*
D31*
X54072500Y-42900000D03*
D32*
X53897500Y-42725000D03*
D31*
X55927500Y-42900000D03*
D32*
X56102500Y-42725000D03*
D33*
X56125000Y-42075000D03*
D34*
X56175000Y-41300000D03*
D35*
X56000000Y-41100000D03*
D36*
X55525000Y-41125000D03*
X54475000Y-41125000D03*
D34*
X53825000Y-41300000D03*
D35*
X54000000Y-41100000D03*
D33*
X53875000Y-42075000D03*
%TD*%
D12*
%TO.C,R5*%
X54990000Y-21000000D03*
X56010000Y-21000000D03*
%TD*%
D19*
%TO.C,C8*%
X74125000Y-54000000D03*
X75675000Y-54000000D03*
%TD*%
D12*
%TO.C,R12*%
X67990000Y-49000000D03*
X69010000Y-49000000D03*
%TD*%
D37*
%TO.C,L1*%
X60240000Y-14000000D03*
X64760000Y-14000000D03*
%TD*%
D13*
%TO.C,C14*%
X72525000Y-10000000D03*
X75475000Y-10000000D03*
%TD*%
D20*
%TO.C,U5*%
X73100000Y-45050000D03*
X73100000Y-46000000D03*
X73100000Y-46950000D03*
X75700000Y-46950000D03*
X75700000Y-45050000D03*
%TD*%
D17*
%TO.C,TP5*%
X35160000Y-56000000D03*
%TD*%
%TO.C,TP4*%
X32620000Y-56000000D03*
%TD*%
%LPD*%
M02*
