%TF.GenerationSoftware,KiCad,Pcbnew,9.0.9*%
%TF.CreationDate,2026-09-25T12:06:13+00:00*%
%TF.ProjectId,PCB-PWR,5043422d-5057-4522-9e6b-696361645f70,rev?*%
%TF.SameCoordinates,Original*%
%TF.FileFunction,Copper,L3,Inr*%
%TF.FilePolarity,Positive*%
%FSLAX46Y46*%
G04 Gerber Fmt 4.6, Leading zero omitted, Abs format (unit mm)*
G04 Created by KiCad (PCBNEW 9.0.9) date 2026-09-25 12:06:13*
%MOMM*%
%LPD*%
G01*
G04 APERTURE LIST*
G04 Aperture macros list*
%AMRoundRect*
0 Rectangle with rounded corners*
0 $1 Rounding radius*
0 $2 $3 $4 $5 $6 $7 $8 $9 X,Y pos of 4 corners*
0 Add a 4 corners polygon primitive as box body*
4,1,4,$2,$3,$4,$5,$6,$7,$8,$9,$2,$3,0*
0 Add four circle primitives for the rounded corners*
1,1,$1+$1,$2,$3*
1,1,$1+$1,$4,$5*
1,1,$1+$1,$6,$7*
1,1,$1+$1,$8,$9*
0 Add four rect primitives between the rounded corners*
20,1,$1+$1,$2,$3,$4,$5,0*
20,1,$1+$1,$4,$5,$6,$7,0*
20,1,$1+$1,$6,$7,$8,$9,0*
20,1,$1+$1,$8,$9,$2,$3,0*%
G04 Aperture macros list end*
%TA.AperFunction,ComponentPad*%
%ADD10RoundRect,0.300000X-0.450000X-0.450000X0.450000X-0.450000X0.450000X0.450000X-0.450000X0.450000X0*%
%TD*%
%TA.AperFunction,ComponentPad*%
%ADD11C,1.500000*%
%TD*%
%TA.AperFunction,ComponentPad*%
%ADD12RoundRect,0.300000X-0.450000X0.450000X-0.450000X-0.450000X0.450000X-0.450000X0.450000X0.450000X0*%
%TD*%
%TA.AperFunction,ViaPad*%
%ADD13C,0.600000*%
%TD*%
G04 APERTURE END LIST*
D10*
%TO.N,VBAT_RAW*%
%TO.C,J1*%
X6000000Y-31000000D03*
D11*
%TO.N,GND_PWR*%
X6000000Y-28000000D03*
%TD*%
D12*
%TO.N,3V8_MODEM*%
%TO.C,J2*%
X81080000Y-40000000D03*
D11*
%TO.N,GND_MODEM*%
X81080000Y-43000000D03*
%TO.N,3V3_DIGITAL*%
X81080000Y-46000000D03*
%TO.N,GND_DIGITAL*%
X81080000Y-49000000D03*
%TO.N,1V8_MIC*%
X81080000Y-52000000D03*
%TO.N,GND_MIC*%
X81080000Y-55000000D03*
%TO.N,PWR_GOOD*%
X78080000Y-40000000D03*
%TO.N,FAULT*%
X78080000Y-43000000D03*
%TO.N,EN_MODEM*%
X78080000Y-46000000D03*
%TO.N,EN_AUX*%
X78080000Y-49000000D03*
%TO.N,I2C2_SCL*%
X78080000Y-52000000D03*
%TO.N,I2C2_SDA*%
X78080000Y-55000000D03*
%TD*%
D13*
%TO.N,1V8_MIC*%
X74925600Y-54853900D03*
X43352900Y-51939400D03*
X60495800Y-36561100D03*
X74884100Y-44315100D03*
X66281500Y-38314400D03*
%TO.N,3V3_DIGITAL*%
X47700000Y-24000000D03*
X73000000Y-40100000D03*
X72000000Y-40100000D03*
X61510000Y-21400000D03*
X55585000Y-39200000D03*
X64500000Y-35000000D03*
X57490000Y-47900000D03*
%TO.N,3V8_MODEM*%
X47149600Y-51898300D03*
%TO.N,EN_AUX*%
X74172200Y-46546500D03*
%TO.N,EN_MODEM*%
X46683600Y-18564700D03*
X53175000Y-12200000D03*
%TO.N,FAULT*%
X43200000Y-22200000D03*
X56287400Y-50346600D03*
X42780000Y-54632500D03*
X69647900Y-48362100D03*
%TO.N,FB_3V8*%
X56510000Y-19900000D03*
X55585000Y-11200000D03*
%TO.N,GND_MIC*%
X73850000Y-52950000D03*
X74547400Y-52552600D03*
%TO.N,GND_MODEM*%
X74150000Y-43550000D03*
X73850000Y-42150000D03*
X74400000Y-42750000D03*
%TO.N,GND_PWR*%
X6950000Y-17450000D03*
X74550000Y-49050000D03*
X10450000Y-17450000D03*
X3450000Y-34950000D03*
X10450000Y-38450000D03*
X73450000Y-3450000D03*
X45450000Y-10450000D03*
X45450000Y-3450000D03*
X6950000Y-27950000D03*
X41950000Y-10450000D03*
X13950000Y-13950000D03*
X31450000Y-10450000D03*
X17450000Y-10450000D03*
X87450000Y-34950000D03*
X55000000Y-42525000D03*
X42766275Y-19667205D03*
X55000000Y-14525000D03*
X59010000Y-19900000D03*
X13950000Y-48950000D03*
X31450000Y-20950000D03*
X48950000Y-6950000D03*
X10450000Y-45450000D03*
X52000000Y-32000000D03*
X48842934Y-19303775D03*
X24450000Y-20950000D03*
X77375000Y-10000000D03*
X13950000Y-55950000D03*
X76650000Y-39150000D03*
X83950000Y-20950000D03*
X73450000Y-24450000D03*
X41950000Y-3450000D03*
X13950000Y-10450000D03*
X17450000Y-55950000D03*
X38450000Y-34950000D03*
X76445334Y-50526189D03*
X3450000Y-17450000D03*
X51313775Y-47332934D03*
X27950000Y-45450000D03*
X59450000Y-3450000D03*
X76336037Y-40078728D03*
X38450000Y-45450000D03*
X77549568Y-50550432D03*
X38450000Y-38450000D03*
X52350000Y-13225000D03*
X83950000Y-48950000D03*
X10450000Y-20950000D03*
X6950000Y-41950000D03*
X44400000Y-21500000D03*
X3450000Y-41950000D03*
X20950000Y-17450000D03*
X53842934Y-21803775D03*
X87450000Y-20950000D03*
X31450000Y-6950000D03*
X13950000Y-20950000D03*
X48980000Y-21140000D03*
X24450000Y-13950000D03*
X38450000Y-6950000D03*
X59450000Y-6950000D03*
X48950000Y-3450000D03*
X13950000Y-6950000D03*
X74350000Y-48150000D03*
X66450000Y-3450000D03*
X10450000Y-34950000D03*
X24450000Y-10450000D03*
X3450000Y-20950000D03*
X87450000Y-24450000D03*
X38450000Y-48950000D03*
X87450000Y-31450000D03*
X50475000Y-42000000D03*
X31450000Y-13950000D03*
X55000000Y-13925000D03*
X77375000Y-17000000D03*
X10450000Y-13950000D03*
X10450000Y-52450000D03*
X87450000Y-27950000D03*
X83950000Y-13950000D03*
X87450000Y-3450000D03*
X27950000Y-24450000D03*
X76950000Y-24450000D03*
X87450000Y-55950000D03*
X66510000Y-47900000D03*
X31450000Y-41950000D03*
X51625182Y-19615182D03*
X55950000Y-3450000D03*
X34950000Y-10450000D03*
X10450000Y-41950000D03*
X3450000Y-48950000D03*
X31450000Y-45450000D03*
X38450000Y-10450000D03*
X52350000Y-41225000D03*
X20950000Y-3450000D03*
X10450000Y-3450000D03*
X6950000Y-10450000D03*
X27950000Y-13950000D03*
X20950000Y-13950000D03*
X20950000Y-10450000D03*
X73450000Y-13950000D03*
X3450000Y-45450000D03*
X34950000Y-17450000D03*
X27950000Y-48950000D03*
X76950000Y-13950000D03*
X76950000Y-51150000D03*
X76950000Y-6950000D03*
X17450000Y-41950000D03*
X6950000Y-34950000D03*
X87450000Y-13950000D03*
X34950000Y-3450000D03*
X6950000Y-13950000D03*
X3450000Y-10450000D03*
X34950000Y-6950000D03*
X34747902Y-24244629D03*
X13950000Y-41950000D03*
X34950000Y-20950000D03*
X83950000Y-10450000D03*
X20000000Y-30000000D03*
X41950000Y-6950000D03*
X27950000Y-41950000D03*
X17450000Y-3450000D03*
X27950000Y-20950000D03*
X69747902Y-43244629D03*
X10450000Y-55950000D03*
X3450000Y-38450000D03*
X38450000Y-3450000D03*
X34950000Y-13950000D03*
X27950000Y-6950000D03*
X24450000Y-6950000D03*
X80450000Y-31450000D03*
X17450000Y-52450000D03*
X6950000Y-48950000D03*
X27950000Y-3450000D03*
X52450000Y-3450000D03*
X27950000Y-52450000D03*
X69950000Y-3450000D03*
X17450000Y-45450000D03*
X24450000Y-24450000D03*
X69747902Y-15244629D03*
X69950000Y-13950000D03*
X73750000Y-48750000D03*
X87450000Y-45450000D03*
X10450000Y-24450000D03*
X3450000Y-13950000D03*
X6950000Y-45450000D03*
X27950000Y-10450000D03*
X87450000Y-38450000D03*
X31450000Y-38450000D03*
X13950000Y-3450000D03*
X87450000Y-10450000D03*
X83950000Y-17450000D03*
X17450000Y-20950000D03*
X31450000Y-48950000D03*
X80450000Y-10450000D03*
X6950000Y-20950000D03*
X80450000Y-17450000D03*
X87450000Y-17450000D03*
X44900000Y-23500000D03*
X6950000Y-38450000D03*
X27950000Y-17450000D03*
X17450000Y-6950000D03*
X80450000Y-13950000D03*
X62950000Y-3450000D03*
X38450000Y-41950000D03*
X17450000Y-17450000D03*
X45450000Y-6950000D03*
X13950000Y-52450000D03*
X24450000Y-17450000D03*
X50475000Y-14000000D03*
X83950000Y-55950000D03*
X6950000Y-24450000D03*
X24450000Y-3450000D03*
X10450000Y-48950000D03*
X52450000Y-6950000D03*
X62950000Y-6950000D03*
X31450000Y-17450000D03*
X10450000Y-10450000D03*
X80450000Y-27950000D03*
X76950000Y-27950000D03*
X10450000Y-6950000D03*
X53010000Y-48130000D03*
X20950000Y-6950000D03*
X13950000Y-17450000D03*
X76950000Y-3450000D03*
X87450000Y-6950000D03*
X87450000Y-48950000D03*
X20950000Y-20950000D03*
X48950000Y-10450000D03*
X55000000Y-41925000D03*
X71202098Y-11755371D03*
X55950000Y-6950000D03*
X17450000Y-13950000D03*
X3450000Y-24450000D03*
X31450000Y-3450000D03*
X17645604Y-24648175D03*
X17450000Y-48950000D03*
X13950000Y-45450000D03*
X70750000Y-46000000D03*
%TO.N,I2C2_SCL*%
X76900000Y-53900000D03*
X43200000Y-24800000D03*
X45320000Y-54600000D03*
%TO.N,I2C2_SDA*%
X43900000Y-23500000D03*
X46994300Y-54924800D03*
X47860000Y-52900000D03*
%TO.N,MODE_3V3*%
X54490000Y-49900000D03*
X54415000Y-38700000D03*
%TO.N,MODE_3V8*%
X54415000Y-10700000D03*
X54990000Y-21900000D03*
%TO.N,PG_3V8*%
X59856800Y-21133200D03*
X43356900Y-49474000D03*
X56600000Y-11800000D03*
%TO.N,PWR_GOOD*%
X59295600Y-47199800D03*
X56600000Y-39800000D03*
%TO.N,RT_3V3*%
X53600000Y-39500000D03*
X51017900Y-46229300D03*
%TO.N,RT_3V8*%
X49350000Y-15150000D03*
X53939400Y-18801100D03*
X49372500Y-18294600D03*
%TO.N,SHUNT_LOAD_SENSE*%
X33361600Y-52933200D03*
X44450100Y-22500000D03*
X36810900Y-29730000D03*
%TO.N,SHUNT_SOURCE_SENSE*%
X28503700Y-55036300D03*
X41841000Y-20867500D03*
X35180300Y-31679800D03*
%TO.N,VBAT_FUSED*%
X19650000Y-30750000D03*
X20350000Y-29250000D03*
%TO.N,VBAT_PROTECTED*%
X26900000Y-33299999D03*
X22900000Y-31400000D03*
X31350000Y-27000000D03*
X23646000Y-55799900D03*
X27900000Y-33299999D03*
X24900000Y-33299999D03*
X33000000Y-28300000D03*
X22900000Y-32400000D03*
X33900000Y-28300000D03*
X31350000Y-31000000D03*
X25900000Y-33299999D03*
X31350000Y-30000000D03*
X23900000Y-33299999D03*
X31350000Y-29000000D03*
X31350000Y-28000000D03*
%TO.N,VBAT_SYS*%
X47300000Y-23000000D03*
X44000000Y-28500000D03*
%TD*%
%TA.AperFunction,Conductor*%
%TO.N,GND_PWR*%
G36*
X89442539Y-520185D02*
G01*
X89488294Y-572989D01*
X89499500Y-624500D01*
X89499500Y-59375500D01*
X89479815Y-59442539D01*
X89427011Y-59488294D01*
X89375500Y-59499500D01*
X624500Y-59499500D01*
X557461Y-59479815D01*
X511706Y-59427011D01*
X500500Y-59375500D01*
X500500Y-54803468D01*
X999500Y-54803468D01*
X999500Y-55196532D01*
X1006547Y-55268083D01*
X1038026Y-55587702D01*
X1114704Y-55973194D01*
X1114707Y-55973205D01*
X1228810Y-56349354D01*
X1379230Y-56712499D01*
X1379232Y-56712504D01*
X1564511Y-57059137D01*
X1564522Y-57059155D01*
X1782887Y-57385960D01*
X1782897Y-57385974D01*
X2032254Y-57689817D01*
X2310182Y-57967745D01*
X2310187Y-57967749D01*
X2310188Y-57967750D01*
X2614031Y-58217107D01*
X2940851Y-58435482D01*
X2940860Y-58435487D01*
X2940862Y-58435488D01*
X3287495Y-58620767D01*
X3287497Y-58620767D01*
X3287503Y-58620771D01*
X3650647Y-58771190D01*
X4026785Y-58885290D01*
X4026791Y-58885291D01*
X4026794Y-58885292D01*
X4026805Y-58885295D01*
X4412297Y-58961973D01*
X4803468Y-59000500D01*
X4803471Y-59000500D01*
X5196529Y-59000500D01*
X5196532Y-59000500D01*
X5587703Y-58961973D01*
X5662748Y-58947045D01*
X5973194Y-58885295D01*
X5973205Y-58885292D01*
X5973205Y-58885291D01*
X5973215Y-58885290D01*
X6349353Y-58771190D01*
X6712497Y-58620771D01*
X7059149Y-58435482D01*
X7385969Y-58217107D01*
X7689812Y-57967750D01*
X7967750Y-57689812D01*
X8217107Y-57385969D01*
X8435482Y-57059149D01*
X8620771Y-56712497D01*
X8771190Y-56349353D01*
X8885290Y-55973215D01*
X8885292Y-55973205D01*
X8885295Y-55973194D01*
X8935491Y-55720843D01*
X23045500Y-55720843D01*
X23045500Y-55878957D01*
X23080648Y-56010129D01*
X23086423Y-56031683D01*
X23086426Y-56031690D01*
X23165475Y-56168609D01*
X23165479Y-56168614D01*
X23165480Y-56168616D01*
X23277284Y-56280420D01*
X23277286Y-56280421D01*
X23277290Y-56280424D01*
X23396682Y-56349354D01*
X23414216Y-56359477D01*
X23566943Y-56400400D01*
X23566945Y-56400400D01*
X23725055Y-56400400D01*
X23725057Y-56400400D01*
X23877784Y-56359477D01*
X24014716Y-56280420D01*
X24126520Y-56168616D01*
X24205577Y-56031684D01*
X24246500Y-55878957D01*
X24246500Y-55720843D01*
X24205577Y-55568116D01*
X24205573Y-55568109D01*
X24126524Y-55431190D01*
X24126518Y-55431182D01*
X24014717Y-55319381D01*
X24014709Y-55319375D01*
X23877790Y-55240326D01*
X23877786Y-55240324D01*
X23877784Y-55240323D01*
X23725057Y-55199400D01*
X23566943Y-55199400D01*
X23414216Y-55240323D01*
X23414209Y-55240326D01*
X23277290Y-55319375D01*
X23277282Y-55319381D01*
X23165481Y-55431182D01*
X23165475Y-55431190D01*
X23086426Y-55568109D01*
X23086423Y-55568116D01*
X23045500Y-55720843D01*
X8935491Y-55720843D01*
X8941919Y-55688525D01*
X8961973Y-55587702D01*
X8968954Y-55516820D01*
X9000500Y-55196532D01*
X9000500Y-54957243D01*
X27903200Y-54957243D01*
X27903200Y-55115357D01*
X27936686Y-55240326D01*
X27944123Y-55268083D01*
X27944126Y-55268090D01*
X28023175Y-55405009D01*
X28023179Y-55405014D01*
X28023180Y-55405016D01*
X28134984Y-55516820D01*
X28134986Y-55516821D01*
X28134990Y-55516824D01*
X28223820Y-55568109D01*
X28271916Y-55595877D01*
X28424643Y-55636800D01*
X28424645Y-55636800D01*
X28582755Y-55636800D01*
X28582757Y-55636800D01*
X28735484Y-55595877D01*
X28872416Y-55516820D01*
X28984220Y-55405016D01*
X29063277Y-55268084D01*
X29104200Y-55115357D01*
X29104200Y-54957243D01*
X29063277Y-54804516D01*
X29062672Y-54803468D01*
X28984224Y-54667590D01*
X28984218Y-54667582D01*
X28872417Y-54555781D01*
X28872409Y-54555775D01*
X28868370Y-54553443D01*
X42179500Y-54553443D01*
X42179500Y-54711557D01*
X42215456Y-54845745D01*
X42220423Y-54864283D01*
X42220426Y-54864290D01*
X42299475Y-55001209D01*
X42299479Y-55001214D01*
X42299480Y-55001216D01*
X42411284Y-55113020D01*
X42411286Y-55113021D01*
X42411290Y-55113024D01*
X42548209Y-55192073D01*
X42548216Y-55192077D01*
X42700943Y-55233000D01*
X42700945Y-55233000D01*
X42859055Y-55233000D01*
X42859057Y-55233000D01*
X43011784Y-55192077D01*
X43148716Y-55113020D01*
X43260520Y-55001216D01*
X43339577Y-54864284D01*
X43380500Y-54711557D01*
X43380500Y-54553443D01*
X43371792Y-54520943D01*
X44719500Y-54520943D01*
X44719500Y-54679057D01*
X44753387Y-54805523D01*
X44760423Y-54831783D01*
X44760426Y-54831790D01*
X44839475Y-54968709D01*
X44839479Y-54968714D01*
X44839480Y-54968716D01*
X44951284Y-55080520D01*
X44951286Y-55080521D01*
X44951290Y-55080524D01*
X45083030Y-55156583D01*
X45088216Y-55159577D01*
X45240943Y-55200500D01*
X45240945Y-55200500D01*
X45399055Y-55200500D01*
X45399057Y-55200500D01*
X45551784Y-55159577D01*
X45688716Y-55080520D01*
X45800520Y-54968716D01*
X45871518Y-54845743D01*
X46393800Y-54845743D01*
X46393800Y-55003857D01*
X46423677Y-55115357D01*
X46434723Y-55156583D01*
X46434726Y-55156590D01*
X46513775Y-55293509D01*
X46513779Y-55293514D01*
X46513780Y-55293516D01*
X46625584Y-55405320D01*
X46625586Y-55405321D01*
X46625590Y-55405324D01*
X46762509Y-55484373D01*
X46762516Y-55484377D01*
X46915243Y-55525300D01*
X46915245Y-55525300D01*
X47073355Y-55525300D01*
X47073357Y-55525300D01*
X47226084Y-55484377D01*
X47363016Y-55405320D01*
X47474820Y-55293516D01*
X47553877Y-55156584D01*
X47594800Y-55003857D01*
X47594800Y-54845743D01*
X47583472Y-54803468D01*
X63999500Y-54803468D01*
X63999500Y-55196532D01*
X64006547Y-55268083D01*
X64038026Y-55587702D01*
X64114704Y-55973194D01*
X64114707Y-55973205D01*
X64228810Y-56349354D01*
X64379230Y-56712499D01*
X64379232Y-56712504D01*
X64564511Y-57059137D01*
X64564522Y-57059155D01*
X64782887Y-57385960D01*
X64782897Y-57385974D01*
X65032254Y-57689817D01*
X65310182Y-57967745D01*
X65310187Y-57967749D01*
X65310188Y-57967750D01*
X65614031Y-58217107D01*
X65940851Y-58435482D01*
X65940860Y-58435487D01*
X65940862Y-58435488D01*
X66287495Y-58620767D01*
X66287497Y-58620767D01*
X66287503Y-58620771D01*
X66650647Y-58771190D01*
X67026785Y-58885290D01*
X67026791Y-58885291D01*
X67026794Y-58885292D01*
X67026805Y-58885295D01*
X67412297Y-58961973D01*
X67803468Y-59000500D01*
X67803471Y-59000500D01*
X68196529Y-59000500D01*
X68196532Y-59000500D01*
X68587703Y-58961973D01*
X68662748Y-58947045D01*
X68973194Y-58885295D01*
X68973205Y-58885292D01*
X68973205Y-58885291D01*
X68973215Y-58885290D01*
X69349353Y-58771190D01*
X69712497Y-58620771D01*
X70059149Y-58435482D01*
X70385969Y-58217107D01*
X70689812Y-57967750D01*
X70967750Y-57689812D01*
X71217107Y-57385969D01*
X71435482Y-57059149D01*
X71620771Y-56712497D01*
X71771190Y-56349353D01*
X71885290Y-55973215D01*
X71885292Y-55973205D01*
X71885295Y-55973194D01*
X71961973Y-55587702D01*
X71968954Y-55516820D01*
X72000500Y-55196532D01*
X72000500Y-54803468D01*
X71997681Y-54774843D01*
X74325100Y-54774843D01*
X74325100Y-54932957D01*
X74364641Y-55080524D01*
X74366023Y-55085683D01*
X74366026Y-55085690D01*
X74445075Y-55222609D01*
X74445079Y-55222614D01*
X74445080Y-55222616D01*
X74556884Y-55334420D01*
X74556886Y-55334421D01*
X74556890Y-55334424D01*
X74679694Y-55405324D01*
X74693816Y-55413477D01*
X74846543Y-55454400D01*
X74846545Y-55454400D01*
X75004655Y-55454400D01*
X75004657Y-55454400D01*
X75157384Y-55413477D01*
X75294316Y-55334420D01*
X75406120Y-55222616D01*
X75485177Y-55085684D01*
X75526100Y-54932957D01*
X75526100Y-54774843D01*
X75485177Y-54622116D01*
X75456814Y-54572989D01*
X75406124Y-54485190D01*
X75406118Y-54485182D01*
X75294317Y-54373381D01*
X75294309Y-54373375D01*
X75157390Y-54294326D01*
X75157386Y-54294324D01*
X75157384Y-54294323D01*
X75004657Y-54253400D01*
X74846543Y-54253400D01*
X74693816Y-54294323D01*
X74693809Y-54294326D01*
X74556890Y-54373375D01*
X74556882Y-54373381D01*
X74445081Y-54485182D01*
X74445075Y-54485190D01*
X74366026Y-54622109D01*
X74366023Y-54622116D01*
X74325100Y-54774843D01*
X71997681Y-54774843D01*
X71961973Y-54412297D01*
X71952610Y-54365226D01*
X71885295Y-54026805D01*
X71885292Y-54026794D01*
X71885291Y-54026791D01*
X71885290Y-54026785D01*
X71822849Y-53820943D01*
X76299500Y-53820943D01*
X76299500Y-53979057D01*
X76337127Y-54119481D01*
X76340423Y-54131783D01*
X76340426Y-54131790D01*
X76419475Y-54268709D01*
X76419479Y-54268714D01*
X76419480Y-54268716D01*
X76531284Y-54380520D01*
X76531286Y-54380521D01*
X76531290Y-54380524D01*
X76641722Y-54444281D01*
X76668216Y-54459577D01*
X76820943Y-54500500D01*
X76820945Y-54500500D01*
X76964267Y-54500500D01*
X77031306Y-54520185D01*
X77077061Y-54572989D01*
X77087005Y-54642147D01*
X77078829Y-54671951D01*
X77069870Y-54693580D01*
X77069868Y-54693587D01*
X77029500Y-54896530D01*
X77029500Y-55103469D01*
X77069868Y-55306412D01*
X77069870Y-55306420D01*
X77143582Y-55484377D01*
X77149059Y-55497598D01*
X77167568Y-55525299D01*
X77264024Y-55669657D01*
X77410342Y-55815975D01*
X77410345Y-55815977D01*
X77582402Y-55930941D01*
X77773580Y-56010130D01*
X77976530Y-56050499D01*
X77976534Y-56050500D01*
X77976535Y-56050500D01*
X78183466Y-56050500D01*
X78183467Y-56050499D01*
X78386420Y-56010130D01*
X78577598Y-55930941D01*
X78749655Y-55815977D01*
X78895977Y-55669655D01*
X79010941Y-55497598D01*
X79090130Y-55306420D01*
X79130500Y-55103465D01*
X79130500Y-54896535D01*
X79130499Y-54896530D01*
X80029500Y-54896530D01*
X80029500Y-55103469D01*
X80069868Y-55306412D01*
X80069870Y-55306420D01*
X80143582Y-55484377D01*
X80149059Y-55497598D01*
X80167568Y-55525299D01*
X80264024Y-55669657D01*
X80410342Y-55815975D01*
X80410345Y-55815977D01*
X80582402Y-55930941D01*
X80773580Y-56010130D01*
X80976530Y-56050499D01*
X80976534Y-56050500D01*
X80976535Y-56050500D01*
X81183466Y-56050500D01*
X81183467Y-56050499D01*
X81386420Y-56010130D01*
X81577598Y-55930941D01*
X81749655Y-55815977D01*
X81895977Y-55669655D01*
X82010941Y-55497598D01*
X82090130Y-55306420D01*
X82130500Y-55103465D01*
X82130500Y-54896535D01*
X82090130Y-54693580D01*
X82010941Y-54502402D01*
X81895977Y-54330345D01*
X81895975Y-54330342D01*
X81749657Y-54184024D01*
X81583385Y-54072926D01*
X81577598Y-54069059D01*
X81508472Y-54040426D01*
X81386420Y-53989870D01*
X81386412Y-53989868D01*
X81183469Y-53949500D01*
X81183465Y-53949500D01*
X80976535Y-53949500D01*
X80976530Y-53949500D01*
X80773587Y-53989868D01*
X80773579Y-53989870D01*
X80582403Y-54069058D01*
X80410342Y-54184024D01*
X80264024Y-54330342D01*
X80149058Y-54502403D01*
X80069870Y-54693579D01*
X80069868Y-54693587D01*
X80029500Y-54896530D01*
X79130499Y-54896530D01*
X79090130Y-54693580D01*
X79010941Y-54502402D01*
X78895977Y-54330345D01*
X78895975Y-54330342D01*
X78749657Y-54184024D01*
X78583385Y-54072926D01*
X78577598Y-54069059D01*
X78508472Y-54040426D01*
X78386420Y-53989870D01*
X78386412Y-53989868D01*
X78183469Y-53949500D01*
X78183465Y-53949500D01*
X77976535Y-53949500D01*
X77976530Y-53949500D01*
X77773587Y-53989868D01*
X77773575Y-53989871D01*
X77671952Y-54031965D01*
X77602483Y-54039434D01*
X77540004Y-54008159D01*
X77504352Y-53948070D01*
X77500500Y-53917404D01*
X77500500Y-53820945D01*
X77500500Y-53820943D01*
X77459577Y-53668216D01*
X77449434Y-53650647D01*
X77380524Y-53531290D01*
X77380518Y-53531282D01*
X77268717Y-53419481D01*
X77268709Y-53419475D01*
X77131790Y-53340426D01*
X77131786Y-53340424D01*
X77131784Y-53340423D01*
X76979057Y-53299500D01*
X76820943Y-53299500D01*
X76668216Y-53340423D01*
X76668209Y-53340426D01*
X76531290Y-53419475D01*
X76531282Y-53419481D01*
X76419481Y-53531282D01*
X76419475Y-53531290D01*
X76340426Y-53668209D01*
X76340423Y-53668216D01*
X76299500Y-53820943D01*
X71822849Y-53820943D01*
X71771190Y-53650647D01*
X71620771Y-53287503D01*
X71610725Y-53268709D01*
X71435488Y-52940862D01*
X71435487Y-52940860D01*
X71435482Y-52940851D01*
X71388771Y-52870943D01*
X73249500Y-52870943D01*
X73249500Y-53029057D01*
X73285922Y-53164984D01*
X73290423Y-53181783D01*
X73290426Y-53181790D01*
X73369475Y-53318709D01*
X73369479Y-53318714D01*
X73369480Y-53318716D01*
X73481284Y-53430520D01*
X73481286Y-53430521D01*
X73481290Y-53430524D01*
X73589117Y-53492777D01*
X73618216Y-53509577D01*
X73770943Y-53550500D01*
X73770945Y-53550500D01*
X73929055Y-53550500D01*
X73929057Y-53550500D01*
X74081784Y-53509577D01*
X74218716Y-53430520D01*
X74330520Y-53318716D01*
X74390342Y-53215099D01*
X74440908Y-53166885D01*
X74497729Y-53153100D01*
X74626455Y-53153100D01*
X74626457Y-53153100D01*
X74779184Y-53112177D01*
X74916116Y-53033120D01*
X75027920Y-52921316D01*
X75106977Y-52784384D01*
X75147900Y-52631657D01*
X75147900Y-52473543D01*
X75106977Y-52320816D01*
X75087742Y-52287499D01*
X75027924Y-52183890D01*
X75027921Y-52183886D01*
X75027920Y-52183884D01*
X74916116Y-52072080D01*
X74779184Y-51993023D01*
X74626457Y-51952100D01*
X74468343Y-51952100D01*
X74315616Y-51993023D01*
X74315609Y-51993026D01*
X74178690Y-52072075D01*
X74178682Y-52072081D01*
X74066881Y-52183882D01*
X74066879Y-52183885D01*
X74042107Y-52226792D01*
X74007057Y-52287500D01*
X73956492Y-52335715D01*
X73899671Y-52349500D01*
X73770943Y-52349500D01*
X73618216Y-52390423D01*
X73618209Y-52390426D01*
X73481290Y-52469475D01*
X73481282Y-52469481D01*
X73369481Y-52581282D01*
X73369475Y-52581290D01*
X73290426Y-52718209D01*
X73290423Y-52718216D01*
X73249500Y-52870943D01*
X71388771Y-52870943D01*
X71217107Y-52614031D01*
X70967750Y-52310188D01*
X70967749Y-52310187D01*
X70967745Y-52310182D01*
X70689817Y-52032254D01*
X70524436Y-51896530D01*
X77029500Y-51896530D01*
X77029500Y-52103469D01*
X77069868Y-52306412D01*
X77069870Y-52306420D01*
X77132605Y-52457876D01*
X77149059Y-52497598D01*
X77198297Y-52571289D01*
X77264024Y-52669657D01*
X77410342Y-52815975D01*
X77410345Y-52815977D01*
X77582402Y-52930941D01*
X77773580Y-53010130D01*
X77976530Y-53050499D01*
X77976534Y-53050500D01*
X77976535Y-53050500D01*
X78183466Y-53050500D01*
X78183467Y-53050499D01*
X78386420Y-53010130D01*
X78577598Y-52930941D01*
X78749655Y-52815977D01*
X78895977Y-52669655D01*
X79010941Y-52497598D01*
X79090130Y-52306420D01*
X79130500Y-52103465D01*
X79130500Y-51896535D01*
X79130499Y-51896530D01*
X80029500Y-51896530D01*
X80029500Y-52103469D01*
X80069868Y-52306412D01*
X80069870Y-52306420D01*
X80132605Y-52457876D01*
X80149059Y-52497598D01*
X80198297Y-52571289D01*
X80264024Y-52669657D01*
X80410342Y-52815975D01*
X80410345Y-52815977D01*
X80582402Y-52930941D01*
X80773580Y-53010130D01*
X80976530Y-53050499D01*
X80976534Y-53050500D01*
X80976535Y-53050500D01*
X81183466Y-53050500D01*
X81183467Y-53050499D01*
X81386420Y-53010130D01*
X81577598Y-52930941D01*
X81749655Y-52815977D01*
X81830374Y-52735258D01*
X83649500Y-52735258D01*
X83649500Y-52964741D01*
X83671493Y-53131783D01*
X83679452Y-53192238D01*
X83729903Y-53380524D01*
X83738842Y-53413887D01*
X83826650Y-53625876D01*
X83826657Y-53625890D01*
X83941392Y-53824617D01*
X84081081Y-54006661D01*
X84081089Y-54006670D01*
X84243330Y-54168911D01*
X84243338Y-54168918D01*
X84425382Y-54308607D01*
X84425385Y-54308608D01*
X84425388Y-54308611D01*
X84624112Y-54423344D01*
X84624117Y-54423346D01*
X84624123Y-54423349D01*
X84674658Y-54444281D01*
X84836113Y-54511158D01*
X85057762Y-54570548D01*
X85285266Y-54600500D01*
X85285273Y-54600500D01*
X85514727Y-54600500D01*
X85514734Y-54600500D01*
X85742238Y-54570548D01*
X85963887Y-54511158D01*
X86175888Y-54423344D01*
X86374612Y-54308611D01*
X86556661Y-54168919D01*
X86556665Y-54168914D01*
X86556670Y-54168911D01*
X86718911Y-54006670D01*
X86718914Y-54006665D01*
X86718919Y-54006661D01*
X86858611Y-53824612D01*
X86973344Y-53625888D01*
X87061158Y-53413887D01*
X87120548Y-53192238D01*
X87150500Y-52964734D01*
X87150500Y-52735266D01*
X87120548Y-52507762D01*
X87061158Y-52286113D01*
X87008031Y-52157853D01*
X86973349Y-52074123D01*
X86973346Y-52074117D01*
X86973344Y-52074112D01*
X86858611Y-51875388D01*
X86858608Y-51875385D01*
X86858607Y-51875382D01*
X86729874Y-51707616D01*
X86718919Y-51693339D01*
X86718918Y-51693338D01*
X86718911Y-51693330D01*
X86556670Y-51531089D01*
X86556661Y-51531081D01*
X86374617Y-51391392D01*
X86175890Y-51276657D01*
X86175876Y-51276650D01*
X85963887Y-51188842D01*
X85945902Y-51184023D01*
X85742238Y-51129452D01*
X85704215Y-51124446D01*
X85514741Y-51099500D01*
X85514734Y-51099500D01*
X85285266Y-51099500D01*
X85285258Y-51099500D01*
X85068715Y-51128009D01*
X85057762Y-51129452D01*
X84964076Y-51154554D01*
X84836112Y-51188842D01*
X84624123Y-51276650D01*
X84624109Y-51276657D01*
X84425382Y-51391392D01*
X84243338Y-51531081D01*
X84081081Y-51693338D01*
X83941392Y-51875382D01*
X83826657Y-52074109D01*
X83826650Y-52074123D01*
X83738842Y-52286112D01*
X83710892Y-52390426D01*
X83681854Y-52498800D01*
X83679453Y-52507759D01*
X83679451Y-52507770D01*
X83649500Y-52735258D01*
X81830374Y-52735258D01*
X81895977Y-52669655D01*
X82010941Y-52497598D01*
X82090130Y-52306420D01*
X82130500Y-52103465D01*
X82130500Y-51896535D01*
X82090130Y-51693580D01*
X82010941Y-51502402D01*
X81895977Y-51330345D01*
X81895975Y-51330342D01*
X81749657Y-51184024D01*
X81645920Y-51114710D01*
X81577598Y-51069059D01*
X81386420Y-50989870D01*
X81386412Y-50989868D01*
X81183469Y-50949500D01*
X81183465Y-50949500D01*
X80976535Y-50949500D01*
X80976530Y-50949500D01*
X80773587Y-50989868D01*
X80773579Y-50989870D01*
X80582403Y-51069058D01*
X80410342Y-51184024D01*
X80264024Y-51330342D01*
X80149058Y-51502403D01*
X80069870Y-51693579D01*
X80069868Y-51693587D01*
X80029500Y-51896530D01*
X79130499Y-51896530D01*
X79090130Y-51693580D01*
X79010941Y-51502402D01*
X78895977Y-51330345D01*
X78895975Y-51330342D01*
X78749657Y-51184024D01*
X78645920Y-51114710D01*
X78577598Y-51069059D01*
X78386420Y-50989870D01*
X78386412Y-50989868D01*
X78183469Y-50949500D01*
X78183465Y-50949500D01*
X77976535Y-50949500D01*
X77976530Y-50949500D01*
X77773587Y-50989868D01*
X77773579Y-50989870D01*
X77582403Y-51069058D01*
X77410342Y-51184024D01*
X77264024Y-51330342D01*
X77149058Y-51502403D01*
X77069870Y-51693579D01*
X77069868Y-51693587D01*
X77029500Y-51896530D01*
X70524436Y-51896530D01*
X70385974Y-51782897D01*
X70385973Y-51782896D01*
X70385969Y-51782893D01*
X70059149Y-51564518D01*
X70059144Y-51564515D01*
X70059137Y-51564511D01*
X69712504Y-51379232D01*
X69712499Y-51379230D01*
X69349354Y-51228810D01*
X68973205Y-51114707D01*
X68973194Y-51114704D01*
X68587702Y-51038026D01*
X68293089Y-51009010D01*
X68196532Y-50999500D01*
X67803468Y-50999500D01*
X67714251Y-51008287D01*
X67412297Y-51038026D01*
X67026805Y-51114704D01*
X67026794Y-51114707D01*
X66650645Y-51228810D01*
X66287500Y-51379230D01*
X66287495Y-51379232D01*
X65940862Y-51564511D01*
X65940844Y-51564522D01*
X65614039Y-51782887D01*
X65614025Y-51782897D01*
X65310182Y-52032254D01*
X65032254Y-52310182D01*
X64782897Y-52614025D01*
X64782887Y-52614039D01*
X64564522Y-52940844D01*
X64564511Y-52940862D01*
X64379232Y-53287495D01*
X64379230Y-53287500D01*
X64228810Y-53650645D01*
X64114707Y-54026794D01*
X64114704Y-54026805D01*
X64038026Y-54412297D01*
X64011753Y-54679057D01*
X63999500Y-54803468D01*
X47583472Y-54803468D01*
X47553877Y-54693016D01*
X47541715Y-54671951D01*
X47474824Y-54556090D01*
X47474818Y-54556082D01*
X47363017Y-54444281D01*
X47363009Y-54444275D01*
X47226090Y-54365226D01*
X47226086Y-54365224D01*
X47226084Y-54365223D01*
X47073357Y-54324300D01*
X46915243Y-54324300D01*
X46762516Y-54365223D01*
X46762509Y-54365226D01*
X46625590Y-54444275D01*
X46625582Y-54444281D01*
X46513781Y-54556082D01*
X46513775Y-54556090D01*
X46434726Y-54693009D01*
X46434724Y-54693014D01*
X46434723Y-54693016D01*
X46393800Y-54845743D01*
X45871518Y-54845743D01*
X45879577Y-54831784D01*
X45920500Y-54679057D01*
X45920500Y-54520943D01*
X45879577Y-54368216D01*
X45877849Y-54365223D01*
X45800524Y-54231290D01*
X45800518Y-54231282D01*
X45688717Y-54119481D01*
X45688709Y-54119475D01*
X45551790Y-54040426D01*
X45551786Y-54040424D01*
X45551784Y-54040423D01*
X45399057Y-53999500D01*
X45240943Y-53999500D01*
X45088216Y-54040423D01*
X45088209Y-54040426D01*
X44951290Y-54119475D01*
X44951282Y-54119481D01*
X44839481Y-54231282D01*
X44839475Y-54231290D01*
X44760426Y-54368209D01*
X44760423Y-54368216D01*
X44719500Y-54520943D01*
X43371792Y-54520943D01*
X43339577Y-54400716D01*
X43286401Y-54308611D01*
X43260524Y-54263790D01*
X43260518Y-54263782D01*
X43148717Y-54151981D01*
X43148709Y-54151975D01*
X43011790Y-54072926D01*
X43011786Y-54072924D01*
X43011784Y-54072923D01*
X42859057Y-54032000D01*
X42700943Y-54032000D01*
X42548216Y-54072923D01*
X42548209Y-54072926D01*
X42411290Y-54151975D01*
X42411282Y-54151981D01*
X42299481Y-54263782D01*
X42299475Y-54263790D01*
X42220426Y-54400709D01*
X42220424Y-54400714D01*
X42220423Y-54400716D01*
X42179500Y-54553443D01*
X28868370Y-54553443D01*
X28735490Y-54476726D01*
X28735486Y-54476724D01*
X28735484Y-54476723D01*
X28582757Y-54435800D01*
X28424643Y-54435800D01*
X28271916Y-54476723D01*
X28271909Y-54476726D01*
X28134990Y-54555775D01*
X28134982Y-54555781D01*
X28023181Y-54667582D01*
X28023175Y-54667590D01*
X27944126Y-54804509D01*
X27944123Y-54804516D01*
X27903200Y-54957243D01*
X9000500Y-54957243D01*
X9000500Y-54803468D01*
X8961973Y-54412297D01*
X8952610Y-54365226D01*
X8885295Y-54026805D01*
X8885292Y-54026794D01*
X8885291Y-54026791D01*
X8885290Y-54026785D01*
X8771190Y-53650647D01*
X8620771Y-53287503D01*
X8610725Y-53268709D01*
X8435488Y-52940862D01*
X8435480Y-52940848D01*
X8418146Y-52914906D01*
X8418145Y-52914905D01*
X8388770Y-52870943D01*
X8377545Y-52854143D01*
X32761100Y-52854143D01*
X32761100Y-53012257D01*
X32798839Y-53153099D01*
X32802023Y-53164983D01*
X32802026Y-53164990D01*
X32881075Y-53301909D01*
X32881079Y-53301914D01*
X32881080Y-53301916D01*
X32992884Y-53413720D01*
X32992886Y-53413721D01*
X32992890Y-53413724D01*
X33072311Y-53459577D01*
X33129816Y-53492777D01*
X33282543Y-53533700D01*
X33282545Y-53533700D01*
X33440655Y-53533700D01*
X33440657Y-53533700D01*
X33593384Y-53492777D01*
X33730316Y-53413720D01*
X33842120Y-53301916D01*
X33921177Y-53164984D01*
X33962100Y-53012257D01*
X33962100Y-52854143D01*
X33921177Y-52701416D01*
X33902005Y-52668209D01*
X33842124Y-52564490D01*
X33842118Y-52564482D01*
X33730317Y-52452681D01*
X33730309Y-52452675D01*
X33593390Y-52373626D01*
X33593386Y-52373624D01*
X33593384Y-52373623D01*
X33440657Y-52332700D01*
X33282543Y-52332700D01*
X33129816Y-52373623D01*
X33129809Y-52373626D01*
X32992890Y-52452675D01*
X32992882Y-52452681D01*
X32881081Y-52564482D01*
X32881075Y-52564490D01*
X32802026Y-52701409D01*
X32802023Y-52701416D01*
X32761100Y-52854143D01*
X8377545Y-52854143D01*
X8217107Y-52614031D01*
X7967750Y-52310188D01*
X7967749Y-52310187D01*
X7967745Y-52310182D01*
X7689817Y-52032254D01*
X7587237Y-51948069D01*
X7480342Y-51860343D01*
X42752400Y-51860343D01*
X42752400Y-52018457D01*
X42782311Y-52130084D01*
X42793323Y-52171183D01*
X42793326Y-52171190D01*
X42872375Y-52308109D01*
X42872379Y-52308114D01*
X42872380Y-52308116D01*
X42984184Y-52419920D01*
X42984186Y-52419921D01*
X42984190Y-52419924D01*
X43118724Y-52497596D01*
X43121116Y-52498977D01*
X43273843Y-52539900D01*
X43273845Y-52539900D01*
X43431955Y-52539900D01*
X43431957Y-52539900D01*
X43584684Y-52498977D01*
X43721616Y-52419920D01*
X43833420Y-52308116D01*
X43912477Y-52171184D01*
X43953400Y-52018457D01*
X43953400Y-51860343D01*
X43942387Y-51819243D01*
X46549100Y-51819243D01*
X46549100Y-51977357D01*
X46582891Y-52103465D01*
X46590023Y-52130083D01*
X46590026Y-52130090D01*
X46669075Y-52267009D01*
X46669079Y-52267014D01*
X46669080Y-52267016D01*
X46780884Y-52378820D01*
X46780886Y-52378821D01*
X46780890Y-52378824D01*
X46908806Y-52452675D01*
X46917816Y-52457877D01*
X47070543Y-52498800D01*
X47070545Y-52498800D01*
X47185018Y-52498800D01*
X47252057Y-52518485D01*
X47297812Y-52571289D01*
X47307756Y-52640447D01*
X47302308Y-52660306D01*
X47302527Y-52660365D01*
X47300423Y-52668214D01*
X47300423Y-52668216D01*
X47259500Y-52820943D01*
X47259500Y-52979057D01*
X47295170Y-53112177D01*
X47300423Y-53131783D01*
X47300426Y-53131790D01*
X47379475Y-53268709D01*
X47379479Y-53268714D01*
X47379480Y-53268716D01*
X47491284Y-53380520D01*
X47491286Y-53380521D01*
X47491290Y-53380524D01*
X47577887Y-53430520D01*
X47628216Y-53459577D01*
X47780943Y-53500500D01*
X47780945Y-53500500D01*
X47939055Y-53500500D01*
X47939057Y-53500500D01*
X48091784Y-53459577D01*
X48228716Y-53380520D01*
X48340520Y-53268716D01*
X48419577Y-53131784D01*
X48460500Y-52979057D01*
X48460500Y-52820943D01*
X48419577Y-52668216D01*
X48369391Y-52581290D01*
X48340524Y-52531290D01*
X48340518Y-52531282D01*
X48228717Y-52419481D01*
X48228709Y-52419475D01*
X48091790Y-52340426D01*
X48091786Y-52340424D01*
X48091784Y-52340423D01*
X47939057Y-52299500D01*
X47824582Y-52299500D01*
X47757543Y-52279815D01*
X47711788Y-52227011D01*
X47701844Y-52157853D01*
X47707291Y-52137993D01*
X47707073Y-52137935D01*
X47716309Y-52103466D01*
X47750100Y-51977357D01*
X47750100Y-51819243D01*
X47709177Y-51666516D01*
X47709173Y-51666509D01*
X47630124Y-51529590D01*
X47630118Y-51529582D01*
X47518317Y-51417781D01*
X47518309Y-51417775D01*
X47381390Y-51338726D01*
X47381386Y-51338724D01*
X47381384Y-51338723D01*
X47228657Y-51297800D01*
X47070543Y-51297800D01*
X46917816Y-51338723D01*
X46917809Y-51338726D01*
X46780890Y-51417775D01*
X46780882Y-51417781D01*
X46669081Y-51529582D01*
X46669075Y-51529590D01*
X46590026Y-51666509D01*
X46590023Y-51666516D01*
X46549100Y-51819243D01*
X43942387Y-51819243D01*
X43912477Y-51707616D01*
X43912473Y-51707609D01*
X43833424Y-51570690D01*
X43833418Y-51570682D01*
X43721617Y-51458881D01*
X43721609Y-51458875D01*
X43584690Y-51379826D01*
X43584686Y-51379824D01*
X43584684Y-51379823D01*
X43431957Y-51338900D01*
X43273843Y-51338900D01*
X43121116Y-51379823D01*
X43121109Y-51379826D01*
X42984190Y-51458875D01*
X42984182Y-51458881D01*
X42872381Y-51570682D01*
X42872375Y-51570690D01*
X42793326Y-51707609D01*
X42793324Y-51707614D01*
X42793323Y-51707616D01*
X42752400Y-51860343D01*
X7480342Y-51860343D01*
X7385974Y-51782897D01*
X7385973Y-51782896D01*
X7385969Y-51782893D01*
X7059149Y-51564518D01*
X7059144Y-51564515D01*
X7059137Y-51564511D01*
X6712504Y-51379232D01*
X6712499Y-51379230D01*
X6349354Y-51228810D01*
X5973205Y-51114707D01*
X5973194Y-51114704D01*
X5587702Y-51038026D01*
X5293089Y-51009010D01*
X5196532Y-50999500D01*
X4803468Y-50999500D01*
X4714251Y-51008287D01*
X4412297Y-51038026D01*
X4026805Y-51114704D01*
X4026794Y-51114707D01*
X3650645Y-51228810D01*
X3287500Y-51379230D01*
X3287495Y-51379232D01*
X2940862Y-51564511D01*
X2940844Y-51564522D01*
X2614039Y-51782887D01*
X2614025Y-51782897D01*
X2310182Y-52032254D01*
X2032254Y-52310182D01*
X1782897Y-52614025D01*
X1782887Y-52614039D01*
X1564522Y-52940844D01*
X1564511Y-52940862D01*
X1379232Y-53287495D01*
X1379230Y-53287500D01*
X1228810Y-53650645D01*
X1114707Y-54026794D01*
X1114704Y-54026805D01*
X1038026Y-54412297D01*
X1011753Y-54679057D01*
X999500Y-54803468D01*
X500500Y-54803468D01*
X500500Y-49394943D01*
X42756400Y-49394943D01*
X42756400Y-49553057D01*
X42787643Y-49669655D01*
X42797323Y-49705783D01*
X42797326Y-49705790D01*
X42876375Y-49842709D01*
X42876379Y-49842714D01*
X42876380Y-49842716D01*
X42988184Y-49954520D01*
X42988186Y-49954521D01*
X42988190Y-49954524D01*
X43084502Y-50010129D01*
X43125116Y-50033577D01*
X43277843Y-50074500D01*
X43277845Y-50074500D01*
X43435955Y-50074500D01*
X43435957Y-50074500D01*
X43588684Y-50033577D01*
X43725616Y-49954520D01*
X43837420Y-49842716D01*
X43849991Y-49820943D01*
X53889500Y-49820943D01*
X53889500Y-49979057D01*
X53925877Y-50114816D01*
X53930423Y-50131783D01*
X53930426Y-50131790D01*
X54009475Y-50268709D01*
X54009479Y-50268714D01*
X54009480Y-50268716D01*
X54121284Y-50380520D01*
X54121286Y-50380521D01*
X54121290Y-50380524D01*
X54199464Y-50425657D01*
X54258216Y-50459577D01*
X54410943Y-50500500D01*
X54410945Y-50500500D01*
X54569055Y-50500500D01*
X54569057Y-50500500D01*
X54721784Y-50459577D01*
X54858716Y-50380520D01*
X54970520Y-50268716D01*
X54971197Y-50267543D01*
X55686900Y-50267543D01*
X55686900Y-50425656D01*
X55727823Y-50578383D01*
X55727826Y-50578390D01*
X55806875Y-50715309D01*
X55806879Y-50715314D01*
X55806880Y-50715316D01*
X55918684Y-50827120D01*
X55918686Y-50827121D01*
X55918690Y-50827124D01*
X56055609Y-50906173D01*
X56055616Y-50906177D01*
X56208343Y-50947100D01*
X56208345Y-50947100D01*
X56366455Y-50947100D01*
X56366457Y-50947100D01*
X56519184Y-50906177D01*
X56656116Y-50827120D01*
X56767920Y-50715316D01*
X56846977Y-50578384D01*
X56887900Y-50425657D01*
X56887900Y-50267543D01*
X56846977Y-50114816D01*
X56823700Y-50074499D01*
X56767924Y-49977890D01*
X56767918Y-49977882D01*
X56656117Y-49866081D01*
X56656109Y-49866075D01*
X56519190Y-49787026D01*
X56519186Y-49787024D01*
X56519184Y-49787023D01*
X56366457Y-49746100D01*
X56208343Y-49746100D01*
X56055616Y-49787023D01*
X56055609Y-49787026D01*
X55918690Y-49866075D01*
X55918682Y-49866081D01*
X55806881Y-49977882D01*
X55806875Y-49977890D01*
X55727826Y-50114809D01*
X55727823Y-50114816D01*
X55686900Y-50267543D01*
X54971197Y-50267543D01*
X55049577Y-50131784D01*
X55090500Y-49979057D01*
X55090500Y-49820943D01*
X55049577Y-49668216D01*
X54983090Y-49553056D01*
X54970524Y-49531290D01*
X54970518Y-49531282D01*
X54858717Y-49419481D01*
X54858709Y-49419475D01*
X54721790Y-49340426D01*
X54721786Y-49340424D01*
X54721784Y-49340423D01*
X54569057Y-49299500D01*
X54410943Y-49299500D01*
X54258216Y-49340423D01*
X54258209Y-49340426D01*
X54121290Y-49419475D01*
X54121282Y-49419481D01*
X54009481Y-49531282D01*
X54009475Y-49531290D01*
X53930426Y-49668209D01*
X53930423Y-49668216D01*
X53889500Y-49820943D01*
X43849991Y-49820943D01*
X43916477Y-49705784D01*
X43957400Y-49553057D01*
X43957400Y-49394943D01*
X43916477Y-49242216D01*
X43916473Y-49242209D01*
X43837424Y-49105290D01*
X43837418Y-49105282D01*
X43725617Y-48993481D01*
X43725609Y-48993475D01*
X43588690Y-48914426D01*
X43588686Y-48914424D01*
X43588684Y-48914423D01*
X43435957Y-48873500D01*
X43277843Y-48873500D01*
X43125116Y-48914423D01*
X43125109Y-48914426D01*
X42988190Y-48993475D01*
X42988182Y-48993481D01*
X42876381Y-49105282D01*
X42876375Y-49105290D01*
X42797326Y-49242209D01*
X42797323Y-49242216D01*
X42756400Y-49394943D01*
X500500Y-49394943D01*
X500500Y-47820943D01*
X56889500Y-47820943D01*
X56889500Y-47979057D01*
X56893339Y-47993382D01*
X56930423Y-48131783D01*
X56930426Y-48131790D01*
X57009475Y-48268709D01*
X57009479Y-48268714D01*
X57009480Y-48268716D01*
X57121284Y-48380520D01*
X57121286Y-48380521D01*
X57121290Y-48380524D01*
X57226311Y-48441157D01*
X57258216Y-48459577D01*
X57410943Y-48500500D01*
X57410945Y-48500500D01*
X57569055Y-48500500D01*
X57569057Y-48500500D01*
X57721784Y-48459577D01*
X57858716Y-48380520D01*
X57956193Y-48283043D01*
X69047400Y-48283043D01*
X69047400Y-48441157D01*
X69052336Y-48459576D01*
X69088323Y-48593883D01*
X69088326Y-48593890D01*
X69167375Y-48730809D01*
X69167379Y-48730814D01*
X69167380Y-48730816D01*
X69279184Y-48842620D01*
X69279186Y-48842621D01*
X69279190Y-48842624D01*
X69403557Y-48914426D01*
X69416116Y-48921677D01*
X69568843Y-48962600D01*
X69568845Y-48962600D01*
X69726955Y-48962600D01*
X69726957Y-48962600D01*
X69879684Y-48921677D01*
X69923240Y-48896530D01*
X77029500Y-48896530D01*
X77029500Y-49103469D01*
X77069868Y-49306412D01*
X77069870Y-49306420D01*
X77149058Y-49497596D01*
X77264024Y-49669657D01*
X77410342Y-49815975D01*
X77410345Y-49815977D01*
X77582402Y-49930941D01*
X77773580Y-50010130D01*
X77976530Y-50050499D01*
X77976534Y-50050500D01*
X77976535Y-50050500D01*
X78183466Y-50050500D01*
X78183467Y-50050499D01*
X78386420Y-50010130D01*
X78577598Y-49930941D01*
X78749655Y-49815977D01*
X78895977Y-49669655D01*
X79010941Y-49497598D01*
X79090130Y-49306420D01*
X79130500Y-49103465D01*
X79130500Y-48896535D01*
X79130499Y-48896530D01*
X80029500Y-48896530D01*
X80029500Y-49103469D01*
X80069868Y-49306412D01*
X80069870Y-49306420D01*
X80149058Y-49497596D01*
X80264024Y-49669657D01*
X80410342Y-49815975D01*
X80410345Y-49815977D01*
X80582402Y-49930941D01*
X80773580Y-50010130D01*
X80976530Y-50050499D01*
X80976534Y-50050500D01*
X80976535Y-50050500D01*
X81183466Y-50050500D01*
X81183467Y-50050499D01*
X81386420Y-50010130D01*
X81577598Y-49930941D01*
X81749655Y-49815977D01*
X81895977Y-49669655D01*
X82010941Y-49497598D01*
X82090130Y-49306420D01*
X82130500Y-49103465D01*
X82130500Y-48896535D01*
X82090130Y-48693580D01*
X82010941Y-48502402D01*
X81895977Y-48330345D01*
X81895975Y-48330342D01*
X81749657Y-48184024D01*
X81663626Y-48126541D01*
X81577598Y-48069059D01*
X81394903Y-47993384D01*
X81386420Y-47989870D01*
X81386412Y-47989868D01*
X81183469Y-47949500D01*
X81183465Y-47949500D01*
X80976535Y-47949500D01*
X80976530Y-47949500D01*
X80773587Y-47989868D01*
X80773579Y-47989870D01*
X80582403Y-48069058D01*
X80410342Y-48184024D01*
X80264024Y-48330342D01*
X80149058Y-48502403D01*
X80069870Y-48693579D01*
X80069868Y-48693587D01*
X80029500Y-48896530D01*
X79130499Y-48896530D01*
X79090130Y-48693580D01*
X79010941Y-48502402D01*
X78895977Y-48330345D01*
X78895975Y-48330342D01*
X78749657Y-48184024D01*
X78663626Y-48126541D01*
X78577598Y-48069059D01*
X78394903Y-47993384D01*
X78386420Y-47989870D01*
X78386412Y-47989868D01*
X78183469Y-47949500D01*
X78183465Y-47949500D01*
X77976535Y-47949500D01*
X77976530Y-47949500D01*
X77773587Y-47989868D01*
X77773579Y-47989870D01*
X77582403Y-48069058D01*
X77410342Y-48184024D01*
X77264024Y-48330342D01*
X77149058Y-48502403D01*
X77069870Y-48693579D01*
X77069868Y-48693587D01*
X77029500Y-48896530D01*
X69923240Y-48896530D01*
X70016616Y-48842620D01*
X70128420Y-48730816D01*
X70207477Y-48593884D01*
X70248400Y-48441157D01*
X70248400Y-48283043D01*
X70207477Y-48130316D01*
X70172110Y-48069058D01*
X70128424Y-47993390D01*
X70128418Y-47993382D01*
X70016617Y-47881581D01*
X70016609Y-47881575D01*
X69879690Y-47802526D01*
X69879686Y-47802524D01*
X69879684Y-47802523D01*
X69726957Y-47761600D01*
X69568843Y-47761600D01*
X69416116Y-47802523D01*
X69416109Y-47802526D01*
X69279190Y-47881575D01*
X69279182Y-47881581D01*
X69167381Y-47993382D01*
X69167375Y-47993390D01*
X69088326Y-48130309D01*
X69088323Y-48130316D01*
X69047400Y-48283043D01*
X57956193Y-48283043D01*
X57970520Y-48268716D01*
X58003080Y-48212318D01*
X58049574Y-48131790D01*
X58049574Y-48131788D01*
X58049577Y-48131784D01*
X58090500Y-47979057D01*
X58090500Y-47820943D01*
X58049577Y-47668216D01*
X58049573Y-47668209D01*
X57970524Y-47531290D01*
X57970518Y-47531282D01*
X57858717Y-47419481D01*
X57858709Y-47419475D01*
X57721790Y-47340426D01*
X57721786Y-47340424D01*
X57721784Y-47340423D01*
X57569057Y-47299500D01*
X57410943Y-47299500D01*
X57258216Y-47340423D01*
X57258209Y-47340426D01*
X57121290Y-47419475D01*
X57121282Y-47419481D01*
X57009481Y-47531282D01*
X57009475Y-47531290D01*
X56930426Y-47668209D01*
X56930423Y-47668216D01*
X56889500Y-47820943D01*
X500500Y-47820943D01*
X500500Y-47120743D01*
X58695100Y-47120743D01*
X58695100Y-47278857D01*
X58732779Y-47419475D01*
X58736023Y-47431583D01*
X58736026Y-47431590D01*
X58815075Y-47568509D01*
X58815079Y-47568514D01*
X58815080Y-47568516D01*
X58926884Y-47680320D01*
X58926886Y-47680321D01*
X58926890Y-47680324D01*
X59063809Y-47759373D01*
X59063816Y-47759377D01*
X59216543Y-47800300D01*
X59216545Y-47800300D01*
X59374655Y-47800300D01*
X59374657Y-47800300D01*
X59527384Y-47759377D01*
X59664316Y-47680320D01*
X59776120Y-47568516D01*
X59855177Y-47431584D01*
X59896100Y-47278857D01*
X59896100Y-47120743D01*
X59855177Y-46968016D01*
X59824689Y-46915209D01*
X59776124Y-46831090D01*
X59776118Y-46831082D01*
X59664317Y-46719281D01*
X59664309Y-46719275D01*
X59527390Y-46640226D01*
X59527386Y-46640224D01*
X59527384Y-46640223D01*
X59374657Y-46599300D01*
X59216543Y-46599300D01*
X59063816Y-46640223D01*
X59063809Y-46640226D01*
X58926890Y-46719275D01*
X58926882Y-46719281D01*
X58815081Y-46831082D01*
X58815075Y-46831090D01*
X58736026Y-46968009D01*
X58736023Y-46968016D01*
X58695100Y-47120743D01*
X500500Y-47120743D01*
X500500Y-46150243D01*
X50417400Y-46150243D01*
X50417400Y-46308357D01*
X50449250Y-46427221D01*
X50458323Y-46461083D01*
X50458326Y-46461090D01*
X50537375Y-46598009D01*
X50537379Y-46598014D01*
X50537380Y-46598016D01*
X50649184Y-46709820D01*
X50649186Y-46709821D01*
X50649190Y-46709824D01*
X50786109Y-46788873D01*
X50786116Y-46788877D01*
X50938843Y-46829800D01*
X50938845Y-46829800D01*
X51096955Y-46829800D01*
X51096957Y-46829800D01*
X51249684Y-46788877D01*
X51386616Y-46709820D01*
X51498420Y-46598016D01*
X51573806Y-46467443D01*
X73571700Y-46467443D01*
X73571700Y-46625557D01*
X73594280Y-46709824D01*
X73612623Y-46778283D01*
X73612626Y-46778290D01*
X73691675Y-46915209D01*
X73691679Y-46915214D01*
X73691680Y-46915216D01*
X73803484Y-47027020D01*
X73803486Y-47027021D01*
X73803490Y-47027024D01*
X73940409Y-47106073D01*
X73940416Y-47106077D01*
X74093143Y-47147000D01*
X74093145Y-47147000D01*
X74251255Y-47147000D01*
X74251257Y-47147000D01*
X74403984Y-47106077D01*
X74540916Y-47027020D01*
X74652720Y-46915216D01*
X74731777Y-46778284D01*
X74772700Y-46625557D01*
X74772700Y-46467443D01*
X74731777Y-46314716D01*
X74726983Y-46306412D01*
X74652724Y-46177790D01*
X74652718Y-46177782D01*
X74540917Y-46065981D01*
X74540909Y-46065975D01*
X74422880Y-45997831D01*
X74422877Y-45997831D01*
X74422331Y-45997516D01*
X74403984Y-45986923D01*
X74251257Y-45946000D01*
X74093143Y-45946000D01*
X73940416Y-45986923D01*
X73940409Y-45986926D01*
X73803490Y-46065975D01*
X73803482Y-46065981D01*
X73691681Y-46177782D01*
X73691675Y-46177790D01*
X73612626Y-46314709D01*
X73612623Y-46314716D01*
X73571700Y-46467443D01*
X51573806Y-46467443D01*
X51577477Y-46461084D01*
X51618400Y-46308357D01*
X51618400Y-46150243D01*
X51577477Y-45997516D01*
X51571361Y-45986923D01*
X51519174Y-45896530D01*
X77029500Y-45896530D01*
X77029500Y-46103469D01*
X77069868Y-46306412D01*
X77069870Y-46306420D01*
X77149058Y-46497596D01*
X77264024Y-46669657D01*
X77410342Y-46815975D01*
X77410345Y-46815977D01*
X77582402Y-46930941D01*
X77773580Y-47010130D01*
X77976530Y-47050499D01*
X77976534Y-47050500D01*
X77976535Y-47050500D01*
X78183466Y-47050500D01*
X78183467Y-47050499D01*
X78386420Y-47010130D01*
X78577598Y-46930941D01*
X78749655Y-46815977D01*
X78895977Y-46669655D01*
X79010941Y-46497598D01*
X79090130Y-46306420D01*
X79130500Y-46103465D01*
X79130500Y-45896535D01*
X79130499Y-45896530D01*
X80029500Y-45896530D01*
X80029500Y-46103469D01*
X80069868Y-46306412D01*
X80069870Y-46306420D01*
X80149058Y-46497596D01*
X80264024Y-46669657D01*
X80410342Y-46815975D01*
X80410345Y-46815977D01*
X80582402Y-46930941D01*
X80773580Y-47010130D01*
X80976530Y-47050499D01*
X80976534Y-47050500D01*
X80976535Y-47050500D01*
X81183466Y-47050500D01*
X81183467Y-47050499D01*
X81386420Y-47010130D01*
X81577598Y-46930941D01*
X81749655Y-46815977D01*
X81895977Y-46669655D01*
X82010941Y-46497598D01*
X82090130Y-46306420D01*
X82130500Y-46103465D01*
X82130500Y-45896535D01*
X82090130Y-45693580D01*
X82010941Y-45502402D01*
X81895977Y-45330345D01*
X81895975Y-45330342D01*
X81749657Y-45184024D01*
X81663626Y-45126541D01*
X81577598Y-45069059D01*
X81386420Y-44989870D01*
X81386412Y-44989868D01*
X81183469Y-44949500D01*
X81183465Y-44949500D01*
X80976535Y-44949500D01*
X80976530Y-44949500D01*
X80773587Y-44989868D01*
X80773579Y-44989870D01*
X80582403Y-45069058D01*
X80410342Y-45184024D01*
X80264024Y-45330342D01*
X80149058Y-45502403D01*
X80069870Y-45693579D01*
X80069868Y-45693587D01*
X80029500Y-45896530D01*
X79130499Y-45896530D01*
X79090130Y-45693580D01*
X79010941Y-45502402D01*
X78895977Y-45330345D01*
X78895975Y-45330342D01*
X78749657Y-45184024D01*
X78663626Y-45126541D01*
X78577598Y-45069059D01*
X78386420Y-44989870D01*
X78386412Y-44989868D01*
X78183469Y-44949500D01*
X78183465Y-44949500D01*
X77976535Y-44949500D01*
X77976530Y-44949500D01*
X77773587Y-44989868D01*
X77773579Y-44989870D01*
X77582403Y-45069058D01*
X77410342Y-45184024D01*
X77264024Y-45330342D01*
X77149058Y-45502403D01*
X77069870Y-45693579D01*
X77069868Y-45693587D01*
X77029500Y-45896530D01*
X51519174Y-45896530D01*
X51498424Y-45860590D01*
X51498418Y-45860582D01*
X51386617Y-45748781D01*
X51386609Y-45748775D01*
X51249690Y-45669726D01*
X51249686Y-45669724D01*
X51249684Y-45669723D01*
X51096957Y-45628800D01*
X50938843Y-45628800D01*
X50786116Y-45669723D01*
X50786109Y-45669726D01*
X50649190Y-45748775D01*
X50649182Y-45748781D01*
X50537381Y-45860582D01*
X50537375Y-45860590D01*
X50458326Y-45997509D01*
X50458323Y-45997516D01*
X50417400Y-46150243D01*
X500500Y-46150243D01*
X500500Y-42070943D01*
X73249500Y-42070943D01*
X73249500Y-42229057D01*
X73290289Y-42381282D01*
X73290423Y-42381783D01*
X73290426Y-42381790D01*
X73369475Y-42518709D01*
X73369479Y-42518714D01*
X73369480Y-42518716D01*
X73481284Y-42630520D01*
X73481286Y-42630521D01*
X73481290Y-42630524D01*
X73590506Y-42693579D01*
X73618216Y-42709577D01*
X73709881Y-42734138D01*
X73720130Y-42740385D01*
X73731967Y-42742376D01*
X73749410Y-42758232D01*
X73769539Y-42770502D01*
X73776076Y-42782473D01*
X73783667Y-42789374D01*
X73797561Y-42821819D01*
X73799500Y-42829055D01*
X73799500Y-42829057D01*
X73817581Y-42896535D01*
X73828384Y-42936853D01*
X73826721Y-43006703D01*
X73787558Y-43064565D01*
X73784104Y-43067315D01*
X73781287Y-43069476D01*
X73669481Y-43181282D01*
X73669475Y-43181290D01*
X73590426Y-43318209D01*
X73590423Y-43318216D01*
X73549500Y-43470943D01*
X73549500Y-43629057D01*
X73583387Y-43755523D01*
X73590423Y-43781783D01*
X73590426Y-43781790D01*
X73669475Y-43918709D01*
X73669479Y-43918714D01*
X73669480Y-43918716D01*
X73781284Y-44030520D01*
X73781286Y-44030521D01*
X73781290Y-44030524D01*
X73872718Y-44083309D01*
X73918216Y-44109577D01*
X74070943Y-44150500D01*
X74070945Y-44150500D01*
X74159600Y-44150500D01*
X74226639Y-44170185D01*
X74272394Y-44222989D01*
X74283600Y-44274500D01*
X74283600Y-44394156D01*
X74324523Y-44546883D01*
X74324526Y-44546890D01*
X74403575Y-44683809D01*
X74403579Y-44683814D01*
X74403580Y-44683816D01*
X74515384Y-44795620D01*
X74515386Y-44795621D01*
X74515390Y-44795624D01*
X74652309Y-44874673D01*
X74652316Y-44874677D01*
X74805043Y-44915600D01*
X74805045Y-44915600D01*
X74963155Y-44915600D01*
X74963157Y-44915600D01*
X75115884Y-44874677D01*
X75252816Y-44795620D01*
X75364620Y-44683816D01*
X75443677Y-44546884D01*
X75484600Y-44394157D01*
X75484600Y-44236043D01*
X75443677Y-44083316D01*
X75413198Y-44030524D01*
X75364624Y-43946390D01*
X75364618Y-43946382D01*
X75252817Y-43834581D01*
X75252809Y-43834575D01*
X75115890Y-43755526D01*
X75115886Y-43755524D01*
X75115884Y-43755523D01*
X74963157Y-43714600D01*
X74874500Y-43714600D01*
X74807461Y-43694915D01*
X74761706Y-43642111D01*
X74750500Y-43590600D01*
X74750500Y-43470945D01*
X74750500Y-43470943D01*
X74721615Y-43363142D01*
X74723278Y-43293297D01*
X74762440Y-43235434D01*
X74765907Y-43232675D01*
X74768709Y-43230523D01*
X74768716Y-43230520D01*
X74880520Y-43118716D01*
X74959577Y-42981784D01*
X74982421Y-42896530D01*
X77029500Y-42896530D01*
X77029500Y-43103469D01*
X77069868Y-43306412D01*
X77069870Y-43306420D01*
X77149058Y-43497596D01*
X77264024Y-43669657D01*
X77410342Y-43815975D01*
X77410345Y-43815977D01*
X77582402Y-43930941D01*
X77773580Y-44010130D01*
X77976530Y-44050499D01*
X77976534Y-44050500D01*
X77976535Y-44050500D01*
X78183466Y-44050500D01*
X78183467Y-44050499D01*
X78386420Y-44010130D01*
X78577598Y-43930941D01*
X78749655Y-43815977D01*
X78895977Y-43669655D01*
X79010941Y-43497598D01*
X79090130Y-43306420D01*
X79130500Y-43103465D01*
X79130500Y-42896535D01*
X79130499Y-42896530D01*
X80029500Y-42896530D01*
X80029500Y-43103469D01*
X80069868Y-43306412D01*
X80069870Y-43306420D01*
X80149058Y-43497596D01*
X80264024Y-43669657D01*
X80410342Y-43815975D01*
X80410345Y-43815977D01*
X80582402Y-43930941D01*
X80773580Y-44010130D01*
X80976530Y-44050499D01*
X80976534Y-44050500D01*
X80976535Y-44050500D01*
X81183466Y-44050500D01*
X81183467Y-44050499D01*
X81386420Y-44010130D01*
X81577598Y-43930941D01*
X81749655Y-43815977D01*
X81895977Y-43669655D01*
X82010941Y-43497598D01*
X82090130Y-43306420D01*
X82130500Y-43103465D01*
X82130500Y-42896535D01*
X82090130Y-42693580D01*
X82010941Y-42502402D01*
X81895977Y-42330345D01*
X81895975Y-42330342D01*
X81749657Y-42184024D01*
X81697987Y-42149500D01*
X81675252Y-42134309D01*
X81675251Y-42134307D01*
X81577599Y-42069059D01*
X81495996Y-42035258D01*
X83649500Y-42035258D01*
X83649500Y-42264741D01*
X83664844Y-42381282D01*
X83679452Y-42492238D01*
X83682176Y-42502403D01*
X83738842Y-42713887D01*
X83826650Y-42925876D01*
X83826657Y-42925890D01*
X83941392Y-43124617D01*
X84081081Y-43306661D01*
X84081089Y-43306670D01*
X84243330Y-43468911D01*
X84243338Y-43468918D01*
X84243339Y-43468919D01*
X84280711Y-43497596D01*
X84425382Y-43608607D01*
X84425385Y-43608608D01*
X84425388Y-43608611D01*
X84624112Y-43723344D01*
X84624117Y-43723346D01*
X84624123Y-43723349D01*
X84656986Y-43736961D01*
X84836113Y-43811158D01*
X85057762Y-43870548D01*
X85285266Y-43900500D01*
X85285273Y-43900500D01*
X85514727Y-43900500D01*
X85514734Y-43900500D01*
X85742238Y-43870548D01*
X85963887Y-43811158D01*
X86175888Y-43723344D01*
X86374612Y-43608611D01*
X86556661Y-43468919D01*
X86556665Y-43468914D01*
X86556670Y-43468911D01*
X86718911Y-43306670D01*
X86718914Y-43306665D01*
X86718919Y-43306661D01*
X86858611Y-43124612D01*
X86973344Y-42925888D01*
X87061158Y-42713887D01*
X87120548Y-42492238D01*
X87150500Y-42264734D01*
X87150500Y-42035266D01*
X87120548Y-41807762D01*
X87061158Y-41586113D01*
X86973344Y-41374112D01*
X86858611Y-41175388D01*
X86858608Y-41175385D01*
X86858607Y-41175382D01*
X86731803Y-41010130D01*
X86718919Y-40993339D01*
X86718918Y-40993338D01*
X86718911Y-40993330D01*
X86556670Y-40831089D01*
X86556661Y-40831081D01*
X86374617Y-40691392D01*
X86175890Y-40576657D01*
X86175876Y-40576650D01*
X85963887Y-40488842D01*
X85742238Y-40429452D01*
X85704215Y-40424446D01*
X85514741Y-40399500D01*
X85514734Y-40399500D01*
X85285266Y-40399500D01*
X85285258Y-40399500D01*
X85068715Y-40428009D01*
X85057762Y-40429452D01*
X85037150Y-40434975D01*
X84836112Y-40488842D01*
X84624123Y-40576650D01*
X84624109Y-40576657D01*
X84425382Y-40691392D01*
X84243338Y-40831081D01*
X84081081Y-40993338D01*
X83941392Y-41175382D01*
X83826657Y-41374109D01*
X83826650Y-41374123D01*
X83738842Y-41586112D01*
X83679453Y-41807759D01*
X83679451Y-41807770D01*
X83649500Y-42035258D01*
X81495996Y-42035258D01*
X81386420Y-41989870D01*
X81386412Y-41989868D01*
X81183469Y-41949500D01*
X81183465Y-41949500D01*
X80976535Y-41949500D01*
X80976530Y-41949500D01*
X80773587Y-41989868D01*
X80773579Y-41989870D01*
X80582403Y-42069058D01*
X80410342Y-42184024D01*
X80264024Y-42330342D01*
X80149058Y-42502403D01*
X80069870Y-42693579D01*
X80069868Y-42693587D01*
X80029500Y-42896530D01*
X79130499Y-42896530D01*
X79090130Y-42693580D01*
X79010941Y-42502402D01*
X78895977Y-42330345D01*
X78895975Y-42330342D01*
X78749657Y-42184024D01*
X78663626Y-42126541D01*
X78577598Y-42069059D01*
X78496029Y-42035272D01*
X78386420Y-41989870D01*
X78386412Y-41989868D01*
X78183469Y-41949500D01*
X78183465Y-41949500D01*
X77976535Y-41949500D01*
X77976530Y-41949500D01*
X77773587Y-41989868D01*
X77773579Y-41989870D01*
X77582403Y-42069058D01*
X77410342Y-42184024D01*
X77264024Y-42330342D01*
X77149058Y-42502403D01*
X77069870Y-42693579D01*
X77069868Y-42693587D01*
X77029500Y-42896530D01*
X74982421Y-42896530D01*
X75000500Y-42829057D01*
X75000500Y-42670943D01*
X74959577Y-42518216D01*
X74959573Y-42518209D01*
X74880524Y-42381290D01*
X74880518Y-42381282D01*
X74768717Y-42269481D01*
X74768709Y-42269475D01*
X74631790Y-42190426D01*
X74631785Y-42190423D01*
X74600490Y-42182038D01*
X74540117Y-42165861D01*
X74480459Y-42129497D01*
X74452438Y-42078180D01*
X74450500Y-42070947D01*
X74450500Y-42070943D01*
X74409577Y-41918216D01*
X74345807Y-41807762D01*
X74330524Y-41781290D01*
X74330518Y-41781282D01*
X74218717Y-41669481D01*
X74218709Y-41669475D01*
X74081790Y-41590426D01*
X74081786Y-41590424D01*
X74081784Y-41590423D01*
X73929057Y-41549500D01*
X73770943Y-41549500D01*
X73618216Y-41590423D01*
X73618209Y-41590426D01*
X73481290Y-41669475D01*
X73481282Y-41669481D01*
X73369481Y-41781282D01*
X73369475Y-41781290D01*
X73290426Y-41918209D01*
X73290423Y-41918216D01*
X73249500Y-42070943D01*
X500500Y-42070943D01*
X500500Y-39420943D01*
X52999500Y-39420943D01*
X52999500Y-39579057D01*
X53040289Y-39731282D01*
X53040423Y-39731783D01*
X53040426Y-39731790D01*
X53119475Y-39868709D01*
X53119479Y-39868714D01*
X53119480Y-39868716D01*
X53231284Y-39980520D01*
X53231286Y-39980521D01*
X53231290Y-39980524D01*
X53320087Y-40031790D01*
X53368216Y-40059577D01*
X53520943Y-40100500D01*
X53520945Y-40100500D01*
X53679055Y-40100500D01*
X53679057Y-40100500D01*
X53831784Y-40059577D01*
X53968716Y-39980520D01*
X54080520Y-39868716D01*
X54159577Y-39731784D01*
X54200500Y-39579057D01*
X54200500Y-39424063D01*
X54220185Y-39357024D01*
X54272989Y-39311269D01*
X54327816Y-39303056D01*
X54327816Y-39300500D01*
X54494055Y-39300500D01*
X54494057Y-39300500D01*
X54646784Y-39259577D01*
X54783716Y-39180520D01*
X54783725Y-39180510D01*
X54785003Y-39179531D01*
X54786298Y-39179030D01*
X54790755Y-39176457D01*
X54791155Y-39177151D01*
X54850170Y-39154330D01*
X54918616Y-39168361D01*
X54968611Y-39217170D01*
X54982718Y-39271091D01*
X54983439Y-39270997D01*
X54984193Y-39276727D01*
X54984500Y-39277899D01*
X54984500Y-39279057D01*
X55025289Y-39431282D01*
X55025423Y-39431783D01*
X55025426Y-39431790D01*
X55104475Y-39568709D01*
X55104479Y-39568714D01*
X55104480Y-39568716D01*
X55216284Y-39680520D01*
X55216286Y-39680521D01*
X55216290Y-39680524D01*
X55351586Y-39758636D01*
X55353216Y-39759577D01*
X55505943Y-39800500D01*
X55505945Y-39800500D01*
X55664055Y-39800500D01*
X55664057Y-39800500D01*
X55816784Y-39759577D01*
X55816792Y-39759572D01*
X55824294Y-39756466D01*
X55825192Y-39758636D01*
X55881399Y-39745000D01*
X55947426Y-39767852D01*
X55990617Y-39822773D01*
X55999500Y-39868860D01*
X55999500Y-39879057D01*
X56026742Y-39980723D01*
X56040423Y-40031783D01*
X56040426Y-40031790D01*
X56119475Y-40168709D01*
X56119479Y-40168714D01*
X56119480Y-40168716D01*
X56231284Y-40280520D01*
X56231286Y-40280521D01*
X56231290Y-40280524D01*
X56320087Y-40331790D01*
X56368216Y-40359577D01*
X56520943Y-40400500D01*
X56520945Y-40400500D01*
X56679055Y-40400500D01*
X56679057Y-40400500D01*
X56831784Y-40359577D01*
X56968716Y-40280520D01*
X57080520Y-40168716D01*
X57159577Y-40031784D01*
X57162482Y-40020943D01*
X71399500Y-40020943D01*
X71399500Y-40179057D01*
X71426687Y-40280518D01*
X71440423Y-40331783D01*
X71440426Y-40331790D01*
X71519475Y-40468709D01*
X71519479Y-40468714D01*
X71519480Y-40468716D01*
X71631284Y-40580520D01*
X71631286Y-40580521D01*
X71631290Y-40580524D01*
X71768209Y-40659573D01*
X71768216Y-40659577D01*
X71920943Y-40700500D01*
X71920945Y-40700500D01*
X72079055Y-40700500D01*
X72079057Y-40700500D01*
X72231784Y-40659577D01*
X72368716Y-40580520D01*
X72412319Y-40536917D01*
X72473642Y-40503432D01*
X72543334Y-40508416D01*
X72587681Y-40536917D01*
X72631284Y-40580520D01*
X72631286Y-40580521D01*
X72631290Y-40580524D01*
X72768209Y-40659573D01*
X72768216Y-40659577D01*
X72920943Y-40700500D01*
X72920945Y-40700500D01*
X73079055Y-40700500D01*
X73079057Y-40700500D01*
X73231784Y-40659577D01*
X73368716Y-40580520D01*
X73480520Y-40468716D01*
X73559577Y-40331784D01*
X73600500Y-40179057D01*
X73600500Y-40020943D01*
X73567164Y-39896530D01*
X77029500Y-39896530D01*
X77029500Y-40103469D01*
X77069868Y-40306412D01*
X77069870Y-40306420D01*
X77137095Y-40468716D01*
X77149059Y-40497598D01*
X77201884Y-40576657D01*
X77264024Y-40669657D01*
X77410342Y-40815975D01*
X77410345Y-40815977D01*
X77582402Y-40930941D01*
X77773580Y-41010130D01*
X77976525Y-41050498D01*
X77976530Y-41050499D01*
X77976534Y-41050500D01*
X77976535Y-41050500D01*
X78183466Y-41050500D01*
X78183467Y-41050499D01*
X78386420Y-41010130D01*
X78577598Y-40930941D01*
X78749655Y-40815977D01*
X78895977Y-40669655D01*
X79010941Y-40497598D01*
X79090130Y-40306420D01*
X79130500Y-40103465D01*
X79130500Y-39896535D01*
X79090130Y-39693580D01*
X79014355Y-39510645D01*
X80029500Y-39510645D01*
X80029500Y-40489363D01*
X80044953Y-40606753D01*
X80044956Y-40606762D01*
X80105464Y-40752841D01*
X80201718Y-40878282D01*
X80327159Y-40974536D01*
X80473238Y-41035044D01*
X80590639Y-41050500D01*
X81569360Y-41050499D01*
X81569363Y-41050499D01*
X81686753Y-41035046D01*
X81686757Y-41035044D01*
X81686762Y-41035044D01*
X81832841Y-40974536D01*
X81958282Y-40878282D01*
X82054536Y-40752841D01*
X82115044Y-40606762D01*
X82130500Y-40489361D01*
X82130499Y-39510640D01*
X82130499Y-39510639D01*
X82130499Y-39510636D01*
X82115046Y-39393246D01*
X82115044Y-39393239D01*
X82115044Y-39393238D01*
X82054536Y-39247159D01*
X81958282Y-39121718D01*
X81832841Y-39025464D01*
X81818394Y-39019480D01*
X81686762Y-38964956D01*
X81686760Y-38964955D01*
X81569370Y-38949501D01*
X81569367Y-38949500D01*
X81569361Y-38949500D01*
X81569354Y-38949500D01*
X80590636Y-38949500D01*
X80473246Y-38964953D01*
X80473237Y-38964956D01*
X80327160Y-39025463D01*
X80201718Y-39121718D01*
X80105463Y-39247160D01*
X80044956Y-39393237D01*
X80044955Y-39393239D01*
X80030966Y-39499500D01*
X80029501Y-39510636D01*
X80029500Y-39510645D01*
X79014355Y-39510645D01*
X79010941Y-39502402D01*
X78895977Y-39330345D01*
X78895975Y-39330342D01*
X78749657Y-39184024D01*
X78655248Y-39120943D01*
X78577598Y-39069059D01*
X78457904Y-39019480D01*
X78386420Y-38989870D01*
X78386412Y-38989868D01*
X78183469Y-38949500D01*
X78183465Y-38949500D01*
X77976535Y-38949500D01*
X77976530Y-38949500D01*
X77773587Y-38989868D01*
X77773579Y-38989870D01*
X77582403Y-39069058D01*
X77410342Y-39184024D01*
X77264024Y-39330342D01*
X77149058Y-39502403D01*
X77069870Y-39693579D01*
X77069868Y-39693587D01*
X77029500Y-39896530D01*
X73567164Y-39896530D01*
X73559577Y-39868216D01*
X73520481Y-39800499D01*
X73480524Y-39731290D01*
X73480518Y-39731282D01*
X73368717Y-39619481D01*
X73368709Y-39619475D01*
X73231790Y-39540426D01*
X73231786Y-39540424D01*
X73231784Y-39540423D01*
X73079057Y-39499500D01*
X72920943Y-39499500D01*
X72768216Y-39540423D01*
X72768209Y-39540426D01*
X72631290Y-39619475D01*
X72631282Y-39619481D01*
X72587681Y-39663083D01*
X72526358Y-39696568D01*
X72456666Y-39691584D01*
X72412319Y-39663083D01*
X72368717Y-39619481D01*
X72368709Y-39619475D01*
X72231790Y-39540426D01*
X72231786Y-39540424D01*
X72231784Y-39540423D01*
X72079057Y-39499500D01*
X71920943Y-39499500D01*
X71768216Y-39540423D01*
X71768209Y-39540426D01*
X71631290Y-39619475D01*
X71631282Y-39619481D01*
X71519481Y-39731282D01*
X71519475Y-39731290D01*
X71440426Y-39868209D01*
X71440424Y-39868214D01*
X71440423Y-39868216D01*
X71399500Y-40020943D01*
X57162482Y-40020943D01*
X57200500Y-39879057D01*
X57200500Y-39720943D01*
X57159577Y-39568216D01*
X57126335Y-39510639D01*
X57080524Y-39431290D01*
X57080518Y-39431282D01*
X56968717Y-39319481D01*
X56968709Y-39319475D01*
X56831790Y-39240426D01*
X56831786Y-39240424D01*
X56831784Y-39240423D01*
X56679057Y-39199500D01*
X56520943Y-39199500D01*
X56368216Y-39240423D01*
X56360706Y-39243534D01*
X56359808Y-39241367D01*
X56303576Y-39254997D01*
X56237554Y-39232133D01*
X56194374Y-39177203D01*
X56185500Y-39131139D01*
X56185500Y-39120945D01*
X56185500Y-39120943D01*
X56144577Y-38968216D01*
X56133772Y-38949501D01*
X56065524Y-38831290D01*
X56065518Y-38831282D01*
X55953717Y-38719481D01*
X55953709Y-38719475D01*
X55816790Y-38640426D01*
X55816786Y-38640424D01*
X55816784Y-38640423D01*
X55664057Y-38599500D01*
X55505943Y-38599500D01*
X55353216Y-38640423D01*
X55353209Y-38640426D01*
X55216290Y-38719475D01*
X55214989Y-38720474D01*
X55213692Y-38720975D01*
X55209245Y-38723543D01*
X55208844Y-38722849D01*
X55149820Y-38745670D01*
X55081375Y-38731633D01*
X55031384Y-38682820D01*
X55017280Y-38628908D01*
X55016561Y-38629003D01*
X55015806Y-38623270D01*
X55015500Y-38622100D01*
X55015500Y-38620945D01*
X55015500Y-38620943D01*
X54974577Y-38468216D01*
X54974573Y-38468209D01*
X54895524Y-38331290D01*
X54895518Y-38331282D01*
X54799579Y-38235343D01*
X65681000Y-38235343D01*
X65681000Y-38393456D01*
X65721923Y-38546183D01*
X65721926Y-38546190D01*
X65800975Y-38683109D01*
X65800979Y-38683114D01*
X65800980Y-38683116D01*
X65912784Y-38794920D01*
X65912786Y-38794921D01*
X65912790Y-38794924D01*
X65975779Y-38831290D01*
X66049716Y-38873977D01*
X66202443Y-38914900D01*
X66202445Y-38914900D01*
X66360555Y-38914900D01*
X66360557Y-38914900D01*
X66513284Y-38873977D01*
X66650216Y-38794920D01*
X66762020Y-38683116D01*
X66841077Y-38546184D01*
X66882000Y-38393457D01*
X66882000Y-38235343D01*
X66841077Y-38082616D01*
X66841073Y-38082609D01*
X66762024Y-37945690D01*
X66762018Y-37945682D01*
X66650217Y-37833881D01*
X66650209Y-37833875D01*
X66513290Y-37754826D01*
X66513286Y-37754824D01*
X66513284Y-37754823D01*
X66360557Y-37713900D01*
X66202443Y-37713900D01*
X66049716Y-37754823D01*
X66049709Y-37754826D01*
X65912790Y-37833875D01*
X65912782Y-37833881D01*
X65800981Y-37945682D01*
X65800975Y-37945690D01*
X65721926Y-38082609D01*
X65721923Y-38082616D01*
X65681000Y-38235343D01*
X54799579Y-38235343D01*
X54783717Y-38219481D01*
X54783709Y-38219475D01*
X54646790Y-38140426D01*
X54646786Y-38140424D01*
X54646784Y-38140423D01*
X54494057Y-38099500D01*
X54335943Y-38099500D01*
X54183216Y-38140423D01*
X54183209Y-38140426D01*
X54046290Y-38219475D01*
X54046282Y-38219481D01*
X53934481Y-38331282D01*
X53934475Y-38331290D01*
X53855426Y-38468209D01*
X53855423Y-38468216D01*
X53814500Y-38620943D01*
X53814500Y-38775936D01*
X53794815Y-38842975D01*
X53742011Y-38888730D01*
X53687184Y-38896951D01*
X53687184Y-38899500D01*
X53520943Y-38899500D01*
X53368216Y-38940423D01*
X53368209Y-38940426D01*
X53231290Y-39019475D01*
X53231282Y-39019481D01*
X53119481Y-39131282D01*
X53119475Y-39131290D01*
X53040426Y-39268209D01*
X53040423Y-39268216D01*
X52999500Y-39420943D01*
X500500Y-39420943D01*
X500500Y-36482043D01*
X59895300Y-36482043D01*
X59895300Y-36640156D01*
X59936223Y-36792883D01*
X59936226Y-36792890D01*
X60015275Y-36929809D01*
X60015279Y-36929814D01*
X60015280Y-36929816D01*
X60127084Y-37041620D01*
X60127086Y-37041621D01*
X60127090Y-37041624D01*
X60264009Y-37120673D01*
X60264016Y-37120677D01*
X60416743Y-37161600D01*
X60416745Y-37161600D01*
X60574855Y-37161600D01*
X60574857Y-37161600D01*
X60727584Y-37120677D01*
X60864516Y-37041620D01*
X60976320Y-36929816D01*
X61055377Y-36792884D01*
X61096300Y-36640157D01*
X61096300Y-36482043D01*
X61055377Y-36329316D01*
X61055373Y-36329309D01*
X60976324Y-36192390D01*
X60976318Y-36192382D01*
X60864517Y-36080581D01*
X60864509Y-36080575D01*
X60727590Y-36001526D01*
X60727586Y-36001524D01*
X60727584Y-36001523D01*
X60574857Y-35960600D01*
X60416743Y-35960600D01*
X60264016Y-36001523D01*
X60264009Y-36001526D01*
X60127090Y-36080575D01*
X60127082Y-36080581D01*
X60015281Y-36192382D01*
X60015275Y-36192390D01*
X59936226Y-36329309D01*
X59936223Y-36329316D01*
X59895300Y-36482043D01*
X500500Y-36482043D01*
X500500Y-34920943D01*
X63899500Y-34920943D01*
X63899500Y-35079056D01*
X63940423Y-35231783D01*
X63940426Y-35231790D01*
X64019475Y-35368709D01*
X64019479Y-35368714D01*
X64019480Y-35368716D01*
X64131284Y-35480520D01*
X64131286Y-35480521D01*
X64131290Y-35480524D01*
X64268209Y-35559573D01*
X64268216Y-35559577D01*
X64420943Y-35600500D01*
X64420945Y-35600500D01*
X64579055Y-35600500D01*
X64579057Y-35600500D01*
X64731784Y-35559577D01*
X64868716Y-35480520D01*
X64980520Y-35368716D01*
X65059577Y-35231784D01*
X65100500Y-35079057D01*
X65100500Y-34920943D01*
X65059577Y-34768216D01*
X65059573Y-34768209D01*
X64980524Y-34631290D01*
X64980518Y-34631282D01*
X64868717Y-34519481D01*
X64868709Y-34519475D01*
X64731790Y-34440426D01*
X64731786Y-34440424D01*
X64731784Y-34440423D01*
X64579057Y-34399500D01*
X64420943Y-34399500D01*
X64268216Y-34440423D01*
X64268209Y-34440426D01*
X64131290Y-34519475D01*
X64131282Y-34519481D01*
X64019481Y-34631282D01*
X64019475Y-34631290D01*
X63940426Y-34768209D01*
X63940423Y-34768216D01*
X63899500Y-34920943D01*
X500500Y-34920943D01*
X500500Y-30510645D01*
X4949500Y-30510645D01*
X4949500Y-31489363D01*
X4964953Y-31606753D01*
X4964956Y-31606762D01*
X5025464Y-31752841D01*
X5121718Y-31878282D01*
X5247159Y-31974536D01*
X5393238Y-32035044D01*
X5510639Y-32050500D01*
X6489360Y-32050499D01*
X6489363Y-32050499D01*
X6606753Y-32035046D01*
X6606757Y-32035044D01*
X6606762Y-32035044D01*
X6752841Y-31974536D01*
X6878282Y-31878282D01*
X6974536Y-31752841D01*
X7035044Y-31606762D01*
X7050500Y-31489361D01*
X7050499Y-30670943D01*
X19049500Y-30670943D01*
X19049500Y-30829057D01*
X19074122Y-30920945D01*
X19090423Y-30981783D01*
X19090426Y-30981790D01*
X19169475Y-31118709D01*
X19169479Y-31118714D01*
X19169480Y-31118716D01*
X19281284Y-31230520D01*
X19281286Y-31230521D01*
X19281290Y-31230524D01*
X19418209Y-31309573D01*
X19418216Y-31309577D01*
X19570943Y-31350500D01*
X19570945Y-31350500D01*
X19729055Y-31350500D01*
X19729057Y-31350500D01*
X19839365Y-31320943D01*
X22299500Y-31320943D01*
X22299500Y-31479057D01*
X22333719Y-31606762D01*
X22340423Y-31631783D01*
X22340426Y-31631790D01*
X22419475Y-31768709D01*
X22419481Y-31768717D01*
X22463083Y-31812319D01*
X22496568Y-31873642D01*
X22491584Y-31943334D01*
X22463083Y-31987681D01*
X22419481Y-32031282D01*
X22419475Y-32031290D01*
X22340426Y-32168209D01*
X22340423Y-32168216D01*
X22299500Y-32320943D01*
X22299500Y-32479057D01*
X22335563Y-32613644D01*
X22340423Y-32631783D01*
X22340426Y-32631790D01*
X22419475Y-32768709D01*
X22419479Y-32768714D01*
X22419480Y-32768716D01*
X22531284Y-32880520D01*
X22531286Y-32880521D01*
X22531290Y-32880524D01*
X22559078Y-32896567D01*
X22668216Y-32959577D01*
X22820943Y-33000500D01*
X22820945Y-33000500D01*
X22979055Y-33000500D01*
X22979057Y-33000500D01*
X23131784Y-32959577D01*
X23153788Y-32946872D01*
X23221688Y-32930400D01*
X23287715Y-32953253D01*
X23330906Y-33008174D01*
X23337547Y-33077727D01*
X23335563Y-33086353D01*
X23299500Y-33220942D01*
X23299500Y-33379055D01*
X23340423Y-33531782D01*
X23340426Y-33531789D01*
X23419475Y-33668708D01*
X23419479Y-33668713D01*
X23419480Y-33668715D01*
X23531284Y-33780519D01*
X23531286Y-33780520D01*
X23531290Y-33780523D01*
X23668209Y-33859572D01*
X23668216Y-33859576D01*
X23820943Y-33900499D01*
X23820945Y-33900499D01*
X23979055Y-33900499D01*
X23979057Y-33900499D01*
X24131784Y-33859576D01*
X24268716Y-33780519D01*
X24312319Y-33736916D01*
X24373642Y-33703431D01*
X24443334Y-33708415D01*
X24487681Y-33736916D01*
X24531284Y-33780519D01*
X24531286Y-33780520D01*
X24531290Y-33780523D01*
X24668209Y-33859572D01*
X24668216Y-33859576D01*
X24820943Y-33900499D01*
X24820945Y-33900499D01*
X24979055Y-33900499D01*
X24979057Y-33900499D01*
X25131784Y-33859576D01*
X25268716Y-33780519D01*
X25312319Y-33736916D01*
X25373642Y-33703431D01*
X25443334Y-33708415D01*
X25487681Y-33736916D01*
X25531284Y-33780519D01*
X25531286Y-33780520D01*
X25531290Y-33780523D01*
X25668209Y-33859572D01*
X25668216Y-33859576D01*
X25820943Y-33900499D01*
X25820945Y-33900499D01*
X25979055Y-33900499D01*
X25979057Y-33900499D01*
X26131784Y-33859576D01*
X26268716Y-33780519D01*
X26312319Y-33736916D01*
X26373642Y-33703431D01*
X26443334Y-33708415D01*
X26487681Y-33736916D01*
X26531284Y-33780519D01*
X26531286Y-33780520D01*
X26531290Y-33780523D01*
X26668209Y-33859572D01*
X26668216Y-33859576D01*
X26820943Y-33900499D01*
X26820945Y-33900499D01*
X26979055Y-33900499D01*
X26979057Y-33900499D01*
X27131784Y-33859576D01*
X27268716Y-33780519D01*
X27312319Y-33736916D01*
X27373642Y-33703431D01*
X27443334Y-33708415D01*
X27487681Y-33736916D01*
X27531284Y-33780519D01*
X27531286Y-33780520D01*
X27531290Y-33780523D01*
X27668209Y-33859572D01*
X27668216Y-33859576D01*
X27820943Y-33900499D01*
X27820945Y-33900499D01*
X27979055Y-33900499D01*
X27979057Y-33900499D01*
X28131784Y-33859576D01*
X28268716Y-33780519D01*
X28380520Y-33668715D01*
X28459577Y-33531783D01*
X28500500Y-33379056D01*
X28500500Y-33220942D01*
X28459577Y-33068215D01*
X28400000Y-32965023D01*
X28380524Y-32931289D01*
X28380518Y-32931281D01*
X28268717Y-32819480D01*
X28268709Y-32819474D01*
X28131790Y-32740425D01*
X28131786Y-32740423D01*
X28131784Y-32740422D01*
X27979057Y-32699499D01*
X27820943Y-32699499D01*
X27668216Y-32740422D01*
X27668209Y-32740425D01*
X27531290Y-32819474D01*
X27531282Y-32819480D01*
X27487681Y-32863082D01*
X27426358Y-32896567D01*
X27356666Y-32891583D01*
X27312319Y-32863082D01*
X27268717Y-32819480D01*
X27268709Y-32819474D01*
X27131790Y-32740425D01*
X27131786Y-32740423D01*
X27131784Y-32740422D01*
X26979057Y-32699499D01*
X26820943Y-32699499D01*
X26668216Y-32740422D01*
X26668209Y-32740425D01*
X26531290Y-32819474D01*
X26531282Y-32819480D01*
X26487681Y-32863082D01*
X26426358Y-32896567D01*
X26356666Y-32891583D01*
X26312319Y-32863082D01*
X26268717Y-32819480D01*
X26268709Y-32819474D01*
X26131790Y-32740425D01*
X26131786Y-32740423D01*
X26131784Y-32740422D01*
X25979057Y-32699499D01*
X25820943Y-32699499D01*
X25668216Y-32740422D01*
X25668209Y-32740425D01*
X25531290Y-32819474D01*
X25531282Y-32819480D01*
X25487681Y-32863082D01*
X25426358Y-32896567D01*
X25356666Y-32891583D01*
X25312319Y-32863082D01*
X25268717Y-32819480D01*
X25268709Y-32819474D01*
X25131790Y-32740425D01*
X25131786Y-32740423D01*
X25131784Y-32740422D01*
X24979057Y-32699499D01*
X24820943Y-32699499D01*
X24668216Y-32740422D01*
X24668209Y-32740425D01*
X24531290Y-32819474D01*
X24531282Y-32819480D01*
X24487681Y-32863082D01*
X24426358Y-32896567D01*
X24356666Y-32891583D01*
X24312319Y-32863082D01*
X24268717Y-32819480D01*
X24268709Y-32819474D01*
X24131790Y-32740425D01*
X24131786Y-32740423D01*
X24131784Y-32740422D01*
X23979057Y-32699499D01*
X23820943Y-32699499D01*
X23668216Y-32740422D01*
X23668215Y-32740422D01*
X23646207Y-32753128D01*
X23578306Y-32769597D01*
X23512280Y-32746743D01*
X23469092Y-32691820D01*
X23462453Y-32622266D01*
X23464426Y-32613685D01*
X23500500Y-32479057D01*
X23500500Y-32320943D01*
X23459577Y-32168216D01*
X23455017Y-32160318D01*
X23380524Y-32031290D01*
X23380518Y-32031282D01*
X23336917Y-31987681D01*
X23303432Y-31926358D01*
X23308416Y-31856666D01*
X23336917Y-31812319D01*
X23380520Y-31768716D01*
X23459577Y-31631784D01*
X23467894Y-31600743D01*
X34579800Y-31600743D01*
X34579800Y-31758857D01*
X34612400Y-31880520D01*
X34620723Y-31911583D01*
X34620726Y-31911590D01*
X34699775Y-32048509D01*
X34699779Y-32048514D01*
X34699780Y-32048516D01*
X34811584Y-32160320D01*
X34811586Y-32160321D01*
X34811590Y-32160324D01*
X34825260Y-32168216D01*
X34948516Y-32239377D01*
X35101243Y-32280300D01*
X35101245Y-32280300D01*
X35259355Y-32280300D01*
X35259357Y-32280300D01*
X35412084Y-32239377D01*
X35549016Y-32160320D01*
X35660820Y-32048516D01*
X35739877Y-31911584D01*
X35780800Y-31758857D01*
X35780800Y-31600743D01*
X35739877Y-31448016D01*
X35683576Y-31350499D01*
X35660824Y-31311090D01*
X35660818Y-31311082D01*
X35549017Y-31199281D01*
X35549009Y-31199275D01*
X35412090Y-31120226D01*
X35412086Y-31120224D01*
X35412084Y-31120223D01*
X35259357Y-31079300D01*
X35101243Y-31079300D01*
X34948516Y-31120223D01*
X34948509Y-31120226D01*
X34811590Y-31199275D01*
X34811582Y-31199281D01*
X34699781Y-31311082D01*
X34699775Y-31311090D01*
X34620726Y-31448009D01*
X34620723Y-31448016D01*
X34579800Y-31600743D01*
X23467894Y-31600743D01*
X23500500Y-31479057D01*
X23500500Y-31320943D01*
X23459577Y-31168216D01*
X23431870Y-31120226D01*
X23380524Y-31031290D01*
X23380518Y-31031282D01*
X23268717Y-30919481D01*
X23268709Y-30919475D01*
X23131790Y-30840426D01*
X23131786Y-30840424D01*
X23131784Y-30840423D01*
X22979057Y-30799500D01*
X22820943Y-30799500D01*
X22668216Y-30840423D01*
X22668209Y-30840426D01*
X22531290Y-30919475D01*
X22531282Y-30919481D01*
X22419481Y-31031282D01*
X22419475Y-31031290D01*
X22340426Y-31168209D01*
X22340423Y-31168216D01*
X22299500Y-31320943D01*
X19839365Y-31320943D01*
X19881784Y-31309577D01*
X20018716Y-31230520D01*
X20130520Y-31118716D01*
X20209577Y-30981784D01*
X20250500Y-30829057D01*
X20250500Y-30670943D01*
X20209577Y-30518216D01*
X20205203Y-30510640D01*
X20130524Y-30381290D01*
X20130518Y-30381282D01*
X20018717Y-30269481D01*
X20018709Y-30269475D01*
X19881790Y-30190426D01*
X19881786Y-30190424D01*
X19881784Y-30190423D01*
X19729057Y-30149500D01*
X19570943Y-30149500D01*
X19418216Y-30190423D01*
X19418209Y-30190426D01*
X19281290Y-30269475D01*
X19281282Y-30269481D01*
X19169481Y-30381282D01*
X19169475Y-30381290D01*
X19090426Y-30518209D01*
X19090423Y-30518216D01*
X19049500Y-30670943D01*
X7050499Y-30670943D01*
X7050499Y-30510640D01*
X7050499Y-30510639D01*
X7050499Y-30510636D01*
X7035046Y-30393246D01*
X7035044Y-30393239D01*
X7035044Y-30393238D01*
X6974536Y-30247159D01*
X6878282Y-30121718D01*
X6752841Y-30025464D01*
X6606762Y-29964956D01*
X6606760Y-29964955D01*
X6489370Y-29949501D01*
X6489367Y-29949500D01*
X6489361Y-29949500D01*
X6489354Y-29949500D01*
X5510636Y-29949500D01*
X5393246Y-29964953D01*
X5393237Y-29964956D01*
X5247160Y-30025463D01*
X5121718Y-30121718D01*
X5025463Y-30247160D01*
X4964956Y-30393237D01*
X4964955Y-30393239D01*
X4949501Y-30510629D01*
X4949501Y-30510636D01*
X4949500Y-30510645D01*
X500500Y-30510645D01*
X500500Y-29170943D01*
X19749500Y-29170943D01*
X19749500Y-29329057D01*
X19790085Y-29480520D01*
X19790423Y-29481783D01*
X19790426Y-29481790D01*
X19869475Y-29618709D01*
X19869479Y-29618714D01*
X19869480Y-29618716D01*
X19981284Y-29730520D01*
X19981286Y-29730521D01*
X19981290Y-29730524D01*
X20117312Y-29809055D01*
X20118216Y-29809577D01*
X20270943Y-29850500D01*
X20270945Y-29850500D01*
X20429055Y-29850500D01*
X20429057Y-29850500D01*
X20581784Y-29809577D01*
X20718716Y-29730520D01*
X20830520Y-29618716D01*
X20909577Y-29481784D01*
X20950500Y-29329057D01*
X20950500Y-29170943D01*
X20909577Y-29018216D01*
X20887816Y-28980524D01*
X20830524Y-28881290D01*
X20830518Y-28881282D01*
X20718717Y-28769481D01*
X20718709Y-28769475D01*
X20581790Y-28690426D01*
X20581786Y-28690424D01*
X20581784Y-28690423D01*
X20429057Y-28649500D01*
X20270943Y-28649500D01*
X20118216Y-28690423D01*
X20118209Y-28690426D01*
X19981290Y-28769475D01*
X19981282Y-28769481D01*
X19869481Y-28881282D01*
X19869475Y-28881290D01*
X19790426Y-29018209D01*
X19790423Y-29018216D01*
X19749500Y-29170943D01*
X500500Y-29170943D01*
X500500Y-28070965D01*
X2279499Y-28070965D01*
X2307187Y-28210155D01*
X2307189Y-28210163D01*
X2361501Y-28341285D01*
X2361502Y-28341288D01*
X2440350Y-28459291D01*
X2440353Y-28459295D01*
X2540704Y-28559646D01*
X2540708Y-28559649D01*
X2658711Y-28638497D01*
X2658713Y-28638497D01*
X2658715Y-28638499D01*
X2789838Y-28692811D01*
X2822138Y-28699236D01*
X2929034Y-28720500D01*
X2929037Y-28720500D01*
X3070965Y-28720500D01*
X3141037Y-28706561D01*
X3210162Y-28692811D01*
X3341285Y-28638499D01*
X3459292Y-28559649D01*
X3559649Y-28459292D01*
X3638499Y-28341285D01*
X3692811Y-28210162D01*
X3718890Y-28079057D01*
X3720500Y-28070965D01*
X8279499Y-28070965D01*
X8307187Y-28210155D01*
X8307189Y-28210163D01*
X8361501Y-28341285D01*
X8361502Y-28341288D01*
X8440350Y-28459291D01*
X8440353Y-28459295D01*
X8540704Y-28559646D01*
X8540708Y-28559649D01*
X8658711Y-28638497D01*
X8658713Y-28638497D01*
X8658715Y-28638499D01*
X8789838Y-28692811D01*
X8822138Y-28699236D01*
X8929034Y-28720500D01*
X8929037Y-28720500D01*
X9070965Y-28720500D01*
X9141037Y-28706561D01*
X9210162Y-28692811D01*
X9341285Y-28638499D01*
X9459292Y-28559649D01*
X9559649Y-28459292D01*
X9638499Y-28341285D01*
X9692811Y-28210162D01*
X9718890Y-28079057D01*
X9720500Y-28070965D01*
X9720500Y-27929034D01*
X9692812Y-27789844D01*
X9692811Y-27789838D01*
X9638499Y-27658715D01*
X9638497Y-27658713D01*
X9638497Y-27658711D01*
X9559649Y-27540708D01*
X9559646Y-27540704D01*
X9459295Y-27440353D01*
X9459291Y-27440350D01*
X9341288Y-27361502D01*
X9341285Y-27361501D01*
X9210163Y-27307189D01*
X9210155Y-27307187D01*
X9070965Y-27279500D01*
X9070963Y-27279500D01*
X8929037Y-27279500D01*
X8929035Y-27279500D01*
X8789844Y-27307187D01*
X8789836Y-27307189D01*
X8658714Y-27361501D01*
X8658711Y-27361502D01*
X8540708Y-27440350D01*
X8540704Y-27440353D01*
X8440353Y-27540704D01*
X8440350Y-27540708D01*
X8361502Y-27658711D01*
X8361501Y-27658714D01*
X8307189Y-27789836D01*
X8307187Y-27789844D01*
X8279500Y-27929034D01*
X8279500Y-27929037D01*
X8279500Y-28070963D01*
X8279500Y-28070965D01*
X8279499Y-28070965D01*
X3720500Y-28070965D01*
X3720500Y-27929034D01*
X3692812Y-27789844D01*
X3692811Y-27789838D01*
X3638499Y-27658715D01*
X3638497Y-27658713D01*
X3638497Y-27658711D01*
X3559649Y-27540708D01*
X3559646Y-27540704D01*
X3459295Y-27440353D01*
X3459291Y-27440350D01*
X3341288Y-27361502D01*
X3341285Y-27361501D01*
X3210163Y-27307189D01*
X3210155Y-27307187D01*
X3070965Y-27279500D01*
X3070963Y-27279500D01*
X2929037Y-27279500D01*
X2929035Y-27279500D01*
X2789844Y-27307187D01*
X2789836Y-27307189D01*
X2658714Y-27361501D01*
X2658711Y-27361502D01*
X2540708Y-27440350D01*
X2540704Y-27440353D01*
X2440353Y-27540704D01*
X2440350Y-27540708D01*
X2361502Y-27658711D01*
X2361501Y-27658714D01*
X2307189Y-27789836D01*
X2307187Y-27789844D01*
X2279500Y-27929034D01*
X2279500Y-27929037D01*
X2279500Y-28070963D01*
X2279500Y-28070965D01*
X2279499Y-28070965D01*
X500500Y-28070965D01*
X500500Y-26920943D01*
X30749500Y-26920943D01*
X30749500Y-27079056D01*
X30790423Y-27231783D01*
X30790426Y-27231790D01*
X30869475Y-27368709D01*
X30869481Y-27368717D01*
X30913083Y-27412319D01*
X30946568Y-27473642D01*
X30941584Y-27543334D01*
X30913083Y-27587681D01*
X30869481Y-27631282D01*
X30869475Y-27631290D01*
X30790426Y-27768209D01*
X30790423Y-27768216D01*
X30749500Y-27920943D01*
X30749500Y-28079057D01*
X30784630Y-28210162D01*
X30790423Y-28231783D01*
X30790426Y-28231790D01*
X30869475Y-28368709D01*
X30869481Y-28368717D01*
X30913083Y-28412319D01*
X30946568Y-28473642D01*
X30941584Y-28543334D01*
X30913083Y-28587681D01*
X30869481Y-28631282D01*
X30869475Y-28631290D01*
X30790426Y-28768209D01*
X30790423Y-28768216D01*
X30749500Y-28920943D01*
X30749500Y-29079057D01*
X30774122Y-29170945D01*
X30790423Y-29231783D01*
X30790426Y-29231790D01*
X30869475Y-29368709D01*
X30869481Y-29368717D01*
X30913083Y-29412319D01*
X30946568Y-29473642D01*
X30941584Y-29543334D01*
X30913083Y-29587681D01*
X30869481Y-29631282D01*
X30869475Y-29631290D01*
X30790426Y-29768209D01*
X30790423Y-29768216D01*
X30749500Y-29920943D01*
X30749500Y-30079057D01*
X30784727Y-30210524D01*
X30790423Y-30231783D01*
X30790426Y-30231790D01*
X30869475Y-30368709D01*
X30869481Y-30368717D01*
X30913083Y-30412319D01*
X30946568Y-30473642D01*
X30941584Y-30543334D01*
X30913083Y-30587681D01*
X30869481Y-30631282D01*
X30869475Y-30631290D01*
X30790426Y-30768209D01*
X30790423Y-30768216D01*
X30749500Y-30920943D01*
X30749500Y-31079057D01*
X30790086Y-31230524D01*
X30790423Y-31231783D01*
X30790426Y-31231790D01*
X30869475Y-31368709D01*
X30869479Y-31368714D01*
X30869480Y-31368716D01*
X30981284Y-31480520D01*
X30981286Y-31480521D01*
X30981290Y-31480524D01*
X31118209Y-31559573D01*
X31118216Y-31559577D01*
X31270943Y-31600500D01*
X31270945Y-31600500D01*
X31429055Y-31600500D01*
X31429057Y-31600500D01*
X31581784Y-31559577D01*
X31703387Y-31489370D01*
X31710560Y-31485229D01*
X31710561Y-31485228D01*
X31718716Y-31480520D01*
X31830520Y-31368716D01*
X31909577Y-31231784D01*
X31950500Y-31079057D01*
X31950500Y-30920943D01*
X31909577Y-30768216D01*
X31853417Y-30670943D01*
X31830524Y-30631290D01*
X31830518Y-30631282D01*
X31786917Y-30587681D01*
X31753432Y-30526358D01*
X31758416Y-30456666D01*
X31786917Y-30412319D01*
X31805999Y-30393237D01*
X31830520Y-30368716D01*
X31909577Y-30231784D01*
X31950500Y-30079057D01*
X31950500Y-29920943D01*
X31909577Y-29768216D01*
X31841870Y-29650943D01*
X36210400Y-29650943D01*
X36210400Y-29809057D01*
X36240381Y-29920945D01*
X36251323Y-29961783D01*
X36251326Y-29961790D01*
X36330375Y-30098709D01*
X36330379Y-30098714D01*
X36330380Y-30098716D01*
X36442184Y-30210520D01*
X36442186Y-30210521D01*
X36442190Y-30210524D01*
X36544308Y-30269481D01*
X36579116Y-30289577D01*
X36731843Y-30330500D01*
X36731845Y-30330500D01*
X36889955Y-30330500D01*
X36889957Y-30330500D01*
X37042684Y-30289577D01*
X37179616Y-30210520D01*
X37291420Y-30098716D01*
X37370477Y-29961784D01*
X37411400Y-29809057D01*
X37411400Y-29650943D01*
X37370477Y-29498216D01*
X37360990Y-29481784D01*
X37291424Y-29361290D01*
X37291418Y-29361282D01*
X37179617Y-29249481D01*
X37179609Y-29249475D01*
X37042690Y-29170426D01*
X37042686Y-29170424D01*
X37042684Y-29170423D01*
X36889957Y-29129500D01*
X36731843Y-29129500D01*
X36579116Y-29170423D01*
X36579109Y-29170426D01*
X36442190Y-29249475D01*
X36442182Y-29249481D01*
X36330381Y-29361282D01*
X36330375Y-29361290D01*
X36251326Y-29498209D01*
X36251323Y-29498216D01*
X36210400Y-29650943D01*
X31841870Y-29650943D01*
X31830520Y-29631284D01*
X31780416Y-29581180D01*
X31774948Y-29573796D01*
X31765947Y-29549278D01*
X31753432Y-29526358D01*
X31754100Y-29517006D01*
X31750870Y-29508206D01*
X31756552Y-29482717D01*
X31758416Y-29456666D01*
X31764457Y-29447265D01*
X31766075Y-29440011D01*
X31774441Y-29431730D01*
X31786917Y-29412319D01*
X31830520Y-29368716D01*
X31909577Y-29231784D01*
X31950500Y-29079057D01*
X31950500Y-28920943D01*
X31909577Y-28768216D01*
X31907668Y-28764910D01*
X31830524Y-28631290D01*
X31830518Y-28631282D01*
X31786917Y-28587681D01*
X31753432Y-28526358D01*
X31758416Y-28456666D01*
X31786917Y-28412319D01*
X31830520Y-28368716D01*
X31909577Y-28231784D01*
X31912482Y-28220943D01*
X32399500Y-28220943D01*
X32399500Y-28379057D01*
X32410724Y-28420943D01*
X32440423Y-28531783D01*
X32440426Y-28531790D01*
X32519475Y-28668709D01*
X32519479Y-28668714D01*
X32519480Y-28668716D01*
X32631284Y-28780520D01*
X32631286Y-28780521D01*
X32631290Y-28780524D01*
X32768209Y-28859573D01*
X32768216Y-28859577D01*
X32920943Y-28900500D01*
X32920945Y-28900500D01*
X33079055Y-28900500D01*
X33079057Y-28900500D01*
X33231784Y-28859577D01*
X33286556Y-28827954D01*
X33368707Y-28780526D01*
X33368711Y-28780522D01*
X33368716Y-28780520D01*
X33368719Y-28780516D01*
X33374507Y-28776075D01*
X33439674Y-28750877D01*
X33508120Y-28764910D01*
X33525493Y-28776075D01*
X33531292Y-28780526D01*
X33668209Y-28859573D01*
X33668216Y-28859577D01*
X33820943Y-28900500D01*
X33820945Y-28900500D01*
X33979055Y-28900500D01*
X33979057Y-28900500D01*
X34131784Y-28859577D01*
X34268716Y-28780520D01*
X34380520Y-28668716D01*
X34459577Y-28531784D01*
X34489277Y-28420943D01*
X43399500Y-28420943D01*
X43399500Y-28579057D01*
X43437400Y-28720500D01*
X43440423Y-28731783D01*
X43440426Y-28731790D01*
X43519475Y-28868709D01*
X43519479Y-28868714D01*
X43519480Y-28868716D01*
X43631284Y-28980520D01*
X43631286Y-28980521D01*
X43631290Y-28980524D01*
X43768209Y-29059573D01*
X43768216Y-29059577D01*
X43920943Y-29100500D01*
X43920945Y-29100500D01*
X44079055Y-29100500D01*
X44079057Y-29100500D01*
X44231784Y-29059577D01*
X44368716Y-28980520D01*
X44480520Y-28868716D01*
X44559577Y-28731784D01*
X44600500Y-28579057D01*
X44600500Y-28420943D01*
X44559577Y-28268216D01*
X44538543Y-28231783D01*
X44480524Y-28131290D01*
X44480518Y-28131282D01*
X44368717Y-28019481D01*
X44368709Y-28019475D01*
X44231790Y-27940426D01*
X44231786Y-27940424D01*
X44231784Y-27940423D01*
X44079057Y-27899500D01*
X43920943Y-27899500D01*
X43768216Y-27940423D01*
X43768209Y-27940426D01*
X43631290Y-28019475D01*
X43631282Y-28019481D01*
X43519481Y-28131282D01*
X43519475Y-28131290D01*
X43440426Y-28268209D01*
X43440423Y-28268216D01*
X43399500Y-28420943D01*
X34489277Y-28420943D01*
X34500500Y-28379057D01*
X34500500Y-28220943D01*
X34459577Y-28068216D01*
X34431437Y-28019475D01*
X34380524Y-27931290D01*
X34380518Y-27931282D01*
X34268717Y-27819481D01*
X34268709Y-27819475D01*
X34131790Y-27740426D01*
X34131786Y-27740424D01*
X34131784Y-27740423D01*
X33979057Y-27699500D01*
X33820943Y-27699500D01*
X33668216Y-27740423D01*
X33668209Y-27740426D01*
X33531291Y-27819475D01*
X33525488Y-27823928D01*
X33460319Y-27849123D01*
X33391874Y-27835086D01*
X33374512Y-27823928D01*
X33368720Y-27819484D01*
X33368716Y-27819480D01*
X33368710Y-27819476D01*
X33368708Y-27819475D01*
X33231790Y-27740426D01*
X33231786Y-27740424D01*
X33231784Y-27740423D01*
X33079057Y-27699500D01*
X32920943Y-27699500D01*
X32768216Y-27740423D01*
X32768209Y-27740426D01*
X32631290Y-27819475D01*
X32631282Y-27819481D01*
X32519481Y-27931282D01*
X32519475Y-27931290D01*
X32440426Y-28068209D01*
X32440423Y-28068216D01*
X32399500Y-28220943D01*
X31912482Y-28220943D01*
X31950500Y-28079057D01*
X31950500Y-27920943D01*
X31909577Y-27768216D01*
X31869904Y-27699500D01*
X31830524Y-27631290D01*
X31830518Y-27631282D01*
X31786917Y-27587681D01*
X31753432Y-27526358D01*
X31758416Y-27456666D01*
X31786917Y-27412319D01*
X31830520Y-27368716D01*
X31909577Y-27231784D01*
X31950500Y-27079057D01*
X31950500Y-26920943D01*
X31909577Y-26768216D01*
X31909573Y-26768209D01*
X31830524Y-26631290D01*
X31830518Y-26631282D01*
X31718717Y-26519481D01*
X31718709Y-26519475D01*
X31581790Y-26440426D01*
X31581786Y-26440424D01*
X31581784Y-26440423D01*
X31429057Y-26399500D01*
X31270943Y-26399500D01*
X31118216Y-26440423D01*
X31118209Y-26440426D01*
X30981290Y-26519475D01*
X30981282Y-26519481D01*
X30869481Y-26631282D01*
X30869475Y-26631290D01*
X30790426Y-26768209D01*
X30790423Y-26768216D01*
X30749500Y-26920943D01*
X500500Y-26920943D01*
X500500Y-24720943D01*
X42599500Y-24720943D01*
X42599500Y-24879056D01*
X42640423Y-25031783D01*
X42640426Y-25031790D01*
X42719475Y-25168709D01*
X42719479Y-25168714D01*
X42719480Y-25168716D01*
X42831284Y-25280520D01*
X42831286Y-25280521D01*
X42831290Y-25280524D01*
X42968209Y-25359573D01*
X42968216Y-25359577D01*
X43120943Y-25400500D01*
X43120945Y-25400500D01*
X43279055Y-25400500D01*
X43279057Y-25400500D01*
X43431784Y-25359577D01*
X43568716Y-25280520D01*
X43680520Y-25168716D01*
X43759577Y-25031784D01*
X43800500Y-24879057D01*
X43800500Y-24720943D01*
X43759577Y-24568216D01*
X43754587Y-24559573D01*
X43680524Y-24431290D01*
X43680518Y-24431282D01*
X43568717Y-24319481D01*
X43568709Y-24319475D01*
X43431790Y-24240426D01*
X43431786Y-24240424D01*
X43431784Y-24240423D01*
X43279057Y-24199500D01*
X43120943Y-24199500D01*
X42968216Y-24240423D01*
X42968209Y-24240426D01*
X42831290Y-24319475D01*
X42831282Y-24319481D01*
X42719481Y-24431282D01*
X42719475Y-24431290D01*
X42640426Y-24568209D01*
X42640423Y-24568216D01*
X42599500Y-24720943D01*
X500500Y-24720943D01*
X500500Y-22120943D01*
X42599500Y-22120943D01*
X42599500Y-22279057D01*
X42626687Y-22380518D01*
X42640423Y-22431783D01*
X42640426Y-22431790D01*
X42719475Y-22568709D01*
X42719479Y-22568714D01*
X42719480Y-22568716D01*
X42831284Y-22680520D01*
X42831286Y-22680521D01*
X42831290Y-22680524D01*
X42968209Y-22759573D01*
X42968216Y-22759577D01*
X43120943Y-22800500D01*
X43120945Y-22800500D01*
X43279055Y-22800500D01*
X43279057Y-22800500D01*
X43431784Y-22759577D01*
X43568716Y-22680520D01*
X43659818Y-22589417D01*
X43664355Y-22586940D01*
X43667194Y-22582615D01*
X43694703Y-22570369D01*
X43721137Y-22555935D01*
X43726298Y-22556304D01*
X43731025Y-22554200D01*
X43760789Y-22558770D01*
X43790829Y-22560919D01*
X43794971Y-22564019D01*
X43800085Y-22564805D01*
X43822652Y-22584741D01*
X43846763Y-22602790D01*
X43849618Y-22608563D01*
X43852449Y-22611064D01*
X43864467Y-22638586D01*
X43866802Y-22643307D01*
X43867055Y-22644202D01*
X43890523Y-22731784D01*
X43893154Y-22736341D01*
X43896737Y-22748990D01*
X43896469Y-22776975D01*
X43899460Y-22804806D01*
X43896139Y-22811439D01*
X43896068Y-22818857D01*
X43880710Y-22842257D01*
X43868182Y-22867284D01*
X43861746Y-22871153D01*
X43857733Y-22877270D01*
X43834033Y-22887819D01*
X43809525Y-22902559D01*
X43668214Y-22940423D01*
X43668209Y-22940426D01*
X43531290Y-23019475D01*
X43531282Y-23019481D01*
X43419481Y-23131282D01*
X43419475Y-23131290D01*
X43340426Y-23268209D01*
X43340423Y-23268216D01*
X43299500Y-23420943D01*
X43299500Y-23579057D01*
X43304797Y-23598823D01*
X43340423Y-23731783D01*
X43340426Y-23731790D01*
X43419475Y-23868709D01*
X43419479Y-23868714D01*
X43419480Y-23868716D01*
X43531284Y-23980520D01*
X43531286Y-23980521D01*
X43531290Y-23980524D01*
X43668209Y-24059573D01*
X43668216Y-24059577D01*
X43820943Y-24100500D01*
X43820945Y-24100500D01*
X43979055Y-24100500D01*
X43979057Y-24100500D01*
X44131784Y-24059577D01*
X44268716Y-23980520D01*
X44380520Y-23868716D01*
X44459577Y-23731784D01*
X44500500Y-23579057D01*
X44500500Y-23420943D01*
X44459577Y-23268216D01*
X44459573Y-23268209D01*
X44458107Y-23264668D01*
X44457759Y-23261433D01*
X44457473Y-23260365D01*
X44457639Y-23260320D01*
X44450638Y-23195199D01*
X44481913Y-23132719D01*
X44540573Y-23097441D01*
X44681884Y-23059577D01*
X44818816Y-22980520D01*
X44878393Y-22920943D01*
X46699500Y-22920943D01*
X46699500Y-23079056D01*
X46740423Y-23231783D01*
X46740426Y-23231790D01*
X46819475Y-23368709D01*
X46819479Y-23368714D01*
X46819480Y-23368716D01*
X46931284Y-23480520D01*
X46931286Y-23480521D01*
X46931290Y-23480524D01*
X46998765Y-23519480D01*
X47068216Y-23559577D01*
X47078973Y-23562459D01*
X47138634Y-23598823D01*
X47169164Y-23661669D01*
X47160870Y-23731045D01*
X47154270Y-23744231D01*
X47140424Y-23768213D01*
X47140423Y-23768216D01*
X47099500Y-23920943D01*
X47099500Y-24079057D01*
X47105246Y-24100499D01*
X47140423Y-24231783D01*
X47140426Y-24231790D01*
X47219475Y-24368709D01*
X47219479Y-24368714D01*
X47219480Y-24368716D01*
X47331284Y-24480520D01*
X47331286Y-24480521D01*
X47331290Y-24480524D01*
X47468209Y-24559573D01*
X47468216Y-24559577D01*
X47620943Y-24600500D01*
X47620945Y-24600500D01*
X47779055Y-24600500D01*
X47779057Y-24600500D01*
X47931784Y-24559577D01*
X48068716Y-24480520D01*
X48180520Y-24368716D01*
X48259577Y-24231784D01*
X48300500Y-24079057D01*
X48300500Y-23920943D01*
X48259577Y-23768216D01*
X48259573Y-23768209D01*
X48180524Y-23631290D01*
X48180518Y-23631282D01*
X48068717Y-23519481D01*
X48068709Y-23519475D01*
X47931790Y-23440426D01*
X47931787Y-23440424D01*
X47931784Y-23440423D01*
X47929886Y-23439914D01*
X47921022Y-23437539D01*
X47861362Y-23401173D01*
X47830834Y-23338325D01*
X47839131Y-23268950D01*
X47845726Y-23255774D01*
X47859577Y-23231784D01*
X47900500Y-23079057D01*
X47900500Y-22920943D01*
X47859577Y-22768216D01*
X47838543Y-22731783D01*
X47780524Y-22631290D01*
X47780518Y-22631282D01*
X47668717Y-22519481D01*
X47668709Y-22519475D01*
X47531790Y-22440426D01*
X47531786Y-22440424D01*
X47531784Y-22440423D01*
X47379057Y-22399500D01*
X47220943Y-22399500D01*
X47068216Y-22440423D01*
X47068209Y-22440426D01*
X46931290Y-22519475D01*
X46931282Y-22519481D01*
X46819481Y-22631282D01*
X46819475Y-22631290D01*
X46740426Y-22768209D01*
X46740423Y-22768216D01*
X46699500Y-22920943D01*
X44878393Y-22920943D01*
X44930620Y-22868716D01*
X44934452Y-22862078D01*
X44940955Y-22850816D01*
X44988647Y-22768209D01*
X45009677Y-22731784D01*
X45050600Y-22579057D01*
X45050600Y-22420943D01*
X45009677Y-22268216D01*
X45009673Y-22268209D01*
X44930624Y-22131290D01*
X44930618Y-22131282D01*
X44818817Y-22019481D01*
X44818809Y-22019475D01*
X44681890Y-21940426D01*
X44681886Y-21940424D01*
X44681884Y-21940423D01*
X44529157Y-21899500D01*
X44371043Y-21899500D01*
X44218316Y-21940423D01*
X44218309Y-21940426D01*
X44081390Y-22019475D01*
X44081386Y-22019478D01*
X43990284Y-22110580D01*
X43928960Y-22144064D01*
X43859269Y-22139080D01*
X43803336Y-22097208D01*
X43782829Y-22054994D01*
X43759577Y-21968216D01*
X43719904Y-21899500D01*
X43680524Y-21831290D01*
X43680518Y-21831282D01*
X43670179Y-21820943D01*
X54389500Y-21820943D01*
X54389500Y-21979057D01*
X54430289Y-22131282D01*
X54430423Y-22131783D01*
X54430426Y-22131790D01*
X54509475Y-22268709D01*
X54509479Y-22268714D01*
X54509480Y-22268716D01*
X54621284Y-22380520D01*
X54621286Y-22380521D01*
X54621290Y-22380524D01*
X54710087Y-22431790D01*
X54758216Y-22459577D01*
X54910943Y-22500500D01*
X54910945Y-22500500D01*
X55069055Y-22500500D01*
X55069057Y-22500500D01*
X55221784Y-22459577D01*
X55358716Y-22380520D01*
X55470520Y-22268716D01*
X55549577Y-22131784D01*
X55590500Y-21979057D01*
X55590500Y-21820943D01*
X55549577Y-21668216D01*
X55528543Y-21631783D01*
X55470524Y-21531290D01*
X55470518Y-21531282D01*
X55358717Y-21419481D01*
X55358709Y-21419475D01*
X55221790Y-21340426D01*
X55221786Y-21340424D01*
X55221784Y-21340423D01*
X55069057Y-21299500D01*
X54910943Y-21299500D01*
X54758216Y-21340423D01*
X54758209Y-21340426D01*
X54621290Y-21419475D01*
X54621282Y-21419481D01*
X54509481Y-21531282D01*
X54509475Y-21531290D01*
X54430426Y-21668209D01*
X54430423Y-21668216D01*
X54389500Y-21820943D01*
X43670179Y-21820943D01*
X43568717Y-21719481D01*
X43568709Y-21719475D01*
X43431790Y-21640426D01*
X43431786Y-21640424D01*
X43431784Y-21640423D01*
X43279057Y-21599500D01*
X43120943Y-21599500D01*
X42968216Y-21640423D01*
X42968209Y-21640426D01*
X42831290Y-21719475D01*
X42831282Y-21719481D01*
X42719481Y-21831282D01*
X42719475Y-21831290D01*
X42640426Y-21968209D01*
X42640424Y-21968214D01*
X42640423Y-21968216D01*
X42599500Y-22120943D01*
X500500Y-22120943D01*
X500500Y-20788443D01*
X41240500Y-20788443D01*
X41240500Y-20946557D01*
X41263203Y-21031284D01*
X41281423Y-21099283D01*
X41281426Y-21099290D01*
X41360475Y-21236209D01*
X41360479Y-21236214D01*
X41360480Y-21236216D01*
X41472284Y-21348020D01*
X41472286Y-21348021D01*
X41472290Y-21348024D01*
X41596049Y-21419475D01*
X41609216Y-21427077D01*
X41761943Y-21468000D01*
X41761945Y-21468000D01*
X41920055Y-21468000D01*
X41920057Y-21468000D01*
X42072784Y-21427077D01*
X42209716Y-21348020D01*
X42321520Y-21236216D01*
X42400577Y-21099284D01*
X42412672Y-21054143D01*
X59256300Y-21054143D01*
X59256300Y-21212257D01*
X59285423Y-21320943D01*
X59297223Y-21364983D01*
X59297226Y-21364990D01*
X59376275Y-21501909D01*
X59376279Y-21501914D01*
X59376280Y-21501916D01*
X59488084Y-21613720D01*
X59488086Y-21613721D01*
X59488090Y-21613724D01*
X59625009Y-21692773D01*
X59625016Y-21692777D01*
X59777743Y-21733700D01*
X59777745Y-21733700D01*
X59935855Y-21733700D01*
X59935857Y-21733700D01*
X60088584Y-21692777D01*
X60225516Y-21613720D01*
X60337320Y-21501916D01*
X60416377Y-21364984D01*
X60428178Y-21320943D01*
X60909500Y-21320943D01*
X60909500Y-21479057D01*
X60945583Y-21613718D01*
X60950423Y-21631783D01*
X60950426Y-21631790D01*
X61029475Y-21768709D01*
X61029479Y-21768714D01*
X61029480Y-21768716D01*
X61141284Y-21880520D01*
X61141286Y-21880521D01*
X61141290Y-21880524D01*
X61231474Y-21932591D01*
X61278216Y-21959577D01*
X61430943Y-22000500D01*
X61430945Y-22000500D01*
X61589055Y-22000500D01*
X61589057Y-22000500D01*
X61741784Y-21959577D01*
X61878716Y-21880520D01*
X61990520Y-21768716D01*
X62069577Y-21631784D01*
X62110500Y-21479057D01*
X62110500Y-21320943D01*
X62069577Y-21168216D01*
X62029783Y-21099290D01*
X61990524Y-21031290D01*
X61990518Y-21031282D01*
X61878717Y-20919481D01*
X61878709Y-20919475D01*
X61741790Y-20840426D01*
X61741786Y-20840424D01*
X61741784Y-20840423D01*
X61589057Y-20799500D01*
X61430943Y-20799500D01*
X61278216Y-20840423D01*
X61278209Y-20840426D01*
X61141290Y-20919475D01*
X61141282Y-20919481D01*
X61029481Y-21031282D01*
X61029475Y-21031290D01*
X60950426Y-21168209D01*
X60950423Y-21168216D01*
X60909500Y-21320943D01*
X60428178Y-21320943D01*
X60457300Y-21212257D01*
X60457300Y-21054143D01*
X60416377Y-20901416D01*
X60381163Y-20840423D01*
X60337324Y-20764490D01*
X60337318Y-20764482D01*
X60225517Y-20652681D01*
X60225509Y-20652675D01*
X60088590Y-20573626D01*
X60088586Y-20573624D01*
X60088584Y-20573623D01*
X59935857Y-20532700D01*
X59777743Y-20532700D01*
X59625016Y-20573623D01*
X59625009Y-20573626D01*
X59488090Y-20652675D01*
X59488082Y-20652681D01*
X59376281Y-20764482D01*
X59376275Y-20764490D01*
X59297226Y-20901409D01*
X59297223Y-20901416D01*
X59256300Y-21054143D01*
X42412672Y-21054143D01*
X42441500Y-20946557D01*
X42441500Y-20788443D01*
X42400577Y-20635716D01*
X42364728Y-20573623D01*
X42321524Y-20498790D01*
X42321518Y-20498782D01*
X42209717Y-20386981D01*
X42209709Y-20386975D01*
X42072790Y-20307926D01*
X42072786Y-20307924D01*
X42072784Y-20307923D01*
X41920057Y-20267000D01*
X41761943Y-20267000D01*
X41609216Y-20307923D01*
X41609209Y-20307926D01*
X41472290Y-20386975D01*
X41472282Y-20386981D01*
X41360481Y-20498782D01*
X41360475Y-20498790D01*
X41281426Y-20635709D01*
X41281423Y-20635716D01*
X41240500Y-20788443D01*
X500500Y-20788443D01*
X500500Y-19820943D01*
X55909500Y-19820943D01*
X55909500Y-19979056D01*
X55950423Y-20131783D01*
X55950426Y-20131790D01*
X56029475Y-20268709D01*
X56029479Y-20268714D01*
X56029480Y-20268716D01*
X56141284Y-20380520D01*
X56141286Y-20380521D01*
X56141290Y-20380524D01*
X56278209Y-20459573D01*
X56278216Y-20459577D01*
X56430943Y-20500500D01*
X56430945Y-20500500D01*
X56589055Y-20500500D01*
X56589057Y-20500500D01*
X56741784Y-20459577D01*
X56878716Y-20380520D01*
X56990520Y-20268716D01*
X57069577Y-20131784D01*
X57110500Y-19979057D01*
X57110500Y-19820943D01*
X57069577Y-19668216D01*
X57069573Y-19668209D01*
X56990524Y-19531290D01*
X56990518Y-19531282D01*
X56878717Y-19419481D01*
X56878709Y-19419475D01*
X56741790Y-19340426D01*
X56741786Y-19340424D01*
X56741784Y-19340423D01*
X56589057Y-19299500D01*
X56430943Y-19299500D01*
X56278216Y-19340423D01*
X56278209Y-19340426D01*
X56141290Y-19419475D01*
X56141282Y-19419481D01*
X56029481Y-19531282D01*
X56029475Y-19531290D01*
X55950426Y-19668209D01*
X55950423Y-19668216D01*
X55909500Y-19820943D01*
X500500Y-19820943D01*
X500500Y-18485643D01*
X46083100Y-18485643D01*
X46083100Y-18643757D01*
X46088341Y-18663314D01*
X46124023Y-18796483D01*
X46124026Y-18796490D01*
X46203075Y-18933409D01*
X46203079Y-18933414D01*
X46203080Y-18933416D01*
X46314884Y-19045220D01*
X46314886Y-19045221D01*
X46314890Y-19045224D01*
X46451809Y-19124273D01*
X46451816Y-19124277D01*
X46604543Y-19165200D01*
X46604545Y-19165200D01*
X46762655Y-19165200D01*
X46762657Y-19165200D01*
X46915384Y-19124277D01*
X47052316Y-19045220D01*
X47164120Y-18933416D01*
X47243177Y-18796484D01*
X47284100Y-18643757D01*
X47284100Y-18485643D01*
X47243177Y-18332916D01*
X47206514Y-18269413D01*
X47175413Y-18215543D01*
X48772000Y-18215543D01*
X48772000Y-18373657D01*
X48787738Y-18432390D01*
X48812923Y-18526383D01*
X48812926Y-18526390D01*
X48891975Y-18663309D01*
X48891979Y-18663314D01*
X48891980Y-18663316D01*
X49003784Y-18775120D01*
X49003786Y-18775121D01*
X49003790Y-18775124D01*
X49040798Y-18796490D01*
X49140716Y-18854177D01*
X49293443Y-18895100D01*
X49293445Y-18895100D01*
X49451555Y-18895100D01*
X49451557Y-18895100D01*
X49604284Y-18854177D01*
X49741216Y-18775120D01*
X49794293Y-18722043D01*
X53338900Y-18722043D01*
X53338900Y-18880156D01*
X53379823Y-19032883D01*
X53379826Y-19032890D01*
X53458875Y-19169809D01*
X53458879Y-19169814D01*
X53458880Y-19169816D01*
X53570684Y-19281620D01*
X53570686Y-19281621D01*
X53570690Y-19281624D01*
X53672540Y-19340426D01*
X53707616Y-19360677D01*
X53860343Y-19401600D01*
X53860345Y-19401600D01*
X54018455Y-19401600D01*
X54018457Y-19401600D01*
X54171184Y-19360677D01*
X54308116Y-19281620D01*
X54419920Y-19169816D01*
X54498977Y-19032884D01*
X54539900Y-18880157D01*
X54539900Y-18722043D01*
X54498977Y-18569316D01*
X54474194Y-18526390D01*
X54419924Y-18432390D01*
X54419918Y-18432382D01*
X54308117Y-18320581D01*
X54308109Y-18320575D01*
X54171190Y-18241526D01*
X54171186Y-18241524D01*
X54171184Y-18241523D01*
X54018457Y-18200600D01*
X53860343Y-18200600D01*
X53707616Y-18241523D01*
X53707609Y-18241526D01*
X53570690Y-18320575D01*
X53570682Y-18320581D01*
X53458881Y-18432382D01*
X53458875Y-18432390D01*
X53379826Y-18569309D01*
X53379823Y-18569316D01*
X53338900Y-18722043D01*
X49794293Y-18722043D01*
X49853020Y-18663316D01*
X49864314Y-18643755D01*
X49907294Y-18569309D01*
X49932077Y-18526384D01*
X49973000Y-18373657D01*
X49973000Y-18215543D01*
X49932077Y-18062816D01*
X49875142Y-17964200D01*
X49853024Y-17925890D01*
X49853018Y-17925882D01*
X49741217Y-17814081D01*
X49741209Y-17814075D01*
X49604290Y-17735026D01*
X49604286Y-17735024D01*
X49604284Y-17735023D01*
X49451557Y-17694100D01*
X49293443Y-17694100D01*
X49140716Y-17735023D01*
X49140709Y-17735026D01*
X49003790Y-17814075D01*
X49003782Y-17814081D01*
X48891981Y-17925882D01*
X48891975Y-17925890D01*
X48812926Y-18062809D01*
X48812923Y-18062816D01*
X48772000Y-18215543D01*
X47175413Y-18215543D01*
X47164122Y-18195987D01*
X47164118Y-18195982D01*
X47052317Y-18084181D01*
X47052309Y-18084175D01*
X46915390Y-18005126D01*
X46915386Y-18005124D01*
X46915384Y-18005123D01*
X46762657Y-17964200D01*
X46604543Y-17964200D01*
X46451816Y-18005123D01*
X46451809Y-18005126D01*
X46314890Y-18084175D01*
X46314882Y-18084181D01*
X46203081Y-18195982D01*
X46203075Y-18195990D01*
X46124026Y-18332909D01*
X46124023Y-18332916D01*
X46083100Y-18485643D01*
X500500Y-18485643D01*
X500500Y-15070943D01*
X48749500Y-15070943D01*
X48749500Y-15229056D01*
X48790423Y-15381783D01*
X48790426Y-15381790D01*
X48869475Y-15518709D01*
X48869479Y-15518714D01*
X48869480Y-15518716D01*
X48981284Y-15630520D01*
X48981286Y-15630521D01*
X48981290Y-15630524D01*
X49118209Y-15709573D01*
X49118216Y-15709577D01*
X49270943Y-15750500D01*
X49270945Y-15750500D01*
X49429055Y-15750500D01*
X49429057Y-15750500D01*
X49581784Y-15709577D01*
X49718716Y-15630520D01*
X49830520Y-15518716D01*
X49909577Y-15381784D01*
X49950500Y-15229057D01*
X49950500Y-15070943D01*
X49909577Y-14918216D01*
X49909573Y-14918209D01*
X49830524Y-14781290D01*
X49830518Y-14781282D01*
X49718717Y-14669481D01*
X49718709Y-14669475D01*
X49581790Y-14590426D01*
X49581786Y-14590424D01*
X49581784Y-14590423D01*
X49429057Y-14549500D01*
X49270943Y-14549500D01*
X49118216Y-14590423D01*
X49118209Y-14590426D01*
X48981290Y-14669475D01*
X48981282Y-14669481D01*
X48869481Y-14781282D01*
X48869475Y-14781290D01*
X48790426Y-14918209D01*
X48790423Y-14918216D01*
X48749500Y-15070943D01*
X500500Y-15070943D01*
X500500Y-12120943D01*
X52574500Y-12120943D01*
X52574500Y-12279057D01*
X52607041Y-12400500D01*
X52615423Y-12431783D01*
X52615426Y-12431790D01*
X52694475Y-12568709D01*
X52694479Y-12568714D01*
X52694480Y-12568716D01*
X52806284Y-12680520D01*
X52806286Y-12680521D01*
X52806290Y-12680524D01*
X52943209Y-12759573D01*
X52943216Y-12759577D01*
X53095943Y-12800500D01*
X53095945Y-12800500D01*
X53254055Y-12800500D01*
X53254057Y-12800500D01*
X53406784Y-12759577D01*
X53543716Y-12680520D01*
X53655520Y-12568716D01*
X53734577Y-12431784D01*
X53775500Y-12279057D01*
X53775500Y-12120943D01*
X53734577Y-11968216D01*
X53683101Y-11879056D01*
X53655524Y-11831290D01*
X53655518Y-11831282D01*
X53543717Y-11719481D01*
X53543709Y-11719475D01*
X53406790Y-11640426D01*
X53406786Y-11640424D01*
X53406784Y-11640423D01*
X53254057Y-11599500D01*
X53095943Y-11599500D01*
X52943216Y-11640423D01*
X52943209Y-11640426D01*
X52806290Y-11719475D01*
X52806282Y-11719481D01*
X52694481Y-11831282D01*
X52694475Y-11831290D01*
X52615426Y-11968209D01*
X52615423Y-11968216D01*
X52574500Y-12120943D01*
X500500Y-12120943D01*
X500500Y-10620943D01*
X53814500Y-10620943D01*
X53814500Y-10779056D01*
X53855423Y-10931783D01*
X53855426Y-10931790D01*
X53934475Y-11068709D01*
X53934479Y-11068714D01*
X53934480Y-11068716D01*
X54046284Y-11180520D01*
X54046286Y-11180521D01*
X54046290Y-11180524D01*
X54109764Y-11217170D01*
X54183216Y-11259577D01*
X54335943Y-11300500D01*
X54335945Y-11300500D01*
X54494055Y-11300500D01*
X54494057Y-11300500D01*
X54646784Y-11259577D01*
X54783716Y-11180520D01*
X54783725Y-11180510D01*
X54785003Y-11179531D01*
X54786298Y-11179030D01*
X54790755Y-11176457D01*
X54791155Y-11177151D01*
X54850170Y-11154330D01*
X54918616Y-11168361D01*
X54968611Y-11217170D01*
X54982718Y-11271091D01*
X54983439Y-11270997D01*
X54984193Y-11276727D01*
X54984500Y-11277899D01*
X54984500Y-11279057D01*
X55025289Y-11431282D01*
X55025423Y-11431783D01*
X55025426Y-11431790D01*
X55104475Y-11568709D01*
X55104479Y-11568714D01*
X55104480Y-11568716D01*
X55216284Y-11680520D01*
X55216286Y-11680521D01*
X55216290Y-11680524D01*
X55351586Y-11758636D01*
X55353216Y-11759577D01*
X55505943Y-11800500D01*
X55505945Y-11800500D01*
X55664055Y-11800500D01*
X55664057Y-11800500D01*
X55816784Y-11759577D01*
X55816792Y-11759572D01*
X55824294Y-11756466D01*
X55825192Y-11758636D01*
X55881399Y-11745000D01*
X55947426Y-11767852D01*
X55990617Y-11822773D01*
X55999500Y-11868860D01*
X55999500Y-11879056D01*
X56040423Y-12031783D01*
X56040426Y-12031790D01*
X56119475Y-12168709D01*
X56119479Y-12168714D01*
X56119480Y-12168716D01*
X56231284Y-12280520D01*
X56231286Y-12280521D01*
X56231290Y-12280524D01*
X56368209Y-12359573D01*
X56368216Y-12359577D01*
X56520943Y-12400500D01*
X56520945Y-12400500D01*
X56679055Y-12400500D01*
X56679057Y-12400500D01*
X56831784Y-12359577D01*
X56968716Y-12280520D01*
X57080520Y-12168716D01*
X57159577Y-12031784D01*
X57200500Y-11879057D01*
X57200500Y-11720943D01*
X57159577Y-11568216D01*
X57159573Y-11568209D01*
X57080524Y-11431290D01*
X57080518Y-11431282D01*
X56968717Y-11319481D01*
X56968709Y-11319475D01*
X56831790Y-11240426D01*
X56831786Y-11240424D01*
X56831784Y-11240423D01*
X56679057Y-11199500D01*
X56520943Y-11199500D01*
X56368216Y-11240423D01*
X56360706Y-11243534D01*
X56359808Y-11241367D01*
X56303576Y-11254997D01*
X56237554Y-11232133D01*
X56194374Y-11177203D01*
X56185500Y-11131139D01*
X56185500Y-11120945D01*
X56185500Y-11120943D01*
X56144577Y-10968216D01*
X56123543Y-10931783D01*
X56065524Y-10831290D01*
X56065518Y-10831282D01*
X55953717Y-10719481D01*
X55953709Y-10719475D01*
X55816790Y-10640426D01*
X55816786Y-10640424D01*
X55816784Y-10640423D01*
X55664057Y-10599500D01*
X55505943Y-10599500D01*
X55353216Y-10640423D01*
X55353209Y-10640426D01*
X55216290Y-10719475D01*
X55214989Y-10720474D01*
X55213692Y-10720975D01*
X55209245Y-10723543D01*
X55208844Y-10722849D01*
X55149820Y-10745670D01*
X55081375Y-10731633D01*
X55031384Y-10682820D01*
X55017280Y-10628908D01*
X55016561Y-10629003D01*
X55015806Y-10623270D01*
X55015500Y-10622100D01*
X55015500Y-10620945D01*
X55015500Y-10620943D01*
X54974577Y-10468216D01*
X54974573Y-10468209D01*
X54895524Y-10331290D01*
X54895518Y-10331282D01*
X54783717Y-10219481D01*
X54783709Y-10219475D01*
X54646790Y-10140426D01*
X54646786Y-10140424D01*
X54646784Y-10140423D01*
X54494057Y-10099500D01*
X54335943Y-10099500D01*
X54183216Y-10140423D01*
X54183209Y-10140426D01*
X54046290Y-10219475D01*
X54046282Y-10219481D01*
X53934481Y-10331282D01*
X53934475Y-10331290D01*
X53855426Y-10468209D01*
X53855423Y-10468216D01*
X53814500Y-10620943D01*
X500500Y-10620943D01*
X500500Y-4803471D01*
X999500Y-4803471D01*
X999500Y-5196528D01*
X1038026Y-5587702D01*
X1114704Y-5973194D01*
X1114707Y-5973205D01*
X1228810Y-6349354D01*
X1379230Y-6712499D01*
X1379232Y-6712504D01*
X1564511Y-7059137D01*
X1564522Y-7059155D01*
X1782887Y-7385960D01*
X1782897Y-7385974D01*
X2032254Y-7689817D01*
X2310182Y-7967745D01*
X2310187Y-7967749D01*
X2310188Y-7967750D01*
X2614031Y-8217107D01*
X2940851Y-8435482D01*
X2940860Y-8435487D01*
X2940862Y-8435488D01*
X3287495Y-8620767D01*
X3287497Y-8620767D01*
X3287503Y-8620771D01*
X3650647Y-8771190D01*
X4026785Y-8885290D01*
X4026791Y-8885291D01*
X4026794Y-8885292D01*
X4026805Y-8885295D01*
X4412297Y-8961973D01*
X4803468Y-9000500D01*
X4803471Y-9000500D01*
X5196529Y-9000500D01*
X5196532Y-9000500D01*
X5587703Y-8961973D01*
X5662748Y-8947045D01*
X5973194Y-8885295D01*
X5973205Y-8885292D01*
X5973205Y-8885291D01*
X5973215Y-8885290D01*
X6349353Y-8771190D01*
X6712497Y-8620771D01*
X7059149Y-8435482D01*
X7385969Y-8217107D01*
X7689812Y-7967750D01*
X7967750Y-7689812D01*
X8217107Y-7385969D01*
X8435482Y-7059149D01*
X8620771Y-6712497D01*
X8771190Y-6349353D01*
X8885290Y-5973215D01*
X8885292Y-5973205D01*
X8885295Y-5973194D01*
X8961973Y-5587702D01*
X9000500Y-5196528D01*
X9000500Y-4803471D01*
X77999500Y-4803471D01*
X77999500Y-5196528D01*
X78038026Y-5587702D01*
X78114704Y-5973194D01*
X78114707Y-5973205D01*
X78228810Y-6349354D01*
X78379230Y-6712499D01*
X78379232Y-6712504D01*
X78564511Y-7059137D01*
X78564522Y-7059155D01*
X78782887Y-7385960D01*
X78782897Y-7385974D01*
X79032254Y-7689817D01*
X79310182Y-7967745D01*
X79310187Y-7967749D01*
X79310188Y-7967750D01*
X79614031Y-8217107D01*
X79940851Y-8435482D01*
X79940860Y-8435487D01*
X79940862Y-8435488D01*
X80287495Y-8620767D01*
X80287497Y-8620767D01*
X80287503Y-8620771D01*
X80650647Y-8771190D01*
X81026785Y-8885290D01*
X81026791Y-8885291D01*
X81026794Y-8885292D01*
X81026805Y-8885295D01*
X81412297Y-8961973D01*
X81803468Y-9000500D01*
X81803471Y-9000500D01*
X82196529Y-9000500D01*
X82196532Y-9000500D01*
X82587703Y-8961973D01*
X82662748Y-8947045D01*
X82973194Y-8885295D01*
X82973205Y-8885292D01*
X82973205Y-8885291D01*
X82973215Y-8885290D01*
X83349353Y-8771190D01*
X83712497Y-8620771D01*
X84059149Y-8435482D01*
X84385969Y-8217107D01*
X84689812Y-7967750D01*
X84967750Y-7689812D01*
X85217107Y-7385969D01*
X85435482Y-7059149D01*
X85620771Y-6712497D01*
X85771190Y-6349353D01*
X85885290Y-5973215D01*
X85885292Y-5973205D01*
X85885295Y-5973194D01*
X85961973Y-5587702D01*
X86000500Y-5196528D01*
X86000500Y-4803471D01*
X85961973Y-4412297D01*
X85885295Y-4026805D01*
X85885292Y-4026794D01*
X85885291Y-4026791D01*
X85885290Y-4026785D01*
X85771190Y-3650647D01*
X85620771Y-3287503D01*
X85435482Y-2940851D01*
X85217107Y-2614031D01*
X84967750Y-2310188D01*
X84967749Y-2310187D01*
X84967745Y-2310182D01*
X84689817Y-2032254D01*
X84385974Y-1782897D01*
X84385973Y-1782896D01*
X84385969Y-1782893D01*
X84059149Y-1564518D01*
X84059144Y-1564515D01*
X84059137Y-1564511D01*
X83712504Y-1379232D01*
X83712499Y-1379230D01*
X83349354Y-1228810D01*
X82973205Y-1114707D01*
X82973194Y-1114704D01*
X82587702Y-1038026D01*
X82293089Y-1009010D01*
X82196532Y-999500D01*
X81803468Y-999500D01*
X81714251Y-1008287D01*
X81412297Y-1038026D01*
X81026805Y-1114704D01*
X81026794Y-1114707D01*
X80650645Y-1228810D01*
X80287500Y-1379230D01*
X80287495Y-1379232D01*
X79940862Y-1564511D01*
X79940844Y-1564522D01*
X79614039Y-1782887D01*
X79614025Y-1782897D01*
X79310182Y-2032254D01*
X79032254Y-2310182D01*
X78782897Y-2614025D01*
X78782887Y-2614039D01*
X78564522Y-2940844D01*
X78564511Y-2940862D01*
X78379232Y-3287495D01*
X78379230Y-3287500D01*
X78228810Y-3650645D01*
X78114707Y-4026794D01*
X78114704Y-4026805D01*
X78038026Y-4412297D01*
X77999500Y-4803471D01*
X9000500Y-4803471D01*
X8961973Y-4412297D01*
X8885295Y-4026805D01*
X8885292Y-4026794D01*
X8885291Y-4026791D01*
X8885290Y-4026785D01*
X8771190Y-3650647D01*
X8620771Y-3287503D01*
X8435482Y-2940851D01*
X8217107Y-2614031D01*
X7967750Y-2310188D01*
X7967749Y-2310187D01*
X7967745Y-2310182D01*
X7689817Y-2032254D01*
X7385974Y-1782897D01*
X7385973Y-1782896D01*
X7385969Y-1782893D01*
X7059149Y-1564518D01*
X7059144Y-1564515D01*
X7059137Y-1564511D01*
X6712504Y-1379232D01*
X6712499Y-1379230D01*
X6349354Y-1228810D01*
X5973205Y-1114707D01*
X5973194Y-1114704D01*
X5587702Y-1038026D01*
X5293089Y-1009010D01*
X5196532Y-999500D01*
X4803468Y-999500D01*
X4714251Y-1008287D01*
X4412297Y-1038026D01*
X4026805Y-1114704D01*
X4026794Y-1114707D01*
X3650645Y-1228810D01*
X3287500Y-1379230D01*
X3287495Y-1379232D01*
X2940862Y-1564511D01*
X2940844Y-1564522D01*
X2614039Y-1782887D01*
X2614025Y-1782897D01*
X2310182Y-2032254D01*
X2032254Y-2310182D01*
X1782897Y-2614025D01*
X1782887Y-2614039D01*
X1564522Y-2940844D01*
X1564511Y-2940862D01*
X1379232Y-3287495D01*
X1379230Y-3287500D01*
X1228810Y-3650645D01*
X1114707Y-4026794D01*
X1114704Y-4026805D01*
X1038026Y-4412297D01*
X999500Y-4803471D01*
X500500Y-4803471D01*
X500500Y-624500D01*
X520185Y-557461D01*
X572989Y-511706D01*
X624500Y-500500D01*
X89375500Y-500500D01*
X89442539Y-520185D01*
G37*
%TD.AperFunction*%
%TD*%
M02*
