%TF.GenerationSoftware,KiCad,Pcbnew,9.0.9*%
%TF.CreationDate,2026-09-25T12:06:13+00:00*%
%TF.ProjectId,PCB-PWR,5043422d-5057-4522-9e6b-696361645f70,rev?*%
%TF.SameCoordinates,Original*%
%TF.FileFunction,Copper,L4,Bot*%
%TF.FilePolarity,Positive*%
%FSLAX46Y46*%
G04 Gerber Fmt 4.6, Leading zero omitted, Abs format (unit mm)*
G04 Created by KiCad (PCBNEW 9.0.9) date 2026-09-25 12:06:13*
%MOMM*%
%LPD*%
G01*
G04 APERTURE LIST*
G04 Aperture macros list*
%AMRoundRect*
0 Rectangle with rounded corners*
0 $1 Rounding radius*
0 $2 $3 $4 $5 $6 $7 $8 $9 X,Y pos of 4 corners*
0 Add a 4 corners polygon primitive as box body*
4,1,4,$2,$3,$4,$5,$6,$7,$8,$9,$2,$3,0*
0 Add four circle primitives for the rounded corners*
1,1,$1+$1,$2,$3*
1,1,$1+$1,$4,$5*
1,1,$1+$1,$6,$7*
1,1,$1+$1,$8,$9*
0 Add four rect primitives between the rounded corners*
20,1,$1+$1,$2,$3,$4,$5,0*
20,1,$1+$1,$4,$5,$6,$7,0*
20,1,$1+$1,$6,$7,$8,$9,0*
20,1,$1+$1,$8,$9,$2,$3,0*%
G04 Aperture macros list end*
%TA.AperFunction,ComponentPad*%
%ADD10RoundRect,0.300000X-0.450000X-0.450000X0.450000X-0.450000X0.450000X0.450000X-0.450000X0.450000X0*%
%TD*%
%TA.AperFunction,ComponentPad*%
%ADD11C,1.500000*%
%TD*%
%TA.AperFunction,ComponentPad*%
%ADD12RoundRect,0.300000X-0.450000X0.450000X-0.450000X-0.450000X0.450000X-0.450000X0.450000X0.450000X0*%
%TD*%
%TA.AperFunction,ViaPad*%
%ADD13C,0.600000*%
%TD*%
%TA.AperFunction,Conductor*%
%ADD14C,0.500000*%
%TD*%
%TA.AperFunction,Conductor*%
%ADD15C,1.200000*%
%TD*%
%TA.AperFunction,Conductor*%
%ADD16C,0.250000*%
%TD*%
%TA.AperFunction,Conductor*%
%ADD17C,0.200000*%
%TD*%
%TA.AperFunction,Conductor*%
%ADD18C,1.000000*%
%TD*%
%TA.AperFunction,Conductor*%
%ADD19C,0.300000*%
%TD*%
%TA.AperFunction,Conductor*%
%ADD20C,3.000000*%
%TD*%
G04 APERTURE END LIST*
D10*
%TO.P,J1,1*%
%TO.N,VBAT_RAW*%
X6000000Y-31000000D03*
D11*
%TO.P,J1,2*%
%TO.N,GND_PWR*%
X6000000Y-28000000D03*
%TD*%
D12*
%TO.P,J2,1*%
%TO.N,3V8_MODEM*%
X81080000Y-40000000D03*
D11*
%TO.P,J2,2*%
%TO.N,GND_MODEM*%
X81080000Y-43000000D03*
%TO.P,J2,3*%
%TO.N,3V3_DIGITAL*%
X81080000Y-46000000D03*
%TO.P,J2,4*%
%TO.N,GND_DIGITAL*%
X81080000Y-49000000D03*
%TO.P,J2,5*%
%TO.N,1V8_MIC*%
X81080000Y-52000000D03*
%TO.P,J2,6*%
%TO.N,GND_MIC*%
X81080000Y-55000000D03*
%TO.P,J2,7*%
%TO.N,PWR_GOOD*%
X78080000Y-40000000D03*
%TO.P,J2,8*%
%TO.N,FAULT*%
X78080000Y-43000000D03*
%TO.P,J2,9*%
%TO.N,EN_MODEM*%
X78080000Y-46000000D03*
%TO.P,J2,10*%
%TO.N,EN_AUX*%
X78080000Y-49000000D03*
%TO.P,J2,11*%
%TO.N,I2C2_SCL*%
X78080000Y-52000000D03*
%TO.P,J2,12*%
%TO.N,I2C2_SDA*%
X78080000Y-55000000D03*
%TD*%
D13*
%TO.N,1V8_MIC*%
X74925600Y-54853900D03*
X43352900Y-51939400D03*
X60495800Y-36561100D03*
X74884100Y-44315100D03*
X66281500Y-38314400D03*
%TO.N,3V3_DIGITAL*%
X47700000Y-24000000D03*
X73000000Y-40100000D03*
X72000000Y-40100000D03*
X61510000Y-21400000D03*
X55585000Y-39200000D03*
X64500000Y-35000000D03*
X57490000Y-47900000D03*
%TO.N,3V8_MODEM*%
X47149600Y-51898300D03*
%TO.N,EN_AUX*%
X74172200Y-46546500D03*
%TO.N,EN_MODEM*%
X46683600Y-18564700D03*
X53175000Y-12200000D03*
%TO.N,FAULT*%
X43200000Y-22200000D03*
X56287400Y-50346600D03*
X42780000Y-54632500D03*
X69647900Y-48362100D03*
%TO.N,FB_3V8*%
X56510000Y-19900000D03*
X55585000Y-11200000D03*
%TO.N,GND_MIC*%
X73850000Y-52950000D03*
X74547400Y-52552600D03*
%TO.N,GND_MODEM*%
X74150000Y-43550000D03*
X73850000Y-42150000D03*
X74400000Y-42750000D03*
%TO.N,GND_PWR*%
X6950000Y-17450000D03*
X74550000Y-49050000D03*
X10450000Y-17450000D03*
X3450000Y-34950000D03*
X10450000Y-38450000D03*
X73450000Y-3450000D03*
X45450000Y-10450000D03*
X45450000Y-3450000D03*
X6950000Y-27950000D03*
X41950000Y-10450000D03*
X13950000Y-13950000D03*
X31450000Y-10450000D03*
X17450000Y-10450000D03*
X87450000Y-34950000D03*
X55000000Y-42525000D03*
X42766275Y-19667205D03*
X55000000Y-14525000D03*
X59010000Y-19900000D03*
X13950000Y-48950000D03*
X31450000Y-20950000D03*
X48950000Y-6950000D03*
X10450000Y-45450000D03*
X52000000Y-32000000D03*
X48842934Y-19303775D03*
X24450000Y-20950000D03*
X77375000Y-10000000D03*
X13950000Y-55950000D03*
X76650000Y-39150000D03*
X83950000Y-20950000D03*
X73450000Y-24450000D03*
X41950000Y-3450000D03*
X13950000Y-10450000D03*
X17450000Y-55950000D03*
X38450000Y-34950000D03*
X76445334Y-50526189D03*
X3450000Y-17450000D03*
X51313775Y-47332934D03*
X27950000Y-45450000D03*
X59450000Y-3450000D03*
X76336037Y-40078728D03*
X38450000Y-45450000D03*
X77549568Y-50550432D03*
X38450000Y-38450000D03*
X52350000Y-13225000D03*
X83950000Y-48950000D03*
X10450000Y-20950000D03*
X6950000Y-41950000D03*
X44400000Y-21500000D03*
X3450000Y-41950000D03*
X20950000Y-17450000D03*
X53842934Y-21803775D03*
X87450000Y-20950000D03*
X31450000Y-6950000D03*
X13950000Y-20950000D03*
X48980000Y-21140000D03*
X24450000Y-13950000D03*
X38450000Y-6950000D03*
X59450000Y-6950000D03*
X48950000Y-3450000D03*
X13950000Y-6950000D03*
X74350000Y-48150000D03*
X66450000Y-3450000D03*
X10450000Y-34950000D03*
X24450000Y-10450000D03*
X3450000Y-20950000D03*
X87450000Y-24450000D03*
X38450000Y-48950000D03*
X87450000Y-31450000D03*
X50475000Y-42000000D03*
X31450000Y-13950000D03*
X55000000Y-13925000D03*
X77375000Y-17000000D03*
X10450000Y-13950000D03*
X10450000Y-52450000D03*
X87450000Y-27950000D03*
X83950000Y-13950000D03*
X87450000Y-3450000D03*
X27950000Y-24450000D03*
X76950000Y-24450000D03*
X87450000Y-55950000D03*
X66510000Y-47900000D03*
X31450000Y-41950000D03*
X51625182Y-19615182D03*
X55950000Y-3450000D03*
X34950000Y-10450000D03*
X10450000Y-41950000D03*
X3450000Y-48950000D03*
X31450000Y-45450000D03*
X38450000Y-10450000D03*
X52350000Y-41225000D03*
X20950000Y-3450000D03*
X10450000Y-3450000D03*
X6950000Y-10450000D03*
X27950000Y-13950000D03*
X20950000Y-13950000D03*
X20950000Y-10450000D03*
X73450000Y-13950000D03*
X3450000Y-45450000D03*
X34950000Y-17450000D03*
X27950000Y-48950000D03*
X76950000Y-13950000D03*
X76950000Y-51150000D03*
X76950000Y-6950000D03*
X17450000Y-41950000D03*
X6950000Y-34950000D03*
X87450000Y-13950000D03*
X34950000Y-3450000D03*
X6950000Y-13950000D03*
X3450000Y-10450000D03*
X34950000Y-6950000D03*
X34747902Y-24244629D03*
X13950000Y-41950000D03*
X34950000Y-20950000D03*
X83950000Y-10450000D03*
X20000000Y-30000000D03*
X41950000Y-6950000D03*
X27950000Y-41950000D03*
X17450000Y-3450000D03*
X27950000Y-20950000D03*
X69747902Y-43244629D03*
X10450000Y-55950000D03*
X3450000Y-38450000D03*
X38450000Y-3450000D03*
X34950000Y-13950000D03*
X27950000Y-6950000D03*
X24450000Y-6950000D03*
X80450000Y-31450000D03*
X17450000Y-52450000D03*
X6950000Y-48950000D03*
X27950000Y-3450000D03*
X52450000Y-3450000D03*
X27950000Y-52450000D03*
X69950000Y-3450000D03*
X17450000Y-45450000D03*
X24450000Y-24450000D03*
X69747902Y-15244629D03*
X69950000Y-13950000D03*
X73750000Y-48750000D03*
X87450000Y-45450000D03*
X10450000Y-24450000D03*
X3450000Y-13950000D03*
X6950000Y-45450000D03*
X27950000Y-10450000D03*
X87450000Y-38450000D03*
X31450000Y-38450000D03*
X13950000Y-3450000D03*
X87450000Y-10450000D03*
X83950000Y-17450000D03*
X17450000Y-20950000D03*
X31450000Y-48950000D03*
X80450000Y-10450000D03*
X6950000Y-20950000D03*
X80450000Y-17450000D03*
X87450000Y-17450000D03*
X44900000Y-23500000D03*
X6950000Y-38450000D03*
X27950000Y-17450000D03*
X17450000Y-6950000D03*
X80450000Y-13950000D03*
X62950000Y-3450000D03*
X38450000Y-41950000D03*
X17450000Y-17450000D03*
X45450000Y-6950000D03*
X13950000Y-52450000D03*
X24450000Y-17450000D03*
X50475000Y-14000000D03*
X83950000Y-55950000D03*
X6950000Y-24450000D03*
X24450000Y-3450000D03*
X10450000Y-48950000D03*
X52450000Y-6950000D03*
X62950000Y-6950000D03*
X31450000Y-17450000D03*
X10450000Y-10450000D03*
X80450000Y-27950000D03*
X76950000Y-27950000D03*
X10450000Y-6950000D03*
X53010000Y-48130000D03*
X20950000Y-6950000D03*
X13950000Y-17450000D03*
X76950000Y-3450000D03*
X87450000Y-6950000D03*
X87450000Y-48950000D03*
X20950000Y-20950000D03*
X48950000Y-10450000D03*
X55000000Y-41925000D03*
X71202098Y-11755371D03*
X55950000Y-6950000D03*
X17450000Y-13950000D03*
X3450000Y-24450000D03*
X31450000Y-3450000D03*
X17645604Y-24648175D03*
X17450000Y-48950000D03*
X13950000Y-45450000D03*
X70750000Y-46000000D03*
%TO.N,I2C2_SCL*%
X76900000Y-53900000D03*
X43200000Y-24800000D03*
X45320000Y-54600000D03*
%TO.N,I2C2_SDA*%
X43900000Y-23500000D03*
X46994300Y-54924800D03*
X47860000Y-52900000D03*
%TO.N,MODE_3V3*%
X54490000Y-49900000D03*
X54415000Y-38700000D03*
%TO.N,MODE_3V8*%
X54415000Y-10700000D03*
X54990000Y-21900000D03*
%TO.N,PG_3V8*%
X59856800Y-21133200D03*
X43356900Y-49474000D03*
X56600000Y-11800000D03*
%TO.N,PWR_GOOD*%
X59295600Y-47199800D03*
X56600000Y-39800000D03*
%TO.N,RT_3V3*%
X53600000Y-39500000D03*
X51017900Y-46229300D03*
%TO.N,RT_3V8*%
X49350000Y-15150000D03*
X53939400Y-18801100D03*
X49372500Y-18294600D03*
%TO.N,SHUNT_LOAD_SENSE*%
X33361600Y-52933200D03*
X44450100Y-22500000D03*
X36810900Y-29730000D03*
%TO.N,SHUNT_SOURCE_SENSE*%
X28503700Y-55036300D03*
X41841000Y-20867500D03*
X35180300Y-31679800D03*
%TO.N,VBAT_FUSED*%
X19650000Y-30750000D03*
X20350000Y-29250000D03*
%TO.N,VBAT_PROTECTED*%
X26900000Y-33299999D03*
X22900000Y-31400000D03*
X31350000Y-27000000D03*
X23646000Y-55799900D03*
X27900000Y-33299999D03*
X24900000Y-33299999D03*
X33000000Y-28300000D03*
X22900000Y-32400000D03*
X33900000Y-28300000D03*
X31350000Y-31000000D03*
X25900000Y-33299999D03*
X31350000Y-30000000D03*
X23900000Y-33299999D03*
X31350000Y-29000000D03*
X31350000Y-28000000D03*
%TO.N,VBAT_SYS*%
X47300000Y-23000000D03*
X44000000Y-28500000D03*
%TD*%
D14*
%TO.N,1V8_MIC*%
X77030200Y-56958500D02*
X80894600Y-56958500D01*
X72282200Y-44315100D02*
X74884100Y-44315100D01*
X74925600Y-54853900D02*
X77030200Y-56958500D01*
X79580000Y-48755200D02*
X79580000Y-50500000D01*
X44219200Y-51073100D02*
X44219200Y-45389600D01*
X78324800Y-47500000D02*
X79580000Y-48755200D01*
X74884100Y-44315100D02*
X74884100Y-44551700D01*
X66281500Y-38314400D02*
X72282200Y-44315100D01*
X77832400Y-47500000D02*
X78324800Y-47500000D01*
X79580000Y-50500000D02*
X81080000Y-52000000D01*
X44219200Y-45389600D02*
X53047700Y-36561100D01*
X82286600Y-55566500D02*
X82286600Y-53206600D01*
X43352900Y-51939400D02*
X44219200Y-51073100D01*
X82286600Y-53206600D02*
X81080000Y-52000000D01*
X53047700Y-36561100D02*
X60495800Y-36561100D01*
X80894600Y-56958500D02*
X82286600Y-55566500D01*
X74884100Y-44551700D02*
X77832400Y-47500000D01*
D15*
%TO.N,3V3_DIGITAL*%
X76500000Y-38000000D02*
X82950000Y-38000000D01*
D16*
X47700000Y-24000000D02*
X61510000Y-24000000D01*
D15*
X82950000Y-44500000D02*
X81080000Y-46000000D01*
X72000000Y-40100000D02*
X76500000Y-38000000D01*
D16*
X61510000Y-24000000D02*
X64500000Y-27000000D01*
X64500000Y-27000000D02*
X64500000Y-35000000D01*
D15*
X82950000Y-38000000D02*
X82950000Y-44500000D01*
D16*
X61510000Y-24000000D02*
X61510000Y-21400000D01*
D17*
X55585000Y-39200000D02*
X57490000Y-47900000D01*
D18*
%TO.N,3V8_MODEM*%
X66696400Y-37312700D02*
X65866700Y-37312700D01*
X47149600Y-43845900D02*
X47149600Y-51898300D01*
D19*
X79606500Y-41473500D02*
X70857200Y-41473500D01*
D18*
X53326500Y-37669000D02*
X47149600Y-43845900D01*
D19*
X81080000Y-40000000D02*
X79606500Y-41473500D01*
D18*
X65510400Y-37669000D02*
X53326500Y-37669000D01*
X65866700Y-37312700D02*
X65510400Y-37669000D01*
X70857200Y-41473500D02*
X66696400Y-37312700D01*
D16*
%TO.N,EN_AUX*%
X78080000Y-49000000D02*
X77902600Y-49177400D01*
X76353300Y-49177400D02*
X74172200Y-46996300D01*
X74172200Y-46996300D02*
X74172200Y-46546500D01*
X77902600Y-49177400D02*
X76353300Y-49177400D01*
%TO.N,EN_MODEM*%
X52935800Y-12200000D02*
X53175000Y-12200000D01*
X52935800Y-11248000D02*
X54139900Y-10043900D01*
X87491500Y-43041100D02*
X83424200Y-47108400D01*
X46683600Y-16877500D02*
X51361100Y-12200000D01*
X51361100Y-12200000D02*
X52935800Y-12200000D01*
X83424200Y-47108400D02*
X79188400Y-47108400D01*
X52935800Y-12200000D02*
X52935800Y-11248000D01*
X54139900Y-10043900D02*
X56367200Y-10043900D01*
X56367200Y-10043900D02*
X87491500Y-41168200D01*
X46683600Y-18564700D02*
X46683600Y-16877500D01*
X79188400Y-47108400D02*
X78080000Y-46000000D01*
X87491500Y-41168200D02*
X87491500Y-43041100D01*
%TO.N,FAULT*%
X41822800Y-23577200D02*
X41822800Y-53675300D01*
X41822800Y-53675300D02*
X42780000Y-54632500D01*
X68772400Y-49237600D02*
X69647900Y-48362100D01*
X56287400Y-50346600D02*
X57396400Y-49237600D01*
X43200000Y-22200000D02*
X41822800Y-23577200D01*
X57396400Y-49237600D02*
X68772400Y-49237600D01*
D17*
%TO.N,FB_3V8*%
X55585000Y-11200000D02*
X56510000Y-19900000D01*
D14*
%TO.N,GND_MIC*%
X77585300Y-56220900D02*
X74547400Y-53183000D01*
X74547400Y-53183000D02*
X74547400Y-52552600D01*
X79859100Y-56220900D02*
X77585300Y-56220900D01*
X81080000Y-55000000D02*
X79859100Y-56220900D01*
X73850000Y-52950000D02*
X74550000Y-53180000D01*
D16*
%TO.N,I2C2_SCL*%
X42726200Y-25273800D02*
X42726200Y-52198900D01*
X73500000Y-50500000D02*
X76900000Y-53900000D01*
X62000000Y-50500000D02*
X73500000Y-50500000D01*
X43200000Y-24800000D02*
X42726200Y-25273800D01*
X45320000Y-54600000D02*
X62000000Y-50500000D01*
X42726200Y-52198900D02*
X45127300Y-54600000D01*
X45127300Y-54600000D02*
X45320000Y-54600000D01*
%TO.N,I2C2_SDA*%
X43900000Y-23500000D02*
X43613100Y-23500000D01*
X78080000Y-53680000D02*
X78080000Y-55000000D01*
X61800000Y-49800000D02*
X74200000Y-49800000D01*
X47860000Y-52900000D02*
X61800000Y-49800000D01*
X74200000Y-49800000D02*
X78080000Y-53680000D01*
X42274500Y-52467700D02*
X45097000Y-55290200D01*
X42274500Y-24838600D02*
X42274500Y-52467700D01*
X43613100Y-23500000D02*
X42274500Y-24838600D01*
X45097000Y-55290200D02*
X46628900Y-55290200D01*
X46628900Y-55290200D02*
X46994300Y-54924800D01*
D17*
%TO.N,MODE_3V3*%
X54415000Y-38700000D02*
X54200000Y-40500000D01*
X54200000Y-40500000D02*
X54200000Y-44000000D01*
X54200000Y-44000000D02*
X54490000Y-49900000D01*
%TO.N,MODE_3V8*%
X54200000Y-16000000D02*
X54990000Y-21900000D01*
X54415000Y-10700000D02*
X54200000Y-12500000D01*
X54200000Y-12500000D02*
X54200000Y-16000000D01*
D16*
%TO.N,PG_3V8*%
X53155900Y-22348100D02*
X47030900Y-22348100D01*
X59856800Y-15056800D02*
X59856800Y-21133200D01*
X47030900Y-22348100D02*
X43356900Y-26022100D01*
X56600000Y-11800000D02*
X59856800Y-15056800D01*
X58434500Y-22555500D02*
X53363300Y-22555500D01*
X59856800Y-21133200D02*
X58434500Y-22555500D01*
X43356900Y-26022100D02*
X43356900Y-49474000D01*
X53363300Y-22555500D02*
X53155900Y-22348100D01*
%TO.N,PWR_GOOD*%
X56600000Y-39800000D02*
X59295600Y-42495600D01*
X59295600Y-42495600D02*
X59295600Y-47199800D01*
D14*
%TO.N,RT_3V3*%
X53600000Y-43647200D02*
X51017900Y-46229300D01*
X53600000Y-39500000D02*
X53600000Y-43647200D01*
D16*
%TO.N,RT_3V8*%
X51450000Y-17350000D02*
X51450000Y-17450000D01*
X51650000Y-17850000D02*
X51750000Y-17950000D01*
X51550000Y-17550000D02*
X51550000Y-17650000D01*
X51550000Y-17650000D02*
X51650000Y-17750000D01*
X51450000Y-17450000D02*
X51550000Y-17550000D01*
D14*
X49372500Y-18294600D02*
X53432900Y-18294600D01*
D16*
X51750000Y-17950000D02*
X51750000Y-18150000D01*
X51650000Y-17750000D02*
X51650000Y-17850000D01*
D14*
X53432900Y-18294600D02*
X53939400Y-18801100D01*
D16*
X51350000Y-17250000D02*
X51450000Y-17350000D01*
X49350000Y-15150000D02*
X51350000Y-17150000D01*
X51750000Y-18150000D02*
X51850000Y-18250000D01*
X51350000Y-17150000D02*
X51350000Y-17250000D01*
%TO.N,SHUNT_LOAD_SENSE*%
X36810900Y-29730000D02*
X36810900Y-27649100D01*
X36810900Y-49483900D02*
X33361600Y-52933200D01*
X43523400Y-21573300D02*
X44450100Y-22500000D01*
X42886700Y-21573300D02*
X43523400Y-21573300D01*
X36810900Y-29730000D02*
X36810900Y-49483900D01*
X36810900Y-27649100D02*
X42886700Y-21573300D01*
%TO.N,SHUNT_SOURCE_SENSE*%
X36043000Y-30817100D02*
X36043000Y-26665500D01*
X35180300Y-31679800D02*
X34590100Y-32270000D01*
X34590100Y-48949900D02*
X34590100Y-32270000D01*
X35180300Y-31679800D02*
X36043000Y-30817100D01*
X28503700Y-55036300D02*
X34590100Y-48949900D01*
X36043000Y-26665500D02*
X41841000Y-20867500D01*
%TO.N,VBAT_FUSED*%
X19350000Y-29750000D02*
X19350000Y-30450000D01*
X20350000Y-29250000D02*
X20250000Y-29350000D01*
X20250000Y-29350000D02*
X19750000Y-29350000D01*
X19350000Y-30450000D02*
X19650000Y-30750000D01*
X19750000Y-29350000D02*
X19350000Y-29750000D01*
D18*
%TO.N,VBAT_PROTECTED*%
X31350000Y-28000000D02*
X31350000Y-29000000D01*
D20*
X31350000Y-27000000D02*
X33900000Y-28300000D01*
D18*
X23646000Y-33554000D02*
X23900000Y-33300000D01*
D20*
X22900000Y-33299999D02*
X31350000Y-33299999D01*
X31350000Y-33299999D02*
X31350000Y-27000000D01*
D18*
X23646000Y-55799900D02*
X23646000Y-33554000D01*
D20*
X22900000Y-31400000D02*
X22900000Y-33299999D01*
D16*
%TO.N,VBAT_SYS*%
X47300000Y-23000000D02*
X44000000Y-28500000D01*
%TD*%
%TA.AperFunction,Conductor*%
%TO.N,3V3_DIGITAL*%
G36*
X61671841Y-19910919D02*
G01*
X62069185Y-20010487D01*
X62097473Y-20021399D01*
X62192967Y-20072422D01*
X62329896Y-20145585D01*
X62354739Y-20163080D01*
X62658175Y-20438135D01*
X62677992Y-20461107D01*
X62826106Y-20682734D01*
X62837577Y-20704196D01*
X62939553Y-20950478D01*
X62947642Y-20979716D01*
X62958686Y-21054145D01*
X63008657Y-21390948D01*
X63010000Y-21409147D01*
X63010000Y-23380100D01*
X65648881Y-26037706D01*
X65667249Y-26061331D01*
X65876348Y-26410229D01*
X65890268Y-26443832D01*
X65989081Y-26838158D01*
X65992800Y-26868299D01*
X65992800Y-35131700D01*
X65989081Y-35161841D01*
X65925051Y-35417360D01*
X65889661Y-35477604D01*
X65827319Y-35509151D01*
X65816927Y-35510621D01*
X65559388Y-35535971D01*
X65559386Y-35535971D01*
X65559379Y-35535972D01*
X65559377Y-35535972D01*
X65522401Y-35541920D01*
X65522382Y-35541923D01*
X65492776Y-35548571D01*
X65492764Y-35548574D01*
X65456789Y-35559006D01*
X65456764Y-35559014D01*
X65071749Y-35696765D01*
X65071748Y-35696766D01*
X65071739Y-35696769D01*
X65071733Y-35696772D01*
X65035799Y-35712292D01*
X65035795Y-35712293D01*
X65035795Y-35712294D01*
X65007567Y-35726696D01*
X64973896Y-35746694D01*
X64834846Y-35841837D01*
X64768403Y-35863448D01*
X64764824Y-35863500D01*
X63345563Y-35863500D01*
X63278524Y-35843815D01*
X63233464Y-35792508D01*
X63072459Y-35452020D01*
X63061901Y-35417210D01*
X63001343Y-35009050D01*
X63000000Y-34990852D01*
X63000000Y-27619899D01*
X60887200Y-25500000D01*
X60887199Y-25499999D01*
X48711556Y-25493425D01*
X48644527Y-25473704D01*
X48598801Y-25420876D01*
X48588895Y-25351712D01*
X48605292Y-25305629D01*
X48926386Y-24770475D01*
X48952268Y-24715643D01*
X48968677Y-24669493D01*
X48978508Y-24635839D01*
X48983221Y-24523667D01*
X48973277Y-24454509D01*
X48958447Y-24394842D01*
X48901768Y-24297929D01*
X48856013Y-24245125D01*
X48856011Y-24245123D01*
X48856001Y-24245112D01*
X48811285Y-24202951D01*
X48811282Y-24202949D01*
X48811280Y-24202947D01*
X48711204Y-24152061D01*
X48711203Y-24152060D01*
X48711202Y-24152060D01*
X48644172Y-24132377D01*
X48643745Y-24132315D01*
X48604948Y-24126737D01*
X48541395Y-24097712D01*
X48503621Y-24038933D01*
X48503622Y-23969064D01*
X48541397Y-23910286D01*
X48604953Y-23881262D01*
X48622599Y-23880000D01*
X49101025Y-23880000D01*
X49136336Y-23877952D01*
X49164807Y-23874639D01*
X49174445Y-23873362D01*
X49280568Y-23836720D01*
X49341297Y-23802169D01*
X49391409Y-23766539D01*
X49460874Y-23678338D01*
X49493282Y-23616439D01*
X49522240Y-23534450D01*
X49593513Y-23176840D01*
X49599031Y-23132266D01*
X49600833Y-23095946D01*
X49599754Y-23051039D01*
X49585914Y-22909681D01*
X49598973Y-22841044D01*
X49647067Y-22790362D01*
X49709324Y-22773600D01*
X52928290Y-22773600D01*
X52995329Y-22793285D01*
X53015971Y-22809919D01*
X53102037Y-22895985D01*
X53199063Y-22952003D01*
X53307282Y-22981000D01*
X53307284Y-22981000D01*
X58490516Y-22981000D01*
X58490518Y-22981000D01*
X58598737Y-22952003D01*
X58695763Y-22895985D01*
X59055429Y-22536319D01*
X59116752Y-22502834D01*
X59143110Y-22500000D01*
X60010000Y-22500000D01*
X60010000Y-21808181D01*
X60029685Y-21741142D01*
X60082489Y-21695387D01*
X60086554Y-21693617D01*
X60088572Y-21692780D01*
X60088584Y-21692777D01*
X60225516Y-21613720D01*
X60337320Y-21501916D01*
X60416377Y-21364984D01*
X60457300Y-21212257D01*
X60457300Y-21054143D01*
X60416377Y-20901416D01*
X60377535Y-20834139D01*
X60337324Y-20764490D01*
X60337318Y-20764482D01*
X60318619Y-20745783D01*
X60303915Y-20718855D01*
X60287323Y-20693037D01*
X60286431Y-20686836D01*
X60285134Y-20684460D01*
X60282300Y-20658102D01*
X60282300Y-20588069D01*
X60301985Y-20521030D01*
X60303160Y-20519235D01*
X60343721Y-20458542D01*
X60359128Y-20439771D01*
X60549771Y-20249128D01*
X60568542Y-20233721D01*
X60792741Y-20083889D01*
X60814189Y-20072425D01*
X61063333Y-19969265D01*
X61086554Y-19962220D01*
X61351017Y-19909585D01*
X61375222Y-19907200D01*
X61641700Y-19907200D01*
X61671841Y-19910919D01*
G37*
%TD.AperFunction*%
%TA.AperFunction,Conductor*%
G36*
X47754607Y-23709225D02*
G01*
X47798099Y-23720878D01*
X47827998Y-23733262D01*
X47872997Y-23759241D01*
X47893852Y-23774374D01*
X47895703Y-23776036D01*
X47895750Y-23776077D01*
X47916357Y-23792682D01*
X47916370Y-23792692D01*
X47921911Y-23797053D01*
X48021987Y-23847939D01*
X48089026Y-23867624D01*
X48145990Y-23875814D01*
X48209542Y-23904838D01*
X48247317Y-23963616D01*
X48247317Y-24033485D01*
X48209543Y-24092264D01*
X48145987Y-24121289D01*
X48141602Y-24121840D01*
X48116067Y-24124586D01*
X48109075Y-24125420D01*
X48109073Y-24125420D01*
X48002334Y-24160200D01*
X48002324Y-24160204D01*
X47941011Y-24193684D01*
X47941006Y-24193688D01*
X47901343Y-24223379D01*
X47889036Y-24231496D01*
X47827998Y-24266735D01*
X47798097Y-24279121D01*
X47786335Y-24282272D01*
X47754608Y-24290774D01*
X47722515Y-24295000D01*
X47677492Y-24295000D01*
X47645399Y-24290775D01*
X47601892Y-24279117D01*
X47571996Y-24266733D01*
X47532998Y-24244218D01*
X47507326Y-24224519D01*
X47475481Y-24192674D01*
X47455777Y-24166996D01*
X47451853Y-24160200D01*
X47433264Y-24128001D01*
X47420878Y-24098096D01*
X47419315Y-24092264D01*
X47409225Y-24054604D01*
X47405000Y-24022512D01*
X47405000Y-23977485D01*
X47409225Y-23945393D01*
X47409792Y-23943275D01*
X47420879Y-23901897D01*
X47433263Y-23871998D01*
X47455780Y-23832996D01*
X47475480Y-23807323D01*
X47507323Y-23775480D01*
X47532996Y-23755780D01*
X47571998Y-23733263D01*
X47601900Y-23720878D01*
X47614202Y-23717582D01*
X47645395Y-23709225D01*
X47677486Y-23705000D01*
X47722514Y-23705000D01*
X47754607Y-23709225D01*
G37*
%TD.AperFunction*%
%TD*%
%TA.AperFunction,Conductor*%
%TO.N,3V3_DIGITAL*%
G36*
X55639606Y-38909225D02*
G01*
X55664575Y-38915915D01*
X55683095Y-38920877D01*
X55713001Y-38933264D01*
X55751997Y-38955778D01*
X55777679Y-38975485D01*
X55809513Y-39007319D01*
X55829219Y-39033000D01*
X55851732Y-39071994D01*
X55864120Y-39101900D01*
X55878662Y-39156174D01*
X55884877Y-39176020D01*
X55886264Y-39180448D01*
X55891365Y-39194636D01*
X55893247Y-39199871D01*
X55949850Y-39296572D01*
X55949852Y-39296575D01*
X55986639Y-39339028D01*
X55995605Y-39349375D01*
X56035077Y-39386593D01*
X56070350Y-39446905D01*
X56067416Y-39516713D01*
X56057399Y-39538811D01*
X56040425Y-39568211D01*
X56040423Y-39568216D01*
X55999500Y-39720943D01*
X55999500Y-39879057D01*
X56026829Y-39981048D01*
X56040423Y-40031783D01*
X56040426Y-40031790D01*
X56119475Y-40168709D01*
X56119479Y-40168714D01*
X56119480Y-40168716D01*
X56231284Y-40280520D01*
X56231286Y-40280521D01*
X56231290Y-40280524D01*
X56357905Y-40353624D01*
X56368216Y-40359577D01*
X56520943Y-40400500D01*
X56547390Y-40400500D01*
X56614429Y-40420185D01*
X56635071Y-40436819D01*
X57568262Y-41370010D01*
X57601711Y-41431168D01*
X58782354Y-46823046D01*
X58777465Y-46892744D01*
X58768612Y-46911567D01*
X58736025Y-46968011D01*
X58736023Y-46968016D01*
X58695100Y-47120743D01*
X58695100Y-47278856D01*
X58736023Y-47431583D01*
X58736026Y-47431590D01*
X58815075Y-47568509D01*
X58815081Y-47568517D01*
X58926887Y-47680323D01*
X58932283Y-47684464D01*
X58933813Y-47686560D01*
X58936194Y-47687593D01*
X58954294Y-47714612D01*
X58973483Y-47740894D01*
X58974082Y-47744150D01*
X58975081Y-47745641D01*
X58980769Y-47780473D01*
X58985067Y-48006109D01*
X58983150Y-48030311D01*
X58936195Y-48292736D01*
X58927226Y-48321751D01*
X58760542Y-48692427D01*
X58740913Y-48723061D01*
X58700343Y-48769591D01*
X58641451Y-48807184D01*
X58606882Y-48812100D01*
X57340382Y-48812100D01*
X57232163Y-48841097D01*
X57232160Y-48841098D01*
X57135135Y-48897116D01*
X56871462Y-49160789D01*
X56844611Y-49175450D01*
X56818894Y-49192033D01*
X56814230Y-49192039D01*
X56810139Y-49194274D01*
X56779620Y-49192091D01*
X56749024Y-49192137D01*
X56743197Y-49189486D01*
X56740447Y-49189290D01*
X56716898Y-49177524D01*
X56573777Y-49085848D01*
X56550412Y-49066469D01*
X56269510Y-48768354D01*
X56251522Y-48743823D01*
X56121444Y-48511133D01*
X56111739Y-48488915D01*
X56026598Y-48226647D01*
X56023388Y-48214786D01*
X55977869Y-48006109D01*
X54946064Y-43275924D01*
X54951009Y-43206232D01*
X54992848Y-43150275D01*
X55058299Y-43125821D01*
X55067215Y-43125500D01*
X55079055Y-43125500D01*
X55079057Y-43125500D01*
X55231784Y-43084577D01*
X55368716Y-43005520D01*
X55480520Y-42893716D01*
X55559577Y-42756784D01*
X55600500Y-42604057D01*
X55600500Y-42445943D01*
X55559577Y-42293216D01*
X55559576Y-42293215D01*
X55559576Y-42293213D01*
X55555991Y-42287005D01*
X55539515Y-42219105D01*
X55555991Y-42162995D01*
X55559576Y-42156786D01*
X55560960Y-42151621D01*
X55600500Y-42004057D01*
X55600500Y-41845943D01*
X55559577Y-41693216D01*
X55526854Y-41636538D01*
X55480524Y-41556290D01*
X55480518Y-41556282D01*
X55368717Y-41444481D01*
X55368709Y-41444475D01*
X55231790Y-41365426D01*
X55231786Y-41365424D01*
X55231784Y-41365423D01*
X55079057Y-41324500D01*
X54920943Y-41324500D01*
X54768216Y-41365423D01*
X54768214Y-41365423D01*
X54760365Y-41367527D01*
X54759739Y-41365190D01*
X54702472Y-41371342D01*
X54639996Y-41340061D01*
X54604349Y-41279969D01*
X54600500Y-41249314D01*
X54600500Y-40531217D01*
X54601375Y-40516510D01*
X54615889Y-40395000D01*
X54752772Y-39248993D01*
X54762053Y-39227313D01*
X54767065Y-39204275D01*
X54778396Y-39189136D01*
X54780269Y-39184763D01*
X54788205Y-39176030D01*
X54895520Y-39068716D01*
X54895522Y-39068711D01*
X54900947Y-39063287D01*
X54962270Y-39029802D01*
X55013943Y-39031894D01*
X55014383Y-39029752D01*
X55019997Y-39030903D01*
X55019999Y-39030904D01*
X55088444Y-39044941D01*
X55133970Y-39049576D01*
X55149615Y-39051170D01*
X55149615Y-39051169D01*
X55149617Y-39051170D01*
X55259990Y-39030613D01*
X55319014Y-39007792D01*
X55319013Y-39007791D01*
X55322772Y-39006338D01*
X55322782Y-39006334D01*
X55323771Y-39005951D01*
X55323772Y-39005953D01*
X55325069Y-39005452D01*
X55325080Y-39005445D01*
X55329208Y-39003850D01*
X55329210Y-39003849D01*
X55338019Y-39000443D01*
X55341081Y-39000186D01*
X55351003Y-38994459D01*
X55351003Y-38994458D01*
X55351005Y-38994458D01*
X55357059Y-38990963D01*
X55357072Y-38990956D01*
X55363405Y-38987299D01*
X55366465Y-38985532D01*
X55366464Y-38985531D01*
X55369037Y-38984046D01*
X55369038Y-38984047D01*
X55456998Y-38933263D01*
X55486890Y-38920881D01*
X55530398Y-38909223D01*
X55562486Y-38905000D01*
X55607514Y-38905000D01*
X55639606Y-38909225D01*
G37*
%TD.AperFunction*%
%TD*%
%TA.AperFunction,Conductor*%
%TO.N,GND_MODEM*%
G36*
X80711444Y-41760074D02*
G01*
X80973442Y-41812220D01*
X80996669Y-41819266D01*
X81245806Y-41922423D01*
X81267262Y-41933891D01*
X81360929Y-41996489D01*
X81491452Y-42083718D01*
X81510233Y-42099133D01*
X81700866Y-42289766D01*
X81716281Y-42308547D01*
X81866106Y-42532734D01*
X81877577Y-42554196D01*
X81980732Y-42803327D01*
X81987780Y-42826560D01*
X82040415Y-43091016D01*
X82042800Y-43115221D01*
X82042800Y-43384778D01*
X82040415Y-43408983D01*
X81987780Y-43673439D01*
X81980732Y-43696672D01*
X81878751Y-43942967D01*
X81863788Y-43969387D01*
X81621662Y-44295916D01*
X81595916Y-44321662D01*
X81265807Y-44566443D01*
X81247403Y-44577748D01*
X80262890Y-45070004D01*
X80251035Y-45075177D01*
X79811412Y-45240294D01*
X79811407Y-45240296D01*
X79236264Y-45529630D01*
X79210677Y-45539138D01*
X79145331Y-45555512D01*
X79075518Y-45552713D01*
X79018301Y-45512613D01*
X79012089Y-45504121D01*
X79010941Y-45502404D01*
X79010941Y-45502402D01*
X78895977Y-45330345D01*
X78895975Y-45330342D01*
X78749657Y-45184024D01*
X78579012Y-45070004D01*
X78577598Y-45069059D01*
X78510507Y-45041269D01*
X78386420Y-44989870D01*
X78386412Y-44989868D01*
X78183469Y-44949500D01*
X78183465Y-44949500D01*
X77976535Y-44949500D01*
X77976530Y-44949500D01*
X77773587Y-44989868D01*
X77773579Y-44989870D01*
X77582403Y-45069058D01*
X77410342Y-45184024D01*
X77264025Y-45330341D01*
X77264020Y-45330347D01*
X77224971Y-45388788D01*
X77171359Y-45433592D01*
X77102034Y-45442299D01*
X77064717Y-45429939D01*
X76742849Y-45262770D01*
X76628091Y-45203168D01*
X76606595Y-45188991D01*
X76394011Y-45014565D01*
X76384984Y-45006384D01*
X75951545Y-44572900D01*
X75430162Y-44051462D01*
X75410464Y-44025790D01*
X75364620Y-43946384D01*
X75252816Y-43834580D01*
X75252814Y-43834579D01*
X75252809Y-43834575D01*
X75115890Y-43755526D01*
X75115886Y-43755524D01*
X75115884Y-43755523D01*
X74963157Y-43714600D01*
X74805043Y-43714600D01*
X74652316Y-43755523D01*
X74652314Y-43755523D01*
X74644465Y-43757627D01*
X74644279Y-43756934D01*
X74605737Y-43764600D01*
X73518468Y-43764600D01*
X73500319Y-43759270D01*
X73481405Y-43758932D01*
X73453202Y-43745435D01*
X73451429Y-43744915D01*
X73449615Y-43743727D01*
X73411105Y-43717991D01*
X73388137Y-43698177D01*
X73113080Y-43394739D01*
X73095585Y-43369896D01*
X73050381Y-43285294D01*
X72969945Y-43134752D01*
X72960660Y-43112336D01*
X72882349Y-42854294D01*
X72877603Y-42830441D01*
X72851195Y-42562140D01*
X72851195Y-42537859D01*
X72877603Y-42269556D01*
X72882348Y-42245709D01*
X72953278Y-42011989D01*
X72991583Y-41953556D01*
X73055399Y-41925107D01*
X73071934Y-41924000D01*
X77390724Y-41924000D01*
X77457763Y-41943685D01*
X77503518Y-41996489D01*
X77513462Y-42065647D01*
X77484437Y-42129203D01*
X77459614Y-42151103D01*
X77410342Y-42184024D01*
X77264024Y-42330342D01*
X77149058Y-42502403D01*
X77069870Y-42693579D01*
X77069868Y-42693587D01*
X77029500Y-42896530D01*
X77029500Y-43103469D01*
X77069868Y-43306412D01*
X77069870Y-43306420D01*
X77149058Y-43497596D01*
X77264024Y-43669657D01*
X77410342Y-43815975D01*
X77410345Y-43815977D01*
X77582402Y-43930941D01*
X77773580Y-44010130D01*
X77976530Y-44050499D01*
X77976534Y-44050500D01*
X77976535Y-44050500D01*
X78183466Y-44050500D01*
X78183467Y-44050499D01*
X78386420Y-44010130D01*
X78577598Y-43930941D01*
X78749655Y-43815977D01*
X78895977Y-43669655D01*
X79010941Y-43497598D01*
X79090130Y-43306420D01*
X79130500Y-43103465D01*
X79130500Y-42896535D01*
X79090130Y-42693580D01*
X79010941Y-42502402D01*
X78982773Y-42460245D01*
X78961896Y-42393567D01*
X78980381Y-42326187D01*
X79032361Y-42279497D01*
X79046559Y-42273753D01*
X79088600Y-42259700D01*
X79866516Y-41868963D01*
X79886151Y-41861119D01*
X80142210Y-41783409D01*
X80173257Y-41778165D01*
X80682282Y-41757789D01*
X80711444Y-41760074D01*
G37*
%TD.AperFunction*%
%TD*%
%TA.AperFunction,Conductor*%
%TO.N,GND_PWR*%
G36*
X66373256Y-39226864D02*
G01*
X66406931Y-39230900D01*
X66407996Y-39231621D01*
X66408841Y-39231737D01*
X66411406Y-39233929D01*
X66445769Y-39257194D01*
X71944185Y-44755610D01*
X72041578Y-44811839D01*
X72041577Y-44811839D01*
X72041580Y-44811840D01*
X72055646Y-44819961D01*
X72069711Y-44828082D01*
X72069712Y-44828082D01*
X72069715Y-44828084D01*
X72209725Y-44865600D01*
X74368113Y-44865600D01*
X74435152Y-44885285D01*
X74455794Y-44901919D01*
X77499858Y-47945983D01*
X77533343Y-48007306D01*
X77528359Y-48076998D01*
X77486487Y-48132931D01*
X77481069Y-48136766D01*
X77410341Y-48184025D01*
X77264024Y-48330342D01*
X77149057Y-48502403D01*
X77077420Y-48675353D01*
X77033579Y-48729756D01*
X76967285Y-48751821D01*
X76962859Y-48751900D01*
X76580910Y-48751900D01*
X76513871Y-48732215D01*
X76493229Y-48715581D01*
X74734693Y-46957045D01*
X74701208Y-46895722D01*
X74706192Y-46826030D01*
X74714982Y-46807373D01*
X74731777Y-46778284D01*
X74772700Y-46625557D01*
X74772700Y-46467443D01*
X74731777Y-46314716D01*
X74717790Y-46290489D01*
X74652724Y-46177790D01*
X74652718Y-46177782D01*
X74540917Y-46065981D01*
X74540909Y-46065975D01*
X74403990Y-45986926D01*
X74403986Y-45986924D01*
X74403984Y-45986923D01*
X74251257Y-45946000D01*
X74093143Y-45946000D01*
X73940416Y-45986923D01*
X73940409Y-45986926D01*
X73803490Y-46065975D01*
X73803482Y-46065981D01*
X73691681Y-46177782D01*
X73691675Y-46177790D01*
X73612626Y-46314709D01*
X73612623Y-46314716D01*
X73571700Y-46467443D01*
X73571700Y-46625557D01*
X73605329Y-46751060D01*
X73612623Y-46778283D01*
X73612626Y-46778290D01*
X73691675Y-46915209D01*
X73691681Y-46915217D01*
X73710381Y-46933917D01*
X73743866Y-46995240D01*
X73746700Y-47021598D01*
X73746700Y-47052318D01*
X73775697Y-47160537D01*
X73831715Y-47257563D01*
X76092037Y-49517885D01*
X76189063Y-49573903D01*
X76297281Y-49602900D01*
X76297282Y-49602900D01*
X77153139Y-49602900D01*
X77220178Y-49622585D01*
X77256241Y-49658009D01*
X77264022Y-49669654D01*
X77264025Y-49669658D01*
X77410342Y-49815975D01*
X77410345Y-49815977D01*
X77582402Y-49930941D01*
X77773580Y-50010130D01*
X77927267Y-50040700D01*
X77976530Y-50050499D01*
X77976534Y-50050500D01*
X77976535Y-50050500D01*
X78183466Y-50050500D01*
X78183467Y-50050499D01*
X78386420Y-50010130D01*
X78577598Y-49930941D01*
X78749655Y-49815977D01*
X78778609Y-49787023D01*
X78817819Y-49747814D01*
X78879142Y-49714329D01*
X78948834Y-49719313D01*
X79004767Y-49761185D01*
X79029184Y-49826649D01*
X79029500Y-49835495D01*
X79029500Y-50572475D01*
X79031987Y-50581757D01*
X79045607Y-50632589D01*
X79045608Y-50632589D01*
X79045608Y-50632590D01*
X79067016Y-50712485D01*
X79113913Y-50793713D01*
X79139489Y-50838013D01*
X79139491Y-50838016D01*
X80010590Y-51709115D01*
X80044075Y-51770438D01*
X80044527Y-51820986D01*
X80030361Y-51892209D01*
X80029500Y-51896536D01*
X80029500Y-52103469D01*
X80069868Y-52306412D01*
X80069870Y-52306420D01*
X80116883Y-52419920D01*
X80149059Y-52497598D01*
X80204974Y-52581282D01*
X80264024Y-52669657D01*
X80410342Y-52815975D01*
X80410345Y-52815977D01*
X80582402Y-52930941D01*
X80773580Y-53010130D01*
X80967315Y-53048666D01*
X80976530Y-53050499D01*
X80976534Y-53050500D01*
X80976535Y-53050500D01*
X81183465Y-53050500D01*
X81259012Y-53035472D01*
X81328600Y-53041698D01*
X81370883Y-53069408D01*
X81699781Y-53398306D01*
X81733266Y-53459629D01*
X81736100Y-53485987D01*
X81736100Y-53949133D01*
X81716415Y-54016172D01*
X81663611Y-54061927D01*
X81594453Y-54071871D01*
X81564647Y-54063694D01*
X81386420Y-53989870D01*
X81386412Y-53989868D01*
X81183469Y-53949500D01*
X81183465Y-53949500D01*
X80976535Y-53949500D01*
X80976530Y-53949500D01*
X80773587Y-53989868D01*
X80773579Y-53989870D01*
X80582403Y-54069058D01*
X80410342Y-54184024D01*
X80264024Y-54330342D01*
X80149058Y-54502403D01*
X80069870Y-54693579D01*
X80069868Y-54693587D01*
X80029500Y-54896530D01*
X80029500Y-54896534D01*
X80029500Y-54896535D01*
X80029500Y-55103465D01*
X80040066Y-55156583D01*
X80044527Y-55179012D01*
X80038299Y-55248603D01*
X80010590Y-55290883D01*
X79667394Y-55634081D01*
X79606071Y-55667566D01*
X79579713Y-55670400D01*
X79124943Y-55670400D01*
X79057904Y-55650715D01*
X79012149Y-55597911D01*
X79002205Y-55528753D01*
X79010382Y-55498947D01*
X79016417Y-55484377D01*
X79090130Y-55306420D01*
X79130500Y-55103465D01*
X79130500Y-54896535D01*
X79090130Y-54693580D01*
X79010941Y-54502402D01*
X78895977Y-54330345D01*
X78895975Y-54330342D01*
X78749655Y-54184022D01*
X78577605Y-54069063D01*
X78572233Y-54066192D01*
X78573426Y-54063959D01*
X78527632Y-54027044D01*
X78505578Y-53960746D01*
X78505500Y-53956341D01*
X78505500Y-53623984D01*
X78505500Y-53623982D01*
X78476503Y-53515763D01*
X78420485Y-53418737D01*
X78341263Y-53339515D01*
X78238058Y-53236310D01*
X78204573Y-53174987D01*
X78209557Y-53105295D01*
X78251429Y-53049362D01*
X78301545Y-53027012D01*
X78386420Y-53010130D01*
X78577598Y-52930941D01*
X78749655Y-52815977D01*
X78895977Y-52669655D01*
X79010941Y-52497598D01*
X79090130Y-52306420D01*
X79130500Y-52103465D01*
X79130500Y-51896535D01*
X79090130Y-51693580D01*
X79010941Y-51502402D01*
X78895977Y-51330345D01*
X78895975Y-51330342D01*
X78749657Y-51184024D01*
X78645920Y-51114710D01*
X78577598Y-51069059D01*
X78562277Y-51062713D01*
X78386420Y-50989870D01*
X78386412Y-50989868D01*
X78183469Y-50949500D01*
X78183465Y-50949500D01*
X77976535Y-50949500D01*
X77976530Y-50949500D01*
X77773587Y-50989868D01*
X77773579Y-50989870D01*
X77582403Y-51069058D01*
X77410342Y-51184024D01*
X77264024Y-51330342D01*
X77149058Y-51502403D01*
X77069870Y-51693579D01*
X77069868Y-51693585D01*
X77052987Y-51778452D01*
X77020602Y-51840363D01*
X76959886Y-51874937D01*
X76890116Y-51871196D01*
X76843689Y-51841941D01*
X74461265Y-49459517D01*
X74461263Y-49459515D01*
X74364237Y-49403497D01*
X74256018Y-49374500D01*
X74256017Y-49374500D01*
X69536610Y-49374500D01*
X69515364Y-49368261D01*
X69493276Y-49366682D01*
X69482492Y-49358609D01*
X69469571Y-49354815D01*
X69455071Y-49338081D01*
X69437343Y-49324810D01*
X69432635Y-49312189D01*
X69423816Y-49302011D01*
X69420664Y-49280093D01*
X69412926Y-49259346D01*
X69415788Y-49246185D01*
X69413872Y-49232853D01*
X69423071Y-49212709D01*
X69427778Y-49191073D01*
X69441046Y-49173347D01*
X69442897Y-49169297D01*
X69448929Y-49162819D01*
X69612829Y-48998919D01*
X69674152Y-48965434D01*
X69700510Y-48962600D01*
X69726955Y-48962600D01*
X69726957Y-48962600D01*
X69879684Y-48921677D01*
X70016616Y-48842620D01*
X70128420Y-48730816D01*
X70207477Y-48593884D01*
X70248400Y-48441157D01*
X70248400Y-48283043D01*
X70207477Y-48130316D01*
X70180809Y-48084125D01*
X70128424Y-47993390D01*
X70128418Y-47993382D01*
X70016617Y-47881581D01*
X70016609Y-47881575D01*
X69879690Y-47802526D01*
X69879686Y-47802524D01*
X69879684Y-47802523D01*
X69726957Y-47761600D01*
X69568843Y-47761600D01*
X69416116Y-47802523D01*
X69416109Y-47802526D01*
X69279190Y-47881575D01*
X69279182Y-47881581D01*
X69167381Y-47993382D01*
X69167375Y-47993390D01*
X69088326Y-48130309D01*
X69088323Y-48130316D01*
X69047400Y-48283043D01*
X69047400Y-48309490D01*
X69027715Y-48376529D01*
X69011081Y-48397171D01*
X68632471Y-48775781D01*
X68571148Y-48809266D01*
X68544790Y-48812100D01*
X59233414Y-48812100D01*
X59166375Y-48792415D01*
X59120620Y-48739611D01*
X59110676Y-48670453D01*
X59120322Y-48637245D01*
X59122042Y-48633421D01*
X59205852Y-48447042D01*
X59219099Y-48411974D01*
X59228068Y-48382959D01*
X59236919Y-48346544D01*
X59283874Y-48084119D01*
X59287696Y-48054434D01*
X59289613Y-48030232D01*
X59289613Y-48030219D01*
X59289614Y-48030216D01*
X59290511Y-48000319D01*
X59290512Y-48000291D01*
X59288996Y-47920764D01*
X59307401Y-47853366D01*
X59359323Y-47806613D01*
X59380868Y-47798635D01*
X59527384Y-47759377D01*
X59664316Y-47680320D01*
X59776120Y-47568516D01*
X59855177Y-47431584D01*
X59896100Y-47278857D01*
X59896100Y-47120743D01*
X59855177Y-46968016D01*
X59824689Y-46915209D01*
X59776124Y-46831090D01*
X59776118Y-46831082D01*
X59757419Y-46812383D01*
X59723934Y-46751060D01*
X59721100Y-46724702D01*
X59721100Y-42439584D01*
X59721100Y-42439582D01*
X59692103Y-42331363D01*
X59636085Y-42234337D01*
X59556863Y-42155115D01*
X57236819Y-39835071D01*
X57203334Y-39773748D01*
X57202701Y-39770651D01*
X57200500Y-39759126D01*
X57200500Y-39720943D01*
X57175113Y-39626200D01*
X57174266Y-39621761D01*
X57177225Y-39591320D01*
X57177953Y-39560744D01*
X57180573Y-39556871D01*
X57181026Y-39552219D01*
X57199969Y-39528213D01*
X57217115Y-39502881D01*
X57221413Y-39501040D01*
X57224309Y-39497371D01*
X57253223Y-39487418D01*
X57281343Y-39475377D01*
X57289643Y-39474882D01*
X57290374Y-39474631D01*
X57291058Y-39474798D01*
X57296065Y-39474500D01*
X65501254Y-39474500D01*
X65505749Y-39474334D01*
X65523736Y-39473672D01*
X65541935Y-39472329D01*
X65564288Y-39469849D01*
X65974749Y-39408949D01*
X66013197Y-39400686D01*
X66043845Y-39392002D01*
X66080906Y-39378871D01*
X66127247Y-39359010D01*
X66165978Y-39339028D01*
X66196110Y-39320650D01*
X66211179Y-39310840D01*
X66222829Y-39299048D01*
X66229195Y-39293047D01*
X66232274Y-39290342D01*
X66241527Y-39283241D01*
X66275463Y-39252407D01*
X66276258Y-39251710D01*
X66307006Y-39237416D01*
X66337557Y-39222586D01*
X66338633Y-39222715D01*
X66339617Y-39222258D01*
X66373256Y-39226864D01*
G37*
%TD.AperFunction*%
%TA.AperFunction,Conductor*%
G36*
X52968833Y-40682520D02*
G01*
X53024767Y-40724391D01*
X53049184Y-40789855D01*
X53049500Y-40798702D01*
X53049500Y-43367812D01*
X53029815Y-43434851D01*
X53013181Y-43455493D01*
X50825467Y-45643206D01*
X50792794Y-45665040D01*
X50793153Y-45665661D01*
X50786118Y-45669722D01*
X50786116Y-45669723D01*
X50699928Y-45719482D01*
X50649185Y-45748779D01*
X50649182Y-45748781D01*
X50537381Y-45860582D01*
X50537375Y-45860590D01*
X50458326Y-45997509D01*
X50458323Y-45997516D01*
X50417400Y-46150243D01*
X50417400Y-46308357D01*
X50434845Y-46373460D01*
X50458323Y-46461083D01*
X50458326Y-46461090D01*
X50537375Y-46598009D01*
X50537379Y-46598014D01*
X50537380Y-46598016D01*
X50649184Y-46709820D01*
X50649186Y-46709821D01*
X50649190Y-46709824D01*
X50786109Y-46788873D01*
X50786116Y-46788877D01*
X50938843Y-46829800D01*
X50938845Y-46829800D01*
X51096955Y-46829800D01*
X51096957Y-46829800D01*
X51249684Y-46788877D01*
X51386616Y-46709820D01*
X51498420Y-46598016D01*
X51577477Y-46461084D01*
X51577477Y-46461080D01*
X51581540Y-46454045D01*
X51582162Y-46454404D01*
X51603992Y-46421731D01*
X53611840Y-44413883D01*
X53673161Y-44380400D01*
X53742853Y-44385384D01*
X53798786Y-44427256D01*
X53823203Y-44492720D01*
X53823369Y-44495478D01*
X54065316Y-49417846D01*
X54048947Y-49485771D01*
X54029149Y-49511614D01*
X54009478Y-49531285D01*
X53930426Y-49668209D01*
X53930423Y-49668216D01*
X53889500Y-49820943D01*
X53889500Y-49979057D01*
X53930337Y-50131461D01*
X53930423Y-50131783D01*
X53930426Y-50131790D01*
X54009475Y-50268709D01*
X54009479Y-50268714D01*
X54009480Y-50268716D01*
X54121284Y-50380520D01*
X54121286Y-50380521D01*
X54121290Y-50380524D01*
X54258209Y-50459573D01*
X54258216Y-50459577D01*
X54410943Y-50500500D01*
X54410945Y-50500500D01*
X54569055Y-50500500D01*
X54569057Y-50500500D01*
X54721784Y-50459577D01*
X54858716Y-50380520D01*
X54970520Y-50268716D01*
X55049577Y-50131784D01*
X55090500Y-49979057D01*
X55090500Y-49820943D01*
X55049577Y-49668216D01*
X55049573Y-49668209D01*
X54970524Y-49531290D01*
X54970521Y-49531286D01*
X54970520Y-49531284D01*
X54901632Y-49462396D01*
X54868147Y-49401073D01*
X54865464Y-49380813D01*
X54618946Y-44365442D01*
X54635315Y-44297519D01*
X54685809Y-44249226D01*
X54754396Y-44235900D01*
X54819300Y-44261770D01*
X54859915Y-44318622D01*
X54863947Y-44332929D01*
X55724908Y-48279900D01*
X55728496Y-48294591D01*
X55728497Y-48294594D01*
X55731707Y-48306455D01*
X55732610Y-48309490D01*
X55736028Y-48320984D01*
X55821173Y-48583262D01*
X55831775Y-48611186D01*
X55831780Y-48611198D01*
X55831782Y-48611203D01*
X55841487Y-48633421D01*
X55854782Y-48660202D01*
X55893664Y-48729756D01*
X55984861Y-48892894D01*
X56005162Y-48924480D01*
X56023153Y-48949014D01*
X56023155Y-48949016D01*
X56047158Y-48977854D01*
X56047166Y-48977862D01*
X56328058Y-49275967D01*
X56328062Y-49275971D01*
X56328067Y-49275976D01*
X56350415Y-49296952D01*
X56355384Y-49301616D01*
X56378736Y-49320985D01*
X56378747Y-49320993D01*
X56408996Y-49343098D01*
X56449996Y-49369361D01*
X56464581Y-49386141D01*
X56482380Y-49399465D01*
X56487054Y-49411998D01*
X56495830Y-49422095D01*
X56499027Y-49444098D01*
X56506797Y-49464930D01*
X56503953Y-49478001D01*
X56505877Y-49491239D01*
X56496671Y-49511477D01*
X56491945Y-49533203D01*
X56478803Y-49550758D01*
X56476948Y-49554838D01*
X56470803Y-49561448D01*
X56322469Y-49709782D01*
X56261149Y-49743266D01*
X56234790Y-49746100D01*
X56208343Y-49746100D01*
X56055616Y-49787023D01*
X56055609Y-49787026D01*
X55918690Y-49866075D01*
X55918682Y-49866081D01*
X55806881Y-49977882D01*
X55806875Y-49977890D01*
X55727826Y-50114809D01*
X55727823Y-50114816D01*
X55686900Y-50267543D01*
X55686900Y-50425657D01*
X55726240Y-50572475D01*
X55728727Y-50581757D01*
X55727064Y-50651607D01*
X55687901Y-50709469D01*
X55635870Y-50734893D01*
X49085153Y-52191654D01*
X49015439Y-52186992D01*
X48959312Y-52145379D01*
X48934593Y-52080029D01*
X48935577Y-52052416D01*
X48950449Y-51952188D01*
X48952929Y-51929834D01*
X48954272Y-51911635D01*
X48955100Y-51889152D01*
X48955100Y-44645103D01*
X48974785Y-44578064D01*
X48991419Y-44557422D01*
X49771112Y-43777729D01*
X50555018Y-42993823D01*
X50591994Y-42949040D01*
X50618302Y-42910171D01*
X50635061Y-42882328D01*
X50668645Y-42775198D01*
X50670336Y-42761059D01*
X50676938Y-42705829D01*
X50676939Y-42705822D01*
X50678057Y-42644348D01*
X50648391Y-42536068D01*
X50617861Y-42473221D01*
X50616115Y-42470393D01*
X50585566Y-42420900D01*
X50532142Y-42372879D01*
X50502069Y-42345847D01*
X50478301Y-42331360D01*
X50442411Y-42309484D01*
X50442403Y-42309481D01*
X50366478Y-42276969D01*
X50353292Y-42270369D01*
X50308000Y-42244219D01*
X50282325Y-42224518D01*
X50250481Y-42192674D01*
X50230777Y-42166996D01*
X50229977Y-42165611D01*
X50208264Y-42128001D01*
X50195878Y-42098096D01*
X50195100Y-42095194D01*
X50189323Y-42073632D01*
X50184225Y-42054604D01*
X50180000Y-42022512D01*
X50180000Y-41998939D01*
X50199685Y-41931900D01*
X50216319Y-41911258D01*
X50386258Y-41741319D01*
X50447581Y-41707834D01*
X50473939Y-41705000D01*
X50497514Y-41705000D01*
X50529606Y-41709225D01*
X50554575Y-41715915D01*
X50573095Y-41720877D01*
X50602999Y-41733263D01*
X50641997Y-41755778D01*
X50667679Y-41775485D01*
X50699513Y-41807319D01*
X50719219Y-41833000D01*
X50744320Y-41876476D01*
X50753114Y-41895141D01*
X50759125Y-41911258D01*
X50770555Y-41941902D01*
X50770557Y-41941908D01*
X50791054Y-41984102D01*
X50791060Y-41984114D01*
X50791061Y-41984115D01*
X50806792Y-42012543D01*
X50882777Y-42095194D01*
X50907722Y-42113867D01*
X50938705Y-42137061D01*
X50938724Y-42137073D01*
X50991383Y-42168767D01*
X50991384Y-42168767D01*
X50991389Y-42168770D01*
X51099996Y-42197220D01*
X51169687Y-42202204D01*
X51231143Y-42200396D01*
X51337890Y-42165613D01*
X51399213Y-42132128D01*
X51404724Y-42128003D01*
X51468812Y-42080026D01*
X51468823Y-42080018D01*
X51929638Y-41619202D01*
X51963502Y-41578930D01*
X51987986Y-41544118D01*
X52002540Y-41521346D01*
X52005074Y-41514174D01*
X52039943Y-41415498D01*
X52039945Y-41415490D01*
X52054226Y-41324007D01*
X52054276Y-41316054D01*
X52055000Y-41312184D01*
X52055000Y-41202013D01*
X52055002Y-41201698D01*
X52055182Y-41201096D01*
X52059225Y-41170393D01*
X52070878Y-41126901D01*
X52083263Y-41096998D01*
X52105780Y-41057996D01*
X52125480Y-41032323D01*
X52157323Y-41000480D01*
X52182996Y-40980780D01*
X52221998Y-40958263D01*
X52251900Y-40945878D01*
X52264202Y-40942582D01*
X52295395Y-40934225D01*
X52327486Y-40930000D01*
X52437178Y-40930000D01*
X52437184Y-40930000D01*
X52465372Y-40928697D01*
X52465377Y-40928695D01*
X52466532Y-40928642D01*
X52476869Y-40927588D01*
X52476868Y-40927572D01*
X52477893Y-40927483D01*
X52479158Y-40927354D01*
X52479603Y-40927336D01*
X52506522Y-40925016D01*
X52613269Y-40890233D01*
X52674592Y-40856748D01*
X52744202Y-40804638D01*
X52837820Y-40711019D01*
X52899141Y-40677536D01*
X52968833Y-40682520D01*
G37*
%TD.AperFunction*%
%TA.AperFunction,Conductor*%
G36*
X48485426Y-25729679D02*
G01*
X48558299Y-25766782D01*
X48578449Y-25772710D01*
X48625330Y-25786504D01*
X48711391Y-25798925D01*
X60708842Y-25805402D01*
X60775871Y-25825123D01*
X60796602Y-25841867D01*
X62503560Y-27554560D01*
X62658328Y-27709847D01*
X62691710Y-27771226D01*
X62694500Y-27797381D01*
X62694500Y-34990849D01*
X62695328Y-35013331D01*
X62696673Y-35031556D01*
X62699149Y-35053881D01*
X62756084Y-35437615D01*
X62759709Y-35462046D01*
X62769552Y-35505880D01*
X62777690Y-35532713D01*
X62780108Y-35540684D01*
X62780113Y-35540700D01*
X62796281Y-35582619D01*
X62845399Y-35686492D01*
X62856262Y-35755512D01*
X62828085Y-35819449D01*
X62769815Y-35858002D01*
X62733300Y-35863500D01*
X61174019Y-35863500D01*
X61155870Y-35864040D01*
X61155854Y-35864040D01*
X61155852Y-35864041D01*
X61147786Y-35864521D01*
X61141130Y-35864918D01*
X61039045Y-35889040D01*
X60974805Y-35916549D01*
X60921007Y-35946318D01*
X60921006Y-35946319D01*
X60883252Y-35984499D01*
X60822118Y-36018327D01*
X60752399Y-36013732D01*
X60733084Y-36004698D01*
X60727588Y-36001525D01*
X60727586Y-36001524D01*
X60727584Y-36001523D01*
X60574857Y-35960600D01*
X60416743Y-35960600D01*
X60264016Y-36001523D01*
X60264014Y-36001523D01*
X60256165Y-36003627D01*
X60255979Y-36002934D01*
X60217437Y-36010600D01*
X52975225Y-36010600D01*
X52845317Y-36045409D01*
X52845316Y-36045409D01*
X52835217Y-36048114D01*
X52709686Y-36120589D01*
X52709683Y-36120591D01*
X43994081Y-44836194D01*
X43932758Y-44869679D01*
X43863066Y-44864695D01*
X43807133Y-44822823D01*
X43782716Y-44757359D01*
X43782400Y-44748513D01*
X43782400Y-30918173D01*
X43802085Y-30851134D01*
X43854889Y-30805379D01*
X43912532Y-30794325D01*
X44066815Y-30801969D01*
X44066832Y-30801968D01*
X44066838Y-30801969D01*
X44093729Y-30801650D01*
X44104261Y-30801526D01*
X44134524Y-30799308D01*
X44171637Y-30794286D01*
X44717331Y-30686038D01*
X44753584Y-30676502D01*
X44782431Y-30666987D01*
X44817247Y-30653081D01*
X45146873Y-30497334D01*
X45173310Y-30483217D01*
X45194158Y-30470733D01*
X45210879Y-30459570D01*
X45219067Y-30454105D01*
X45219075Y-30454098D01*
X45219084Y-30454093D01*
X45511991Y-30237063D01*
X45540658Y-30212966D01*
X45562646Y-30192053D01*
X45588151Y-30164626D01*
X45945239Y-29730006D01*
X45958882Y-29712094D01*
X45969401Y-29697173D01*
X45981675Y-29678325D01*
X48322840Y-25776382D01*
X48374209Y-25729026D01*
X48443028Y-25716959D01*
X48485426Y-25729679D01*
G37*
%TD.AperFunction*%
%TA.AperFunction,Conductor*%
G36*
X55054606Y-41634225D02*
G01*
X55079575Y-41640915D01*
X55098095Y-41645877D01*
X55127999Y-41658263D01*
X55139178Y-41664717D01*
X55166997Y-41680778D01*
X55192679Y-41700485D01*
X55224514Y-41732320D01*
X55244222Y-41758004D01*
X55266735Y-41797000D01*
X55279120Y-41826900D01*
X55290774Y-41870391D01*
X55295000Y-41902485D01*
X55295000Y-41947512D01*
X55290774Y-41979607D01*
X55270054Y-42056931D01*
X55264275Y-42073632D01*
X55262868Y-42076916D01*
X55246391Y-42133030D01*
X55246387Y-42133046D01*
X55236654Y-42179031D01*
X55242629Y-42291144D01*
X55259105Y-42359042D01*
X55261897Y-42366015D01*
X55266558Y-42380016D01*
X55290775Y-42470393D01*
X55295000Y-42502487D01*
X55295000Y-42547511D01*
X55290775Y-42579605D01*
X55279121Y-42623097D01*
X55266733Y-42653003D01*
X55244219Y-42691998D01*
X55224513Y-42717679D01*
X55192679Y-42749513D01*
X55166996Y-42769220D01*
X55128001Y-42791733D01*
X55098096Y-42804120D01*
X55010553Y-42827577D01*
X55002706Y-42829408D01*
X54951382Y-42839640D01*
X54951374Y-42839643D01*
X54895040Y-42860691D01*
X54885925Y-42864097D01*
X54885921Y-42864098D01*
X54885916Y-42864101D01*
X54830785Y-42891303D01*
X54830782Y-42891305D01*
X54808474Y-42911838D01*
X54745816Y-42942754D01*
X54676391Y-42934887D01*
X54622240Y-42890734D01*
X54600556Y-42824315D01*
X54600500Y-42820600D01*
X54600500Y-41798644D01*
X54620185Y-41731605D01*
X54672989Y-41685850D01*
X54713605Y-41675124D01*
X54723870Y-41674218D01*
X54735103Y-41675094D01*
X54792370Y-41668942D01*
X54792288Y-41668183D01*
X54831591Y-41664717D01*
X54833928Y-41664091D01*
X54833931Y-41664090D01*
X54839455Y-41662609D01*
X54839465Y-41662609D01*
X54845145Y-41661085D01*
X54847281Y-41660513D01*
X54847282Y-41660514D01*
X54916062Y-41642084D01*
X54945397Y-41634225D01*
X54977489Y-41630000D01*
X55022514Y-41630000D01*
X55054606Y-41634225D01*
G37*
%TD.AperFunction*%
%TA.AperFunction,Conductor*%
G36*
X76833371Y-38920185D02*
G01*
X76854013Y-38936819D01*
X76874514Y-38957320D01*
X76894221Y-38983002D01*
X76916733Y-39021995D01*
X76929120Y-39051899D01*
X76955482Y-39150280D01*
X76956988Y-39156552D01*
X76958199Y-39162239D01*
X76958206Y-39162269D01*
X76962749Y-39177576D01*
X76966878Y-39191486D01*
X76969056Y-39198825D01*
X76969292Y-39199619D01*
X76976486Y-39220937D01*
X76976486Y-39220938D01*
X77034882Y-39316819D01*
X77034884Y-39316822D01*
X77081574Y-39368802D01*
X77106309Y-39391305D01*
X77142652Y-39450977D01*
X77140965Y-39520827D01*
X77137427Y-39530480D01*
X77069871Y-39693575D01*
X77069868Y-39693585D01*
X77030377Y-39892120D01*
X76997992Y-39954031D01*
X76937276Y-39988605D01*
X76932232Y-39989686D01*
X76865087Y-40002629D01*
X76865080Y-40002631D01*
X76806197Y-40020279D01*
X76712086Y-40081507D01*
X76712077Y-40081514D01*
X76661530Y-40129710D01*
X76607768Y-40198075D01*
X76580255Y-40245728D01*
X76560550Y-40271407D01*
X76528716Y-40303241D01*
X76503034Y-40322948D01*
X76464036Y-40345463D01*
X76434134Y-40357849D01*
X76422372Y-40361000D01*
X76390645Y-40369502D01*
X76358552Y-40373728D01*
X76313529Y-40373728D01*
X76281436Y-40369503D01*
X76237929Y-40357845D01*
X76208033Y-40345461D01*
X76169036Y-40322946D01*
X76143363Y-40303247D01*
X76111518Y-40271402D01*
X76091814Y-40245724D01*
X76069302Y-40206731D01*
X76056915Y-40176824D01*
X76045262Y-40133332D01*
X76041037Y-40101240D01*
X76041037Y-40097510D01*
X76041037Y-40097500D01*
X76034055Y-40032559D01*
X76034052Y-40032547D01*
X76034023Y-40032363D01*
X76034028Y-40032316D01*
X76033700Y-40029257D01*
X76034423Y-40029179D01*
X76042733Y-39963039D01*
X76075680Y-39919197D01*
X76075316Y-39918785D01*
X76105038Y-39892531D01*
X76105044Y-39892524D01*
X76105059Y-39892512D01*
X76143359Y-39854212D01*
X76169043Y-39834504D01*
X76206122Y-39813097D01*
X76206131Y-39813091D01*
X76206140Y-39813086D01*
X76241054Y-39789581D01*
X76247821Y-39784313D01*
X76280743Y-39754604D01*
X76304350Y-39729966D01*
X76304349Y-39729965D01*
X76304888Y-39729403D01*
X76304915Y-39729374D01*
X76304917Y-39729375D01*
X76305192Y-39729089D01*
X76305215Y-39729062D01*
X76306311Y-39727924D01*
X76306483Y-39727739D01*
X76320378Y-39713237D01*
X76321501Y-39708806D01*
X76357369Y-39645875D01*
X76373077Y-39618476D01*
X76373144Y-39618284D01*
X76373105Y-39618269D01*
X76373663Y-39617292D01*
X76373666Y-39617286D01*
X76373668Y-39617277D01*
X76373671Y-39617274D01*
X76384749Y-39585269D01*
X76396017Y-39553214D01*
X76396411Y-39551581D01*
X76396431Y-39551526D01*
X76396735Y-39550240D01*
X76410464Y-39493464D01*
X76410463Y-39493461D01*
X76410529Y-39493192D01*
X76410687Y-39491431D01*
X76410689Y-39491425D01*
X76407110Y-39424145D01*
X76405039Y-39381324D01*
X76404968Y-39381025D01*
X76404818Y-39381060D01*
X76404726Y-39379312D01*
X76397676Y-39350245D01*
X76397762Y-39348429D01*
X76393492Y-39332493D01*
X76392623Y-39329053D01*
X76389355Y-39315295D01*
X76388897Y-39313365D01*
X76388895Y-39313361D01*
X76388180Y-39310345D01*
X76388176Y-39310330D01*
X76382096Y-39284732D01*
X76377025Y-39271035D01*
X76359225Y-39204603D01*
X76355000Y-39172510D01*
X76355000Y-39140366D01*
X76374685Y-39073327D01*
X76426560Y-39028000D01*
X76674848Y-38912132D01*
X76727286Y-38900500D01*
X76766332Y-38900500D01*
X76833371Y-38920185D01*
G37*
%TD.AperFunction*%
%TA.AperFunction,Conductor*%
G36*
X20087966Y-29792113D02*
G01*
X20118209Y-29809574D01*
X20118212Y-29809575D01*
X20118216Y-29809577D01*
X20195763Y-29830355D01*
X20206011Y-29836601D01*
X20217845Y-29838591D01*
X20235291Y-29854448D01*
X20255423Y-29866720D01*
X20261958Y-29878688D01*
X20269548Y-29885587D01*
X20283442Y-29918031D01*
X20290773Y-29945386D01*
X20295000Y-29977485D01*
X20295000Y-30022511D01*
X20290775Y-30054605D01*
X20279121Y-30098097D01*
X20266733Y-30128003D01*
X20244219Y-30166998D01*
X20224513Y-30192679D01*
X20192679Y-30224513D01*
X20166997Y-30244220D01*
X20132979Y-30263860D01*
X20065079Y-30280332D01*
X20008980Y-30263859D01*
X19881786Y-30190424D01*
X19881785Y-30190423D01*
X19881784Y-30190423D01*
X19881781Y-30190422D01*
X19881778Y-30190421D01*
X19867401Y-30186568D01*
X19843626Y-30172075D01*
X19818297Y-30160508D01*
X19814205Y-30154140D01*
X19807742Y-30150201D01*
X19795575Y-30125152D01*
X19780523Y-30101730D01*
X19778977Y-30090979D01*
X19777216Y-30087353D01*
X19775500Y-30066795D01*
X19775500Y-29977610D01*
X19795185Y-29910571D01*
X19811819Y-29889929D01*
X19889929Y-29811819D01*
X19951252Y-29778334D01*
X19977610Y-29775500D01*
X20025967Y-29775500D01*
X20087966Y-29792113D01*
G37*
%TD.AperFunction*%
%TA.AperFunction,Conductor*%
G36*
X44771473Y-23035571D02*
G01*
X44777130Y-23034726D01*
X44804125Y-23046872D01*
X44832096Y-23056553D01*
X44836994Y-23061661D01*
X44840847Y-23063395D01*
X44864107Y-23089937D01*
X44876284Y-23108653D01*
X44924499Y-23159219D01*
X44968833Y-23194083D01*
X44992843Y-23212965D01*
X44992856Y-23212974D01*
X45066997Y-23255779D01*
X45092679Y-23275485D01*
X45126827Y-23309633D01*
X45142652Y-23329033D01*
X45149980Y-23340142D01*
X45149983Y-23340145D01*
X45206731Y-23400376D01*
X45238376Y-23462668D01*
X45231320Y-23532181D01*
X45204160Y-23573090D01*
X44006426Y-24770824D01*
X43945103Y-24804309D01*
X43875411Y-24799325D01*
X43819478Y-24757453D01*
X43798971Y-24715239D01*
X43759577Y-24568216D01*
X43759573Y-24568209D01*
X43680524Y-24431290D01*
X43680518Y-24431282D01*
X43569722Y-24320486D01*
X43565384Y-24312541D01*
X43558137Y-24307117D01*
X43548900Y-24282354D01*
X43536237Y-24259163D01*
X43536882Y-24250134D01*
X43533719Y-24241653D01*
X43539335Y-24215831D01*
X43541221Y-24189471D01*
X43547039Y-24180418D01*
X43548570Y-24173380D01*
X43569721Y-24145125D01*
X43607383Y-24107462D01*
X43668703Y-24073978D01*
X43727152Y-24075368D01*
X43820943Y-24100500D01*
X43820946Y-24100500D01*
X43979055Y-24100500D01*
X43979057Y-24100500D01*
X44131784Y-24059577D01*
X44268716Y-23980520D01*
X44380520Y-23868716D01*
X44459577Y-23731784D01*
X44500500Y-23579057D01*
X44500500Y-23420943D01*
X44459577Y-23268216D01*
X44459573Y-23268209D01*
X44458107Y-23264668D01*
X44457759Y-23261433D01*
X44457473Y-23260365D01*
X44457639Y-23260320D01*
X44450638Y-23195199D01*
X44481913Y-23132719D01*
X44540573Y-23097441D01*
X44681884Y-23059577D01*
X44698171Y-23050173D01*
X44703727Y-23048825D01*
X44708028Y-23045057D01*
X44737298Y-23040681D01*
X44766069Y-23033701D01*
X44771473Y-23035571D01*
G37*
%TD.AperFunction*%
%TA.AperFunction,Conductor*%
G36*
X54960276Y-11241937D02*
G01*
X54988307Y-11293264D01*
X55025423Y-11431785D01*
X55025426Y-11431790D01*
X55104475Y-11568709D01*
X55104481Y-11568717D01*
X55204370Y-11668606D01*
X55237855Y-11729929D01*
X55239993Y-11743175D01*
X55305531Y-12359576D01*
X56058107Y-19437867D01*
X56045621Y-19506612D01*
X56033182Y-19526458D01*
X56029478Y-19531285D01*
X55950426Y-19668209D01*
X55950423Y-19668216D01*
X55909500Y-19820943D01*
X55909500Y-19979056D01*
X55950423Y-20131783D01*
X55950426Y-20131790D01*
X56029475Y-20268709D01*
X56029479Y-20268714D01*
X56029480Y-20268716D01*
X56141284Y-20380520D01*
X56141286Y-20380521D01*
X56141290Y-20380524D01*
X56278209Y-20459573D01*
X56278216Y-20459577D01*
X56430943Y-20500500D01*
X56430945Y-20500500D01*
X56589055Y-20500500D01*
X56589057Y-20500500D01*
X56741784Y-20459577D01*
X56878716Y-20380520D01*
X56990520Y-20268716D01*
X57069577Y-20131784D01*
X57110500Y-19979057D01*
X57110500Y-19820943D01*
X57069577Y-19668216D01*
X57038611Y-19614580D01*
X56990524Y-19531290D01*
X56990521Y-19531286D01*
X56990520Y-19531284D01*
X56890629Y-19431393D01*
X56857144Y-19370070D01*
X56855005Y-19356822D01*
X56802610Y-18864022D01*
X56119994Y-12443747D01*
X56132480Y-12375004D01*
X56180151Y-12323923D01*
X56247871Y-12306723D01*
X56305298Y-12323251D01*
X56368216Y-12359577D01*
X56520943Y-12400500D01*
X56547390Y-12400500D01*
X56614429Y-12420185D01*
X56635071Y-12436819D01*
X59394981Y-15196729D01*
X59428466Y-15258052D01*
X59431300Y-15284410D01*
X59431300Y-20658102D01*
X59411615Y-20725141D01*
X59394981Y-20745783D01*
X59376281Y-20764482D01*
X59376275Y-20764490D01*
X59297226Y-20901409D01*
X59297223Y-20901416D01*
X59256300Y-21054143D01*
X59256300Y-21080590D01*
X59236615Y-21147629D01*
X59219981Y-21168271D01*
X58294571Y-22093681D01*
X58233248Y-22127166D01*
X58206890Y-22130000D01*
X55711655Y-22130000D01*
X55644616Y-22110315D01*
X55598861Y-22057511D01*
X55588917Y-21988353D01*
X55589919Y-21983463D01*
X55590500Y-21979055D01*
X55590500Y-21820945D01*
X55590500Y-21820943D01*
X55549577Y-21668216D01*
X55524662Y-21625062D01*
X55470524Y-21531290D01*
X55470518Y-21531282D01*
X55354908Y-21415672D01*
X55321423Y-21354349D01*
X55319686Y-21344447D01*
X55318470Y-21335368D01*
X54816705Y-17588002D01*
X54601597Y-15981494D01*
X54600500Y-15965038D01*
X54600500Y-12531217D01*
X54601375Y-12516511D01*
X54648623Y-12120943D01*
X54745407Y-11310650D01*
X54772904Y-11246420D01*
X54830762Y-11207250D01*
X54900611Y-11205579D01*
X54960276Y-11241937D01*
G37*
%TD.AperFunction*%
%TA.AperFunction,Conductor*%
G36*
X53718834Y-12607916D02*
G01*
X53774767Y-12649788D01*
X53799184Y-12715252D01*
X53799500Y-12724098D01*
X53799500Y-15966199D01*
X53798474Y-15982112D01*
X53796045Y-16000891D01*
X53799500Y-16026694D01*
X53799500Y-16052727D01*
X53806466Y-16078728D01*
X53807527Y-16086649D01*
X53807526Y-16086651D01*
X54037776Y-17806229D01*
X54027163Y-17875288D01*
X53980898Y-17927646D01*
X53913671Y-17946680D01*
X53846826Y-17926347D01*
X53827192Y-17910367D01*
X53770916Y-17854091D01*
X53770915Y-17854090D01*
X53645385Y-17781616D01*
X53645382Y-17781615D01*
X53622561Y-17775499D01*
X53622561Y-17775500D01*
X53563967Y-17759800D01*
X53505375Y-17744100D01*
X53505374Y-17744100D01*
X52194040Y-17744100D01*
X52127001Y-17724415D01*
X52098310Y-17698915D01*
X52091786Y-17690991D01*
X52090485Y-17688737D01*
X52087346Y-17685598D01*
X52083540Y-17680975D01*
X52075251Y-17661543D01*
X52059496Y-17634254D01*
X52046503Y-17585763D01*
X51990485Y-17488737D01*
X51990479Y-17488731D01*
X51985538Y-17482291D01*
X51986710Y-17481391D01*
X51983572Y-17475956D01*
X51973391Y-17466702D01*
X51959502Y-17434269D01*
X51959497Y-17434260D01*
X51956882Y-17424500D01*
X51946503Y-17385763D01*
X51927874Y-17353497D01*
X51890485Y-17288737D01*
X51881656Y-17279908D01*
X51874200Y-17268011D01*
X51869651Y-17251842D01*
X51867498Y-17248114D01*
X51863862Y-17243917D01*
X51861858Y-17238344D01*
X51859494Y-17234249D01*
X51856882Y-17224500D01*
X51846503Y-17185763D01*
X51827874Y-17153497D01*
X51790485Y-17088737D01*
X51781656Y-17079908D01*
X51774200Y-17068011D01*
X51769651Y-17051842D01*
X51767498Y-17048114D01*
X51763862Y-17043917D01*
X51761858Y-17038344D01*
X51759494Y-17034249D01*
X51756882Y-17024500D01*
X51746503Y-16985763D01*
X51690485Y-16888737D01*
X49986819Y-15185071D01*
X49953334Y-15123748D01*
X49950500Y-15097390D01*
X49950500Y-15070945D01*
X49950500Y-15070943D01*
X49909577Y-14918216D01*
X49909573Y-14918209D01*
X49830524Y-14781290D01*
X49830518Y-14781282D01*
X49718717Y-14669481D01*
X49718716Y-14669480D01*
X49715801Y-14667797D01*
X49713833Y-14665733D01*
X49712265Y-14664530D01*
X49712452Y-14664285D01*
X49667586Y-14617233D01*
X49654360Y-14548627D01*
X49680325Y-14483761D01*
X49690109Y-14472737D01*
X51501029Y-12661819D01*
X51562352Y-12628334D01*
X51588710Y-12625500D01*
X52699902Y-12625500D01*
X52766941Y-12645185D01*
X52787583Y-12661819D01*
X52806284Y-12680520D01*
X52806286Y-12680521D01*
X52806290Y-12680524D01*
X52866442Y-12715252D01*
X52943216Y-12759577D01*
X53095943Y-12800500D01*
X53095945Y-12800500D01*
X53254055Y-12800500D01*
X53254057Y-12800500D01*
X53406784Y-12759577D01*
X53543716Y-12680520D01*
X53587819Y-12636417D01*
X53649142Y-12602932D01*
X53718834Y-12607916D01*
G37*
%TD.AperFunction*%
%TA.AperFunction,Conductor*%
G36*
X89442539Y-520185D02*
G01*
X89488294Y-572989D01*
X89499500Y-624500D01*
X89499500Y-59375500D01*
X89479815Y-59442539D01*
X89427011Y-59488294D01*
X89375500Y-59499500D01*
X624500Y-59499500D01*
X557461Y-59479815D01*
X511706Y-59427011D01*
X500500Y-59375500D01*
X500500Y-54803468D01*
X999500Y-54803468D01*
X999500Y-55196532D01*
X1002069Y-55222616D01*
X1038026Y-55587702D01*
X1114704Y-55973194D01*
X1114707Y-55973205D01*
X1228810Y-56349354D01*
X1379230Y-56712499D01*
X1379232Y-56712504D01*
X1564511Y-57059137D01*
X1564522Y-57059155D01*
X1782887Y-57385960D01*
X1782897Y-57385974D01*
X2032254Y-57689817D01*
X2310182Y-57967745D01*
X2310187Y-57967749D01*
X2310188Y-57967750D01*
X2614031Y-58217107D01*
X2940851Y-58435482D01*
X2940860Y-58435487D01*
X2940862Y-58435488D01*
X3287495Y-58620767D01*
X3287497Y-58620767D01*
X3287503Y-58620771D01*
X3650647Y-58771190D01*
X4026785Y-58885290D01*
X4026791Y-58885291D01*
X4026794Y-58885292D01*
X4026805Y-58885295D01*
X4412297Y-58961973D01*
X4803468Y-59000500D01*
X4803471Y-59000500D01*
X5196529Y-59000500D01*
X5196532Y-59000500D01*
X5587703Y-58961973D01*
X5662748Y-58947045D01*
X5973194Y-58885295D01*
X5973205Y-58885292D01*
X5973205Y-58885291D01*
X5973215Y-58885290D01*
X6349353Y-58771190D01*
X6712497Y-58620771D01*
X7059149Y-58435482D01*
X7385969Y-58217107D01*
X7689812Y-57967750D01*
X7967750Y-57689812D01*
X8217107Y-57385969D01*
X8435482Y-57059149D01*
X8620771Y-56712497D01*
X8771190Y-56349353D01*
X8885290Y-55973215D01*
X8885292Y-55973205D01*
X8885295Y-55973194D01*
X8953424Y-55630682D01*
X8961973Y-55587703D01*
X9000500Y-55196532D01*
X9000500Y-54803468D01*
X8961973Y-54412297D01*
X8945671Y-54330342D01*
X8885295Y-54026805D01*
X8885292Y-54026794D01*
X8885291Y-54026791D01*
X8885290Y-54026785D01*
X8771190Y-53650647D01*
X8620771Y-53287503D01*
X8607667Y-53262988D01*
X8435488Y-52940862D01*
X8435487Y-52940860D01*
X8435482Y-52940851D01*
X8217107Y-52614031D01*
X7967750Y-52310188D01*
X7967749Y-52310187D01*
X7967745Y-52310182D01*
X7689817Y-52032254D01*
X7385974Y-51782897D01*
X7385973Y-51782896D01*
X7385969Y-51782893D01*
X7059149Y-51564518D01*
X7059144Y-51564515D01*
X7059137Y-51564511D01*
X6712504Y-51379232D01*
X6712499Y-51379230D01*
X6671083Y-51362075D01*
X6486423Y-51285586D01*
X6349354Y-51228810D01*
X5973205Y-51114707D01*
X5973194Y-51114704D01*
X5587702Y-51038026D01*
X5293089Y-51009010D01*
X5196532Y-50999500D01*
X4803468Y-50999500D01*
X4714251Y-51008287D01*
X4412297Y-51038026D01*
X4026805Y-51114704D01*
X4026794Y-51114707D01*
X3650645Y-51228810D01*
X3287500Y-51379230D01*
X3287495Y-51379232D01*
X2940862Y-51564511D01*
X2940844Y-51564522D01*
X2614039Y-51782887D01*
X2614025Y-51782897D01*
X2310182Y-52032254D01*
X2032254Y-52310182D01*
X1782897Y-52614025D01*
X1782887Y-52614039D01*
X1564522Y-52940844D01*
X1564511Y-52940862D01*
X1379232Y-53287495D01*
X1379230Y-53287500D01*
X1228810Y-53650645D01*
X1114707Y-54026794D01*
X1114704Y-54026805D01*
X1038026Y-54412297D01*
X1012883Y-54667584D01*
X999500Y-54803468D01*
X500500Y-54803468D01*
X500500Y-30510645D01*
X4949500Y-30510645D01*
X4949500Y-31489363D01*
X4964953Y-31606753D01*
X4964956Y-31606762D01*
X5001268Y-31694428D01*
X5025464Y-31752841D01*
X5121718Y-31878282D01*
X5247159Y-31974536D01*
X5393238Y-32035044D01*
X5510639Y-32050500D01*
X6489360Y-32050499D01*
X6489363Y-32050499D01*
X6606753Y-32035046D01*
X6606757Y-32035044D01*
X6606762Y-32035044D01*
X6752841Y-31974536D01*
X6878282Y-31878282D01*
X6974536Y-31752841D01*
X7035044Y-31606762D01*
X7050500Y-31489361D01*
X7050499Y-30510640D01*
X7050499Y-30510639D01*
X7050499Y-30510636D01*
X7035046Y-30393246D01*
X7035044Y-30393239D01*
X7035044Y-30393238D01*
X6974536Y-30247159D01*
X6878282Y-30121718D01*
X6752841Y-30025464D01*
X6672189Y-29992057D01*
X6606762Y-29964956D01*
X6606760Y-29964955D01*
X6489370Y-29949501D01*
X6489367Y-29949500D01*
X6489361Y-29949500D01*
X6489354Y-29949500D01*
X5510636Y-29949500D01*
X5393246Y-29964953D01*
X5393237Y-29964956D01*
X5247160Y-30025463D01*
X5121718Y-30121718D01*
X5025463Y-30247160D01*
X4964956Y-30393237D01*
X4964955Y-30393239D01*
X4951251Y-30497335D01*
X4949501Y-30510636D01*
X4949500Y-30510645D01*
X500500Y-30510645D01*
X500500Y-29760009D01*
X17044589Y-29760009D01*
X17046547Y-29942675D01*
X17046745Y-29961161D01*
X17053961Y-30634666D01*
X17056443Y-30670394D01*
X17060149Y-30699180D01*
X17060151Y-30699188D01*
X17066802Y-30734395D01*
X17066804Y-30734406D01*
X17066805Y-30734407D01*
X17202134Y-31274771D01*
X17202136Y-31274778D01*
X17213459Y-31310516D01*
X17213467Y-31310538D01*
X17224402Y-31338874D01*
X17224410Y-31338894D01*
X17240033Y-31372985D01*
X17240034Y-31372989D01*
X17411959Y-31694428D01*
X17411964Y-31694436D01*
X17427349Y-31720094D01*
X17440830Y-31740267D01*
X17458660Y-31764309D01*
X17695151Y-32052530D01*
X17706561Y-32065655D01*
X17716111Y-32076029D01*
X17716120Y-32076038D01*
X17728236Y-32088471D01*
X18158273Y-32505377D01*
X18158279Y-32505382D01*
X18184833Y-32528319D01*
X18207384Y-32545640D01*
X18236389Y-32565378D01*
X18236393Y-32565380D01*
X18236394Y-32565381D01*
X18236419Y-32565397D01*
X18711713Y-32850347D01*
X18711719Y-32850351D01*
X18730818Y-32859966D01*
X18751894Y-32870577D01*
X18785530Y-32884511D01*
X18828234Y-32898618D01*
X19364949Y-33033033D01*
X19401774Y-33039888D01*
X19431898Y-33043603D01*
X19469290Y-33045900D01*
X19469299Y-33045900D01*
X19830701Y-33045900D01*
X19830710Y-33045900D01*
X19868102Y-33043603D01*
X19898226Y-33039888D01*
X19935051Y-33033033D01*
X20449976Y-32904075D01*
X20519789Y-32906883D01*
X20577001Y-32946990D01*
X20603448Y-33011661D01*
X20604100Y-33024360D01*
X20604100Y-33483789D01*
X20605312Y-33508452D01*
X20605572Y-33513741D01*
X20605572Y-33513744D01*
X20607954Y-33537926D01*
X20612349Y-33567561D01*
X20612352Y-33567577D01*
X20656710Y-33790584D01*
X20684085Y-33928208D01*
X20691376Y-33957312D01*
X20698440Y-33980593D01*
X20708553Y-34008847D01*
X20708563Y-34008871D01*
X20849302Y-34348484D01*
X20849317Y-34348518D01*
X20862098Y-34375534D01*
X20862105Y-34375548D01*
X20862108Y-34375553D01*
X20873550Y-34396958D01*
X20888950Y-34422652D01*
X20888957Y-34422663D01*
X20888959Y-34422667D01*
X21092960Y-34728010D01*
X21092974Y-34728029D01*
X21111451Y-34752862D01*
X21111464Y-34752878D01*
X21127443Y-34772221D01*
X21127456Y-34772235D01*
X21127460Y-34772240D01*
X21148384Y-34795100D01*
X21303685Y-34948381D01*
X21337571Y-35009483D01*
X21340580Y-35036578D01*
X21350093Y-55980778D01*
X21350093Y-55980781D01*
X21352397Y-56018094D01*
X21352398Y-56018099D01*
X21356113Y-56048169D01*
X21362961Y-56084928D01*
X21362965Y-56084944D01*
X21462026Y-56480493D01*
X21497381Y-56621665D01*
X21511486Y-56664362D01*
X21511492Y-56664377D01*
X21511496Y-56664387D01*
X21525414Y-56697988D01*
X21545638Y-56738161D01*
X21830124Y-57212682D01*
X21851323Y-57243574D01*
X21851323Y-57243575D01*
X21869972Y-57267467D01*
X21869974Y-57267469D01*
X21869983Y-57267480D01*
X21894788Y-57295530D01*
X22150369Y-57551111D01*
X22178418Y-57575915D01*
X22202335Y-57594583D01*
X22233220Y-57615777D01*
X22233222Y-57615778D01*
X22233227Y-57615781D01*
X22707716Y-57900249D01*
X22707722Y-57900252D01*
X22707730Y-57900257D01*
X22747905Y-57920482D01*
X22781539Y-57934414D01*
X22781544Y-57934415D01*
X22781553Y-57934419D01*
X22803146Y-57941551D01*
X22824234Y-57948518D01*
X23360949Y-58082933D01*
X23397774Y-58089788D01*
X23427898Y-58093503D01*
X23465290Y-58095800D01*
X23465299Y-58095800D01*
X23829776Y-58095800D01*
X23829789Y-58095800D01*
X23859738Y-58094328D01*
X23883929Y-58091945D01*
X23900940Y-58089421D01*
X23913561Y-58087550D01*
X23913569Y-58087548D01*
X23913579Y-58087547D01*
X24271188Y-58016415D01*
X24307436Y-58006860D01*
X24336278Y-57997330D01*
X24371088Y-57983405D01*
X24871144Y-57746809D01*
X24910223Y-57724667D01*
X24940455Y-57704465D01*
X24975860Y-57676836D01*
X25385800Y-57305355D01*
X25411981Y-57278526D01*
X25431822Y-57255526D01*
X25454523Y-57225689D01*
X25657046Y-56922556D01*
X25672442Y-56896870D01*
X25683889Y-56875457D01*
X25696696Y-56848387D01*
X25837446Y-56508747D01*
X25847559Y-56480493D01*
X25854623Y-56457212D01*
X25861914Y-56428108D01*
X25924002Y-56115961D01*
X25933644Y-56067492D01*
X25933645Y-56067484D01*
X25933652Y-56067451D01*
X25938043Y-56037872D01*
X25940426Y-56013739D01*
X25941905Y-55983861D01*
X25951300Y-35728740D01*
X25971016Y-35661713D01*
X26023841Y-35615983D01*
X26075094Y-35604801D01*
X31534389Y-35595919D01*
X31564091Y-35594423D01*
X31585773Y-35592269D01*
X31588071Y-35592041D01*
X31588073Y-35592040D01*
X31588080Y-35592040D01*
X31617480Y-35587666D01*
X31975188Y-35516515D01*
X32011436Y-35506960D01*
X32040278Y-35497430D01*
X32075088Y-35483505D01*
X32577944Y-35245585D01*
X32610732Y-35227536D01*
X32636355Y-35211310D01*
X32666695Y-35189382D01*
X32948534Y-34958127D01*
X32970770Y-34937975D01*
X32987975Y-34920770D01*
X33008127Y-34898534D01*
X33241339Y-34614309D01*
X33259169Y-34590267D01*
X33272650Y-34570094D01*
X33288035Y-34544436D01*
X33461419Y-34220269D01*
X33474261Y-34193131D01*
X33483581Y-34170639D01*
X33493700Y-34142362D01*
X33600403Y-33790559D01*
X33607687Y-33761471D01*
X33612429Y-33737624D01*
X33616827Y-33707962D01*
X33653435Y-33335975D01*
X33654537Y-33321030D01*
X33655133Y-33308886D01*
X33655500Y-33293911D01*
X33655500Y-30705355D01*
X33675185Y-30638316D01*
X33727989Y-30592561D01*
X33783175Y-30581410D01*
X33886385Y-30584471D01*
X34110228Y-30591112D01*
X34110233Y-30591112D01*
X34110239Y-30591111D01*
X34110246Y-30591112D01*
X34147709Y-30589923D01*
X34177950Y-30587099D01*
X34177954Y-30587098D01*
X34177958Y-30587098D01*
X34177966Y-30587097D01*
X34197784Y-30584009D01*
X34214992Y-30581329D01*
X34568126Y-30503879D01*
X34604124Y-30493637D01*
X34632726Y-30483568D01*
X34667196Y-30469004D01*
X35162630Y-30222890D01*
X35201324Y-30199972D01*
X35231202Y-30179161D01*
X35266118Y-30150805D01*
X35408457Y-30016661D01*
X35470744Y-29985010D01*
X35540257Y-29992057D01*
X35594926Y-30035568D01*
X35617392Y-30101727D01*
X35617500Y-30106904D01*
X35617500Y-30589490D01*
X35597815Y-30656529D01*
X35581181Y-30677171D01*
X35215371Y-31042981D01*
X35154048Y-31076466D01*
X35127690Y-31079300D01*
X35101243Y-31079300D01*
X34948516Y-31120223D01*
X34948509Y-31120226D01*
X34811590Y-31199275D01*
X34811582Y-31199281D01*
X34699781Y-31311082D01*
X34699775Y-31311090D01*
X34620726Y-31448009D01*
X34620723Y-31448016D01*
X34579800Y-31600743D01*
X34579800Y-31627190D01*
X34560115Y-31694229D01*
X34543481Y-31714871D01*
X34249617Y-32008734D01*
X34249613Y-32008740D01*
X34193598Y-32105760D01*
X34193597Y-32105763D01*
X34164600Y-32213982D01*
X34164600Y-48722290D01*
X34144915Y-48789329D01*
X34128281Y-48809971D01*
X28538771Y-54399481D01*
X28477448Y-54432966D01*
X28451090Y-54435800D01*
X28424643Y-54435800D01*
X28271916Y-54476723D01*
X28271909Y-54476726D01*
X28134990Y-54555775D01*
X28134982Y-54555781D01*
X28023181Y-54667582D01*
X28023175Y-54667590D01*
X27944126Y-54804509D01*
X27944123Y-54804516D01*
X27903200Y-54957243D01*
X27903200Y-55115357D01*
X27937675Y-55244017D01*
X27944123Y-55268083D01*
X27944126Y-55268090D01*
X28023175Y-55405009D01*
X28023179Y-55405014D01*
X28023180Y-55405016D01*
X28134984Y-55516820D01*
X28134986Y-55516821D01*
X28134990Y-55516824D01*
X28257756Y-55587702D01*
X28271916Y-55595877D01*
X28424643Y-55636800D01*
X28424645Y-55636800D01*
X28582755Y-55636800D01*
X28582757Y-55636800D01*
X28735484Y-55595877D01*
X28872416Y-55516820D01*
X28984220Y-55405016D01*
X29063277Y-55268084D01*
X29104200Y-55115357D01*
X29104200Y-55088910D01*
X29123885Y-55021871D01*
X29140519Y-55001229D01*
X32009920Y-52131828D01*
X34930584Y-49211164D01*
X34938539Y-49197387D01*
X34942185Y-49191073D01*
X34954757Y-49169297D01*
X34986603Y-49114137D01*
X35015600Y-49005918D01*
X35015600Y-32497610D01*
X35024244Y-32468169D01*
X35030768Y-32438183D01*
X35034522Y-32433167D01*
X35035285Y-32430571D01*
X35051919Y-32409929D01*
X35145229Y-32316619D01*
X35206552Y-32283134D01*
X35232910Y-32280300D01*
X35259355Y-32280300D01*
X35259357Y-32280300D01*
X35412084Y-32239377D01*
X35549016Y-32160320D01*
X35660820Y-32048516D01*
X35739877Y-31911584D01*
X35780800Y-31758857D01*
X35780800Y-31732410D01*
X35800485Y-31665371D01*
X35817119Y-31644729D01*
X36173719Y-31288129D01*
X36235042Y-31254644D01*
X36304734Y-31259628D01*
X36360667Y-31301500D01*
X36385084Y-31366964D01*
X36385400Y-31375810D01*
X36385400Y-49256290D01*
X36365715Y-49323329D01*
X36349081Y-49343971D01*
X33396671Y-52296381D01*
X33335348Y-52329866D01*
X33308990Y-52332700D01*
X33282543Y-52332700D01*
X33129816Y-52373623D01*
X33129809Y-52373626D01*
X32992890Y-52452675D01*
X32992882Y-52452681D01*
X32881081Y-52564482D01*
X32881075Y-52564490D01*
X32802026Y-52701409D01*
X32802023Y-52701416D01*
X32761100Y-52854143D01*
X32761100Y-53012257D01*
X32793755Y-53134125D01*
X32802023Y-53164983D01*
X32802026Y-53164990D01*
X32881075Y-53301909D01*
X32881079Y-53301914D01*
X32881080Y-53301916D01*
X32992884Y-53413720D01*
X32992886Y-53413721D01*
X32992890Y-53413724D01*
X33072311Y-53459577D01*
X33129816Y-53492777D01*
X33282543Y-53533700D01*
X33282545Y-53533700D01*
X33440655Y-53533700D01*
X33440657Y-53533700D01*
X33593384Y-53492777D01*
X33730316Y-53413720D01*
X33842120Y-53301916D01*
X33921177Y-53164984D01*
X33962100Y-53012257D01*
X33962100Y-52985810D01*
X33981785Y-52918771D01*
X33998419Y-52898129D01*
X35566206Y-51330342D01*
X37151385Y-49745163D01*
X37207403Y-49648137D01*
X37236400Y-49539918D01*
X37236400Y-49427881D01*
X37236400Y-30205098D01*
X37256085Y-30138059D01*
X37272719Y-30117417D01*
X37280407Y-30109729D01*
X37291420Y-30098716D01*
X37370477Y-29961784D01*
X37411400Y-29809057D01*
X37411400Y-29650943D01*
X37370477Y-29498216D01*
X37313730Y-29399926D01*
X37291424Y-29361290D01*
X37291418Y-29361282D01*
X37272719Y-29342583D01*
X37239234Y-29281260D01*
X37236400Y-29254902D01*
X37236400Y-27876710D01*
X37256085Y-27809671D01*
X37272719Y-27789029D01*
X41185619Y-23876129D01*
X41246942Y-23842644D01*
X41316634Y-23847628D01*
X41372567Y-23889500D01*
X41396984Y-23954964D01*
X41397300Y-23963810D01*
X41397300Y-53619282D01*
X41397300Y-53731318D01*
X41423135Y-53827734D01*
X41426297Y-53839536D01*
X41426298Y-53839539D01*
X41430377Y-53846604D01*
X41482315Y-53936563D01*
X41814468Y-54268716D01*
X42143181Y-54597428D01*
X42176666Y-54658751D01*
X42179500Y-54685109D01*
X42179500Y-54711557D01*
X42215456Y-54845745D01*
X42220423Y-54864283D01*
X42220426Y-54864290D01*
X42299475Y-55001209D01*
X42299479Y-55001214D01*
X42299480Y-55001216D01*
X42411284Y-55113020D01*
X42411286Y-55113021D01*
X42411290Y-55113024D01*
X42548209Y-55192073D01*
X42548216Y-55192077D01*
X42700943Y-55233000D01*
X42700945Y-55233000D01*
X42859055Y-55233000D01*
X42859057Y-55233000D01*
X43011784Y-55192077D01*
X43148716Y-55113020D01*
X43260520Y-55001216D01*
X43339577Y-54864284D01*
X43380500Y-54711557D01*
X43380500Y-54553443D01*
X43361918Y-54484094D01*
X43363581Y-54414247D01*
X43402743Y-54356384D01*
X43466972Y-54328880D01*
X43535874Y-54340466D01*
X43569374Y-54364322D01*
X44756515Y-55551463D01*
X44835737Y-55630685D01*
X44932763Y-55686703D01*
X45040982Y-55715700D01*
X45040984Y-55715700D01*
X46684916Y-55715700D01*
X46684918Y-55715700D01*
X46793137Y-55686703D01*
X46890163Y-55630685D01*
X46959229Y-55561619D01*
X47020552Y-55528134D01*
X47046910Y-55525300D01*
X47073355Y-55525300D01*
X47073357Y-55525300D01*
X47226084Y-55484377D01*
X47363016Y-55405320D01*
X47474820Y-55293516D01*
X47553877Y-55156584D01*
X47594800Y-55003857D01*
X47594800Y-54845743D01*
X47553877Y-54693016D01*
X47533323Y-54657416D01*
X47516851Y-54589517D01*
X47539704Y-54523490D01*
X47594625Y-54480299D01*
X47611098Y-54475005D01*
X62036947Y-50929083D01*
X62066546Y-50925500D01*
X66814587Y-50925500D01*
X66881626Y-50945185D01*
X66927381Y-50997989D01*
X66937325Y-51067147D01*
X66908300Y-51130703D01*
X66850583Y-51168160D01*
X66759761Y-51195710D01*
X66650645Y-51228810D01*
X66287500Y-51379230D01*
X66287495Y-51379232D01*
X65940862Y-51564511D01*
X65940844Y-51564522D01*
X65614039Y-51782887D01*
X65614025Y-51782897D01*
X65310182Y-52032254D01*
X65032254Y-52310182D01*
X64782897Y-52614025D01*
X64782887Y-52614039D01*
X64564522Y-52940844D01*
X64564511Y-52940862D01*
X64379232Y-53287495D01*
X64379230Y-53287500D01*
X64228810Y-53650645D01*
X64114707Y-54026794D01*
X64114704Y-54026805D01*
X64038026Y-54412297D01*
X64012883Y-54667584D01*
X63999500Y-54803468D01*
X63999500Y-55196532D01*
X64002069Y-55222616D01*
X64038026Y-55587702D01*
X64114704Y-55973194D01*
X64114707Y-55973205D01*
X64228810Y-56349354D01*
X64379230Y-56712499D01*
X64379232Y-56712504D01*
X64564511Y-57059137D01*
X64564522Y-57059155D01*
X64782887Y-57385960D01*
X64782897Y-57385974D01*
X65032254Y-57689817D01*
X65310182Y-57967745D01*
X65310187Y-57967749D01*
X65310188Y-57967750D01*
X65614031Y-58217107D01*
X65940851Y-58435482D01*
X65940860Y-58435487D01*
X65940862Y-58435488D01*
X66287495Y-58620767D01*
X66287497Y-58620767D01*
X66287503Y-58620771D01*
X66650647Y-58771190D01*
X67026785Y-58885290D01*
X67026791Y-58885291D01*
X67026794Y-58885292D01*
X67026805Y-58885295D01*
X67412297Y-58961973D01*
X67803468Y-59000500D01*
X67803471Y-59000500D01*
X68196529Y-59000500D01*
X68196532Y-59000500D01*
X68587703Y-58961973D01*
X68662748Y-58947045D01*
X68973194Y-58885295D01*
X68973205Y-58885292D01*
X68973205Y-58885291D01*
X68973215Y-58885290D01*
X69349353Y-58771190D01*
X69712497Y-58620771D01*
X70059149Y-58435482D01*
X70385969Y-58217107D01*
X70689812Y-57967750D01*
X70967750Y-57689812D01*
X71217107Y-57385969D01*
X71435482Y-57059149D01*
X71620771Y-56712497D01*
X71771190Y-56349353D01*
X71885290Y-55973215D01*
X71885292Y-55973205D01*
X71885295Y-55973194D01*
X71953424Y-55630682D01*
X71961973Y-55587703D01*
X72000500Y-55196532D01*
X72000500Y-54803468D01*
X71961973Y-54412297D01*
X71945671Y-54330342D01*
X71885295Y-54026805D01*
X71885292Y-54026794D01*
X71885291Y-54026791D01*
X71885290Y-54026785D01*
X71771190Y-53650647D01*
X71620771Y-53287503D01*
X71607667Y-53262988D01*
X71435488Y-52940862D01*
X71435487Y-52940860D01*
X71435482Y-52940851D01*
X71217107Y-52614031D01*
X70967750Y-52310188D01*
X70967749Y-52310187D01*
X70967745Y-52310182D01*
X70689817Y-52032254D01*
X70385974Y-51782897D01*
X70385973Y-51782896D01*
X70385969Y-51782893D01*
X70059149Y-51564518D01*
X70059144Y-51564515D01*
X70059137Y-51564511D01*
X69712504Y-51379232D01*
X69712499Y-51379230D01*
X69671083Y-51362075D01*
X69486423Y-51285586D01*
X69349354Y-51228810D01*
X69274321Y-51206049D01*
X69149416Y-51168160D01*
X69090979Y-51129863D01*
X69062523Y-51066051D01*
X69073083Y-50996984D01*
X69119307Y-50944590D01*
X69185413Y-50925500D01*
X73272390Y-50925500D01*
X73339429Y-50945185D01*
X73360071Y-50961819D01*
X74249313Y-51851061D01*
X74282798Y-51912384D01*
X74277814Y-51982076D01*
X74235942Y-52038009D01*
X74223632Y-52046129D01*
X74178687Y-52072077D01*
X74178682Y-52072081D01*
X74066881Y-52183882D01*
X74066879Y-52183885D01*
X74062394Y-52191654D01*
X74007057Y-52287500D01*
X73956492Y-52335715D01*
X73899671Y-52349500D01*
X73770943Y-52349500D01*
X73618216Y-52390423D01*
X73618209Y-52390426D01*
X73481290Y-52469475D01*
X73481282Y-52469481D01*
X73369481Y-52581282D01*
X73369475Y-52581290D01*
X73290426Y-52718209D01*
X73290423Y-52718216D01*
X73249500Y-52870943D01*
X73249500Y-53029057D01*
X73285922Y-53164984D01*
X73290423Y-53181783D01*
X73290426Y-53181790D01*
X73369475Y-53318709D01*
X73369479Y-53318714D01*
X73369480Y-53318716D01*
X73481284Y-53430520D01*
X73481286Y-53430521D01*
X73481290Y-53430524D01*
X73589117Y-53492777D01*
X73618216Y-53509577D01*
X73770943Y-53550500D01*
X73894202Y-53550500D01*
X73932909Y-53556696D01*
X74082682Y-53605907D01*
X74188300Y-53640610D01*
X74217095Y-53650071D01*
X74266069Y-53680194D01*
X74697709Y-54111834D01*
X74731194Y-54173157D01*
X74726210Y-54242849D01*
X74684338Y-54298782D01*
X74672027Y-54306902D01*
X74556890Y-54373375D01*
X74556882Y-54373381D01*
X74445081Y-54485182D01*
X74445075Y-54485190D01*
X74366026Y-54622109D01*
X74366023Y-54622116D01*
X74325100Y-54774843D01*
X74325100Y-54932957D01*
X74348925Y-55021871D01*
X74366023Y-55085683D01*
X74366026Y-55085690D01*
X74445075Y-55222609D01*
X74445079Y-55222614D01*
X74445080Y-55222616D01*
X74556884Y-55334420D01*
X74556886Y-55334421D01*
X74556890Y-55334424D01*
X74700854Y-55417541D01*
X74700495Y-55418162D01*
X74733170Y-55439995D01*
X76692185Y-57399010D01*
X76817715Y-57471484D01*
X76957725Y-57509000D01*
X76957726Y-57509000D01*
X76957728Y-57509000D01*
X80967072Y-57509000D01*
X80967074Y-57509000D01*
X80967075Y-57509000D01*
X81107085Y-57471484D01*
X81232615Y-57399010D01*
X82727110Y-55904515D01*
X82799584Y-55778985D01*
X82837100Y-55638975D01*
X82837100Y-53134125D01*
X82799584Y-52994115D01*
X82792863Y-52982475D01*
X82787045Y-52972396D01*
X82787045Y-52972397D01*
X82727110Y-52868585D01*
X82593783Y-52735258D01*
X83649500Y-52735258D01*
X83649500Y-52964741D01*
X83671801Y-53134125D01*
X83679452Y-53192238D01*
X83734667Y-53398306D01*
X83738842Y-53413887D01*
X83826650Y-53625876D01*
X83826657Y-53625890D01*
X83941392Y-53824617D01*
X84081081Y-54006661D01*
X84081089Y-54006670D01*
X84243330Y-54168911D01*
X84243338Y-54168918D01*
X84243339Y-54168919D01*
X84263023Y-54184023D01*
X84425382Y-54308607D01*
X84425385Y-54308608D01*
X84425388Y-54308611D01*
X84624112Y-54423344D01*
X84624117Y-54423346D01*
X84624123Y-54423349D01*
X84647341Y-54432966D01*
X84836113Y-54511158D01*
X85057762Y-54570548D01*
X85285266Y-54600500D01*
X85285273Y-54600500D01*
X85514727Y-54600500D01*
X85514734Y-54600500D01*
X85742238Y-54570548D01*
X85963887Y-54511158D01*
X86175888Y-54423344D01*
X86374612Y-54308611D01*
X86556661Y-54168919D01*
X86556665Y-54168914D01*
X86556670Y-54168911D01*
X86718911Y-54006670D01*
X86718914Y-54006665D01*
X86718919Y-54006661D01*
X86858611Y-53824612D01*
X86973344Y-53625888D01*
X86974134Y-53623982D01*
X86996158Y-53570810D01*
X87061158Y-53413887D01*
X87120548Y-53192238D01*
X87150500Y-52964734D01*
X87150500Y-52735266D01*
X87120548Y-52507762D01*
X87061158Y-52286113D01*
X86985503Y-52103466D01*
X86973349Y-52074123D01*
X86973346Y-52074117D01*
X86973344Y-52074112D01*
X86858611Y-51875388D01*
X86858608Y-51875385D01*
X86858607Y-51875382D01*
X86718918Y-51693338D01*
X86718911Y-51693330D01*
X86556670Y-51531089D01*
X86556661Y-51531081D01*
X86374617Y-51391392D01*
X86323838Y-51362075D01*
X86184730Y-51281761D01*
X86175890Y-51276657D01*
X86175876Y-51276650D01*
X85963887Y-51188842D01*
X85945902Y-51184023D01*
X85742238Y-51129452D01*
X85704215Y-51124446D01*
X85514741Y-51099500D01*
X85514734Y-51099500D01*
X85285266Y-51099500D01*
X85285258Y-51099500D01*
X85068715Y-51128009D01*
X85057762Y-51129452D01*
X84979605Y-51150394D01*
X84836112Y-51188842D01*
X84624123Y-51276650D01*
X84624109Y-51276657D01*
X84425382Y-51391392D01*
X84243338Y-51531081D01*
X84081081Y-51693338D01*
X83941392Y-51875382D01*
X83826657Y-52074109D01*
X83826650Y-52074123D01*
X83738842Y-52286112D01*
X83710892Y-52390426D01*
X83682176Y-52497598D01*
X83679453Y-52507759D01*
X83679451Y-52507770D01*
X83649500Y-52735258D01*
X82593783Y-52735258D01*
X82149408Y-52290883D01*
X82115923Y-52229560D01*
X82115472Y-52179014D01*
X82130500Y-52103465D01*
X82130500Y-51896535D01*
X82090130Y-51693580D01*
X82010941Y-51502402D01*
X81895977Y-51330345D01*
X81895975Y-51330342D01*
X81749657Y-51184024D01*
X81645920Y-51114710D01*
X81577598Y-51069059D01*
X81562277Y-51062713D01*
X81386420Y-50989870D01*
X81386412Y-50989868D01*
X81183469Y-50949500D01*
X81183465Y-50949500D01*
X80976535Y-50949500D01*
X80942146Y-50956340D01*
X80900986Y-50964527D01*
X80831394Y-50958298D01*
X80789115Y-50930590D01*
X80166819Y-50308294D01*
X80133334Y-50246971D01*
X80130500Y-50220613D01*
X80130500Y-49835495D01*
X80150185Y-49768456D01*
X80202989Y-49722701D01*
X80272147Y-49712757D01*
X80335703Y-49741782D01*
X80342181Y-49747814D01*
X80410342Y-49815975D01*
X80410345Y-49815977D01*
X80582402Y-49930941D01*
X80773580Y-50010130D01*
X80927267Y-50040700D01*
X80976530Y-50050499D01*
X80976534Y-50050500D01*
X80976535Y-50050500D01*
X81183466Y-50050500D01*
X81183467Y-50050499D01*
X81386420Y-50010130D01*
X81577598Y-49930941D01*
X81749655Y-49815977D01*
X81895977Y-49669655D01*
X82010941Y-49497598D01*
X82090130Y-49306420D01*
X82130500Y-49103465D01*
X82130500Y-48896535D01*
X82090130Y-48693580D01*
X82010941Y-48502402D01*
X81895977Y-48330345D01*
X81895975Y-48330342D01*
X81749657Y-48184024D01*
X81600137Y-48084119D01*
X81577598Y-48069059D01*
X81542290Y-48054434D01*
X81386420Y-47989870D01*
X81386412Y-47989868D01*
X81183469Y-47949500D01*
X81183465Y-47949500D01*
X80976535Y-47949500D01*
X80976530Y-47949500D01*
X80773587Y-47989868D01*
X80773579Y-47989870D01*
X80582403Y-48069058D01*
X80410342Y-48184024D01*
X80264025Y-48330341D01*
X80264022Y-48330345D01*
X80215645Y-48402747D01*
X80162033Y-48447552D01*
X80092708Y-48456259D01*
X80029680Y-48426104D01*
X80024862Y-48421537D01*
X79348906Y-47745581D01*
X79315421Y-47684258D01*
X79320405Y-47614566D01*
X79362277Y-47558633D01*
X79427741Y-47534216D01*
X79436587Y-47533900D01*
X83480216Y-47533900D01*
X83480218Y-47533900D01*
X83588437Y-47504903D01*
X83685463Y-47448885D01*
X87831985Y-43302363D01*
X87888003Y-43205337D01*
X87917000Y-43097118D01*
X87917000Y-42985081D01*
X87917000Y-41112182D01*
X87916718Y-41111131D01*
X87888003Y-41003963D01*
X87831985Y-40906937D01*
X56628463Y-9703415D01*
X56531437Y-9647397D01*
X56423218Y-9618400D01*
X54195919Y-9618400D01*
X54083882Y-9618400D01*
X53975663Y-9647397D01*
X53975660Y-9647398D01*
X53878640Y-9703413D01*
X53878634Y-9703417D01*
X52595317Y-10986734D01*
X52595313Y-10986740D01*
X52539298Y-11083760D01*
X52539297Y-11083763D01*
X52510300Y-11191982D01*
X52510300Y-11650500D01*
X52490615Y-11717539D01*
X52437811Y-11763294D01*
X52386300Y-11774500D01*
X51305082Y-11774500D01*
X51196863Y-11803497D01*
X51196860Y-11803498D01*
X51099840Y-11859513D01*
X51099834Y-11859517D01*
X46343117Y-16616234D01*
X46343113Y-16616240D01*
X46287098Y-16713260D01*
X46287097Y-16713263D01*
X46258100Y-16821482D01*
X46258100Y-18089602D01*
X46238415Y-18156641D01*
X46221781Y-18177283D01*
X46203081Y-18195982D01*
X46203075Y-18195990D01*
X46124026Y-18332909D01*
X46124023Y-18332916D01*
X46083100Y-18485643D01*
X46083100Y-18643756D01*
X46124023Y-18796483D01*
X46124026Y-18796490D01*
X46203075Y-18933409D01*
X46203079Y-18933414D01*
X46203080Y-18933416D01*
X46314884Y-19045220D01*
X46314886Y-19045221D01*
X46314890Y-19045224D01*
X46451809Y-19124273D01*
X46451816Y-19124277D01*
X46604543Y-19165200D01*
X46604545Y-19165200D01*
X46762655Y-19165200D01*
X46762657Y-19165200D01*
X46915384Y-19124277D01*
X47052316Y-19045220D01*
X47164120Y-18933416D01*
X47243177Y-18796484D01*
X47284100Y-18643757D01*
X47284100Y-18485643D01*
X47243177Y-18332916D01*
X47243173Y-18332909D01*
X47164124Y-18195990D01*
X47164118Y-18195982D01*
X47145419Y-18177283D01*
X47111934Y-18115960D01*
X47109100Y-18089602D01*
X47109100Y-17105109D01*
X47128785Y-17038070D01*
X47145414Y-17017433D01*
X48672730Y-15490116D01*
X48734051Y-15456633D01*
X48803743Y-15461617D01*
X48859676Y-15503489D01*
X48867792Y-15515793D01*
X48869480Y-15518716D01*
X48981284Y-15630520D01*
X48981286Y-15630521D01*
X48981290Y-15630524D01*
X49118209Y-15709573D01*
X49118216Y-15709577D01*
X49270943Y-15750500D01*
X49297390Y-15750500D01*
X49364429Y-15770185D01*
X49385071Y-15786819D01*
X50908409Y-17310157D01*
X50931637Y-17342384D01*
X50937253Y-17353617D01*
X50953497Y-17414237D01*
X51009515Y-17511263D01*
X51022638Y-17524386D01*
X51031637Y-17542384D01*
X51033729Y-17554009D01*
X51040502Y-17565740D01*
X51046467Y-17588004D01*
X51044808Y-17657852D01*
X51005647Y-17715716D01*
X50941420Y-17743222D01*
X50926694Y-17744100D01*
X49650863Y-17744100D01*
X49612320Y-17736434D01*
X49612135Y-17737127D01*
X49604285Y-17735023D01*
X49604284Y-17735023D01*
X49451557Y-17694100D01*
X49293443Y-17694100D01*
X49140716Y-17735023D01*
X49140709Y-17735026D01*
X49003790Y-17814075D01*
X49003782Y-17814081D01*
X48891981Y-17925882D01*
X48891975Y-17925890D01*
X48812926Y-18062809D01*
X48812923Y-18062816D01*
X48772000Y-18215543D01*
X48772000Y-18373656D01*
X48812923Y-18526383D01*
X48812926Y-18526390D01*
X48891975Y-18663309D01*
X48891979Y-18663314D01*
X48891980Y-18663316D01*
X49003784Y-18775120D01*
X49003786Y-18775121D01*
X49003790Y-18775124D01*
X49040798Y-18796490D01*
X49140716Y-18854177D01*
X49293443Y-18895100D01*
X49293445Y-18895100D01*
X49451555Y-18895100D01*
X49451557Y-18895100D01*
X49604284Y-18854177D01*
X49604285Y-18854176D01*
X49612135Y-18852073D01*
X49612320Y-18852765D01*
X49650863Y-18845100D01*
X53153513Y-18845100D01*
X53182953Y-18853744D01*
X53212940Y-18860268D01*
X53217955Y-18864022D01*
X53220552Y-18864785D01*
X53241194Y-18881419D01*
X53353305Y-18993530D01*
X53375137Y-19026205D01*
X53375759Y-19025846D01*
X53458877Y-19169812D01*
X53458879Y-19169815D01*
X53458880Y-19169816D01*
X53570684Y-19281620D01*
X53570686Y-19281621D01*
X53570690Y-19281624D01*
X53700939Y-19356822D01*
X53707616Y-19360677D01*
X53860343Y-19401600D01*
X53860345Y-19401600D01*
X54018454Y-19401600D01*
X54018457Y-19401600D01*
X54107055Y-19377860D01*
X54176901Y-19379523D01*
X54234763Y-19418685D01*
X54262048Y-19481178D01*
X54525850Y-21451346D01*
X54515237Y-21520405D01*
X54510335Y-21529802D01*
X54430423Y-21668215D01*
X54430423Y-21668216D01*
X54389500Y-21820943D01*
X54389500Y-21979055D01*
X54390561Y-21987113D01*
X54387800Y-21987476D01*
X54386451Y-22043775D01*
X54347279Y-22101631D01*
X54283046Y-22129125D01*
X54268345Y-22130000D01*
X53590910Y-22130000D01*
X53523871Y-22110315D01*
X53503229Y-22093681D01*
X53417165Y-22007617D01*
X53417163Y-22007615D01*
X53320137Y-21951597D01*
X53211918Y-21922600D01*
X53211917Y-21922600D01*
X49219407Y-21922600D01*
X49152368Y-21902915D01*
X49106613Y-21850111D01*
X49095409Y-21799297D01*
X49095146Y-21752567D01*
X49095146Y-21752565D01*
X49081922Y-21683958D01*
X49081919Y-21683947D01*
X49081919Y-21683946D01*
X49073114Y-21654572D01*
X49064270Y-21625065D01*
X49048872Y-21601398D01*
X49003045Y-21530960D01*
X49003044Y-21530959D01*
X48954828Y-21480392D01*
X48917893Y-21451346D01*
X48886482Y-21426644D01*
X48886475Y-21426639D01*
X48812999Y-21384218D01*
X48787318Y-21364512D01*
X48755484Y-21332678D01*
X48735780Y-21307000D01*
X48682779Y-21215198D01*
X48682777Y-21215195D01*
X48682774Y-21215190D01*
X48682772Y-21215187D01*
X48636040Y-21153753D01*
X48614602Y-21131952D01*
X48592443Y-21109417D01*
X48531781Y-21061644D01*
X48323539Y-20936711D01*
X48320132Y-20934888D01*
X48297098Y-20922564D01*
X48297052Y-20922541D01*
X48275129Y-20912163D01*
X48275121Y-20912160D01*
X48275117Y-20912158D01*
X48247413Y-20900672D01*
X48247399Y-20900666D01*
X47901294Y-20776703D01*
X47901288Y-20776701D01*
X47872643Y-20768000D01*
X47872624Y-20767995D01*
X47849125Y-20762098D01*
X47849070Y-20762086D01*
X47819737Y-20756237D01*
X47819679Y-20756227D01*
X47456147Y-20702124D01*
X47456138Y-20702123D01*
X47456137Y-20702123D01*
X47446522Y-20701171D01*
X47426305Y-20699170D01*
X47426306Y-20699170D01*
X47402071Y-20697967D01*
X47402075Y-20697967D01*
X47372105Y-20697949D01*
X47004859Y-20715762D01*
X47004809Y-20715766D01*
X46974938Y-20718691D01*
X46974933Y-20718691D01*
X46974930Y-20718692D01*
X46950872Y-20722248D01*
X46921433Y-20728090D01*
X46564837Y-20817261D01*
X46564826Y-20817264D01*
X46536132Y-20825956D01*
X46513252Y-20834134D01*
X46485542Y-20845599D01*
X46485540Y-20845600D01*
X46153124Y-21002665D01*
X46153098Y-21002678D01*
X46126672Y-21016790D01*
X46105841Y-21029265D01*
X46080936Y-21045890D01*
X45787995Y-21262945D01*
X45787981Y-21262956D01*
X45759346Y-21287026D01*
X45747903Y-21297909D01*
X45737354Y-21307944D01*
X45737349Y-21307949D01*
X45737342Y-21307956D01*
X45711848Y-21335371D01*
X45416998Y-21694241D01*
X45369080Y-21752565D01*
X45354746Y-21770011D01*
X45341119Y-21787902D01*
X45330609Y-21802808D01*
X45318335Y-21821655D01*
X45137707Y-22122700D01*
X45086336Y-22170058D01*
X45017516Y-22182125D01*
X44953097Y-22155069D01*
X44933005Y-22134392D01*
X44930619Y-22131283D01*
X44818817Y-22019481D01*
X44818809Y-22019475D01*
X44681890Y-21940426D01*
X44681886Y-21940424D01*
X44681884Y-21940423D01*
X44529157Y-21899500D01*
X44529156Y-21899500D01*
X44502710Y-21899500D01*
X44435671Y-21879815D01*
X44415029Y-21863181D01*
X43784665Y-21232817D01*
X43784663Y-21232815D01*
X43687637Y-21176797D01*
X43579418Y-21147800D01*
X42942719Y-21147800D01*
X42830682Y-21147800D01*
X42722463Y-21176797D01*
X42722460Y-21176798D01*
X42625440Y-21232813D01*
X42625433Y-21232818D01*
X42577009Y-21281242D01*
X42515686Y-21314726D01*
X42445994Y-21309741D01*
X42390061Y-21267870D01*
X42365645Y-21202405D01*
X42380497Y-21134132D01*
X42381899Y-21131634D01*
X42400577Y-21099284D01*
X42441500Y-20946557D01*
X42441500Y-20788443D01*
X42400577Y-20635716D01*
X42356973Y-20560191D01*
X42321524Y-20498790D01*
X42321518Y-20498782D01*
X42209717Y-20386981D01*
X42209709Y-20386975D01*
X42072790Y-20307926D01*
X42072786Y-20307924D01*
X42072784Y-20307923D01*
X41920057Y-20267000D01*
X41761943Y-20267000D01*
X41609216Y-20307923D01*
X41609209Y-20307926D01*
X41472290Y-20386975D01*
X41472282Y-20386981D01*
X41360481Y-20498782D01*
X41360475Y-20498790D01*
X41281426Y-20635709D01*
X41281423Y-20635716D01*
X41240500Y-20788443D01*
X41240500Y-20814889D01*
X41220815Y-20881928D01*
X41204181Y-20902570D01*
X35764295Y-26342455D01*
X35764296Y-26342456D01*
X35702514Y-26404238D01*
X35702513Y-26404240D01*
X35646498Y-26501260D01*
X35646496Y-26501265D01*
X35638420Y-26531404D01*
X35602054Y-26591064D01*
X35539206Y-26621592D01*
X35469831Y-26613295D01*
X35432689Y-26588680D01*
X35359089Y-26517892D01*
X35359083Y-26517887D01*
X35359073Y-26517877D01*
X35356117Y-26515301D01*
X35336483Y-26498189D01*
X35329367Y-26492578D01*
X35317391Y-26483133D01*
X35317384Y-26483128D01*
X35292987Y-26465758D01*
X35292961Y-26465741D01*
X35089243Y-26335278D01*
X34978380Y-26264280D01*
X34965314Y-26256366D01*
X34954561Y-26250215D01*
X34954556Y-26250212D01*
X34954531Y-26250198D01*
X34941088Y-26242949D01*
X32263283Y-24884657D01*
X32238961Y-24873630D01*
X32238954Y-24873627D01*
X32218862Y-24865557D01*
X32206266Y-24861127D01*
X32193674Y-24856698D01*
X32006873Y-24800040D01*
X32006870Y-24800039D01*
X31866461Y-24757453D01*
X31841150Y-24749776D01*
X31841129Y-24749770D01*
X31810614Y-24742207D01*
X31810573Y-24742197D01*
X31785552Y-24737349D01*
X31785545Y-24737348D01*
X31785540Y-24737347D01*
X31754376Y-24732959D01*
X31350307Y-24697167D01*
X31320390Y-24695989D01*
X31296163Y-24696223D01*
X31296098Y-24696225D01*
X31266220Y-24697981D01*
X30936070Y-24733684D01*
X30913776Y-24736931D01*
X30895773Y-24740235D01*
X30873702Y-24745137D01*
X30664001Y-24799915D01*
X30642503Y-24806382D01*
X30625312Y-24812249D01*
X30604405Y-24820255D01*
X30295950Y-24951529D01*
X30275621Y-24961078D01*
X30259471Y-24969402D01*
X30243972Y-24978126D01*
X30239904Y-24980416D01*
X30239901Y-24980418D01*
X30055089Y-25093572D01*
X30036303Y-25106050D01*
X30021455Y-25116722D01*
X30003659Y-25130539D01*
X29746686Y-25345696D01*
X29729979Y-25360762D01*
X29716929Y-25373431D01*
X29701408Y-25389648D01*
X29557765Y-25551225D01*
X29542547Y-25569760D01*
X29530798Y-25585274D01*
X29517074Y-25604955D01*
X29317187Y-25917076D01*
X29302959Y-25941757D01*
X29302949Y-25941774D01*
X29292391Y-25962236D01*
X29292379Y-25962261D01*
X29280517Y-25988146D01*
X29156159Y-26296732D01*
X29148528Y-26317884D01*
X29142968Y-26335278D01*
X29136913Y-26356936D01*
X29086280Y-26567768D01*
X29081835Y-26589828D01*
X29078898Y-26607793D01*
X29076084Y-26630147D01*
X29046176Y-26967571D01*
X29045283Y-26981034D01*
X29044797Y-26992006D01*
X29044500Y-27005491D01*
X29044500Y-30870500D01*
X29024815Y-30937539D01*
X28972011Y-30983294D01*
X28920500Y-30994500D01*
X25268171Y-30994500D01*
X25201132Y-30974815D01*
X25155377Y-30922011D01*
X25149509Y-30906491D01*
X25132719Y-30851134D01*
X25043700Y-30557636D01*
X25033581Y-30529360D01*
X25024261Y-30506868D01*
X25011419Y-30479730D01*
X24904769Y-30280332D01*
X24838039Y-30155570D01*
X24835182Y-30150805D01*
X24822650Y-30129905D01*
X24809169Y-30109732D01*
X24791339Y-30085690D01*
X24560077Y-29803842D01*
X24534564Y-29776375D01*
X24534554Y-29776365D01*
X24534548Y-29776359D01*
X24534545Y-29776356D01*
X24512574Y-29755437D01*
X24512561Y-29755425D01*
X24483910Y-29731318D01*
X24483897Y-29731308D01*
X24483889Y-29731301D01*
X24482137Y-29730002D01*
X24037063Y-29399926D01*
X24037056Y-29399920D01*
X24005670Y-29379499D01*
X23979287Y-29364551D01*
X23972591Y-29361282D01*
X23945638Y-29348124D01*
X23945632Y-29348121D01*
X23945629Y-29348120D01*
X23784291Y-29281260D01*
X23608847Y-29208554D01*
X23608839Y-29208551D01*
X23580596Y-29198440D01*
X23580580Y-29198435D01*
X23557307Y-29191374D01*
X23557301Y-29191373D01*
X23528205Y-29184084D01*
X23170624Y-29112956D01*
X23170603Y-29112953D01*
X23133477Y-29107911D01*
X23103213Y-29105678D01*
X23069143Y-29105259D01*
X23065738Y-29105218D01*
X23065737Y-29105218D01*
X22762686Y-29120106D01*
X22694762Y-29103734D01*
X22646471Y-29053239D01*
X22633198Y-29008402D01*
X22617130Y-28845113D01*
X22611174Y-28808087D01*
X22604516Y-28778442D01*
X22594070Y-28742432D01*
X22594069Y-28742427D01*
X22406587Y-28218655D01*
X22406586Y-28218652D01*
X22406579Y-28218633D01*
X22391826Y-28184224D01*
X22391821Y-28184214D01*
X22391818Y-28184207D01*
X22378189Y-28157133D01*
X22372462Y-28147306D01*
X22359333Y-28124779D01*
X22158523Y-27824210D01*
X22135822Y-27794373D01*
X22115981Y-27771373D01*
X22089800Y-27744544D01*
X22089788Y-27744533D01*
X22089785Y-27744529D01*
X21677561Y-27370979D01*
X21648356Y-27347605D01*
X21648352Y-27347602D01*
X21636601Y-27339324D01*
X21623582Y-27330153D01*
X21623575Y-27330148D01*
X21623570Y-27330145D01*
X21623546Y-27330130D01*
X21591734Y-27310519D01*
X21591725Y-27310514D01*
X21591726Y-27310514D01*
X21591722Y-27310512D01*
X21355381Y-27184103D01*
X21270290Y-27138591D01*
X21270283Y-27138587D01*
X21270269Y-27138580D01*
X21254378Y-27131060D01*
X21243144Y-27125744D01*
X21243120Y-27125733D01*
X21220666Y-27116429D01*
X21220630Y-27116415D01*
X21200936Y-27109367D01*
X21192375Y-27106303D01*
X20840570Y-26999599D01*
X20840561Y-26999596D01*
X20840556Y-26999595D01*
X20840549Y-26999593D01*
X20840530Y-26999588D01*
X20811490Y-26992316D01*
X20811448Y-26992306D01*
X20787625Y-26987569D01*
X20757985Y-26983175D01*
X20757967Y-26983172D01*
X20394608Y-26947414D01*
X20394596Y-26947413D01*
X20358478Y-26946008D01*
X20358441Y-26946007D01*
X20329169Y-26946604D01*
X20293099Y-26949482D01*
X19327090Y-27084501D01*
X19303690Y-27088705D01*
X19284866Y-27092849D01*
X19261889Y-27098853D01*
X18910598Y-27205399D01*
X18910576Y-27205407D01*
X18910568Y-27205410D01*
X18875427Y-27218472D01*
X18875423Y-27218473D01*
X18875417Y-27218476D01*
X18847658Y-27230781D01*
X18847653Y-27230784D01*
X18814405Y-27248038D01*
X18336531Y-27534534D01*
X18307151Y-27554560D01*
X18284392Y-27572095D01*
X18284373Y-27572111D01*
X18257549Y-27595383D01*
X18257547Y-27595385D01*
X17727466Y-28112248D01*
X17727457Y-28112257D01*
X17727446Y-28112268D01*
X17715669Y-28124406D01*
X17715327Y-28124779D01*
X17706382Y-28134521D01*
X17695284Y-28147306D01*
X17458664Y-28435685D01*
X17440832Y-28459729D01*
X17440820Y-28459746D01*
X17427346Y-28479910D01*
X17411959Y-28505570D01*
X17238585Y-28829718D01*
X17238581Y-28829726D01*
X17225753Y-28856834D01*
X17225737Y-28856870D01*
X17216416Y-28879364D01*
X17206303Y-28907625D01*
X17099593Y-29259446D01*
X17092313Y-29288518D01*
X17087567Y-29312386D01*
X17083177Y-29342002D01*
X17083169Y-29342059D01*
X17046628Y-29713373D01*
X17045454Y-29729905D01*
X17044863Y-29743407D01*
X17044589Y-29760009D01*
X500500Y-29760009D01*
X500500Y-28070965D01*
X2279499Y-28070965D01*
X2307187Y-28210155D01*
X2307189Y-28210163D01*
X2361501Y-28341285D01*
X2361502Y-28341288D01*
X2440350Y-28459291D01*
X2440353Y-28459295D01*
X2540704Y-28559646D01*
X2540708Y-28559649D01*
X2658711Y-28638497D01*
X2658713Y-28638497D01*
X2658715Y-28638499D01*
X2789838Y-28692811D01*
X2823925Y-28699591D01*
X2929034Y-28720500D01*
X2929037Y-28720500D01*
X3070965Y-28720500D01*
X3141037Y-28706561D01*
X3210162Y-28692811D01*
X3341285Y-28638499D01*
X3459292Y-28559649D01*
X3559649Y-28459292D01*
X3638499Y-28341285D01*
X3692811Y-28210162D01*
X3720500Y-28070965D01*
X8279499Y-28070965D01*
X8307187Y-28210155D01*
X8307189Y-28210163D01*
X8361501Y-28341285D01*
X8361502Y-28341288D01*
X8440350Y-28459291D01*
X8440353Y-28459295D01*
X8540704Y-28559646D01*
X8540708Y-28559649D01*
X8658711Y-28638497D01*
X8658713Y-28638497D01*
X8658715Y-28638499D01*
X8789838Y-28692811D01*
X8823925Y-28699591D01*
X8929034Y-28720500D01*
X8929037Y-28720500D01*
X9070965Y-28720500D01*
X9141037Y-28706561D01*
X9210162Y-28692811D01*
X9341285Y-28638499D01*
X9459292Y-28559649D01*
X9559649Y-28459292D01*
X9638499Y-28341285D01*
X9692811Y-28210162D01*
X9720500Y-28070963D01*
X9720500Y-27929037D01*
X9720500Y-27929034D01*
X9692812Y-27789844D01*
X9692811Y-27789838D01*
X9638499Y-27658715D01*
X9638497Y-27658713D01*
X9638497Y-27658711D01*
X9559649Y-27540708D01*
X9559646Y-27540704D01*
X9459295Y-27440353D01*
X9459291Y-27440350D01*
X9341288Y-27361502D01*
X9341285Y-27361501D01*
X9210163Y-27307189D01*
X9210155Y-27307187D01*
X9070965Y-27279500D01*
X9070963Y-27279500D01*
X8929037Y-27279500D01*
X8929035Y-27279500D01*
X8789844Y-27307187D01*
X8789836Y-27307189D01*
X8658714Y-27361501D01*
X8658711Y-27361502D01*
X8540708Y-27440350D01*
X8540704Y-27440353D01*
X8440353Y-27540704D01*
X8440350Y-27540708D01*
X8361502Y-27658711D01*
X8361501Y-27658714D01*
X8307189Y-27789836D01*
X8307187Y-27789844D01*
X8279500Y-27929034D01*
X8279500Y-27929037D01*
X8279500Y-28070963D01*
X8279500Y-28070965D01*
X8279499Y-28070965D01*
X3720500Y-28070965D01*
X3720500Y-28070963D01*
X3720500Y-27929037D01*
X3720500Y-27929034D01*
X3692812Y-27789844D01*
X3692811Y-27789838D01*
X3638499Y-27658715D01*
X3638497Y-27658713D01*
X3638497Y-27658711D01*
X3559649Y-27540708D01*
X3559646Y-27540704D01*
X3459295Y-27440353D01*
X3459291Y-27440350D01*
X3341288Y-27361502D01*
X3341285Y-27361501D01*
X3210163Y-27307189D01*
X3210155Y-27307187D01*
X3070965Y-27279500D01*
X3070963Y-27279500D01*
X2929037Y-27279500D01*
X2929035Y-27279500D01*
X2789844Y-27307187D01*
X2789836Y-27307189D01*
X2658714Y-27361501D01*
X2658711Y-27361502D01*
X2540708Y-27440350D01*
X2540704Y-27440353D01*
X2440353Y-27540704D01*
X2440350Y-27540708D01*
X2361502Y-27658711D01*
X2361501Y-27658714D01*
X2307189Y-27789836D01*
X2307187Y-27789844D01*
X2279500Y-27929034D01*
X2279500Y-27929037D01*
X2279500Y-28070963D01*
X2279500Y-28070965D01*
X2279499Y-28070965D01*
X500500Y-28070965D01*
X500500Y-4803471D01*
X999500Y-4803471D01*
X999500Y-5196528D01*
X1038026Y-5587702D01*
X1114704Y-5973194D01*
X1114707Y-5973205D01*
X1228810Y-6349354D01*
X1379230Y-6712499D01*
X1379232Y-6712504D01*
X1564511Y-7059137D01*
X1564522Y-7059155D01*
X1782887Y-7385960D01*
X1782897Y-7385974D01*
X2032254Y-7689817D01*
X2310182Y-7967745D01*
X2310187Y-7967749D01*
X2310188Y-7967750D01*
X2614031Y-8217107D01*
X2940851Y-8435482D01*
X2940860Y-8435487D01*
X2940862Y-8435488D01*
X3287495Y-8620767D01*
X3287497Y-8620767D01*
X3287503Y-8620771D01*
X3650647Y-8771190D01*
X4026785Y-8885290D01*
X4026791Y-8885291D01*
X4026794Y-8885292D01*
X4026805Y-8885295D01*
X4412297Y-8961973D01*
X4803468Y-9000500D01*
X4803471Y-9000500D01*
X5196529Y-9000500D01*
X5196532Y-9000500D01*
X5587703Y-8961973D01*
X5662748Y-8947045D01*
X5973194Y-8885295D01*
X5973205Y-8885292D01*
X5973205Y-8885291D01*
X5973215Y-8885290D01*
X6349353Y-8771190D01*
X6712497Y-8620771D01*
X7059149Y-8435482D01*
X7385969Y-8217107D01*
X7689812Y-7967750D01*
X7967750Y-7689812D01*
X8217107Y-7385969D01*
X8435482Y-7059149D01*
X8620771Y-6712497D01*
X8771190Y-6349353D01*
X8885290Y-5973215D01*
X8885292Y-5973205D01*
X8885295Y-5973194D01*
X8961973Y-5587702D01*
X9000500Y-5196528D01*
X9000500Y-4803471D01*
X77999500Y-4803471D01*
X77999500Y-5196528D01*
X78038026Y-5587702D01*
X78114704Y-5973194D01*
X78114707Y-5973205D01*
X78228810Y-6349354D01*
X78379230Y-6712499D01*
X78379232Y-6712504D01*
X78564511Y-7059137D01*
X78564522Y-7059155D01*
X78782887Y-7385960D01*
X78782897Y-7385974D01*
X79032254Y-7689817D01*
X79310182Y-7967745D01*
X79310187Y-7967749D01*
X79310188Y-7967750D01*
X79614031Y-8217107D01*
X79940851Y-8435482D01*
X79940860Y-8435487D01*
X79940862Y-8435488D01*
X80287495Y-8620767D01*
X80287497Y-8620767D01*
X80287503Y-8620771D01*
X80650647Y-8771190D01*
X81026785Y-8885290D01*
X81026791Y-8885291D01*
X81026794Y-8885292D01*
X81026805Y-8885295D01*
X81412297Y-8961973D01*
X81803468Y-9000500D01*
X81803471Y-9000500D01*
X82196529Y-9000500D01*
X82196532Y-9000500D01*
X82587703Y-8961973D01*
X82662748Y-8947045D01*
X82973194Y-8885295D01*
X82973205Y-8885292D01*
X82973205Y-8885291D01*
X82973215Y-8885290D01*
X83349353Y-8771190D01*
X83712497Y-8620771D01*
X84059149Y-8435482D01*
X84385969Y-8217107D01*
X84689812Y-7967750D01*
X84967750Y-7689812D01*
X85217107Y-7385969D01*
X85435482Y-7059149D01*
X85620771Y-6712497D01*
X85771190Y-6349353D01*
X85885290Y-5973215D01*
X85885292Y-5973205D01*
X85885295Y-5973194D01*
X85961973Y-5587702D01*
X86000500Y-5196528D01*
X86000500Y-4803471D01*
X85961973Y-4412297D01*
X85885295Y-4026805D01*
X85885292Y-4026794D01*
X85885291Y-4026791D01*
X85885290Y-4026785D01*
X85771190Y-3650647D01*
X85620771Y-3287503D01*
X85435482Y-2940851D01*
X85217107Y-2614031D01*
X84967750Y-2310188D01*
X84967749Y-2310187D01*
X84967745Y-2310182D01*
X84689817Y-2032254D01*
X84385974Y-1782897D01*
X84385973Y-1782896D01*
X84385969Y-1782893D01*
X84059149Y-1564518D01*
X84059144Y-1564515D01*
X84059137Y-1564511D01*
X83712504Y-1379232D01*
X83712499Y-1379230D01*
X83349354Y-1228810D01*
X82973205Y-1114707D01*
X82973194Y-1114704D01*
X82587702Y-1038026D01*
X82293089Y-1009010D01*
X82196532Y-999500D01*
X81803468Y-999500D01*
X81714251Y-1008287D01*
X81412297Y-1038026D01*
X81026805Y-1114704D01*
X81026794Y-1114707D01*
X80650645Y-1228810D01*
X80287500Y-1379230D01*
X80287495Y-1379232D01*
X79940862Y-1564511D01*
X79940844Y-1564522D01*
X79614039Y-1782887D01*
X79614025Y-1782897D01*
X79310182Y-2032254D01*
X79032254Y-2310182D01*
X78782897Y-2614025D01*
X78782887Y-2614039D01*
X78564522Y-2940844D01*
X78564511Y-2940862D01*
X78379232Y-3287495D01*
X78379230Y-3287500D01*
X78228810Y-3650645D01*
X78114707Y-4026794D01*
X78114704Y-4026805D01*
X78038026Y-4412297D01*
X77999500Y-4803471D01*
X9000500Y-4803471D01*
X8961973Y-4412297D01*
X8885295Y-4026805D01*
X8885292Y-4026794D01*
X8885291Y-4026791D01*
X8885290Y-4026785D01*
X8771190Y-3650647D01*
X8620771Y-3287503D01*
X8435482Y-2940851D01*
X8217107Y-2614031D01*
X7967750Y-2310188D01*
X7967749Y-2310187D01*
X7967745Y-2310182D01*
X7689817Y-2032254D01*
X7385974Y-1782897D01*
X7385973Y-1782896D01*
X7385969Y-1782893D01*
X7059149Y-1564518D01*
X7059144Y-1564515D01*
X7059137Y-1564511D01*
X6712504Y-1379232D01*
X6712499Y-1379230D01*
X6349354Y-1228810D01*
X5973205Y-1114707D01*
X5973194Y-1114704D01*
X5587702Y-1038026D01*
X5293089Y-1009010D01*
X5196532Y-999500D01*
X4803468Y-999500D01*
X4714251Y-1008287D01*
X4412297Y-1038026D01*
X4026805Y-1114704D01*
X4026794Y-1114707D01*
X3650645Y-1228810D01*
X3287500Y-1379230D01*
X3287495Y-1379232D01*
X2940862Y-1564511D01*
X2940844Y-1564522D01*
X2614039Y-1782887D01*
X2614025Y-1782897D01*
X2310182Y-2032254D01*
X2032254Y-2310182D01*
X1782897Y-2614025D01*
X1782887Y-2614039D01*
X1564522Y-2940844D01*
X1564511Y-2940862D01*
X1379232Y-3287495D01*
X1379230Y-3287500D01*
X1228810Y-3650645D01*
X1114707Y-4026794D01*
X1114704Y-4026805D01*
X1038026Y-4412297D01*
X999500Y-4803471D01*
X500500Y-4803471D01*
X500500Y-624500D01*
X520185Y-557461D01*
X572989Y-511706D01*
X624500Y-500500D01*
X89375500Y-500500D01*
X89442539Y-520185D01*
G37*
%TD.AperFunction*%
%TD*%
%TA.AperFunction,Conductor*%
%TO.N,VBAT_PROTECTED*%
G36*
X31727421Y-25037268D02*
G01*
X31752470Y-25042122D01*
X31918201Y-25092388D01*
X32104998Y-25149045D01*
X32125090Y-25157115D01*
X34802871Y-26515395D01*
X34813624Y-26521546D01*
X35128216Y-26723014D01*
X35147300Y-26738064D01*
X35410076Y-26990798D01*
X35429217Y-27014364D01*
X35598599Y-27284885D01*
X35617500Y-27350688D01*
X35617500Y-29248917D01*
X35613407Y-29264280D01*
X35614092Y-29277790D01*
X35601072Y-29310595D01*
X35479547Y-29522546D01*
X35457020Y-29551109D01*
X35056593Y-29928478D01*
X35026715Y-29949289D01*
X34531281Y-30195403D01*
X34502679Y-30205472D01*
X34149545Y-30282922D01*
X34119304Y-30285746D01*
X33560443Y-30269169D01*
X33535885Y-30265967D01*
X33350000Y-30222500D01*
X33350000Y-33293911D01*
X33349404Y-33306055D01*
X33312796Y-33678042D01*
X33308054Y-33701889D01*
X33201351Y-34053692D01*
X33192031Y-34076184D01*
X33018647Y-34400351D01*
X33005166Y-34420524D01*
X32771954Y-34704749D01*
X32754749Y-34721954D01*
X32472910Y-34953209D01*
X32447287Y-34969435D01*
X31944431Y-35207355D01*
X31915589Y-35216885D01*
X31557881Y-35288036D01*
X31533892Y-35290419D01*
X25646000Y-35300000D01*
X25636405Y-55983719D01*
X25634022Y-56007852D01*
X25562284Y-56368509D01*
X25555220Y-56391790D01*
X25414470Y-56731430D01*
X25403023Y-56752843D01*
X25200500Y-57055976D01*
X25180659Y-57078976D01*
X24770719Y-57450457D01*
X24740487Y-57470659D01*
X24240431Y-57707255D01*
X24211589Y-57716785D01*
X23853980Y-57787917D01*
X23829789Y-57790300D01*
X23465290Y-57790300D01*
X23435166Y-57786585D01*
X22898451Y-57652170D01*
X22864817Y-57638238D01*
X22390307Y-57353758D01*
X22366390Y-57335090D01*
X22110809Y-57079509D01*
X22092142Y-57055593D01*
X21807660Y-56581079D01*
X21793729Y-56547448D01*
X21659308Y-56010706D01*
X21655593Y-55980638D01*
X21646000Y-34857000D01*
X21362986Y-34577669D01*
X21346985Y-34558300D01*
X21248641Y-34411100D01*
X21142973Y-34252939D01*
X21131531Y-34231534D01*
X20990779Y-33891890D01*
X20983715Y-33868609D01*
X20911983Y-33507980D01*
X20909600Y-33483789D01*
X20909600Y-31219290D01*
X20913315Y-31189166D01*
X20958235Y-31009800D01*
X21048480Y-30649450D01*
X21059421Y-30621099D01*
X21231352Y-30299648D01*
X21244833Y-30279475D01*
X21476098Y-29997623D01*
X21498087Y-29976687D01*
X21942435Y-29647149D01*
X21974507Y-29630005D01*
X22492474Y-29444601D01*
X22528174Y-29437497D01*
X23080729Y-29410350D01*
X23111001Y-29412583D01*
X23236251Y-29437497D01*
X23468609Y-29483715D01*
X23491890Y-29490779D01*
X23828681Y-29630349D01*
X23855074Y-29645303D01*
X24301908Y-29976684D01*
X24323904Y-29997627D01*
X24555166Y-30279475D01*
X24568647Y-30299648D01*
X24742031Y-30623815D01*
X24751351Y-30646307D01*
X24858360Y-30999117D01*
X24862879Y-31020887D01*
X24895100Y-31300000D01*
X29350000Y-31300000D01*
X29350000Y-27005487D01*
X29350484Y-26994539D01*
X29380392Y-26657112D01*
X29383336Y-26639104D01*
X29412372Y-26518200D01*
X29433965Y-26428288D01*
X29439518Y-26410917D01*
X29563867Y-26102352D01*
X29574452Y-26081836D01*
X29774337Y-25769717D01*
X29786083Y-25754208D01*
X29929732Y-25592625D01*
X29942798Y-25579940D01*
X30199772Y-25364783D01*
X30214609Y-25354118D01*
X30399427Y-25240959D01*
X30415587Y-25232630D01*
X30724021Y-25101365D01*
X30741202Y-25095500D01*
X30950934Y-25040715D01*
X30968921Y-25037413D01*
X31299076Y-25001710D01*
X31323347Y-25001476D01*
X31727421Y-25037268D01*
G37*
%TD.AperFunction*%
%TD*%
%TA.AperFunction,Conductor*%
%TO.N,VBAT_SYS*%
G36*
X49220217Y-22793285D02*
G01*
X49265972Y-22846089D01*
X49276588Y-22885517D01*
X49295708Y-23080807D01*
X49293906Y-23117127D01*
X49222633Y-23474737D01*
X49190225Y-23536636D01*
X49129496Y-23571187D01*
X49101025Y-23574500D01*
X48175098Y-23574500D01*
X48108059Y-23554815D01*
X48087417Y-23538181D01*
X48068717Y-23519481D01*
X48068709Y-23519475D01*
X47931790Y-23440426D01*
X47931786Y-23440424D01*
X47931784Y-23440423D01*
X47779057Y-23399500D01*
X47620943Y-23399500D01*
X47468216Y-23440423D01*
X47468209Y-23440426D01*
X47331290Y-23519475D01*
X47331282Y-23519481D01*
X47219481Y-23631282D01*
X47219475Y-23631290D01*
X47140426Y-23768209D01*
X47140423Y-23768216D01*
X47099500Y-23920943D01*
X47099500Y-24079056D01*
X47140423Y-24231783D01*
X47140426Y-24231790D01*
X47219475Y-24368709D01*
X47219479Y-24368714D01*
X47219480Y-24368716D01*
X47331284Y-24480520D01*
X47331286Y-24480521D01*
X47331290Y-24480524D01*
X47361541Y-24497989D01*
X47468216Y-24559577D01*
X47620943Y-24600500D01*
X47620945Y-24600500D01*
X47779055Y-24600500D01*
X47779057Y-24600500D01*
X47931784Y-24559577D01*
X48068716Y-24480520D01*
X48087417Y-24461819D01*
X48148740Y-24428334D01*
X48175098Y-24425500D01*
X48558093Y-24425500D01*
X48625132Y-24445185D01*
X48670887Y-24497989D01*
X48680831Y-24567147D01*
X48664422Y-24613297D01*
X45719711Y-29521147D01*
X45709192Y-29536068D01*
X45352104Y-29970688D01*
X45330116Y-29991601D01*
X45037209Y-30208631D01*
X45016361Y-30221115D01*
X44686735Y-30376862D01*
X44657888Y-30386377D01*
X44112194Y-30494625D01*
X44081931Y-30496843D01*
X43900264Y-30487843D01*
X43834281Y-30464866D01*
X43791195Y-30409862D01*
X43782400Y-30363995D01*
X43782400Y-26249710D01*
X43802085Y-26182671D01*
X43818719Y-26162029D01*
X47170829Y-22809919D01*
X47232152Y-22776434D01*
X47258510Y-22773600D01*
X49153178Y-22773600D01*
X49220217Y-22793285D01*
G37*
%TD.AperFunction*%
%TD*%
%TA.AperFunction,Conductor*%
%TO.N,3V8_MODEM*%
G36*
X66828570Y-35819790D02*
G01*
X66857788Y-35823505D01*
X67255585Y-35923187D01*
X67283873Y-35934099D01*
X67519026Y-36059743D01*
X67539236Y-36073242D01*
X67691043Y-36197800D01*
X67752391Y-36248136D01*
X67761416Y-36256316D01*
X71136157Y-39631148D01*
X71169642Y-39692471D01*
X71165009Y-39761203D01*
X71123409Y-39875602D01*
X71123404Y-39875619D01*
X71096473Y-40050939D01*
X71104263Y-40228145D01*
X71146476Y-40400439D01*
X71221487Y-40561177D01*
X71221490Y-40561182D01*
X71326415Y-40704193D01*
X71326418Y-40704195D01*
X71326419Y-40704197D01*
X71457235Y-40823998D01*
X71608909Y-40915974D01*
X71775612Y-40976594D01*
X71950938Y-41003526D01*
X71950938Y-41003525D01*
X71950939Y-41003526D01*
X71980473Y-41002227D01*
X72128150Y-40995736D01*
X72300438Y-40953524D01*
X72830280Y-40706263D01*
X72899352Y-40695752D01*
X72914800Y-40698854D01*
X72920943Y-40700500D01*
X72920945Y-40700500D01*
X73079055Y-40700500D01*
X73079057Y-40700500D01*
X73231784Y-40659577D01*
X73368716Y-40580520D01*
X73480520Y-40468716D01*
X73513056Y-40412359D01*
X73563622Y-40364144D01*
X73567970Y-40362008D01*
X74375561Y-39985132D01*
X74427999Y-39973500D01*
X75611537Y-39973500D01*
X75678576Y-39993185D01*
X75724331Y-40045989D01*
X75735537Y-40097500D01*
X75735537Y-40157785D01*
X75775362Y-40306412D01*
X75776460Y-40310511D01*
X75776463Y-40310518D01*
X75855512Y-40447437D01*
X75855516Y-40447442D01*
X75855517Y-40447444D01*
X75967321Y-40559248D01*
X75967323Y-40559249D01*
X75967327Y-40559252D01*
X76076188Y-40622102D01*
X76104253Y-40638305D01*
X76256980Y-40679228D01*
X76256982Y-40679228D01*
X76415092Y-40679228D01*
X76415094Y-40679228D01*
X76567821Y-40638305D01*
X76704753Y-40559248D01*
X76816557Y-40447444D01*
X76872341Y-40350821D01*
X76922906Y-40302608D01*
X76991513Y-40289384D01*
X77056378Y-40315352D01*
X77094288Y-40365370D01*
X77149057Y-40497596D01*
X77264024Y-40669657D01*
X77410342Y-40815975D01*
X77410345Y-40815977D01*
X77582402Y-40930941D01*
X77773580Y-41010130D01*
X77976530Y-41050499D01*
X77976534Y-41050500D01*
X77976535Y-41050500D01*
X78183466Y-41050500D01*
X78183467Y-41050499D01*
X78386420Y-41010130D01*
X78577598Y-40930941D01*
X78749655Y-40815977D01*
X78895977Y-40669655D01*
X79010941Y-40497598D01*
X79090130Y-40306420D01*
X79130500Y-40103465D01*
X79130500Y-39896535D01*
X79130499Y-39896533D01*
X79130120Y-39892682D01*
X79130500Y-39890677D01*
X79130500Y-39890443D01*
X79130544Y-39890443D01*
X79143134Y-39824035D01*
X79165830Y-39792852D01*
X80014994Y-38943606D01*
X80024015Y-38935431D01*
X80032300Y-38928634D01*
X80096615Y-38901331D01*
X80110949Y-38900500D01*
X81925500Y-38900500D01*
X81992539Y-38920185D01*
X82038294Y-38972989D01*
X82049500Y-39024500D01*
X82049500Y-41091718D01*
X82029815Y-41158757D01*
X82013467Y-41179113D01*
X81554689Y-41640895D01*
X81493475Y-41674580D01*
X81423768Y-41669823D01*
X81408272Y-41662860D01*
X81404100Y-41660630D01*
X81389813Y-41652994D01*
X81389804Y-41652990D01*
X81389782Y-41652978D01*
X81362701Y-41640172D01*
X81362664Y-41640156D01*
X81113551Y-41537008D01*
X81113545Y-41537006D01*
X81085374Y-41526928D01*
X81085364Y-41526925D01*
X81085353Y-41526921D01*
X81069686Y-41522168D01*
X81062127Y-41519875D01*
X81062102Y-41519868D01*
X81033095Y-41512600D01*
X80771082Y-41460451D01*
X80735305Y-41455507D01*
X80706169Y-41453224D01*
X80706146Y-41453223D01*
X80706145Y-41453222D01*
X80706122Y-41453222D01*
X80670067Y-41452533D01*
X80670065Y-41452533D01*
X80670063Y-41452533D01*
X80577440Y-41456240D01*
X80161045Y-41472908D01*
X80161032Y-41472909D01*
X80122390Y-41476930D01*
X80122376Y-41476932D01*
X80114290Y-41478297D01*
X80091330Y-41482176D01*
X80091322Y-41482177D01*
X80091321Y-41482178D01*
X80053484Y-41491076D01*
X80053484Y-41491077D01*
X79797439Y-41568782D01*
X79772807Y-41577423D01*
X79753189Y-41585260D01*
X79735853Y-41593059D01*
X79729393Y-41595966D01*
X79435445Y-41743612D01*
X78978943Y-41972906D01*
X78962606Y-41979699D01*
X78949714Y-41984009D01*
X78931989Y-41990549D01*
X78917786Y-41996295D01*
X78828212Y-42052222D01*
X78782221Y-42093534D01*
X78719193Y-42123688D01*
X78649868Y-42114979D01*
X78630470Y-42104386D01*
X78577599Y-42069059D01*
X78386420Y-41989870D01*
X78386412Y-41989868D01*
X78183469Y-41949500D01*
X78183465Y-41949500D01*
X77976535Y-41949500D01*
X77926457Y-41959460D01*
X77856865Y-41953231D01*
X77801689Y-41910367D01*
X77795230Y-41900442D01*
X77773915Y-41863997D01*
X77734399Y-41796429D01*
X77688644Y-41743625D01*
X77688642Y-41743623D01*
X77688632Y-41743612D01*
X77643916Y-41701451D01*
X77643913Y-41701449D01*
X77643911Y-41701447D01*
X77543835Y-41650561D01*
X77543834Y-41650560D01*
X77543833Y-41650560D01*
X77476802Y-41630877D01*
X77476796Y-41630876D01*
X77390724Y-41618500D01*
X77390721Y-41618500D01*
X74163640Y-41618500D01*
X74101640Y-41601887D01*
X74081786Y-41590424D01*
X74081785Y-41590423D01*
X74081784Y-41590423D01*
X73929057Y-41549500D01*
X73770943Y-41549500D01*
X73618216Y-41590423D01*
X73618213Y-41590424D01*
X73598360Y-41601887D01*
X73536360Y-41618500D01*
X73071934Y-41618500D01*
X73070696Y-41618541D01*
X73051526Y-41619181D01*
X73034995Y-41620288D01*
X73034992Y-41620289D01*
X72931006Y-41646078D01*
X72867203Y-41674522D01*
X72867185Y-41674531D01*
X72813843Y-41705082D01*
X72813838Y-41705086D01*
X72736090Y-41786065D01*
X72736086Y-41786070D01*
X72697782Y-41844501D01*
X72697782Y-41844502D01*
X72660944Y-41923267D01*
X72590013Y-42156994D01*
X72590012Y-42156997D01*
X72582722Y-42186088D01*
X72582716Y-42186113D01*
X72577980Y-42209918D01*
X72577977Y-42209937D01*
X72573572Y-42239628D01*
X72547164Y-42507924D01*
X72547164Y-42507934D01*
X72545695Y-42537859D01*
X72545695Y-42562140D01*
X72546098Y-42570346D01*
X72547164Y-42592072D01*
X72552495Y-42646231D01*
X72571307Y-42837356D01*
X72558285Y-42905999D01*
X72510217Y-42956706D01*
X72447904Y-42973500D01*
X71770487Y-42973500D01*
X71703448Y-42953815D01*
X71682806Y-42937181D01*
X66867595Y-38121970D01*
X66845762Y-38089295D01*
X66845141Y-38089654D01*
X66762024Y-37945690D01*
X66762018Y-37945682D01*
X66650217Y-37833881D01*
X66650209Y-37833875D01*
X66513290Y-37754826D01*
X66513286Y-37754824D01*
X66513284Y-37754823D01*
X66360557Y-37713900D01*
X66202443Y-37713900D01*
X66049716Y-37754823D01*
X66049709Y-37754826D01*
X65912790Y-37833875D01*
X65912782Y-37833881D01*
X65800981Y-37945682D01*
X65800975Y-37945690D01*
X65721926Y-38082609D01*
X65721923Y-38082616D01*
X65681000Y-38235343D01*
X65681000Y-38393456D01*
X65721923Y-38546183D01*
X65721926Y-38546190D01*
X65800975Y-38683109D01*
X65800979Y-38683114D01*
X65800980Y-38683116D01*
X65912784Y-38794920D01*
X66020055Y-38856852D01*
X66029337Y-38866586D01*
X66041437Y-38872460D01*
X66052976Y-38891378D01*
X66068270Y-38907418D01*
X66070815Y-38920625D01*
X66077820Y-38932109D01*
X66077299Y-38954263D01*
X66081494Y-38976025D01*
X66076494Y-38988512D01*
X66076179Y-39001960D01*
X66063761Y-39020318D01*
X66055526Y-39040890D01*
X66043716Y-39049954D01*
X66037034Y-39059834D01*
X66006902Y-39078212D01*
X65960561Y-39098073D01*
X65929913Y-39106757D01*
X65519452Y-39167657D01*
X65501253Y-39169000D01*
X56293525Y-39169000D01*
X56226486Y-39149315D01*
X56180731Y-39096511D01*
X56173750Y-39077093D01*
X56144577Y-38968216D01*
X56136521Y-38954263D01*
X56065524Y-38831290D01*
X56065518Y-38831282D01*
X55953717Y-38719481D01*
X55953709Y-38719475D01*
X55816790Y-38640426D01*
X55816786Y-38640424D01*
X55816784Y-38640423D01*
X55664057Y-38599500D01*
X55505943Y-38599500D01*
X55353216Y-38640423D01*
X55353209Y-38640426D01*
X55216290Y-38719475D01*
X55214989Y-38720474D01*
X55213692Y-38720975D01*
X55209245Y-38723543D01*
X55208844Y-38722849D01*
X55149820Y-38745670D01*
X55081375Y-38731633D01*
X55031384Y-38682820D01*
X55017280Y-38628908D01*
X55016561Y-38629003D01*
X55015806Y-38623270D01*
X55015500Y-38622100D01*
X55015500Y-38620945D01*
X55015500Y-38620943D01*
X54974577Y-38468216D01*
X54974573Y-38468209D01*
X54895524Y-38331290D01*
X54895518Y-38331282D01*
X54783717Y-38219481D01*
X54783709Y-38219475D01*
X54646790Y-38140426D01*
X54646786Y-38140424D01*
X54646784Y-38140423D01*
X54494057Y-38099500D01*
X54335943Y-38099500D01*
X54183216Y-38140423D01*
X54183209Y-38140426D01*
X54046290Y-38219475D01*
X54046282Y-38219481D01*
X53934481Y-38331282D01*
X53934475Y-38331290D01*
X53855426Y-38468209D01*
X53855423Y-38468216D01*
X53814500Y-38620943D01*
X53814500Y-38775936D01*
X53794815Y-38842975D01*
X53742011Y-38888730D01*
X53687184Y-38896951D01*
X53687184Y-38899500D01*
X53520943Y-38899500D01*
X53368216Y-38940423D01*
X53368209Y-38940426D01*
X53231290Y-39019475D01*
X53231282Y-39019481D01*
X53119481Y-39131282D01*
X53119475Y-39131290D01*
X53040426Y-39268209D01*
X53040423Y-39268216D01*
X52999500Y-39420943D01*
X52999500Y-39579057D01*
X53013458Y-39631148D01*
X53042527Y-39739636D01*
X53042112Y-39739747D01*
X53044477Y-39743427D01*
X53049500Y-39778362D01*
X53049500Y-40015937D01*
X53029815Y-40082976D01*
X53013181Y-40103618D01*
X52528181Y-40588617D01*
X52466858Y-40622102D01*
X52437184Y-40623341D01*
X52437184Y-40624500D01*
X52270943Y-40624500D01*
X52118216Y-40665423D01*
X52118209Y-40665426D01*
X51981290Y-40744475D01*
X51981282Y-40744481D01*
X51869481Y-40856282D01*
X51869475Y-40856290D01*
X51790426Y-40993209D01*
X51790423Y-40993216D01*
X51749500Y-41145943D01*
X51749500Y-41312184D01*
X51746872Y-41312184D01*
X51738101Y-41368369D01*
X51713617Y-41403181D01*
X51252802Y-41863997D01*
X51191479Y-41897482D01*
X51121788Y-41892498D01*
X51065854Y-41850627D01*
X51045347Y-41808412D01*
X51034577Y-41768216D01*
X50998129Y-41705086D01*
X50955524Y-41631290D01*
X50955518Y-41631282D01*
X50843717Y-41519481D01*
X50843709Y-41519475D01*
X50706790Y-41440426D01*
X50706786Y-41440424D01*
X50706784Y-41440423D01*
X50554057Y-41399500D01*
X50395943Y-41399500D01*
X50243216Y-41440423D01*
X50243209Y-41440426D01*
X50106290Y-41519475D01*
X50106282Y-41519481D01*
X49994481Y-41631282D01*
X49994475Y-41631290D01*
X49915426Y-41768209D01*
X49915423Y-41768216D01*
X49874500Y-41920943D01*
X49874500Y-42079057D01*
X49913606Y-42225000D01*
X49915423Y-42231783D01*
X49915426Y-42231790D01*
X49994475Y-42368709D01*
X49994479Y-42368714D01*
X49994480Y-42368716D01*
X50106284Y-42480520D01*
X50106286Y-42480521D01*
X50106290Y-42480524D01*
X50205599Y-42537859D01*
X50243216Y-42559577D01*
X50283410Y-42570347D01*
X50343069Y-42606710D01*
X50373599Y-42669557D01*
X50365305Y-42738933D01*
X50338997Y-42777802D01*
X48649600Y-44467199D01*
X48649600Y-51889152D01*
X48648257Y-51907351D01*
X48602241Y-52217490D01*
X48572931Y-52280914D01*
X48513983Y-52318424D01*
X48506502Y-52320334D01*
X48229103Y-52382023D01*
X48159389Y-52377361D01*
X48140185Y-52368367D01*
X48091786Y-52340424D01*
X48091785Y-52340423D01*
X48091784Y-52340423D01*
X47939057Y-52299500D01*
X47780943Y-52299500D01*
X47628216Y-52340423D01*
X47628209Y-52340426D01*
X47491290Y-52419475D01*
X47491282Y-52419481D01*
X47379481Y-52531282D01*
X47379475Y-52531290D01*
X47300426Y-52668209D01*
X47300423Y-52668216D01*
X47259500Y-52820943D01*
X47259500Y-52979057D01*
X47277701Y-53046982D01*
X47300423Y-53131783D01*
X47300423Y-53131784D01*
X47342752Y-53205101D01*
X47344183Y-53211002D01*
X47348158Y-53215589D01*
X47352323Y-53244557D01*
X47359223Y-53273001D01*
X47357237Y-53278736D01*
X47358102Y-53284747D01*
X47345942Y-53311372D01*
X47336371Y-53339028D01*
X47331598Y-53342780D01*
X47329077Y-53348303D01*
X47304454Y-53364126D01*
X47281449Y-53382218D01*
X47274099Y-53383634D01*
X47270299Y-53386077D01*
X47235364Y-53391100D01*
X47017900Y-53391100D01*
X46987759Y-53387381D01*
X46593432Y-53288568D01*
X46559829Y-53274648D01*
X46211119Y-53065662D01*
X46187182Y-53046982D01*
X46000917Y-52860717D01*
X45982237Y-52836780D01*
X45881215Y-52668216D01*
X45771654Y-52485406D01*
X45759362Y-52457679D01*
X45681949Y-52202594D01*
X45677203Y-52178741D01*
X45650196Y-51904355D01*
X45649600Y-51892209D01*
X45649600Y-44789087D01*
X45669285Y-44722048D01*
X45685919Y-44701406D01*
X53239406Y-37147919D01*
X53300729Y-37114434D01*
X53327087Y-37111600D01*
X60217437Y-37111600D01*
X60255979Y-37119265D01*
X60256165Y-37118573D01*
X60264014Y-37120676D01*
X60264016Y-37120677D01*
X60416743Y-37161600D01*
X60416745Y-37161600D01*
X60574855Y-37161600D01*
X60574857Y-37161600D01*
X60727584Y-37120677D01*
X60864516Y-37041620D01*
X60976320Y-36929816D01*
X61055377Y-36792884D01*
X61096300Y-36640157D01*
X61096300Y-36482043D01*
X61055377Y-36329316D01*
X61055375Y-36329313D01*
X61054245Y-36325094D01*
X61055908Y-36255244D01*
X61095070Y-36197381D01*
X61159299Y-36169877D01*
X61174020Y-36169000D01*
X64897699Y-36169000D01*
X64897700Y-36169000D01*
X65146413Y-35998822D01*
X65174647Y-35984416D01*
X65559701Y-35846651D01*
X65589314Y-35840002D01*
X65860188Y-35813340D01*
X65873239Y-35812748D01*
X66828570Y-35819790D01*
G37*
%TD.AperFunction*%
%TD*%
%TA.AperFunction,Conductor*%
%TO.N,3V3_DIGITAL*%
G36*
X82176521Y-36506195D02*
G01*
X82243538Y-36525953D01*
X82264066Y-36542514D01*
X84413668Y-38692116D01*
X84447153Y-38753439D01*
X84449987Y-38779799D01*
X84449959Y-40611386D01*
X84430273Y-40678425D01*
X84401446Y-40709759D01*
X84243338Y-40831081D01*
X84081081Y-40993338D01*
X83941392Y-41175382D01*
X83826657Y-41374109D01*
X83826650Y-41374123D01*
X83738842Y-41586112D01*
X83679453Y-41807759D01*
X83679451Y-41807770D01*
X83649500Y-42035258D01*
X83649500Y-42264741D01*
X83674446Y-42454215D01*
X83679452Y-42492238D01*
X83720151Y-42644129D01*
X83738842Y-42713887D01*
X83826650Y-42925876D01*
X83826656Y-42925888D01*
X83918671Y-43085264D01*
X83941392Y-43124617D01*
X84081081Y-43306661D01*
X84081089Y-43306670D01*
X84243329Y-43468910D01*
X84243333Y-43468913D01*
X84243339Y-43468919D01*
X84401401Y-43590205D01*
X84442601Y-43646630D01*
X84449912Y-43688580D01*
X84449900Y-44506960D01*
X84448349Y-44526512D01*
X84383345Y-44933580D01*
X84372692Y-44967670D01*
X84205005Y-45317132D01*
X84185081Y-45346767D01*
X83908324Y-45652081D01*
X83893771Y-45665744D01*
X82652382Y-46655842D01*
X82587697Y-46682255D01*
X82575063Y-46682900D01*
X79831735Y-46682900D01*
X79820516Y-46679605D01*
X79808880Y-46680776D01*
X79787600Y-46669940D01*
X79764696Y-46663215D01*
X79755455Y-46653572D01*
X79746617Y-46649072D01*
X79724661Y-46621439D01*
X79695597Y-46571678D01*
X79683627Y-46543844D01*
X79609027Y-46287956D01*
X79604538Y-46264002D01*
X79581158Y-45995357D01*
X79581432Y-45971070D01*
X79605824Y-45748958D01*
X79632709Y-45684468D01*
X79673353Y-45651723D01*
X79928200Y-45523518D01*
X79940292Y-45518224D01*
X80358451Y-45361170D01*
X80373216Y-45355181D01*
X80385071Y-45350008D01*
X80399514Y-45343252D01*
X81384027Y-44850996D01*
X81407304Y-44838059D01*
X81425708Y-44826754D01*
X81447772Y-44811839D01*
X81777881Y-44567058D01*
X81811937Y-44537683D01*
X81837683Y-44511937D01*
X81867058Y-44477881D01*
X82109184Y-44151352D01*
X82129616Y-44119939D01*
X82144579Y-44093519D01*
X82161011Y-44059840D01*
X82262992Y-43813545D01*
X82273076Y-43785358D01*
X82280124Y-43762125D01*
X82280132Y-43762095D01*
X82287399Y-43733091D01*
X82304608Y-43646630D01*
X82340038Y-43468617D01*
X82344443Y-43438940D01*
X82346828Y-43414735D01*
X82348300Y-43384778D01*
X82348300Y-43115221D01*
X82346828Y-43085264D01*
X82344443Y-43061059D01*
X82343786Y-43056635D01*
X82340041Y-43031398D01*
X82340038Y-43031382D01*
X82287403Y-42766926D01*
X82287401Y-42766921D01*
X82287399Y-42766907D01*
X82280130Y-42737897D01*
X82280127Y-42737884D01*
X82280124Y-42737874D01*
X82273076Y-42714641D01*
X82262993Y-42686454D01*
X82262412Y-42685052D01*
X82159845Y-42437341D01*
X82159838Y-42437323D01*
X82147007Y-42410191D01*
X82135536Y-42388729D01*
X82125286Y-42371630D01*
X82120108Y-42362989D01*
X82120100Y-42362978D01*
X82108651Y-42345847D01*
X82054448Y-42264741D01*
X81970287Y-42138807D01*
X81970275Y-42138791D01*
X81952433Y-42114738D01*
X81952409Y-42114706D01*
X81937018Y-42095955D01*
X81936328Y-42095194D01*
X81916887Y-42073745D01*
X81916881Y-42073739D01*
X81916872Y-42073729D01*
X81822896Y-41979753D01*
X81789411Y-41918430D01*
X81794395Y-41848738D01*
X81822606Y-41804682D01*
X82230192Y-41394428D01*
X82251661Y-41370408D01*
X82268009Y-41350052D01*
X82272053Y-41344905D01*
X82322939Y-41244829D01*
X82342624Y-41177790D01*
X82355000Y-41091718D01*
X82355000Y-39024500D01*
X82348018Y-38959559D01*
X82336812Y-38908048D01*
X82325854Y-38869842D01*
X82269175Y-38772929D01*
X82223420Y-38720125D01*
X82223418Y-38720123D01*
X82223408Y-38720112D01*
X82178692Y-38677951D01*
X82178689Y-38677949D01*
X82178687Y-38677947D01*
X82078611Y-38627061D01*
X82078610Y-38627060D01*
X82078609Y-38627060D01*
X82011578Y-38607377D01*
X82011572Y-38607376D01*
X81925500Y-38595000D01*
X80110949Y-38595000D01*
X80110948Y-38595000D01*
X80093259Y-38595512D01*
X80078932Y-38596342D01*
X79977242Y-38620119D01*
X79977233Y-38620122D01*
X79912921Y-38647424D01*
X79912920Y-38647424D01*
X79838531Y-38692447D01*
X79830249Y-38699242D01*
X79818855Y-38709068D01*
X79809849Y-38717229D01*
X79798960Y-38727595D01*
X79123103Y-39403517D01*
X79061782Y-39437005D01*
X78992090Y-39432024D01*
X78936154Y-39390155D01*
X78932326Y-39384746D01*
X78895977Y-39330345D01*
X78895975Y-39330342D01*
X78749657Y-39184024D01*
X78622511Y-39099069D01*
X78577598Y-39069059D01*
X78534410Y-39051170D01*
X78386420Y-38989870D01*
X78386412Y-38989868D01*
X78183469Y-38949500D01*
X78183465Y-38949500D01*
X77976535Y-38949500D01*
X77976530Y-38949500D01*
X77773587Y-38989868D01*
X77773579Y-38989870D01*
X77582403Y-39069058D01*
X77442908Y-39162264D01*
X77376230Y-39183141D01*
X77308850Y-39164656D01*
X77262160Y-39112676D01*
X77251078Y-39075341D01*
X77250500Y-39070954D01*
X77250500Y-39070943D01*
X77209577Y-38918216D01*
X77199869Y-38901401D01*
X77130524Y-38781290D01*
X77130518Y-38781282D01*
X77018717Y-38669481D01*
X77018709Y-38669475D01*
X76881790Y-38590426D01*
X76881786Y-38590424D01*
X76881784Y-38590423D01*
X76729057Y-38549500D01*
X76570943Y-38549500D01*
X76418216Y-38590423D01*
X76418209Y-38590426D01*
X76281290Y-38669475D01*
X76281282Y-38669481D01*
X76169481Y-38781282D01*
X76169475Y-38781290D01*
X76090426Y-38918209D01*
X76090423Y-38918216D01*
X76049500Y-39070943D01*
X76049500Y-39229057D01*
X76089643Y-39378871D01*
X76090423Y-39381783D01*
X76090426Y-39381790D01*
X76091365Y-39383417D01*
X76091437Y-39383714D01*
X76091658Y-39383927D01*
X76092124Y-39385890D01*
X76093534Y-39389294D01*
X76092986Y-39389520D01*
X76099682Y-39417710D01*
X76107833Y-39451318D01*
X76107733Y-39451606D01*
X76107804Y-39451905D01*
X76096296Y-39484644D01*
X76084977Y-39517344D01*
X76084702Y-39517630D01*
X76084635Y-39517822D01*
X76083763Y-39518610D01*
X76060156Y-39543248D01*
X76053389Y-39548516D01*
X75967321Y-39598208D01*
X75889039Y-39676489D01*
X75882972Y-39681214D01*
X75857334Y-39691335D01*
X75833147Y-39704542D01*
X75825302Y-39703980D01*
X75817984Y-39706870D01*
X75790942Y-39701523D01*
X75770619Y-39700069D01*
X75770148Y-39701676D01*
X75697615Y-39680377D01*
X75697609Y-39680376D01*
X75611537Y-39668000D01*
X74427999Y-39668000D01*
X74427991Y-39668000D01*
X74361835Y-39675250D01*
X74309408Y-39686880D01*
X74309394Y-39686884D01*
X74250558Y-39706870D01*
X74246369Y-39708293D01*
X74088938Y-39781761D01*
X73438755Y-40085179D01*
X73433231Y-40087825D01*
X73428923Y-40089942D01*
X73428921Y-40089943D01*
X73352803Y-40143043D01*
X73352801Y-40143045D01*
X73302234Y-40191260D01*
X73248479Y-40259617D01*
X73248478Y-40259618D01*
X73244212Y-40267008D01*
X73224510Y-40292682D01*
X73192679Y-40324513D01*
X73166997Y-40344220D01*
X73127999Y-40366735D01*
X73098097Y-40379121D01*
X73086335Y-40382272D01*
X73054608Y-40390774D01*
X73022515Y-40395000D01*
X72908797Y-40395000D01*
X72905886Y-40394966D01*
X72861645Y-40393923D01*
X72853393Y-40393729D01*
X72853392Y-40393729D01*
X72784320Y-40404240D01*
X72784319Y-40404240D01*
X72784314Y-40404241D01*
X72784311Y-40404242D01*
X72701087Y-40429424D01*
X72209578Y-40658795D01*
X72186649Y-40666866D01*
X72096531Y-40688946D01*
X72072467Y-40692388D01*
X71979778Y-40696462D01*
X71955506Y-40695144D01*
X71863809Y-40681058D01*
X71840259Y-40675030D01*
X71753069Y-40643324D01*
X71731150Y-40632818D01*
X71651812Y-40584707D01*
X71632362Y-40570126D01*
X71563936Y-40507462D01*
X71547705Y-40489367D01*
X71503746Y-40429452D01*
X71492828Y-40414571D01*
X71480440Y-40393659D01*
X71441204Y-40309580D01*
X71433133Y-40286652D01*
X71430196Y-40274665D01*
X71411050Y-40196522D01*
X71407609Y-40172463D01*
X71403982Y-40089945D01*
X71403535Y-40079781D01*
X71404851Y-40055520D01*
X71418939Y-39963805D01*
X71424968Y-39940259D01*
X71452116Y-39865606D01*
X71469817Y-39781749D01*
X71474450Y-39713017D01*
X71472556Y-39652807D01*
X71437773Y-39546060D01*
X71437772Y-39546059D01*
X71437771Y-39546055D01*
X71404291Y-39484742D01*
X71404290Y-39484741D01*
X71404288Y-39484737D01*
X71352181Y-39415130D01*
X71352178Y-39415127D01*
X71352167Y-39415115D01*
X71055004Y-39117944D01*
X71049051Y-39107043D01*
X71039526Y-39099069D01*
X71032621Y-39076952D01*
X71021519Y-39056620D01*
X71022405Y-39044230D01*
X71018704Y-39032374D01*
X71024851Y-39010037D01*
X71026505Y-38986929D01*
X71034398Y-38975351D01*
X71037245Y-38965009D01*
X71059894Y-38937953D01*
X71103624Y-38898738D01*
X71123189Y-38884385D01*
X71360458Y-38743805D01*
X71371211Y-38738128D01*
X75858960Y-36643844D01*
X75872772Y-36638383D01*
X76194487Y-36533028D01*
X76220920Y-36527469D01*
X76493891Y-36500601D01*
X76506142Y-36500006D01*
X82176521Y-36506195D01*
G37*
%TD.AperFunction*%
%TD*%
%TA.AperFunction,Conductor*%
%TO.N,VBAT_FUSED*%
G36*
X20728047Y-27287204D02*
G01*
X20751885Y-27291944D01*
X21103700Y-27398651D01*
X21126184Y-27407968D01*
X21447637Y-27579900D01*
X21472419Y-27597357D01*
X21884659Y-27970923D01*
X21904500Y-27993923D01*
X22105310Y-28294492D01*
X22118950Y-28321588D01*
X22306441Y-28845387D01*
X22313099Y-28875032D01*
X22333025Y-29077516D01*
X22320000Y-29146161D01*
X22271931Y-29196867D01*
X22251410Y-29206406D01*
X21871557Y-29342373D01*
X21871526Y-29342386D01*
X21830490Y-29360580D01*
X21830485Y-29360583D01*
X21798407Y-29377730D01*
X21798403Y-29377732D01*
X21760455Y-29401763D01*
X21316095Y-29731310D01*
X21287426Y-29755435D01*
X21265434Y-29776374D01*
X21239935Y-29803826D01*
X21008664Y-30085685D01*
X20990832Y-30109729D01*
X20990820Y-30109746D01*
X20977346Y-30129910D01*
X20961959Y-30155570D01*
X20790045Y-30476989D01*
X20790028Y-30477023D01*
X20774413Y-30511096D01*
X20763468Y-30539458D01*
X20752133Y-30575231D01*
X20752127Y-30575251D01*
X20616965Y-31114954D01*
X20610112Y-31151773D01*
X20610112Y-31151774D01*
X20606397Y-31181898D01*
X20605252Y-31200546D01*
X20604100Y-31219298D01*
X20604100Y-32422572D01*
X20600155Y-32436005D01*
X20601033Y-32449978D01*
X20590506Y-32468865D01*
X20584415Y-32489611D01*
X20573149Y-32500009D01*
X20567019Y-32511009D01*
X20538584Y-32531914D01*
X20428903Y-32590578D01*
X20400544Y-32601520D01*
X19860834Y-32736685D01*
X19830710Y-32740400D01*
X19469290Y-32740400D01*
X19439166Y-32736685D01*
X18902451Y-32602270D01*
X18868815Y-32588336D01*
X18393476Y-32303359D01*
X18370925Y-32286038D01*
X17940874Y-31869119D01*
X17931324Y-31858745D01*
X17694833Y-31570524D01*
X17681352Y-31550351D01*
X17509421Y-31228900D01*
X17498480Y-31200546D01*
X17363150Y-30660178D01*
X17359443Y-30631385D01*
X17358842Y-30575251D01*
X17351831Y-29920943D01*
X19399500Y-29920943D01*
X19399500Y-30079057D01*
X19407720Y-30109732D01*
X19440423Y-30231783D01*
X19440426Y-30231790D01*
X19519475Y-30368709D01*
X19519479Y-30368714D01*
X19519480Y-30368716D01*
X19631284Y-30480520D01*
X19631286Y-30480521D01*
X19631290Y-30480524D01*
X19733372Y-30539460D01*
X19768216Y-30559577D01*
X19920943Y-30600500D01*
X19920945Y-30600500D01*
X20079055Y-30600500D01*
X20079057Y-30600500D01*
X20231784Y-30559577D01*
X20368716Y-30480520D01*
X20480520Y-30368716D01*
X20559577Y-30231784D01*
X20600500Y-30079057D01*
X20600500Y-29920943D01*
X20559577Y-29768216D01*
X20526965Y-29711730D01*
X20480524Y-29631290D01*
X20480518Y-29631282D01*
X20368717Y-29519481D01*
X20368709Y-29519475D01*
X20231790Y-29440426D01*
X20231786Y-29440424D01*
X20231784Y-29440423D01*
X20079057Y-29399500D01*
X19920943Y-29399500D01*
X19768216Y-29440423D01*
X19768209Y-29440426D01*
X19631290Y-29519475D01*
X19631282Y-29519481D01*
X19519481Y-29631282D01*
X19519475Y-29631290D01*
X19440426Y-29768209D01*
X19440423Y-29768216D01*
X19399500Y-29920943D01*
X17351831Y-29920943D01*
X17350072Y-29756744D01*
X17350661Y-29743279D01*
X17361683Y-29631282D01*
X17387204Y-29371950D01*
X17391943Y-29348116D01*
X17498652Y-28996296D01*
X17507968Y-28973815D01*
X17681352Y-28649648D01*
X17694833Y-28629475D01*
X17931446Y-28341105D01*
X17940723Y-28330999D01*
X18470829Y-27814112D01*
X18493618Y-27796554D01*
X18971481Y-27510064D01*
X18999238Y-27497759D01*
X19350556Y-27391203D01*
X19369368Y-27387062D01*
X20335383Y-27252042D01*
X20364684Y-27251445D01*
X20728047Y-27287204D01*
G37*
%TD.AperFunction*%
%TD*%
M02*
