%TF.GenerationSoftware,KiCad,Pcbnew,9.0.9*%
%TF.CreationDate,2026-09-25T12:06:13+00:00*%
%TF.ProjectId,PCB-PWR,5043422d-5057-4522-9e6b-696361645f70,rev?*%
%TF.SameCoordinates,Original*%
%TF.FileFunction,Other,User*%
%FSLAX46Y46*%
G04 Gerber Fmt 4.6, Leading zero omitted, Abs format (unit mm)*
G04 Created by KiCad (PCBNEW 9.0.9) date 2026-09-25 12:06:13*
%MOMM*%
%LPD*%
G01*
G04 APERTURE LIST*
%ADD10C,0.050000*%
G04 APERTURE END LIST*
%TO.C,R6*%
D10*
X47070000Y-18030000D02*
X48930000Y-18030000D01*
X48930000Y-18970000D01*
X47070000Y-18970000D01*
X47070000Y-18030000D01*
%TO.C,C12*%
X46700000Y-40400000D02*
X51300000Y-40400000D01*
X51300000Y-43600000D01*
X46700000Y-43600000D01*
X46700000Y-40400000D01*
%TO.C,R7*%
X49070000Y-46530000D02*
X50930000Y-46530000D01*
X50930000Y-47470000D01*
X49070000Y-47470000D01*
X49070000Y-46530000D01*
%TO.C,C21*%
X51620000Y-43480000D02*
X53080000Y-43480000D01*
X53080000Y-40520000D01*
X51620000Y-40520000D01*
X51620000Y-43480000D01*
%TO.C,C1*%
X19090000Y-25540000D02*
X20910000Y-25540000D01*
X20910000Y-26460000D01*
X19090000Y-26460000D01*
X19090000Y-25540000D01*
%TO.C,C4*%
X58260000Y-13120000D02*
X57340000Y-13120000D01*
X57340000Y-14940000D01*
X58260000Y-14940000D01*
X58260000Y-13120000D01*
%TO.C,TP7*%
X41390000Y-56000000D02*
G75*
G02*
X39090000Y-56000000I-1150000J0D01*
G01*
X39090000Y-56000000D02*
G75*
G02*
X41390000Y-56000000I1150000J0D01*
G01*
%TO.C,H3*%
X73000000Y-55000000D02*
G75*
G02*
X63000000Y-55000000I-5000000J0D01*
G01*
X63000000Y-55000000D02*
G75*
G02*
X73000000Y-55000000I5000000J0D01*
G01*
%TO.C,C16*%
X71700000Y-15400000D02*
X76300000Y-15400000D01*
X76300000Y-18600000D01*
X71700000Y-18600000D01*
X71700000Y-15400000D01*
%TO.C,C6*%
X58260000Y-41120000D02*
X57340000Y-41120000D01*
X57340000Y-42940000D01*
X58260000Y-42940000D01*
X58260000Y-41120000D01*
%TO.C,R10*%
X57070000Y-46530000D02*
X58930000Y-46530000D01*
X58930000Y-47470000D01*
X57070000Y-47470000D01*
X57070000Y-46530000D01*
%TO.C,C7*%
X72920000Y-49270000D02*
X75880000Y-49270000D01*
X75880000Y-50730000D01*
X72920000Y-50730000D01*
X72920000Y-49270000D01*
%TO.C,C10*%
X31700000Y-24400000D02*
X36300000Y-24400000D01*
X36300000Y-27600000D01*
X31700000Y-27600000D01*
X31700000Y-24400000D01*
%TO.C,H2*%
X87000000Y-5000000D02*
G75*
G02*
X77000000Y-5000000I-5000000J0D01*
G01*
X77000000Y-5000000D02*
G75*
G02*
X87000000Y-5000000I5000000J0D01*
G01*
%TO.C,R3*%
X49570000Y-18530000D02*
X51430000Y-18530000D01*
X51430000Y-19470000D01*
X49570000Y-19470000D01*
X49570000Y-18530000D01*
%TO.C,C17*%
X71700000Y-36400000D02*
X76300000Y-36400000D01*
X76300000Y-39600000D01*
X71700000Y-39600000D01*
X71700000Y-36400000D01*
%TO.C,U1*%
X17900000Y-28220000D02*
X22100000Y-28220000D01*
X22100000Y-31780000D01*
X17900000Y-31780000D01*
X17900000Y-28220000D01*
%TO.C,C20*%
X51620000Y-15480000D02*
X53080000Y-15480000D01*
X53080000Y-12520000D01*
X51620000Y-12520000D01*
X51620000Y-15480000D01*
%TO.C,TP6*%
X38850000Y-56000000D02*
G75*
G02*
X36550000Y-56000000I-1150000J0D01*
G01*
X36550000Y-56000000D02*
G75*
G02*
X38850000Y-56000000I1150000J0D01*
G01*
%TO.C,J1*%
X2170000Y-24200000D02*
X9830000Y-24200000D01*
X9830000Y-35300000D01*
X2170000Y-35300000D01*
X2170000Y-24200000D01*
%TO.C,H4*%
X10000000Y-55000000D02*
G75*
G02*
X0Y-55000000I-5000000J0D01*
G01*
X0Y-55000000D02*
G75*
G02*
X10000000Y-55000000I5000000J0D01*
G01*
%TO.C,R2*%
X57570000Y-18530000D02*
X59430000Y-18530000D01*
X59430000Y-19470000D01*
X57570000Y-19470000D01*
X57570000Y-18530000D01*
%TO.C,C13*%
X42300000Y-30950000D02*
X42300000Y-33050000D01*
X42300000Y-33050000D02*
X43450000Y-33050000D01*
X43450000Y-29600000D02*
X43450000Y-30950000D01*
X43450000Y-29600000D02*
X44600000Y-28450000D01*
X43450000Y-30950000D02*
X42300000Y-30950000D01*
X43450000Y-33050000D02*
X43450000Y-34400000D01*
X43450000Y-34400000D02*
X44600000Y-35550000D01*
X44600000Y-28450000D02*
X50550000Y-28450000D01*
X44600000Y-35550000D02*
X50550000Y-35550000D01*
X50550000Y-28450000D02*
X50550000Y-30950000D01*
X50550000Y-30950000D02*
X51700000Y-30950000D01*
X50550000Y-33050000D02*
X50550000Y-35550000D01*
X51700000Y-30950000D02*
X51700000Y-33050000D01*
X51700000Y-33050000D02*
X50550000Y-33050000D01*
%TO.C,TP9*%
X46470000Y-56000000D02*
G75*
G02*
X44170000Y-56000000I-1150000J0D01*
G01*
X44170000Y-56000000D02*
G75*
G02*
X46470000Y-56000000I1150000J0D01*
G01*
%TO.C,TP8*%
X43930000Y-56000000D02*
G75*
G02*
X41630000Y-56000000I-1150000J0D01*
G01*
X41630000Y-56000000D02*
G75*
G02*
X43930000Y-56000000I1150000J0D01*
G01*
%TO.C,R11*%
X65070000Y-48530000D02*
X66930000Y-48530000D01*
X66930000Y-49470000D01*
X65070000Y-49470000D01*
X65070000Y-48530000D01*
%TO.C,Q1*%
X23294000Y-27250000D02*
X30706000Y-27250000D01*
X30706000Y-32750000D01*
X23294000Y-32750000D01*
X23294000Y-27250000D01*
%TO.C,TP2*%
X28690000Y-56000000D02*
G75*
G02*
X26390000Y-56000000I-1150000J0D01*
G01*
X26390000Y-56000000D02*
G75*
G02*
X28690000Y-56000000I1150000J0D01*
G01*
%TO.C,RSH1*%
X32120000Y-29100000D02*
X40880000Y-29100000D01*
X40880000Y-32900000D01*
X32120000Y-32900000D01*
X32120000Y-29100000D01*
%TO.C,C18*%
X66700000Y-43400000D02*
X71300000Y-43400000D01*
X71300000Y-46600000D01*
X66700000Y-46600000D01*
X66700000Y-43400000D01*
%TO.C,R13*%
X73670000Y-56030000D02*
X75530000Y-56030000D01*
X75530000Y-56970000D01*
X73670000Y-56970000D01*
X73670000Y-56030000D01*
%TO.C,U3*%
X53300000Y-15500000D02*
X56700000Y-15500000D01*
X56700000Y-12500000D01*
X53300000Y-12500000D01*
X53300000Y-15500000D01*
%TO.C,H1*%
X10000000Y-5000000D02*
G75*
G02*
X0Y-5000000I-5000000J0D01*
G01*
X0Y-5000000D02*
G75*
G02*
X10000000Y-5000000I5000000J0D01*
G01*
%TO.C,R4*%
X52070000Y-20530000D02*
X53930000Y-20530000D01*
X53930000Y-21470000D01*
X52070000Y-21470000D01*
X52070000Y-20530000D01*
%TO.C,L2*%
X66500000Y-46000000D02*
X58500000Y-46000000D01*
X58500000Y-38000000D01*
X66500000Y-38000000D01*
X66500000Y-46000000D01*
%TO.C,R14*%
X73670000Y-57530000D02*
X75530000Y-57530000D01*
X75530000Y-58470000D01*
X73670000Y-58470000D01*
X73670000Y-57530000D01*
%TO.C,R9*%
X54070000Y-48530000D02*
X55930000Y-48530000D01*
X55930000Y-49470000D01*
X54070000Y-49470000D01*
X54070000Y-48530000D01*
%TO.C,U2*%
X40820000Y-21500000D02*
X47180000Y-21500000D01*
X47180000Y-24500000D01*
X40820000Y-24500000D01*
X40820000Y-21500000D01*
%TO.C,C5*%
X66700000Y-36400000D02*
X71300000Y-36400000D01*
X71300000Y-39600000D01*
X66700000Y-39600000D01*
X66700000Y-36400000D01*
%TO.C,F1*%
X10720000Y-27870000D02*
X15280000Y-27870000D01*
X15280000Y-30130000D01*
X10720000Y-30130000D01*
X10720000Y-27870000D01*
%TO.C,C3*%
X66700000Y-8400000D02*
X71300000Y-8400000D01*
X71300000Y-11600000D01*
X66700000Y-11600000D01*
X66700000Y-8400000D01*
%TO.C,C2*%
X47590000Y-21540000D02*
X49410000Y-21540000D01*
X49410000Y-22460000D01*
X47590000Y-22460000D01*
X47590000Y-21540000D01*
%TO.C,R15*%
X60070000Y-20030000D02*
X61930000Y-20030000D01*
X61930000Y-20970000D01*
X60070000Y-20970000D01*
X60070000Y-20030000D01*
%TO.C,D1*%
X12250000Y-30350000D02*
X16750000Y-30350000D01*
X12250000Y-37650000D02*
X12250000Y-30350000D01*
X16750000Y-30350000D02*
X16750000Y-37650000D01*
X16750000Y-37650000D02*
X12250000Y-37650000D01*
%TO.C,C19*%
X71700000Y-40650000D02*
X76300000Y-40650000D01*
X76300000Y-43850000D01*
X71700000Y-43850000D01*
X71700000Y-40650000D01*
%TO.C,C11*%
X46700000Y-12400000D02*
X51300000Y-12400000D01*
X51300000Y-15600000D01*
X46700000Y-15600000D01*
X46700000Y-12400000D01*
%TO.C,TP1*%
X26150000Y-56000000D02*
G75*
G02*
X23850000Y-56000000I-1150000J0D01*
G01*
X23850000Y-56000000D02*
G75*
G02*
X26150000Y-56000000I1150000J0D01*
G01*
%TO.C,R1*%
X55070000Y-18530000D02*
X56930000Y-18530000D01*
X56930000Y-19470000D01*
X55070000Y-19470000D01*
X55070000Y-18530000D01*
%TO.C,TP10*%
X49010000Y-56000000D02*
G75*
G02*
X46710000Y-56000000I-1150000J0D01*
G01*
X46710000Y-56000000D02*
G75*
G02*
X49010000Y-56000000I1150000J0D01*
G01*
%TO.C,R8*%
X51570000Y-48530000D02*
X53430000Y-48530000D01*
X53430000Y-49470000D01*
X51570000Y-49470000D01*
X51570000Y-48530000D01*
%TO.C,C9*%
X14520000Y-26020000D02*
X17480000Y-26020000D01*
X17480000Y-27480000D01*
X14520000Y-27480000D01*
X14520000Y-26020000D01*
%TO.C,C15*%
X66700000Y-15400000D02*
X71300000Y-15400000D01*
X71300000Y-18600000D01*
X66700000Y-18600000D01*
X66700000Y-15400000D01*
%TO.C,TP3*%
X31230000Y-56000000D02*
G75*
G02*
X28930000Y-56000000I-1150000J0D01*
G01*
X28930000Y-56000000D02*
G75*
G02*
X31230000Y-56000000I1150000J0D01*
G01*
%TO.C,J2*%
X90500000Y-35920000D02*
X76830000Y-35920000D01*
X76830000Y-59080000D01*
X90500000Y-59080000D01*
X90500000Y-35920000D01*
%TO.C,U4*%
X53300000Y-43500000D02*
X56700000Y-43500000D01*
X56700000Y-40500000D01*
X53300000Y-40500000D01*
X53300000Y-43500000D01*
%TO.C,R5*%
X54570000Y-20530000D02*
X56430000Y-20530000D01*
X56430000Y-21470000D01*
X54570000Y-21470000D01*
X54570000Y-20530000D01*
%TO.C,C8*%
X73420000Y-53270000D02*
X76380000Y-53270000D01*
X76380000Y-54730000D01*
X73420000Y-54730000D01*
X73420000Y-53270000D01*
%TO.C,R12*%
X67570000Y-48530000D02*
X69430000Y-48530000D01*
X69430000Y-49470000D01*
X67570000Y-49470000D01*
X67570000Y-48530000D01*
%TO.C,L1*%
X66500000Y-18000000D02*
X58500000Y-18000000D01*
X58500000Y-10000000D01*
X66500000Y-10000000D01*
X66500000Y-18000000D01*
%TO.C,C14*%
X71700000Y-8400000D02*
X76300000Y-8400000D01*
X76300000Y-11600000D01*
X71700000Y-11600000D01*
X71700000Y-8400000D01*
%TO.C,U5*%
X72300000Y-44220000D02*
X76500000Y-44220000D01*
X76500000Y-47780000D01*
X72300000Y-47780000D01*
X72300000Y-44220000D01*
%TO.C,TP5*%
X36310000Y-56000000D02*
G75*
G02*
X34010000Y-56000000I-1150000J0D01*
G01*
X34010000Y-56000000D02*
G75*
G02*
X36310000Y-56000000I1150000J0D01*
G01*
%TO.C,TP4*%
X33770000Y-56000000D02*
G75*
G02*
X31470000Y-56000000I-1150000J0D01*
G01*
X31470000Y-56000000D02*
G75*
G02*
X33770000Y-56000000I1150000J0D01*
G01*
%TD*%
M02*
