%TF.GenerationSoftware,KiCad,Pcbnew,9.0.9*%
%TF.CreationDate,2026-09-24T12:47:44+00:00*%
%TF.ProjectId,PCB-MIC,5043422d-4d49-4432-9e6b-696361645f70,A*%
%TF.SameCoordinates,Original*%
%TF.FileFunction,Soldermask,Top*%
%TF.FilePolarity,Negative*%
%FSLAX46Y46*%
G04 Gerber Fmt 4.6, Leading zero omitted, Abs format (unit mm)*
G04 Created by KiCad (PCBNEW 9.0.9) date 2026-09-24 12:47:44*
%MOMM*%
%LPD*%
G01*
G04 APERTURE LIST*
G04 Aperture macros list*
%AMRoundRect*
0 Rectangle with rounded corners*
0 $1 Rounding radius*
0 $2 $3 $4 $5 $6 $7 $8 $9 X,Y pos of 4 corners*
0 Add a 4 corners polygon primitive as box body*
4,1,4,$2,$3,$4,$5,$6,$7,$8,$9,$2,$3,0*
0 Add four circle primitives for the rounded corners*
1,1,$1+$1,$2,$3*
1,1,$1+$1,$4,$5*
1,1,$1+$1,$6,$7*
1,1,$1+$1,$8,$9*
0 Add four rect primitives between the rounded corners*
20,1,$1+$1,$2,$3,$4,$5,0*
20,1,$1+$1,$4,$5,$6,$7,0*
20,1,$1+$1,$6,$7,$8,$9,0*
20,1,$1+$1,$8,$9,$2,$3,0*%
%AMRotRect*
0 Rectangle, with rotation*
0 The origin of the aperture is its center*
0 $1 length*
0 $2 width*
0 $3 Rotation angle, in degrees counterclockwise*
0 Add horizontal line*
21,1,$1,$2,0,0,$3*%
G04 Aperture macros list end*
%ADD10C,0.800000*%
%ADD11R,0.725000X0.522000*%
%ADD12R,0.300000X0.145691*%
%ADD13RotRect,0.145691X0.300000X281.250000*%
%ADD14RotRect,0.145691X0.300000X258.750000*%
%ADD15RotRect,0.145691X0.300000X292.500000*%
%ADD16RotRect,0.145691X0.300000X247.500000*%
%ADD17RotRect,0.145691X0.300000X303.750000*%
%ADD18RotRect,0.145691X0.300000X236.250000*%
%ADD19RotRect,0.145691X0.300000X315.000000*%
%ADD20RotRect,0.145691X0.300000X225.000000*%
%ADD21RotRect,0.145691X0.300000X326.250000*%
%ADD22RotRect,0.145691X0.300000X213.750000*%
%ADD23RotRect,0.145691X0.300000X337.500000*%
%ADD24RotRect,0.145691X0.300000X202.500000*%
%ADD25RotRect,0.145691X0.300000X348.750000*%
%ADD26RotRect,0.145691X0.300000X191.250000*%
%ADD27R,0.145691X0.300000*%
%ADD28RotRect,0.145691X0.300000X11.250000*%
%ADD29RotRect,0.145691X0.300000X168.750000*%
%ADD30RotRect,0.145691X0.300000X22.500000*%
%ADD31RotRect,0.145691X0.300000X157.500000*%
%ADD32RotRect,0.145691X0.300000X33.750000*%
%ADD33RotRect,0.145691X0.300000X146.250000*%
%ADD34RotRect,0.145691X0.300000X45.000000*%
%ADD35RotRect,0.145691X0.300000X135.000000*%
%ADD36RotRect,0.145691X0.300000X56.250000*%
%ADD37RotRect,0.145691X0.300000X123.750000*%
%ADD38RotRect,0.145691X0.300000X67.500000*%
%ADD39RotRect,0.145691X0.300000X112.500000*%
%ADD40RotRect,0.145691X0.300000X78.750000*%
%ADD41RotRect,0.145691X0.300000X101.250000*%
%ADD42R,0.300000X0.300000*%
%ADD43RoundRect,0.140000X-0.140000X-0.170000X0.140000X-0.170000X0.140000X0.170000X-0.140000X0.170000X0*%
%ADD44R,1.250000X1.800000*%
%ADD45R,0.600000X1.000000*%
%ADD46RoundRect,0.135000X-0.185000X0.135000X-0.185000X-0.135000X0.185000X-0.135000X0.185000X0.135000X0*%
%ADD47C,2.200000*%
%ADD48C,0.350000*%
G04 APERTURE END LIST*
D10*
%TO.C,MK1*%
X12000000Y-16649999D03*
D11*
X11370000Y-14580000D03*
X11370000Y-15400000D03*
D12*
X11337500Y-16649999D03*
D13*
X11350229Y-16520752D03*
D14*
X11350229Y-16779247D03*
D15*
X11387929Y-16396472D03*
D16*
X11387929Y-16903527D03*
D17*
X11449151Y-16281934D03*
D18*
X11449151Y-17018065D03*
D19*
X11531541Y-16181541D03*
D20*
X11531541Y-17118458D03*
D21*
X11631934Y-16099151D03*
D22*
X11631934Y-17200848D03*
D23*
X11746472Y-16037929D03*
D24*
X11746472Y-17262070D03*
D25*
X11870752Y-16000229D03*
D26*
X11870752Y-17299770D03*
D27*
X12000000Y-15987499D03*
X12000000Y-17312500D03*
D28*
X12129247Y-16000229D03*
D29*
X12129247Y-17299770D03*
D30*
X12253527Y-16037929D03*
D31*
X12253527Y-17262070D03*
D32*
X12368065Y-16099151D03*
D33*
X12368065Y-17200848D03*
D34*
X12468458Y-16181541D03*
D35*
X12468458Y-17118458D03*
D36*
X12550848Y-16281934D03*
D37*
X12550848Y-17018065D03*
D38*
X12612070Y-16396472D03*
D39*
X12612070Y-16903527D03*
D40*
X12649770Y-16520752D03*
D41*
X12649770Y-16779247D03*
D12*
X12662500Y-16649999D03*
D42*
X10930000Y-17420000D03*
X13070000Y-17420000D03*
D11*
X12630000Y-15400000D03*
X12630000Y-14580000D03*
%TD*%
D43*
%TO.C,C1*%
X13620000Y-13250000D03*
X14580000Y-13250000D03*
%TD*%
D44*
%TO.C,J1*%
X18350000Y-2410000D03*
X5650000Y-2410000D03*
D45*
X15750000Y-7590000D03*
X14250000Y-7590000D03*
X12750000Y-7590000D03*
X11250000Y-7590000D03*
X9750000Y-7590000D03*
X8250000Y-7590000D03*
%TD*%
D46*
%TO.C,R1*%
X11250000Y-10040000D03*
X11250000Y-11060000D03*
%TD*%
D47*
%TO.C,H1*%
X4000000Y-16649999D03*
%TD*%
%TO.C,H2*%
X20000000Y-16649999D03*
%TD*%
D48*
X12000000Y-16649999D03*
X4000000Y-16649999D03*
X20000000Y-16649999D03*
M02*
