%TF.GenerationSoftware,KiCad,Pcbnew,9.0.9*%
%TF.CreationDate,2026-09-24T12:47:44+00:00*%
%TF.ProjectId,PCB-MIC,5043422d-4d49-4432-9e6b-696361645f70,A*%
%TF.SameCoordinates,Original*%
%TF.FileFunction,Legend,Top*%
%TF.FilePolarity,Positive*%
%FSLAX46Y46*%
G04 Gerber Fmt 4.6, Leading zero omitted, Abs format (unit mm)*
G04 Created by KiCad (PCBNEW 9.0.9) date 2026-09-24 12:47:44*
%MOMM*%
%LPD*%
G01*
G04 APERTURE LIST*
%ADD10C,0.120000*%
%ADD11C,0.250000*%
%ADD12C,0.400000*%
%ADD13C,0.060000*%
%ADD14C,0.350000*%
G04 APERTURE END LIST*
D10*
%TO.C,C1*%
X13992164Y-12890000D02*
X14207836Y-12890000D01*
X13992164Y-13610000D02*
X14207836Y-13610000D01*
D11*
%TO.C,J1*%
X5400000Y-1300000D02*
X7500000Y-1300000D01*
X5400000Y-7590000D02*
X5400000Y-3550000D01*
X7500000Y-1300000D02*
X7500000Y-3550000D01*
X7500000Y-3550000D02*
X16500000Y-3550000D01*
X7720000Y-7590000D02*
X5400000Y-7590000D01*
X9000000Y-4140000D02*
X9750000Y-4140000D01*
X9000000Y-5040000D02*
X9000000Y-4140000D01*
X9220000Y-7590000D02*
X8780000Y-7590000D01*
X9750000Y-4140000D02*
X9750000Y-5040000D01*
X9750000Y-5040000D02*
X9000000Y-5040000D01*
X10720000Y-7590000D02*
X10280000Y-7590000D01*
X12220000Y-7590000D02*
X11780000Y-7590000D01*
X13720000Y-7590000D02*
X13280000Y-7590000D01*
X14250000Y-4140000D02*
X15000000Y-4140000D01*
X14250000Y-5040000D02*
X14250000Y-4140000D01*
X15000000Y-4140000D02*
X15000000Y-5040000D01*
X15000000Y-5040000D02*
X14250000Y-5040000D01*
X15220000Y-7590000D02*
X14780000Y-7590000D01*
X15750000Y-4290000D02*
X16500000Y-4290000D01*
X16050000Y-3550000D02*
X15750000Y-4290000D01*
X16500000Y-1300000D02*
X18600000Y-1300000D01*
X16500000Y-3550000D02*
X16500000Y-1300000D01*
X16500000Y-4290000D02*
X16200000Y-3550000D01*
X18600000Y-7590000D02*
X16280000Y-7590000D01*
X18600000Y-7590000D02*
X18600000Y-3550000D01*
D12*
X17110000Y-8250000D02*
G75*
G02*
X16710000Y-8250000I-200000J0D01*
G01*
X16710000Y-8250000D02*
G75*
G02*
X17110000Y-8250000I200000J0D01*
G01*
D13*
X18790000Y-7900000D02*
G75*
G02*
X18730000Y-7900000I-30000J0D01*
G01*
X18730000Y-7900000D02*
G75*
G02*
X18790000Y-7900000I30000J0D01*
G01*
D10*
%TO.C,R1*%
X10870000Y-10396359D02*
X10870000Y-10703641D01*
X11630000Y-10396359D02*
X11630000Y-10703641D01*
%TD*%
D14*
X12000000Y-16649999D03*
X4000000Y-16649999D03*
X20000000Y-16649999D03*
M02*
