%TF.GenerationSoftware,KiCad,Pcbnew,9.0.9*%
%TF.CreationDate,2026-09-25T13:47:01+00:00*%
%TF.ProjectId,PCB-PWR,5043422d-5057-4522-9e6b-696361645f70,rev?*%
%TF.SameCoordinates,Original*%
%TF.FileFunction,Soldermask,Top*%
%TF.FilePolarity,Negative*%
%FSLAX46Y46*%
G04 Gerber Fmt 4.6, Leading zero omitted, Abs format (unit mm)*
G04 Created by KiCad (PCBNEW 9.0.9) date 2026-09-25 13:47:01*
%MOMM*%
%LPD*%
G01*
G04 APERTURE LIST*
G04 Aperture macros list*
%AMRoundRect*
0 Rectangle with rounded corners*
0 $1 Rounding radius*
0 $2 $3 $4 $5 $6 $7 $8 $9 X,Y pos of 4 corners*
0 Add a 4 corners polygon primitive as box body*
4,1,4,$2,$3,$4,$5,$6,$7,$8,$9,$2,$3,0*
0 Add four circle primitives for the rounded corners*
1,1,$1+$1,$2,$3*
1,1,$1+$1,$4,$5*
1,1,$1+$1,$6,$7*
1,1,$1+$1,$8,$9*
0 Add four rect primitives between the rounded corners*
20,1,$1+$1,$2,$3,$4,$5,0*
20,1,$1+$1,$4,$5,$6,$7,0*
20,1,$1+$1,$6,$7,$8,$9,0*
20,1,$1+$1,$8,$9,$2,$3,0*%
%AMFreePoly0*
4,1,17,-0.027000,0.214000,0.037000,0.161000,0.069000,0.150000,1.150000,0.150000,1.200000,0.100000,1.200000,-0.100000,1.150000,-0.150000,0.069000,-0.150000,0.037000,-0.161000,-0.027000,-0.214000,-0.059000,-0.225000,-1.150000,-0.225000,-1.200000,-0.175000,-1.200000,0.175000,-1.150000,0.225000,-0.059000,0.225000,-0.027000,0.214000,-0.027000,0.214000,$1*%
G04 Aperture macros list end*
%ADD10RoundRect,0.135000X-0.135000X-0.185000X0.135000X-0.185000X0.135000X0.185000X-0.135000X0.185000X0*%
%ADD11RoundRect,0.250000X-0.325000X-1.100000X0.325000X-1.100000X0.325000X1.100000X-0.325000X1.100000X0*%
%ADD12RoundRect,0.225000X0.250000X-0.225000X0.250000X0.225000X-0.250000X0.225000X-0.250000X-0.225000X0*%
%ADD13RoundRect,0.140000X-0.140000X-0.170000X0.140000X-0.170000X0.140000X0.170000X-0.140000X0.170000X0*%
%ADD14RoundRect,0.140000X-0.170000X0.140000X-0.170000X-0.140000X0.170000X-0.140000X0.170000X0.140000X0*%
%ADD15C,2.100000*%
%ADD16C,3.400000*%
%ADD17RoundRect,0.225000X-0.225000X-0.250000X0.225000X-0.250000X0.225000X0.250000X-0.225000X0.250000X0*%
%ADD18RoundRect,0.123334X-0.496666X-0.246666X0.496666X-0.246666X0.496666X0.246666X-0.496666X0.246666X0*%
%ADD19C,0.940000*%
%ADD20RoundRect,0.300000X-0.450000X-0.450000X0.450000X-0.450000X0.450000X0.450000X-0.450000X0.450000X0*%
%ADD21C,1.500000*%
%ADD22RoundRect,0.250000X-1.500000X-0.550000X1.500000X-0.550000X1.500000X0.550000X-1.500000X0.550000X0*%
%ADD23R,1.372000X0.710000*%
%ADD24R,4.440000X0.710000*%
%ADD25R,3.850000X0.560000*%
%ADD26R,2.290000X2.030000*%
%ADD27R,1.700000X0.760000*%
%ADD28FreePoly0,90.000000*%
%ADD29RoundRect,0.128985X0.093515X-0.221015X0.093515X0.221015X-0.093515X0.221015X-0.093515X-0.221015X0*%
%ADD30RoundRect,0.140000X0.257500X-0.035000X0.257500X0.035000X-0.257500X0.035000X-0.257500X-0.035000X0*%
%ADD31RoundRect,0.140000X0.235000X-0.035000X0.235000X0.035000X-0.235000X0.035000X-0.235000X-0.035000X0*%
%ADD32RoundRect,0.133333X0.191667X-0.066667X0.191667X0.066667X-0.191667X0.066667X-0.191667X-0.066667X0*%
%ADD33RoundRect,0.150000X0.000010X-0.250000X0.000010X0.250000X-0.000010X0.250000X-0.000010X-0.250000X0*%
%ADD34RoundRect,0.140000X0.035000X-0.235000X0.035000X0.235000X-0.035000X0.235000X-0.035000X-0.235000X0*%
%ADD35R,1.580000X6.500000*%
%ADD36RoundRect,0.133333X-0.641667X-0.066667X0.641667X-0.066667X0.641667X0.066667X-0.641667X0.066667X0*%
%ADD37RoundRect,0.250000X-0.375000X-0.625000X0.375000X-0.625000X0.375000X0.625000X-0.375000X0.625000X0*%
%ADD38RoundRect,0.250000X0.900000X-1.000000X0.900000X1.000000X-0.900000X1.000000X-0.900000X-1.000000X0*%
%ADD39C,3.000000*%
%ADD40RoundRect,0.300000X-0.450000X0.450000X-0.450000X-0.450000X0.450000X-0.450000X0.450000X0.450000X0*%
G04 APERTURE END LIST*
D10*
%TO.C,R6*%
X47490000Y-18500000D03*
X48510000Y-18500000D03*
%TD*%
D11*
%TO.C,C12*%
X47525000Y-42000000D03*
X50475000Y-42000000D03*
%TD*%
D10*
%TO.C,R7*%
X49490000Y-47000000D03*
X50510000Y-47000000D03*
%TD*%
D12*
%TO.C,C21*%
X52350000Y-42775000D03*
X52350000Y-41225000D03*
%TD*%
D13*
%TO.C,C1*%
X19520000Y-26000000D03*
X20480000Y-26000000D03*
%TD*%
D14*
%TO.C,C4*%
X57800000Y-13550000D03*
X57800000Y-14510000D03*
%TD*%
D15*
%TO.C,TP7*%
X40240000Y-56000000D03*
%TD*%
D16*
%TO.C,H3*%
X68000000Y-55000000D03*
%TD*%
D11*
%TO.C,C16*%
X72525000Y-17000000D03*
X75475000Y-17000000D03*
%TD*%
D14*
%TO.C,C6*%
X57800000Y-41550000D03*
X57800000Y-42510000D03*
%TD*%
D10*
%TO.C,R10*%
X57490000Y-47000000D03*
X58510000Y-47000000D03*
%TD*%
D17*
%TO.C,C7*%
X73625000Y-50000000D03*
X75175000Y-50000000D03*
%TD*%
D11*
%TO.C,C10*%
X32525000Y-26000000D03*
X35475000Y-26000000D03*
%TD*%
D16*
%TO.C,H2*%
X82000000Y-5000000D03*
%TD*%
D10*
%TO.C,R3*%
X49990000Y-19000000D03*
X51010000Y-19000000D03*
%TD*%
D11*
%TO.C,C17*%
X72525000Y-38000000D03*
X75475000Y-38000000D03*
%TD*%
D18*
%TO.C,U1*%
X18700000Y-29050000D03*
X18700000Y-30000000D03*
X18700000Y-30950000D03*
X21300000Y-30950000D03*
X21300000Y-30000000D03*
X21300000Y-29050000D03*
%TD*%
D12*
%TO.C,C20*%
X52350000Y-14775000D03*
X52350000Y-13225000D03*
%TD*%
D15*
%TO.C,TP6*%
X37700000Y-56000000D03*
%TD*%
D19*
%TO.C,J1*%
X3000000Y-28000000D03*
X9000000Y-28000000D03*
D20*
X6000000Y-31000000D03*
D21*
X6000000Y-28000000D03*
%TD*%
D16*
%TO.C,H4*%
X5000000Y-55000000D03*
%TD*%
D10*
%TO.C,R2*%
X57990000Y-19000000D03*
X59010000Y-19000000D03*
%TD*%
D22*
%TO.C,C13*%
X44300000Y-32000000D03*
X49700000Y-32000000D03*
%TD*%
D15*
%TO.C,TP9*%
X45320000Y-56000000D03*
%TD*%
%TO.C,TP8*%
X42780000Y-56000000D03*
%TD*%
D10*
%TO.C,R11*%
X65490000Y-49000000D03*
X66510000Y-49000000D03*
%TD*%
D23*
%TO.C,Q1*%
X29770000Y-31905000D03*
X29770000Y-30635000D03*
X29770000Y-29365000D03*
X29770000Y-28095000D03*
D24*
X25764000Y-28095000D03*
D25*
X26059000Y-28730000D03*
X26059000Y-30000000D03*
X26059000Y-31270000D03*
D24*
X25764000Y-29365000D03*
X25764000Y-30635000D03*
X25764000Y-31905000D03*
%TD*%
D15*
%TO.C,TP2*%
X27540000Y-56000000D03*
%TD*%
D26*
%TO.C,RSH1*%
X33515000Y-30365000D03*
X39485000Y-31635000D03*
D27*
X33220000Y-32270000D03*
X39780000Y-29730000D03*
%TD*%
D11*
%TO.C,C18*%
X67525000Y-45000000D03*
X70475000Y-45000000D03*
%TD*%
D10*
%TO.C,R13*%
X74090000Y-56500000D03*
X75110000Y-56500000D03*
%TD*%
D28*
%TO.C,U3*%
X55000000Y-14000000D03*
D29*
X54072500Y-14900000D03*
D30*
X53897500Y-14725000D03*
D29*
X55927500Y-14900000D03*
D30*
X56102500Y-14725000D03*
D31*
X56125000Y-14075000D03*
D32*
X56175000Y-13300000D03*
D33*
X56000000Y-13100000D03*
D34*
X55525000Y-13125000D03*
X54475000Y-13125000D03*
D32*
X53825000Y-13300000D03*
D33*
X54000000Y-13100000D03*
D31*
X53875000Y-14075000D03*
%TD*%
D16*
%TO.C,H1*%
X5000000Y-5000000D03*
%TD*%
D10*
%TO.C,R4*%
X52490000Y-21000000D03*
X53510000Y-21000000D03*
%TD*%
D35*
%TO.C,L2*%
X60240000Y-42000000D03*
X64760000Y-42000000D03*
%TD*%
D10*
%TO.C,R14*%
X74090000Y-58000000D03*
X75110000Y-58000000D03*
%TD*%
%TO.C,R9*%
X54490000Y-49000000D03*
X55510000Y-49000000D03*
%TD*%
D36*
%TO.C,U2*%
X41800000Y-22000000D03*
X41800000Y-22500000D03*
X41800000Y-23000000D03*
X41800000Y-23500000D03*
X41800000Y-24000000D03*
X46200000Y-24000000D03*
X46200000Y-23500000D03*
X46200000Y-23000000D03*
X46200000Y-22500000D03*
X46200000Y-22000000D03*
%TD*%
D11*
%TO.C,C5*%
X67525000Y-38000000D03*
X70475000Y-38000000D03*
%TD*%
D37*
%TO.C,F1*%
X11600000Y-29000000D03*
X14400000Y-29000000D03*
%TD*%
D11*
%TO.C,C3*%
X67525000Y-10000000D03*
X70475000Y-10000000D03*
%TD*%
D13*
%TO.C,C2*%
X48020000Y-22000000D03*
X48980000Y-22000000D03*
%TD*%
D10*
%TO.C,R15*%
X60490000Y-20500000D03*
X61510000Y-20500000D03*
%TD*%
D38*
%TO.C,D1*%
X14500000Y-36150000D03*
X14500000Y-31850000D03*
%TD*%
D11*
%TO.C,C19*%
X72525000Y-42250000D03*
X75475000Y-42250000D03*
%TD*%
%TO.C,C11*%
X47525000Y-14000000D03*
X50475000Y-14000000D03*
%TD*%
D15*
%TO.C,TP1*%
X25000000Y-56000000D03*
%TD*%
D10*
%TO.C,R1*%
X55490000Y-19000000D03*
X56510000Y-19000000D03*
%TD*%
D15*
%TO.C,TP10*%
X47860000Y-56000000D03*
%TD*%
D10*
%TO.C,R8*%
X51990000Y-49000000D03*
X53010000Y-49000000D03*
%TD*%
D17*
%TO.C,C9*%
X15225000Y-26750000D03*
X16775000Y-26750000D03*
%TD*%
D11*
%TO.C,C15*%
X67525000Y-17000000D03*
X70475000Y-17000000D03*
%TD*%
D15*
%TO.C,TP3*%
X30080000Y-56000000D03*
%TD*%
D39*
%TO.C,J2*%
X85400000Y-42150000D03*
X85400000Y-52850000D03*
D40*
X81080000Y-40000000D03*
D21*
X81080000Y-43000000D03*
X81080000Y-46000000D03*
X81080000Y-49000000D03*
X81080000Y-52000000D03*
X81080000Y-55000000D03*
X78080000Y-40000000D03*
X78080000Y-43000000D03*
X78080000Y-46000000D03*
X78080000Y-49000000D03*
X78080000Y-52000000D03*
X78080000Y-55000000D03*
%TD*%
D28*
%TO.C,U4*%
X55000000Y-42000000D03*
D29*
X54072500Y-42900000D03*
D30*
X53897500Y-42725000D03*
D29*
X55927500Y-42900000D03*
D30*
X56102500Y-42725000D03*
D31*
X56125000Y-42075000D03*
D32*
X56175000Y-41300000D03*
D33*
X56000000Y-41100000D03*
D34*
X55525000Y-41125000D03*
X54475000Y-41125000D03*
D32*
X53825000Y-41300000D03*
D33*
X54000000Y-41100000D03*
D31*
X53875000Y-42075000D03*
%TD*%
D10*
%TO.C,R5*%
X54990000Y-21000000D03*
X56010000Y-21000000D03*
%TD*%
D17*
%TO.C,C8*%
X74125000Y-54000000D03*
X75675000Y-54000000D03*
%TD*%
D10*
%TO.C,R12*%
X67990000Y-49000000D03*
X69010000Y-49000000D03*
%TD*%
D35*
%TO.C,L1*%
X60240000Y-14000000D03*
X64760000Y-14000000D03*
%TD*%
D11*
%TO.C,C14*%
X72525000Y-10000000D03*
X75475000Y-10000000D03*
%TD*%
D18*
%TO.C,U5*%
X73100000Y-45050000D03*
X73100000Y-46000000D03*
X73100000Y-46950000D03*
X75700000Y-46950000D03*
X75700000Y-45050000D03*
%TD*%
D15*
%TO.C,TP5*%
X35160000Y-56000000D03*
%TD*%
%TO.C,TP4*%
X32620000Y-56000000D03*
%TD*%
M02*
